M48
;DRILL file {KiCad 4.1.0-alpha+201608010716+6997~46~ubuntu16.04.1-product} date Mon Aug  8 14:57:08 2016
;FORMAT={-:-/ absolute / inch / decimal}
FMAT,2
INCH,TZ
T1C0.025
T2C0.031
T3C0.038
T4C0.043
T5C0.130
%
G90
G05
M72
T1
X4.7167Y-3.7249
X4.8676Y-3.7251
X4.8777Y-3.9586
X5.0395Y-3.7324
X5.1176Y-3.7662
X5.1765Y-3.7439
X5.2163Y-3.705
X5.2728Y-3.6857
T2
X3.436Y-3.825
X3.436Y-4.025
T3
X3.325Y-3.825
X3.325Y-4.025
X3.925Y-4.075
X3.925Y-4.275
X4.025Y-4.075
X4.025Y-4.275
X4.125Y-4.075
X4.125Y-4.275
X4.225Y-4.075
X4.225Y-4.275
X4.325Y-4.075
X4.325Y-4.275
X4.425Y-4.075
X4.425Y-4.275
X4.525Y-4.075
X4.525Y-4.275
X4.625Y-4.075
X4.625Y-4.275
T4
X3.Y-3.225
X3.Y-4.625
X3.1Y-3.225
X3.1Y-4.625
X3.2Y-3.225
X3.2Y-4.625
X3.3Y-3.225
X3.3Y-4.625
X3.4Y-3.225
X3.4Y-4.625
X3.5Y-3.225
X3.5Y-4.625
X3.6Y-3.225
X3.6Y-4.625
X3.7Y-3.225
X3.7Y-4.625
X3.8Y-3.225
X3.8Y-4.625
X3.9Y-3.225
X3.9Y-4.625
X4.Y-3.225
X4.Y-4.625
X4.1Y-3.225
X4.1Y-4.625
X4.2Y-3.225
X4.2Y-4.625
X4.3Y-3.225
X4.3Y-4.625
X4.4Y-3.225
X4.4Y-4.625
X4.5Y-3.225
X4.5Y-4.625
T5
X3.05Y-3.425
X3.05Y-4.425
X4.65Y-3.225
X4.65Y-4.625
T0
M30
