M48
;DRILL file {KiCad 4.1.0-alpha+201606220817+6945~45~ubuntu16.04.1-product} date Wed Jun 22 14:42:37 2016
;FORMAT={-:-/ absolute / inch / decimal}
FMAT,2
INCH,TZ
T1C0.025
T2C0.031
T3C0.035
T4C0.038
T5C0.039
T6C0.040
T7C0.047
T8C0.063
T9C0.090
T10C0.106
T11C0.124
T12C0.130
%
G90
G05
M72
T1
X4.5892Y-3.9076
X5.3072Y-3.5038
X5.5229Y-3.9171
X5.5554Y-4.3593
X5.6036Y-4.4189
X5.6245Y-3.7778
X5.6317Y-4.3917
X5.6491Y-3.8751
X5.7157Y-4.7274
X5.8019Y-3.7086
X5.8088Y-3.7483
X5.8546Y-4.0109
X5.9043Y-4.0252
X6.0343Y-4.1148
X6.0929Y-4.4851
X6.1429Y-3.4982
X6.1918Y-4.518
X6.1933Y-4.1338
X6.3252Y-4.4052
X6.8484Y-4.1509
X6.9752Y-4.5231
X7.0897Y-3.5438
X7.0992Y-3.5949
X7.1655Y-4.1509
X7.1657Y-4.283
X7.1771Y-3.5452
X7.2456Y-3.6873
X7.2775Y-3.5938
X7.2988Y-4.5151
X7.3022Y-4.5549
X7.4453Y-4.2727
X7.9783Y-3.5765
T2
X7.825Y-3.739
X8.025Y-3.739
T3
X4.15Y-4.05
X4.25Y-3.95
X4.25Y-4.05
X4.25Y-4.15
T4
X4.65Y-3.775
X4.65Y-3.975
X4.65Y-4.675
X4.65Y-4.875
X4.75Y-3.775
X4.75Y-3.975
X4.75Y-4.675
X4.75Y-4.875
X4.85Y-3.775
X4.85Y-3.975
X4.85Y-4.675
X4.85Y-4.875
X4.95Y-3.775
X4.95Y-3.975
X4.95Y-4.675
X4.95Y-4.875
X5.05Y-3.775
X5.05Y-3.975
X5.05Y-4.675
X5.05Y-4.875
X5.15Y-3.775
X5.15Y-3.975
X5.15Y-4.675
X5.15Y-4.875
X5.25Y-3.775
X5.25Y-3.975
X5.25Y-4.675
X5.25Y-4.875
X5.35Y-3.775
X5.35Y-3.975
X5.35Y-4.675
X5.35Y-4.875
X6.05Y-3.775
X6.05Y-3.975
X6.05Y-4.675
X6.05Y-4.875
X6.15Y-3.775
X6.15Y-3.975
X6.15Y-4.675
X6.15Y-4.875
X6.25Y-3.775
X6.25Y-3.975
X6.25Y-4.675
X6.25Y-4.875
X6.35Y-3.775
X6.35Y-3.975
X6.35Y-4.675
X6.35Y-4.875
X6.45Y-3.775
X6.45Y-3.975
X6.45Y-4.675
X6.45Y-4.875
X6.55Y-3.775
X6.55Y-3.975
X6.55Y-4.675
X6.55Y-4.875
X6.65Y-3.775
X6.65Y-3.975
X6.65Y-4.675
X6.65Y-4.875
X6.75Y-3.775
X6.75Y-3.975
X6.75Y-4.675
X6.75Y-4.875
X7.775Y-4.3
X7.975Y-4.3
T5
X3.975Y-4.45
X4.075Y-4.45
X4.175Y-4.45
T6
X4.59Y-3.1
X4.69Y-3.1
X4.79Y-3.1
X4.89Y-3.1
X4.95Y-5.
X4.99Y-3.1
X5.05Y-5.
X5.09Y-3.1
X5.15Y-5.
X5.19Y-3.1
X5.25Y-5.
X5.29Y-3.1
X5.35Y-5.
X5.39Y-3.1
X5.45Y-5.
X5.49Y-3.1
X5.55Y-5.
X5.65Y-3.1
X5.65Y-5.
X5.75Y-3.1
X5.85Y-3.1
X5.85Y-5.
X5.95Y-3.1
X5.95Y-5.
X6.05Y-3.1
X6.05Y-5.
X6.15Y-3.1
X6.15Y-5.
X6.25Y-3.1
X6.25Y-5.
X6.35Y-3.1
X6.35Y-5.
X6.45Y-5.
X6.55Y-3.1
X6.55Y-5.
X6.65Y-3.1
X6.75Y-3.1
X6.75Y-5.
X6.85Y-3.1
X6.85Y-5.
X6.95Y-3.1
X6.95Y-5.
X7.05Y-3.1
X7.05Y-5.
X7.15Y-3.1
X7.15Y-5.
X7.25Y-3.1
X7.25Y-5.
X7.35Y-5.
X7.45Y-5.
X7.55Y-3.1
X7.55Y-3.2
X7.55Y-3.3
X7.55Y-3.4
X7.55Y-3.5
X7.55Y-3.6
X7.55Y-3.7
X7.55Y-3.8
X7.55Y-3.9
X7.55Y-4.
X7.55Y-4.1
X7.55Y-4.2
X7.55Y-4.3
X7.55Y-4.4
X7.55Y-4.5
X7.55Y-4.6
X7.55Y-4.7
X7.55Y-4.8
X7.65Y-3.1
X7.65Y-3.2
X7.65Y-3.3
X7.65Y-3.4
X7.65Y-3.5
X7.65Y-3.6
X7.65Y-3.7
X7.65Y-3.8
X7.65Y-3.9
X7.65Y-4.
X7.65Y-4.1
X7.65Y-4.2
X7.65Y-4.3
X7.65Y-4.4
X7.65Y-4.5
X7.65Y-4.6
X7.65Y-4.7
X7.65Y-4.8
T7
X3.925Y-3.16
X3.925Y-3.55
X7.83Y-3.265
X7.83Y-4.835
X7.88Y-4.885
X8.085Y-3.155
X8.085Y-3.545
X8.17Y-4.885
X8.22Y-3.265
X8.22Y-4.835
T8
X8.207Y-4.05
T9
X3.9Y-3.85
X3.9Y-4.25
T10
X8.089Y-4.05
X8.128Y-3.873
X8.128Y-4.227
T11
X7.853Y-4.05
T12
X4.4Y-5.
X4.45Y-3.1
X7.4Y-3.1
X7.65Y-5.
T0
M30
