G04 #@! TF.FileFunction,Legend,Top*
%FSLAX46Y46*%
G04 Gerber Fmt 4.6, Leading zero omitted, Abs format (unit mm)*
G04 Created by KiCad (PCBNEW 4.1.0-alpha+201606220817+6945~45~ubuntu16.04.1-product) date Wed Jun 22 14:42:33 2016*
%MOMM*%
%LPD*%
G01*
G04 APERTURE LIST*
%ADD10C,0.100000*%
%ADD11C,0.254000*%
%ADD12C,0.381000*%
%ADD13C,0.190500*%
%ADD14C,0.635000*%
%ADD15C,0.228600*%
%ADD16O,1.524000X2.540000*%
%ADD17C,1.930400*%
%ADD18O,4.572000X3.556000*%
%ADD19O,4.064000X5.080000*%
%ADD20O,5.080000X3.556000*%
%ADD21O,5.080000X3.048000*%
%ADD22O,2.032000X1.524000*%
%ADD23O,1.524000X2.032000*%
%ADD24R,1.016000X4.495800*%
%ADD25C,3.759200*%
%ADD26O,2.540000X1.524000*%
%ADD27R,4.191000X1.778000*%
%ADD28C,1.600200*%
%ADD29R,5.029200X2.997200*%
%ADD30R,1.778000X4.191000*%
%ADD31R,2.997200X5.029200*%
%ADD32R,5.160000X4.000000*%
%ADD33R,1.640000X1.800000*%
%ADD34O,1.651000X2.159000*%
G04 APERTURE END LIST*
D10*
D11*
X206622952Y-120722571D02*
X207397047Y-120722571D01*
X200272952Y-120722571D02*
X201047047Y-120722571D01*
X200660000Y-121109619D02*
X200660000Y-120335523D01*
X197841809Y-90629619D02*
X197358000Y-90629619D01*
X197358000Y-89613619D01*
X198180476Y-90629619D02*
X198180476Y-89952285D01*
X198180476Y-89613619D02*
X198132095Y-89662000D01*
X198180476Y-89710380D01*
X198228857Y-89662000D01*
X198180476Y-89613619D01*
X198180476Y-89710380D01*
X199099714Y-89952285D02*
X199099714Y-90774761D01*
X199051333Y-90871523D01*
X199002952Y-90919904D01*
X198906190Y-90968285D01*
X198761047Y-90968285D01*
X198664285Y-90919904D01*
X199099714Y-90581238D02*
X199002952Y-90629619D01*
X198809428Y-90629619D01*
X198712666Y-90581238D01*
X198664285Y-90532857D01*
X198615904Y-90436095D01*
X198615904Y-90145809D01*
X198664285Y-90049047D01*
X198712666Y-90000666D01*
X198809428Y-89952285D01*
X199002952Y-89952285D01*
X199099714Y-90000666D01*
X199583523Y-90629619D02*
X199583523Y-89613619D01*
X200018952Y-90629619D02*
X200018952Y-90097428D01*
X199970571Y-90000666D01*
X199873809Y-89952285D01*
X199728666Y-89952285D01*
X199631904Y-90000666D01*
X199583523Y-90049047D01*
X200357619Y-89952285D02*
X200744666Y-89952285D01*
X200502761Y-89613619D02*
X200502761Y-90484476D01*
X200551142Y-90581238D01*
X200647904Y-90629619D01*
X200744666Y-90629619D01*
X201034952Y-90581238D02*
X201131714Y-90629619D01*
X201325238Y-90629619D01*
X201422000Y-90581238D01*
X201470380Y-90484476D01*
X201470380Y-90436095D01*
X201422000Y-90339333D01*
X201325238Y-90290952D01*
X201180095Y-90290952D01*
X201083333Y-90242571D01*
X201034952Y-90145809D01*
X201034952Y-90097428D01*
X201083333Y-90000666D01*
X201180095Y-89952285D01*
X201325238Y-89952285D01*
X201422000Y-90000666D01*
D12*
X200097571Y-118091857D02*
X200315285Y-118164428D01*
X200678142Y-118164428D01*
X200823285Y-118091857D01*
X200895857Y-118019285D01*
X200968428Y-117874142D01*
X200968428Y-117729000D01*
X200895857Y-117583857D01*
X200823285Y-117511285D01*
X200678142Y-117438714D01*
X200387857Y-117366142D01*
X200242714Y-117293571D01*
X200170142Y-117221000D01*
X200097571Y-117075857D01*
X200097571Y-116930714D01*
X200170142Y-116785571D01*
X200242714Y-116713000D01*
X200387857Y-116640428D01*
X200750714Y-116640428D01*
X200968428Y-116713000D01*
X202202142Y-118091857D02*
X202057000Y-118164428D01*
X201766714Y-118164428D01*
X201621571Y-118091857D01*
X201549000Y-117946714D01*
X201549000Y-117366142D01*
X201621571Y-117221000D01*
X201766714Y-117148428D01*
X202057000Y-117148428D01*
X202202142Y-117221000D01*
X202274714Y-117366142D01*
X202274714Y-117511285D01*
X201549000Y-117656428D01*
X202927857Y-118164428D02*
X202927857Y-117148428D01*
X202927857Y-117438714D02*
X203000428Y-117293571D01*
X203073000Y-117221000D01*
X203218142Y-117148428D01*
X203363285Y-117148428D01*
X203871285Y-118164428D02*
X203871285Y-117148428D01*
X203871285Y-116640428D02*
X203798714Y-116713000D01*
X203871285Y-116785571D01*
X203943857Y-116713000D01*
X203871285Y-116640428D01*
X203871285Y-116785571D01*
X205250142Y-118164428D02*
X205250142Y-117366142D01*
X205177571Y-117221000D01*
X205032428Y-117148428D01*
X204742142Y-117148428D01*
X204597000Y-117221000D01*
X205250142Y-118091857D02*
X205105000Y-118164428D01*
X204742142Y-118164428D01*
X204597000Y-118091857D01*
X204524428Y-117946714D01*
X204524428Y-117801571D01*
X204597000Y-117656428D01*
X204742142Y-117583857D01*
X205105000Y-117583857D01*
X205250142Y-117511285D01*
X206193571Y-118164428D02*
X206048428Y-118091857D01*
X205975857Y-117946714D01*
X205975857Y-116640428D01*
X206629000Y-116640428D02*
X207572428Y-116640428D01*
X207064428Y-117221000D01*
X207282142Y-117221000D01*
X207427285Y-117293571D01*
X207499857Y-117366142D01*
X207572428Y-117511285D01*
X207572428Y-117874142D01*
X207499857Y-118019285D01*
X207427285Y-118091857D01*
X207282142Y-118164428D01*
X206846714Y-118164428D01*
X206701571Y-118091857D01*
X206629000Y-118019285D01*
X198101857Y-88827428D02*
X198174428Y-88609714D01*
X198174428Y-88246857D01*
X198101857Y-88101714D01*
X198029285Y-88029142D01*
X197884142Y-87956571D01*
X197739000Y-87956571D01*
X197593857Y-88029142D01*
X197521285Y-88101714D01*
X197448714Y-88246857D01*
X197376142Y-88537142D01*
X197303571Y-88682285D01*
X197231000Y-88754857D01*
X197085857Y-88827428D01*
X196940714Y-88827428D01*
X196795571Y-88754857D01*
X196723000Y-88682285D01*
X196650428Y-88537142D01*
X196650428Y-88174285D01*
X196723000Y-87956571D01*
X198101857Y-86722857D02*
X198174428Y-86868000D01*
X198174428Y-87158285D01*
X198101857Y-87303428D01*
X197956714Y-87376000D01*
X197376142Y-87376000D01*
X197231000Y-87303428D01*
X197158428Y-87158285D01*
X197158428Y-86868000D01*
X197231000Y-86722857D01*
X197376142Y-86650285D01*
X197521285Y-86650285D01*
X197666428Y-87376000D01*
X198174428Y-85997142D02*
X197158428Y-85997142D01*
X197448714Y-85997142D02*
X197303571Y-85924571D01*
X197231000Y-85852000D01*
X197158428Y-85706857D01*
X197158428Y-85561714D01*
X198174428Y-85053714D02*
X197158428Y-85053714D01*
X196650428Y-85053714D02*
X196723000Y-85126285D01*
X196795571Y-85053714D01*
X196723000Y-84981142D01*
X196650428Y-85053714D01*
X196795571Y-85053714D01*
X198174428Y-83674857D02*
X197376142Y-83674857D01*
X197231000Y-83747428D01*
X197158428Y-83892571D01*
X197158428Y-84182857D01*
X197231000Y-84328000D01*
X198101857Y-83674857D02*
X198174428Y-83820000D01*
X198174428Y-84182857D01*
X198101857Y-84328000D01*
X197956714Y-84400571D01*
X197811571Y-84400571D01*
X197666428Y-84328000D01*
X197593857Y-84182857D01*
X197593857Y-83820000D01*
X197521285Y-83674857D01*
X198174428Y-82731428D02*
X198101857Y-82876571D01*
X197956714Y-82949142D01*
X196650428Y-82949142D01*
X196795571Y-82223428D02*
X196723000Y-82150857D01*
X196650428Y-82005714D01*
X196650428Y-81642857D01*
X196723000Y-81497714D01*
X196795571Y-81425142D01*
X196940714Y-81352571D01*
X197085857Y-81352571D01*
X197303571Y-81425142D01*
X198174428Y-82296000D01*
X198174428Y-81352571D01*
X200097571Y-77451857D02*
X200315285Y-77524428D01*
X200678142Y-77524428D01*
X200823285Y-77451857D01*
X200895857Y-77379285D01*
X200968428Y-77234142D01*
X200968428Y-77089000D01*
X200895857Y-76943857D01*
X200823285Y-76871285D01*
X200678142Y-76798714D01*
X200387857Y-76726142D01*
X200242714Y-76653571D01*
X200170142Y-76581000D01*
X200097571Y-76435857D01*
X200097571Y-76290714D01*
X200170142Y-76145571D01*
X200242714Y-76073000D01*
X200387857Y-76000428D01*
X200750714Y-76000428D01*
X200968428Y-76073000D01*
X202202142Y-77451857D02*
X202057000Y-77524428D01*
X201766714Y-77524428D01*
X201621571Y-77451857D01*
X201549000Y-77306714D01*
X201549000Y-76726142D01*
X201621571Y-76581000D01*
X201766714Y-76508428D01*
X202057000Y-76508428D01*
X202202142Y-76581000D01*
X202274714Y-76726142D01*
X202274714Y-76871285D01*
X201549000Y-77016428D01*
X202927857Y-77524428D02*
X202927857Y-76508428D01*
X202927857Y-76798714D02*
X203000428Y-76653571D01*
X203073000Y-76581000D01*
X203218142Y-76508428D01*
X203363285Y-76508428D01*
X203871285Y-77524428D02*
X203871285Y-76508428D01*
X203871285Y-76000428D02*
X203798714Y-76073000D01*
X203871285Y-76145571D01*
X203943857Y-76073000D01*
X203871285Y-76000428D01*
X203871285Y-76145571D01*
X205250142Y-77524428D02*
X205250142Y-76726142D01*
X205177571Y-76581000D01*
X205032428Y-76508428D01*
X204742142Y-76508428D01*
X204597000Y-76581000D01*
X205250142Y-77451857D02*
X205105000Y-77524428D01*
X204742142Y-77524428D01*
X204597000Y-77451857D01*
X204524428Y-77306714D01*
X204524428Y-77161571D01*
X204597000Y-77016428D01*
X204742142Y-76943857D01*
X205105000Y-76943857D01*
X205250142Y-76871285D01*
X206193571Y-77524428D02*
X206048428Y-77451857D01*
X205975857Y-77306714D01*
X205975857Y-76000428D01*
X207572428Y-77524428D02*
X206701571Y-77524428D01*
X207137000Y-77524428D02*
X207137000Y-76000428D01*
X206991857Y-76218142D01*
X206846714Y-76363285D01*
X206701571Y-76435857D01*
X107296857Y-88827428D02*
X107369428Y-88609714D01*
X107369428Y-88246857D01*
X107296857Y-88101714D01*
X107224285Y-88029142D01*
X107079142Y-87956571D01*
X106934000Y-87956571D01*
X106788857Y-88029142D01*
X106716285Y-88101714D01*
X106643714Y-88246857D01*
X106571142Y-88537142D01*
X106498571Y-88682285D01*
X106426000Y-88754857D01*
X106280857Y-88827428D01*
X106135714Y-88827428D01*
X105990571Y-88754857D01*
X105918000Y-88682285D01*
X105845428Y-88537142D01*
X105845428Y-88174285D01*
X105918000Y-87956571D01*
X107296857Y-86722857D02*
X107369428Y-86868000D01*
X107369428Y-87158285D01*
X107296857Y-87303428D01*
X107151714Y-87376000D01*
X106571142Y-87376000D01*
X106426000Y-87303428D01*
X106353428Y-87158285D01*
X106353428Y-86868000D01*
X106426000Y-86722857D01*
X106571142Y-86650285D01*
X106716285Y-86650285D01*
X106861428Y-87376000D01*
X107369428Y-85997142D02*
X106353428Y-85997142D01*
X106643714Y-85997142D02*
X106498571Y-85924571D01*
X106426000Y-85852000D01*
X106353428Y-85706857D01*
X106353428Y-85561714D01*
X107369428Y-85053714D02*
X106353428Y-85053714D01*
X105845428Y-85053714D02*
X105918000Y-85126285D01*
X105990571Y-85053714D01*
X105918000Y-84981142D01*
X105845428Y-85053714D01*
X105990571Y-85053714D01*
X107369428Y-83674857D02*
X106571142Y-83674857D01*
X106426000Y-83747428D01*
X106353428Y-83892571D01*
X106353428Y-84182857D01*
X106426000Y-84328000D01*
X107296857Y-83674857D02*
X107369428Y-83820000D01*
X107369428Y-84182857D01*
X107296857Y-84328000D01*
X107151714Y-84400571D01*
X107006571Y-84400571D01*
X106861428Y-84328000D01*
X106788857Y-84182857D01*
X106788857Y-83820000D01*
X106716285Y-83674857D01*
X107369428Y-82731428D02*
X107296857Y-82876571D01*
X107151714Y-82949142D01*
X105845428Y-82949142D01*
X105845428Y-81860571D02*
X105845428Y-81715428D01*
X105918000Y-81570285D01*
X105990571Y-81497714D01*
X106135714Y-81425142D01*
X106426000Y-81352571D01*
X106788857Y-81352571D01*
X107079142Y-81425142D01*
X107224285Y-81497714D01*
X107296857Y-81570285D01*
X107369428Y-81715428D01*
X107369428Y-81860571D01*
X107296857Y-82005714D01*
X107224285Y-82078285D01*
X107079142Y-82150857D01*
X106788857Y-82223428D01*
X106426000Y-82223428D01*
X106135714Y-82150857D01*
X105990571Y-82078285D01*
X105918000Y-82005714D01*
X105845428Y-81860571D01*
D13*
X196505285Y-107732285D02*
X196469000Y-107696000D01*
X196432714Y-107623428D01*
X196432714Y-107442000D01*
X196469000Y-107369428D01*
X196505285Y-107333142D01*
X196577857Y-107296857D01*
X196650428Y-107296857D01*
X196759285Y-107333142D01*
X197194714Y-107768571D01*
X197194714Y-107296857D01*
X197122142Y-106970285D02*
X197158428Y-106934000D01*
X197194714Y-106970285D01*
X197158428Y-107006571D01*
X197122142Y-106970285D01*
X197194714Y-106970285D01*
X196432714Y-106244571D02*
X196432714Y-106607428D01*
X196795571Y-106643714D01*
X196759285Y-106607428D01*
X196723000Y-106534857D01*
X196723000Y-106353428D01*
X196759285Y-106280857D01*
X196795571Y-106244571D01*
X196868142Y-106208285D01*
X197049571Y-106208285D01*
X197122142Y-106244571D01*
X197158428Y-106280857D01*
X197194714Y-106353428D01*
X197194714Y-106534857D01*
X197158428Y-106607428D01*
X197122142Y-106643714D01*
X197194714Y-105954285D02*
X196686714Y-105555142D01*
X196686714Y-105954285D02*
X197194714Y-105555142D01*
X196432714Y-104902000D02*
X196432714Y-105264857D01*
X196795571Y-105301142D01*
X196759285Y-105264857D01*
X196723000Y-105192285D01*
X196723000Y-105010857D01*
X196759285Y-104938285D01*
X196795571Y-104902000D01*
X196868142Y-104865714D01*
X197049571Y-104865714D01*
X197122142Y-104902000D01*
X197158428Y-104938285D01*
X197194714Y-105010857D01*
X197194714Y-105192285D01*
X197158428Y-105264857D01*
X197122142Y-105301142D01*
X197122142Y-104539142D02*
X197158428Y-104502857D01*
X197194714Y-104539142D01*
X197158428Y-104575428D01*
X197122142Y-104539142D01*
X197194714Y-104539142D01*
X196432714Y-103813428D02*
X196432714Y-104176285D01*
X196795571Y-104212571D01*
X196759285Y-104176285D01*
X196723000Y-104103714D01*
X196723000Y-103922285D01*
X196759285Y-103849714D01*
X196795571Y-103813428D01*
X196868142Y-103777142D01*
X197049571Y-103777142D01*
X197122142Y-103813428D01*
X197158428Y-103849714D01*
X197194714Y-103922285D01*
X197194714Y-104103714D01*
X197158428Y-104176285D01*
X197122142Y-104212571D01*
X197122142Y-102434571D02*
X197158428Y-102470857D01*
X197194714Y-102579714D01*
X197194714Y-102652285D01*
X197158428Y-102761142D01*
X197085857Y-102833714D01*
X197013285Y-102870000D01*
X196868142Y-102906285D01*
X196759285Y-102906285D01*
X196614142Y-102870000D01*
X196541571Y-102833714D01*
X196469000Y-102761142D01*
X196432714Y-102652285D01*
X196432714Y-102579714D01*
X196469000Y-102470857D01*
X196505285Y-102434571D01*
X197158428Y-101817714D02*
X197194714Y-101890285D01*
X197194714Y-102035428D01*
X197158428Y-102108000D01*
X197085857Y-102144285D01*
X196795571Y-102144285D01*
X196723000Y-102108000D01*
X196686714Y-102035428D01*
X196686714Y-101890285D01*
X196723000Y-101817714D01*
X196795571Y-101781428D01*
X196868142Y-101781428D01*
X196940714Y-102144285D01*
X196686714Y-101454857D02*
X197194714Y-101454857D01*
X196759285Y-101454857D02*
X196723000Y-101418571D01*
X196686714Y-101346000D01*
X196686714Y-101237142D01*
X196723000Y-101164571D01*
X196795571Y-101128285D01*
X197194714Y-101128285D01*
X196686714Y-100874285D02*
X196686714Y-100584000D01*
X196432714Y-100765428D02*
X197085857Y-100765428D01*
X197158428Y-100729142D01*
X197194714Y-100656571D01*
X197194714Y-100584000D01*
X197158428Y-100039714D02*
X197194714Y-100112285D01*
X197194714Y-100257428D01*
X197158428Y-100330000D01*
X197085857Y-100366285D01*
X196795571Y-100366285D01*
X196723000Y-100330000D01*
X196686714Y-100257428D01*
X196686714Y-100112285D01*
X196723000Y-100039714D01*
X196795571Y-100003428D01*
X196868142Y-100003428D01*
X196940714Y-100366285D01*
X197194714Y-99676857D02*
X196686714Y-99676857D01*
X196831857Y-99676857D02*
X196759285Y-99640571D01*
X196723000Y-99604285D01*
X196686714Y-99531714D01*
X196686714Y-99459142D01*
X196904428Y-98624571D02*
X196904428Y-98044000D01*
X197194714Y-98334285D02*
X196614142Y-98334285D01*
D14*
X113332380Y-94796428D02*
X115267619Y-94796428D01*
X138732380Y-94796428D02*
X140667619Y-94796428D01*
X113332380Y-82096428D02*
X115267619Y-82096428D01*
X114300000Y-83064047D02*
X114300000Y-81128809D01*
X138732380Y-82096428D02*
X140667619Y-82096428D01*
X139700000Y-83064047D02*
X139700000Y-81128809D01*
X174292380Y-94796428D02*
X176227619Y-94796428D01*
X148892380Y-94796428D02*
X150827619Y-94796428D01*
X148892380Y-82096428D02*
X150827619Y-82096428D01*
X149860000Y-83064047D02*
X149860000Y-81128809D01*
X174292380Y-82096428D02*
X176227619Y-82096428D01*
X175260000Y-83064047D02*
X175260000Y-81128809D01*
X113332380Y-117656428D02*
X115267619Y-117656428D01*
X174292380Y-117656428D02*
X176227619Y-117656428D01*
X148892380Y-117656428D02*
X150827619Y-117656428D01*
X148892380Y-104956428D02*
X150827619Y-104956428D01*
X149860000Y-105924047D02*
X149860000Y-103988809D01*
X174292380Y-104956428D02*
X176227619Y-104956428D01*
X175260000Y-105924047D02*
X175260000Y-103988809D01*
X113332380Y-104956428D02*
X115267619Y-104956428D01*
X114300000Y-105924047D02*
X114300000Y-103988809D01*
D12*
X169599428Y-81776207D02*
X169599428Y-82647064D01*
X169599428Y-82211635D02*
X168075428Y-82211635D01*
X168293142Y-82356778D01*
X168438285Y-82501921D01*
X168510857Y-82647064D01*
X165680571Y-82647064D02*
X165608000Y-82574492D01*
X165535428Y-82429350D01*
X165535428Y-82066492D01*
X165608000Y-81921350D01*
X165680571Y-81848778D01*
X165825714Y-81776207D01*
X165970857Y-81776207D01*
X166188571Y-81848778D01*
X167059428Y-82719635D01*
X167059428Y-81776207D01*
X162995428Y-82719635D02*
X162995428Y-81776207D01*
X163576000Y-82284207D01*
X163576000Y-82066492D01*
X163648571Y-81921350D01*
X163721142Y-81848778D01*
X163866285Y-81776207D01*
X164229142Y-81776207D01*
X164374285Y-81848778D01*
X164446857Y-81921350D01*
X164519428Y-82066492D01*
X164519428Y-82501921D01*
X164446857Y-82647064D01*
X164374285Y-82719635D01*
X160963428Y-81921350D02*
X161979428Y-81921350D01*
X160382857Y-82284207D02*
X161471428Y-82647064D01*
X161471428Y-81703635D01*
X157915428Y-81848778D02*
X157915428Y-82574492D01*
X158641142Y-82647064D01*
X158568571Y-82574492D01*
X158496000Y-82429350D01*
X158496000Y-82066492D01*
X158568571Y-81921350D01*
X158641142Y-81848778D01*
X158786285Y-81776207D01*
X159149142Y-81776207D01*
X159294285Y-81848778D01*
X159366857Y-81921350D01*
X159439428Y-82066492D01*
X159439428Y-82429350D01*
X159366857Y-82574492D01*
X159294285Y-82647064D01*
X155375428Y-81921350D02*
X155375428Y-82211635D01*
X155448000Y-82356778D01*
X155520571Y-82429350D01*
X155738285Y-82574492D01*
X156028571Y-82647064D01*
X156609142Y-82647064D01*
X156754285Y-82574492D01*
X156826857Y-82501921D01*
X156899428Y-82356778D01*
X156899428Y-82066492D01*
X156826857Y-81921350D01*
X156754285Y-81848778D01*
X156609142Y-81776207D01*
X156246285Y-81776207D01*
X156101142Y-81848778D01*
X156028571Y-81921350D01*
X155956000Y-82066492D01*
X155956000Y-82356778D01*
X156028571Y-82501921D01*
X156101142Y-82574492D01*
X156246285Y-82647064D01*
X152835428Y-82719635D02*
X152835428Y-81703635D01*
X154359428Y-82356778D01*
X135708571Y-81721778D02*
X135636000Y-81866921D01*
X135563428Y-81939492D01*
X135418285Y-82012064D01*
X135345714Y-82012064D01*
X135200571Y-81939492D01*
X135128000Y-81866921D01*
X135055428Y-81721778D01*
X135055428Y-81431492D01*
X135128000Y-81286350D01*
X135200571Y-81213778D01*
X135345714Y-81141207D01*
X135418285Y-81141207D01*
X135563428Y-81213778D01*
X135636000Y-81286350D01*
X135708571Y-81431492D01*
X135708571Y-81721778D01*
X135781142Y-81866921D01*
X135853714Y-81939492D01*
X135998857Y-82012064D01*
X136289142Y-82012064D01*
X136434285Y-81939492D01*
X136506857Y-81866921D01*
X136579428Y-81721778D01*
X136579428Y-81431492D01*
X136506857Y-81286350D01*
X136434285Y-81213778D01*
X136289142Y-81141207D01*
X135998857Y-81141207D01*
X135853714Y-81213778D01*
X135781142Y-81286350D01*
X135708571Y-81431492D01*
X134039428Y-82501921D02*
X134039428Y-82211635D01*
X133966857Y-82066492D01*
X133894285Y-81993921D01*
X133676571Y-81848778D01*
X133386285Y-81776207D01*
X132805714Y-81776207D01*
X132660571Y-81848778D01*
X132588000Y-81921350D01*
X132515428Y-82066492D01*
X132515428Y-82356778D01*
X132588000Y-82501921D01*
X132660571Y-82574492D01*
X132805714Y-82647064D01*
X133168571Y-82647064D01*
X133313714Y-82574492D01*
X133386285Y-82501921D01*
X133458857Y-82356778D01*
X133458857Y-82066492D01*
X133386285Y-81921350D01*
X133313714Y-81848778D01*
X133168571Y-81776207D01*
X131499428Y-81776207D02*
X131499428Y-82647064D01*
X131499428Y-82211635D02*
X129975428Y-82211635D01*
X130193142Y-82356778D01*
X130338285Y-82501921D01*
X130410857Y-82647064D01*
X129975428Y-80832778D02*
X129975428Y-80687635D01*
X130048000Y-80542492D01*
X130120571Y-80469921D01*
X130265714Y-80397350D01*
X130556000Y-80324778D01*
X130918857Y-80324778D01*
X131209142Y-80397350D01*
X131354285Y-80469921D01*
X131426857Y-80542492D01*
X131499428Y-80687635D01*
X131499428Y-80832778D01*
X131426857Y-80977921D01*
X131354285Y-81050492D01*
X131209142Y-81123064D01*
X130918857Y-81195635D01*
X130556000Y-81195635D01*
X130265714Y-81123064D01*
X130120571Y-81050492D01*
X130048000Y-80977921D01*
X129975428Y-80832778D01*
X128959428Y-81776207D02*
X128959428Y-82647064D01*
X128959428Y-82211635D02*
X127435428Y-82211635D01*
X127653142Y-82356778D01*
X127798285Y-82501921D01*
X127870857Y-82647064D01*
X128959428Y-80324778D02*
X128959428Y-81195635D01*
X128959428Y-80760207D02*
X127435428Y-80760207D01*
X127653142Y-80905350D01*
X127798285Y-81050492D01*
X127870857Y-81195635D01*
X126419428Y-81776207D02*
X126419428Y-82647064D01*
X126419428Y-82211635D02*
X124895428Y-82211635D01*
X125113142Y-82356778D01*
X125258285Y-82501921D01*
X125330857Y-82647064D01*
X125040571Y-81195635D02*
X124968000Y-81123064D01*
X124895428Y-80977921D01*
X124895428Y-80615064D01*
X124968000Y-80469921D01*
X125040571Y-80397350D01*
X125185714Y-80324778D01*
X125330857Y-80324778D01*
X125548571Y-80397350D01*
X126419428Y-81268207D01*
X126419428Y-80324778D01*
X123879428Y-81776207D02*
X123879428Y-82647064D01*
X123879428Y-82211635D02*
X122355428Y-82211635D01*
X122573142Y-82356778D01*
X122718285Y-82501921D01*
X122790857Y-82647064D01*
X122355428Y-81268207D02*
X122355428Y-80324778D01*
X122936000Y-80832778D01*
X122936000Y-80615064D01*
X123008571Y-80469921D01*
X123081142Y-80397350D01*
X123226285Y-80324778D01*
X123589142Y-80324778D01*
X123734285Y-80397350D01*
X123806857Y-80469921D01*
X123879428Y-80615064D01*
X123879428Y-81050492D01*
X123806857Y-81195635D01*
X123734285Y-81268207D01*
X121339428Y-81776207D02*
X121339428Y-82647064D01*
X121339428Y-82211635D02*
X119815428Y-82211635D01*
X120033142Y-82356778D01*
X120178285Y-82501921D01*
X120250857Y-82647064D01*
X120323428Y-80469921D02*
X121339428Y-80469921D01*
X119742857Y-80832778D02*
X120831428Y-81195635D01*
X120831428Y-80252207D01*
X118799428Y-81776207D02*
X118799428Y-82647064D01*
X118799428Y-82211635D02*
X117275428Y-82211635D01*
X117493142Y-82356778D01*
X117638285Y-82501921D01*
X117710857Y-82647064D01*
X117275428Y-80397350D02*
X117275428Y-81123064D01*
X118001142Y-81195635D01*
X117928571Y-81123064D01*
X117856000Y-80977921D01*
X117856000Y-80615064D01*
X117928571Y-80469921D01*
X118001142Y-80397350D01*
X118146285Y-80324778D01*
X118509142Y-80324778D01*
X118654285Y-80397350D01*
X118726857Y-80469921D01*
X118799428Y-80615064D01*
X118799428Y-80977921D01*
X118726857Y-81123064D01*
X118654285Y-81195635D01*
X170615428Y-81649207D02*
X170615428Y-81504064D01*
X170688000Y-81358921D01*
X170760571Y-81286350D01*
X170905714Y-81213778D01*
X171196000Y-81141207D01*
X171558857Y-81141207D01*
X171849142Y-81213778D01*
X171994285Y-81286350D01*
X172066857Y-81358921D01*
X172139428Y-81504064D01*
X172139428Y-81649207D01*
X172066857Y-81794350D01*
X171994285Y-81866921D01*
X171849142Y-81939492D01*
X171558857Y-82012064D01*
X171196000Y-82012064D01*
X170905714Y-81939492D01*
X170760571Y-81866921D01*
X170688000Y-81794350D01*
X170615428Y-81649207D01*
X167059428Y-104636207D02*
X167059428Y-105507064D01*
X167059428Y-105071635D02*
X165535428Y-105071635D01*
X165753142Y-105216778D01*
X165898285Y-105361921D01*
X165970857Y-105507064D01*
X166188571Y-103765350D02*
X166116000Y-103910492D01*
X166043428Y-103983064D01*
X165898285Y-104055635D01*
X165825714Y-104055635D01*
X165680571Y-103983064D01*
X165608000Y-103910492D01*
X165535428Y-103765350D01*
X165535428Y-103475064D01*
X165608000Y-103329921D01*
X165680571Y-103257350D01*
X165825714Y-103184778D01*
X165898285Y-103184778D01*
X166043428Y-103257350D01*
X166116000Y-103329921D01*
X166188571Y-103475064D01*
X166188571Y-103765350D01*
X166261142Y-103910492D01*
X166333714Y-103983064D01*
X166478857Y-104055635D01*
X166769142Y-104055635D01*
X166914285Y-103983064D01*
X166986857Y-103910492D01*
X167059428Y-103765350D01*
X167059428Y-103475064D01*
X166986857Y-103329921D01*
X166914285Y-103257350D01*
X166769142Y-103184778D01*
X166478857Y-103184778D01*
X166333714Y-103257350D01*
X166261142Y-103329921D01*
X166188571Y-103475064D01*
X164519428Y-104636207D02*
X164519428Y-105507064D01*
X164519428Y-105071635D02*
X162995428Y-105071635D01*
X163213142Y-105216778D01*
X163358285Y-105361921D01*
X163430857Y-105507064D01*
X164519428Y-103910492D02*
X164519428Y-103620207D01*
X164446857Y-103475064D01*
X164374285Y-103402492D01*
X164156571Y-103257350D01*
X163866285Y-103184778D01*
X163285714Y-103184778D01*
X163140571Y-103257350D01*
X163068000Y-103329921D01*
X162995428Y-103475064D01*
X162995428Y-103765350D01*
X163068000Y-103910492D01*
X163140571Y-103983064D01*
X163285714Y-104055635D01*
X163648571Y-104055635D01*
X163793714Y-103983064D01*
X163866285Y-103910492D01*
X163938857Y-103765350D01*
X163938857Y-103475064D01*
X163866285Y-103329921D01*
X163793714Y-103257350D01*
X163648571Y-103184778D01*
X160600571Y-105507064D02*
X160528000Y-105434492D01*
X160455428Y-105289350D01*
X160455428Y-104926492D01*
X160528000Y-104781350D01*
X160600571Y-104708778D01*
X160745714Y-104636207D01*
X160890857Y-104636207D01*
X161108571Y-104708778D01*
X161979428Y-105579635D01*
X161979428Y-104636207D01*
X160455428Y-103692778D02*
X160455428Y-103547635D01*
X160528000Y-103402492D01*
X160600571Y-103329921D01*
X160745714Y-103257350D01*
X161036000Y-103184778D01*
X161398857Y-103184778D01*
X161689142Y-103257350D01*
X161834285Y-103329921D01*
X161906857Y-103402492D01*
X161979428Y-103547635D01*
X161979428Y-103692778D01*
X161906857Y-103837921D01*
X161834285Y-103910492D01*
X161689142Y-103983064D01*
X161398857Y-104055635D01*
X161036000Y-104055635D01*
X160745714Y-103983064D01*
X160600571Y-103910492D01*
X160528000Y-103837921D01*
X160455428Y-103692778D01*
X158060571Y-105507064D02*
X157988000Y-105434492D01*
X157915428Y-105289350D01*
X157915428Y-104926492D01*
X157988000Y-104781350D01*
X158060571Y-104708778D01*
X158205714Y-104636207D01*
X158350857Y-104636207D01*
X158568571Y-104708778D01*
X159439428Y-105579635D01*
X159439428Y-104636207D01*
X159439428Y-103184778D02*
X159439428Y-104055635D01*
X159439428Y-103620207D02*
X157915428Y-103620207D01*
X158133142Y-103765350D01*
X158278285Y-103910492D01*
X158350857Y-104055635D01*
X155520571Y-105507064D02*
X155448000Y-105434492D01*
X155375428Y-105289350D01*
X155375428Y-104926492D01*
X155448000Y-104781350D01*
X155520571Y-104708778D01*
X155665714Y-104636207D01*
X155810857Y-104636207D01*
X156028571Y-104708778D01*
X156899428Y-105579635D01*
X156899428Y-104636207D01*
X155520571Y-104055635D02*
X155448000Y-103983064D01*
X155375428Y-103837921D01*
X155375428Y-103475064D01*
X155448000Y-103329921D01*
X155520571Y-103257350D01*
X155665714Y-103184778D01*
X155810857Y-103184778D01*
X156028571Y-103257350D01*
X156899428Y-104128207D01*
X156899428Y-103184778D01*
X152980571Y-105507064D02*
X152908000Y-105434492D01*
X152835428Y-105289350D01*
X152835428Y-104926492D01*
X152908000Y-104781350D01*
X152980571Y-104708778D01*
X153125714Y-104636207D01*
X153270857Y-104636207D01*
X153488571Y-104708778D01*
X154359428Y-105579635D01*
X154359428Y-104636207D01*
X152835428Y-104128207D02*
X152835428Y-103184778D01*
X153416000Y-103692778D01*
X153416000Y-103475064D01*
X153488571Y-103329921D01*
X153561142Y-103257350D01*
X153706285Y-103184778D01*
X154069142Y-103184778D01*
X154214285Y-103257350D01*
X154286857Y-103329921D01*
X154359428Y-103475064D01*
X154359428Y-103910492D01*
X154286857Y-104055635D01*
X154214285Y-104128207D01*
X135200571Y-104872064D02*
X135128000Y-104799492D01*
X135055428Y-104654350D01*
X135055428Y-104291492D01*
X135128000Y-104146350D01*
X135200571Y-104073778D01*
X135345714Y-104001207D01*
X135490857Y-104001207D01*
X135708571Y-104073778D01*
X136579428Y-104944635D01*
X136579428Y-104001207D01*
X135563428Y-102694921D02*
X136579428Y-102694921D01*
X134982857Y-103057778D02*
X136071428Y-103420635D01*
X136071428Y-102477207D01*
X132660571Y-105507064D02*
X132588000Y-105434492D01*
X132515428Y-105289350D01*
X132515428Y-104926492D01*
X132588000Y-104781350D01*
X132660571Y-104708778D01*
X132805714Y-104636207D01*
X132950857Y-104636207D01*
X133168571Y-104708778D01*
X134039428Y-105579635D01*
X134039428Y-104636207D01*
X132515428Y-103257350D02*
X132515428Y-103983064D01*
X133241142Y-104055635D01*
X133168571Y-103983064D01*
X133096000Y-103837921D01*
X133096000Y-103475064D01*
X133168571Y-103329921D01*
X133241142Y-103257350D01*
X133386285Y-103184778D01*
X133749142Y-103184778D01*
X133894285Y-103257350D01*
X133966857Y-103329921D01*
X134039428Y-103475064D01*
X134039428Y-103837921D01*
X133966857Y-103983064D01*
X133894285Y-104055635D01*
X130120571Y-105507064D02*
X130048000Y-105434492D01*
X129975428Y-105289350D01*
X129975428Y-104926492D01*
X130048000Y-104781350D01*
X130120571Y-104708778D01*
X130265714Y-104636207D01*
X130410857Y-104636207D01*
X130628571Y-104708778D01*
X131499428Y-105579635D01*
X131499428Y-104636207D01*
X129975428Y-103329921D02*
X129975428Y-103620207D01*
X130048000Y-103765350D01*
X130120571Y-103837921D01*
X130338285Y-103983064D01*
X130628571Y-104055635D01*
X131209142Y-104055635D01*
X131354285Y-103983064D01*
X131426857Y-103910492D01*
X131499428Y-103765350D01*
X131499428Y-103475064D01*
X131426857Y-103329921D01*
X131354285Y-103257350D01*
X131209142Y-103184778D01*
X130846285Y-103184778D01*
X130701142Y-103257350D01*
X130628571Y-103329921D01*
X130556000Y-103475064D01*
X130556000Y-103765350D01*
X130628571Y-103910492D01*
X130701142Y-103983064D01*
X130846285Y-104055635D01*
X127580571Y-105507064D02*
X127508000Y-105434492D01*
X127435428Y-105289350D01*
X127435428Y-104926492D01*
X127508000Y-104781350D01*
X127580571Y-104708778D01*
X127725714Y-104636207D01*
X127870857Y-104636207D01*
X128088571Y-104708778D01*
X128959428Y-105579635D01*
X128959428Y-104636207D01*
X127435428Y-104128207D02*
X127435428Y-103112207D01*
X128959428Y-103765350D01*
X125040571Y-105507064D02*
X124968000Y-105434492D01*
X124895428Y-105289350D01*
X124895428Y-104926492D01*
X124968000Y-104781350D01*
X125040571Y-104708778D01*
X125185714Y-104636207D01*
X125330857Y-104636207D01*
X125548571Y-104708778D01*
X126419428Y-105579635D01*
X126419428Y-104636207D01*
X125548571Y-103765350D02*
X125476000Y-103910492D01*
X125403428Y-103983064D01*
X125258285Y-104055635D01*
X125185714Y-104055635D01*
X125040571Y-103983064D01*
X124968000Y-103910492D01*
X124895428Y-103765350D01*
X124895428Y-103475064D01*
X124968000Y-103329921D01*
X125040571Y-103257350D01*
X125185714Y-103184778D01*
X125258285Y-103184778D01*
X125403428Y-103257350D01*
X125476000Y-103329921D01*
X125548571Y-103475064D01*
X125548571Y-103765350D01*
X125621142Y-103910492D01*
X125693714Y-103983064D01*
X125838857Y-104055635D01*
X126129142Y-104055635D01*
X126274285Y-103983064D01*
X126346857Y-103910492D01*
X126419428Y-103765350D01*
X126419428Y-103475064D01*
X126346857Y-103329921D01*
X126274285Y-103257350D01*
X126129142Y-103184778D01*
X125838857Y-103184778D01*
X125693714Y-103257350D01*
X125621142Y-103329921D01*
X125548571Y-103475064D01*
X122500571Y-105507064D02*
X122428000Y-105434492D01*
X122355428Y-105289350D01*
X122355428Y-104926492D01*
X122428000Y-104781350D01*
X122500571Y-104708778D01*
X122645714Y-104636207D01*
X122790857Y-104636207D01*
X123008571Y-104708778D01*
X123879428Y-105579635D01*
X123879428Y-104636207D01*
X123879428Y-103910492D02*
X123879428Y-103620207D01*
X123806857Y-103475064D01*
X123734285Y-103402492D01*
X123516571Y-103257350D01*
X123226285Y-103184778D01*
X122645714Y-103184778D01*
X122500571Y-103257350D01*
X122428000Y-103329921D01*
X122355428Y-103475064D01*
X122355428Y-103765350D01*
X122428000Y-103910492D01*
X122500571Y-103983064D01*
X122645714Y-104055635D01*
X123008571Y-104055635D01*
X123153714Y-103983064D01*
X123226285Y-103910492D01*
X123298857Y-103765350D01*
X123298857Y-103475064D01*
X123226285Y-103329921D01*
X123153714Y-103257350D01*
X123008571Y-103184778D01*
X119815428Y-105579635D02*
X119815428Y-104636207D01*
X120396000Y-105144207D01*
X120396000Y-104926492D01*
X120468571Y-104781350D01*
X120541142Y-104708778D01*
X120686285Y-104636207D01*
X121049142Y-104636207D01*
X121194285Y-104708778D01*
X121266857Y-104781350D01*
X121339428Y-104926492D01*
X121339428Y-105361921D01*
X121266857Y-105507064D01*
X121194285Y-105579635D01*
X119815428Y-103692778D02*
X119815428Y-103547635D01*
X119888000Y-103402492D01*
X119960571Y-103329921D01*
X120105714Y-103257350D01*
X120396000Y-103184778D01*
X120758857Y-103184778D01*
X121049142Y-103257350D01*
X121194285Y-103329921D01*
X121266857Y-103402492D01*
X121339428Y-103547635D01*
X121339428Y-103692778D01*
X121266857Y-103837921D01*
X121194285Y-103910492D01*
X121049142Y-103983064D01*
X120758857Y-104055635D01*
X120396000Y-104055635D01*
X120105714Y-103983064D01*
X119960571Y-103910492D01*
X119888000Y-103837921D01*
X119815428Y-103692778D01*
X117275428Y-105579635D02*
X117275428Y-104636207D01*
X117856000Y-105144207D01*
X117856000Y-104926492D01*
X117928571Y-104781350D01*
X118001142Y-104708778D01*
X118146285Y-104636207D01*
X118509142Y-104636207D01*
X118654285Y-104708778D01*
X118726857Y-104781350D01*
X118799428Y-104926492D01*
X118799428Y-105361921D01*
X118726857Y-105507064D01*
X118654285Y-105579635D01*
X118799428Y-103184778D02*
X118799428Y-104055635D01*
X118799428Y-103620207D02*
X117275428Y-103620207D01*
X117493142Y-103765350D01*
X117638285Y-103910492D01*
X117710857Y-104055635D01*
X169599428Y-104636207D02*
X169599428Y-105507064D01*
X169599428Y-105071635D02*
X168075428Y-105071635D01*
X168293142Y-105216778D01*
X168438285Y-105361921D01*
X168510857Y-105507064D01*
X168075428Y-104128207D02*
X168075428Y-103112207D01*
X169599428Y-103765350D01*
X172139428Y-104001207D02*
X172139428Y-104872064D01*
X172139428Y-104436635D02*
X170615428Y-104436635D01*
X170833142Y-104581778D01*
X170978285Y-104726921D01*
X171050857Y-104872064D01*
X170615428Y-102694921D02*
X170615428Y-102985207D01*
X170688000Y-103130350D01*
X170760571Y-103202921D01*
X170978285Y-103348064D01*
X171268571Y-103420635D01*
X171849142Y-103420635D01*
X171994285Y-103348064D01*
X172066857Y-103275492D01*
X172139428Y-103130350D01*
X172139428Y-102840064D01*
X172066857Y-102694921D01*
X171994285Y-102622350D01*
X171849142Y-102549778D01*
X171486285Y-102549778D01*
X171341142Y-102622350D01*
X171268571Y-102694921D01*
X171196000Y-102840064D01*
X171196000Y-103130350D01*
X171268571Y-103275492D01*
X171341142Y-103348064D01*
X171486285Y-103420635D01*
D14*
X138732380Y-117656428D02*
X140667619Y-117656428D01*
X138732380Y-104956428D02*
X140667619Y-104956428D01*
X139700000Y-105924047D02*
X139700000Y-103988809D01*
D15*
X211455000Y-75311000D02*
X93345000Y-75311000D01*
X211455000Y-130429000D02*
X211455000Y-75311000D01*
X93345000Y-130429000D02*
X211455000Y-130429000D01*
X93345000Y-75311000D02*
X93345000Y-130429000D01*
D11*
X96979619Y-115563952D02*
X96979619Y-115370428D01*
X96931238Y-115273666D01*
X96882857Y-115225285D01*
X96737714Y-115128523D01*
X96544190Y-115080142D01*
X96157142Y-115080142D01*
X96060380Y-115128523D01*
X96012000Y-115176904D01*
X95963619Y-115273666D01*
X95963619Y-115467190D01*
X96012000Y-115563952D01*
X96060380Y-115612333D01*
X96157142Y-115660714D01*
X96399047Y-115660714D01*
X96495809Y-115612333D01*
X96544190Y-115563952D01*
X96592571Y-115467190D01*
X96592571Y-115273666D01*
X96544190Y-115176904D01*
X96495809Y-115128523D01*
X96399047Y-115080142D01*
X95963619Y-114789857D02*
X96979619Y-114451190D01*
X95963619Y-114112523D01*
D13*
X204343000Y-109909428D02*
X204923571Y-109909428D01*
X204633285Y-110199714D02*
X204633285Y-109619142D01*
X205685571Y-110199714D02*
X205250142Y-110199714D01*
X205467857Y-110199714D02*
X205467857Y-109437714D01*
X205395285Y-109546571D01*
X205322714Y-109619142D01*
X205250142Y-109655428D01*
X205975857Y-109510285D02*
X206012142Y-109474000D01*
X206084714Y-109437714D01*
X206266142Y-109437714D01*
X206338714Y-109474000D01*
X206375000Y-109510285D01*
X206411285Y-109582857D01*
X206411285Y-109655428D01*
X206375000Y-109764285D01*
X205939571Y-110199714D01*
X206411285Y-110199714D01*
X206737857Y-109909428D02*
X207318428Y-109909428D01*
X208007857Y-109691714D02*
X208007857Y-110199714D01*
X207826428Y-109401428D02*
X207645000Y-109945714D01*
X208116714Y-109945714D01*
X208370714Y-109510285D02*
X208407000Y-109474000D01*
X208479571Y-109437714D01*
X208661000Y-109437714D01*
X208733571Y-109474000D01*
X208769857Y-109510285D01*
X208806142Y-109582857D01*
X208806142Y-109655428D01*
X208769857Y-109764285D01*
X208334428Y-110199714D01*
X208806142Y-110199714D01*
X209023857Y-109437714D02*
X209277857Y-110199714D01*
X209531857Y-109437714D01*
X209785857Y-110199714D02*
X209785857Y-109437714D01*
X209967285Y-109437714D01*
X210076142Y-109474000D01*
X210148714Y-109546571D01*
X210185000Y-109619142D01*
X210221285Y-109764285D01*
X210221285Y-109873142D01*
X210185000Y-110018285D01*
X210148714Y-110090857D01*
X210076142Y-110163428D01*
X209967285Y-110199714D01*
X209785857Y-110199714D01*
X210983285Y-110127142D02*
X210947000Y-110163428D01*
X210838142Y-110199714D01*
X210765571Y-110199714D01*
X210656714Y-110163428D01*
X210584142Y-110090857D01*
X210547857Y-110018285D01*
X210511571Y-109873142D01*
X210511571Y-109764285D01*
X210547857Y-109619142D01*
X210584142Y-109546571D01*
X210656714Y-109474000D01*
X210765571Y-109437714D01*
X210838142Y-109437714D01*
X210947000Y-109474000D01*
X210983285Y-109510285D01*
X189054619Y-120287142D02*
X188038619Y-120287142D01*
X189054619Y-119851714D02*
X188522428Y-119851714D01*
X188425666Y-119900095D01*
X188377285Y-119996857D01*
X188377285Y-120142000D01*
X188425666Y-120238761D01*
X188474047Y-120287142D01*
X188377285Y-119513047D02*
X188377285Y-119126000D01*
X188038619Y-119367904D02*
X188909476Y-119367904D01*
X189006238Y-119319523D01*
X189054619Y-119222761D01*
X189054619Y-119126000D01*
X188377285Y-118932476D02*
X188377285Y-118545428D01*
X188038619Y-118787333D02*
X188909476Y-118787333D01*
X189006238Y-118738952D01*
X189054619Y-118642190D01*
X189054619Y-118545428D01*
X188377285Y-118206761D02*
X189393285Y-118206761D01*
X188425666Y-118206761D02*
X188377285Y-118110000D01*
X188377285Y-117916476D01*
X188425666Y-117819714D01*
X188474047Y-117771333D01*
X188570809Y-117722952D01*
X188861095Y-117722952D01*
X188957857Y-117771333D01*
X189006238Y-117819714D01*
X189054619Y-117916476D01*
X189054619Y-118110000D01*
X189006238Y-118206761D01*
X189006238Y-117335904D02*
X189054619Y-117239142D01*
X189054619Y-117045619D01*
X189006238Y-116948857D01*
X188909476Y-116900476D01*
X188861095Y-116900476D01*
X188764333Y-116948857D01*
X188715952Y-117045619D01*
X188715952Y-117190761D01*
X188667571Y-117287523D01*
X188570809Y-117335904D01*
X188522428Y-117335904D01*
X188425666Y-117287523D01*
X188377285Y-117190761D01*
X188377285Y-117045619D01*
X188425666Y-116948857D01*
X188957857Y-116465047D02*
X189006238Y-116416666D01*
X189054619Y-116465047D01*
X189006238Y-116513428D01*
X188957857Y-116465047D01*
X189054619Y-116465047D01*
X188425666Y-116465047D02*
X188474047Y-116416666D01*
X188522428Y-116465047D01*
X188474047Y-116513428D01*
X188425666Y-116465047D01*
X188522428Y-116465047D01*
X187990238Y-115255523D02*
X189296523Y-116126380D01*
X187990238Y-114191142D02*
X189296523Y-115062000D01*
X188377285Y-113417047D02*
X189199761Y-113417047D01*
X189296523Y-113465428D01*
X189344904Y-113513809D01*
X189393285Y-113610571D01*
X189393285Y-113755714D01*
X189344904Y-113852476D01*
X189006238Y-113417047D02*
X189054619Y-113513809D01*
X189054619Y-113707333D01*
X189006238Y-113804095D01*
X188957857Y-113852476D01*
X188861095Y-113900857D01*
X188570809Y-113900857D01*
X188474047Y-113852476D01*
X188425666Y-113804095D01*
X188377285Y-113707333D01*
X188377285Y-113513809D01*
X188425666Y-113417047D01*
X189054619Y-112933238D02*
X188377285Y-112933238D01*
X188038619Y-112933238D02*
X188087000Y-112981619D01*
X188135380Y-112933238D01*
X188087000Y-112884857D01*
X188038619Y-112933238D01*
X188135380Y-112933238D01*
X188377285Y-112594571D02*
X188377285Y-112207523D01*
X188038619Y-112449428D02*
X188909476Y-112449428D01*
X189006238Y-112401047D01*
X189054619Y-112304285D01*
X189054619Y-112207523D01*
X189054619Y-111868857D02*
X188038619Y-111868857D01*
X189054619Y-111433428D02*
X188522428Y-111433428D01*
X188425666Y-111481809D01*
X188377285Y-111578571D01*
X188377285Y-111723714D01*
X188425666Y-111820476D01*
X188474047Y-111868857D01*
X188377285Y-110514190D02*
X189054619Y-110514190D01*
X188377285Y-110949619D02*
X188909476Y-110949619D01*
X189006238Y-110901238D01*
X189054619Y-110804476D01*
X189054619Y-110659333D01*
X189006238Y-110562571D01*
X188957857Y-110514190D01*
X189054619Y-110030380D02*
X188038619Y-110030380D01*
X188425666Y-110030380D02*
X188377285Y-109933619D01*
X188377285Y-109740095D01*
X188425666Y-109643333D01*
X188474047Y-109594952D01*
X188570809Y-109546571D01*
X188861095Y-109546571D01*
X188957857Y-109594952D01*
X189006238Y-109643333D01*
X189054619Y-109740095D01*
X189054619Y-109933619D01*
X189006238Y-110030380D01*
X188957857Y-109111142D02*
X189006238Y-109062761D01*
X189054619Y-109111142D01*
X189006238Y-109159523D01*
X188957857Y-109111142D01*
X189054619Y-109111142D01*
X189006238Y-108191904D02*
X189054619Y-108288666D01*
X189054619Y-108482190D01*
X189006238Y-108578952D01*
X188957857Y-108627333D01*
X188861095Y-108675714D01*
X188570809Y-108675714D01*
X188474047Y-108627333D01*
X188425666Y-108578952D01*
X188377285Y-108482190D01*
X188377285Y-108288666D01*
X188425666Y-108191904D01*
X189054619Y-107611333D02*
X189006238Y-107708095D01*
X188957857Y-107756476D01*
X188861095Y-107804857D01*
X188570809Y-107804857D01*
X188474047Y-107756476D01*
X188425666Y-107708095D01*
X188377285Y-107611333D01*
X188377285Y-107466190D01*
X188425666Y-107369428D01*
X188474047Y-107321047D01*
X188570809Y-107272666D01*
X188861095Y-107272666D01*
X188957857Y-107321047D01*
X189006238Y-107369428D01*
X189054619Y-107466190D01*
X189054619Y-107611333D01*
X189054619Y-106837238D02*
X188377285Y-106837238D01*
X188474047Y-106837238D02*
X188425666Y-106788857D01*
X188377285Y-106692095D01*
X188377285Y-106546952D01*
X188425666Y-106450190D01*
X188522428Y-106401809D01*
X189054619Y-106401809D01*
X188522428Y-106401809D02*
X188425666Y-106353428D01*
X188377285Y-106256666D01*
X188377285Y-106111523D01*
X188425666Y-106014761D01*
X188522428Y-105966380D01*
X189054619Y-105966380D01*
X187990238Y-104756857D02*
X189296523Y-105627714D01*
X188377285Y-104418190D02*
X189248142Y-104418190D01*
X189344904Y-104466571D01*
X189393285Y-104563333D01*
X189393285Y-104611714D01*
X188038619Y-104418190D02*
X188087000Y-104466571D01*
X188135380Y-104418190D01*
X188087000Y-104369809D01*
X188038619Y-104418190D01*
X188135380Y-104418190D01*
X189054619Y-103498952D02*
X188522428Y-103498952D01*
X188425666Y-103547333D01*
X188377285Y-103644095D01*
X188377285Y-103837619D01*
X188425666Y-103934380D01*
X189006238Y-103498952D02*
X189054619Y-103595714D01*
X189054619Y-103837619D01*
X189006238Y-103934380D01*
X188909476Y-103982761D01*
X188812714Y-103982761D01*
X188715952Y-103934380D01*
X188667571Y-103837619D01*
X188667571Y-103595714D01*
X188619190Y-103498952D01*
X188377285Y-103015142D02*
X189054619Y-103015142D01*
X188474047Y-103015142D02*
X188425666Y-102966761D01*
X188377285Y-102870000D01*
X188377285Y-102724857D01*
X188425666Y-102628095D01*
X188522428Y-102579714D01*
X189054619Y-102579714D01*
X189006238Y-101708857D02*
X189054619Y-101805619D01*
X189054619Y-101999142D01*
X189006238Y-102095904D01*
X188909476Y-102144285D01*
X188522428Y-102144285D01*
X188425666Y-102095904D01*
X188377285Y-101999142D01*
X188377285Y-101805619D01*
X188425666Y-101708857D01*
X188522428Y-101660476D01*
X188619190Y-101660476D01*
X188715952Y-102144285D01*
X189054619Y-101079904D02*
X189006238Y-101176666D01*
X188909476Y-101225047D01*
X188038619Y-101225047D01*
X189054619Y-100692857D02*
X188377285Y-100692857D01*
X188038619Y-100692857D02*
X188087000Y-100741238D01*
X188135380Y-100692857D01*
X188087000Y-100644476D01*
X188038619Y-100692857D01*
X188135380Y-100692857D01*
X189054619Y-99773619D02*
X188522428Y-99773619D01*
X188425666Y-99822000D01*
X188377285Y-99918761D01*
X188377285Y-100112285D01*
X188425666Y-100209047D01*
X189006238Y-99773619D02*
X189054619Y-99870380D01*
X189054619Y-100112285D01*
X189006238Y-100209047D01*
X188909476Y-100257428D01*
X188812714Y-100257428D01*
X188715952Y-100209047D01*
X188667571Y-100112285D01*
X188667571Y-99870380D01*
X188619190Y-99773619D01*
X188667571Y-99289809D02*
X188667571Y-98515714D01*
X189054619Y-98031904D02*
X188377285Y-98031904D01*
X188474047Y-98031904D02*
X188425666Y-97983523D01*
X188377285Y-97886761D01*
X188377285Y-97741619D01*
X188425666Y-97644857D01*
X188522428Y-97596476D01*
X189054619Y-97596476D01*
X188522428Y-97596476D02*
X188425666Y-97548095D01*
X188377285Y-97451333D01*
X188377285Y-97306190D01*
X188425666Y-97209428D01*
X188522428Y-97161047D01*
X189054619Y-97161047D01*
X189054619Y-96532095D02*
X189006238Y-96628857D01*
X188957857Y-96677238D01*
X188861095Y-96725619D01*
X188570809Y-96725619D01*
X188474047Y-96677238D01*
X188425666Y-96628857D01*
X188377285Y-96532095D01*
X188377285Y-96386952D01*
X188425666Y-96290190D01*
X188474047Y-96241809D01*
X188570809Y-96193428D01*
X188861095Y-96193428D01*
X188957857Y-96241809D01*
X189006238Y-96290190D01*
X189054619Y-96386952D01*
X189054619Y-96532095D01*
X189054619Y-95322571D02*
X188038619Y-95322571D01*
X189006238Y-95322571D02*
X189054619Y-95419333D01*
X189054619Y-95612857D01*
X189006238Y-95709619D01*
X188957857Y-95758000D01*
X188861095Y-95806380D01*
X188570809Y-95806380D01*
X188474047Y-95758000D01*
X188425666Y-95709619D01*
X188377285Y-95612857D01*
X188377285Y-95419333D01*
X188425666Y-95322571D01*
X188377285Y-94403333D02*
X189054619Y-94403333D01*
X188377285Y-94838761D02*
X188909476Y-94838761D01*
X189006238Y-94790380D01*
X189054619Y-94693619D01*
X189054619Y-94548476D01*
X189006238Y-94451714D01*
X188957857Y-94403333D01*
X189054619Y-93774380D02*
X189006238Y-93871142D01*
X188909476Y-93919523D01*
X188038619Y-93919523D01*
X189054619Y-92951904D02*
X188522428Y-92951904D01*
X188425666Y-93000285D01*
X188377285Y-93097047D01*
X188377285Y-93290571D01*
X188425666Y-93387333D01*
X189006238Y-92951904D02*
X189054619Y-93048666D01*
X189054619Y-93290571D01*
X189006238Y-93387333D01*
X188909476Y-93435714D01*
X188812714Y-93435714D01*
X188715952Y-93387333D01*
X188667571Y-93290571D01*
X188667571Y-93048666D01*
X188619190Y-92951904D01*
X189054619Y-92468095D02*
X188377285Y-92468095D01*
X188570809Y-92468095D02*
X188474047Y-92419714D01*
X188425666Y-92371333D01*
X188377285Y-92274571D01*
X188377285Y-92177809D01*
X188667571Y-91839142D02*
X188667571Y-91065047D01*
X189054619Y-90145809D02*
X188038619Y-90145809D01*
X189006238Y-90145809D02*
X189054619Y-90242571D01*
X189054619Y-90436095D01*
X189006238Y-90532857D01*
X188957857Y-90581238D01*
X188861095Y-90629619D01*
X188570809Y-90629619D01*
X188474047Y-90581238D01*
X188425666Y-90532857D01*
X188377285Y-90436095D01*
X188377285Y-90242571D01*
X188425666Y-90145809D01*
X189006238Y-89274952D02*
X189054619Y-89371714D01*
X189054619Y-89565238D01*
X189006238Y-89662000D01*
X188909476Y-89710380D01*
X188522428Y-89710380D01*
X188425666Y-89662000D01*
X188377285Y-89565238D01*
X188377285Y-89371714D01*
X188425666Y-89274952D01*
X188522428Y-89226571D01*
X188619190Y-89226571D01*
X188715952Y-89710380D01*
X188377285Y-88887904D02*
X189054619Y-88646000D01*
X188377285Y-88404095D01*
X189054619Y-88017047D02*
X188377285Y-88017047D01*
X188038619Y-88017047D02*
X188087000Y-88065428D01*
X188135380Y-88017047D01*
X188087000Y-87968666D01*
X188038619Y-88017047D01*
X188135380Y-88017047D01*
X189006238Y-87097809D02*
X189054619Y-87194571D01*
X189054619Y-87388095D01*
X189006238Y-87484857D01*
X188957857Y-87533238D01*
X188861095Y-87581619D01*
X188570809Y-87581619D01*
X188474047Y-87533238D01*
X188425666Y-87484857D01*
X188377285Y-87388095D01*
X188377285Y-87194571D01*
X188425666Y-87097809D01*
X189006238Y-86275333D02*
X189054619Y-86372095D01*
X189054619Y-86565619D01*
X189006238Y-86662380D01*
X188909476Y-86710761D01*
X188522428Y-86710761D01*
X188425666Y-86662380D01*
X188377285Y-86565619D01*
X188377285Y-86372095D01*
X188425666Y-86275333D01*
X188522428Y-86226952D01*
X188619190Y-86226952D01*
X188715952Y-86710761D01*
X189006238Y-85839904D02*
X189054619Y-85743142D01*
X189054619Y-85549619D01*
X189006238Y-85452857D01*
X188909476Y-85404476D01*
X188861095Y-85404476D01*
X188764333Y-85452857D01*
X188715952Y-85549619D01*
X188715952Y-85694761D01*
X188667571Y-85791523D01*
X188570809Y-85839904D01*
X188522428Y-85839904D01*
X188425666Y-85791523D01*
X188377285Y-85694761D01*
X188377285Y-85549619D01*
X188425666Y-85452857D01*
D11*
X95312290Y-119712619D02*
X95312290Y-120438333D01*
X95263909Y-120583476D01*
X95167147Y-120680238D01*
X95022004Y-120728619D01*
X94925242Y-120728619D01*
X96231528Y-120728619D02*
X96231528Y-120196428D01*
X96183147Y-120099666D01*
X96086385Y-120051285D01*
X95892861Y-120051285D01*
X95796100Y-120099666D01*
X96231528Y-120680238D02*
X96134766Y-120728619D01*
X95892861Y-120728619D01*
X95796100Y-120680238D01*
X95747719Y-120583476D01*
X95747719Y-120486714D01*
X95796100Y-120389952D01*
X95892861Y-120341571D01*
X96134766Y-120341571D01*
X96231528Y-120293190D01*
X96715338Y-120051285D02*
X96715338Y-120728619D01*
X96715338Y-120148047D02*
X96763719Y-120099666D01*
X96860480Y-120051285D01*
X97005623Y-120051285D01*
X97102385Y-120099666D01*
X97150766Y-120196428D01*
X97150766Y-120728619D01*
X98021623Y-120680238D02*
X97924861Y-120728619D01*
X97731338Y-120728619D01*
X97634576Y-120680238D01*
X97586195Y-120583476D01*
X97586195Y-120196428D01*
X97634576Y-120099666D01*
X97731338Y-120051285D01*
X97924861Y-120051285D01*
X98021623Y-120099666D01*
X98070004Y-120196428D01*
X98070004Y-120293190D01*
X97586195Y-120389952D01*
X98650576Y-120728619D02*
X98553814Y-120680238D01*
X98505433Y-120583476D01*
X98505433Y-119712619D01*
X99037623Y-120728619D02*
X99037623Y-120051285D01*
X99037623Y-119712619D02*
X98989242Y-119761000D01*
X99037623Y-119809380D01*
X99086004Y-119761000D01*
X99037623Y-119712619D01*
X99037623Y-119809380D01*
X99956861Y-120728619D02*
X99956861Y-120196428D01*
X99908480Y-120099666D01*
X99811719Y-120051285D01*
X99618195Y-120051285D01*
X99521433Y-120099666D01*
X99956861Y-120680238D02*
X99860100Y-120728619D01*
X99618195Y-120728619D01*
X99521433Y-120680238D01*
X99473052Y-120583476D01*
X99473052Y-120486714D01*
X99521433Y-120389952D01*
X99618195Y-120341571D01*
X99860100Y-120341571D01*
X99956861Y-120293190D01*
X101214766Y-120728619D02*
X101214766Y-119712619D01*
X101553433Y-120438333D01*
X101892100Y-119712619D01*
X101892100Y-120728619D01*
X102521052Y-120728619D02*
X102424290Y-120680238D01*
X102375909Y-120631857D01*
X102327528Y-120535095D01*
X102327528Y-120244809D01*
X102375909Y-120148047D01*
X102424290Y-120099666D01*
X102521052Y-120051285D01*
X102666195Y-120051285D01*
X102762957Y-120099666D01*
X102811338Y-120148047D01*
X102859719Y-120244809D01*
X102859719Y-120535095D01*
X102811338Y-120631857D01*
X102762957Y-120680238D01*
X102666195Y-120728619D01*
X102521052Y-120728619D01*
X103730576Y-120728619D02*
X103730576Y-119712619D01*
X103730576Y-120680238D02*
X103633814Y-120728619D01*
X103440290Y-120728619D01*
X103343528Y-120680238D01*
X103295147Y-120631857D01*
X103246766Y-120535095D01*
X103246766Y-120244809D01*
X103295147Y-120148047D01*
X103343528Y-120099666D01*
X103440290Y-120051285D01*
X103633814Y-120051285D01*
X103730576Y-120099666D01*
X104649814Y-120051285D02*
X104649814Y-120728619D01*
X104214385Y-120051285D02*
X104214385Y-120583476D01*
X104262766Y-120680238D01*
X104359528Y-120728619D01*
X104504671Y-120728619D01*
X104601433Y-120680238D01*
X104649814Y-120631857D01*
X105278766Y-120728619D02*
X105182004Y-120680238D01*
X105133623Y-120583476D01*
X105133623Y-119712619D01*
X106101242Y-120728619D02*
X106101242Y-120196428D01*
X106052861Y-120099666D01*
X105956100Y-120051285D01*
X105762576Y-120051285D01*
X105665814Y-120099666D01*
X106101242Y-120680238D02*
X106004480Y-120728619D01*
X105762576Y-120728619D01*
X105665814Y-120680238D01*
X105617433Y-120583476D01*
X105617433Y-120486714D01*
X105665814Y-120389952D01*
X105762576Y-120341571D01*
X106004480Y-120341571D01*
X106101242Y-120293190D01*
X106585052Y-120728619D02*
X106585052Y-120051285D01*
X106585052Y-120244809D02*
X106633433Y-120148047D01*
X106681814Y-120099666D01*
X106778576Y-120051285D01*
X106875338Y-120051285D01*
X107988100Y-120728619D02*
X107988100Y-119712619D01*
X108230004Y-119712619D01*
X108375147Y-119761000D01*
X108471909Y-119857761D01*
X108520290Y-119954523D01*
X108568671Y-120148047D01*
X108568671Y-120293190D01*
X108520290Y-120486714D01*
X108471909Y-120583476D01*
X108375147Y-120680238D01*
X108230004Y-120728619D01*
X107988100Y-120728619D01*
X109391147Y-120680238D02*
X109294385Y-120728619D01*
X109100861Y-120728619D01*
X109004100Y-120680238D01*
X108955719Y-120583476D01*
X108955719Y-120196428D01*
X109004100Y-120099666D01*
X109100861Y-120051285D01*
X109294385Y-120051285D01*
X109391147Y-120099666D01*
X109439528Y-120196428D01*
X109439528Y-120293190D01*
X108955719Y-120389952D01*
X109778195Y-120051285D02*
X110020100Y-120728619D01*
X110262004Y-120051285D01*
X110649052Y-120728619D02*
X110649052Y-120051285D01*
X110649052Y-119712619D02*
X110600671Y-119761000D01*
X110649052Y-119809380D01*
X110697433Y-119761000D01*
X110649052Y-119712619D01*
X110649052Y-119809380D01*
X111568290Y-120680238D02*
X111471528Y-120728619D01*
X111278004Y-120728619D01*
X111181242Y-120680238D01*
X111132861Y-120631857D01*
X111084480Y-120535095D01*
X111084480Y-120244809D01*
X111132861Y-120148047D01*
X111181242Y-120099666D01*
X111278004Y-120051285D01*
X111471528Y-120051285D01*
X111568290Y-120099666D01*
X112390766Y-120680238D02*
X112294004Y-120728619D01*
X112100480Y-120728619D01*
X112003719Y-120680238D01*
X111955338Y-120583476D01*
X111955338Y-120196428D01*
X112003719Y-120099666D01*
X112100480Y-120051285D01*
X112294004Y-120051285D01*
X112390766Y-120099666D01*
X112439147Y-120196428D01*
X112439147Y-120293190D01*
X111955338Y-120389952D01*
X95022004Y-121829285D02*
X95022004Y-122845285D01*
X95022004Y-121877666D02*
X95118766Y-121829285D01*
X95312290Y-121829285D01*
X95409052Y-121877666D01*
X95457433Y-121926047D01*
X95505814Y-122022809D01*
X95505814Y-122313095D01*
X95457433Y-122409857D01*
X95409052Y-122458238D01*
X95312290Y-122506619D01*
X95118766Y-122506619D01*
X95022004Y-122458238D01*
X96086385Y-122506619D02*
X95989623Y-122458238D01*
X95941242Y-122409857D01*
X95892861Y-122313095D01*
X95892861Y-122022809D01*
X95941242Y-121926047D01*
X95989623Y-121877666D01*
X96086385Y-121829285D01*
X96231528Y-121829285D01*
X96328290Y-121877666D01*
X96376671Y-121926047D01*
X96425052Y-122022809D01*
X96425052Y-122313095D01*
X96376671Y-122409857D01*
X96328290Y-122458238D01*
X96231528Y-122506619D01*
X96086385Y-122506619D01*
X96763719Y-121829285D02*
X96957242Y-122506619D01*
X97150766Y-122022809D01*
X97344290Y-122506619D01*
X97537814Y-121829285D01*
X98311909Y-122458238D02*
X98215147Y-122506619D01*
X98021623Y-122506619D01*
X97924861Y-122458238D01*
X97876480Y-122361476D01*
X97876480Y-121974428D01*
X97924861Y-121877666D01*
X98021623Y-121829285D01*
X98215147Y-121829285D01*
X98311909Y-121877666D01*
X98360290Y-121974428D01*
X98360290Y-122071190D01*
X97876480Y-122167952D01*
X98795719Y-122506619D02*
X98795719Y-121829285D01*
X98795719Y-122022809D02*
X98844100Y-121926047D01*
X98892480Y-121877666D01*
X98989242Y-121829285D01*
X99086004Y-121829285D01*
X99182766Y-122603380D02*
X99956861Y-122603380D01*
X100150385Y-122458238D02*
X100247147Y-122506619D01*
X100440671Y-122506619D01*
X100537433Y-122458238D01*
X100585814Y-122361476D01*
X100585814Y-122313095D01*
X100537433Y-122216333D01*
X100440671Y-122167952D01*
X100295528Y-122167952D01*
X100198766Y-122119571D01*
X100150385Y-122022809D01*
X100150385Y-121974428D01*
X100198766Y-121877666D01*
X100295528Y-121829285D01*
X100440671Y-121829285D01*
X100537433Y-121877666D01*
X100924480Y-121829285D02*
X101118004Y-122506619D01*
X101311528Y-122022809D01*
X101505052Y-122506619D01*
X101698576Y-121829285D01*
X102085623Y-122506619D02*
X102085623Y-121829285D01*
X102085623Y-121490619D02*
X102037242Y-121539000D01*
X102085623Y-121587380D01*
X102134004Y-121539000D01*
X102085623Y-121490619D01*
X102085623Y-121587380D01*
X102424290Y-121829285D02*
X102811338Y-121829285D01*
X102569433Y-121490619D02*
X102569433Y-122361476D01*
X102617814Y-122458238D01*
X102714576Y-122506619D01*
X102811338Y-122506619D01*
X103585433Y-122458238D02*
X103488671Y-122506619D01*
X103295147Y-122506619D01*
X103198385Y-122458238D01*
X103150004Y-122409857D01*
X103101623Y-122313095D01*
X103101623Y-122022809D01*
X103150004Y-121926047D01*
X103198385Y-121877666D01*
X103295147Y-121829285D01*
X103488671Y-121829285D01*
X103585433Y-121877666D01*
X104020861Y-122506619D02*
X104020861Y-121490619D01*
X104456290Y-122506619D02*
X104456290Y-121974428D01*
X104407909Y-121877666D01*
X104311147Y-121829285D01*
X104166004Y-121829285D01*
X104069242Y-121877666D01*
X104020861Y-121926047D01*
X104698195Y-122603380D02*
X105472290Y-122603380D01*
X106149623Y-122458238D02*
X106052861Y-122506619D01*
X105859338Y-122506619D01*
X105762576Y-122458238D01*
X105714195Y-122409857D01*
X105665814Y-122313095D01*
X105665814Y-122022809D01*
X105714195Y-121926047D01*
X105762576Y-121877666D01*
X105859338Y-121829285D01*
X106052861Y-121829285D01*
X106149623Y-121877666D01*
X106730195Y-122506619D02*
X106633433Y-122458238D01*
X106585052Y-122409857D01*
X106536671Y-122313095D01*
X106536671Y-122022809D01*
X106585052Y-121926047D01*
X106633433Y-121877666D01*
X106730195Y-121829285D01*
X106875338Y-121829285D01*
X106972100Y-121877666D01*
X107020480Y-121926047D01*
X107068861Y-122022809D01*
X107068861Y-122313095D01*
X107020480Y-122409857D01*
X106972100Y-122458238D01*
X106875338Y-122506619D01*
X106730195Y-122506619D01*
X107504290Y-121829285D02*
X107504290Y-122506619D01*
X107504290Y-121926047D02*
X107552671Y-121877666D01*
X107649433Y-121829285D01*
X107794576Y-121829285D01*
X107891338Y-121877666D01*
X107939719Y-121974428D01*
X107939719Y-122506619D01*
X108278385Y-121829285D02*
X108665433Y-121829285D01*
X108423528Y-121490619D02*
X108423528Y-122361476D01*
X108471909Y-122458238D01*
X108568671Y-122506619D01*
X108665433Y-122506619D01*
X109004100Y-122506619D02*
X109004100Y-121829285D01*
X109004100Y-122022809D02*
X109052480Y-121926047D01*
X109100861Y-121877666D01*
X109197623Y-121829285D01*
X109294385Y-121829285D01*
X109778195Y-122506619D02*
X109681433Y-122458238D01*
X109633052Y-122409857D01*
X109584671Y-122313095D01*
X109584671Y-122022809D01*
X109633052Y-121926047D01*
X109681433Y-121877666D01*
X109778195Y-121829285D01*
X109923338Y-121829285D01*
X110020100Y-121877666D01*
X110068480Y-121926047D01*
X110116861Y-122022809D01*
X110116861Y-122313095D01*
X110068480Y-122409857D01*
X110020100Y-122458238D01*
X109923338Y-122506619D01*
X109778195Y-122506619D01*
X110697433Y-122506619D02*
X110600671Y-122458238D01*
X110552290Y-122361476D01*
X110552290Y-121490619D01*
X111229623Y-122506619D02*
X111132861Y-122458238D01*
X111084480Y-122361476D01*
X111084480Y-121490619D01*
X112003719Y-122458238D02*
X111906957Y-122506619D01*
X111713433Y-122506619D01*
X111616671Y-122458238D01*
X111568290Y-122361476D01*
X111568290Y-121974428D01*
X111616671Y-121877666D01*
X111713433Y-121829285D01*
X111906957Y-121829285D01*
X112003719Y-121877666D01*
X112052100Y-121974428D01*
X112052100Y-122071190D01*
X111568290Y-122167952D01*
X112487528Y-122506619D02*
X112487528Y-121829285D01*
X112487528Y-122022809D02*
X112535909Y-121926047D01*
X112584290Y-121877666D01*
X112681052Y-121829285D01*
X112777814Y-121829285D01*
X95022004Y-124284619D02*
X95022004Y-123607285D01*
X95022004Y-123704047D02*
X95070385Y-123655666D01*
X95167147Y-123607285D01*
X95312290Y-123607285D01*
X95409052Y-123655666D01*
X95457433Y-123752428D01*
X95457433Y-124284619D01*
X95457433Y-123752428D02*
X95505814Y-123655666D01*
X95602576Y-123607285D01*
X95747719Y-123607285D01*
X95844480Y-123655666D01*
X95892861Y-123752428D01*
X95892861Y-124284619D01*
X96521814Y-124284619D02*
X96425052Y-124236238D01*
X96376671Y-124187857D01*
X96328290Y-124091095D01*
X96328290Y-123800809D01*
X96376671Y-123704047D01*
X96425052Y-123655666D01*
X96521814Y-123607285D01*
X96666957Y-123607285D01*
X96763719Y-123655666D01*
X96812100Y-123704047D01*
X96860480Y-123800809D01*
X96860480Y-124091095D01*
X96812100Y-124187857D01*
X96763719Y-124236238D01*
X96666957Y-124284619D01*
X96521814Y-124284619D01*
X97731338Y-124284619D02*
X97731338Y-123268619D01*
X97731338Y-124236238D02*
X97634576Y-124284619D01*
X97441052Y-124284619D01*
X97344290Y-124236238D01*
X97295909Y-124187857D01*
X97247528Y-124091095D01*
X97247528Y-123800809D01*
X97295909Y-123704047D01*
X97344290Y-123655666D01*
X97441052Y-123607285D01*
X97634576Y-123607285D01*
X97731338Y-123655666D01*
X98602195Y-124236238D02*
X98505433Y-124284619D01*
X98311909Y-124284619D01*
X98215147Y-124236238D01*
X98166766Y-124139476D01*
X98166766Y-123752428D01*
X98215147Y-123655666D01*
X98311909Y-123607285D01*
X98505433Y-123607285D01*
X98602195Y-123655666D01*
X98650576Y-123752428D01*
X98650576Y-123849190D01*
X98166766Y-123945952D01*
X99231147Y-124284619D02*
X99134385Y-124236238D01*
X99086004Y-124139476D01*
X99086004Y-123268619D01*
X99376290Y-124381380D02*
X100150385Y-124381380D01*
X100392290Y-123607285D02*
X100392290Y-124284619D01*
X100392290Y-123704047D02*
X100440671Y-123655666D01*
X100537433Y-123607285D01*
X100682576Y-123607285D01*
X100779338Y-123655666D01*
X100827719Y-123752428D01*
X100827719Y-124284619D01*
X101746957Y-123607285D02*
X101746957Y-124284619D01*
X101311528Y-123607285D02*
X101311528Y-124139476D01*
X101359909Y-124236238D01*
X101456671Y-124284619D01*
X101601814Y-124284619D01*
X101698576Y-124236238D01*
X101746957Y-124187857D01*
X102230766Y-124284619D02*
X102230766Y-123607285D01*
X102230766Y-123704047D02*
X102279147Y-123655666D01*
X102375909Y-123607285D01*
X102521052Y-123607285D01*
X102617814Y-123655666D01*
X102666195Y-123752428D01*
X102666195Y-124284619D01*
X102666195Y-123752428D02*
X102714576Y-123655666D01*
X102811338Y-123607285D01*
X102956480Y-123607285D01*
X103053242Y-123655666D01*
X103101623Y-123752428D01*
X103101623Y-124284619D01*
X103585433Y-124284619D02*
X103585433Y-123268619D01*
X103585433Y-123655666D02*
X103682195Y-123607285D01*
X103875719Y-123607285D01*
X103972480Y-123655666D01*
X104020861Y-123704047D01*
X104069242Y-123800809D01*
X104069242Y-124091095D01*
X104020861Y-124187857D01*
X103972480Y-124236238D01*
X103875719Y-124284619D01*
X103682195Y-124284619D01*
X103585433Y-124236238D01*
X104891719Y-124236238D02*
X104794957Y-124284619D01*
X104601433Y-124284619D01*
X104504671Y-124236238D01*
X104456290Y-124139476D01*
X104456290Y-123752428D01*
X104504671Y-123655666D01*
X104601433Y-123607285D01*
X104794957Y-123607285D01*
X104891719Y-123655666D01*
X104940100Y-123752428D01*
X104940100Y-123849190D01*
X104456290Y-123945952D01*
X105375528Y-124284619D02*
X105375528Y-123607285D01*
X105375528Y-123800809D02*
X105423909Y-123704047D01*
X105472290Y-123655666D01*
X105569052Y-123607285D01*
X105665814Y-123607285D01*
X106004480Y-124187857D02*
X106052861Y-124236238D01*
X106004480Y-124284619D01*
X105956100Y-124236238D01*
X106004480Y-124187857D01*
X106004480Y-124284619D01*
X106004480Y-123655666D02*
X106052861Y-123704047D01*
X106004480Y-123752428D01*
X105956100Y-123704047D01*
X106004480Y-123655666D01*
X106004480Y-123752428D01*
X107794576Y-124284619D02*
X107214004Y-124284619D01*
X107504290Y-124284619D02*
X107504290Y-123268619D01*
X107407528Y-123413761D01*
X107310766Y-123510523D01*
X107214004Y-123558904D01*
X108762195Y-124284619D02*
X108181623Y-124284619D01*
X108471909Y-124284619D02*
X108471909Y-123268619D01*
X108375147Y-123413761D01*
X108278385Y-123510523D01*
X108181623Y-123558904D01*
X109729814Y-124284619D02*
X109149242Y-124284619D01*
X109439528Y-124284619D02*
X109439528Y-123268619D01*
X109342766Y-123413761D01*
X109246004Y-123510523D01*
X109149242Y-123558904D01*
X110358766Y-123268619D02*
X110455528Y-123268619D01*
X110552290Y-123317000D01*
X110600671Y-123365380D01*
X110649052Y-123462142D01*
X110697433Y-123655666D01*
X110697433Y-123897571D01*
X110649052Y-124091095D01*
X110600671Y-124187857D01*
X110552290Y-124236238D01*
X110455528Y-124284619D01*
X110358766Y-124284619D01*
X110262004Y-124236238D01*
X110213623Y-124187857D01*
X110165242Y-124091095D01*
X110116861Y-123897571D01*
X110116861Y-123655666D01*
X110165242Y-123462142D01*
X110213623Y-123365380D01*
X110262004Y-123317000D01*
X110358766Y-123268619D01*
X95215528Y-125046619D02*
X95312290Y-125046619D01*
X95409052Y-125095000D01*
X95457433Y-125143380D01*
X95505814Y-125240142D01*
X95554195Y-125433666D01*
X95554195Y-125675571D01*
X95505814Y-125869095D01*
X95457433Y-125965857D01*
X95409052Y-126014238D01*
X95312290Y-126062619D01*
X95215528Y-126062619D01*
X95118766Y-126014238D01*
X95070385Y-125965857D01*
X95022004Y-125869095D01*
X94973623Y-125675571D01*
X94973623Y-125433666D01*
X95022004Y-125240142D01*
X95070385Y-125143380D01*
X95118766Y-125095000D01*
X95215528Y-125046619D01*
X96425052Y-125046619D02*
X96231528Y-125046619D01*
X96134766Y-125095000D01*
X96086385Y-125143380D01*
X95989623Y-125288523D01*
X95941242Y-125482047D01*
X95941242Y-125869095D01*
X95989623Y-125965857D01*
X96038004Y-126014238D01*
X96134766Y-126062619D01*
X96328290Y-126062619D01*
X96425052Y-126014238D01*
X96473433Y-125965857D01*
X96521814Y-125869095D01*
X96521814Y-125627190D01*
X96473433Y-125530428D01*
X96425052Y-125482047D01*
X96328290Y-125433666D01*
X96134766Y-125433666D01*
X96038004Y-125482047D01*
X95989623Y-125530428D01*
X95941242Y-125627190D01*
X97682957Y-124998238D02*
X96812100Y-126304523D01*
X97973242Y-125143380D02*
X98021623Y-125095000D01*
X98118385Y-125046619D01*
X98360290Y-125046619D01*
X98457052Y-125095000D01*
X98505433Y-125143380D01*
X98553814Y-125240142D01*
X98553814Y-125336904D01*
X98505433Y-125482047D01*
X97924861Y-126062619D01*
X98553814Y-126062619D01*
X99182766Y-125046619D02*
X99279528Y-125046619D01*
X99376290Y-125095000D01*
X99424671Y-125143380D01*
X99473052Y-125240142D01*
X99521433Y-125433666D01*
X99521433Y-125675571D01*
X99473052Y-125869095D01*
X99424671Y-125965857D01*
X99376290Y-126014238D01*
X99279528Y-126062619D01*
X99182766Y-126062619D01*
X99086004Y-126014238D01*
X99037623Y-125965857D01*
X98989242Y-125869095D01*
X98940861Y-125675571D01*
X98940861Y-125433666D01*
X98989242Y-125240142D01*
X99037623Y-125143380D01*
X99086004Y-125095000D01*
X99182766Y-125046619D01*
X100489052Y-126062619D02*
X99908480Y-126062619D01*
X100198766Y-126062619D02*
X100198766Y-125046619D01*
X100102004Y-125191761D01*
X100005242Y-125288523D01*
X99908480Y-125336904D01*
X101359909Y-125046619D02*
X101166385Y-125046619D01*
X101069623Y-125095000D01*
X101021242Y-125143380D01*
X100924480Y-125288523D01*
X100876100Y-125482047D01*
X100876100Y-125869095D01*
X100924480Y-125965857D01*
X100972861Y-126014238D01*
X101069623Y-126062619D01*
X101263147Y-126062619D01*
X101359909Y-126014238D01*
X101408290Y-125965857D01*
X101456671Y-125869095D01*
X101456671Y-125627190D01*
X101408290Y-125530428D01*
X101359909Y-125482047D01*
X101263147Y-125433666D01*
X101069623Y-125433666D01*
X100972861Y-125482047D01*
X100924480Y-125530428D01*
X100876100Y-125627190D01*
X102569433Y-125385285D02*
X102811338Y-126062619D01*
X103053242Y-125385285D01*
X103827338Y-126014238D02*
X103730576Y-126062619D01*
X103537052Y-126062619D01*
X103440290Y-126014238D01*
X103391909Y-125917476D01*
X103391909Y-125530428D01*
X103440290Y-125433666D01*
X103537052Y-125385285D01*
X103730576Y-125385285D01*
X103827338Y-125433666D01*
X103875719Y-125530428D01*
X103875719Y-125627190D01*
X103391909Y-125723952D01*
X104311147Y-126062619D02*
X104311147Y-125385285D01*
X104311147Y-125578809D02*
X104359528Y-125482047D01*
X104407909Y-125433666D01*
X104504671Y-125385285D01*
X104601433Y-125385285D01*
X106246385Y-126062619D02*
X105665814Y-126062619D01*
X105956100Y-126062619D02*
X105956100Y-125046619D01*
X105859338Y-125191761D01*
X105762576Y-125288523D01*
X105665814Y-125336904D01*
X106681814Y-125965857D02*
X106730195Y-126014238D01*
X106681814Y-126062619D01*
X106633433Y-126014238D01*
X106681814Y-125965857D01*
X106681814Y-126062619D01*
X107601052Y-125046619D02*
X107407528Y-125046619D01*
X107310766Y-125095000D01*
X107262385Y-125143380D01*
X107165623Y-125288523D01*
X107117242Y-125482047D01*
X107117242Y-125869095D01*
X107165623Y-125965857D01*
X107214004Y-126014238D01*
X107310766Y-126062619D01*
X107504290Y-126062619D01*
X107601052Y-126014238D01*
X107649433Y-125965857D01*
X107697814Y-125869095D01*
X107697814Y-125627190D01*
X107649433Y-125530428D01*
X107601052Y-125482047D01*
X107504290Y-125433666D01*
X107310766Y-125433666D01*
X107214004Y-125482047D01*
X107165623Y-125530428D01*
X107117242Y-125627190D01*
X95022004Y-127840619D02*
X95022004Y-127163285D01*
X95022004Y-127260047D02*
X95070385Y-127211666D01*
X95167147Y-127163285D01*
X95312290Y-127163285D01*
X95409052Y-127211666D01*
X95457433Y-127308428D01*
X95457433Y-127840619D01*
X95457433Y-127308428D02*
X95505814Y-127211666D01*
X95602576Y-127163285D01*
X95747719Y-127163285D01*
X95844480Y-127211666D01*
X95892861Y-127308428D01*
X95892861Y-127840619D01*
X96763719Y-127792238D02*
X96666957Y-127840619D01*
X96473433Y-127840619D01*
X96376671Y-127792238D01*
X96328290Y-127695476D01*
X96328290Y-127308428D01*
X96376671Y-127211666D01*
X96473433Y-127163285D01*
X96666957Y-127163285D01*
X96763719Y-127211666D01*
X96812100Y-127308428D01*
X96812100Y-127405190D01*
X96328290Y-127501952D01*
X97682957Y-127163285D02*
X97682957Y-127985761D01*
X97634576Y-128082523D01*
X97586195Y-128130904D01*
X97489433Y-128179285D01*
X97344290Y-128179285D01*
X97247528Y-128130904D01*
X97682957Y-127792238D02*
X97586195Y-127840619D01*
X97392671Y-127840619D01*
X97295909Y-127792238D01*
X97247528Y-127743857D01*
X97199147Y-127647095D01*
X97199147Y-127356809D01*
X97247528Y-127260047D01*
X97295909Y-127211666D01*
X97392671Y-127163285D01*
X97586195Y-127163285D01*
X97682957Y-127211666D01*
X98602195Y-127840619D02*
X98602195Y-127308428D01*
X98553814Y-127211666D01*
X98457052Y-127163285D01*
X98263528Y-127163285D01*
X98166766Y-127211666D01*
X98602195Y-127792238D02*
X98505433Y-127840619D01*
X98263528Y-127840619D01*
X98166766Y-127792238D01*
X98118385Y-127695476D01*
X98118385Y-127598714D01*
X98166766Y-127501952D01*
X98263528Y-127453571D01*
X98505433Y-127453571D01*
X98602195Y-127405190D01*
D12*
X97790000Y-111125000D02*
X97790000Y-119380000D01*
X97790000Y-119380000D02*
X109220000Y-119380000D01*
X109220000Y-119380000D02*
X109220000Y-111125000D01*
X109220000Y-111125000D02*
X97790000Y-111125000D01*
X198120000Y-97790000D02*
X198120000Y-107950000D01*
X198120000Y-107950000D02*
X211455000Y-107950000D01*
X198120000Y-97790000D02*
X211455000Y-97790000D01*
X211455000Y-97790000D02*
X211455000Y-107950000D01*
X105410000Y-100330000D02*
X104648000Y-99568000D01*
X106680000Y-104140000D02*
X105156000Y-105156000D01*
X93345000Y-109220000D02*
X92710000Y-109220000D01*
X92710000Y-109220000D02*
X92710000Y-96520000D01*
X92710000Y-96520000D02*
X93345000Y-96520000D01*
X93345000Y-110490000D02*
X109220000Y-110490000D01*
X109220000Y-110490000D02*
X109220000Y-95250000D01*
X109220000Y-95250000D02*
X93345000Y-95250000D01*
X93345000Y-95250000D02*
X93345000Y-110490000D01*
X107315000Y-98552000D02*
X103505000Y-102362000D01*
X106680000Y-102870000D02*
X106680000Y-105410000D01*
X176530000Y-84328000D02*
X148590000Y-84328000D01*
X148590000Y-84328000D02*
X148590000Y-93472000D01*
X148590000Y-93472000D02*
X176530000Y-93472000D01*
X176530000Y-84328000D02*
X176530000Y-93472000D01*
X171450000Y-84328000D02*
X172720000Y-83058000D01*
X172720000Y-83058000D02*
X170180000Y-83058000D01*
X170180000Y-83058000D02*
X171450000Y-84328000D01*
X140970000Y-84328000D02*
X113030000Y-84328000D01*
X113030000Y-84328000D02*
X113030000Y-93472000D01*
X113030000Y-93472000D02*
X140970000Y-93472000D01*
X140970000Y-84328000D02*
X140970000Y-93472000D01*
X135890000Y-84328000D02*
X137160000Y-83058000D01*
X137160000Y-83058000D02*
X134620000Y-83058000D01*
X134620000Y-83058000D02*
X135890000Y-84328000D01*
X176530000Y-107188000D02*
X148590000Y-107188000D01*
X148590000Y-107188000D02*
X148590000Y-116332000D01*
X148590000Y-116332000D02*
X176530000Y-116332000D01*
X176530000Y-107188000D02*
X176530000Y-116332000D01*
X171450000Y-107188000D02*
X172720000Y-105918000D01*
X172720000Y-105918000D02*
X170180000Y-105918000D01*
X170180000Y-105918000D02*
X171450000Y-107188000D01*
X140970000Y-107188000D02*
X113030000Y-107188000D01*
X113030000Y-107188000D02*
X113030000Y-116332000D01*
X113030000Y-116332000D02*
X140970000Y-116332000D01*
X140970000Y-107188000D02*
X140970000Y-116332000D01*
X135890000Y-107188000D02*
X137160000Y-105918000D01*
X137160000Y-105918000D02*
X134620000Y-105918000D01*
X134620000Y-105918000D02*
X135890000Y-107188000D01*
X87884000Y-91567000D02*
X87884000Y-78867000D01*
X87884000Y-78867000D02*
X101854000Y-78867000D01*
X87884000Y-91567000D02*
X101854000Y-91567000D01*
X101854000Y-91567000D02*
X101854000Y-78867000D01*
X217170000Y-78740000D02*
X217170000Y-91440000D01*
X217170000Y-91440000D02*
X203200000Y-91440000D01*
X217170000Y-78740000D02*
X203200000Y-78740000D01*
X203200000Y-78740000D02*
X203200000Y-91440000D01*
X208915000Y-135890000D02*
X198755000Y-135890000D01*
X198755000Y-135890000D02*
X198755000Y-121920000D01*
X208915000Y-135890000D02*
X208915000Y-121920000D01*
X208915000Y-121920000D02*
X198755000Y-121920000D01*
D15*
X198180000Y-115965000D02*
X198180000Y-111365000D01*
X198180000Y-111365000D02*
X205680000Y-111365000D01*
X205680000Y-111365000D02*
X205680000Y-115965000D01*
X205680000Y-115965000D02*
X198180000Y-115965000D01*
X200533000Y-108712000D02*
X200533000Y-109728000D01*
X200025000Y-109220000D02*
X201041000Y-109220000D01*
X203835000Y-107950000D02*
X203835000Y-110490000D01*
X203835000Y-110490000D02*
X196215000Y-110490000D01*
X196215000Y-110490000D02*
X196215000Y-107950000D01*
X196215000Y-107950000D02*
X203835000Y-107950000D01*
X171958000Y-98933000D02*
X170942000Y-98933000D01*
X171450000Y-98425000D02*
X171450000Y-99441000D01*
X172720000Y-102235000D02*
X170180000Y-102235000D01*
X170180000Y-102235000D02*
X170180000Y-94615000D01*
X170180000Y-94615000D02*
X172720000Y-94615000D01*
X172720000Y-94615000D02*
X172720000Y-102235000D01*
X169418000Y-98933000D02*
X168402000Y-98933000D01*
X168910000Y-98425000D02*
X168910000Y-99441000D01*
X170180000Y-102235000D02*
X167640000Y-102235000D01*
X167640000Y-102235000D02*
X167640000Y-94615000D01*
X167640000Y-94615000D02*
X170180000Y-94615000D01*
X170180000Y-94615000D02*
X170180000Y-102235000D01*
X166878000Y-98933000D02*
X165862000Y-98933000D01*
X166370000Y-98425000D02*
X166370000Y-99441000D01*
X167640000Y-102235000D02*
X165100000Y-102235000D01*
X165100000Y-102235000D02*
X165100000Y-94615000D01*
X165100000Y-94615000D02*
X167640000Y-94615000D01*
X167640000Y-94615000D02*
X167640000Y-102235000D01*
X164338000Y-98933000D02*
X163322000Y-98933000D01*
X163830000Y-98425000D02*
X163830000Y-99441000D01*
X165100000Y-102235000D02*
X162560000Y-102235000D01*
X162560000Y-102235000D02*
X162560000Y-94615000D01*
X162560000Y-94615000D02*
X165100000Y-94615000D01*
X165100000Y-94615000D02*
X165100000Y-102235000D01*
X161798000Y-98933000D02*
X160782000Y-98933000D01*
X161290000Y-98425000D02*
X161290000Y-99441000D01*
X162560000Y-102235000D02*
X160020000Y-102235000D01*
X160020000Y-102235000D02*
X160020000Y-94615000D01*
X160020000Y-94615000D02*
X162560000Y-94615000D01*
X162560000Y-94615000D02*
X162560000Y-102235000D01*
X159258000Y-98933000D02*
X158242000Y-98933000D01*
X158750000Y-98425000D02*
X158750000Y-99441000D01*
X160020000Y-102235000D02*
X157480000Y-102235000D01*
X157480000Y-102235000D02*
X157480000Y-94615000D01*
X157480000Y-94615000D02*
X160020000Y-94615000D01*
X160020000Y-94615000D02*
X160020000Y-102235000D01*
X156718000Y-98933000D02*
X155702000Y-98933000D01*
X156210000Y-98425000D02*
X156210000Y-99441000D01*
X157480000Y-102235000D02*
X154940000Y-102235000D01*
X154940000Y-102235000D02*
X154940000Y-94615000D01*
X154940000Y-94615000D02*
X157480000Y-94615000D01*
X157480000Y-94615000D02*
X157480000Y-102235000D01*
X154178000Y-98933000D02*
X153162000Y-98933000D01*
X153670000Y-98425000D02*
X153670000Y-99441000D01*
X154940000Y-102235000D02*
X152400000Y-102235000D01*
X152400000Y-102235000D02*
X152400000Y-94615000D01*
X152400000Y-94615000D02*
X154940000Y-94615000D01*
X154940000Y-94615000D02*
X154940000Y-102235000D01*
X136398000Y-98933000D02*
X135382000Y-98933000D01*
X135890000Y-98425000D02*
X135890000Y-99441000D01*
X137160000Y-102235000D02*
X134620000Y-102235000D01*
X134620000Y-102235000D02*
X134620000Y-94615000D01*
X134620000Y-94615000D02*
X137160000Y-94615000D01*
X137160000Y-94615000D02*
X137160000Y-102235000D01*
X133858000Y-98933000D02*
X132842000Y-98933000D01*
X133350000Y-98425000D02*
X133350000Y-99441000D01*
X134620000Y-102235000D02*
X132080000Y-102235000D01*
X132080000Y-102235000D02*
X132080000Y-94615000D01*
X132080000Y-94615000D02*
X134620000Y-94615000D01*
X134620000Y-94615000D02*
X134620000Y-102235000D01*
X131318000Y-98933000D02*
X130302000Y-98933000D01*
X130810000Y-98425000D02*
X130810000Y-99441000D01*
X132080000Y-102235000D02*
X129540000Y-102235000D01*
X129540000Y-102235000D02*
X129540000Y-94615000D01*
X129540000Y-94615000D02*
X132080000Y-94615000D01*
X132080000Y-94615000D02*
X132080000Y-102235000D01*
X128778000Y-98933000D02*
X127762000Y-98933000D01*
X128270000Y-98425000D02*
X128270000Y-99441000D01*
X129540000Y-102235000D02*
X127000000Y-102235000D01*
X127000000Y-102235000D02*
X127000000Y-94615000D01*
X127000000Y-94615000D02*
X129540000Y-94615000D01*
X129540000Y-94615000D02*
X129540000Y-102235000D01*
X126238000Y-98933000D02*
X125222000Y-98933000D01*
X125730000Y-98425000D02*
X125730000Y-99441000D01*
X127000000Y-102235000D02*
X124460000Y-102235000D01*
X124460000Y-102235000D02*
X124460000Y-94615000D01*
X124460000Y-94615000D02*
X127000000Y-94615000D01*
X127000000Y-94615000D02*
X127000000Y-102235000D01*
X123698000Y-98933000D02*
X122682000Y-98933000D01*
X123190000Y-98425000D02*
X123190000Y-99441000D01*
X124460000Y-102235000D02*
X121920000Y-102235000D01*
X121920000Y-102235000D02*
X121920000Y-94615000D01*
X121920000Y-94615000D02*
X124460000Y-94615000D01*
X124460000Y-94615000D02*
X124460000Y-102235000D01*
X121158000Y-98933000D02*
X120142000Y-98933000D01*
X120650000Y-98425000D02*
X120650000Y-99441000D01*
X121920000Y-102235000D02*
X119380000Y-102235000D01*
X119380000Y-102235000D02*
X119380000Y-94615000D01*
X119380000Y-94615000D02*
X121920000Y-94615000D01*
X121920000Y-94615000D02*
X121920000Y-102235000D01*
X171958000Y-121793000D02*
X170942000Y-121793000D01*
X171450000Y-121285000D02*
X171450000Y-122301000D01*
X172720000Y-125095000D02*
X170180000Y-125095000D01*
X170180000Y-125095000D02*
X170180000Y-117475000D01*
X170180000Y-117475000D02*
X172720000Y-117475000D01*
X172720000Y-117475000D02*
X172720000Y-125095000D01*
X169418000Y-121793000D02*
X168402000Y-121793000D01*
X168910000Y-121285000D02*
X168910000Y-122301000D01*
X170180000Y-125095000D02*
X167640000Y-125095000D01*
X167640000Y-125095000D02*
X167640000Y-117475000D01*
X167640000Y-117475000D02*
X170180000Y-117475000D01*
X170180000Y-117475000D02*
X170180000Y-125095000D01*
X166878000Y-121793000D02*
X165862000Y-121793000D01*
X166370000Y-121285000D02*
X166370000Y-122301000D01*
X167640000Y-125095000D02*
X165100000Y-125095000D01*
X165100000Y-125095000D02*
X165100000Y-117475000D01*
X165100000Y-117475000D02*
X167640000Y-117475000D01*
X167640000Y-117475000D02*
X167640000Y-125095000D01*
X164338000Y-121793000D02*
X163322000Y-121793000D01*
X163830000Y-121285000D02*
X163830000Y-122301000D01*
X165100000Y-125095000D02*
X162560000Y-125095000D01*
X162560000Y-125095000D02*
X162560000Y-117475000D01*
X162560000Y-117475000D02*
X165100000Y-117475000D01*
X165100000Y-117475000D02*
X165100000Y-125095000D01*
X161798000Y-121793000D02*
X160782000Y-121793000D01*
X161290000Y-121285000D02*
X161290000Y-122301000D01*
X162560000Y-125095000D02*
X160020000Y-125095000D01*
X160020000Y-125095000D02*
X160020000Y-117475000D01*
X160020000Y-117475000D02*
X162560000Y-117475000D01*
X162560000Y-117475000D02*
X162560000Y-125095000D01*
X159258000Y-121793000D02*
X158242000Y-121793000D01*
X158750000Y-121285000D02*
X158750000Y-122301000D01*
X160020000Y-125095000D02*
X157480000Y-125095000D01*
X157480000Y-125095000D02*
X157480000Y-117475000D01*
X157480000Y-117475000D02*
X160020000Y-117475000D01*
X160020000Y-117475000D02*
X160020000Y-125095000D01*
X156718000Y-121793000D02*
X155702000Y-121793000D01*
X156210000Y-121285000D02*
X156210000Y-122301000D01*
X157480000Y-125095000D02*
X154940000Y-125095000D01*
X154940000Y-125095000D02*
X154940000Y-117475000D01*
X154940000Y-117475000D02*
X157480000Y-117475000D01*
X157480000Y-117475000D02*
X157480000Y-125095000D01*
X154178000Y-121793000D02*
X153162000Y-121793000D01*
X153670000Y-121285000D02*
X153670000Y-122301000D01*
X154940000Y-125095000D02*
X152400000Y-125095000D01*
X152400000Y-125095000D02*
X152400000Y-117475000D01*
X152400000Y-117475000D02*
X154940000Y-117475000D01*
X154940000Y-117475000D02*
X154940000Y-125095000D01*
X136398000Y-121793000D02*
X135382000Y-121793000D01*
X135890000Y-121285000D02*
X135890000Y-122301000D01*
X137160000Y-125095000D02*
X134620000Y-125095000D01*
X134620000Y-125095000D02*
X134620000Y-117475000D01*
X134620000Y-117475000D02*
X137160000Y-117475000D01*
X137160000Y-117475000D02*
X137160000Y-125095000D01*
X133858000Y-121793000D02*
X132842000Y-121793000D01*
X133350000Y-121285000D02*
X133350000Y-122301000D01*
X134620000Y-125095000D02*
X132080000Y-125095000D01*
X132080000Y-125095000D02*
X132080000Y-117475000D01*
X132080000Y-117475000D02*
X134620000Y-117475000D01*
X134620000Y-117475000D02*
X134620000Y-125095000D01*
X131318000Y-121793000D02*
X130302000Y-121793000D01*
X130810000Y-121285000D02*
X130810000Y-122301000D01*
X132080000Y-125095000D02*
X129540000Y-125095000D01*
X129540000Y-125095000D02*
X129540000Y-117475000D01*
X129540000Y-117475000D02*
X132080000Y-117475000D01*
X132080000Y-117475000D02*
X132080000Y-125095000D01*
X128778000Y-121793000D02*
X127762000Y-121793000D01*
X128270000Y-121285000D02*
X128270000Y-122301000D01*
X129540000Y-125095000D02*
X127000000Y-125095000D01*
X127000000Y-125095000D02*
X127000000Y-117475000D01*
X127000000Y-117475000D02*
X129540000Y-117475000D01*
X129540000Y-117475000D02*
X129540000Y-125095000D01*
X126238000Y-121793000D02*
X125222000Y-121793000D01*
X125730000Y-121285000D02*
X125730000Y-122301000D01*
X127000000Y-125095000D02*
X124460000Y-125095000D01*
X124460000Y-125095000D02*
X124460000Y-117475000D01*
X124460000Y-117475000D02*
X127000000Y-117475000D01*
X127000000Y-117475000D02*
X127000000Y-125095000D01*
X123698000Y-121793000D02*
X122682000Y-121793000D01*
X123190000Y-121285000D02*
X123190000Y-122301000D01*
X124460000Y-125095000D02*
X121920000Y-125095000D01*
X121920000Y-125095000D02*
X121920000Y-117475000D01*
X121920000Y-117475000D02*
X124460000Y-117475000D01*
X124460000Y-117475000D02*
X124460000Y-125095000D01*
X121158000Y-121793000D02*
X120142000Y-121793000D01*
X120650000Y-121285000D02*
X120650000Y-122301000D01*
X121920000Y-125095000D02*
X119380000Y-125095000D01*
X119380000Y-125095000D02*
X119380000Y-117475000D01*
X119380000Y-117475000D02*
X121920000Y-117475000D01*
X121920000Y-117475000D02*
X121920000Y-125095000D01*
X118618000Y-121793000D02*
X117602000Y-121793000D01*
X118110000Y-121285000D02*
X118110000Y-122301000D01*
X119380000Y-125095000D02*
X116840000Y-125095000D01*
X116840000Y-125095000D02*
X116840000Y-117475000D01*
X116840000Y-117475000D02*
X119380000Y-117475000D01*
X119380000Y-117475000D02*
X119380000Y-125095000D01*
X118618000Y-98933000D02*
X117602000Y-98933000D01*
X118110000Y-98425000D02*
X118110000Y-99441000D01*
X119380000Y-102235000D02*
X116840000Y-102235000D01*
X116840000Y-102235000D02*
X116840000Y-94615000D01*
X116840000Y-94615000D02*
X119380000Y-94615000D01*
X119380000Y-94615000D02*
X119380000Y-102235000D01*
D12*
X196215000Y-96520000D02*
X196215000Y-91440000D01*
X196215000Y-91440000D02*
X206375000Y-91440000D01*
X206375000Y-91440000D02*
X206375000Y-96520000D01*
X206375000Y-96520000D02*
X196215000Y-96520000D01*
D11*
X110949619Y-116071952D02*
X110465809Y-116410619D01*
X110949619Y-116652523D02*
X109933619Y-116652523D01*
X109933619Y-116265476D01*
X109982000Y-116168714D01*
X110030380Y-116120333D01*
X110127142Y-116071952D01*
X110272285Y-116071952D01*
X110369047Y-116120333D01*
X110417428Y-116168714D01*
X110465809Y-116265476D01*
X110465809Y-116652523D01*
X110417428Y-115636523D02*
X110417428Y-115297857D01*
X110949619Y-115152714D02*
X110949619Y-115636523D01*
X109933619Y-115636523D01*
X109933619Y-115152714D01*
X109982000Y-114185095D02*
X109933619Y-114281857D01*
X109933619Y-114427000D01*
X109982000Y-114572142D01*
X110078761Y-114668904D01*
X110175523Y-114717285D01*
X110369047Y-114765666D01*
X110514190Y-114765666D01*
X110707714Y-114717285D01*
X110804476Y-114668904D01*
X110901238Y-114572142D01*
X110949619Y-114427000D01*
X110949619Y-114330238D01*
X110901238Y-114185095D01*
X110852857Y-114136714D01*
X110514190Y-114136714D01*
X110514190Y-114330238D01*
X110949619Y-113169095D02*
X110949619Y-113749666D01*
X110949619Y-113459380D02*
X109933619Y-113459380D01*
X110078761Y-113556142D01*
X110175523Y-113652904D01*
X110223904Y-113749666D01*
X209435095Y-96979619D02*
X209435095Y-95963619D01*
X209822142Y-95963619D01*
X209918904Y-96012000D01*
X209967285Y-96060380D01*
X210015666Y-96157142D01*
X210015666Y-96302285D01*
X209967285Y-96399047D01*
X209918904Y-96447428D01*
X209822142Y-96495809D01*
X209435095Y-96495809D01*
X210983285Y-96979619D02*
X210402714Y-96979619D01*
X210693000Y-96979619D02*
X210693000Y-95963619D01*
X210596238Y-96108761D01*
X210499476Y-96205523D01*
X210402714Y-96253904D01*
X93738095Y-111965619D02*
X93738095Y-110949619D01*
X94125142Y-110949619D01*
X94221904Y-110998000D01*
X94270285Y-111046380D01*
X94318666Y-111143142D01*
X94318666Y-111288285D01*
X94270285Y-111385047D01*
X94221904Y-111433428D01*
X94125142Y-111481809D01*
X93738095Y-111481809D01*
X94657333Y-110949619D02*
X95334666Y-110949619D01*
X94899238Y-111965619D01*
X111203619Y-109861047D02*
X111203619Y-109280476D01*
X112219619Y-109570761D02*
X111203619Y-109570761D01*
X112219619Y-108796666D02*
X112171238Y-108893428D01*
X112122857Y-108941809D01*
X112026095Y-108990190D01*
X111735809Y-108990190D01*
X111639047Y-108941809D01*
X111590666Y-108893428D01*
X111542285Y-108796666D01*
X111542285Y-108651523D01*
X111590666Y-108554761D01*
X111639047Y-108506380D01*
X111735809Y-108458000D01*
X112026095Y-108458000D01*
X112122857Y-108506380D01*
X112171238Y-108554761D01*
X112219619Y-108651523D01*
X112219619Y-108796666D01*
X111542285Y-108022571D02*
X112558285Y-108022571D01*
X111590666Y-108022571D02*
X111542285Y-107925809D01*
X111542285Y-107732285D01*
X111590666Y-107635523D01*
X111639047Y-107587142D01*
X111735809Y-107538761D01*
X112026095Y-107538761D01*
X112122857Y-107587142D01*
X112171238Y-107635523D01*
X112219619Y-107732285D01*
X112219619Y-107925809D01*
X112171238Y-108022571D01*
X112122857Y-107103333D02*
X112171238Y-107054952D01*
X112219619Y-107103333D01*
X112171238Y-107151714D01*
X112122857Y-107103333D01*
X112219619Y-107103333D01*
X111590666Y-107103333D02*
X111639047Y-107054952D01*
X111687428Y-107103333D01*
X111639047Y-107151714D01*
X111590666Y-107103333D01*
X111687428Y-107103333D01*
X111687428Y-105506761D02*
X111735809Y-105361619D01*
X111784190Y-105313238D01*
X111880952Y-105264857D01*
X112026095Y-105264857D01*
X112122857Y-105313238D01*
X112171238Y-105361619D01*
X112219619Y-105458380D01*
X112219619Y-105845428D01*
X111203619Y-105845428D01*
X111203619Y-105506761D01*
X111252000Y-105410000D01*
X111300380Y-105361619D01*
X111397142Y-105313238D01*
X111493904Y-105313238D01*
X111590666Y-105361619D01*
X111639047Y-105410000D01*
X111687428Y-105506761D01*
X111687428Y-105845428D01*
X112219619Y-104829428D02*
X111203619Y-104829428D01*
X112219619Y-104248857D01*
X111203619Y-104248857D01*
X112122857Y-103184476D02*
X112171238Y-103232857D01*
X112219619Y-103378000D01*
X112219619Y-103474761D01*
X112171238Y-103619904D01*
X112074476Y-103716666D01*
X111977714Y-103765047D01*
X111784190Y-103813428D01*
X111639047Y-103813428D01*
X111445523Y-103765047D01*
X111348761Y-103716666D01*
X111252000Y-103619904D01*
X111203619Y-103474761D01*
X111203619Y-103378000D01*
X111252000Y-103232857D01*
X111300380Y-103184476D01*
X111687428Y-101636285D02*
X111735809Y-101491142D01*
X111784190Y-101442761D01*
X111880952Y-101394380D01*
X112026095Y-101394380D01*
X112122857Y-101442761D01*
X112171238Y-101491142D01*
X112219619Y-101587904D01*
X112219619Y-101974952D01*
X111203619Y-101974952D01*
X111203619Y-101636285D01*
X111252000Y-101539523D01*
X111300380Y-101491142D01*
X111397142Y-101442761D01*
X111493904Y-101442761D01*
X111590666Y-101491142D01*
X111639047Y-101539523D01*
X111687428Y-101636285D01*
X111687428Y-101974952D01*
X112606666Y-99894571D02*
X112558285Y-99942952D01*
X112413142Y-100039714D01*
X112316380Y-100088095D01*
X112171238Y-100136476D01*
X111929333Y-100184857D01*
X111735809Y-100184857D01*
X111493904Y-100136476D01*
X111348761Y-100088095D01*
X111252000Y-100039714D01*
X111106857Y-99942952D01*
X111058476Y-99894571D01*
X111203619Y-99652666D02*
X111203619Y-99072095D01*
X112219619Y-99362380D02*
X111203619Y-99362380D01*
X112219619Y-98152857D02*
X111735809Y-98491523D01*
X112219619Y-98733428D02*
X111203619Y-98733428D01*
X111203619Y-98346380D01*
X111252000Y-98249619D01*
X111300380Y-98201238D01*
X111397142Y-98152857D01*
X111542285Y-98152857D01*
X111639047Y-98201238D01*
X111687428Y-98249619D01*
X111735809Y-98346380D01*
X111735809Y-98733428D01*
X112219619Y-97717428D02*
X111203619Y-97717428D01*
X111252000Y-96701428D02*
X111203619Y-96798190D01*
X111203619Y-96943333D01*
X111252000Y-97088476D01*
X111348761Y-97185238D01*
X111445523Y-97233619D01*
X111639047Y-97282000D01*
X111784190Y-97282000D01*
X111977714Y-97233619D01*
X112074476Y-97185238D01*
X112171238Y-97088476D01*
X112219619Y-96943333D01*
X112219619Y-96846571D01*
X112171238Y-96701428D01*
X112122857Y-96653047D01*
X111784190Y-96653047D01*
X111784190Y-96846571D01*
X112606666Y-96314380D02*
X112558285Y-96266000D01*
X112413142Y-96169238D01*
X112316380Y-96120857D01*
X112171238Y-96072476D01*
X111929333Y-96024095D01*
X111735809Y-96024095D01*
X111493904Y-96072476D01*
X111348761Y-96120857D01*
X111252000Y-96169238D01*
X111106857Y-96266000D01*
X111058476Y-96314380D01*
X110163428Y-110296476D02*
X110211809Y-110151333D01*
X110260190Y-110102952D01*
X110356952Y-110054571D01*
X110502095Y-110054571D01*
X110598857Y-110102952D01*
X110647238Y-110151333D01*
X110695619Y-110248095D01*
X110695619Y-110635142D01*
X109679619Y-110635142D01*
X109679619Y-110296476D01*
X109728000Y-110199714D01*
X109776380Y-110151333D01*
X109873142Y-110102952D01*
X109969904Y-110102952D01*
X110066666Y-110151333D01*
X110115047Y-110199714D01*
X110163428Y-110296476D01*
X110163428Y-110635142D01*
X110695619Y-109474000D02*
X110647238Y-109570761D01*
X110598857Y-109619142D01*
X110502095Y-109667523D01*
X110211809Y-109667523D01*
X110115047Y-109619142D01*
X110066666Y-109570761D01*
X110018285Y-109474000D01*
X110018285Y-109328857D01*
X110066666Y-109232095D01*
X110115047Y-109183714D01*
X110211809Y-109135333D01*
X110502095Y-109135333D01*
X110598857Y-109183714D01*
X110647238Y-109232095D01*
X110695619Y-109328857D01*
X110695619Y-109474000D01*
X110018285Y-108845047D02*
X110018285Y-108458000D01*
X109679619Y-108699904D02*
X110550476Y-108699904D01*
X110647238Y-108651523D01*
X110695619Y-108554761D01*
X110695619Y-108458000D01*
X110018285Y-108264476D02*
X110018285Y-107877428D01*
X109679619Y-108119333D02*
X110550476Y-108119333D01*
X110647238Y-108070952D01*
X110695619Y-107974190D01*
X110695619Y-107877428D01*
X110695619Y-107393619D02*
X110647238Y-107490380D01*
X110598857Y-107538761D01*
X110502095Y-107587142D01*
X110211809Y-107587142D01*
X110115047Y-107538761D01*
X110066666Y-107490380D01*
X110018285Y-107393619D01*
X110018285Y-107248476D01*
X110066666Y-107151714D01*
X110115047Y-107103333D01*
X110211809Y-107054952D01*
X110502095Y-107054952D01*
X110598857Y-107103333D01*
X110647238Y-107151714D01*
X110695619Y-107248476D01*
X110695619Y-107393619D01*
X110695619Y-106619523D02*
X110018285Y-106619523D01*
X110115047Y-106619523D02*
X110066666Y-106571142D01*
X110018285Y-106474380D01*
X110018285Y-106329238D01*
X110066666Y-106232476D01*
X110163428Y-106184095D01*
X110695619Y-106184095D01*
X110163428Y-106184095D02*
X110066666Y-106135714D01*
X110018285Y-106038952D01*
X110018285Y-105893809D01*
X110066666Y-105797047D01*
X110163428Y-105748666D01*
X110695619Y-105748666D01*
X110598857Y-105264857D02*
X110647238Y-105216476D01*
X110695619Y-105264857D01*
X110647238Y-105313238D01*
X110598857Y-105264857D01*
X110695619Y-105264857D01*
X110066666Y-105264857D02*
X110115047Y-105216476D01*
X110163428Y-105264857D01*
X110115047Y-105313238D01*
X110066666Y-105264857D01*
X110163428Y-105264857D01*
X110163428Y-103668285D02*
X110211809Y-103523142D01*
X110260190Y-103474761D01*
X110356952Y-103426380D01*
X110502095Y-103426380D01*
X110598857Y-103474761D01*
X110647238Y-103523142D01*
X110695619Y-103619904D01*
X110695619Y-104006952D01*
X109679619Y-104006952D01*
X109679619Y-103668285D01*
X109728000Y-103571523D01*
X109776380Y-103523142D01*
X109873142Y-103474761D01*
X109969904Y-103474761D01*
X110066666Y-103523142D01*
X110115047Y-103571523D01*
X110163428Y-103668285D01*
X110163428Y-104006952D01*
X110695619Y-102990952D02*
X109679619Y-102990952D01*
X110695619Y-102410380D01*
X109679619Y-102410380D01*
X110598857Y-101346000D02*
X110647238Y-101394380D01*
X110695619Y-101539523D01*
X110695619Y-101636285D01*
X110647238Y-101781428D01*
X110550476Y-101878190D01*
X110453714Y-101926571D01*
X110260190Y-101974952D01*
X110115047Y-101974952D01*
X109921523Y-101926571D01*
X109824761Y-101878190D01*
X109728000Y-101781428D01*
X109679619Y-101636285D01*
X109679619Y-101539523D01*
X109728000Y-101394380D01*
X109776380Y-101346000D01*
X110405333Y-100184857D02*
X110405333Y-99701047D01*
X110695619Y-100281619D02*
X109679619Y-99942952D01*
X110695619Y-99604285D01*
X111082666Y-98201238D02*
X111034285Y-98249619D01*
X110889142Y-98346380D01*
X110792380Y-98394761D01*
X110647238Y-98443142D01*
X110405333Y-98491523D01*
X110211809Y-98491523D01*
X109969904Y-98443142D01*
X109824761Y-98394761D01*
X109728000Y-98346380D01*
X109582857Y-98249619D01*
X109534476Y-98201238D01*
X110695619Y-97814190D02*
X109679619Y-97814190D01*
X110598857Y-96749809D02*
X110647238Y-96798190D01*
X110695619Y-96943333D01*
X110695619Y-97040095D01*
X110647238Y-97185238D01*
X110550476Y-97281999D01*
X110453714Y-97330380D01*
X110260190Y-97378761D01*
X110115047Y-97378761D01*
X109921523Y-97330380D01*
X109824761Y-97281999D01*
X109728000Y-97185238D01*
X109679619Y-97040095D01*
X109679619Y-96943333D01*
X109728000Y-96798190D01*
X109776380Y-96749809D01*
X110695619Y-96314380D02*
X109679619Y-96314380D01*
X109679619Y-95927333D01*
X109728000Y-95830571D01*
X109776380Y-95782190D01*
X109873142Y-95733809D01*
X110018285Y-95733809D01*
X110115047Y-95782190D01*
X110163428Y-95830571D01*
X110211809Y-95927333D01*
X110211809Y-96314380D01*
X111082666Y-95395142D02*
X111034285Y-95346761D01*
X110889142Y-95249999D01*
X110792380Y-95201619D01*
X110647238Y-95153238D01*
X110405333Y-95104857D01*
X110211809Y-95104857D01*
X109969904Y-95153238D01*
X109824761Y-95201619D01*
X109728000Y-95249999D01*
X109582857Y-95346761D01*
X109534476Y-95395142D01*
X104321428Y-98733428D02*
X104369809Y-98588285D01*
X104418190Y-98539904D01*
X104514952Y-98491523D01*
X104660095Y-98491523D01*
X104756857Y-98539904D01*
X104805238Y-98588285D01*
X104853619Y-98685047D01*
X104853619Y-99072095D01*
X103837619Y-99072095D01*
X103837619Y-98733428D01*
X103886000Y-98636666D01*
X103934380Y-98588285D01*
X104031142Y-98539904D01*
X104127904Y-98539904D01*
X104224666Y-98588285D01*
X104273047Y-98636666D01*
X104321428Y-98733428D01*
X104321428Y-99072095D01*
X103583619Y-105700285D02*
X103583619Y-105119714D01*
X104599619Y-105410000D02*
X103583619Y-105410000D01*
X178259619Y-89649904D02*
X177243619Y-89649904D01*
X177243619Y-89262857D01*
X177292000Y-89166095D01*
X177340380Y-89117714D01*
X177437142Y-89069333D01*
X177582285Y-89069333D01*
X177679047Y-89117714D01*
X177727428Y-89166095D01*
X177775809Y-89262857D01*
X177775809Y-89649904D01*
X177679047Y-88488761D02*
X177630666Y-88585523D01*
X177582285Y-88633904D01*
X177485523Y-88682285D01*
X177437142Y-88682285D01*
X177340380Y-88633904D01*
X177292000Y-88585523D01*
X177243619Y-88488761D01*
X177243619Y-88295238D01*
X177292000Y-88198476D01*
X177340380Y-88150095D01*
X177437142Y-88101714D01*
X177485523Y-88101714D01*
X177582285Y-88150095D01*
X177630666Y-88198476D01*
X177679047Y-88295238D01*
X177679047Y-88488761D01*
X177727428Y-88585523D01*
X177775809Y-88633904D01*
X177872571Y-88682285D01*
X178066095Y-88682285D01*
X178162857Y-88633904D01*
X178211238Y-88585523D01*
X178259619Y-88488761D01*
X178259619Y-88295238D01*
X178211238Y-88198476D01*
X178162857Y-88150095D01*
X178066095Y-88101714D01*
X177872571Y-88101714D01*
X177775809Y-88150095D01*
X177727428Y-88198476D01*
X177679047Y-88295238D01*
X142699619Y-89649904D02*
X141683619Y-89649904D01*
X141683619Y-89262857D01*
X141732000Y-89166095D01*
X141780380Y-89117714D01*
X141877142Y-89069333D01*
X142022285Y-89069333D01*
X142119047Y-89117714D01*
X142167428Y-89166095D01*
X142215809Y-89262857D01*
X142215809Y-89649904D01*
X142699619Y-88585523D02*
X142699619Y-88392000D01*
X142651238Y-88295238D01*
X142602857Y-88246857D01*
X142457714Y-88150095D01*
X142264190Y-88101714D01*
X141877142Y-88101714D01*
X141780380Y-88150095D01*
X141732000Y-88198476D01*
X141683619Y-88295238D01*
X141683619Y-88488761D01*
X141732000Y-88585523D01*
X141780380Y-88633904D01*
X141877142Y-88682285D01*
X142119047Y-88682285D01*
X142215809Y-88633904D01*
X142264190Y-88585523D01*
X142312571Y-88488761D01*
X142312571Y-88295238D01*
X142264190Y-88198476D01*
X142215809Y-88150095D01*
X142119047Y-88101714D01*
X178259619Y-112993714D02*
X177243619Y-112993714D01*
X177243619Y-112606666D01*
X177292000Y-112509904D01*
X177340380Y-112461523D01*
X177437142Y-112413142D01*
X177582285Y-112413142D01*
X177679047Y-112461523D01*
X177727428Y-112509904D01*
X177775809Y-112606666D01*
X177775809Y-112993714D01*
X178259619Y-111445523D02*
X178259619Y-112026095D01*
X178259619Y-111735809D02*
X177243619Y-111735809D01*
X177388761Y-111832571D01*
X177485523Y-111929333D01*
X177533904Y-112026095D01*
X177243619Y-110816571D02*
X177243619Y-110719809D01*
X177292000Y-110623047D01*
X177340380Y-110574666D01*
X177437142Y-110526285D01*
X177630666Y-110477904D01*
X177872571Y-110477904D01*
X178066095Y-110526285D01*
X178162857Y-110574666D01*
X178211238Y-110623047D01*
X178259619Y-110719809D01*
X178259619Y-110816571D01*
X178211238Y-110913333D01*
X178162857Y-110961714D01*
X178066095Y-111010095D01*
X177872571Y-111058476D01*
X177630666Y-111058476D01*
X177437142Y-111010095D01*
X177340380Y-110961714D01*
X177292000Y-110913333D01*
X177243619Y-110816571D01*
X142699619Y-112993714D02*
X141683619Y-112993714D01*
X141683619Y-112606666D01*
X141732000Y-112509904D01*
X141780380Y-112461523D01*
X141877142Y-112413142D01*
X142022285Y-112413142D01*
X142119047Y-112461523D01*
X142167428Y-112509904D01*
X142215809Y-112606666D01*
X142215809Y-112993714D01*
X142699619Y-111445523D02*
X142699619Y-112026095D01*
X142699619Y-111735809D02*
X141683619Y-111735809D01*
X141828761Y-111832571D01*
X141925523Y-111929333D01*
X141973904Y-112026095D01*
X142699619Y-110477904D02*
X142699619Y-111058476D01*
X142699619Y-110768190D02*
X141683619Y-110768190D01*
X141828761Y-110864952D01*
X141925523Y-110961714D01*
X141973904Y-111058476D01*
X103583619Y-91681904D02*
X102567619Y-91681904D01*
X102567619Y-91294857D01*
X102616000Y-91198095D01*
X102664380Y-91149714D01*
X102761142Y-91101333D01*
X102906285Y-91101333D01*
X103003047Y-91149714D01*
X103051428Y-91198095D01*
X103099809Y-91294857D01*
X103099809Y-91681904D01*
X102664380Y-90714285D02*
X102616000Y-90665904D01*
X102567619Y-90569142D01*
X102567619Y-90327238D01*
X102616000Y-90230476D01*
X102664380Y-90182095D01*
X102761142Y-90133714D01*
X102857904Y-90133714D01*
X103003047Y-90182095D01*
X103583619Y-90762666D01*
X103583619Y-90133714D01*
X202389619Y-80124904D02*
X201373619Y-80124904D01*
X201373619Y-79737857D01*
X201422000Y-79641095D01*
X201470380Y-79592714D01*
X201567142Y-79544333D01*
X201712285Y-79544333D01*
X201809047Y-79592714D01*
X201857428Y-79641095D01*
X201905809Y-79737857D01*
X201905809Y-80124904D01*
X201712285Y-78673476D02*
X202389619Y-78673476D01*
X201325238Y-78915380D02*
X202050952Y-79157285D01*
X202050952Y-78528333D01*
X208800095Y-121109619D02*
X208800095Y-120093619D01*
X209187142Y-120093619D01*
X209283904Y-120142000D01*
X209332285Y-120190380D01*
X209380666Y-120287142D01*
X209380666Y-120432285D01*
X209332285Y-120529047D01*
X209283904Y-120577428D01*
X209187142Y-120625809D01*
X208800095Y-120625809D01*
X210251523Y-120093619D02*
X210058000Y-120093619D01*
X209961238Y-120142000D01*
X209912857Y-120190380D01*
X209816095Y-120335523D01*
X209767714Y-120529047D01*
X209767714Y-120916095D01*
X209816095Y-121012857D01*
X209864476Y-121061238D01*
X209961238Y-121109619D01*
X210154761Y-121109619D01*
X210251523Y-121061238D01*
X210299904Y-121012857D01*
X210348285Y-120916095D01*
X210348285Y-120674190D01*
X210299904Y-120577428D01*
X210251523Y-120529047D01*
X210154761Y-120480666D01*
X209961238Y-120480666D01*
X209864476Y-120529047D01*
X209816095Y-120577428D01*
X209767714Y-120674190D01*
X206989619Y-114414904D02*
X205973619Y-114414904D01*
X205973619Y-114173000D01*
X206022000Y-114027857D01*
X206118761Y-113931095D01*
X206215523Y-113882714D01*
X206409047Y-113834333D01*
X206554190Y-113834333D01*
X206747714Y-113882714D01*
X206844476Y-113931095D01*
X206941238Y-114027857D01*
X206989619Y-114173000D01*
X206989619Y-114414904D01*
X206989619Y-112866714D02*
X206989619Y-113447285D01*
X206989619Y-113157000D02*
X205973619Y-113157000D01*
X206118761Y-113253761D01*
X206215523Y-113350523D01*
X206263904Y-113447285D01*
D13*
X196723000Y-111469714D02*
X196360142Y-111469714D01*
X196360142Y-110707714D01*
X197376142Y-111469714D02*
X196940714Y-111469714D01*
X197158428Y-111469714D02*
X197158428Y-110707714D01*
X197085857Y-110816571D01*
X197013285Y-110889142D01*
X196940714Y-110925428D01*
D11*
X174449619Y-98594333D02*
X174449619Y-99078142D01*
X173433619Y-99078142D01*
X173530380Y-98304047D02*
X173482000Y-98255666D01*
X173433619Y-98158904D01*
X173433619Y-97917000D01*
X173482000Y-97820238D01*
X173530380Y-97771857D01*
X173627142Y-97723476D01*
X173723904Y-97723476D01*
X173869047Y-97771857D01*
X174449619Y-98352428D01*
X174449619Y-97723476D01*
X151589619Y-98594333D02*
X151589619Y-99078142D01*
X150573619Y-99078142D01*
X151589619Y-98207285D02*
X151589619Y-98013761D01*
X151541238Y-97917000D01*
X151492857Y-97868619D01*
X151347714Y-97771857D01*
X151154190Y-97723476D01*
X150767142Y-97723476D01*
X150670380Y-97771857D01*
X150622000Y-97820238D01*
X150573619Y-97917000D01*
X150573619Y-98110523D01*
X150622000Y-98207285D01*
X150670380Y-98255666D01*
X150767142Y-98304047D01*
X151009047Y-98304047D01*
X151105809Y-98255666D01*
X151154190Y-98207285D01*
X151202571Y-98110523D01*
X151202571Y-97917000D01*
X151154190Y-97820238D01*
X151105809Y-97771857D01*
X151009047Y-97723476D01*
X138889619Y-99078142D02*
X138889619Y-99561952D01*
X137873619Y-99561952D01*
X138889619Y-98207285D02*
X138889619Y-98787857D01*
X138889619Y-98497571D02*
X137873619Y-98497571D01*
X138018761Y-98594333D01*
X138115523Y-98691095D01*
X138163904Y-98787857D01*
X137873619Y-97578333D02*
X137873619Y-97481571D01*
X137922000Y-97384809D01*
X137970380Y-97336428D01*
X138067142Y-97288047D01*
X138260666Y-97239666D01*
X138502571Y-97239666D01*
X138696095Y-97288047D01*
X138792857Y-97336428D01*
X138841238Y-97384809D01*
X138889619Y-97481571D01*
X138889619Y-97578333D01*
X138841238Y-97675095D01*
X138792857Y-97723476D01*
X138696095Y-97771857D01*
X138502571Y-97820238D01*
X138260666Y-97820238D01*
X138067142Y-97771857D01*
X137970380Y-97723476D01*
X137922000Y-97675095D01*
X137873619Y-97578333D01*
X174449619Y-121938142D02*
X174449619Y-122421952D01*
X173433619Y-122421952D01*
X174449619Y-121067285D02*
X174449619Y-121647857D01*
X174449619Y-121357571D02*
X173433619Y-121357571D01*
X173578761Y-121454333D01*
X173675523Y-121551095D01*
X173723904Y-121647857D01*
X173869047Y-120486714D02*
X173820666Y-120583476D01*
X173772285Y-120631857D01*
X173675523Y-120680238D01*
X173627142Y-120680238D01*
X173530380Y-120631857D01*
X173482000Y-120583476D01*
X173433619Y-120486714D01*
X173433619Y-120293190D01*
X173482000Y-120196428D01*
X173530380Y-120148047D01*
X173627142Y-120099666D01*
X173675523Y-120099666D01*
X173772285Y-120148047D01*
X173820666Y-120196428D01*
X173869047Y-120293190D01*
X173869047Y-120486714D01*
X173917428Y-120583476D01*
X173965809Y-120631857D01*
X174062571Y-120680238D01*
X174256095Y-120680238D01*
X174352857Y-120631857D01*
X174401238Y-120583476D01*
X174449619Y-120486714D01*
X174449619Y-120293190D01*
X174401238Y-120196428D01*
X174352857Y-120148047D01*
X174256095Y-120099666D01*
X174062571Y-120099666D01*
X173965809Y-120148047D01*
X173917428Y-120196428D01*
X173869047Y-120293190D01*
X151589619Y-121938142D02*
X151589619Y-122421952D01*
X150573619Y-122421952D01*
X150670380Y-121647857D02*
X150622000Y-121599476D01*
X150573619Y-121502714D01*
X150573619Y-121260809D01*
X150622000Y-121164047D01*
X150670380Y-121115666D01*
X150767142Y-121067285D01*
X150863904Y-121067285D01*
X151009047Y-121115666D01*
X151589619Y-121696238D01*
X151589619Y-121067285D01*
X150573619Y-120148047D02*
X150573619Y-120631857D01*
X151057428Y-120680238D01*
X151009047Y-120631857D01*
X150960666Y-120535095D01*
X150960666Y-120293190D01*
X151009047Y-120196428D01*
X151057428Y-120148047D01*
X151154190Y-120099666D01*
X151396095Y-120099666D01*
X151492857Y-120148047D01*
X151541238Y-120196428D01*
X151589619Y-120293190D01*
X151589619Y-120535095D01*
X151541238Y-120631857D01*
X151492857Y-120680238D01*
X138889619Y-121938142D02*
X138889619Y-122421952D01*
X137873619Y-122421952D01*
X137970380Y-121647857D02*
X137922000Y-121599476D01*
X137873619Y-121502714D01*
X137873619Y-121260809D01*
X137922000Y-121164047D01*
X137970380Y-121115666D01*
X138067142Y-121067285D01*
X138163904Y-121067285D01*
X138309047Y-121115666D01*
X138889619Y-121696238D01*
X138889619Y-121067285D01*
X137873619Y-120196428D02*
X137873619Y-120389952D01*
X137922000Y-120486714D01*
X137970380Y-120535095D01*
X138115523Y-120631857D01*
X138309047Y-120680238D01*
X138696095Y-120680238D01*
X138792857Y-120631857D01*
X138841238Y-120583476D01*
X138889619Y-120486714D01*
X138889619Y-120293190D01*
X138841238Y-120196428D01*
X138792857Y-120148047D01*
X138696095Y-120099666D01*
X138454190Y-120099666D01*
X138357428Y-120148047D01*
X138309047Y-120196428D01*
X138260666Y-120293190D01*
X138260666Y-120486714D01*
X138309047Y-120583476D01*
X138357428Y-120631857D01*
X138454190Y-120680238D01*
X116029619Y-121938142D02*
X116029619Y-122421952D01*
X115013619Y-122421952D01*
X115013619Y-121696238D02*
X115013619Y-121067285D01*
X115400666Y-121405952D01*
X115400666Y-121260809D01*
X115449047Y-121164047D01*
X115497428Y-121115666D01*
X115594190Y-121067285D01*
X115836095Y-121067285D01*
X115932857Y-121115666D01*
X115981238Y-121164047D01*
X116029619Y-121260809D01*
X116029619Y-121551095D01*
X115981238Y-121647857D01*
X115932857Y-121696238D01*
X115013619Y-120728619D02*
X115013619Y-120099666D01*
X115400666Y-120438333D01*
X115400666Y-120293190D01*
X115449047Y-120196428D01*
X115497428Y-120148047D01*
X115594190Y-120099666D01*
X115836095Y-120099666D01*
X115932857Y-120148047D01*
X115981238Y-120196428D01*
X116029619Y-120293190D01*
X116029619Y-120583476D01*
X115981238Y-120680238D01*
X115932857Y-120728619D01*
X116029619Y-99078142D02*
X116029619Y-99561952D01*
X115013619Y-99561952D01*
X116029619Y-98207285D02*
X116029619Y-98787857D01*
X116029619Y-98497571D02*
X115013619Y-98497571D01*
X115158761Y-98594333D01*
X115255523Y-98691095D01*
X115303904Y-98787857D01*
X115013619Y-97868619D02*
X115013619Y-97191285D01*
X116029619Y-97626714D01*
D13*
X196469000Y-97463428D02*
X196577857Y-97499714D01*
X196759285Y-97499714D01*
X196831857Y-97463428D01*
X196868142Y-97427142D01*
X196904428Y-97354571D01*
X196904428Y-97282000D01*
X196868142Y-97209428D01*
X196831857Y-97173142D01*
X196759285Y-97136857D01*
X196614142Y-97100571D01*
X196541571Y-97064285D01*
X196505285Y-97028000D01*
X196469000Y-96955428D01*
X196469000Y-96882857D01*
X196505285Y-96810285D01*
X196541571Y-96774000D01*
X196614142Y-96737714D01*
X196795571Y-96737714D01*
X196904428Y-96774000D01*
X197158428Y-96737714D02*
X197339857Y-97499714D01*
X197485000Y-96955428D01*
X197630142Y-97499714D01*
X197811571Y-96737714D01*
X198501000Y-97499714D02*
X198065571Y-97499714D01*
X198283285Y-97499714D02*
X198283285Y-96737714D01*
X198210714Y-96846571D01*
X198138142Y-96919142D01*
X198065571Y-96955428D01*
D11*
X206834619Y-94947619D02*
X206834619Y-94754095D01*
X206883000Y-94657333D01*
X206979761Y-94560571D01*
X207173285Y-94512190D01*
X207511952Y-94512190D01*
X207705476Y-94560571D01*
X207802238Y-94657333D01*
X207850619Y-94754095D01*
X207850619Y-94947619D01*
X207802238Y-95044380D01*
X207705476Y-95141142D01*
X207511952Y-95189523D01*
X207173285Y-95189523D01*
X206979761Y-95141142D01*
X206883000Y-95044380D01*
X206834619Y-94947619D01*
X207318428Y-93738095D02*
X207318428Y-94076761D01*
X207850619Y-94076761D02*
X206834619Y-94076761D01*
X206834619Y-93592952D01*
X207318428Y-92867238D02*
X207318428Y-93205904D01*
X207850619Y-93205904D02*
X206834619Y-93205904D01*
X206834619Y-92722095D01*
%LPC*%
D16*
X103505000Y-113030000D03*
X100965000Y-113030000D03*
X106045000Y-113030000D03*
D17*
X208457800Y-102870000D03*
D18*
X204952600Y-102870000D03*
D19*
X199466200Y-102870000D03*
D20*
X206451200Y-98374200D03*
X206451200Y-107365800D03*
D21*
X99060000Y-107950000D03*
X99060000Y-97790000D03*
D22*
X105156000Y-102870000D03*
D23*
X107950000Y-102870000D03*
X107950000Y-100076000D03*
X107950000Y-105664000D03*
D24*
X171450000Y-85902800D03*
X171450000Y-91897200D03*
X168910000Y-85902800D03*
X168910000Y-91897200D03*
X166370000Y-85902800D03*
X166370000Y-91897200D03*
X163830000Y-85902800D03*
X163830000Y-91897200D03*
X161290000Y-85902800D03*
X161290000Y-91897200D03*
X158750000Y-85902800D03*
X158750000Y-91897200D03*
X156210000Y-85902800D03*
X156210000Y-91897200D03*
X153670000Y-85902800D03*
X153670000Y-91897200D03*
X135890000Y-85902800D03*
X135890000Y-91897200D03*
X133350000Y-85902800D03*
X133350000Y-91897200D03*
X130810000Y-85902800D03*
X130810000Y-91897200D03*
X128270000Y-85902800D03*
X128270000Y-91897200D03*
X125730000Y-85902800D03*
X125730000Y-91897200D03*
X123190000Y-85902800D03*
X123190000Y-91897200D03*
X120650000Y-85902800D03*
X120650000Y-91897200D03*
X118110000Y-85902800D03*
X118110000Y-91897200D03*
X171450000Y-108762800D03*
X171450000Y-114757200D03*
X168910000Y-108762800D03*
X168910000Y-114757200D03*
X166370000Y-108762800D03*
X166370000Y-114757200D03*
X163830000Y-108762800D03*
X163830000Y-114757200D03*
X161290000Y-108762800D03*
X161290000Y-114757200D03*
X158750000Y-108762800D03*
X158750000Y-114757200D03*
X156210000Y-108762800D03*
X156210000Y-114757200D03*
X153670000Y-108762800D03*
X153670000Y-114757200D03*
X135890000Y-108762800D03*
X135890000Y-114757200D03*
X133350000Y-108762800D03*
X133350000Y-114757200D03*
X130810000Y-108762800D03*
X130810000Y-114757200D03*
X128270000Y-108762800D03*
X128270000Y-114757200D03*
X125730000Y-108762800D03*
X125730000Y-114757200D03*
X123190000Y-108762800D03*
X123190000Y-114757200D03*
X120650000Y-108762800D03*
X120650000Y-114757200D03*
X118110000Y-108762800D03*
X118110000Y-114757200D03*
D25*
X111760000Y-127000000D03*
X113030000Y-78740000D03*
X194310000Y-127000000D03*
X187960000Y-78740000D03*
D16*
X125730000Y-127000000D03*
X128270000Y-127000000D03*
X130810000Y-127000000D03*
X133350000Y-127000000D03*
X135890000Y-127000000D03*
X138430000Y-127000000D03*
X140970000Y-127000000D03*
X143510000Y-127000000D03*
X148590000Y-127000000D03*
X151130000Y-127000000D03*
X153670000Y-127000000D03*
X156210000Y-127000000D03*
X158750000Y-127000000D03*
X161290000Y-127000000D03*
X163830000Y-127000000D03*
X166370000Y-127000000D03*
X171450000Y-127000000D03*
X173990000Y-127000000D03*
X176530000Y-127000000D03*
X179070000Y-127000000D03*
X181610000Y-127000000D03*
X184150000Y-127000000D03*
X186690000Y-127000000D03*
X189230000Y-127000000D03*
X116586000Y-78740000D03*
X119126000Y-78740000D03*
X121666000Y-78740000D03*
X124206000Y-78740000D03*
X126746000Y-78740000D03*
X129286000Y-78740000D03*
X131826000Y-78740000D03*
X134366000Y-78740000D03*
X136906000Y-78740000D03*
X139446000Y-78740000D03*
X143510000Y-78740000D03*
X161290000Y-78740000D03*
X158750000Y-78740000D03*
X156210000Y-78740000D03*
X153670000Y-78740000D03*
X151130000Y-78740000D03*
X148590000Y-78740000D03*
X146050000Y-78740000D03*
X166370000Y-78740000D03*
X168910000Y-78740000D03*
X171450000Y-78740000D03*
X173990000Y-78740000D03*
X176530000Y-78740000D03*
X179070000Y-78740000D03*
X181610000Y-78740000D03*
X184150000Y-78740000D03*
X191770000Y-78232000D03*
X194310000Y-78232000D03*
D26*
X191262000Y-81280000D03*
X194818000Y-81280000D03*
X191262000Y-83820000D03*
X194818000Y-83820000D03*
X191262000Y-86360000D03*
X194818000Y-86360000D03*
X191262000Y-88900000D03*
X194818000Y-88900000D03*
X191262000Y-91440000D03*
X194818000Y-91440000D03*
X191262000Y-93980000D03*
X194818000Y-93980000D03*
X191262000Y-96520000D03*
X194818000Y-96520000D03*
X191262000Y-99060000D03*
X194818000Y-99060000D03*
X191262000Y-101600000D03*
X194818000Y-101600000D03*
X191262000Y-104140000D03*
X194818000Y-104140000D03*
X191262000Y-106680000D03*
X194818000Y-106680000D03*
X191262000Y-109220000D03*
X194818000Y-109220000D03*
X191262000Y-111760000D03*
X194818000Y-111760000D03*
X191262000Y-114300000D03*
X194818000Y-114300000D03*
X191262000Y-116840000D03*
X194818000Y-116840000D03*
X191262000Y-119380000D03*
X194818000Y-119380000D03*
X191262000Y-121920000D03*
X194818000Y-121920000D03*
D27*
X102870000Y-87757000D03*
X102870000Y-85217000D03*
X102870000Y-82677000D03*
D28*
X99695000Y-90170000D03*
X99695000Y-80264000D03*
D29*
X96139000Y-91211400D03*
X96139000Y-79222600D03*
D28*
X208788000Y-82931000D03*
X198882000Y-82931000D03*
D27*
X202184000Y-82550000D03*
X202184000Y-85090000D03*
X202184000Y-87630000D03*
D28*
X205359000Y-80137000D03*
X205359000Y-90043000D03*
D29*
X208915000Y-79095600D03*
X208915000Y-91084400D03*
D28*
X198882000Y-122809000D03*
X208788000Y-122809000D03*
D30*
X205105000Y-120904000D03*
X202565000Y-120904000D03*
D28*
X207518000Y-124079000D03*
X200152000Y-124079000D03*
D31*
X208559400Y-127635000D03*
X199110600Y-127635000D03*
D32*
X202950000Y-113665000D03*
D33*
X199150000Y-114730000D03*
X199150000Y-112600000D03*
D22*
X202565000Y-109220000D03*
X197485000Y-109220000D03*
D23*
X171450000Y-100965000D03*
X171450000Y-95885000D03*
X168910000Y-100965000D03*
X168910000Y-95885000D03*
X166370000Y-100965000D03*
X166370000Y-95885000D03*
X163830000Y-100965000D03*
X163830000Y-95885000D03*
X161290000Y-100965000D03*
X161290000Y-95885000D03*
X158750000Y-100965000D03*
X158750000Y-95885000D03*
X156210000Y-100965000D03*
X156210000Y-95885000D03*
X153670000Y-100965000D03*
X153670000Y-95885000D03*
X135890000Y-100965000D03*
X135890000Y-95885000D03*
X133350000Y-100965000D03*
X133350000Y-95885000D03*
X130810000Y-100965000D03*
X130810000Y-95885000D03*
X128270000Y-100965000D03*
X128270000Y-95885000D03*
X125730000Y-100965000D03*
X125730000Y-95885000D03*
X123190000Y-100965000D03*
X123190000Y-95885000D03*
X120650000Y-100965000D03*
X120650000Y-95885000D03*
X171450000Y-123825000D03*
X171450000Y-118745000D03*
X168910000Y-123825000D03*
X168910000Y-118745000D03*
X166370000Y-123825000D03*
X166370000Y-118745000D03*
X163830000Y-123825000D03*
X163830000Y-118745000D03*
X161290000Y-123825000D03*
X161290000Y-118745000D03*
X158750000Y-123825000D03*
X158750000Y-118745000D03*
X156210000Y-123825000D03*
X156210000Y-118745000D03*
X153670000Y-123825000D03*
X153670000Y-118745000D03*
X135890000Y-123825000D03*
X135890000Y-118745000D03*
X133350000Y-123825000D03*
X133350000Y-118745000D03*
X130810000Y-123825000D03*
X130810000Y-118745000D03*
X128270000Y-123825000D03*
X128270000Y-118745000D03*
X125730000Y-123825000D03*
X125730000Y-118745000D03*
X123190000Y-123825000D03*
X123190000Y-118745000D03*
X120650000Y-123825000D03*
X120650000Y-118745000D03*
X118110000Y-123825000D03*
X118110000Y-118745000D03*
X118110000Y-100965000D03*
X118110000Y-95885000D03*
D34*
X198755000Y-94970600D03*
X203835000Y-94970600D03*
M02*
