G04 #@! TF.FileFunction,Legend,Top*
%FSLAX46Y46*%
G04 Gerber Fmt 4.6, Leading zero omitted, Abs format (unit mm)*
G04 Created by KiCad (PCBNEW 0.201602281447+6595~42~ubuntu14.04.1-product) date Thu 03 Mar 2016 10:52:18 AM EST*
%MOMM*%
G01*
G04 APERTURE LIST*
%ADD10C,0.100000*%
%ADD11C,0.254000*%
%ADD12C,0.381000*%
%ADD13C,0.190500*%
%ADD14C,0.635000*%
%ADD15C,0.228600*%
%ADD16O,1.524000X2.032000*%
%ADD17O,2.032000X1.524000*%
%ADD18O,1.524000X2.540000*%
%ADD19C,1.930400*%
%ADD20O,4.572000X3.556000*%
%ADD21O,4.064000X5.080000*%
%ADD22O,5.080000X3.556000*%
%ADD23O,5.080000X3.048000*%
%ADD24R,1.016000X4.495800*%
%ADD25C,3.759200*%
%ADD26O,2.540000X1.524000*%
%ADD27O,1.651000X2.159000*%
%ADD28R,4.191000X1.778000*%
%ADD29C,1.600200*%
%ADD30R,5.029200X2.997200*%
%ADD31R,1.778000X4.191000*%
%ADD32R,2.997200X5.029200*%
G04 APERTURE END LIST*
D10*
D11*
X206622953Y-120722571D02*
X207397048Y-120722571D01*
X200272953Y-120722571D02*
X201047048Y-120722571D01*
X200660000Y-121109619D02*
X200660000Y-120335524D01*
X201651810Y-116283619D02*
X201168001Y-116283619D01*
X201168001Y-115267619D01*
X201990477Y-116283619D02*
X201990477Y-115606286D01*
X201990477Y-115267619D02*
X201942096Y-115316000D01*
X201990477Y-115364381D01*
X202038858Y-115316000D01*
X201990477Y-115267619D01*
X201990477Y-115364381D01*
X202909715Y-115606286D02*
X202909715Y-116428762D01*
X202861334Y-116525524D01*
X202812953Y-116573905D01*
X202716192Y-116622286D01*
X202571049Y-116622286D01*
X202474287Y-116573905D01*
X202909715Y-116235238D02*
X202812953Y-116283619D01*
X202619430Y-116283619D01*
X202522668Y-116235238D01*
X202474287Y-116186857D01*
X202425906Y-116090095D01*
X202425906Y-115799810D01*
X202474287Y-115703048D01*
X202522668Y-115654667D01*
X202619430Y-115606286D01*
X202812953Y-115606286D01*
X202909715Y-115654667D01*
X203393525Y-116283619D02*
X203393525Y-115267619D01*
X203828953Y-116283619D02*
X203828953Y-115751429D01*
X203780572Y-115654667D01*
X203683810Y-115606286D01*
X203538668Y-115606286D01*
X203441906Y-115654667D01*
X203393525Y-115703048D01*
X204167620Y-115606286D02*
X204554668Y-115606286D01*
X204312763Y-115267619D02*
X204312763Y-116138476D01*
X204361144Y-116235238D01*
X204457906Y-116283619D01*
X204554668Y-116283619D01*
X204844953Y-116235238D02*
X204941715Y-116283619D01*
X205135239Y-116283619D01*
X205232000Y-116235238D01*
X205280381Y-116138476D01*
X205280381Y-116090095D01*
X205232000Y-115993333D01*
X205135239Y-115944952D01*
X204990096Y-115944952D01*
X204893334Y-115896571D01*
X204844953Y-115799810D01*
X204844953Y-115751429D01*
X204893334Y-115654667D01*
X204990096Y-115606286D01*
X205135239Y-115606286D01*
X205232000Y-115654667D01*
D12*
X200097571Y-118091857D02*
X200315285Y-118164429D01*
X200678142Y-118164429D01*
X200823285Y-118091857D01*
X200895856Y-118019286D01*
X200968428Y-117874143D01*
X200968428Y-117729000D01*
X200895856Y-117583857D01*
X200823285Y-117511286D01*
X200678142Y-117438714D01*
X200387856Y-117366143D01*
X200242714Y-117293571D01*
X200170142Y-117221000D01*
X200097571Y-117075857D01*
X200097571Y-116930714D01*
X200170142Y-116785571D01*
X200242714Y-116713000D01*
X200387856Y-116640429D01*
X200750714Y-116640429D01*
X200968428Y-116713000D01*
X202202143Y-118091857D02*
X202057000Y-118164429D01*
X201766714Y-118164429D01*
X201621571Y-118091857D01*
X201549000Y-117946714D01*
X201549000Y-117366143D01*
X201621571Y-117221000D01*
X201766714Y-117148429D01*
X202057000Y-117148429D01*
X202202143Y-117221000D01*
X202274714Y-117366143D01*
X202274714Y-117511286D01*
X201549000Y-117656429D01*
X202927857Y-118164429D02*
X202927857Y-117148429D01*
X202927857Y-117438714D02*
X203000429Y-117293571D01*
X203073000Y-117221000D01*
X203218143Y-117148429D01*
X203363286Y-117148429D01*
X203871286Y-118164429D02*
X203871286Y-117148429D01*
X203871286Y-116640429D02*
X203798715Y-116713000D01*
X203871286Y-116785571D01*
X203943858Y-116713000D01*
X203871286Y-116640429D01*
X203871286Y-116785571D01*
X205250143Y-118164429D02*
X205250143Y-117366143D01*
X205177572Y-117221000D01*
X205032429Y-117148429D01*
X204742143Y-117148429D01*
X204597000Y-117221000D01*
X205250143Y-118091857D02*
X205105000Y-118164429D01*
X204742143Y-118164429D01*
X204597000Y-118091857D01*
X204524429Y-117946714D01*
X204524429Y-117801571D01*
X204597000Y-117656429D01*
X204742143Y-117583857D01*
X205105000Y-117583857D01*
X205250143Y-117511286D01*
X206193571Y-118164429D02*
X206048429Y-118091857D01*
X205975857Y-117946714D01*
X205975857Y-116640429D01*
X206629000Y-116640429D02*
X207572429Y-116640429D01*
X207064429Y-117221000D01*
X207282143Y-117221000D01*
X207427286Y-117293571D01*
X207499857Y-117366143D01*
X207572429Y-117511286D01*
X207572429Y-117874143D01*
X207499857Y-118019286D01*
X207427286Y-118091857D01*
X207282143Y-118164429D01*
X206846715Y-118164429D01*
X206701572Y-118091857D01*
X206629000Y-118019286D01*
X198101857Y-88827429D02*
X198174429Y-88609715D01*
X198174429Y-88246858D01*
X198101857Y-88101715D01*
X198029286Y-88029144D01*
X197884143Y-87956572D01*
X197739000Y-87956572D01*
X197593857Y-88029144D01*
X197521286Y-88101715D01*
X197448714Y-88246858D01*
X197376143Y-88537144D01*
X197303571Y-88682286D01*
X197231000Y-88754858D01*
X197085857Y-88827429D01*
X196940714Y-88827429D01*
X196795571Y-88754858D01*
X196723000Y-88682286D01*
X196650429Y-88537144D01*
X196650429Y-88174286D01*
X196723000Y-87956572D01*
X198101857Y-86722857D02*
X198174429Y-86868000D01*
X198174429Y-87158286D01*
X198101857Y-87303429D01*
X197956714Y-87376000D01*
X197376143Y-87376000D01*
X197231000Y-87303429D01*
X197158429Y-87158286D01*
X197158429Y-86868000D01*
X197231000Y-86722857D01*
X197376143Y-86650286D01*
X197521286Y-86650286D01*
X197666429Y-87376000D01*
X198174429Y-85997143D02*
X197158429Y-85997143D01*
X197448714Y-85997143D02*
X197303571Y-85924571D01*
X197231000Y-85852000D01*
X197158429Y-85706857D01*
X197158429Y-85561714D01*
X198174429Y-85053714D02*
X197158429Y-85053714D01*
X196650429Y-85053714D02*
X196723000Y-85126285D01*
X196795571Y-85053714D01*
X196723000Y-84981142D01*
X196650429Y-85053714D01*
X196795571Y-85053714D01*
X198174429Y-83674857D02*
X197376143Y-83674857D01*
X197231000Y-83747428D01*
X197158429Y-83892571D01*
X197158429Y-84182857D01*
X197231000Y-84328000D01*
X198101857Y-83674857D02*
X198174429Y-83820000D01*
X198174429Y-84182857D01*
X198101857Y-84328000D01*
X197956714Y-84400571D01*
X197811571Y-84400571D01*
X197666429Y-84328000D01*
X197593857Y-84182857D01*
X197593857Y-83820000D01*
X197521286Y-83674857D01*
X198174429Y-82731429D02*
X198101857Y-82876571D01*
X197956714Y-82949143D01*
X196650429Y-82949143D01*
X196795571Y-82223428D02*
X196723000Y-82150857D01*
X196650429Y-82005714D01*
X196650429Y-81642857D01*
X196723000Y-81497714D01*
X196795571Y-81425143D01*
X196940714Y-81352571D01*
X197085857Y-81352571D01*
X197303571Y-81425143D01*
X198174429Y-82296000D01*
X198174429Y-81352571D01*
X200097571Y-77451857D02*
X200315285Y-77524429D01*
X200678142Y-77524429D01*
X200823285Y-77451857D01*
X200895856Y-77379286D01*
X200968428Y-77234143D01*
X200968428Y-77089000D01*
X200895856Y-76943857D01*
X200823285Y-76871286D01*
X200678142Y-76798714D01*
X200387856Y-76726143D01*
X200242714Y-76653571D01*
X200170142Y-76581000D01*
X200097571Y-76435857D01*
X200097571Y-76290714D01*
X200170142Y-76145571D01*
X200242714Y-76073000D01*
X200387856Y-76000429D01*
X200750714Y-76000429D01*
X200968428Y-76073000D01*
X202202143Y-77451857D02*
X202057000Y-77524429D01*
X201766714Y-77524429D01*
X201621571Y-77451857D01*
X201549000Y-77306714D01*
X201549000Y-76726143D01*
X201621571Y-76581000D01*
X201766714Y-76508429D01*
X202057000Y-76508429D01*
X202202143Y-76581000D01*
X202274714Y-76726143D01*
X202274714Y-76871286D01*
X201549000Y-77016429D01*
X202927857Y-77524429D02*
X202927857Y-76508429D01*
X202927857Y-76798714D02*
X203000429Y-76653571D01*
X203073000Y-76581000D01*
X203218143Y-76508429D01*
X203363286Y-76508429D01*
X203871286Y-77524429D02*
X203871286Y-76508429D01*
X203871286Y-76000429D02*
X203798715Y-76073000D01*
X203871286Y-76145571D01*
X203943858Y-76073000D01*
X203871286Y-76000429D01*
X203871286Y-76145571D01*
X205250143Y-77524429D02*
X205250143Y-76726143D01*
X205177572Y-76581000D01*
X205032429Y-76508429D01*
X204742143Y-76508429D01*
X204597000Y-76581000D01*
X205250143Y-77451857D02*
X205105000Y-77524429D01*
X204742143Y-77524429D01*
X204597000Y-77451857D01*
X204524429Y-77306714D01*
X204524429Y-77161571D01*
X204597000Y-77016429D01*
X204742143Y-76943857D01*
X205105000Y-76943857D01*
X205250143Y-76871286D01*
X206193571Y-77524429D02*
X206048429Y-77451857D01*
X205975857Y-77306714D01*
X205975857Y-76000429D01*
X207572429Y-77524429D02*
X206701572Y-77524429D01*
X207137000Y-77524429D02*
X207137000Y-76000429D01*
X206991857Y-76218143D01*
X206846715Y-76363286D01*
X206701572Y-76435857D01*
X107296857Y-88827429D02*
X107369429Y-88609715D01*
X107369429Y-88246858D01*
X107296857Y-88101715D01*
X107224286Y-88029144D01*
X107079143Y-87956572D01*
X106934000Y-87956572D01*
X106788857Y-88029144D01*
X106716286Y-88101715D01*
X106643714Y-88246858D01*
X106571143Y-88537144D01*
X106498571Y-88682286D01*
X106426000Y-88754858D01*
X106280857Y-88827429D01*
X106135714Y-88827429D01*
X105990571Y-88754858D01*
X105918000Y-88682286D01*
X105845429Y-88537144D01*
X105845429Y-88174286D01*
X105918000Y-87956572D01*
X107296857Y-86722857D02*
X107369429Y-86868000D01*
X107369429Y-87158286D01*
X107296857Y-87303429D01*
X107151714Y-87376000D01*
X106571143Y-87376000D01*
X106426000Y-87303429D01*
X106353429Y-87158286D01*
X106353429Y-86868000D01*
X106426000Y-86722857D01*
X106571143Y-86650286D01*
X106716286Y-86650286D01*
X106861429Y-87376000D01*
X107369429Y-85997143D02*
X106353429Y-85997143D01*
X106643714Y-85997143D02*
X106498571Y-85924571D01*
X106426000Y-85852000D01*
X106353429Y-85706857D01*
X106353429Y-85561714D01*
X107369429Y-85053714D02*
X106353429Y-85053714D01*
X105845429Y-85053714D02*
X105918000Y-85126285D01*
X105990571Y-85053714D01*
X105918000Y-84981142D01*
X105845429Y-85053714D01*
X105990571Y-85053714D01*
X107369429Y-83674857D02*
X106571143Y-83674857D01*
X106426000Y-83747428D01*
X106353429Y-83892571D01*
X106353429Y-84182857D01*
X106426000Y-84328000D01*
X107296857Y-83674857D02*
X107369429Y-83820000D01*
X107369429Y-84182857D01*
X107296857Y-84328000D01*
X107151714Y-84400571D01*
X107006571Y-84400571D01*
X106861429Y-84328000D01*
X106788857Y-84182857D01*
X106788857Y-83820000D01*
X106716286Y-83674857D01*
X107369429Y-82731429D02*
X107296857Y-82876571D01*
X107151714Y-82949143D01*
X105845429Y-82949143D01*
X105845429Y-81860571D02*
X105845429Y-81715428D01*
X105918000Y-81570285D01*
X105990571Y-81497714D01*
X106135714Y-81425143D01*
X106426000Y-81352571D01*
X106788857Y-81352571D01*
X107079143Y-81425143D01*
X107224286Y-81497714D01*
X107296857Y-81570285D01*
X107369429Y-81715428D01*
X107369429Y-81860571D01*
X107296857Y-82005714D01*
X107224286Y-82078285D01*
X107079143Y-82150857D01*
X106788857Y-82223428D01*
X106426000Y-82223428D01*
X106135714Y-82150857D01*
X105990571Y-82078285D01*
X105918000Y-82005714D01*
X105845429Y-81860571D01*
D13*
X196505286Y-107732285D02*
X196469000Y-107695999D01*
X196432714Y-107623428D01*
X196432714Y-107441999D01*
X196469000Y-107369428D01*
X196505286Y-107333142D01*
X196577857Y-107296857D01*
X196650429Y-107296857D01*
X196759286Y-107333142D01*
X197194714Y-107768571D01*
X197194714Y-107296857D01*
X197122143Y-106970285D02*
X197158429Y-106934000D01*
X197194714Y-106970285D01*
X197158429Y-107006571D01*
X197122143Y-106970285D01*
X197194714Y-106970285D01*
X196432714Y-106244571D02*
X196432714Y-106607428D01*
X196795571Y-106643714D01*
X196759286Y-106607428D01*
X196723000Y-106534857D01*
X196723000Y-106353428D01*
X196759286Y-106280857D01*
X196795571Y-106244571D01*
X196868143Y-106208286D01*
X197049571Y-106208286D01*
X197122143Y-106244571D01*
X197158429Y-106280857D01*
X197194714Y-106353428D01*
X197194714Y-106534857D01*
X197158429Y-106607428D01*
X197122143Y-106643714D01*
X197194714Y-105954286D02*
X196686714Y-105555143D01*
X196686714Y-105954286D02*
X197194714Y-105555143D01*
X196432714Y-104902000D02*
X196432714Y-105264857D01*
X196795571Y-105301143D01*
X196759286Y-105264857D01*
X196723000Y-105192286D01*
X196723000Y-105010857D01*
X196759286Y-104938286D01*
X196795571Y-104902000D01*
X196868143Y-104865715D01*
X197049571Y-104865715D01*
X197122143Y-104902000D01*
X197158429Y-104938286D01*
X197194714Y-105010857D01*
X197194714Y-105192286D01*
X197158429Y-105264857D01*
X197122143Y-105301143D01*
X197122143Y-104539143D02*
X197158429Y-104502858D01*
X197194714Y-104539143D01*
X197158429Y-104575429D01*
X197122143Y-104539143D01*
X197194714Y-104539143D01*
X196432714Y-103813429D02*
X196432714Y-104176286D01*
X196795571Y-104212572D01*
X196759286Y-104176286D01*
X196723000Y-104103715D01*
X196723000Y-103922286D01*
X196759286Y-103849715D01*
X196795571Y-103813429D01*
X196868143Y-103777144D01*
X197049571Y-103777144D01*
X197122143Y-103813429D01*
X197158429Y-103849715D01*
X197194714Y-103922286D01*
X197194714Y-104103715D01*
X197158429Y-104176286D01*
X197122143Y-104212572D01*
X197122143Y-102434573D02*
X197158429Y-102470859D01*
X197194714Y-102579716D01*
X197194714Y-102652287D01*
X197158429Y-102761144D01*
X197085857Y-102833716D01*
X197013286Y-102870001D01*
X196868143Y-102906287D01*
X196759286Y-102906287D01*
X196614143Y-102870001D01*
X196541571Y-102833716D01*
X196469000Y-102761144D01*
X196432714Y-102652287D01*
X196432714Y-102579716D01*
X196469000Y-102470859D01*
X196505286Y-102434573D01*
X197158429Y-101817716D02*
X197194714Y-101890287D01*
X197194714Y-102035430D01*
X197158429Y-102108001D01*
X197085857Y-102144287D01*
X196795571Y-102144287D01*
X196723000Y-102108001D01*
X196686714Y-102035430D01*
X196686714Y-101890287D01*
X196723000Y-101817716D01*
X196795571Y-101781430D01*
X196868143Y-101781430D01*
X196940714Y-102144287D01*
X196686714Y-101454858D02*
X197194714Y-101454858D01*
X196759286Y-101454858D02*
X196723000Y-101418573D01*
X196686714Y-101346001D01*
X196686714Y-101237144D01*
X196723000Y-101164573D01*
X196795571Y-101128287D01*
X197194714Y-101128287D01*
X196686714Y-100874287D02*
X196686714Y-100584001D01*
X196432714Y-100765429D02*
X197085857Y-100765429D01*
X197158429Y-100729144D01*
X197194714Y-100656572D01*
X197194714Y-100584001D01*
X197158429Y-100039715D02*
X197194714Y-100112286D01*
X197194714Y-100257429D01*
X197158429Y-100330000D01*
X197085857Y-100366286D01*
X196795571Y-100366286D01*
X196723000Y-100330000D01*
X196686714Y-100257429D01*
X196686714Y-100112286D01*
X196723000Y-100039715D01*
X196795571Y-100003429D01*
X196868143Y-100003429D01*
X196940714Y-100366286D01*
X197194714Y-99676857D02*
X196686714Y-99676857D01*
X196831857Y-99676857D02*
X196759286Y-99640572D01*
X196723000Y-99604286D01*
X196686714Y-99531715D01*
X196686714Y-99459143D01*
X196904429Y-98624572D02*
X196904429Y-98044001D01*
X197194714Y-98334287D02*
X196614143Y-98334287D01*
D14*
X113332381Y-94796429D02*
X115267619Y-94796429D01*
X138732381Y-94796429D02*
X140667619Y-94796429D01*
X113332381Y-82096429D02*
X115267619Y-82096429D01*
X114300000Y-83064048D02*
X114300000Y-81128810D01*
X138732381Y-82096429D02*
X140667619Y-82096429D01*
X139700000Y-83064048D02*
X139700000Y-81128810D01*
X174292381Y-94796429D02*
X176227619Y-94796429D01*
X148892381Y-94796429D02*
X150827619Y-94796429D01*
X148892381Y-82096429D02*
X150827619Y-82096429D01*
X149860000Y-83064048D02*
X149860000Y-81128810D01*
X174292381Y-82096429D02*
X176227619Y-82096429D01*
X175260000Y-83064048D02*
X175260000Y-81128810D01*
X113332381Y-117656429D02*
X115267619Y-117656429D01*
X174292381Y-117656429D02*
X176227619Y-117656429D01*
X148892381Y-117656429D02*
X150827619Y-117656429D01*
X148892381Y-104956429D02*
X150827619Y-104956429D01*
X149860000Y-105924048D02*
X149860000Y-103988810D01*
X174292381Y-104956429D02*
X176227619Y-104956429D01*
X175260000Y-105924048D02*
X175260000Y-103988810D01*
X113332381Y-104956429D02*
X115267619Y-104956429D01*
X114300000Y-105924048D02*
X114300000Y-103988810D01*
D12*
X169599429Y-82023857D02*
X169599429Y-82894714D01*
X169599429Y-82459286D02*
X168075429Y-82459286D01*
X168293143Y-82604429D01*
X168438286Y-82749571D01*
X168510857Y-82894714D01*
X165680571Y-82894714D02*
X165608000Y-82822143D01*
X165535429Y-82677000D01*
X165535429Y-82314143D01*
X165608000Y-82169000D01*
X165680571Y-82096429D01*
X165825714Y-82023857D01*
X165970857Y-82023857D01*
X166188571Y-82096429D01*
X167059429Y-82967286D01*
X167059429Y-82023857D01*
X162995429Y-82967286D02*
X162995429Y-82023857D01*
X163576000Y-82531857D01*
X163576000Y-82314143D01*
X163648571Y-82169000D01*
X163721143Y-82096429D01*
X163866286Y-82023857D01*
X164229143Y-82023857D01*
X164374286Y-82096429D01*
X164446857Y-82169000D01*
X164519429Y-82314143D01*
X164519429Y-82749571D01*
X164446857Y-82894714D01*
X164374286Y-82967286D01*
X160963429Y-82169000D02*
X161979429Y-82169000D01*
X160382857Y-82531857D02*
X161471429Y-82894714D01*
X161471429Y-81951286D01*
X157915429Y-82096429D02*
X157915429Y-82822143D01*
X158641143Y-82894714D01*
X158568571Y-82822143D01*
X158496000Y-82677000D01*
X158496000Y-82314143D01*
X158568571Y-82169000D01*
X158641143Y-82096429D01*
X158786286Y-82023857D01*
X159149143Y-82023857D01*
X159294286Y-82096429D01*
X159366857Y-82169000D01*
X159439429Y-82314143D01*
X159439429Y-82677000D01*
X159366857Y-82822143D01*
X159294286Y-82894714D01*
X155375429Y-82169000D02*
X155375429Y-82459286D01*
X155448000Y-82604429D01*
X155520571Y-82677000D01*
X155738286Y-82822143D01*
X156028571Y-82894714D01*
X156609143Y-82894714D01*
X156754286Y-82822143D01*
X156826857Y-82749571D01*
X156899429Y-82604429D01*
X156899429Y-82314143D01*
X156826857Y-82169000D01*
X156754286Y-82096429D01*
X156609143Y-82023857D01*
X156246286Y-82023857D01*
X156101143Y-82096429D01*
X156028571Y-82169000D01*
X155956000Y-82314143D01*
X155956000Y-82604429D01*
X156028571Y-82749571D01*
X156101143Y-82822143D01*
X156246286Y-82894714D01*
X152835429Y-82967286D02*
X152835429Y-81951286D01*
X154359429Y-82604429D01*
X135708571Y-81969429D02*
X135636000Y-82114571D01*
X135563429Y-82187143D01*
X135418286Y-82259714D01*
X135345714Y-82259714D01*
X135200571Y-82187143D01*
X135128000Y-82114571D01*
X135055429Y-81969429D01*
X135055429Y-81679143D01*
X135128000Y-81534000D01*
X135200571Y-81461429D01*
X135345714Y-81388857D01*
X135418286Y-81388857D01*
X135563429Y-81461429D01*
X135636000Y-81534000D01*
X135708571Y-81679143D01*
X135708571Y-81969429D01*
X135781143Y-82114571D01*
X135853714Y-82187143D01*
X135998857Y-82259714D01*
X136289143Y-82259714D01*
X136434286Y-82187143D01*
X136506857Y-82114571D01*
X136579429Y-81969429D01*
X136579429Y-81679143D01*
X136506857Y-81534000D01*
X136434286Y-81461429D01*
X136289143Y-81388857D01*
X135998857Y-81388857D01*
X135853714Y-81461429D01*
X135781143Y-81534000D01*
X135708571Y-81679143D01*
X134039429Y-82749571D02*
X134039429Y-82459286D01*
X133966857Y-82314143D01*
X133894286Y-82241571D01*
X133676571Y-82096429D01*
X133386286Y-82023857D01*
X132805714Y-82023857D01*
X132660571Y-82096429D01*
X132588000Y-82169000D01*
X132515429Y-82314143D01*
X132515429Y-82604429D01*
X132588000Y-82749571D01*
X132660571Y-82822143D01*
X132805714Y-82894714D01*
X133168571Y-82894714D01*
X133313714Y-82822143D01*
X133386286Y-82749571D01*
X133458857Y-82604429D01*
X133458857Y-82314143D01*
X133386286Y-82169000D01*
X133313714Y-82096429D01*
X133168571Y-82023857D01*
X131499429Y-82023857D02*
X131499429Y-82894714D01*
X131499429Y-82459286D02*
X129975429Y-82459286D01*
X130193143Y-82604429D01*
X130338286Y-82749571D01*
X130410857Y-82894714D01*
X129975429Y-81080428D02*
X129975429Y-80935285D01*
X130048000Y-80790142D01*
X130120571Y-80717571D01*
X130265714Y-80645000D01*
X130556000Y-80572428D01*
X130918857Y-80572428D01*
X131209143Y-80645000D01*
X131354286Y-80717571D01*
X131426857Y-80790142D01*
X131499429Y-80935285D01*
X131499429Y-81080428D01*
X131426857Y-81225571D01*
X131354286Y-81298142D01*
X131209143Y-81370714D01*
X130918857Y-81443285D01*
X130556000Y-81443285D01*
X130265714Y-81370714D01*
X130120571Y-81298142D01*
X130048000Y-81225571D01*
X129975429Y-81080428D01*
X128959429Y-82023857D02*
X128959429Y-82894714D01*
X128959429Y-82459286D02*
X127435429Y-82459286D01*
X127653143Y-82604429D01*
X127798286Y-82749571D01*
X127870857Y-82894714D01*
X128959429Y-80572428D02*
X128959429Y-81443285D01*
X128959429Y-81007857D02*
X127435429Y-81007857D01*
X127653143Y-81153000D01*
X127798286Y-81298142D01*
X127870857Y-81443285D01*
X126419429Y-82023857D02*
X126419429Y-82894714D01*
X126419429Y-82459286D02*
X124895429Y-82459286D01*
X125113143Y-82604429D01*
X125258286Y-82749571D01*
X125330857Y-82894714D01*
X125040571Y-81443285D02*
X124968000Y-81370714D01*
X124895429Y-81225571D01*
X124895429Y-80862714D01*
X124968000Y-80717571D01*
X125040571Y-80645000D01*
X125185714Y-80572428D01*
X125330857Y-80572428D01*
X125548571Y-80645000D01*
X126419429Y-81515857D01*
X126419429Y-80572428D01*
X123879429Y-82023857D02*
X123879429Y-82894714D01*
X123879429Y-82459286D02*
X122355429Y-82459286D01*
X122573143Y-82604429D01*
X122718286Y-82749571D01*
X122790857Y-82894714D01*
X122355429Y-81515857D02*
X122355429Y-80572428D01*
X122936000Y-81080428D01*
X122936000Y-80862714D01*
X123008571Y-80717571D01*
X123081143Y-80645000D01*
X123226286Y-80572428D01*
X123589143Y-80572428D01*
X123734286Y-80645000D01*
X123806857Y-80717571D01*
X123879429Y-80862714D01*
X123879429Y-81298142D01*
X123806857Y-81443285D01*
X123734286Y-81515857D01*
X121339429Y-82023857D02*
X121339429Y-82894714D01*
X121339429Y-82459286D02*
X119815429Y-82459286D01*
X120033143Y-82604429D01*
X120178286Y-82749571D01*
X120250857Y-82894714D01*
X120323429Y-80717571D02*
X121339429Y-80717571D01*
X119742857Y-81080428D02*
X120831429Y-81443285D01*
X120831429Y-80499857D01*
X118799429Y-82023857D02*
X118799429Y-82894714D01*
X118799429Y-82459286D02*
X117275429Y-82459286D01*
X117493143Y-82604429D01*
X117638286Y-82749571D01*
X117710857Y-82894714D01*
X117275429Y-80645000D02*
X117275429Y-81370714D01*
X118001143Y-81443285D01*
X117928571Y-81370714D01*
X117856000Y-81225571D01*
X117856000Y-80862714D01*
X117928571Y-80717571D01*
X118001143Y-80645000D01*
X118146286Y-80572428D01*
X118509143Y-80572428D01*
X118654286Y-80645000D01*
X118726857Y-80717571D01*
X118799429Y-80862714D01*
X118799429Y-81225571D01*
X118726857Y-81370714D01*
X118654286Y-81443285D01*
X170615429Y-81896857D02*
X170615429Y-81751714D01*
X170688000Y-81606571D01*
X170760571Y-81534000D01*
X170905714Y-81461429D01*
X171196000Y-81388857D01*
X171558857Y-81388857D01*
X171849143Y-81461429D01*
X171994286Y-81534000D01*
X172066857Y-81606571D01*
X172139429Y-81751714D01*
X172139429Y-81896857D01*
X172066857Y-82042000D01*
X171994286Y-82114571D01*
X171849143Y-82187143D01*
X171558857Y-82259714D01*
X171196000Y-82259714D01*
X170905714Y-82187143D01*
X170760571Y-82114571D01*
X170688000Y-82042000D01*
X170615429Y-81896857D01*
X167059429Y-104883857D02*
X167059429Y-105754714D01*
X167059429Y-105319286D02*
X165535429Y-105319286D01*
X165753143Y-105464429D01*
X165898286Y-105609571D01*
X165970857Y-105754714D01*
X166188571Y-104013000D02*
X166116000Y-104158142D01*
X166043429Y-104230714D01*
X165898286Y-104303285D01*
X165825714Y-104303285D01*
X165680571Y-104230714D01*
X165608000Y-104158142D01*
X165535429Y-104013000D01*
X165535429Y-103722714D01*
X165608000Y-103577571D01*
X165680571Y-103505000D01*
X165825714Y-103432428D01*
X165898286Y-103432428D01*
X166043429Y-103505000D01*
X166116000Y-103577571D01*
X166188571Y-103722714D01*
X166188571Y-104013000D01*
X166261143Y-104158142D01*
X166333714Y-104230714D01*
X166478857Y-104303285D01*
X166769143Y-104303285D01*
X166914286Y-104230714D01*
X166986857Y-104158142D01*
X167059429Y-104013000D01*
X167059429Y-103722714D01*
X166986857Y-103577571D01*
X166914286Y-103505000D01*
X166769143Y-103432428D01*
X166478857Y-103432428D01*
X166333714Y-103505000D01*
X166261143Y-103577571D01*
X166188571Y-103722714D01*
X164519429Y-104883857D02*
X164519429Y-105754714D01*
X164519429Y-105319286D02*
X162995429Y-105319286D01*
X163213143Y-105464429D01*
X163358286Y-105609571D01*
X163430857Y-105754714D01*
X164519429Y-104158142D02*
X164519429Y-103867857D01*
X164446857Y-103722714D01*
X164374286Y-103650142D01*
X164156571Y-103505000D01*
X163866286Y-103432428D01*
X163285714Y-103432428D01*
X163140571Y-103505000D01*
X163068000Y-103577571D01*
X162995429Y-103722714D01*
X162995429Y-104013000D01*
X163068000Y-104158142D01*
X163140571Y-104230714D01*
X163285714Y-104303285D01*
X163648571Y-104303285D01*
X163793714Y-104230714D01*
X163866286Y-104158142D01*
X163938857Y-104013000D01*
X163938857Y-103722714D01*
X163866286Y-103577571D01*
X163793714Y-103505000D01*
X163648571Y-103432428D01*
X160600571Y-105754714D02*
X160528000Y-105682143D01*
X160455429Y-105537000D01*
X160455429Y-105174143D01*
X160528000Y-105029000D01*
X160600571Y-104956429D01*
X160745714Y-104883857D01*
X160890857Y-104883857D01*
X161108571Y-104956429D01*
X161979429Y-105827286D01*
X161979429Y-104883857D01*
X160455429Y-103940428D02*
X160455429Y-103795285D01*
X160528000Y-103650142D01*
X160600571Y-103577571D01*
X160745714Y-103505000D01*
X161036000Y-103432428D01*
X161398857Y-103432428D01*
X161689143Y-103505000D01*
X161834286Y-103577571D01*
X161906857Y-103650142D01*
X161979429Y-103795285D01*
X161979429Y-103940428D01*
X161906857Y-104085571D01*
X161834286Y-104158142D01*
X161689143Y-104230714D01*
X161398857Y-104303285D01*
X161036000Y-104303285D01*
X160745714Y-104230714D01*
X160600571Y-104158142D01*
X160528000Y-104085571D01*
X160455429Y-103940428D01*
X158060571Y-105754714D02*
X157988000Y-105682143D01*
X157915429Y-105537000D01*
X157915429Y-105174143D01*
X157988000Y-105029000D01*
X158060571Y-104956429D01*
X158205714Y-104883857D01*
X158350857Y-104883857D01*
X158568571Y-104956429D01*
X159439429Y-105827286D01*
X159439429Y-104883857D01*
X159439429Y-103432428D02*
X159439429Y-104303285D01*
X159439429Y-103867857D02*
X157915429Y-103867857D01*
X158133143Y-104013000D01*
X158278286Y-104158142D01*
X158350857Y-104303285D01*
X155520571Y-105754714D02*
X155448000Y-105682143D01*
X155375429Y-105537000D01*
X155375429Y-105174143D01*
X155448000Y-105029000D01*
X155520571Y-104956429D01*
X155665714Y-104883857D01*
X155810857Y-104883857D01*
X156028571Y-104956429D01*
X156899429Y-105827286D01*
X156899429Y-104883857D01*
X155520571Y-104303285D02*
X155448000Y-104230714D01*
X155375429Y-104085571D01*
X155375429Y-103722714D01*
X155448000Y-103577571D01*
X155520571Y-103505000D01*
X155665714Y-103432428D01*
X155810857Y-103432428D01*
X156028571Y-103505000D01*
X156899429Y-104375857D01*
X156899429Y-103432428D01*
X152980571Y-105754714D02*
X152908000Y-105682143D01*
X152835429Y-105537000D01*
X152835429Y-105174143D01*
X152908000Y-105029000D01*
X152980571Y-104956429D01*
X153125714Y-104883857D01*
X153270857Y-104883857D01*
X153488571Y-104956429D01*
X154359429Y-105827286D01*
X154359429Y-104883857D01*
X152835429Y-104375857D02*
X152835429Y-103432428D01*
X153416000Y-103940428D01*
X153416000Y-103722714D01*
X153488571Y-103577571D01*
X153561143Y-103505000D01*
X153706286Y-103432428D01*
X154069143Y-103432428D01*
X154214286Y-103505000D01*
X154286857Y-103577571D01*
X154359429Y-103722714D01*
X154359429Y-104158142D01*
X154286857Y-104303285D01*
X154214286Y-104375857D01*
X135200571Y-105119714D02*
X135128000Y-105047143D01*
X135055429Y-104902000D01*
X135055429Y-104539143D01*
X135128000Y-104394000D01*
X135200571Y-104321429D01*
X135345714Y-104248857D01*
X135490857Y-104248857D01*
X135708571Y-104321429D01*
X136579429Y-105192286D01*
X136579429Y-104248857D01*
X135563429Y-102942571D02*
X136579429Y-102942571D01*
X134982857Y-103305428D02*
X136071429Y-103668285D01*
X136071429Y-102724857D01*
X132660571Y-105754714D02*
X132588000Y-105682143D01*
X132515429Y-105537000D01*
X132515429Y-105174143D01*
X132588000Y-105029000D01*
X132660571Y-104956429D01*
X132805714Y-104883857D01*
X132950857Y-104883857D01*
X133168571Y-104956429D01*
X134039429Y-105827286D01*
X134039429Y-104883857D01*
X132515429Y-103505000D02*
X132515429Y-104230714D01*
X133241143Y-104303285D01*
X133168571Y-104230714D01*
X133096000Y-104085571D01*
X133096000Y-103722714D01*
X133168571Y-103577571D01*
X133241143Y-103505000D01*
X133386286Y-103432428D01*
X133749143Y-103432428D01*
X133894286Y-103505000D01*
X133966857Y-103577571D01*
X134039429Y-103722714D01*
X134039429Y-104085571D01*
X133966857Y-104230714D01*
X133894286Y-104303285D01*
X130120571Y-105754714D02*
X130048000Y-105682143D01*
X129975429Y-105537000D01*
X129975429Y-105174143D01*
X130048000Y-105029000D01*
X130120571Y-104956429D01*
X130265714Y-104883857D01*
X130410857Y-104883857D01*
X130628571Y-104956429D01*
X131499429Y-105827286D01*
X131499429Y-104883857D01*
X129975429Y-103577571D02*
X129975429Y-103867857D01*
X130048000Y-104013000D01*
X130120571Y-104085571D01*
X130338286Y-104230714D01*
X130628571Y-104303285D01*
X131209143Y-104303285D01*
X131354286Y-104230714D01*
X131426857Y-104158142D01*
X131499429Y-104013000D01*
X131499429Y-103722714D01*
X131426857Y-103577571D01*
X131354286Y-103505000D01*
X131209143Y-103432428D01*
X130846286Y-103432428D01*
X130701143Y-103505000D01*
X130628571Y-103577571D01*
X130556000Y-103722714D01*
X130556000Y-104013000D01*
X130628571Y-104158142D01*
X130701143Y-104230714D01*
X130846286Y-104303285D01*
X127580571Y-105754714D02*
X127508000Y-105682143D01*
X127435429Y-105537000D01*
X127435429Y-105174143D01*
X127508000Y-105029000D01*
X127580571Y-104956429D01*
X127725714Y-104883857D01*
X127870857Y-104883857D01*
X128088571Y-104956429D01*
X128959429Y-105827286D01*
X128959429Y-104883857D01*
X127435429Y-104375857D02*
X127435429Y-103359857D01*
X128959429Y-104013000D01*
X125040571Y-105754714D02*
X124968000Y-105682143D01*
X124895429Y-105537000D01*
X124895429Y-105174143D01*
X124968000Y-105029000D01*
X125040571Y-104956429D01*
X125185714Y-104883857D01*
X125330857Y-104883857D01*
X125548571Y-104956429D01*
X126419429Y-105827286D01*
X126419429Y-104883857D01*
X125548571Y-104013000D02*
X125476000Y-104158142D01*
X125403429Y-104230714D01*
X125258286Y-104303285D01*
X125185714Y-104303285D01*
X125040571Y-104230714D01*
X124968000Y-104158142D01*
X124895429Y-104013000D01*
X124895429Y-103722714D01*
X124968000Y-103577571D01*
X125040571Y-103505000D01*
X125185714Y-103432428D01*
X125258286Y-103432428D01*
X125403429Y-103505000D01*
X125476000Y-103577571D01*
X125548571Y-103722714D01*
X125548571Y-104013000D01*
X125621143Y-104158142D01*
X125693714Y-104230714D01*
X125838857Y-104303285D01*
X126129143Y-104303285D01*
X126274286Y-104230714D01*
X126346857Y-104158142D01*
X126419429Y-104013000D01*
X126419429Y-103722714D01*
X126346857Y-103577571D01*
X126274286Y-103505000D01*
X126129143Y-103432428D01*
X125838857Y-103432428D01*
X125693714Y-103505000D01*
X125621143Y-103577571D01*
X125548571Y-103722714D01*
X122500571Y-105754714D02*
X122428000Y-105682143D01*
X122355429Y-105537000D01*
X122355429Y-105174143D01*
X122428000Y-105029000D01*
X122500571Y-104956429D01*
X122645714Y-104883857D01*
X122790857Y-104883857D01*
X123008571Y-104956429D01*
X123879429Y-105827286D01*
X123879429Y-104883857D01*
X123879429Y-104158142D02*
X123879429Y-103867857D01*
X123806857Y-103722714D01*
X123734286Y-103650142D01*
X123516571Y-103505000D01*
X123226286Y-103432428D01*
X122645714Y-103432428D01*
X122500571Y-103505000D01*
X122428000Y-103577571D01*
X122355429Y-103722714D01*
X122355429Y-104013000D01*
X122428000Y-104158142D01*
X122500571Y-104230714D01*
X122645714Y-104303285D01*
X123008571Y-104303285D01*
X123153714Y-104230714D01*
X123226286Y-104158142D01*
X123298857Y-104013000D01*
X123298857Y-103722714D01*
X123226286Y-103577571D01*
X123153714Y-103505000D01*
X123008571Y-103432428D01*
X119815429Y-105827286D02*
X119815429Y-104883857D01*
X120396000Y-105391857D01*
X120396000Y-105174143D01*
X120468571Y-105029000D01*
X120541143Y-104956429D01*
X120686286Y-104883857D01*
X121049143Y-104883857D01*
X121194286Y-104956429D01*
X121266857Y-105029000D01*
X121339429Y-105174143D01*
X121339429Y-105609571D01*
X121266857Y-105754714D01*
X121194286Y-105827286D01*
X119815429Y-103940428D02*
X119815429Y-103795285D01*
X119888000Y-103650142D01*
X119960571Y-103577571D01*
X120105714Y-103505000D01*
X120396000Y-103432428D01*
X120758857Y-103432428D01*
X121049143Y-103505000D01*
X121194286Y-103577571D01*
X121266857Y-103650142D01*
X121339429Y-103795285D01*
X121339429Y-103940428D01*
X121266857Y-104085571D01*
X121194286Y-104158142D01*
X121049143Y-104230714D01*
X120758857Y-104303285D01*
X120396000Y-104303285D01*
X120105714Y-104230714D01*
X119960571Y-104158142D01*
X119888000Y-104085571D01*
X119815429Y-103940428D01*
X117275429Y-105827286D02*
X117275429Y-104883857D01*
X117856000Y-105391857D01*
X117856000Y-105174143D01*
X117928571Y-105029000D01*
X118001143Y-104956429D01*
X118146286Y-104883857D01*
X118509143Y-104883857D01*
X118654286Y-104956429D01*
X118726857Y-105029000D01*
X118799429Y-105174143D01*
X118799429Y-105609571D01*
X118726857Y-105754714D01*
X118654286Y-105827286D01*
X118799429Y-103432428D02*
X118799429Y-104303285D01*
X118799429Y-103867857D02*
X117275429Y-103867857D01*
X117493143Y-104013000D01*
X117638286Y-104158142D01*
X117710857Y-104303285D01*
X169599429Y-104883857D02*
X169599429Y-105754714D01*
X169599429Y-105319286D02*
X168075429Y-105319286D01*
X168293143Y-105464429D01*
X168438286Y-105609571D01*
X168510857Y-105754714D01*
X168075429Y-104375857D02*
X168075429Y-103359857D01*
X169599429Y-104013000D01*
X172139429Y-104248857D02*
X172139429Y-105119714D01*
X172139429Y-104684286D02*
X170615429Y-104684286D01*
X170833143Y-104829429D01*
X170978286Y-104974571D01*
X171050857Y-105119714D01*
X170615429Y-102942571D02*
X170615429Y-103232857D01*
X170688000Y-103378000D01*
X170760571Y-103450571D01*
X170978286Y-103595714D01*
X171268571Y-103668285D01*
X171849143Y-103668285D01*
X171994286Y-103595714D01*
X172066857Y-103523142D01*
X172139429Y-103378000D01*
X172139429Y-103087714D01*
X172066857Y-102942571D01*
X171994286Y-102870000D01*
X171849143Y-102797428D01*
X171486286Y-102797428D01*
X171341143Y-102870000D01*
X171268571Y-102942571D01*
X171196000Y-103087714D01*
X171196000Y-103378000D01*
X171268571Y-103523142D01*
X171341143Y-103595714D01*
X171486286Y-103668285D01*
D14*
X138732381Y-117656429D02*
X140667619Y-117656429D01*
X138732381Y-104956429D02*
X140667619Y-104956429D01*
X139700000Y-105924048D02*
X139700000Y-103988810D01*
D15*
X211455000Y-75311000D02*
X93345000Y-75311000D01*
X211455000Y-130429000D02*
X211455000Y-75311000D01*
X93345000Y-130429000D02*
X211455000Y-130429000D01*
X93345000Y-75311000D02*
X93345000Y-130429000D01*
D11*
X96979619Y-115563952D02*
X96979619Y-116144523D01*
X96979619Y-115854237D02*
X95963619Y-115854237D01*
X96108762Y-115950999D01*
X96205524Y-116047761D01*
X96253905Y-116144523D01*
X96060381Y-115176904D02*
X96012000Y-115128523D01*
X95963619Y-115031761D01*
X95963619Y-114789857D01*
X96012000Y-114693095D01*
X96060381Y-114644714D01*
X96157143Y-114596333D01*
X96253905Y-114596333D01*
X96399048Y-114644714D01*
X96979619Y-115225285D01*
X96979619Y-114596333D01*
X95963619Y-114306047D02*
X96979619Y-113967380D01*
X95963619Y-113628714D01*
X197853905Y-96592571D02*
X198628000Y-96592571D01*
X198240952Y-96979619D02*
X198240952Y-96205524D01*
X199063429Y-96060381D02*
X199111810Y-96012000D01*
X199208572Y-95963619D01*
X199450476Y-95963619D01*
X199547238Y-96012000D01*
X199595619Y-96060381D01*
X199644000Y-96157143D01*
X199644000Y-96253905D01*
X199595619Y-96399048D01*
X199015048Y-96979619D01*
X199644000Y-96979619D01*
X200514857Y-96302286D02*
X200514857Y-96979619D01*
X200272953Y-95915238D02*
X200031048Y-96640952D01*
X200660000Y-96640952D01*
X200901905Y-95963619D02*
X201240572Y-96979619D01*
X201579238Y-95963619D01*
X201917905Y-96979619D02*
X201917905Y-95963619D01*
X202159810Y-95963619D01*
X202304952Y-96012000D01*
X202401714Y-96108762D01*
X202450095Y-96205524D01*
X202498476Y-96399048D01*
X202498476Y-96544190D01*
X202450095Y-96737714D01*
X202401714Y-96834476D01*
X202304952Y-96931238D01*
X202159810Y-96979619D01*
X201917905Y-96979619D01*
X203514476Y-96882857D02*
X203466095Y-96931238D01*
X203320952Y-96979619D01*
X203224190Y-96979619D01*
X203079048Y-96931238D01*
X202982286Y-96834476D01*
X202933905Y-96737714D01*
X202885524Y-96544190D01*
X202885524Y-96399048D01*
X202933905Y-96205524D01*
X202982286Y-96108762D01*
X203079048Y-96012000D01*
X203224190Y-95963619D01*
X203320952Y-95963619D01*
X203466095Y-96012000D01*
X203514476Y-96060381D01*
D13*
X189054619Y-120287142D02*
X188038619Y-120287142D01*
X189054619Y-119851714D02*
X188522429Y-119851714D01*
X188425667Y-119900095D01*
X188377286Y-119996857D01*
X188377286Y-120141999D01*
X188425667Y-120238761D01*
X188474048Y-120287142D01*
X188377286Y-119513047D02*
X188377286Y-119125999D01*
X188038619Y-119367904D02*
X188909476Y-119367904D01*
X189006238Y-119319523D01*
X189054619Y-119222761D01*
X189054619Y-119125999D01*
X188377286Y-118932476D02*
X188377286Y-118545428D01*
X188038619Y-118787333D02*
X188909476Y-118787333D01*
X189006238Y-118738952D01*
X189054619Y-118642190D01*
X189054619Y-118545428D01*
X188377286Y-118206762D02*
X189393286Y-118206762D01*
X188425667Y-118206762D02*
X188377286Y-118110000D01*
X188377286Y-117916477D01*
X188425667Y-117819715D01*
X188474048Y-117771334D01*
X188570810Y-117722953D01*
X188861095Y-117722953D01*
X188957857Y-117771334D01*
X189006238Y-117819715D01*
X189054619Y-117916477D01*
X189054619Y-118110000D01*
X189006238Y-118206762D01*
X189006238Y-117335905D02*
X189054619Y-117239143D01*
X189054619Y-117045619D01*
X189006238Y-116948858D01*
X188909476Y-116900477D01*
X188861095Y-116900477D01*
X188764333Y-116948858D01*
X188715952Y-117045619D01*
X188715952Y-117190762D01*
X188667571Y-117287524D01*
X188570810Y-117335905D01*
X188522429Y-117335905D01*
X188425667Y-117287524D01*
X188377286Y-117190762D01*
X188377286Y-117045619D01*
X188425667Y-116948858D01*
X188957857Y-116465048D02*
X189006238Y-116416667D01*
X189054619Y-116465048D01*
X189006238Y-116513429D01*
X188957857Y-116465048D01*
X189054619Y-116465048D01*
X188425667Y-116465048D02*
X188474048Y-116416667D01*
X188522429Y-116465048D01*
X188474048Y-116513429D01*
X188425667Y-116465048D01*
X188522429Y-116465048D01*
X187990238Y-115255524D02*
X189296524Y-116126381D01*
X187990238Y-114191143D02*
X189296524Y-115062000D01*
X188377286Y-113417048D02*
X189199762Y-113417048D01*
X189296524Y-113465429D01*
X189344905Y-113513810D01*
X189393286Y-113610571D01*
X189393286Y-113755714D01*
X189344905Y-113852476D01*
X189006238Y-113417048D02*
X189054619Y-113513810D01*
X189054619Y-113707333D01*
X189006238Y-113804095D01*
X188957857Y-113852476D01*
X188861095Y-113900857D01*
X188570810Y-113900857D01*
X188474048Y-113852476D01*
X188425667Y-113804095D01*
X188377286Y-113707333D01*
X188377286Y-113513810D01*
X188425667Y-113417048D01*
X189054619Y-112933238D02*
X188377286Y-112933238D01*
X188038619Y-112933238D02*
X188087000Y-112981619D01*
X188135381Y-112933238D01*
X188087000Y-112884857D01*
X188038619Y-112933238D01*
X188135381Y-112933238D01*
X188377286Y-112594571D02*
X188377286Y-112207523D01*
X188038619Y-112449428D02*
X188909476Y-112449428D01*
X189006238Y-112401047D01*
X189054619Y-112304285D01*
X189054619Y-112207523D01*
X189054619Y-111868857D02*
X188038619Y-111868857D01*
X189054619Y-111433429D02*
X188522429Y-111433429D01*
X188425667Y-111481810D01*
X188377286Y-111578572D01*
X188377286Y-111723714D01*
X188425667Y-111820476D01*
X188474048Y-111868857D01*
X188377286Y-110514191D02*
X189054619Y-110514191D01*
X188377286Y-110949619D02*
X188909476Y-110949619D01*
X189006238Y-110901238D01*
X189054619Y-110804476D01*
X189054619Y-110659334D01*
X189006238Y-110562572D01*
X188957857Y-110514191D01*
X189054619Y-110030381D02*
X188038619Y-110030381D01*
X188425667Y-110030381D02*
X188377286Y-109933619D01*
X188377286Y-109740096D01*
X188425667Y-109643334D01*
X188474048Y-109594953D01*
X188570810Y-109546572D01*
X188861095Y-109546572D01*
X188957857Y-109594953D01*
X189006238Y-109643334D01*
X189054619Y-109740096D01*
X189054619Y-109933619D01*
X189006238Y-110030381D01*
X188957857Y-109111143D02*
X189006238Y-109062762D01*
X189054619Y-109111143D01*
X189006238Y-109159524D01*
X188957857Y-109111143D01*
X189054619Y-109111143D01*
X189006238Y-108191905D02*
X189054619Y-108288667D01*
X189054619Y-108482190D01*
X189006238Y-108578952D01*
X188957857Y-108627333D01*
X188861095Y-108675714D01*
X188570810Y-108675714D01*
X188474048Y-108627333D01*
X188425667Y-108578952D01*
X188377286Y-108482190D01*
X188377286Y-108288667D01*
X188425667Y-108191905D01*
X189054619Y-107611333D02*
X189006238Y-107708095D01*
X188957857Y-107756476D01*
X188861095Y-107804857D01*
X188570810Y-107804857D01*
X188474048Y-107756476D01*
X188425667Y-107708095D01*
X188377286Y-107611333D01*
X188377286Y-107466191D01*
X188425667Y-107369429D01*
X188474048Y-107321048D01*
X188570810Y-107272667D01*
X188861095Y-107272667D01*
X188957857Y-107321048D01*
X189006238Y-107369429D01*
X189054619Y-107466191D01*
X189054619Y-107611333D01*
X189054619Y-106837238D02*
X188377286Y-106837238D01*
X188474048Y-106837238D02*
X188425667Y-106788857D01*
X188377286Y-106692095D01*
X188377286Y-106546953D01*
X188425667Y-106450191D01*
X188522429Y-106401810D01*
X189054619Y-106401810D01*
X188522429Y-106401810D02*
X188425667Y-106353429D01*
X188377286Y-106256667D01*
X188377286Y-106111524D01*
X188425667Y-106014762D01*
X188522429Y-105966381D01*
X189054619Y-105966381D01*
X187990238Y-104756857D02*
X189296524Y-105627714D01*
X188377286Y-104418190D02*
X189248143Y-104418190D01*
X189344905Y-104466571D01*
X189393286Y-104563333D01*
X189393286Y-104611714D01*
X188038619Y-104418190D02*
X188087000Y-104466571D01*
X188135381Y-104418190D01*
X188087000Y-104369809D01*
X188038619Y-104418190D01*
X188135381Y-104418190D01*
X189054619Y-103498952D02*
X188522429Y-103498952D01*
X188425667Y-103547333D01*
X188377286Y-103644095D01*
X188377286Y-103837618D01*
X188425667Y-103934380D01*
X189006238Y-103498952D02*
X189054619Y-103595714D01*
X189054619Y-103837618D01*
X189006238Y-103934380D01*
X188909476Y-103982761D01*
X188812714Y-103982761D01*
X188715952Y-103934380D01*
X188667571Y-103837618D01*
X188667571Y-103595714D01*
X188619190Y-103498952D01*
X188377286Y-103015142D02*
X189054619Y-103015142D01*
X188474048Y-103015142D02*
X188425667Y-102966761D01*
X188377286Y-102869999D01*
X188377286Y-102724857D01*
X188425667Y-102628095D01*
X188522429Y-102579714D01*
X189054619Y-102579714D01*
X189006238Y-101708857D02*
X189054619Y-101805619D01*
X189054619Y-101999142D01*
X189006238Y-102095904D01*
X188909476Y-102144285D01*
X188522429Y-102144285D01*
X188425667Y-102095904D01*
X188377286Y-101999142D01*
X188377286Y-101805619D01*
X188425667Y-101708857D01*
X188522429Y-101660476D01*
X188619190Y-101660476D01*
X188715952Y-102144285D01*
X189054619Y-101079904D02*
X189006238Y-101176666D01*
X188909476Y-101225047D01*
X188038619Y-101225047D01*
X189054619Y-100692857D02*
X188377286Y-100692857D01*
X188038619Y-100692857D02*
X188087000Y-100741238D01*
X188135381Y-100692857D01*
X188087000Y-100644476D01*
X188038619Y-100692857D01*
X188135381Y-100692857D01*
X189054619Y-99773619D02*
X188522429Y-99773619D01*
X188425667Y-99822000D01*
X188377286Y-99918762D01*
X188377286Y-100112285D01*
X188425667Y-100209047D01*
X189006238Y-99773619D02*
X189054619Y-99870381D01*
X189054619Y-100112285D01*
X189006238Y-100209047D01*
X188909476Y-100257428D01*
X188812714Y-100257428D01*
X188715952Y-100209047D01*
X188667571Y-100112285D01*
X188667571Y-99870381D01*
X188619190Y-99773619D01*
X188667571Y-99289809D02*
X188667571Y-98515714D01*
X189054619Y-98031904D02*
X188377286Y-98031904D01*
X188474048Y-98031904D02*
X188425667Y-97983523D01*
X188377286Y-97886761D01*
X188377286Y-97741619D01*
X188425667Y-97644857D01*
X188522429Y-97596476D01*
X189054619Y-97596476D01*
X188522429Y-97596476D02*
X188425667Y-97548095D01*
X188377286Y-97451333D01*
X188377286Y-97306190D01*
X188425667Y-97209428D01*
X188522429Y-97161047D01*
X189054619Y-97161047D01*
X189054619Y-96532094D02*
X189006238Y-96628856D01*
X188957857Y-96677237D01*
X188861095Y-96725618D01*
X188570810Y-96725618D01*
X188474048Y-96677237D01*
X188425667Y-96628856D01*
X188377286Y-96532094D01*
X188377286Y-96386952D01*
X188425667Y-96290190D01*
X188474048Y-96241809D01*
X188570810Y-96193428D01*
X188861095Y-96193428D01*
X188957857Y-96241809D01*
X189006238Y-96290190D01*
X189054619Y-96386952D01*
X189054619Y-96532094D01*
X189054619Y-95322571D02*
X188038619Y-95322571D01*
X189006238Y-95322571D02*
X189054619Y-95419333D01*
X189054619Y-95612856D01*
X189006238Y-95709618D01*
X188957857Y-95757999D01*
X188861095Y-95806380D01*
X188570810Y-95806380D01*
X188474048Y-95757999D01*
X188425667Y-95709618D01*
X188377286Y-95612856D01*
X188377286Y-95419333D01*
X188425667Y-95322571D01*
X188377286Y-94403333D02*
X189054619Y-94403333D01*
X188377286Y-94838761D02*
X188909476Y-94838761D01*
X189006238Y-94790380D01*
X189054619Y-94693618D01*
X189054619Y-94548476D01*
X189006238Y-94451714D01*
X188957857Y-94403333D01*
X189054619Y-93774380D02*
X189006238Y-93871142D01*
X188909476Y-93919523D01*
X188038619Y-93919523D01*
X189054619Y-92951905D02*
X188522429Y-92951905D01*
X188425667Y-93000286D01*
X188377286Y-93097048D01*
X188377286Y-93290571D01*
X188425667Y-93387333D01*
X189006238Y-92951905D02*
X189054619Y-93048667D01*
X189054619Y-93290571D01*
X189006238Y-93387333D01*
X188909476Y-93435714D01*
X188812714Y-93435714D01*
X188715952Y-93387333D01*
X188667571Y-93290571D01*
X188667571Y-93048667D01*
X188619190Y-92951905D01*
X189054619Y-92468095D02*
X188377286Y-92468095D01*
X188570810Y-92468095D02*
X188474048Y-92419714D01*
X188425667Y-92371333D01*
X188377286Y-92274571D01*
X188377286Y-92177810D01*
X188667571Y-91839143D02*
X188667571Y-91065048D01*
X189054619Y-90145810D02*
X188038619Y-90145810D01*
X189006238Y-90145810D02*
X189054619Y-90242572D01*
X189054619Y-90436095D01*
X189006238Y-90532857D01*
X188957857Y-90581238D01*
X188861095Y-90629619D01*
X188570810Y-90629619D01*
X188474048Y-90581238D01*
X188425667Y-90532857D01*
X188377286Y-90436095D01*
X188377286Y-90242572D01*
X188425667Y-90145810D01*
X189006238Y-89274953D02*
X189054619Y-89371715D01*
X189054619Y-89565238D01*
X189006238Y-89662000D01*
X188909476Y-89710381D01*
X188522429Y-89710381D01*
X188425667Y-89662000D01*
X188377286Y-89565238D01*
X188377286Y-89371715D01*
X188425667Y-89274953D01*
X188522429Y-89226572D01*
X188619190Y-89226572D01*
X188715952Y-89710381D01*
X188377286Y-88887905D02*
X189054619Y-88646000D01*
X188377286Y-88404096D01*
X189054619Y-88017048D02*
X188377286Y-88017048D01*
X188038619Y-88017048D02*
X188087000Y-88065429D01*
X188135381Y-88017048D01*
X188087000Y-87968667D01*
X188038619Y-88017048D01*
X188135381Y-88017048D01*
X189006238Y-87097810D02*
X189054619Y-87194572D01*
X189054619Y-87388095D01*
X189006238Y-87484857D01*
X188957857Y-87533238D01*
X188861095Y-87581619D01*
X188570810Y-87581619D01*
X188474048Y-87533238D01*
X188425667Y-87484857D01*
X188377286Y-87388095D01*
X188377286Y-87194572D01*
X188425667Y-87097810D01*
X189006238Y-86275334D02*
X189054619Y-86372096D01*
X189054619Y-86565619D01*
X189006238Y-86662381D01*
X188909476Y-86710762D01*
X188522429Y-86710762D01*
X188425667Y-86662381D01*
X188377286Y-86565619D01*
X188377286Y-86372096D01*
X188425667Y-86275334D01*
X188522429Y-86226953D01*
X188619190Y-86226953D01*
X188715952Y-86710762D01*
X189006238Y-85839905D02*
X189054619Y-85743143D01*
X189054619Y-85549619D01*
X189006238Y-85452858D01*
X188909476Y-85404477D01*
X188861095Y-85404477D01*
X188764333Y-85452858D01*
X188715952Y-85549619D01*
X188715952Y-85694762D01*
X188667571Y-85791524D01*
X188570810Y-85839905D01*
X188522429Y-85839905D01*
X188425667Y-85791524D01*
X188377286Y-85694762D01*
X188377286Y-85549619D01*
X188425667Y-85452858D01*
D11*
X95147190Y-120119019D02*
X95147190Y-120844733D01*
X95098810Y-120989876D01*
X95002048Y-121086638D01*
X94856905Y-121135019D01*
X94760143Y-121135019D01*
X96066428Y-121135019D02*
X96066428Y-120602829D01*
X96018047Y-120506067D01*
X95921285Y-120457686D01*
X95727762Y-120457686D01*
X95631000Y-120506067D01*
X96066428Y-121086638D02*
X95969666Y-121135019D01*
X95727762Y-121135019D01*
X95631000Y-121086638D01*
X95582619Y-120989876D01*
X95582619Y-120893114D01*
X95631000Y-120796352D01*
X95727762Y-120747971D01*
X95969666Y-120747971D01*
X96066428Y-120699590D01*
X96550238Y-120457686D02*
X96550238Y-121135019D01*
X96550238Y-120554448D02*
X96598619Y-120506067D01*
X96695381Y-120457686D01*
X96840523Y-120457686D01*
X96937285Y-120506067D01*
X96985666Y-120602829D01*
X96985666Y-121135019D01*
X97856523Y-121086638D02*
X97759761Y-121135019D01*
X97566238Y-121135019D01*
X97469476Y-121086638D01*
X97421095Y-120989876D01*
X97421095Y-120602829D01*
X97469476Y-120506067D01*
X97566238Y-120457686D01*
X97759761Y-120457686D01*
X97856523Y-120506067D01*
X97904904Y-120602829D01*
X97904904Y-120699590D01*
X97421095Y-120796352D01*
X98485476Y-121135019D02*
X98388714Y-121086638D01*
X98340333Y-120989876D01*
X98340333Y-120119019D01*
X98872523Y-121135019D02*
X98872523Y-120457686D01*
X98872523Y-120119019D02*
X98824142Y-120167400D01*
X98872523Y-120215781D01*
X98920904Y-120167400D01*
X98872523Y-120119019D01*
X98872523Y-120215781D01*
X99791761Y-121135019D02*
X99791761Y-120602829D01*
X99743380Y-120506067D01*
X99646618Y-120457686D01*
X99453095Y-120457686D01*
X99356333Y-120506067D01*
X99791761Y-121086638D02*
X99694999Y-121135019D01*
X99453095Y-121135019D01*
X99356333Y-121086638D01*
X99307952Y-120989876D01*
X99307952Y-120893114D01*
X99356333Y-120796352D01*
X99453095Y-120747971D01*
X99694999Y-120747971D01*
X99791761Y-120699590D01*
X101049666Y-121135019D02*
X101049666Y-120119019D01*
X101388332Y-120844733D01*
X101726999Y-120119019D01*
X101726999Y-121135019D01*
X102355952Y-121135019D02*
X102259190Y-121086638D01*
X102210809Y-121038257D01*
X102162428Y-120941495D01*
X102162428Y-120651210D01*
X102210809Y-120554448D01*
X102259190Y-120506067D01*
X102355952Y-120457686D01*
X102501094Y-120457686D01*
X102597856Y-120506067D01*
X102646237Y-120554448D01*
X102694618Y-120651210D01*
X102694618Y-120941495D01*
X102646237Y-121038257D01*
X102597856Y-121086638D01*
X102501094Y-121135019D01*
X102355952Y-121135019D01*
X103565475Y-121135019D02*
X103565475Y-120119019D01*
X103565475Y-121086638D02*
X103468713Y-121135019D01*
X103275190Y-121135019D01*
X103178428Y-121086638D01*
X103130047Y-121038257D01*
X103081666Y-120941495D01*
X103081666Y-120651210D01*
X103130047Y-120554448D01*
X103178428Y-120506067D01*
X103275190Y-120457686D01*
X103468713Y-120457686D01*
X103565475Y-120506067D01*
X104484713Y-120457686D02*
X104484713Y-121135019D01*
X104049285Y-120457686D02*
X104049285Y-120989876D01*
X104097666Y-121086638D01*
X104194428Y-121135019D01*
X104339570Y-121135019D01*
X104436332Y-121086638D01*
X104484713Y-121038257D01*
X105113666Y-121135019D02*
X105016904Y-121086638D01*
X104968523Y-120989876D01*
X104968523Y-120119019D01*
X105936141Y-121135019D02*
X105936141Y-120602829D01*
X105887760Y-120506067D01*
X105790998Y-120457686D01*
X105597475Y-120457686D01*
X105500713Y-120506067D01*
X105936141Y-121086638D02*
X105839379Y-121135019D01*
X105597475Y-121135019D01*
X105500713Y-121086638D01*
X105452332Y-120989876D01*
X105452332Y-120893114D01*
X105500713Y-120796352D01*
X105597475Y-120747971D01*
X105839379Y-120747971D01*
X105936141Y-120699590D01*
X106419951Y-121135019D02*
X106419951Y-120457686D01*
X106419951Y-120651210D02*
X106468332Y-120554448D01*
X106516713Y-120506067D01*
X106613475Y-120457686D01*
X106710236Y-120457686D01*
X107822998Y-121135019D02*
X107822998Y-120119019D01*
X108064903Y-120119019D01*
X108210045Y-120167400D01*
X108306807Y-120264162D01*
X108355188Y-120360924D01*
X108403569Y-120554448D01*
X108403569Y-120699590D01*
X108355188Y-120893114D01*
X108306807Y-120989876D01*
X108210045Y-121086638D01*
X108064903Y-121135019D01*
X107822998Y-121135019D01*
X109226045Y-121086638D02*
X109129283Y-121135019D01*
X108935760Y-121135019D01*
X108838998Y-121086638D01*
X108790617Y-120989876D01*
X108790617Y-120602829D01*
X108838998Y-120506067D01*
X108935760Y-120457686D01*
X109129283Y-120457686D01*
X109226045Y-120506067D01*
X109274426Y-120602829D01*
X109274426Y-120699590D01*
X108790617Y-120796352D01*
X109613093Y-120457686D02*
X109854998Y-121135019D01*
X110096902Y-120457686D01*
X110483950Y-121135019D02*
X110483950Y-120457686D01*
X110483950Y-120119019D02*
X110435569Y-120167400D01*
X110483950Y-120215781D01*
X110532331Y-120167400D01*
X110483950Y-120119019D01*
X110483950Y-120215781D01*
X111403188Y-121086638D02*
X111306426Y-121135019D01*
X111112903Y-121135019D01*
X111016141Y-121086638D01*
X110967760Y-121038257D01*
X110919379Y-120941495D01*
X110919379Y-120651210D01*
X110967760Y-120554448D01*
X111016141Y-120506067D01*
X111112903Y-120457686D01*
X111306426Y-120457686D01*
X111403188Y-120506067D01*
X112225664Y-121086638D02*
X112128902Y-121135019D01*
X111935379Y-121135019D01*
X111838617Y-121086638D01*
X111790236Y-120989876D01*
X111790236Y-120602829D01*
X111838617Y-120506067D01*
X111935379Y-120457686D01*
X112128902Y-120457686D01*
X112225664Y-120506067D01*
X112274045Y-120602829D01*
X112274045Y-120699590D01*
X111790236Y-120796352D01*
X94856905Y-122134086D02*
X94856905Y-123150086D01*
X94856905Y-122182467D02*
X94953667Y-122134086D01*
X95147190Y-122134086D01*
X95243952Y-122182467D01*
X95292333Y-122230848D01*
X95340714Y-122327610D01*
X95340714Y-122617895D01*
X95292333Y-122714657D01*
X95243952Y-122763038D01*
X95147190Y-122811419D01*
X94953667Y-122811419D01*
X94856905Y-122763038D01*
X95921286Y-122811419D02*
X95824524Y-122763038D01*
X95776143Y-122714657D01*
X95727762Y-122617895D01*
X95727762Y-122327610D01*
X95776143Y-122230848D01*
X95824524Y-122182467D01*
X95921286Y-122134086D01*
X96066428Y-122134086D01*
X96163190Y-122182467D01*
X96211571Y-122230848D01*
X96259952Y-122327610D01*
X96259952Y-122617895D01*
X96211571Y-122714657D01*
X96163190Y-122763038D01*
X96066428Y-122811419D01*
X95921286Y-122811419D01*
X96598619Y-122134086D02*
X96792143Y-122811419D01*
X96985666Y-122327610D01*
X97179190Y-122811419D01*
X97372714Y-122134086D01*
X98146809Y-122763038D02*
X98050047Y-122811419D01*
X97856524Y-122811419D01*
X97759762Y-122763038D01*
X97711381Y-122666276D01*
X97711381Y-122279229D01*
X97759762Y-122182467D01*
X97856524Y-122134086D01*
X98050047Y-122134086D01*
X98146809Y-122182467D01*
X98195190Y-122279229D01*
X98195190Y-122375990D01*
X97711381Y-122472752D01*
X98630619Y-122811419D02*
X98630619Y-122134086D01*
X98630619Y-122327610D02*
X98679000Y-122230848D01*
X98727381Y-122182467D01*
X98824143Y-122134086D01*
X98920904Y-122134086D01*
X99017666Y-122908181D02*
X99791761Y-122908181D01*
X99985285Y-122763038D02*
X100082047Y-122811419D01*
X100275571Y-122811419D01*
X100372332Y-122763038D01*
X100420713Y-122666276D01*
X100420713Y-122617895D01*
X100372332Y-122521133D01*
X100275571Y-122472752D01*
X100130428Y-122472752D01*
X100033666Y-122424371D01*
X99985285Y-122327610D01*
X99985285Y-122279229D01*
X100033666Y-122182467D01*
X100130428Y-122134086D01*
X100275571Y-122134086D01*
X100372332Y-122182467D01*
X100759380Y-122134086D02*
X100952904Y-122811419D01*
X101146427Y-122327610D01*
X101339951Y-122811419D01*
X101533475Y-122134086D01*
X101920523Y-122811419D02*
X101920523Y-122134086D01*
X101920523Y-121795419D02*
X101872142Y-121843800D01*
X101920523Y-121892181D01*
X101968904Y-121843800D01*
X101920523Y-121795419D01*
X101920523Y-121892181D01*
X102259190Y-122134086D02*
X102646238Y-122134086D01*
X102404333Y-121795419D02*
X102404333Y-122666276D01*
X102452714Y-122763038D01*
X102549476Y-122811419D01*
X102646238Y-122811419D01*
X103420332Y-122763038D02*
X103323570Y-122811419D01*
X103130047Y-122811419D01*
X103033285Y-122763038D01*
X102984904Y-122714657D01*
X102936523Y-122617895D01*
X102936523Y-122327610D01*
X102984904Y-122230848D01*
X103033285Y-122182467D01*
X103130047Y-122134086D01*
X103323570Y-122134086D01*
X103420332Y-122182467D01*
X103855761Y-122811419D02*
X103855761Y-121795419D01*
X104291189Y-122811419D02*
X104291189Y-122279229D01*
X104242808Y-122182467D01*
X104146046Y-122134086D01*
X104000904Y-122134086D01*
X103904142Y-122182467D01*
X103855761Y-122230848D01*
X104533094Y-122908181D02*
X105307189Y-122908181D01*
X105984522Y-122763038D02*
X105887760Y-122811419D01*
X105694237Y-122811419D01*
X105597475Y-122763038D01*
X105549094Y-122714657D01*
X105500713Y-122617895D01*
X105500713Y-122327610D01*
X105549094Y-122230848D01*
X105597475Y-122182467D01*
X105694237Y-122134086D01*
X105887760Y-122134086D01*
X105984522Y-122182467D01*
X106565094Y-122811419D02*
X106468332Y-122763038D01*
X106419951Y-122714657D01*
X106371570Y-122617895D01*
X106371570Y-122327610D01*
X106419951Y-122230848D01*
X106468332Y-122182467D01*
X106565094Y-122134086D01*
X106710236Y-122134086D01*
X106806998Y-122182467D01*
X106855379Y-122230848D01*
X106903760Y-122327610D01*
X106903760Y-122617895D01*
X106855379Y-122714657D01*
X106806998Y-122763038D01*
X106710236Y-122811419D01*
X106565094Y-122811419D01*
X107339189Y-122134086D02*
X107339189Y-122811419D01*
X107339189Y-122230848D02*
X107387570Y-122182467D01*
X107484332Y-122134086D01*
X107629474Y-122134086D01*
X107726236Y-122182467D01*
X107774617Y-122279229D01*
X107774617Y-122811419D01*
X108113284Y-122134086D02*
X108500332Y-122134086D01*
X108258427Y-121795419D02*
X108258427Y-122666276D01*
X108306808Y-122763038D01*
X108403570Y-122811419D01*
X108500332Y-122811419D01*
X108838998Y-122811419D02*
X108838998Y-122134086D01*
X108838998Y-122327610D02*
X108887379Y-122230848D01*
X108935760Y-122182467D01*
X109032522Y-122134086D01*
X109129283Y-122134086D01*
X109613093Y-122811419D02*
X109516331Y-122763038D01*
X109467950Y-122714657D01*
X109419569Y-122617895D01*
X109419569Y-122327610D01*
X109467950Y-122230848D01*
X109516331Y-122182467D01*
X109613093Y-122134086D01*
X109758235Y-122134086D01*
X109854997Y-122182467D01*
X109903378Y-122230848D01*
X109951759Y-122327610D01*
X109951759Y-122617895D01*
X109903378Y-122714657D01*
X109854997Y-122763038D01*
X109758235Y-122811419D01*
X109613093Y-122811419D01*
X110532331Y-122811419D02*
X110435569Y-122763038D01*
X110387188Y-122666276D01*
X110387188Y-121795419D01*
X111064521Y-122811419D02*
X110967759Y-122763038D01*
X110919378Y-122666276D01*
X110919378Y-121795419D01*
X111838615Y-122763038D02*
X111741853Y-122811419D01*
X111548330Y-122811419D01*
X111451568Y-122763038D01*
X111403187Y-122666276D01*
X111403187Y-122279229D01*
X111451568Y-122182467D01*
X111548330Y-122134086D01*
X111741853Y-122134086D01*
X111838615Y-122182467D01*
X111886996Y-122279229D01*
X111886996Y-122375990D01*
X111403187Y-122472752D01*
X112322425Y-122811419D02*
X112322425Y-122134086D01*
X112322425Y-122327610D02*
X112370806Y-122230848D01*
X112419187Y-122182467D01*
X112515949Y-122134086D01*
X112612710Y-122134086D01*
X94856905Y-124487819D02*
X94856905Y-123810486D01*
X94856905Y-123907248D02*
X94905286Y-123858867D01*
X95002048Y-123810486D01*
X95147190Y-123810486D01*
X95243952Y-123858867D01*
X95292333Y-123955629D01*
X95292333Y-124487819D01*
X95292333Y-123955629D02*
X95340714Y-123858867D01*
X95437476Y-123810486D01*
X95582619Y-123810486D01*
X95679381Y-123858867D01*
X95727762Y-123955629D01*
X95727762Y-124487819D01*
X96356715Y-124487819D02*
X96259953Y-124439438D01*
X96211572Y-124391057D01*
X96163191Y-124294295D01*
X96163191Y-124004010D01*
X96211572Y-123907248D01*
X96259953Y-123858867D01*
X96356715Y-123810486D01*
X96501857Y-123810486D01*
X96598619Y-123858867D01*
X96647000Y-123907248D01*
X96695381Y-124004010D01*
X96695381Y-124294295D01*
X96647000Y-124391057D01*
X96598619Y-124439438D01*
X96501857Y-124487819D01*
X96356715Y-124487819D01*
X97566238Y-124487819D02*
X97566238Y-123471819D01*
X97566238Y-124439438D02*
X97469476Y-124487819D01*
X97275953Y-124487819D01*
X97179191Y-124439438D01*
X97130810Y-124391057D01*
X97082429Y-124294295D01*
X97082429Y-124004010D01*
X97130810Y-123907248D01*
X97179191Y-123858867D01*
X97275953Y-123810486D01*
X97469476Y-123810486D01*
X97566238Y-123858867D01*
X98437095Y-124439438D02*
X98340333Y-124487819D01*
X98146810Y-124487819D01*
X98050048Y-124439438D01*
X98001667Y-124342676D01*
X98001667Y-123955629D01*
X98050048Y-123858867D01*
X98146810Y-123810486D01*
X98340333Y-123810486D01*
X98437095Y-123858867D01*
X98485476Y-123955629D01*
X98485476Y-124052390D01*
X98001667Y-124149152D01*
X99066048Y-124487819D02*
X98969286Y-124439438D01*
X98920905Y-124342676D01*
X98920905Y-123471819D01*
X99211190Y-124584581D02*
X99985285Y-124584581D01*
X100227190Y-123810486D02*
X100227190Y-124487819D01*
X100227190Y-123907248D02*
X100275571Y-123858867D01*
X100372333Y-123810486D01*
X100517475Y-123810486D01*
X100614237Y-123858867D01*
X100662618Y-123955629D01*
X100662618Y-124487819D01*
X101581856Y-123810486D02*
X101581856Y-124487819D01*
X101146428Y-123810486D02*
X101146428Y-124342676D01*
X101194809Y-124439438D01*
X101291571Y-124487819D01*
X101436713Y-124487819D01*
X101533475Y-124439438D01*
X101581856Y-124391057D01*
X102065666Y-124487819D02*
X102065666Y-123810486D01*
X102065666Y-123907248D02*
X102114047Y-123858867D01*
X102210809Y-123810486D01*
X102355951Y-123810486D01*
X102452713Y-123858867D01*
X102501094Y-123955629D01*
X102501094Y-124487819D01*
X102501094Y-123955629D02*
X102549475Y-123858867D01*
X102646237Y-123810486D01*
X102791380Y-123810486D01*
X102888142Y-123858867D01*
X102936523Y-123955629D01*
X102936523Y-124487819D01*
X103420333Y-124487819D02*
X103420333Y-123471819D01*
X103420333Y-123858867D02*
X103517095Y-123810486D01*
X103710618Y-123810486D01*
X103807380Y-123858867D01*
X103855761Y-123907248D01*
X103904142Y-124004010D01*
X103904142Y-124294295D01*
X103855761Y-124391057D01*
X103807380Y-124439438D01*
X103710618Y-124487819D01*
X103517095Y-124487819D01*
X103420333Y-124439438D01*
X104726618Y-124439438D02*
X104629856Y-124487819D01*
X104436333Y-124487819D01*
X104339571Y-124439438D01*
X104291190Y-124342676D01*
X104291190Y-123955629D01*
X104339571Y-123858867D01*
X104436333Y-123810486D01*
X104629856Y-123810486D01*
X104726618Y-123858867D01*
X104774999Y-123955629D01*
X104774999Y-124052390D01*
X104291190Y-124149152D01*
X105210428Y-124487819D02*
X105210428Y-123810486D01*
X105210428Y-124004010D02*
X105258809Y-123907248D01*
X105307190Y-123858867D01*
X105403952Y-123810486D01*
X105500713Y-123810486D01*
X105839380Y-124391057D02*
X105887761Y-124439438D01*
X105839380Y-124487819D01*
X105790999Y-124439438D01*
X105839380Y-124391057D01*
X105839380Y-124487819D01*
X105839380Y-123858867D02*
X105887761Y-123907248D01*
X105839380Y-123955629D01*
X105790999Y-123907248D01*
X105839380Y-123858867D01*
X105839380Y-123955629D01*
X107629475Y-124487819D02*
X107048904Y-124487819D01*
X107339190Y-124487819D02*
X107339190Y-123471819D01*
X107242428Y-123616962D01*
X107145666Y-123713724D01*
X107048904Y-123762105D01*
X108597094Y-124487819D02*
X108016523Y-124487819D01*
X108306809Y-124487819D02*
X108306809Y-123471819D01*
X108210047Y-123616962D01*
X108113285Y-123713724D01*
X108016523Y-123762105D01*
X109564713Y-124487819D02*
X108984142Y-124487819D01*
X109274428Y-124487819D02*
X109274428Y-123471819D01*
X109177666Y-123616962D01*
X109080904Y-123713724D01*
X108984142Y-123762105D01*
X110193666Y-123471819D02*
X110290427Y-123471819D01*
X110387189Y-123520200D01*
X110435570Y-123568581D01*
X110483951Y-123665343D01*
X110532332Y-123858867D01*
X110532332Y-124100771D01*
X110483951Y-124294295D01*
X110435570Y-124391057D01*
X110387189Y-124439438D01*
X110290427Y-124487819D01*
X110193666Y-124487819D01*
X110096904Y-124439438D01*
X110048523Y-124391057D01*
X110000142Y-124294295D01*
X109951761Y-124100771D01*
X109951761Y-123858867D01*
X110000142Y-123665343D01*
X110048523Y-123568581D01*
X110096904Y-123520200D01*
X110193666Y-123471819D01*
X95050429Y-125148219D02*
X95147190Y-125148219D01*
X95243952Y-125196600D01*
X95292333Y-125244981D01*
X95340714Y-125341743D01*
X95389095Y-125535267D01*
X95389095Y-125777171D01*
X95340714Y-125970695D01*
X95292333Y-126067457D01*
X95243952Y-126115838D01*
X95147190Y-126164219D01*
X95050429Y-126164219D01*
X94953667Y-126115838D01*
X94905286Y-126067457D01*
X94856905Y-125970695D01*
X94808524Y-125777171D01*
X94808524Y-125535267D01*
X94856905Y-125341743D01*
X94905286Y-125244981D01*
X94953667Y-125196600D01*
X95050429Y-125148219D01*
X95727762Y-125148219D02*
X96356714Y-125148219D01*
X96018048Y-125535267D01*
X96163190Y-125535267D01*
X96259952Y-125583648D01*
X96308333Y-125632029D01*
X96356714Y-125728790D01*
X96356714Y-125970695D01*
X96308333Y-126067457D01*
X96259952Y-126115838D01*
X96163190Y-126164219D01*
X95872905Y-126164219D01*
X95776143Y-126115838D01*
X95727762Y-126067457D01*
X97517857Y-125099838D02*
X96647000Y-126406124D01*
X97808143Y-125244981D02*
X97856524Y-125196600D01*
X97953286Y-125148219D01*
X98195190Y-125148219D01*
X98291952Y-125196600D01*
X98340333Y-125244981D01*
X98388714Y-125341743D01*
X98388714Y-125438505D01*
X98340333Y-125583648D01*
X97759762Y-126164219D01*
X98388714Y-126164219D01*
X99017667Y-125148219D02*
X99114428Y-125148219D01*
X99211190Y-125196600D01*
X99259571Y-125244981D01*
X99307952Y-125341743D01*
X99356333Y-125535267D01*
X99356333Y-125777171D01*
X99307952Y-125970695D01*
X99259571Y-126067457D01*
X99211190Y-126115838D01*
X99114428Y-126164219D01*
X99017667Y-126164219D01*
X98920905Y-126115838D01*
X98872524Y-126067457D01*
X98824143Y-125970695D01*
X98775762Y-125777171D01*
X98775762Y-125535267D01*
X98824143Y-125341743D01*
X98872524Y-125244981D01*
X98920905Y-125196600D01*
X99017667Y-125148219D01*
X100323952Y-126164219D02*
X99743381Y-126164219D01*
X100033667Y-126164219D02*
X100033667Y-125148219D01*
X99936905Y-125293362D01*
X99840143Y-125390124D01*
X99743381Y-125438505D01*
X101194809Y-125148219D02*
X101001286Y-125148219D01*
X100904524Y-125196600D01*
X100856143Y-125244981D01*
X100759381Y-125390124D01*
X100711000Y-125583648D01*
X100711000Y-125970695D01*
X100759381Y-126067457D01*
X100807762Y-126115838D01*
X100904524Y-126164219D01*
X101098047Y-126164219D01*
X101194809Y-126115838D01*
X101243190Y-126067457D01*
X101291571Y-125970695D01*
X101291571Y-125728790D01*
X101243190Y-125632029D01*
X101194809Y-125583648D01*
X101098047Y-125535267D01*
X100904524Y-125535267D01*
X100807762Y-125583648D01*
X100759381Y-125632029D01*
X100711000Y-125728790D01*
X102404333Y-125486886D02*
X102646238Y-126164219D01*
X102888142Y-125486886D01*
X103662237Y-126115838D02*
X103565475Y-126164219D01*
X103371952Y-126164219D01*
X103275190Y-126115838D01*
X103226809Y-126019076D01*
X103226809Y-125632029D01*
X103275190Y-125535267D01*
X103371952Y-125486886D01*
X103565475Y-125486886D01*
X103662237Y-125535267D01*
X103710618Y-125632029D01*
X103710618Y-125728790D01*
X103226809Y-125825552D01*
X104146047Y-126164219D02*
X104146047Y-125486886D01*
X104146047Y-125680410D02*
X104194428Y-125583648D01*
X104242809Y-125535267D01*
X104339571Y-125486886D01*
X104436332Y-125486886D01*
X106081284Y-126164219D02*
X105500713Y-126164219D01*
X105790999Y-126164219D02*
X105790999Y-125148219D01*
X105694237Y-125293362D01*
X105597475Y-125390124D01*
X105500713Y-125438505D01*
X106516713Y-126067457D02*
X106565094Y-126115838D01*
X106516713Y-126164219D01*
X106468332Y-126115838D01*
X106516713Y-126067457D01*
X106516713Y-126164219D01*
X107484332Y-125148219D02*
X107000523Y-125148219D01*
X106952142Y-125632029D01*
X107000523Y-125583648D01*
X107097285Y-125535267D01*
X107339189Y-125535267D01*
X107435951Y-125583648D01*
X107484332Y-125632029D01*
X107532713Y-125728790D01*
X107532713Y-125970695D01*
X107484332Y-126067457D01*
X107435951Y-126115838D01*
X107339189Y-126164219D01*
X107097285Y-126164219D01*
X107000523Y-126115838D01*
X106952142Y-126067457D01*
D15*
X118618000Y-121793000D02*
X117602000Y-121793000D01*
X118110000Y-121285000D02*
X118110000Y-122301000D01*
X119380000Y-125095000D02*
X116840000Y-125095000D01*
X116840000Y-125095000D02*
X116840000Y-117475000D01*
X116840000Y-117475000D02*
X119380000Y-117475000D01*
X119380000Y-117475000D02*
X119380000Y-125095000D01*
X121158000Y-121793000D02*
X120142000Y-121793000D01*
X120650000Y-121285000D02*
X120650000Y-122301000D01*
X121920000Y-125095000D02*
X119380000Y-125095000D01*
X119380000Y-125095000D02*
X119380000Y-117475000D01*
X119380000Y-117475000D02*
X121920000Y-117475000D01*
X121920000Y-117475000D02*
X121920000Y-125095000D01*
X123698000Y-121793000D02*
X122682000Y-121793000D01*
X123190000Y-121285000D02*
X123190000Y-122301000D01*
X124460000Y-125095000D02*
X121920000Y-125095000D01*
X121920000Y-125095000D02*
X121920000Y-117475000D01*
X121920000Y-117475000D02*
X124460000Y-117475000D01*
X124460000Y-117475000D02*
X124460000Y-125095000D01*
X126238000Y-121793000D02*
X125222000Y-121793000D01*
X125730000Y-121285000D02*
X125730000Y-122301000D01*
X127000000Y-125095000D02*
X124460000Y-125095000D01*
X124460000Y-125095000D02*
X124460000Y-117475000D01*
X124460000Y-117475000D02*
X127000000Y-117475000D01*
X127000000Y-117475000D02*
X127000000Y-125095000D01*
X128778000Y-121793000D02*
X127762000Y-121793000D01*
X128270000Y-121285000D02*
X128270000Y-122301000D01*
X129540000Y-125095000D02*
X127000000Y-125095000D01*
X127000000Y-125095000D02*
X127000000Y-117475000D01*
X127000000Y-117475000D02*
X129540000Y-117475000D01*
X129540000Y-117475000D02*
X129540000Y-125095000D01*
X131318000Y-121793000D02*
X130302000Y-121793000D01*
X130810000Y-121285000D02*
X130810000Y-122301000D01*
X132080000Y-125095000D02*
X129540000Y-125095000D01*
X129540000Y-125095000D02*
X129540000Y-117475000D01*
X129540000Y-117475000D02*
X132080000Y-117475000D01*
X132080000Y-117475000D02*
X132080000Y-125095000D01*
X133858000Y-121793000D02*
X132842000Y-121793000D01*
X133350000Y-121285000D02*
X133350000Y-122301000D01*
X134620000Y-125095000D02*
X132080000Y-125095000D01*
X132080000Y-125095000D02*
X132080000Y-117475000D01*
X132080000Y-117475000D02*
X134620000Y-117475000D01*
X134620000Y-117475000D02*
X134620000Y-125095000D01*
X136398000Y-121793000D02*
X135382000Y-121793000D01*
X135890000Y-121285000D02*
X135890000Y-122301000D01*
X137160000Y-125095000D02*
X134620000Y-125095000D01*
X134620000Y-125095000D02*
X134620000Y-117475000D01*
X134620000Y-117475000D02*
X137160000Y-117475000D01*
X137160000Y-117475000D02*
X137160000Y-125095000D01*
X154178000Y-121793000D02*
X153162000Y-121793000D01*
X153670000Y-121285000D02*
X153670000Y-122301000D01*
X154940000Y-125095000D02*
X152400000Y-125095000D01*
X152400000Y-125095000D02*
X152400000Y-117475000D01*
X152400000Y-117475000D02*
X154940000Y-117475000D01*
X154940000Y-117475000D02*
X154940000Y-125095000D01*
X156718000Y-121793000D02*
X155702000Y-121793000D01*
X156210000Y-121285000D02*
X156210000Y-122301000D01*
X157480000Y-125095000D02*
X154940000Y-125095000D01*
X154940000Y-125095000D02*
X154940000Y-117475000D01*
X154940000Y-117475000D02*
X157480000Y-117475000D01*
X157480000Y-117475000D02*
X157480000Y-125095000D01*
X159258000Y-121793000D02*
X158242000Y-121793000D01*
X158750000Y-121285000D02*
X158750000Y-122301000D01*
X160020000Y-125095000D02*
X157480000Y-125095000D01*
X157480000Y-125095000D02*
X157480000Y-117475000D01*
X157480000Y-117475000D02*
X160020000Y-117475000D01*
X160020000Y-117475000D02*
X160020000Y-125095000D01*
X161798000Y-121793000D02*
X160782000Y-121793000D01*
X161290000Y-121285000D02*
X161290000Y-122301000D01*
X162560000Y-125095000D02*
X160020000Y-125095000D01*
X160020000Y-125095000D02*
X160020000Y-117475000D01*
X160020000Y-117475000D02*
X162560000Y-117475000D01*
X162560000Y-117475000D02*
X162560000Y-125095000D01*
X164338000Y-121793000D02*
X163322000Y-121793000D01*
X163830000Y-121285000D02*
X163830000Y-122301000D01*
X165100000Y-125095000D02*
X162560000Y-125095000D01*
X162560000Y-125095000D02*
X162560000Y-117475000D01*
X162560000Y-117475000D02*
X165100000Y-117475000D01*
X165100000Y-117475000D02*
X165100000Y-125095000D01*
X166878000Y-121793000D02*
X165862000Y-121793000D01*
X166370000Y-121285000D02*
X166370000Y-122301000D01*
X167640000Y-125095000D02*
X165100000Y-125095000D01*
X165100000Y-125095000D02*
X165100000Y-117475000D01*
X165100000Y-117475000D02*
X167640000Y-117475000D01*
X167640000Y-117475000D02*
X167640000Y-125095000D01*
X169418000Y-121793000D02*
X168402000Y-121793000D01*
X168910000Y-121285000D02*
X168910000Y-122301000D01*
X170180000Y-125095000D02*
X167640000Y-125095000D01*
X167640000Y-125095000D02*
X167640000Y-117475000D01*
X167640000Y-117475000D02*
X170180000Y-117475000D01*
X170180000Y-117475000D02*
X170180000Y-125095000D01*
X171958000Y-121793000D02*
X170942000Y-121793000D01*
X171450000Y-121285000D02*
X171450000Y-122301000D01*
X172720000Y-125095000D02*
X170180000Y-125095000D01*
X170180000Y-125095000D02*
X170180000Y-117475000D01*
X170180000Y-117475000D02*
X172720000Y-117475000D01*
X172720000Y-117475000D02*
X172720000Y-125095000D01*
X118618000Y-98933000D02*
X117602000Y-98933000D01*
X118110000Y-98425000D02*
X118110000Y-99441000D01*
X119380000Y-102235000D02*
X116840000Y-102235000D01*
X116840000Y-102235000D02*
X116840000Y-94615000D01*
X116840000Y-94615000D02*
X119380000Y-94615000D01*
X119380000Y-94615000D02*
X119380000Y-102235000D01*
X121158000Y-98933000D02*
X120142000Y-98933000D01*
X120650000Y-98425000D02*
X120650000Y-99441000D01*
X121920000Y-102235000D02*
X119380000Y-102235000D01*
X119380000Y-102235000D02*
X119380000Y-94615000D01*
X119380000Y-94615000D02*
X121920000Y-94615000D01*
X121920000Y-94615000D02*
X121920000Y-102235000D01*
X123698000Y-98933000D02*
X122682000Y-98933000D01*
X123190000Y-98425000D02*
X123190000Y-99441000D01*
X124460000Y-102235000D02*
X121920000Y-102235000D01*
X121920000Y-102235000D02*
X121920000Y-94615000D01*
X121920000Y-94615000D02*
X124460000Y-94615000D01*
X124460000Y-94615000D02*
X124460000Y-102235000D01*
X126238000Y-98933000D02*
X125222000Y-98933000D01*
X125730000Y-98425000D02*
X125730000Y-99441000D01*
X127000000Y-102235000D02*
X124460000Y-102235000D01*
X124460000Y-102235000D02*
X124460000Y-94615000D01*
X124460000Y-94615000D02*
X127000000Y-94615000D01*
X127000000Y-94615000D02*
X127000000Y-102235000D01*
X128778000Y-98933000D02*
X127762000Y-98933000D01*
X128270000Y-98425000D02*
X128270000Y-99441000D01*
X129540000Y-102235000D02*
X127000000Y-102235000D01*
X127000000Y-102235000D02*
X127000000Y-94615000D01*
X127000000Y-94615000D02*
X129540000Y-94615000D01*
X129540000Y-94615000D02*
X129540000Y-102235000D01*
X131318000Y-98933000D02*
X130302000Y-98933000D01*
X130810000Y-98425000D02*
X130810000Y-99441000D01*
X132080000Y-102235000D02*
X129540000Y-102235000D01*
X129540000Y-102235000D02*
X129540000Y-94615000D01*
X129540000Y-94615000D02*
X132080000Y-94615000D01*
X132080000Y-94615000D02*
X132080000Y-102235000D01*
X133858000Y-98933000D02*
X132842000Y-98933000D01*
X133350000Y-98425000D02*
X133350000Y-99441000D01*
X134620000Y-102235000D02*
X132080000Y-102235000D01*
X132080000Y-102235000D02*
X132080000Y-94615000D01*
X132080000Y-94615000D02*
X134620000Y-94615000D01*
X134620000Y-94615000D02*
X134620000Y-102235000D01*
X136398000Y-98933000D02*
X135382000Y-98933000D01*
X135890000Y-98425000D02*
X135890000Y-99441000D01*
X137160000Y-102235000D02*
X134620000Y-102235000D01*
X134620000Y-102235000D02*
X134620000Y-94615000D01*
X134620000Y-94615000D02*
X137160000Y-94615000D01*
X137160000Y-94615000D02*
X137160000Y-102235000D01*
X154178000Y-98933000D02*
X153162000Y-98933000D01*
X153670000Y-98425000D02*
X153670000Y-99441000D01*
X154940000Y-102235000D02*
X152400000Y-102235000D01*
X152400000Y-102235000D02*
X152400000Y-94615000D01*
X152400000Y-94615000D02*
X154940000Y-94615000D01*
X154940000Y-94615000D02*
X154940000Y-102235000D01*
X156718000Y-98933000D02*
X155702000Y-98933000D01*
X156210000Y-98425000D02*
X156210000Y-99441000D01*
X157480000Y-102235000D02*
X154940000Y-102235000D01*
X154940000Y-102235000D02*
X154940000Y-94615000D01*
X154940000Y-94615000D02*
X157480000Y-94615000D01*
X157480000Y-94615000D02*
X157480000Y-102235000D01*
X159258000Y-98933000D02*
X158242000Y-98933000D01*
X158750000Y-98425000D02*
X158750000Y-99441000D01*
X160020000Y-102235000D02*
X157480000Y-102235000D01*
X157480000Y-102235000D02*
X157480000Y-94615000D01*
X157480000Y-94615000D02*
X160020000Y-94615000D01*
X160020000Y-94615000D02*
X160020000Y-102235000D01*
X161798000Y-98933000D02*
X160782000Y-98933000D01*
X161290000Y-98425000D02*
X161290000Y-99441000D01*
X162560000Y-102235000D02*
X160020000Y-102235000D01*
X160020000Y-102235000D02*
X160020000Y-94615000D01*
X160020000Y-94615000D02*
X162560000Y-94615000D01*
X162560000Y-94615000D02*
X162560000Y-102235000D01*
X164338000Y-98933000D02*
X163322000Y-98933000D01*
X163830000Y-98425000D02*
X163830000Y-99441000D01*
X165100000Y-102235000D02*
X162560000Y-102235000D01*
X162560000Y-102235000D02*
X162560000Y-94615000D01*
X162560000Y-94615000D02*
X165100000Y-94615000D01*
X165100000Y-94615000D02*
X165100000Y-102235000D01*
X166878000Y-98933000D02*
X165862000Y-98933000D01*
X166370000Y-98425000D02*
X166370000Y-99441000D01*
X167640000Y-102235000D02*
X165100000Y-102235000D01*
X165100000Y-102235000D02*
X165100000Y-94615000D01*
X165100000Y-94615000D02*
X167640000Y-94615000D01*
X167640000Y-94615000D02*
X167640000Y-102235000D01*
X169418000Y-98933000D02*
X168402000Y-98933000D01*
X168910000Y-98425000D02*
X168910000Y-99441000D01*
X170180000Y-102235000D02*
X167640000Y-102235000D01*
X167640000Y-102235000D02*
X167640000Y-94615000D01*
X167640000Y-94615000D02*
X170180000Y-94615000D01*
X170180000Y-94615000D02*
X170180000Y-102235000D01*
X171958000Y-98933000D02*
X170942000Y-98933000D01*
X171450000Y-98425000D02*
X171450000Y-99441000D01*
X172720000Y-102235000D02*
X170180000Y-102235000D01*
X170180000Y-102235000D02*
X170180000Y-94615000D01*
X170180000Y-94615000D02*
X172720000Y-94615000D01*
X172720000Y-94615000D02*
X172720000Y-102235000D01*
X202438000Y-93472000D02*
X202438000Y-94488000D01*
X201930000Y-93980000D02*
X202946000Y-93980000D01*
X205740000Y-92710000D02*
X205740000Y-95250000D01*
X205740000Y-95250000D02*
X198120000Y-95250000D01*
X198120000Y-95250000D02*
X198120000Y-92710000D01*
X198120000Y-92710000D02*
X205740000Y-92710000D01*
D12*
X97790000Y-111125000D02*
X97790000Y-119380000D01*
X97790000Y-119380000D02*
X109220000Y-119380000D01*
X109220000Y-119380000D02*
X109220000Y-111125000D01*
X109220000Y-111125000D02*
X97790000Y-111125000D01*
X198120000Y-97790000D02*
X198120000Y-107950000D01*
X198120000Y-107950000D02*
X211455000Y-107950000D01*
X198120000Y-97790000D02*
X211455000Y-97790000D01*
X211455000Y-97790000D02*
X211455000Y-107950000D01*
X105410000Y-100330000D02*
X104648000Y-99568000D01*
X106680000Y-104140000D02*
X105156000Y-105156000D01*
X93345000Y-109220000D02*
X92710000Y-109220000D01*
X92710000Y-109220000D02*
X92710000Y-96520000D01*
X92710000Y-96520000D02*
X93345000Y-96520000D01*
X93345000Y-110490000D02*
X109220000Y-110490000D01*
X109220000Y-110490000D02*
X109220000Y-95250000D01*
X109220000Y-95250000D02*
X93345000Y-95250000D01*
X93345000Y-95250000D02*
X93345000Y-110490000D01*
X107315000Y-98552000D02*
X103505000Y-102362000D01*
X106680000Y-102870000D02*
X106680000Y-105410000D01*
X176530000Y-84328000D02*
X148590000Y-84328000D01*
X148590000Y-84328000D02*
X148590000Y-93472000D01*
X148590000Y-93472000D02*
X176530000Y-93472000D01*
X176530000Y-84328000D02*
X176530000Y-93472000D01*
X171450000Y-84328000D02*
X172720000Y-83058000D01*
X172720000Y-83058000D02*
X170180000Y-83058000D01*
X170180000Y-83058000D02*
X171450000Y-84328000D01*
X140970000Y-84328000D02*
X113030000Y-84328000D01*
X113030000Y-84328000D02*
X113030000Y-93472000D01*
X113030000Y-93472000D02*
X140970000Y-93472000D01*
X140970000Y-84328000D02*
X140970000Y-93472000D01*
X135890000Y-84328000D02*
X137160000Y-83058000D01*
X137160000Y-83058000D02*
X134620000Y-83058000D01*
X134620000Y-83058000D02*
X135890000Y-84328000D01*
X176530000Y-107188000D02*
X148590000Y-107188000D01*
X148590000Y-107188000D02*
X148590000Y-116332000D01*
X148590000Y-116332000D02*
X176530000Y-116332000D01*
X176530000Y-107188000D02*
X176530000Y-116332000D01*
X171450000Y-107188000D02*
X172720000Y-105918000D01*
X172720000Y-105918000D02*
X170180000Y-105918000D01*
X170180000Y-105918000D02*
X171450000Y-107188000D01*
X140970000Y-107188000D02*
X113030000Y-107188000D01*
X113030000Y-107188000D02*
X113030000Y-116332000D01*
X113030000Y-116332000D02*
X140970000Y-116332000D01*
X140970000Y-107188000D02*
X140970000Y-116332000D01*
X135890000Y-107188000D02*
X137160000Y-105918000D01*
X137160000Y-105918000D02*
X134620000Y-105918000D01*
X134620000Y-105918000D02*
X135890000Y-107188000D01*
X198120000Y-114935000D02*
X198120000Y-109855000D01*
X198120000Y-109855000D02*
X208280000Y-109855000D01*
X208280000Y-109855000D02*
X208280000Y-114935000D01*
X208280000Y-114935000D02*
X198120000Y-114935000D01*
X87884000Y-91567000D02*
X87884000Y-78867000D01*
X87884000Y-78867000D02*
X101854000Y-78867000D01*
X87884000Y-91567000D02*
X101854000Y-91567000D01*
X101854000Y-91567000D02*
X101854000Y-78867000D01*
X217170000Y-78740000D02*
X217170000Y-91440000D01*
X217170000Y-91440000D02*
X203200000Y-91440000D01*
X217170000Y-78740000D02*
X203200000Y-78740000D01*
X203200000Y-78740000D02*
X203200000Y-91440000D01*
X208915000Y-135890000D02*
X198755000Y-135890000D01*
X198755000Y-135890000D02*
X198755000Y-121920000D01*
X208915000Y-135890000D02*
X208915000Y-121920000D01*
X208915000Y-121920000D02*
X198755000Y-121920000D01*
D11*
X116029619Y-122518714D02*
X115013619Y-122518714D01*
X115013619Y-122276809D01*
X115062000Y-122131667D01*
X115158762Y-122034905D01*
X115255524Y-121986524D01*
X115449048Y-121938143D01*
X115594190Y-121938143D01*
X115787714Y-121986524D01*
X115884476Y-122034905D01*
X115981238Y-122131667D01*
X116029619Y-122276809D01*
X116029619Y-122518714D01*
X115013619Y-121599476D02*
X115013619Y-120970524D01*
X115400667Y-121309190D01*
X115400667Y-121164048D01*
X115449048Y-121067286D01*
X115497429Y-121018905D01*
X115594190Y-120970524D01*
X115836095Y-120970524D01*
X115932857Y-121018905D01*
X115981238Y-121067286D01*
X116029619Y-121164048D01*
X116029619Y-121454333D01*
X115981238Y-121551095D01*
X115932857Y-121599476D01*
X115013619Y-120631857D02*
X115013619Y-120002905D01*
X115400667Y-120341571D01*
X115400667Y-120196429D01*
X115449048Y-120099667D01*
X115497429Y-120051286D01*
X115594190Y-120002905D01*
X115836095Y-120002905D01*
X115932857Y-120051286D01*
X115981238Y-120099667D01*
X116029619Y-120196429D01*
X116029619Y-120486714D01*
X115981238Y-120583476D01*
X115932857Y-120631857D01*
X138889619Y-122518714D02*
X137873619Y-122518714D01*
X137873619Y-122276809D01*
X137922000Y-122131667D01*
X138018762Y-122034905D01*
X138115524Y-121986524D01*
X138309048Y-121938143D01*
X138454190Y-121938143D01*
X138647714Y-121986524D01*
X138744476Y-122034905D01*
X138841238Y-122131667D01*
X138889619Y-122276809D01*
X138889619Y-122518714D01*
X137970381Y-121551095D02*
X137922000Y-121502714D01*
X137873619Y-121405952D01*
X137873619Y-121164048D01*
X137922000Y-121067286D01*
X137970381Y-121018905D01*
X138067143Y-120970524D01*
X138163905Y-120970524D01*
X138309048Y-121018905D01*
X138889619Y-121599476D01*
X138889619Y-120970524D01*
X137873619Y-120099667D02*
X137873619Y-120293190D01*
X137922000Y-120389952D01*
X137970381Y-120438333D01*
X138115524Y-120535095D01*
X138309048Y-120583476D01*
X138696095Y-120583476D01*
X138792857Y-120535095D01*
X138841238Y-120486714D01*
X138889619Y-120389952D01*
X138889619Y-120196429D01*
X138841238Y-120099667D01*
X138792857Y-120051286D01*
X138696095Y-120002905D01*
X138454190Y-120002905D01*
X138357429Y-120051286D01*
X138309048Y-120099667D01*
X138260667Y-120196429D01*
X138260667Y-120389952D01*
X138309048Y-120486714D01*
X138357429Y-120535095D01*
X138454190Y-120583476D01*
X151589619Y-122518714D02*
X150573619Y-122518714D01*
X150573619Y-122276809D01*
X150622000Y-122131667D01*
X150718762Y-122034905D01*
X150815524Y-121986524D01*
X151009048Y-121938143D01*
X151154190Y-121938143D01*
X151347714Y-121986524D01*
X151444476Y-122034905D01*
X151541238Y-122131667D01*
X151589619Y-122276809D01*
X151589619Y-122518714D01*
X150670381Y-121551095D02*
X150622000Y-121502714D01*
X150573619Y-121405952D01*
X150573619Y-121164048D01*
X150622000Y-121067286D01*
X150670381Y-121018905D01*
X150767143Y-120970524D01*
X150863905Y-120970524D01*
X151009048Y-121018905D01*
X151589619Y-121599476D01*
X151589619Y-120970524D01*
X150573619Y-120051286D02*
X150573619Y-120535095D01*
X151057429Y-120583476D01*
X151009048Y-120535095D01*
X150960667Y-120438333D01*
X150960667Y-120196429D01*
X151009048Y-120099667D01*
X151057429Y-120051286D01*
X151154190Y-120002905D01*
X151396095Y-120002905D01*
X151492857Y-120051286D01*
X151541238Y-120099667D01*
X151589619Y-120196429D01*
X151589619Y-120438333D01*
X151541238Y-120535095D01*
X151492857Y-120583476D01*
X174449619Y-122518714D02*
X173433619Y-122518714D01*
X173433619Y-122276809D01*
X173482000Y-122131667D01*
X173578762Y-122034905D01*
X173675524Y-121986524D01*
X173869048Y-121938143D01*
X174014190Y-121938143D01*
X174207714Y-121986524D01*
X174304476Y-122034905D01*
X174401238Y-122131667D01*
X174449619Y-122276809D01*
X174449619Y-122518714D01*
X174449619Y-120970524D02*
X174449619Y-121551095D01*
X174449619Y-121260809D02*
X173433619Y-121260809D01*
X173578762Y-121357571D01*
X173675524Y-121454333D01*
X173723905Y-121551095D01*
X173869048Y-120389952D02*
X173820667Y-120486714D01*
X173772286Y-120535095D01*
X173675524Y-120583476D01*
X173627143Y-120583476D01*
X173530381Y-120535095D01*
X173482000Y-120486714D01*
X173433619Y-120389952D01*
X173433619Y-120196429D01*
X173482000Y-120099667D01*
X173530381Y-120051286D01*
X173627143Y-120002905D01*
X173675524Y-120002905D01*
X173772286Y-120051286D01*
X173820667Y-120099667D01*
X173869048Y-120196429D01*
X173869048Y-120389952D01*
X173917429Y-120486714D01*
X173965810Y-120535095D01*
X174062571Y-120583476D01*
X174256095Y-120583476D01*
X174352857Y-120535095D01*
X174401238Y-120486714D01*
X174449619Y-120389952D01*
X174449619Y-120196429D01*
X174401238Y-120099667D01*
X174352857Y-120051286D01*
X174256095Y-120002905D01*
X174062571Y-120002905D01*
X173965810Y-120051286D01*
X173917429Y-120099667D01*
X173869048Y-120196429D01*
X116029619Y-99658714D02*
X115013619Y-99658714D01*
X115013619Y-99416809D01*
X115062000Y-99271667D01*
X115158762Y-99174905D01*
X115255524Y-99126524D01*
X115449048Y-99078143D01*
X115594190Y-99078143D01*
X115787714Y-99126524D01*
X115884476Y-99174905D01*
X115981238Y-99271667D01*
X116029619Y-99416809D01*
X116029619Y-99658714D01*
X116029619Y-98110524D02*
X116029619Y-98691095D01*
X116029619Y-98400809D02*
X115013619Y-98400809D01*
X115158762Y-98497571D01*
X115255524Y-98594333D01*
X115303905Y-98691095D01*
X115013619Y-97771857D02*
X115013619Y-97094524D01*
X116029619Y-97529952D01*
X138889619Y-99658714D02*
X137873619Y-99658714D01*
X137873619Y-99416809D01*
X137922000Y-99271667D01*
X138018762Y-99174905D01*
X138115524Y-99126524D01*
X138309048Y-99078143D01*
X138454190Y-99078143D01*
X138647714Y-99126524D01*
X138744476Y-99174905D01*
X138841238Y-99271667D01*
X138889619Y-99416809D01*
X138889619Y-99658714D01*
X138889619Y-98110524D02*
X138889619Y-98691095D01*
X138889619Y-98400809D02*
X137873619Y-98400809D01*
X138018762Y-98497571D01*
X138115524Y-98594333D01*
X138163905Y-98691095D01*
X137873619Y-97481571D02*
X137873619Y-97384810D01*
X137922000Y-97288048D01*
X137970381Y-97239667D01*
X138067143Y-97191286D01*
X138260667Y-97142905D01*
X138502571Y-97142905D01*
X138696095Y-97191286D01*
X138792857Y-97239667D01*
X138841238Y-97288048D01*
X138889619Y-97384810D01*
X138889619Y-97481571D01*
X138841238Y-97578333D01*
X138792857Y-97626714D01*
X138696095Y-97675095D01*
X138502571Y-97723476D01*
X138260667Y-97723476D01*
X138067143Y-97675095D01*
X137970381Y-97626714D01*
X137922000Y-97578333D01*
X137873619Y-97481571D01*
X151589619Y-99174904D02*
X150573619Y-99174904D01*
X150573619Y-98932999D01*
X150622000Y-98787857D01*
X150718762Y-98691095D01*
X150815524Y-98642714D01*
X151009048Y-98594333D01*
X151154190Y-98594333D01*
X151347714Y-98642714D01*
X151444476Y-98691095D01*
X151541238Y-98787857D01*
X151589619Y-98932999D01*
X151589619Y-99174904D01*
X151589619Y-98110523D02*
X151589619Y-97916999D01*
X151541238Y-97820238D01*
X151492857Y-97771857D01*
X151347714Y-97675095D01*
X151154190Y-97626714D01*
X150767143Y-97626714D01*
X150670381Y-97675095D01*
X150622000Y-97723476D01*
X150573619Y-97820238D01*
X150573619Y-98013761D01*
X150622000Y-98110523D01*
X150670381Y-98158904D01*
X150767143Y-98207285D01*
X151009048Y-98207285D01*
X151105810Y-98158904D01*
X151154190Y-98110523D01*
X151202571Y-98013761D01*
X151202571Y-97820238D01*
X151154190Y-97723476D01*
X151105810Y-97675095D01*
X151009048Y-97626714D01*
X174449619Y-99174904D02*
X173433619Y-99174904D01*
X173433619Y-98932999D01*
X173482000Y-98787857D01*
X173578762Y-98691095D01*
X173675524Y-98642714D01*
X173869048Y-98594333D01*
X174014190Y-98594333D01*
X174207714Y-98642714D01*
X174304476Y-98691095D01*
X174401238Y-98787857D01*
X174449619Y-98932999D01*
X174449619Y-99174904D01*
X173530381Y-98207285D02*
X173482000Y-98158904D01*
X173433619Y-98062142D01*
X173433619Y-97820238D01*
X173482000Y-97723476D01*
X173530381Y-97675095D01*
X173627143Y-97626714D01*
X173723905Y-97626714D01*
X173869048Y-97675095D01*
X174449619Y-98255666D01*
X174449619Y-97626714D01*
X206260096Y-94439619D02*
X206260096Y-93423619D01*
X206502001Y-93423619D01*
X206647143Y-93472000D01*
X206743905Y-93568762D01*
X206792286Y-93665524D01*
X206840667Y-93859048D01*
X206840667Y-94004190D01*
X206792286Y-94197714D01*
X206743905Y-94294476D01*
X206647143Y-94391238D01*
X206502001Y-94439619D01*
X206260096Y-94439619D01*
X207808286Y-94439619D02*
X207227715Y-94439619D01*
X207518001Y-94439619D02*
X207518001Y-93423619D01*
X207421239Y-93568762D01*
X207324477Y-93665524D01*
X207227715Y-93713905D01*
X110949619Y-116071952D02*
X110465810Y-116410618D01*
X110949619Y-116652523D02*
X109933619Y-116652523D01*
X109933619Y-116265476D01*
X109982000Y-116168714D01*
X110030381Y-116120333D01*
X110127143Y-116071952D01*
X110272286Y-116071952D01*
X110369048Y-116120333D01*
X110417429Y-116168714D01*
X110465810Y-116265476D01*
X110465810Y-116652523D01*
X110417429Y-115636523D02*
X110417429Y-115297857D01*
X110949619Y-115152714D02*
X110949619Y-115636523D01*
X109933619Y-115636523D01*
X109933619Y-115152714D01*
X109982000Y-114185095D02*
X109933619Y-114281857D01*
X109933619Y-114427000D01*
X109982000Y-114572142D01*
X110078762Y-114668904D01*
X110175524Y-114717285D01*
X110369048Y-114765666D01*
X110514190Y-114765666D01*
X110707714Y-114717285D01*
X110804476Y-114668904D01*
X110901238Y-114572142D01*
X110949619Y-114427000D01*
X110949619Y-114330238D01*
X110901238Y-114185095D01*
X110852857Y-114136714D01*
X110514190Y-114136714D01*
X110514190Y-114330238D01*
X110949619Y-113169095D02*
X110949619Y-113749666D01*
X110949619Y-113459380D02*
X109933619Y-113459380D01*
X110078762Y-113556142D01*
X110175524Y-113652904D01*
X110223905Y-113749666D01*
X209435096Y-109679619D02*
X209435096Y-108663619D01*
X209822143Y-108663619D01*
X209918905Y-108712000D01*
X209967286Y-108760381D01*
X210015667Y-108857143D01*
X210015667Y-109002286D01*
X209967286Y-109099048D01*
X209918905Y-109147429D01*
X209822143Y-109195810D01*
X209435096Y-109195810D01*
X210983286Y-109679619D02*
X210402715Y-109679619D01*
X210693001Y-109679619D02*
X210693001Y-108663619D01*
X210596239Y-108808762D01*
X210499477Y-108905524D01*
X210402715Y-108953905D01*
X93738096Y-111965619D02*
X93738096Y-110949619D01*
X94125143Y-110949619D01*
X94221905Y-110998000D01*
X94270286Y-111046381D01*
X94318667Y-111143143D01*
X94318667Y-111288286D01*
X94270286Y-111385048D01*
X94221905Y-111433429D01*
X94125143Y-111481810D01*
X93738096Y-111481810D01*
X94657334Y-110949619D02*
X95334667Y-110949619D01*
X94899239Y-111965619D01*
X111203619Y-109861047D02*
X111203619Y-109280476D01*
X112219619Y-109570761D02*
X111203619Y-109570761D01*
X112219619Y-108796666D02*
X112171238Y-108893428D01*
X112122857Y-108941809D01*
X112026095Y-108990190D01*
X111735810Y-108990190D01*
X111639048Y-108941809D01*
X111590667Y-108893428D01*
X111542286Y-108796666D01*
X111542286Y-108651524D01*
X111590667Y-108554762D01*
X111639048Y-108506381D01*
X111735810Y-108458000D01*
X112026095Y-108458000D01*
X112122857Y-108506381D01*
X112171238Y-108554762D01*
X112219619Y-108651524D01*
X112219619Y-108796666D01*
X111542286Y-108022571D02*
X112558286Y-108022571D01*
X111590667Y-108022571D02*
X111542286Y-107925809D01*
X111542286Y-107732286D01*
X111590667Y-107635524D01*
X111639048Y-107587143D01*
X111735810Y-107538762D01*
X112026095Y-107538762D01*
X112122857Y-107587143D01*
X112171238Y-107635524D01*
X112219619Y-107732286D01*
X112219619Y-107925809D01*
X112171238Y-108022571D01*
X112122857Y-107103333D02*
X112171238Y-107054952D01*
X112219619Y-107103333D01*
X112171238Y-107151714D01*
X112122857Y-107103333D01*
X112219619Y-107103333D01*
X111590667Y-107103333D02*
X111639048Y-107054952D01*
X111687429Y-107103333D01*
X111639048Y-107151714D01*
X111590667Y-107103333D01*
X111687429Y-107103333D01*
X111687429Y-105506762D02*
X111735810Y-105361619D01*
X111784190Y-105313238D01*
X111880952Y-105264857D01*
X112026095Y-105264857D01*
X112122857Y-105313238D01*
X112171238Y-105361619D01*
X112219619Y-105458381D01*
X112219619Y-105845428D01*
X111203619Y-105845428D01*
X111203619Y-105506762D01*
X111252000Y-105410000D01*
X111300381Y-105361619D01*
X111397143Y-105313238D01*
X111493905Y-105313238D01*
X111590667Y-105361619D01*
X111639048Y-105410000D01*
X111687429Y-105506762D01*
X111687429Y-105845428D01*
X112219619Y-104829428D02*
X111203619Y-104829428D01*
X112219619Y-104248857D01*
X111203619Y-104248857D01*
X112122857Y-103184476D02*
X112171238Y-103232857D01*
X112219619Y-103378000D01*
X112219619Y-103474762D01*
X112171238Y-103619904D01*
X112074476Y-103716666D01*
X111977714Y-103765047D01*
X111784190Y-103813428D01*
X111639048Y-103813428D01*
X111445524Y-103765047D01*
X111348762Y-103716666D01*
X111252000Y-103619904D01*
X111203619Y-103474762D01*
X111203619Y-103378000D01*
X111252000Y-103232857D01*
X111300381Y-103184476D01*
X111687429Y-101636286D02*
X111735810Y-101491143D01*
X111784190Y-101442762D01*
X111880952Y-101394381D01*
X112026095Y-101394381D01*
X112122857Y-101442762D01*
X112171238Y-101491143D01*
X112219619Y-101587905D01*
X112219619Y-101974952D01*
X111203619Y-101974952D01*
X111203619Y-101636286D01*
X111252000Y-101539524D01*
X111300381Y-101491143D01*
X111397143Y-101442762D01*
X111493905Y-101442762D01*
X111590667Y-101491143D01*
X111639048Y-101539524D01*
X111687429Y-101636286D01*
X111687429Y-101974952D01*
X112606667Y-99894572D02*
X112558286Y-99942952D01*
X112413143Y-100039714D01*
X112316381Y-100088095D01*
X112171238Y-100136476D01*
X111929333Y-100184857D01*
X111735810Y-100184857D01*
X111493905Y-100136476D01*
X111348762Y-100088095D01*
X111252000Y-100039714D01*
X111106857Y-99942952D01*
X111058476Y-99894572D01*
X111203619Y-99652667D02*
X111203619Y-99072096D01*
X112219619Y-99362381D02*
X111203619Y-99362381D01*
X112219619Y-98152858D02*
X111735810Y-98491524D01*
X112219619Y-98733429D02*
X111203619Y-98733429D01*
X111203619Y-98346382D01*
X111252000Y-98249620D01*
X111300381Y-98201239D01*
X111397143Y-98152858D01*
X111542286Y-98152858D01*
X111639048Y-98201239D01*
X111687429Y-98249620D01*
X111735810Y-98346382D01*
X111735810Y-98733429D01*
X112219619Y-97717429D02*
X111203619Y-97717429D01*
X111252000Y-96701429D02*
X111203619Y-96798191D01*
X111203619Y-96943334D01*
X111252000Y-97088476D01*
X111348762Y-97185238D01*
X111445524Y-97233619D01*
X111639048Y-97282000D01*
X111784190Y-97282000D01*
X111977714Y-97233619D01*
X112074476Y-97185238D01*
X112171238Y-97088476D01*
X112219619Y-96943334D01*
X112219619Y-96846572D01*
X112171238Y-96701429D01*
X112122857Y-96653048D01*
X111784190Y-96653048D01*
X111784190Y-96846572D01*
X112606667Y-96314381D02*
X112558286Y-96266000D01*
X112413143Y-96169238D01*
X112316381Y-96120857D01*
X112171238Y-96072476D01*
X111929333Y-96024095D01*
X111735810Y-96024095D01*
X111493905Y-96072476D01*
X111348762Y-96120857D01*
X111252000Y-96169238D01*
X111106857Y-96266000D01*
X111058476Y-96314381D01*
X110163429Y-110296476D02*
X110211810Y-110151333D01*
X110260190Y-110102952D01*
X110356952Y-110054571D01*
X110502095Y-110054571D01*
X110598857Y-110102952D01*
X110647238Y-110151333D01*
X110695619Y-110248095D01*
X110695619Y-110635142D01*
X109679619Y-110635142D01*
X109679619Y-110296476D01*
X109728000Y-110199714D01*
X109776381Y-110151333D01*
X109873143Y-110102952D01*
X109969905Y-110102952D01*
X110066667Y-110151333D01*
X110115048Y-110199714D01*
X110163429Y-110296476D01*
X110163429Y-110635142D01*
X110695619Y-109473999D02*
X110647238Y-109570761D01*
X110598857Y-109619142D01*
X110502095Y-109667523D01*
X110211810Y-109667523D01*
X110115048Y-109619142D01*
X110066667Y-109570761D01*
X110018286Y-109473999D01*
X110018286Y-109328857D01*
X110066667Y-109232095D01*
X110115048Y-109183714D01*
X110211810Y-109135333D01*
X110502095Y-109135333D01*
X110598857Y-109183714D01*
X110647238Y-109232095D01*
X110695619Y-109328857D01*
X110695619Y-109473999D01*
X110018286Y-108845047D02*
X110018286Y-108457999D01*
X109679619Y-108699904D02*
X110550476Y-108699904D01*
X110647238Y-108651523D01*
X110695619Y-108554761D01*
X110695619Y-108457999D01*
X110018286Y-108264476D02*
X110018286Y-107877428D01*
X109679619Y-108119333D02*
X110550476Y-108119333D01*
X110647238Y-108070952D01*
X110695619Y-107974190D01*
X110695619Y-107877428D01*
X110695619Y-107393619D02*
X110647238Y-107490381D01*
X110598857Y-107538762D01*
X110502095Y-107587143D01*
X110211810Y-107587143D01*
X110115048Y-107538762D01*
X110066667Y-107490381D01*
X110018286Y-107393619D01*
X110018286Y-107248477D01*
X110066667Y-107151715D01*
X110115048Y-107103334D01*
X110211810Y-107054953D01*
X110502095Y-107054953D01*
X110598857Y-107103334D01*
X110647238Y-107151715D01*
X110695619Y-107248477D01*
X110695619Y-107393619D01*
X110695619Y-106619524D02*
X110018286Y-106619524D01*
X110115048Y-106619524D02*
X110066667Y-106571143D01*
X110018286Y-106474381D01*
X110018286Y-106329239D01*
X110066667Y-106232477D01*
X110163429Y-106184096D01*
X110695619Y-106184096D01*
X110163429Y-106184096D02*
X110066667Y-106135715D01*
X110018286Y-106038953D01*
X110018286Y-105893810D01*
X110066667Y-105797048D01*
X110163429Y-105748667D01*
X110695619Y-105748667D01*
X110598857Y-105264857D02*
X110647238Y-105216476D01*
X110695619Y-105264857D01*
X110647238Y-105313238D01*
X110598857Y-105264857D01*
X110695619Y-105264857D01*
X110066667Y-105264857D02*
X110115048Y-105216476D01*
X110163429Y-105264857D01*
X110115048Y-105313238D01*
X110066667Y-105264857D01*
X110163429Y-105264857D01*
X110163429Y-103668286D02*
X110211810Y-103523143D01*
X110260190Y-103474762D01*
X110356952Y-103426381D01*
X110502095Y-103426381D01*
X110598857Y-103474762D01*
X110647238Y-103523143D01*
X110695619Y-103619905D01*
X110695619Y-104006952D01*
X109679619Y-104006952D01*
X109679619Y-103668286D01*
X109728000Y-103571524D01*
X109776381Y-103523143D01*
X109873143Y-103474762D01*
X109969905Y-103474762D01*
X110066667Y-103523143D01*
X110115048Y-103571524D01*
X110163429Y-103668286D01*
X110163429Y-104006952D01*
X110695619Y-102990952D02*
X109679619Y-102990952D01*
X110695619Y-102410381D01*
X109679619Y-102410381D01*
X110598857Y-101346000D02*
X110647238Y-101394381D01*
X110695619Y-101539524D01*
X110695619Y-101636286D01*
X110647238Y-101781428D01*
X110550476Y-101878190D01*
X110453714Y-101926571D01*
X110260190Y-101974952D01*
X110115048Y-101974952D01*
X109921524Y-101926571D01*
X109824762Y-101878190D01*
X109728000Y-101781428D01*
X109679619Y-101636286D01*
X109679619Y-101539524D01*
X109728000Y-101394381D01*
X109776381Y-101346000D01*
X110405333Y-100184857D02*
X110405333Y-99701048D01*
X110695619Y-100281619D02*
X109679619Y-99942952D01*
X110695619Y-99604286D01*
X111082667Y-98201239D02*
X111034286Y-98249619D01*
X110889143Y-98346381D01*
X110792381Y-98394762D01*
X110647238Y-98443143D01*
X110405333Y-98491524D01*
X110211810Y-98491524D01*
X109969905Y-98443143D01*
X109824762Y-98394762D01*
X109728000Y-98346381D01*
X109582857Y-98249619D01*
X109534476Y-98201239D01*
X110695619Y-97814191D02*
X109679619Y-97814191D01*
X110598857Y-96749810D02*
X110647238Y-96798191D01*
X110695619Y-96943334D01*
X110695619Y-97040096D01*
X110647238Y-97185238D01*
X110550476Y-97282000D01*
X110453714Y-97330381D01*
X110260190Y-97378762D01*
X110115048Y-97378762D01*
X109921524Y-97330381D01*
X109824762Y-97282000D01*
X109728000Y-97185238D01*
X109679619Y-97040096D01*
X109679619Y-96943334D01*
X109728000Y-96798191D01*
X109776381Y-96749810D01*
X110695619Y-96314381D02*
X109679619Y-96314381D01*
X109679619Y-95927334D01*
X109728000Y-95830572D01*
X109776381Y-95782191D01*
X109873143Y-95733810D01*
X110018286Y-95733810D01*
X110115048Y-95782191D01*
X110163429Y-95830572D01*
X110211810Y-95927334D01*
X110211810Y-96314381D01*
X111082667Y-95395143D02*
X111034286Y-95346762D01*
X110889143Y-95250000D01*
X110792381Y-95201619D01*
X110647238Y-95153238D01*
X110405333Y-95104857D01*
X110211810Y-95104857D01*
X109969905Y-95153238D01*
X109824762Y-95201619D01*
X109728000Y-95250000D01*
X109582857Y-95346762D01*
X109534476Y-95395143D01*
X104321429Y-98733429D02*
X104369810Y-98588286D01*
X104418190Y-98539905D01*
X104514952Y-98491524D01*
X104660095Y-98491524D01*
X104756857Y-98539905D01*
X104805238Y-98588286D01*
X104853619Y-98685048D01*
X104853619Y-99072095D01*
X103837619Y-99072095D01*
X103837619Y-98733429D01*
X103886000Y-98636667D01*
X103934381Y-98588286D01*
X104031143Y-98539905D01*
X104127905Y-98539905D01*
X104224667Y-98588286D01*
X104273048Y-98636667D01*
X104321429Y-98733429D01*
X104321429Y-99072095D01*
X103583619Y-105700285D02*
X103583619Y-105119714D01*
X104599619Y-105409999D02*
X103583619Y-105409999D01*
X178259619Y-89649904D02*
X177243619Y-89649904D01*
X177243619Y-89262857D01*
X177292000Y-89166095D01*
X177340381Y-89117714D01*
X177437143Y-89069333D01*
X177582286Y-89069333D01*
X177679048Y-89117714D01*
X177727429Y-89166095D01*
X177775810Y-89262857D01*
X177775810Y-89649904D01*
X177679048Y-88488761D02*
X177630667Y-88585523D01*
X177582286Y-88633904D01*
X177485524Y-88682285D01*
X177437143Y-88682285D01*
X177340381Y-88633904D01*
X177292000Y-88585523D01*
X177243619Y-88488761D01*
X177243619Y-88295238D01*
X177292000Y-88198476D01*
X177340381Y-88150095D01*
X177437143Y-88101714D01*
X177485524Y-88101714D01*
X177582286Y-88150095D01*
X177630667Y-88198476D01*
X177679048Y-88295238D01*
X177679048Y-88488761D01*
X177727429Y-88585523D01*
X177775810Y-88633904D01*
X177872571Y-88682285D01*
X178066095Y-88682285D01*
X178162857Y-88633904D01*
X178211238Y-88585523D01*
X178259619Y-88488761D01*
X178259619Y-88295238D01*
X178211238Y-88198476D01*
X178162857Y-88150095D01*
X178066095Y-88101714D01*
X177872571Y-88101714D01*
X177775810Y-88150095D01*
X177727429Y-88198476D01*
X177679048Y-88295238D01*
X142699619Y-89649904D02*
X141683619Y-89649904D01*
X141683619Y-89262857D01*
X141732000Y-89166095D01*
X141780381Y-89117714D01*
X141877143Y-89069333D01*
X142022286Y-89069333D01*
X142119048Y-89117714D01*
X142167429Y-89166095D01*
X142215810Y-89262857D01*
X142215810Y-89649904D01*
X142699619Y-88585523D02*
X142699619Y-88391999D01*
X142651238Y-88295238D01*
X142602857Y-88246857D01*
X142457714Y-88150095D01*
X142264190Y-88101714D01*
X141877143Y-88101714D01*
X141780381Y-88150095D01*
X141732000Y-88198476D01*
X141683619Y-88295238D01*
X141683619Y-88488761D01*
X141732000Y-88585523D01*
X141780381Y-88633904D01*
X141877143Y-88682285D01*
X142119048Y-88682285D01*
X142215810Y-88633904D01*
X142264190Y-88585523D01*
X142312571Y-88488761D01*
X142312571Y-88295238D01*
X142264190Y-88198476D01*
X142215810Y-88150095D01*
X142119048Y-88101714D01*
X178259619Y-112993714D02*
X177243619Y-112993714D01*
X177243619Y-112606667D01*
X177292000Y-112509905D01*
X177340381Y-112461524D01*
X177437143Y-112413143D01*
X177582286Y-112413143D01*
X177679048Y-112461524D01*
X177727429Y-112509905D01*
X177775810Y-112606667D01*
X177775810Y-112993714D01*
X178259619Y-111445524D02*
X178259619Y-112026095D01*
X178259619Y-111735809D02*
X177243619Y-111735809D01*
X177388762Y-111832571D01*
X177485524Y-111929333D01*
X177533905Y-112026095D01*
X177243619Y-110816571D02*
X177243619Y-110719810D01*
X177292000Y-110623048D01*
X177340381Y-110574667D01*
X177437143Y-110526286D01*
X177630667Y-110477905D01*
X177872571Y-110477905D01*
X178066095Y-110526286D01*
X178162857Y-110574667D01*
X178211238Y-110623048D01*
X178259619Y-110719810D01*
X178259619Y-110816571D01*
X178211238Y-110913333D01*
X178162857Y-110961714D01*
X178066095Y-111010095D01*
X177872571Y-111058476D01*
X177630667Y-111058476D01*
X177437143Y-111010095D01*
X177340381Y-110961714D01*
X177292000Y-110913333D01*
X177243619Y-110816571D01*
X142699619Y-112993714D02*
X141683619Y-112993714D01*
X141683619Y-112606667D01*
X141732000Y-112509905D01*
X141780381Y-112461524D01*
X141877143Y-112413143D01*
X142022286Y-112413143D01*
X142119048Y-112461524D01*
X142167429Y-112509905D01*
X142215810Y-112606667D01*
X142215810Y-112993714D01*
X142699619Y-111445524D02*
X142699619Y-112026095D01*
X142699619Y-111735809D02*
X141683619Y-111735809D01*
X141828762Y-111832571D01*
X141925524Y-111929333D01*
X141973905Y-112026095D01*
X142699619Y-110477905D02*
X142699619Y-111058476D01*
X142699619Y-110768190D02*
X141683619Y-110768190D01*
X141828762Y-110864952D01*
X141925524Y-110961714D01*
X141973905Y-111058476D01*
X208449334Y-115854238D02*
X208594477Y-115902619D01*
X208836381Y-115902619D01*
X208933143Y-115854238D01*
X208981524Y-115805857D01*
X209029905Y-115709095D01*
X209029905Y-115612333D01*
X208981524Y-115515571D01*
X208933143Y-115467190D01*
X208836381Y-115418810D01*
X208642858Y-115370429D01*
X208546096Y-115322048D01*
X208497715Y-115273667D01*
X208449334Y-115176905D01*
X208449334Y-115080143D01*
X208497715Y-114983381D01*
X208546096Y-114935000D01*
X208642858Y-114886619D01*
X208884762Y-114886619D01*
X209029905Y-114935000D01*
X209368572Y-114886619D02*
X209610477Y-115902619D01*
X209804000Y-115176905D01*
X209997524Y-115902619D01*
X210239429Y-114886619D01*
X211158667Y-115902619D02*
X210578096Y-115902619D01*
X210868382Y-115902619D02*
X210868382Y-114886619D01*
X210771620Y-115031762D01*
X210674858Y-115128524D01*
X210578096Y-115176905D01*
X208739619Y-113362618D02*
X208739619Y-113169095D01*
X208788000Y-113072333D01*
X208884762Y-112975571D01*
X209078286Y-112927190D01*
X209416952Y-112927190D01*
X209610476Y-112975571D01*
X209707238Y-113072333D01*
X209755619Y-113169095D01*
X209755619Y-113362618D01*
X209707238Y-113459380D01*
X209610476Y-113556142D01*
X209416952Y-113604523D01*
X209078286Y-113604523D01*
X208884762Y-113556142D01*
X208788000Y-113459380D01*
X208739619Y-113362618D01*
X209223429Y-112153095D02*
X209223429Y-112491761D01*
X209755619Y-112491761D02*
X208739619Y-112491761D01*
X208739619Y-112007952D01*
X209223429Y-111282238D02*
X209223429Y-111620904D01*
X209755619Y-111620904D02*
X208739619Y-111620904D01*
X208739619Y-111137095D01*
X196674619Y-113023952D02*
X196674619Y-112830429D01*
X196723000Y-112733667D01*
X196819762Y-112636905D01*
X197013286Y-112588524D01*
X197351952Y-112588524D01*
X197545476Y-112636905D01*
X197642238Y-112733667D01*
X197690619Y-112830429D01*
X197690619Y-113023952D01*
X197642238Y-113120714D01*
X197545476Y-113217476D01*
X197351952Y-113265857D01*
X197013286Y-113265857D01*
X196819762Y-113217476D01*
X196723000Y-113120714D01*
X196674619Y-113023952D01*
X197690619Y-112153095D02*
X196674619Y-112153095D01*
X197690619Y-111572524D01*
X196674619Y-111572524D01*
X103583619Y-91681904D02*
X102567619Y-91681904D01*
X102567619Y-91294857D01*
X102616000Y-91198095D01*
X102664381Y-91149714D01*
X102761143Y-91101333D01*
X102906286Y-91101333D01*
X103003048Y-91149714D01*
X103051429Y-91198095D01*
X103099810Y-91294857D01*
X103099810Y-91681904D01*
X102664381Y-90714285D02*
X102616000Y-90665904D01*
X102567619Y-90569142D01*
X102567619Y-90327238D01*
X102616000Y-90230476D01*
X102664381Y-90182095D01*
X102761143Y-90133714D01*
X102857905Y-90133714D01*
X103003048Y-90182095D01*
X103583619Y-90762666D01*
X103583619Y-90133714D01*
X202389619Y-80124904D02*
X201373619Y-80124904D01*
X201373619Y-79737857D01*
X201422000Y-79641095D01*
X201470381Y-79592714D01*
X201567143Y-79544333D01*
X201712286Y-79544333D01*
X201809048Y-79592714D01*
X201857429Y-79641095D01*
X201905810Y-79737857D01*
X201905810Y-80124904D01*
X201712286Y-78673476D02*
X202389619Y-78673476D01*
X201325238Y-78915380D02*
X202050952Y-79157285D01*
X202050952Y-78528333D01*
X208800096Y-121109619D02*
X208800096Y-120093619D01*
X209187143Y-120093619D01*
X209283905Y-120142000D01*
X209332286Y-120190381D01*
X209380667Y-120287143D01*
X209380667Y-120432286D01*
X209332286Y-120529048D01*
X209283905Y-120577429D01*
X209187143Y-120625810D01*
X208800096Y-120625810D01*
X210251524Y-120093619D02*
X210058001Y-120093619D01*
X209961239Y-120142000D01*
X209912858Y-120190381D01*
X209816096Y-120335524D01*
X209767715Y-120529048D01*
X209767715Y-120916095D01*
X209816096Y-121012857D01*
X209864477Y-121061238D01*
X209961239Y-121109619D01*
X210154762Y-121109619D01*
X210251524Y-121061238D01*
X210299905Y-121012857D01*
X210348286Y-120916095D01*
X210348286Y-120674190D01*
X210299905Y-120577429D01*
X210251524Y-120529048D01*
X210154762Y-120480667D01*
X209961239Y-120480667D01*
X209864477Y-120529048D01*
X209816096Y-120577429D01*
X209767715Y-120674190D01*
%LPC*%
D16*
X118110000Y-123825000D03*
X118110000Y-118745000D03*
X120650000Y-123825000D03*
X120650000Y-118745000D03*
X123190000Y-123825000D03*
X123190000Y-118745000D03*
X125730000Y-123825000D03*
X125730000Y-118745000D03*
X128270000Y-123825000D03*
X128270000Y-118745000D03*
X130810000Y-123825000D03*
X130810000Y-118745000D03*
X133350000Y-123825000D03*
X133350000Y-118745000D03*
X135890000Y-123825000D03*
X135890000Y-118745000D03*
X153670000Y-123825000D03*
X153670000Y-118745000D03*
X156210000Y-123825000D03*
X156210000Y-118745000D03*
X158750000Y-123825000D03*
X158750000Y-118745000D03*
X161290000Y-123825000D03*
X161290000Y-118745000D03*
X163830000Y-123825000D03*
X163830000Y-118745000D03*
X166370000Y-123825000D03*
X166370000Y-118745000D03*
X168910000Y-123825000D03*
X168910000Y-118745000D03*
X171450000Y-123825000D03*
X171450000Y-118745000D03*
X118110000Y-100965000D03*
X118110000Y-95885000D03*
X120650000Y-100965000D03*
X120650000Y-95885000D03*
X123190000Y-100965000D03*
X123190000Y-95885000D03*
X125730000Y-100965000D03*
X125730000Y-95885000D03*
X128270000Y-100965000D03*
X128270000Y-95885000D03*
X130810000Y-100965000D03*
X130810000Y-95885000D03*
X133350000Y-100965000D03*
X133350000Y-95885000D03*
X135890000Y-100965000D03*
X135890000Y-95885000D03*
X153670000Y-100965000D03*
X153670000Y-95885000D03*
X156210000Y-100965000D03*
X156210000Y-95885000D03*
X158750000Y-100965000D03*
X158750000Y-95885000D03*
X161290000Y-100965000D03*
X161290000Y-95885000D03*
X163830000Y-100965000D03*
X163830000Y-95885000D03*
X166370000Y-100965000D03*
X166370000Y-95885000D03*
X168910000Y-100965000D03*
X168910000Y-95885000D03*
X171450000Y-100965000D03*
X171450000Y-95885000D03*
D17*
X204470000Y-93980000D03*
X199390000Y-93980000D03*
D18*
X103505000Y-113030000D03*
X100965000Y-113030000D03*
X106045000Y-113030000D03*
D19*
X208457800Y-102870000D03*
D20*
X204952600Y-102870000D03*
D21*
X199466200Y-102870000D03*
D22*
X206451200Y-98374200D03*
X206451200Y-107365800D03*
D23*
X99060000Y-107950000D03*
X99060000Y-97790000D03*
D17*
X105156000Y-102870000D03*
D16*
X107950000Y-102870000D03*
X107950000Y-100076000D03*
X107950000Y-105664000D03*
D24*
X171450000Y-85902800D03*
X171450000Y-91897200D03*
X168910000Y-85902800D03*
X168910000Y-91897200D03*
X166370000Y-85902800D03*
X166370000Y-91897200D03*
X163830000Y-85902800D03*
X163830000Y-91897200D03*
X161290000Y-85902800D03*
X161290000Y-91897200D03*
X158750000Y-85902800D03*
X158750000Y-91897200D03*
X156210000Y-85902800D03*
X156210000Y-91897200D03*
X153670000Y-85902800D03*
X153670000Y-91897200D03*
X135890000Y-85902800D03*
X135890000Y-91897200D03*
X133350000Y-85902800D03*
X133350000Y-91897200D03*
X130810000Y-85902800D03*
X130810000Y-91897200D03*
X128270000Y-85902800D03*
X128270000Y-91897200D03*
X125730000Y-85902800D03*
X125730000Y-91897200D03*
X123190000Y-85902800D03*
X123190000Y-91897200D03*
X120650000Y-85902800D03*
X120650000Y-91897200D03*
X118110000Y-85902800D03*
X118110000Y-91897200D03*
X171450000Y-108762800D03*
X171450000Y-114757200D03*
X168910000Y-108762800D03*
X168910000Y-114757200D03*
X166370000Y-108762800D03*
X166370000Y-114757200D03*
X163830000Y-108762800D03*
X163830000Y-114757200D03*
X161290000Y-108762800D03*
X161290000Y-114757200D03*
X158750000Y-108762800D03*
X158750000Y-114757200D03*
X156210000Y-108762800D03*
X156210000Y-114757200D03*
X153670000Y-108762800D03*
X153670000Y-114757200D03*
X135890000Y-108762800D03*
X135890000Y-114757200D03*
X133350000Y-108762800D03*
X133350000Y-114757200D03*
X130810000Y-108762800D03*
X130810000Y-114757200D03*
X128270000Y-108762800D03*
X128270000Y-114757200D03*
X125730000Y-108762800D03*
X125730000Y-114757200D03*
X123190000Y-108762800D03*
X123190000Y-114757200D03*
X120650000Y-108762800D03*
X120650000Y-114757200D03*
X118110000Y-108762800D03*
X118110000Y-114757200D03*
D25*
X111760000Y-127000000D03*
X113030000Y-78740000D03*
X194310000Y-127000000D03*
X187960000Y-78740000D03*
D18*
X125730000Y-127000000D03*
X128270000Y-127000000D03*
X130810000Y-127000000D03*
X133350000Y-127000000D03*
X135890000Y-127000000D03*
X138430000Y-127000000D03*
X140970000Y-127000000D03*
X143510000Y-127000000D03*
X148590000Y-127000000D03*
X151130000Y-127000000D03*
X153670000Y-127000000D03*
X156210000Y-127000000D03*
X158750000Y-127000000D03*
X161290000Y-127000000D03*
X163830000Y-127000000D03*
X166370000Y-127000000D03*
X171450000Y-127000000D03*
X173990000Y-127000000D03*
X176530000Y-127000000D03*
X179070000Y-127000000D03*
X181610000Y-127000000D03*
X184150000Y-127000000D03*
X186690000Y-127000000D03*
X189230000Y-127000000D03*
X116586000Y-78740000D03*
X119126000Y-78740000D03*
X121666000Y-78740000D03*
X124206000Y-78740000D03*
X126746000Y-78740000D03*
X129286000Y-78740000D03*
X131826000Y-78740000D03*
X134366000Y-78740000D03*
X136906000Y-78740000D03*
X139446000Y-78740000D03*
X143510000Y-78740000D03*
X161290000Y-78740000D03*
X158750000Y-78740000D03*
X156210000Y-78740000D03*
X153670000Y-78740000D03*
X151130000Y-78740000D03*
X148590000Y-78740000D03*
X146050000Y-78740000D03*
X166370000Y-78740000D03*
X168910000Y-78740000D03*
X171450000Y-78740000D03*
X173990000Y-78740000D03*
X176530000Y-78740000D03*
X179070000Y-78740000D03*
X181610000Y-78740000D03*
X184150000Y-78740000D03*
X191770000Y-78232000D03*
X194310000Y-78232000D03*
D26*
X191262000Y-81280000D03*
X194818000Y-81280000D03*
X191262000Y-83820000D03*
X194818000Y-83820000D03*
X191262000Y-86360000D03*
X194818000Y-86360000D03*
X191262000Y-88900000D03*
X194818000Y-88900000D03*
X191262000Y-91440000D03*
X194818000Y-91440000D03*
X191262000Y-93980000D03*
X194818000Y-93980000D03*
X191262000Y-96520000D03*
X194818000Y-96520000D03*
X191262000Y-99060000D03*
X194818000Y-99060000D03*
X191262000Y-101600000D03*
X194818000Y-101600000D03*
X191262000Y-104140000D03*
X194818000Y-104140000D03*
X191262000Y-106680000D03*
X194818000Y-106680000D03*
X191262000Y-109220000D03*
X194818000Y-109220000D03*
X191262000Y-111760000D03*
X194818000Y-111760000D03*
X191262000Y-114300000D03*
X194818000Y-114300000D03*
X191262000Y-116840000D03*
X194818000Y-116840000D03*
X191262000Y-119380000D03*
X194818000Y-119380000D03*
X191262000Y-121920000D03*
X194818000Y-121920000D03*
D27*
X200660000Y-113385600D03*
X205740000Y-113385600D03*
D28*
X102870000Y-87757000D03*
X102870000Y-85217000D03*
X102870000Y-82677000D03*
D29*
X99695000Y-90170000D03*
X99695000Y-80264000D03*
D30*
X96139000Y-91211400D03*
X96139000Y-79222600D03*
D29*
X208788000Y-82931000D03*
X198882000Y-82931000D03*
D28*
X202184000Y-82550000D03*
X202184000Y-85090000D03*
X202184000Y-87630000D03*
D29*
X205359000Y-80137000D03*
X205359000Y-90043000D03*
D30*
X208915000Y-79095600D03*
X208915000Y-91084400D03*
D29*
X198882000Y-122809000D03*
X208788000Y-122809000D03*
D31*
X205105000Y-120904000D03*
X202565000Y-120904000D03*
D29*
X207518000Y-124079000D03*
X200152000Y-124079000D03*
D32*
X208559400Y-127635000D03*
X199110600Y-127635000D03*
M02*
