M48
;DRILL file {KiCad 4.1.0-alpha+201607250105+6992~46~ubuntu16.04.1-product} date Mon Jul 25 10:02:07 2016
;FORMAT={-:-/ absolute / inch / decimal}
FMAT,2
INCH,TZ
T1C0.025
T2C0.031
T3C0.038
T4C0.043
T5C0.130
%
G90
G05
M72
T1
X4.45Y-3.962
X4.7029Y-3.9351
X5.0054Y-4.1856
X5.1739Y-3.9004
T2
X3.361Y-3.825
X3.361Y-4.025
T3
X3.25Y-3.825
X3.25Y-4.025
X3.8Y-4.2
X3.8Y-4.4
X3.9Y-4.2
X3.9Y-4.4
X4.Y-4.2
X4.Y-4.4
X4.1Y-4.2
X4.1Y-4.4
X4.2Y-4.2
X4.2Y-4.4
X4.3Y-4.2
X4.3Y-4.4
X4.4Y-4.2
X4.4Y-4.4
X4.5Y-4.2
X4.5Y-4.4
T4
X3.Y-3.225
X3.Y-4.625
X3.1Y-3.225
X3.1Y-4.625
X3.2Y-3.225
X3.2Y-4.625
X3.3Y-3.225
X3.3Y-4.625
X3.4Y-3.225
X3.4Y-4.625
X3.5Y-3.225
X3.5Y-4.625
X3.6Y-3.225
X3.6Y-4.625
X3.7Y-3.225
X3.7Y-4.625
X3.8Y-3.225
X3.8Y-4.625
X3.9Y-3.225
X3.9Y-4.625
X4.Y-3.225
X4.Y-4.625
X4.1Y-3.225
X4.1Y-4.625
X4.2Y-3.225
X4.2Y-4.625
X4.3Y-3.225
X4.3Y-4.625
X4.4Y-3.225
X4.4Y-4.625
X4.5Y-3.225
X4.5Y-4.625
T5
X3.05Y-3.425
X3.05Y-4.425
X4.65Y-3.275
X4.65Y-4.575
T0
M30
