G04 #@! TF.FileFunction,Legend,Bot*
%FSLAX46Y46*%
G04 Gerber Fmt 4.6, Leading zero omitted, Abs format (unit mm)*
G04 Created by KiCad (PCBNEW 4.1.0-alpha+201608010716+6997~46~ubuntu16.04.1-product) date Mon Aug  8 14:57:05 2016*
%MOMM*%
%LPD*%
G01*
G04 APERTURE LIST*
%ADD10C,0.100000*%
%ADD11C,0.228600*%
%ADD12C,0.127000*%
%ADD13C,0.381000*%
%ADD14C,0.254000*%
%ADD15R,1.670000X2.940000*%
%ADD16O,1.924000X2.432000*%
%ADD17O,2.559000X2.051000*%
%ADD18R,1.930000X0.550000*%
%ADD19O,2.254200X2.940000*%
%ADD20R,2.254200X2.940000*%
%ADD21C,3.956000*%
G04 APERTURE END LIST*
D10*
D11*
X143510000Y-79375000D02*
X73660000Y-79375000D01*
X143510000Y-120015000D02*
X143510000Y-79375000D01*
X73660000Y-120015000D02*
X143510000Y-120015000D01*
X73660000Y-79375000D02*
X73660000Y-120015000D01*
D12*
X86487000Y-90043000D02*
X88011000Y-90043000D01*
X88011000Y-90043000D02*
X88011000Y-92837000D01*
X88011000Y-92837000D02*
X86487000Y-92837000D01*
X84963000Y-92837000D02*
X83439000Y-92837000D01*
X83439000Y-92837000D02*
X83439000Y-90043000D01*
X83439000Y-90043000D02*
X84963000Y-90043000D01*
X128143000Y-109347000D02*
X126619000Y-109347000D01*
X126619000Y-109347000D02*
X126619000Y-106553000D01*
X126619000Y-106553000D02*
X128143000Y-106553000D01*
X129667000Y-106553000D02*
X131191000Y-106553000D01*
X131191000Y-106553000D02*
X131191000Y-109347000D01*
X131191000Y-109347000D02*
X129667000Y-109347000D01*
D13*
X133655000Y-90020000D02*
G75*
G03X133655000Y-90020000I-750000J0D01*
G01*
X134405000Y-89520000D02*
X134405000Y-104520000D01*
X134405000Y-104520000D02*
X123405000Y-104520000D01*
X123405000Y-104520000D02*
X123405000Y-88520000D01*
X123405000Y-88520000D02*
X133405000Y-88520000D01*
X133405000Y-88520000D02*
X134405000Y-89520000D01*
X74930000Y-116205000D02*
X74930000Y-118745000D01*
X74930000Y-118745000D02*
X115570000Y-118745000D01*
X115570000Y-118745000D02*
X115570000Y-116205000D01*
X115570000Y-116205000D02*
X74930000Y-116205000D01*
X74930000Y-80645000D02*
X74930000Y-83185000D01*
X74930000Y-83185000D02*
X115570000Y-83185000D01*
X115570000Y-83185000D02*
X115570000Y-80645000D01*
X115570000Y-80645000D02*
X74930000Y-80645000D01*
D14*
X85894333Y-89516857D02*
X85942714Y-89565238D01*
X86087857Y-89613619D01*
X86184619Y-89613619D01*
X86329761Y-89565238D01*
X86426523Y-89468476D01*
X86474904Y-89371714D01*
X86523285Y-89178190D01*
X86523285Y-89033047D01*
X86474904Y-88839523D01*
X86426523Y-88742761D01*
X86329761Y-88646000D01*
X86184619Y-88597619D01*
X86087857Y-88597619D01*
X85942714Y-88646000D01*
X85894333Y-88694380D01*
X84926714Y-89613619D02*
X85507285Y-89613619D01*
X85217000Y-89613619D02*
X85217000Y-88597619D01*
X85313761Y-88742761D01*
X85410523Y-88839523D01*
X85507285Y-88887904D01*
X86813571Y-94185619D02*
X87394142Y-94185619D01*
X87103857Y-94185619D02*
X87103857Y-93169619D01*
X87200619Y-93314761D01*
X87297380Y-93411523D01*
X87394142Y-93459904D01*
X86184619Y-93169619D02*
X86087857Y-93169619D01*
X85991095Y-93218000D01*
X85942714Y-93266380D01*
X85894333Y-93363142D01*
X85845952Y-93556666D01*
X85845952Y-93798571D01*
X85894333Y-93992095D01*
X85942714Y-94088857D01*
X85991095Y-94137238D01*
X86087857Y-94185619D01*
X86184619Y-94185619D01*
X86281380Y-94137238D01*
X86329761Y-94088857D01*
X86378142Y-93992095D01*
X86426523Y-93798571D01*
X86426523Y-93556666D01*
X86378142Y-93363142D01*
X86329761Y-93266380D01*
X86281380Y-93218000D01*
X86184619Y-93169619D01*
X84975095Y-93508285D02*
X84975095Y-94185619D01*
X85410523Y-93508285D02*
X85410523Y-94040476D01*
X85362142Y-94137238D01*
X85265380Y-94185619D01*
X85120238Y-94185619D01*
X85023476Y-94137238D01*
X84975095Y-94088857D01*
X84152619Y-93653428D02*
X84491285Y-93653428D01*
X84491285Y-94185619D02*
X84491285Y-93169619D01*
X84007476Y-93169619D01*
X129074333Y-110598857D02*
X129122714Y-110647238D01*
X129267857Y-110695619D01*
X129364619Y-110695619D01*
X129509761Y-110647238D01*
X129606523Y-110550476D01*
X129654904Y-110453714D01*
X129703285Y-110260190D01*
X129703285Y-110115047D01*
X129654904Y-109921523D01*
X129606523Y-109824761D01*
X129509761Y-109728000D01*
X129364619Y-109679619D01*
X129267857Y-109679619D01*
X129122714Y-109728000D01*
X129074333Y-109776380D01*
X128687285Y-109776380D02*
X128638904Y-109728000D01*
X128542142Y-109679619D01*
X128300238Y-109679619D01*
X128203476Y-109728000D01*
X128155095Y-109776380D01*
X128106714Y-109873142D01*
X128106714Y-109969904D01*
X128155095Y-110115047D01*
X128735666Y-110695619D01*
X128106714Y-110695619D01*
X130574142Y-105107619D02*
X130477380Y-105107619D01*
X130380619Y-105156000D01*
X130332238Y-105204380D01*
X130283857Y-105301142D01*
X130235476Y-105494666D01*
X130235476Y-105736571D01*
X130283857Y-105930095D01*
X130332238Y-106026857D01*
X130380619Y-106075238D01*
X130477380Y-106123619D01*
X130574142Y-106123619D01*
X130670904Y-106075238D01*
X130719285Y-106026857D01*
X130767666Y-105930095D01*
X130816047Y-105736571D01*
X130816047Y-105494666D01*
X130767666Y-105301142D01*
X130719285Y-105204380D01*
X130670904Y-105156000D01*
X130574142Y-105107619D01*
X129800047Y-106026857D02*
X129751666Y-106075238D01*
X129800047Y-106123619D01*
X129848428Y-106075238D01*
X129800047Y-106026857D01*
X129800047Y-106123619D01*
X128784047Y-106123619D02*
X129364619Y-106123619D01*
X129074333Y-106123619D02*
X129074333Y-105107619D01*
X129171095Y-105252761D01*
X129267857Y-105349523D01*
X129364619Y-105397904D01*
X127913190Y-105446285D02*
X127913190Y-106123619D01*
X128348619Y-105446285D02*
X128348619Y-105978476D01*
X128300238Y-106075238D01*
X128203476Y-106123619D01*
X128058333Y-106123619D01*
X127961571Y-106075238D01*
X127913190Y-106026857D01*
X127090714Y-105591428D02*
X127429380Y-105591428D01*
X127429380Y-106123619D02*
X127429380Y-105107619D01*
X126945571Y-105107619D01*
X136429095Y-89213619D02*
X136429095Y-90036095D01*
X136380714Y-90132857D01*
X136332333Y-90181238D01*
X136235571Y-90229619D01*
X136042047Y-90229619D01*
X135945285Y-90181238D01*
X135896904Y-90132857D01*
X135848523Y-90036095D01*
X135848523Y-89213619D01*
X134832523Y-90229619D02*
X135413095Y-90229619D01*
X135122809Y-90229619D02*
X135122809Y-89213619D01*
X135219571Y-89358761D01*
X135316333Y-89455523D01*
X135413095Y-89503904D01*
X128348619Y-92915619D02*
X128348619Y-93496190D01*
X129364619Y-93205904D02*
X128348619Y-93205904D01*
X129364619Y-94318666D02*
X129364619Y-93834857D01*
X128348619Y-93834857D01*
X128832428Y-94657333D02*
X128832428Y-94995999D01*
X129364619Y-95141142D02*
X129364619Y-94657333D01*
X128348619Y-94657333D01*
X128348619Y-95141142D01*
X128348619Y-95479809D02*
X128348619Y-96157142D01*
X129364619Y-95721714D01*
X128445380Y-96495809D02*
X128397000Y-96544190D01*
X128348619Y-96640952D01*
X128348619Y-96882857D01*
X128397000Y-96979619D01*
X128445380Y-97027999D01*
X128542142Y-97076380D01*
X128638904Y-97076380D01*
X128784047Y-97027999D01*
X129364619Y-96447428D01*
X129364619Y-97076380D01*
X128348619Y-97415047D02*
X128348619Y-98043999D01*
X128735666Y-97705333D01*
X128735666Y-97850476D01*
X128784047Y-97947238D01*
X128832428Y-97995619D01*
X128929190Y-98043999D01*
X129171095Y-98043999D01*
X129267857Y-97995619D01*
X129316238Y-97947238D01*
X129364619Y-97850476D01*
X129364619Y-97560190D01*
X129316238Y-97463428D01*
X129267857Y-97415047D01*
X128348619Y-98672952D02*
X128348619Y-98769714D01*
X128397000Y-98866476D01*
X128445380Y-98914857D01*
X128542142Y-98963238D01*
X128735666Y-99011619D01*
X128977571Y-99011619D01*
X129171095Y-98963238D01*
X129267857Y-98914857D01*
X129316238Y-98866476D01*
X129364619Y-98769714D01*
X129364619Y-98672952D01*
X129316238Y-98576190D01*
X129267857Y-98527809D01*
X129171095Y-98479428D01*
X128977571Y-98431047D01*
X128735666Y-98431047D01*
X128542142Y-98479428D01*
X128445380Y-98527809D01*
X128397000Y-98576190D01*
X128348619Y-98672952D01*
X129364619Y-100027619D02*
X128880809Y-99688952D01*
X129364619Y-99447047D02*
X128348619Y-99447047D01*
X128348619Y-99834095D01*
X128397000Y-99930857D01*
X128445380Y-99979238D01*
X128542142Y-100027619D01*
X128687285Y-100027619D01*
X128784047Y-99979238D01*
X128832428Y-99930857D01*
X128880809Y-99834095D01*
X128880809Y-99447047D01*
%LPC*%
D15*
X87249000Y-91440000D03*
X84201000Y-91440000D03*
X127381000Y-107950000D03*
X130429000Y-107950000D03*
D16*
X84455000Y-102235000D03*
X84455000Y-97155000D03*
X117475000Y-108585000D03*
X117475000Y-103505000D03*
X114935000Y-108585000D03*
X114935000Y-103505000D03*
X112395000Y-108585000D03*
X112395000Y-103505000D03*
X109855000Y-108585000D03*
X109855000Y-103505000D03*
X107315000Y-108585000D03*
X107315000Y-103505000D03*
X104775000Y-108585000D03*
X104775000Y-103505000D03*
X102235000Y-108585000D03*
X102235000Y-103505000D03*
X99695000Y-108585000D03*
X99695000Y-103505000D03*
D17*
X87274400Y-97155000D03*
X87274400Y-102235000D03*
D18*
X135645000Y-90995000D03*
X135645000Y-91645000D03*
X135645000Y-92295000D03*
X135645000Y-92945000D03*
X135645000Y-93595000D03*
X135645000Y-94245000D03*
X135645000Y-94895000D03*
X135645000Y-95545000D03*
X135645000Y-96195000D03*
X135645000Y-96845000D03*
X135645000Y-97495000D03*
X135645000Y-98145000D03*
X135645000Y-98795000D03*
X135645000Y-99445000D03*
X135645000Y-100095000D03*
X135645000Y-100745000D03*
X135645000Y-101395000D03*
X135645000Y-102045000D03*
X122165000Y-102045000D03*
X122165000Y-101395000D03*
X122165000Y-100745000D03*
X122165000Y-100095000D03*
X122165000Y-99445000D03*
X122165000Y-98795000D03*
X122165000Y-98145000D03*
X122165000Y-97495000D03*
X122165000Y-96845000D03*
X122165000Y-96195000D03*
X122165000Y-95545000D03*
X122165000Y-94895000D03*
X122165000Y-94245000D03*
X122165000Y-93595000D03*
X122165000Y-92945000D03*
X122165000Y-92295000D03*
X122165000Y-91645000D03*
X122165000Y-90995000D03*
D19*
X78740000Y-81915000D03*
X81280000Y-81915000D03*
D20*
X76200000Y-81915000D03*
D19*
X83820000Y-81915000D03*
X86360000Y-81915000D03*
X88900000Y-81915000D03*
X91440000Y-81915000D03*
X93980000Y-81915000D03*
X96520000Y-81915000D03*
X99060000Y-81915000D03*
X101600000Y-81915000D03*
X104140000Y-81915000D03*
X106680000Y-81915000D03*
X109220000Y-81915000D03*
X111760000Y-81915000D03*
X114300000Y-81915000D03*
X114300000Y-117475000D03*
X111760000Y-117475000D03*
X109220000Y-117475000D03*
X106680000Y-117475000D03*
X104140000Y-117475000D03*
X101600000Y-117475000D03*
X99060000Y-117475000D03*
X96520000Y-117475000D03*
X93980000Y-117475000D03*
X91440000Y-117475000D03*
X88900000Y-117475000D03*
X86360000Y-117475000D03*
X83820000Y-117475000D03*
X81280000Y-117475000D03*
X78740000Y-117475000D03*
X76200000Y-117475000D03*
D21*
X77470000Y-86995000D03*
X77470000Y-112395000D03*
X118110000Y-117475000D03*
X118110000Y-81915000D03*
M02*
