G04 #@! TF.FileFunction,Copper,L1,Top,Signal*
%FSLAX46Y46*%
G04 Gerber Fmt 4.6, Leading zero omitted, Abs format (unit mm)*
G04 Created by KiCad (PCBNEW 4.1.0-alpha+201608010716+6997~46~ubuntu16.04.1-product) date Mon Aug  8 14:57:05 2016*
%MOMM*%
%LPD*%
G01*
G04 APERTURE LIST*
%ADD10C,0.100000*%
%ADD11C,0.228600*%
%ADD12O,1.524000X2.032000*%
%ADD13R,1.016000X4.495800*%
%ADD14O,2.159000X1.651000*%
%ADD15O,1.854200X2.540000*%
%ADD16R,1.854200X2.540000*%
%ADD17C,3.556000*%
%ADD18C,0.889000*%
%ADD19C,0.406400*%
%ADD20C,1.016000*%
%ADD21C,0.508000*%
%ADD22C,0.203200*%
G04 APERTURE END LIST*
D10*
D11*
X143510000Y-79375000D02*
X73660000Y-79375000D01*
X143510000Y-120015000D02*
X143510000Y-79375000D01*
X73660000Y-120015000D02*
X143510000Y-120015000D01*
X73660000Y-79375000D02*
X73660000Y-120015000D01*
D12*
X84455000Y-102235000D03*
X84455000Y-97155000D03*
X117475000Y-108585000D03*
X117475000Y-103505000D03*
X114935000Y-108585000D03*
X114935000Y-103505000D03*
X112395000Y-108585000D03*
X112395000Y-103505000D03*
X109855000Y-108585000D03*
X109855000Y-103505000D03*
X107315000Y-108585000D03*
X107315000Y-103505000D03*
X104775000Y-108585000D03*
X104775000Y-103505000D03*
X102235000Y-108585000D03*
X102235000Y-103505000D03*
X99695000Y-108585000D03*
X99695000Y-103505000D03*
D13*
X117475000Y-93522800D03*
X117475000Y-99517200D03*
X114935000Y-93522800D03*
X114935000Y-99517200D03*
X112395000Y-93522800D03*
X112395000Y-99517200D03*
X109855000Y-93522800D03*
X109855000Y-99517200D03*
X107315000Y-93522800D03*
X107315000Y-99517200D03*
X104775000Y-93522800D03*
X104775000Y-99517200D03*
X102235000Y-93522800D03*
X102235000Y-99517200D03*
X99695000Y-93522800D03*
X99695000Y-99517200D03*
D14*
X87274400Y-97155000D03*
X87274400Y-102235000D03*
D15*
X78740000Y-81915000D03*
X81280000Y-81915000D03*
D16*
X76200000Y-81915000D03*
D15*
X83820000Y-81915000D03*
X86360000Y-81915000D03*
X88900000Y-81915000D03*
X91440000Y-81915000D03*
X93980000Y-81915000D03*
X96520000Y-81915000D03*
X99060000Y-81915000D03*
X101600000Y-81915000D03*
X104140000Y-81915000D03*
X106680000Y-81915000D03*
X109220000Y-81915000D03*
X111760000Y-81915000D03*
X114300000Y-81915000D03*
X114300000Y-117475000D03*
X111760000Y-117475000D03*
X109220000Y-117475000D03*
X106680000Y-117475000D03*
X104140000Y-117475000D03*
X101600000Y-117475000D03*
X99060000Y-117475000D03*
X96520000Y-117475000D03*
X93980000Y-117475000D03*
X91440000Y-117475000D03*
X88900000Y-117475000D03*
X86360000Y-117475000D03*
X83820000Y-117475000D03*
X81280000Y-117475000D03*
X78740000Y-117475000D03*
X76200000Y-117475000D03*
D17*
X77470000Y-86995000D03*
X77470000Y-112395000D03*
X118110000Y-117475000D03*
X118110000Y-81915000D03*
D18*
X129986500Y-95662300D03*
X133929400Y-93615700D03*
X123638300Y-94616300D03*
X119805000Y-94611200D03*
X132495100Y-94106700D03*
X128002300Y-94802200D03*
X131484300Y-95094500D03*
X123894600Y-100549500D03*
D19*
X79997300Y-93789500D02*
X83362800Y-97155000D01*
X79997300Y-81915000D02*
X79997300Y-93789500D01*
X78740000Y-81915000D02*
X79997300Y-81915000D01*
X84455000Y-97155000D02*
X83362800Y-97155000D01*
D20*
X102235000Y-93522800D02*
X104775000Y-93522800D01*
X104775000Y-93522800D02*
X107315000Y-93522800D01*
X107315000Y-93522800D02*
X109855000Y-93522800D01*
X109855000Y-93522800D02*
X112395000Y-93522800D01*
X112395000Y-93522800D02*
X114935000Y-93522800D01*
X114935000Y-93522800D02*
X117475000Y-93522800D01*
X99695000Y-93522800D02*
X102235000Y-93522800D01*
X89318800Y-93522800D02*
X87274400Y-95567200D01*
X99695000Y-93522800D02*
X89318800Y-93522800D01*
X87274400Y-97155000D02*
X87274400Y-95567200D01*
D21*
X84455000Y-102235000D02*
X87274400Y-102235000D01*
X99695000Y-108585000D02*
X102235000Y-108585000D01*
X102235000Y-108585000D02*
X104775000Y-108585000D01*
X104775000Y-108585000D02*
X107315000Y-108585000D01*
X107315000Y-108585000D02*
X109855000Y-108585000D01*
X109855000Y-108585000D02*
X112395000Y-108585000D01*
X112395000Y-108585000D02*
X114935000Y-108585000D01*
X114935000Y-108585000D02*
X117475000Y-108585000D01*
D19*
X117475000Y-99517200D02*
X117475000Y-100161700D01*
X117475000Y-100161700D02*
X117475000Y-103505000D01*
X118345100Y-99291600D02*
X117475000Y-100161700D01*
X126357200Y-99291600D02*
X118345100Y-99291600D01*
X129986500Y-95662300D02*
X126357200Y-99291600D01*
X114935000Y-99517200D02*
X114935000Y-103505000D01*
X114935000Y-103505000D02*
X116027200Y-103505000D01*
X133929400Y-93759000D02*
X133929400Y-93615700D01*
X127888500Y-99799900D02*
X133929400Y-93759000D01*
X122962500Y-99799900D02*
X127888500Y-99799900D01*
X117920700Y-104841700D02*
X122962500Y-99799900D01*
X116954300Y-104841700D02*
X117920700Y-104841700D01*
X116027200Y-103914600D02*
X116954300Y-104841700D01*
X116027200Y-103505000D02*
X116027200Y-103914600D01*
X112395000Y-99517200D02*
X112395000Y-103505000D01*
X109855000Y-99517200D02*
X109855000Y-103505000D01*
X107315000Y-99517200D02*
X107315000Y-103505000D01*
X104775000Y-99517200D02*
X104775000Y-103505000D01*
X102235000Y-99517200D02*
X102235000Y-103505000D01*
X102235000Y-99517200D02*
X102235000Y-96939100D01*
X121315500Y-96939100D02*
X102235000Y-96939100D01*
X123638300Y-94616300D02*
X121315500Y-96939100D01*
X99695000Y-99517200D02*
X99695000Y-103505000D01*
X99695000Y-99517200D02*
X99695000Y-96939100D01*
X117985500Y-96430700D02*
X119805000Y-94611200D01*
X100203400Y-96430700D02*
X117985500Y-96430700D01*
X99695000Y-96939100D02*
X100203400Y-96430700D01*
X86360000Y-81915000D02*
X87617300Y-81915000D01*
X123689100Y-85300700D02*
X132495100Y-94106700D01*
X115522100Y-85300700D02*
X123689100Y-85300700D01*
X113030000Y-82808600D02*
X115522100Y-85300700D01*
X113030000Y-81086700D02*
X113030000Y-82808600D01*
X112252900Y-80309600D02*
X113030000Y-81086700D01*
X88358300Y-80309600D02*
X112252900Y-80309600D01*
X87617300Y-81050600D02*
X88358300Y-80309600D01*
X87617300Y-81915000D02*
X87617300Y-81050600D01*
X88900000Y-81915000D02*
X90157300Y-81915000D01*
X123852100Y-90652000D02*
X128002300Y-94802200D01*
X98029900Y-90652000D02*
X123852100Y-90652000D01*
X90157300Y-82779400D02*
X98029900Y-90652000D01*
X90157300Y-81915000D02*
X90157300Y-82779400D01*
X122630000Y-86240200D02*
X131484300Y-95094500D01*
X111398100Y-86240200D02*
X122630000Y-86240200D01*
X107937300Y-82779400D02*
X111398100Y-86240200D01*
X107937300Y-81915000D02*
X107937300Y-82779400D01*
X106680000Y-81915000D02*
X107937300Y-81915000D01*
X123894600Y-105340400D02*
X123894600Y-100549500D01*
X113017300Y-116217700D02*
X123894600Y-105340400D01*
X113017300Y-117475000D02*
X113017300Y-116217700D01*
X111760000Y-117475000D02*
X113017300Y-117475000D01*
D22*
G36*
X143090900Y-119595900D02*
X74079100Y-119595900D01*
X74079100Y-117101248D01*
X74968100Y-117101248D01*
X74968100Y-117848752D01*
X75061873Y-118320180D01*
X75328915Y-118719837D01*
X75728572Y-118986879D01*
X76200000Y-119080652D01*
X76671428Y-118986879D01*
X77071085Y-118719837D01*
X77338127Y-118320180D01*
X77431900Y-117848752D01*
X77431900Y-117101248D01*
X77508100Y-117101248D01*
X77508100Y-117848752D01*
X77601873Y-118320180D01*
X77868915Y-118719837D01*
X78268572Y-118986879D01*
X78740000Y-119080652D01*
X79211428Y-118986879D01*
X79611085Y-118719837D01*
X79878127Y-118320180D01*
X79971900Y-117848752D01*
X79971900Y-117101248D01*
X80048100Y-117101248D01*
X80048100Y-117848752D01*
X80141873Y-118320180D01*
X80408915Y-118719837D01*
X80808572Y-118986879D01*
X81280000Y-119080652D01*
X81751428Y-118986879D01*
X82151085Y-118719837D01*
X82418127Y-118320180D01*
X82511900Y-117848752D01*
X82511900Y-117101248D01*
X82588100Y-117101248D01*
X82588100Y-117848752D01*
X82681873Y-118320180D01*
X82948915Y-118719837D01*
X83348572Y-118986879D01*
X83820000Y-119080652D01*
X84291428Y-118986879D01*
X84691085Y-118719837D01*
X84958127Y-118320180D01*
X85051900Y-117848752D01*
X85051900Y-117101248D01*
X85128100Y-117101248D01*
X85128100Y-117848752D01*
X85221873Y-118320180D01*
X85488915Y-118719837D01*
X85888572Y-118986879D01*
X86360000Y-119080652D01*
X86831428Y-118986879D01*
X87231085Y-118719837D01*
X87498127Y-118320180D01*
X87591900Y-117848752D01*
X87591900Y-117101248D01*
X87668100Y-117101248D01*
X87668100Y-117848752D01*
X87761873Y-118320180D01*
X88028915Y-118719837D01*
X88428572Y-118986879D01*
X88900000Y-119080652D01*
X89371428Y-118986879D01*
X89771085Y-118719837D01*
X90038127Y-118320180D01*
X90131900Y-117848752D01*
X90131900Y-117101248D01*
X90208100Y-117101248D01*
X90208100Y-117848752D01*
X90301873Y-118320180D01*
X90568915Y-118719837D01*
X90968572Y-118986879D01*
X91440000Y-119080652D01*
X91911428Y-118986879D01*
X92311085Y-118719837D01*
X92578127Y-118320180D01*
X92671900Y-117848752D01*
X92671900Y-117101248D01*
X92748100Y-117101248D01*
X92748100Y-117848752D01*
X92841873Y-118320180D01*
X93108915Y-118719837D01*
X93508572Y-118986879D01*
X93980000Y-119080652D01*
X94451428Y-118986879D01*
X94851085Y-118719837D01*
X95118127Y-118320180D01*
X95211900Y-117848752D01*
X95211900Y-117101248D01*
X95288100Y-117101248D01*
X95288100Y-117848752D01*
X95381873Y-118320180D01*
X95648915Y-118719837D01*
X96048572Y-118986879D01*
X96520000Y-119080652D01*
X96991428Y-118986879D01*
X97391085Y-118719837D01*
X97658127Y-118320180D01*
X97751900Y-117848752D01*
X97751900Y-117101248D01*
X97828100Y-117101248D01*
X97828100Y-117848752D01*
X97921873Y-118320180D01*
X98188915Y-118719837D01*
X98588572Y-118986879D01*
X99060000Y-119080652D01*
X99531428Y-118986879D01*
X99931085Y-118719837D01*
X100198127Y-118320180D01*
X100291900Y-117848752D01*
X100291900Y-117101248D01*
X100368100Y-117101248D01*
X100368100Y-117848752D01*
X100461873Y-118320180D01*
X100728915Y-118719837D01*
X101128572Y-118986879D01*
X101600000Y-119080652D01*
X102071428Y-118986879D01*
X102471085Y-118719837D01*
X102738127Y-118320180D01*
X102831900Y-117848752D01*
X102831900Y-117101248D01*
X102908100Y-117101248D01*
X102908100Y-117848752D01*
X103001873Y-118320180D01*
X103268915Y-118719837D01*
X103668572Y-118986879D01*
X104140000Y-119080652D01*
X104611428Y-118986879D01*
X105011085Y-118719837D01*
X105278127Y-118320180D01*
X105371900Y-117848752D01*
X105371900Y-117101248D01*
X105448100Y-117101248D01*
X105448100Y-117848752D01*
X105541873Y-118320180D01*
X105808915Y-118719837D01*
X106208572Y-118986879D01*
X106680000Y-119080652D01*
X107151428Y-118986879D01*
X107551085Y-118719837D01*
X107818127Y-118320180D01*
X107911900Y-117848752D01*
X107911900Y-117101248D01*
X107988100Y-117101248D01*
X107988100Y-117848752D01*
X108081873Y-118320180D01*
X108348915Y-118719837D01*
X108748572Y-118986879D01*
X109220000Y-119080652D01*
X109691428Y-118986879D01*
X110091085Y-118719837D01*
X110358127Y-118320180D01*
X110451900Y-117848752D01*
X110451900Y-117101248D01*
X110358127Y-116629820D01*
X110091085Y-116230163D01*
X109691428Y-115963121D01*
X109220000Y-115869348D01*
X108748572Y-115963121D01*
X108348915Y-116230163D01*
X108081873Y-116629820D01*
X107988100Y-117101248D01*
X107911900Y-117101248D01*
X107818127Y-116629820D01*
X107551085Y-116230163D01*
X107151428Y-115963121D01*
X106680000Y-115869348D01*
X106208572Y-115963121D01*
X105808915Y-116230163D01*
X105541873Y-116629820D01*
X105448100Y-117101248D01*
X105371900Y-117101248D01*
X105278127Y-116629820D01*
X105011085Y-116230163D01*
X104611428Y-115963121D01*
X104140000Y-115869348D01*
X103668572Y-115963121D01*
X103268915Y-116230163D01*
X103001873Y-116629820D01*
X102908100Y-117101248D01*
X102831900Y-117101248D01*
X102738127Y-116629820D01*
X102471085Y-116230163D01*
X102071428Y-115963121D01*
X101600000Y-115869348D01*
X101128572Y-115963121D01*
X100728915Y-116230163D01*
X100461873Y-116629820D01*
X100368100Y-117101248D01*
X100291900Y-117101248D01*
X100198127Y-116629820D01*
X99931085Y-116230163D01*
X99531428Y-115963121D01*
X99060000Y-115869348D01*
X98588572Y-115963121D01*
X98188915Y-116230163D01*
X97921873Y-116629820D01*
X97828100Y-117101248D01*
X97751900Y-117101248D01*
X97658127Y-116629820D01*
X97391085Y-116230163D01*
X96991428Y-115963121D01*
X96520000Y-115869348D01*
X96048572Y-115963121D01*
X95648915Y-116230163D01*
X95381873Y-116629820D01*
X95288100Y-117101248D01*
X95211900Y-117101248D01*
X95118127Y-116629820D01*
X94851085Y-116230163D01*
X94451428Y-115963121D01*
X93980000Y-115869348D01*
X93508572Y-115963121D01*
X93108915Y-116230163D01*
X92841873Y-116629820D01*
X92748100Y-117101248D01*
X92671900Y-117101248D01*
X92578127Y-116629820D01*
X92311085Y-116230163D01*
X91911428Y-115963121D01*
X91440000Y-115869348D01*
X90968572Y-115963121D01*
X90568915Y-116230163D01*
X90301873Y-116629820D01*
X90208100Y-117101248D01*
X90131900Y-117101248D01*
X90038127Y-116629820D01*
X89771085Y-116230163D01*
X89371428Y-115963121D01*
X88900000Y-115869348D01*
X88428572Y-115963121D01*
X88028915Y-116230163D01*
X87761873Y-116629820D01*
X87668100Y-117101248D01*
X87591900Y-117101248D01*
X87498127Y-116629820D01*
X87231085Y-116230163D01*
X86831428Y-115963121D01*
X86360000Y-115869348D01*
X85888572Y-115963121D01*
X85488915Y-116230163D01*
X85221873Y-116629820D01*
X85128100Y-117101248D01*
X85051900Y-117101248D01*
X84958127Y-116629820D01*
X84691085Y-116230163D01*
X84291428Y-115963121D01*
X83820000Y-115869348D01*
X83348572Y-115963121D01*
X82948915Y-116230163D01*
X82681873Y-116629820D01*
X82588100Y-117101248D01*
X82511900Y-117101248D01*
X82418127Y-116629820D01*
X82151085Y-116230163D01*
X81751428Y-115963121D01*
X81280000Y-115869348D01*
X80808572Y-115963121D01*
X80408915Y-116230163D01*
X80141873Y-116629820D01*
X80048100Y-117101248D01*
X79971900Y-117101248D01*
X79878127Y-116629820D01*
X79611085Y-116230163D01*
X79211428Y-115963121D01*
X78740000Y-115869348D01*
X78268572Y-115963121D01*
X77868915Y-116230163D01*
X77601873Y-116629820D01*
X77508100Y-117101248D01*
X77431900Y-117101248D01*
X77338127Y-116629820D01*
X77071085Y-116230163D01*
X76671428Y-115963121D01*
X76200000Y-115869348D01*
X75728572Y-115963121D01*
X75328915Y-116230163D01*
X75061873Y-116629820D01*
X74968100Y-117101248D01*
X74079100Y-117101248D01*
X74079100Y-112807477D01*
X75386840Y-112807477D01*
X75703259Y-113573270D01*
X76288648Y-114159682D01*
X77053888Y-114477437D01*
X77882477Y-114478160D01*
X78648270Y-114161741D01*
X79234682Y-113576352D01*
X79552437Y-112811112D01*
X79553160Y-111982523D01*
X79236741Y-111216730D01*
X78651352Y-110630318D01*
X77886112Y-110312563D01*
X77057523Y-110311840D01*
X76291730Y-110628259D01*
X75705318Y-111213648D01*
X75387563Y-111978888D01*
X75386840Y-112807477D01*
X74079100Y-112807477D01*
X74079100Y-108304129D01*
X98577400Y-108304129D01*
X98577400Y-108865871D01*
X98662472Y-109293558D01*
X98904737Y-109656134D01*
X99267313Y-109898399D01*
X99695000Y-109983471D01*
X100122687Y-109898399D01*
X100485263Y-109656134D01*
X100727528Y-109293558D01*
X100747212Y-109194600D01*
X101182788Y-109194600D01*
X101202472Y-109293558D01*
X101444737Y-109656134D01*
X101807313Y-109898399D01*
X102235000Y-109983471D01*
X102662687Y-109898399D01*
X103025263Y-109656134D01*
X103267528Y-109293558D01*
X103287212Y-109194600D01*
X103722788Y-109194600D01*
X103742472Y-109293558D01*
X103984737Y-109656134D01*
X104347313Y-109898399D01*
X104775000Y-109983471D01*
X105202687Y-109898399D01*
X105565263Y-109656134D01*
X105807528Y-109293558D01*
X105827212Y-109194600D01*
X106262788Y-109194600D01*
X106282472Y-109293558D01*
X106524737Y-109656134D01*
X106887313Y-109898399D01*
X107315000Y-109983471D01*
X107742687Y-109898399D01*
X108105263Y-109656134D01*
X108347528Y-109293558D01*
X108367212Y-109194600D01*
X108802788Y-109194600D01*
X108822472Y-109293558D01*
X109064737Y-109656134D01*
X109427313Y-109898399D01*
X109855000Y-109983471D01*
X110282687Y-109898399D01*
X110645263Y-109656134D01*
X110887528Y-109293558D01*
X110907212Y-109194600D01*
X111342788Y-109194600D01*
X111362472Y-109293558D01*
X111604737Y-109656134D01*
X111967313Y-109898399D01*
X112395000Y-109983471D01*
X112822687Y-109898399D01*
X113185263Y-109656134D01*
X113427528Y-109293558D01*
X113447212Y-109194600D01*
X113882788Y-109194600D01*
X113902472Y-109293558D01*
X114144737Y-109656134D01*
X114507313Y-109898399D01*
X114935000Y-109983471D01*
X115362687Y-109898399D01*
X115725263Y-109656134D01*
X115967528Y-109293558D01*
X115987212Y-109194600D01*
X116422788Y-109194600D01*
X116442472Y-109293558D01*
X116684737Y-109656134D01*
X117047313Y-109898399D01*
X117475000Y-109983471D01*
X117902687Y-109898399D01*
X118265263Y-109656134D01*
X118507528Y-109293558D01*
X118592600Y-108865871D01*
X118592600Y-108304129D01*
X118507528Y-107876442D01*
X118265263Y-107513866D01*
X117902687Y-107271601D01*
X117475000Y-107186529D01*
X117047313Y-107271601D01*
X116684737Y-107513866D01*
X116442472Y-107876442D01*
X116422788Y-107975400D01*
X115987212Y-107975400D01*
X115967528Y-107876442D01*
X115725263Y-107513866D01*
X115362687Y-107271601D01*
X114935000Y-107186529D01*
X114507313Y-107271601D01*
X114144737Y-107513866D01*
X113902472Y-107876442D01*
X113882788Y-107975400D01*
X113447212Y-107975400D01*
X113427528Y-107876442D01*
X113185263Y-107513866D01*
X112822687Y-107271601D01*
X112395000Y-107186529D01*
X111967313Y-107271601D01*
X111604737Y-107513866D01*
X111362472Y-107876442D01*
X111342788Y-107975400D01*
X110907212Y-107975400D01*
X110887528Y-107876442D01*
X110645263Y-107513866D01*
X110282687Y-107271601D01*
X109855000Y-107186529D01*
X109427313Y-107271601D01*
X109064737Y-107513866D01*
X108822472Y-107876442D01*
X108802788Y-107975400D01*
X108367212Y-107975400D01*
X108347528Y-107876442D01*
X108105263Y-107513866D01*
X107742687Y-107271601D01*
X107315000Y-107186529D01*
X106887313Y-107271601D01*
X106524737Y-107513866D01*
X106282472Y-107876442D01*
X106262788Y-107975400D01*
X105827212Y-107975400D01*
X105807528Y-107876442D01*
X105565263Y-107513866D01*
X105202687Y-107271601D01*
X104775000Y-107186529D01*
X104347313Y-107271601D01*
X103984737Y-107513866D01*
X103742472Y-107876442D01*
X103722788Y-107975400D01*
X103287212Y-107975400D01*
X103267528Y-107876442D01*
X103025263Y-107513866D01*
X102662687Y-107271601D01*
X102235000Y-107186529D01*
X101807313Y-107271601D01*
X101444737Y-107513866D01*
X101202472Y-107876442D01*
X101182788Y-107975400D01*
X100747212Y-107975400D01*
X100727528Y-107876442D01*
X100485263Y-107513866D01*
X100122687Y-107271601D01*
X99695000Y-107186529D01*
X99267313Y-107271601D01*
X98904737Y-107513866D01*
X98662472Y-107876442D01*
X98577400Y-108304129D01*
X74079100Y-108304129D01*
X74079100Y-101954129D01*
X83337400Y-101954129D01*
X83337400Y-102515871D01*
X83422472Y-102943558D01*
X83664737Y-103306134D01*
X84027313Y-103548399D01*
X84455000Y-103633471D01*
X84882687Y-103548399D01*
X85245263Y-103306134D01*
X85487528Y-102943558D01*
X85507212Y-102844600D01*
X86006404Y-102844600D01*
X86157121Y-103070164D01*
X86540298Y-103326194D01*
X86992285Y-103416100D01*
X87556515Y-103416100D01*
X88008502Y-103326194D01*
X88391679Y-103070164D01*
X88647709Y-102686987D01*
X88737615Y-102235000D01*
X88647709Y-101783013D01*
X88391679Y-101399836D01*
X88008502Y-101143806D01*
X87556515Y-101053900D01*
X86992285Y-101053900D01*
X86540298Y-101143806D01*
X86157121Y-101399836D01*
X86006404Y-101625400D01*
X85507212Y-101625400D01*
X85487528Y-101526442D01*
X85245263Y-101163866D01*
X84882687Y-100921601D01*
X84455000Y-100836529D01*
X84027313Y-100921601D01*
X83664737Y-101163866D01*
X83422472Y-101526442D01*
X83337400Y-101954129D01*
X74079100Y-101954129D01*
X74079100Y-87407477D01*
X75386840Y-87407477D01*
X75703259Y-88173270D01*
X76288648Y-88759682D01*
X77053888Y-89077437D01*
X77882477Y-89078160D01*
X78648270Y-88761741D01*
X79234682Y-88176352D01*
X79489300Y-87563163D01*
X79489300Y-93789500D01*
X79527969Y-93983903D01*
X79638090Y-94148710D01*
X83003590Y-97514210D01*
X83168397Y-97624331D01*
X83362800Y-97663000D01*
X83433576Y-97663000D01*
X83469405Y-97843123D01*
X83700658Y-98189218D01*
X84046753Y-98420471D01*
X84455000Y-98501676D01*
X84863247Y-98420471D01*
X85209342Y-98189218D01*
X85440595Y-97843123D01*
X85503126Y-97528753D01*
X85634824Y-97528753D01*
X85643442Y-97590065D01*
X85914749Y-98083887D01*
X86354381Y-98436294D01*
X86895409Y-98593636D01*
X87122000Y-98443077D01*
X87122000Y-97307400D01*
X87426800Y-97307400D01*
X87426800Y-98443077D01*
X87653391Y-98593636D01*
X88194419Y-98436294D01*
X88634051Y-98083887D01*
X88905358Y-97590065D01*
X88913976Y-97528753D01*
X88802014Y-97307400D01*
X87426800Y-97307400D01*
X87122000Y-97307400D01*
X85746786Y-97307400D01*
X85634824Y-97528753D01*
X85503126Y-97528753D01*
X85521800Y-97434876D01*
X85521800Y-96875124D01*
X85503127Y-96781247D01*
X85634824Y-96781247D01*
X85746786Y-97002600D01*
X87122000Y-97002600D01*
X87122000Y-95866923D01*
X87426800Y-95866923D01*
X87426800Y-97002600D01*
X88802014Y-97002600D01*
X88913976Y-96781247D01*
X88905358Y-96719935D01*
X88634051Y-96226113D01*
X88194419Y-95873706D01*
X87653391Y-95716364D01*
X87426800Y-95866923D01*
X87122000Y-95866923D01*
X86895409Y-95716364D01*
X86354381Y-95873706D01*
X85914749Y-96226113D01*
X85643442Y-96719935D01*
X85634824Y-96781247D01*
X85503127Y-96781247D01*
X85440595Y-96466877D01*
X85209342Y-96120782D01*
X84863247Y-95889529D01*
X84455000Y-95808324D01*
X84046753Y-95889529D01*
X83700658Y-96120782D01*
X83469405Y-96466877D01*
X83456745Y-96530525D01*
X80505300Y-93579080D01*
X80505300Y-83224239D01*
X80808572Y-83426879D01*
X81280000Y-83520652D01*
X81751428Y-83426879D01*
X82151085Y-83159837D01*
X82418127Y-82760180D01*
X82511900Y-82288752D01*
X82511900Y-81541248D01*
X82588100Y-81541248D01*
X82588100Y-82288752D01*
X82681873Y-82760180D01*
X82948915Y-83159837D01*
X83348572Y-83426879D01*
X83820000Y-83520652D01*
X84291428Y-83426879D01*
X84691085Y-83159837D01*
X84958127Y-82760180D01*
X85051900Y-82288752D01*
X85051900Y-81541248D01*
X85128100Y-81541248D01*
X85128100Y-82288752D01*
X85221873Y-82760180D01*
X85488915Y-83159837D01*
X85888572Y-83426879D01*
X86360000Y-83520652D01*
X86831428Y-83426879D01*
X87231085Y-83159837D01*
X87498127Y-82760180D01*
X87565196Y-82423000D01*
X87617300Y-82423000D01*
X87691854Y-82408170D01*
X87761873Y-82760180D01*
X88028915Y-83159837D01*
X88428572Y-83426879D01*
X88900000Y-83520652D01*
X89371428Y-83426879D01*
X89771085Y-83159837D01*
X89791679Y-83129016D01*
X89798090Y-83138610D01*
X97670690Y-91011210D01*
X97835497Y-91121331D01*
X98029900Y-91160000D01*
X98577400Y-91160000D01*
X98577400Y-93218000D01*
X98729800Y-93370400D01*
X99542600Y-93370400D01*
X99542600Y-93350400D01*
X99847400Y-93350400D01*
X99847400Y-93370400D01*
X100660200Y-93370400D01*
X100812600Y-93218000D01*
X100812600Y-91160000D01*
X101117400Y-91160000D01*
X101117400Y-93218000D01*
X101269800Y-93370400D01*
X102082600Y-93370400D01*
X102082600Y-93350400D01*
X102387400Y-93350400D01*
X102387400Y-93370400D01*
X103200200Y-93370400D01*
X103352600Y-93218000D01*
X103352600Y-91160000D01*
X103657400Y-91160000D01*
X103657400Y-93218000D01*
X103809800Y-93370400D01*
X104622600Y-93370400D01*
X104622600Y-93350400D01*
X104927400Y-93350400D01*
X104927400Y-93370400D01*
X105740200Y-93370400D01*
X105892600Y-93218000D01*
X105892600Y-91160000D01*
X106197400Y-91160000D01*
X106197400Y-93218000D01*
X106349800Y-93370400D01*
X107162600Y-93370400D01*
X107162600Y-93350400D01*
X107467400Y-93350400D01*
X107467400Y-93370400D01*
X108280200Y-93370400D01*
X108432600Y-93218000D01*
X108432600Y-91160000D01*
X108737400Y-91160000D01*
X108737400Y-93218000D01*
X108889800Y-93370400D01*
X109702600Y-93370400D01*
X109702600Y-93350400D01*
X110007400Y-93350400D01*
X110007400Y-93370400D01*
X110820200Y-93370400D01*
X110972600Y-93218000D01*
X110972600Y-91160000D01*
X111277400Y-91160000D01*
X111277400Y-93218000D01*
X111429800Y-93370400D01*
X112242600Y-93370400D01*
X112242600Y-93350400D01*
X112547400Y-93350400D01*
X112547400Y-93370400D01*
X113360200Y-93370400D01*
X113512600Y-93218000D01*
X113512600Y-91160000D01*
X113817400Y-91160000D01*
X113817400Y-93218000D01*
X113969800Y-93370400D01*
X114782600Y-93370400D01*
X114782600Y-93350400D01*
X115087400Y-93350400D01*
X115087400Y-93370400D01*
X115900200Y-93370400D01*
X116052600Y-93218000D01*
X116052600Y-91160000D01*
X116357400Y-91160000D01*
X116357400Y-93218000D01*
X116509800Y-93370400D01*
X117322600Y-93370400D01*
X117322600Y-93350400D01*
X117627400Y-93350400D01*
X117627400Y-93370400D01*
X118440200Y-93370400D01*
X118592600Y-93218000D01*
X118592600Y-91160000D01*
X123641680Y-91160000D01*
X127253026Y-94771346D01*
X127252870Y-94950591D01*
X127366704Y-95226090D01*
X127577301Y-95437056D01*
X127852601Y-95551370D01*
X128150691Y-95551630D01*
X128426190Y-95437796D01*
X128637156Y-95227199D01*
X128751470Y-94951899D01*
X128751730Y-94653809D01*
X128637896Y-94378310D01*
X128427299Y-94167344D01*
X128151999Y-94053030D01*
X127971392Y-94052872D01*
X124211310Y-90292790D01*
X124046503Y-90182669D01*
X123852100Y-90144000D01*
X98240320Y-90144000D01*
X91587610Y-83491290D01*
X91911428Y-83426879D01*
X92311085Y-83159837D01*
X92578127Y-82760180D01*
X92671900Y-82288752D01*
X92671900Y-81541248D01*
X92578127Y-81069820D01*
X92409599Y-80817600D01*
X93010401Y-80817600D01*
X92841873Y-81069820D01*
X92748100Y-81541248D01*
X92748100Y-82288752D01*
X92841873Y-82760180D01*
X93108915Y-83159837D01*
X93508572Y-83426879D01*
X93980000Y-83520652D01*
X94451428Y-83426879D01*
X94851085Y-83159837D01*
X95118127Y-82760180D01*
X95211900Y-82288752D01*
X95211900Y-81541248D01*
X95118127Y-81069820D01*
X94949599Y-80817600D01*
X95550401Y-80817600D01*
X95381873Y-81069820D01*
X95288100Y-81541248D01*
X95288100Y-82288752D01*
X95381873Y-82760180D01*
X95648915Y-83159837D01*
X96048572Y-83426879D01*
X96520000Y-83520652D01*
X96991428Y-83426879D01*
X97391085Y-83159837D01*
X97658127Y-82760180D01*
X97751900Y-82288752D01*
X97751900Y-81541248D01*
X97658127Y-81069820D01*
X97489599Y-80817600D01*
X98090401Y-80817600D01*
X97921873Y-81069820D01*
X97828100Y-81541248D01*
X97828100Y-82288752D01*
X97921873Y-82760180D01*
X98188915Y-83159837D01*
X98588572Y-83426879D01*
X99060000Y-83520652D01*
X99531428Y-83426879D01*
X99931085Y-83159837D01*
X100198127Y-82760180D01*
X100291900Y-82288752D01*
X100291900Y-81541248D01*
X100198127Y-81069820D01*
X100029599Y-80817600D01*
X100630401Y-80817600D01*
X100461873Y-81069820D01*
X100368100Y-81541248D01*
X100368100Y-82288752D01*
X100461873Y-82760180D01*
X100728915Y-83159837D01*
X101128572Y-83426879D01*
X101600000Y-83520652D01*
X102071428Y-83426879D01*
X102471085Y-83159837D01*
X102738127Y-82760180D01*
X102831900Y-82288752D01*
X102831900Y-81541248D01*
X102738127Y-81069820D01*
X102569599Y-80817600D01*
X103170401Y-80817600D01*
X103001873Y-81069820D01*
X102908100Y-81541248D01*
X102908100Y-82288752D01*
X103001873Y-82760180D01*
X103268915Y-83159837D01*
X103668572Y-83426879D01*
X104140000Y-83520652D01*
X104611428Y-83426879D01*
X105011085Y-83159837D01*
X105278127Y-82760180D01*
X105371900Y-82288752D01*
X105371900Y-81541248D01*
X105278127Y-81069820D01*
X105109599Y-80817600D01*
X105710401Y-80817600D01*
X105541873Y-81069820D01*
X105448100Y-81541248D01*
X105448100Y-82288752D01*
X105541873Y-82760180D01*
X105808915Y-83159837D01*
X106208572Y-83426879D01*
X106680000Y-83520652D01*
X107151428Y-83426879D01*
X107551085Y-83159837D01*
X107571679Y-83129016D01*
X107578090Y-83138610D01*
X111038890Y-86599410D01*
X111203696Y-86709531D01*
X111235950Y-86715946D01*
X111398100Y-86748200D01*
X122419580Y-86748200D01*
X130735026Y-95063646D01*
X130734870Y-95242891D01*
X130848704Y-95518390D01*
X131059301Y-95729356D01*
X131187423Y-95782557D01*
X127678080Y-99291900D01*
X127075320Y-99291900D01*
X129955646Y-96411574D01*
X130134891Y-96411730D01*
X130410390Y-96297896D01*
X130621356Y-96087299D01*
X130735670Y-95811999D01*
X130735930Y-95513909D01*
X130622096Y-95238410D01*
X130411499Y-95027444D01*
X130136199Y-94913130D01*
X129838109Y-94912870D01*
X129562610Y-95026704D01*
X129351644Y-95237301D01*
X129237330Y-95512601D01*
X129237172Y-95693208D01*
X126146780Y-98783600D01*
X118345100Y-98783600D01*
X118293771Y-98793810D01*
X118293771Y-97447100D01*
X121315500Y-97447100D01*
X121509903Y-97408431D01*
X121674710Y-97298310D01*
X123607446Y-95365574D01*
X123786691Y-95365730D01*
X124062190Y-95251896D01*
X124273156Y-95041299D01*
X124387470Y-94765999D01*
X124387730Y-94467909D01*
X124273896Y-94192410D01*
X124063299Y-93981444D01*
X123787999Y-93867130D01*
X123489909Y-93866870D01*
X123214410Y-93980704D01*
X123003444Y-94191301D01*
X122889130Y-94466601D01*
X122888972Y-94647208D01*
X121105080Y-96431100D01*
X118703520Y-96431100D01*
X119774147Y-95360474D01*
X119953391Y-95360630D01*
X120228890Y-95246796D01*
X120439856Y-95036199D01*
X120554170Y-94760899D01*
X120554430Y-94462809D01*
X120440596Y-94187310D01*
X120229999Y-93976344D01*
X119954699Y-93862030D01*
X119656609Y-93861770D01*
X119381110Y-93975604D01*
X119170144Y-94186201D01*
X119055830Y-94461501D01*
X119055672Y-94642107D01*
X118592600Y-95105179D01*
X118592600Y-93827600D01*
X118440200Y-93675200D01*
X117627400Y-93675200D01*
X117627400Y-93695200D01*
X117322600Y-93695200D01*
X117322600Y-93675200D01*
X116509800Y-93675200D01*
X116357400Y-93827600D01*
X116357400Y-95891957D01*
X116370134Y-95922700D01*
X116039866Y-95922700D01*
X116052600Y-95891957D01*
X116052600Y-93827600D01*
X115900200Y-93675200D01*
X115087400Y-93675200D01*
X115087400Y-93695200D01*
X114782600Y-93695200D01*
X114782600Y-93675200D01*
X113969800Y-93675200D01*
X113817400Y-93827600D01*
X113817400Y-95891957D01*
X113830134Y-95922700D01*
X113499866Y-95922700D01*
X113512600Y-95891957D01*
X113512600Y-93827600D01*
X113360200Y-93675200D01*
X112547400Y-93675200D01*
X112547400Y-93695200D01*
X112242600Y-93695200D01*
X112242600Y-93675200D01*
X111429800Y-93675200D01*
X111277400Y-93827600D01*
X111277400Y-95891957D01*
X111290134Y-95922700D01*
X110959866Y-95922700D01*
X110972600Y-95891957D01*
X110972600Y-93827600D01*
X110820200Y-93675200D01*
X110007400Y-93675200D01*
X110007400Y-93695200D01*
X109702600Y-93695200D01*
X109702600Y-93675200D01*
X108889800Y-93675200D01*
X108737400Y-93827600D01*
X108737400Y-95891957D01*
X108750134Y-95922700D01*
X108419866Y-95922700D01*
X108432600Y-95891957D01*
X108432600Y-93827600D01*
X108280200Y-93675200D01*
X107467400Y-93675200D01*
X107467400Y-93695200D01*
X107162600Y-93695200D01*
X107162600Y-93675200D01*
X106349800Y-93675200D01*
X106197400Y-93827600D01*
X106197400Y-95891957D01*
X106210134Y-95922700D01*
X105879866Y-95922700D01*
X105892600Y-95891957D01*
X105892600Y-93827600D01*
X105740200Y-93675200D01*
X104927400Y-93675200D01*
X104927400Y-93695200D01*
X104622600Y-93695200D01*
X104622600Y-93675200D01*
X103809800Y-93675200D01*
X103657400Y-93827600D01*
X103657400Y-95891957D01*
X103670134Y-95922700D01*
X103339866Y-95922700D01*
X103352600Y-95891957D01*
X103352600Y-93827600D01*
X103200200Y-93675200D01*
X102387400Y-93675200D01*
X102387400Y-93695200D01*
X102082600Y-93695200D01*
X102082600Y-93675200D01*
X101269800Y-93675200D01*
X101117400Y-93827600D01*
X101117400Y-95891957D01*
X101130134Y-95922700D01*
X100799866Y-95922700D01*
X100812600Y-95891957D01*
X100812600Y-93827600D01*
X100660200Y-93675200D01*
X99847400Y-93675200D01*
X99847400Y-93695200D01*
X99542600Y-93695200D01*
X99542600Y-93675200D01*
X98729800Y-93675200D01*
X98577400Y-93827600D01*
X98577400Y-95891957D01*
X98670206Y-96116011D01*
X98841689Y-96287494D01*
X99065743Y-96380300D01*
X99390200Y-96380300D01*
X99542598Y-96227902D01*
X99542598Y-96373082D01*
X99335790Y-96579890D01*
X99225669Y-96744697D01*
X99187000Y-96939100D01*
X99187000Y-96958529D01*
X99068073Y-96982185D01*
X98967252Y-97049552D01*
X98899885Y-97150373D01*
X98876229Y-97269300D01*
X98876229Y-101765100D01*
X98899885Y-101884027D01*
X98967252Y-101984848D01*
X99068073Y-102052215D01*
X99187000Y-102075871D01*
X99187000Y-102306182D01*
X98940658Y-102470782D01*
X98709405Y-102816877D01*
X98628200Y-103225124D01*
X98628200Y-103784876D01*
X98709405Y-104193123D01*
X98940658Y-104539218D01*
X99286753Y-104770471D01*
X99695000Y-104851676D01*
X100103247Y-104770471D01*
X100449342Y-104539218D01*
X100680595Y-104193123D01*
X100761800Y-103784876D01*
X100761800Y-103225124D01*
X100680595Y-102816877D01*
X100449342Y-102470782D01*
X100203000Y-102306182D01*
X100203000Y-102075871D01*
X100321927Y-102052215D01*
X100422748Y-101984848D01*
X100490115Y-101884027D01*
X100513771Y-101765100D01*
X100513771Y-97269300D01*
X100490115Y-97150373D01*
X100422748Y-97049552D01*
X100350945Y-97001575D01*
X100413820Y-96938700D01*
X101727080Y-96938700D01*
X101727000Y-96939100D01*
X101727000Y-96958529D01*
X101608073Y-96982185D01*
X101507252Y-97049552D01*
X101439885Y-97150373D01*
X101416229Y-97269300D01*
X101416229Y-101765100D01*
X101439885Y-101884027D01*
X101507252Y-101984848D01*
X101608073Y-102052215D01*
X101727000Y-102075871D01*
X101727000Y-102306182D01*
X101480658Y-102470782D01*
X101249405Y-102816877D01*
X101168200Y-103225124D01*
X101168200Y-103784876D01*
X101249405Y-104193123D01*
X101480658Y-104539218D01*
X101826753Y-104770471D01*
X102235000Y-104851676D01*
X102643247Y-104770471D01*
X102989342Y-104539218D01*
X103220595Y-104193123D01*
X103301800Y-103784876D01*
X103301800Y-103225124D01*
X103220595Y-102816877D01*
X102989342Y-102470782D01*
X102743000Y-102306182D01*
X102743000Y-102075871D01*
X102861927Y-102052215D01*
X102962748Y-101984848D01*
X103030115Y-101884027D01*
X103053771Y-101765100D01*
X103053771Y-97447100D01*
X103956229Y-97447100D01*
X103956229Y-101765100D01*
X103979885Y-101884027D01*
X104047252Y-101984848D01*
X104148073Y-102052215D01*
X104267000Y-102075871D01*
X104267000Y-102306182D01*
X104020658Y-102470782D01*
X103789405Y-102816877D01*
X103708200Y-103225124D01*
X103708200Y-103784876D01*
X103789405Y-104193123D01*
X104020658Y-104539218D01*
X104366753Y-104770471D01*
X104775000Y-104851676D01*
X105183247Y-104770471D01*
X105529342Y-104539218D01*
X105760595Y-104193123D01*
X105841800Y-103784876D01*
X105841800Y-103225124D01*
X105760595Y-102816877D01*
X105529342Y-102470782D01*
X105283000Y-102306182D01*
X105283000Y-102075871D01*
X105401927Y-102052215D01*
X105502748Y-101984848D01*
X105570115Y-101884027D01*
X105593771Y-101765100D01*
X105593771Y-97447100D01*
X106496229Y-97447100D01*
X106496229Y-101765100D01*
X106519885Y-101884027D01*
X106587252Y-101984848D01*
X106688073Y-102052215D01*
X106807000Y-102075871D01*
X106807000Y-102306182D01*
X106560658Y-102470782D01*
X106329405Y-102816877D01*
X106248200Y-103225124D01*
X106248200Y-103784876D01*
X106329405Y-104193123D01*
X106560658Y-104539218D01*
X106906753Y-104770471D01*
X107315000Y-104851676D01*
X107723247Y-104770471D01*
X108069342Y-104539218D01*
X108300595Y-104193123D01*
X108381800Y-103784876D01*
X108381800Y-103225124D01*
X108300595Y-102816877D01*
X108069342Y-102470782D01*
X107823000Y-102306182D01*
X107823000Y-102075871D01*
X107941927Y-102052215D01*
X108042748Y-101984848D01*
X108110115Y-101884027D01*
X108133771Y-101765100D01*
X108133771Y-97447100D01*
X109036229Y-97447100D01*
X109036229Y-101765100D01*
X109059885Y-101884027D01*
X109127252Y-101984848D01*
X109228073Y-102052215D01*
X109347000Y-102075871D01*
X109347000Y-102306182D01*
X109100658Y-102470782D01*
X108869405Y-102816877D01*
X108788200Y-103225124D01*
X108788200Y-103784876D01*
X108869405Y-104193123D01*
X109100658Y-104539218D01*
X109446753Y-104770471D01*
X109855000Y-104851676D01*
X110263247Y-104770471D01*
X110609342Y-104539218D01*
X110840595Y-104193123D01*
X110921800Y-103784876D01*
X110921800Y-103225124D01*
X110840595Y-102816877D01*
X110609342Y-102470782D01*
X110363000Y-102306182D01*
X110363000Y-102075871D01*
X110481927Y-102052215D01*
X110582748Y-101984848D01*
X110650115Y-101884027D01*
X110673771Y-101765100D01*
X110673771Y-97447100D01*
X111576229Y-97447100D01*
X111576229Y-101765100D01*
X111599885Y-101884027D01*
X111667252Y-101984848D01*
X111768073Y-102052215D01*
X111887000Y-102075871D01*
X111887000Y-102306182D01*
X111640658Y-102470782D01*
X111409405Y-102816877D01*
X111328200Y-103225124D01*
X111328200Y-103784876D01*
X111409405Y-104193123D01*
X111640658Y-104539218D01*
X111986753Y-104770471D01*
X112395000Y-104851676D01*
X112803247Y-104770471D01*
X113149342Y-104539218D01*
X113380595Y-104193123D01*
X113461800Y-103784876D01*
X113461800Y-103225124D01*
X113380595Y-102816877D01*
X113149342Y-102470782D01*
X112903000Y-102306182D01*
X112903000Y-102075871D01*
X113021927Y-102052215D01*
X113122748Y-101984848D01*
X113190115Y-101884027D01*
X113213771Y-101765100D01*
X113213771Y-97447100D01*
X114116229Y-97447100D01*
X114116229Y-101765100D01*
X114139885Y-101884027D01*
X114207252Y-101984848D01*
X114308073Y-102052215D01*
X114427000Y-102075871D01*
X114427000Y-102306182D01*
X114180658Y-102470782D01*
X113949405Y-102816877D01*
X113868200Y-103225124D01*
X113868200Y-103784876D01*
X113949405Y-104193123D01*
X114180658Y-104539218D01*
X114526753Y-104770471D01*
X114935000Y-104851676D01*
X115343247Y-104770471D01*
X115689342Y-104539218D01*
X115787097Y-104392917D01*
X116595089Y-105200910D01*
X116759896Y-105311031D01*
X116792150Y-105317446D01*
X116954300Y-105349700D01*
X117920700Y-105349700D01*
X118115103Y-105311031D01*
X118279910Y-105200910D01*
X123172920Y-100307900D01*
X123183590Y-100307900D01*
X123145430Y-100399801D01*
X123145170Y-100697891D01*
X123259004Y-100973390D01*
X123386600Y-101101210D01*
X123386600Y-105129980D01*
X112658090Y-115858490D01*
X112547969Y-116023297D01*
X112521399Y-116156873D01*
X112231428Y-115963121D01*
X111760000Y-115869348D01*
X111288572Y-115963121D01*
X110888915Y-116230163D01*
X110621873Y-116629820D01*
X110528100Y-117101248D01*
X110528100Y-117848752D01*
X110621873Y-118320180D01*
X110888915Y-118719837D01*
X111288572Y-118986879D01*
X111760000Y-119080652D01*
X112231428Y-118986879D01*
X112631085Y-118719837D01*
X112898127Y-118320180D01*
X112965196Y-117983000D01*
X113017300Y-117983000D01*
X113091854Y-117968170D01*
X113161873Y-118320180D01*
X113428915Y-118719837D01*
X113828572Y-118986879D01*
X114300000Y-119080652D01*
X114771428Y-118986879D01*
X115171085Y-118719837D01*
X115438127Y-118320180D01*
X115524197Y-117887477D01*
X116026840Y-117887477D01*
X116343259Y-118653270D01*
X116928648Y-119239682D01*
X117693888Y-119557437D01*
X118522477Y-119558160D01*
X119288270Y-119241741D01*
X119874682Y-118656352D01*
X120192437Y-117891112D01*
X120193160Y-117062523D01*
X119876741Y-116296730D01*
X119291352Y-115710318D01*
X118526112Y-115392563D01*
X117697523Y-115391840D01*
X116931730Y-115708259D01*
X116345318Y-116293648D01*
X116027563Y-117058888D01*
X116026840Y-117887477D01*
X115524197Y-117887477D01*
X115531900Y-117848752D01*
X115531900Y-117101248D01*
X115438127Y-116629820D01*
X115171085Y-116230163D01*
X114771428Y-115963121D01*
X114300000Y-115869348D01*
X114030456Y-115922964D01*
X124253810Y-105699610D01*
X124363931Y-105534804D01*
X124402600Y-105340400D01*
X124402600Y-101101133D01*
X124529456Y-100974499D01*
X124643770Y-100699199D01*
X124644030Y-100401109D01*
X124605517Y-100307900D01*
X127888500Y-100307900D01*
X128082903Y-100269231D01*
X128247710Y-100159110D01*
X134041721Y-94365099D01*
X134077791Y-94365130D01*
X134353290Y-94251296D01*
X134564256Y-94040699D01*
X134678570Y-93765399D01*
X134678830Y-93467309D01*
X134564996Y-93191810D01*
X134354399Y-92980844D01*
X134079099Y-92866530D01*
X133781009Y-92866270D01*
X133505510Y-92980104D01*
X133294544Y-93190701D01*
X133180230Y-93466001D01*
X133179970Y-93764091D01*
X133187548Y-93782432D01*
X133176446Y-93793534D01*
X133130696Y-93682810D01*
X132920099Y-93471844D01*
X132644799Y-93357530D01*
X132464193Y-93357372D01*
X124048310Y-84941490D01*
X123883503Y-84831369D01*
X123689100Y-84792700D01*
X115732521Y-84792700D01*
X114433848Y-83494028D01*
X114771428Y-83426879D01*
X115171085Y-83159837D01*
X115438127Y-82760180D01*
X115524197Y-82327477D01*
X116026840Y-82327477D01*
X116343259Y-83093270D01*
X116928648Y-83679682D01*
X117693888Y-83997437D01*
X118522477Y-83998160D01*
X119288270Y-83681741D01*
X119874682Y-83096352D01*
X120192437Y-82331112D01*
X120193160Y-81502523D01*
X119876741Y-80736730D01*
X119291352Y-80150318D01*
X118526112Y-79832563D01*
X117697523Y-79831840D01*
X116931730Y-80148259D01*
X116345318Y-80733648D01*
X116027563Y-81498888D01*
X116026840Y-82327477D01*
X115524197Y-82327477D01*
X115531900Y-82288752D01*
X115531900Y-81541248D01*
X115438127Y-81069820D01*
X115171085Y-80670163D01*
X114771428Y-80403121D01*
X114300000Y-80309348D01*
X113828572Y-80403121D01*
X113428915Y-80670163D01*
X113389910Y-80728538D01*
X113389210Y-80727490D01*
X112612110Y-79950390D01*
X112447303Y-79840269D01*
X112252900Y-79801600D01*
X88358300Y-79801600D01*
X88206273Y-79831840D01*
X88163896Y-79840269D01*
X87999090Y-79950390D01*
X87258090Y-80691390D01*
X87251679Y-80700984D01*
X87231085Y-80670163D01*
X86831428Y-80403121D01*
X86360000Y-80309348D01*
X85888572Y-80403121D01*
X85488915Y-80670163D01*
X85221873Y-81069820D01*
X85128100Y-81541248D01*
X85051900Y-81541248D01*
X84958127Y-81069820D01*
X84691085Y-80670163D01*
X84291428Y-80403121D01*
X83820000Y-80309348D01*
X83348572Y-80403121D01*
X82948915Y-80670163D01*
X82681873Y-81069820D01*
X82588100Y-81541248D01*
X82511900Y-81541248D01*
X82418127Y-81069820D01*
X82151085Y-80670163D01*
X81751428Y-80403121D01*
X81280000Y-80309348D01*
X80808572Y-80403121D01*
X80408915Y-80670163D01*
X80141873Y-81069820D01*
X80071854Y-81421830D01*
X79997300Y-81407000D01*
X79945196Y-81407000D01*
X79878127Y-81069820D01*
X79611085Y-80670163D01*
X79211428Y-80403121D01*
X78740000Y-80309348D01*
X78268572Y-80403121D01*
X77868915Y-80670163D01*
X77736700Y-80868037D01*
X77736700Y-80523743D01*
X77643894Y-80299689D01*
X77472411Y-80128206D01*
X77248357Y-80035400D01*
X76504800Y-80035400D01*
X76352400Y-80187800D01*
X76352400Y-81762600D01*
X76372400Y-81762600D01*
X76372400Y-82067400D01*
X76352400Y-82067400D01*
X76352400Y-83642200D01*
X76504800Y-83794600D01*
X77248357Y-83794600D01*
X77472411Y-83701794D01*
X77643894Y-83530311D01*
X77736700Y-83306257D01*
X77736700Y-82961963D01*
X77868915Y-83159837D01*
X78268572Y-83426879D01*
X78740000Y-83520652D01*
X79211428Y-83426879D01*
X79489300Y-83241211D01*
X79489300Y-86427970D01*
X79236741Y-85816730D01*
X78651352Y-85230318D01*
X77886112Y-84912563D01*
X77057523Y-84911840D01*
X76291730Y-85228259D01*
X75705318Y-85813648D01*
X75387563Y-86578888D01*
X75386840Y-87407477D01*
X74079100Y-87407477D01*
X74079100Y-82219800D01*
X74663300Y-82219800D01*
X74663300Y-83306257D01*
X74756106Y-83530311D01*
X74927589Y-83701794D01*
X75151643Y-83794600D01*
X75895200Y-83794600D01*
X76047600Y-83642200D01*
X76047600Y-82067400D01*
X74815700Y-82067400D01*
X74663300Y-82219800D01*
X74079100Y-82219800D01*
X74079100Y-80523743D01*
X74663300Y-80523743D01*
X74663300Y-81610200D01*
X74815700Y-81762600D01*
X76047600Y-81762600D01*
X76047600Y-80187800D01*
X75895200Y-80035400D01*
X75151643Y-80035400D01*
X74927589Y-80128206D01*
X74756106Y-80299689D01*
X74663300Y-80523743D01*
X74079100Y-80523743D01*
X74079100Y-79794100D01*
X143090900Y-79794100D01*
X143090900Y-119595900D01*
X143090900Y-119595900D01*
G37*
X143090900Y-119595900D02*
X74079100Y-119595900D01*
X74079100Y-117101248D01*
X74968100Y-117101248D01*
X74968100Y-117848752D01*
X75061873Y-118320180D01*
X75328915Y-118719837D01*
X75728572Y-118986879D01*
X76200000Y-119080652D01*
X76671428Y-118986879D01*
X77071085Y-118719837D01*
X77338127Y-118320180D01*
X77431900Y-117848752D01*
X77431900Y-117101248D01*
X77508100Y-117101248D01*
X77508100Y-117848752D01*
X77601873Y-118320180D01*
X77868915Y-118719837D01*
X78268572Y-118986879D01*
X78740000Y-119080652D01*
X79211428Y-118986879D01*
X79611085Y-118719837D01*
X79878127Y-118320180D01*
X79971900Y-117848752D01*
X79971900Y-117101248D01*
X80048100Y-117101248D01*
X80048100Y-117848752D01*
X80141873Y-118320180D01*
X80408915Y-118719837D01*
X80808572Y-118986879D01*
X81280000Y-119080652D01*
X81751428Y-118986879D01*
X82151085Y-118719837D01*
X82418127Y-118320180D01*
X82511900Y-117848752D01*
X82511900Y-117101248D01*
X82588100Y-117101248D01*
X82588100Y-117848752D01*
X82681873Y-118320180D01*
X82948915Y-118719837D01*
X83348572Y-118986879D01*
X83820000Y-119080652D01*
X84291428Y-118986879D01*
X84691085Y-118719837D01*
X84958127Y-118320180D01*
X85051900Y-117848752D01*
X85051900Y-117101248D01*
X85128100Y-117101248D01*
X85128100Y-117848752D01*
X85221873Y-118320180D01*
X85488915Y-118719837D01*
X85888572Y-118986879D01*
X86360000Y-119080652D01*
X86831428Y-118986879D01*
X87231085Y-118719837D01*
X87498127Y-118320180D01*
X87591900Y-117848752D01*
X87591900Y-117101248D01*
X87668100Y-117101248D01*
X87668100Y-117848752D01*
X87761873Y-118320180D01*
X88028915Y-118719837D01*
X88428572Y-118986879D01*
X88900000Y-119080652D01*
X89371428Y-118986879D01*
X89771085Y-118719837D01*
X90038127Y-118320180D01*
X90131900Y-117848752D01*
X90131900Y-117101248D01*
X90208100Y-117101248D01*
X90208100Y-117848752D01*
X90301873Y-118320180D01*
X90568915Y-118719837D01*
X90968572Y-118986879D01*
X91440000Y-119080652D01*
X91911428Y-118986879D01*
X92311085Y-118719837D01*
X92578127Y-118320180D01*
X92671900Y-117848752D01*
X92671900Y-117101248D01*
X92748100Y-117101248D01*
X92748100Y-117848752D01*
X92841873Y-118320180D01*
X93108915Y-118719837D01*
X93508572Y-118986879D01*
X93980000Y-119080652D01*
X94451428Y-118986879D01*
X94851085Y-118719837D01*
X95118127Y-118320180D01*
X95211900Y-117848752D01*
X95211900Y-117101248D01*
X95288100Y-117101248D01*
X95288100Y-117848752D01*
X95381873Y-118320180D01*
X95648915Y-118719837D01*
X96048572Y-118986879D01*
X96520000Y-119080652D01*
X96991428Y-118986879D01*
X97391085Y-118719837D01*
X97658127Y-118320180D01*
X97751900Y-117848752D01*
X97751900Y-117101248D01*
X97828100Y-117101248D01*
X97828100Y-117848752D01*
X97921873Y-118320180D01*
X98188915Y-118719837D01*
X98588572Y-118986879D01*
X99060000Y-119080652D01*
X99531428Y-118986879D01*
X99931085Y-118719837D01*
X100198127Y-118320180D01*
X100291900Y-117848752D01*
X100291900Y-117101248D01*
X100368100Y-117101248D01*
X100368100Y-117848752D01*
X100461873Y-118320180D01*
X100728915Y-118719837D01*
X101128572Y-118986879D01*
X101600000Y-119080652D01*
X102071428Y-118986879D01*
X102471085Y-118719837D01*
X102738127Y-118320180D01*
X102831900Y-117848752D01*
X102831900Y-117101248D01*
X102908100Y-117101248D01*
X102908100Y-117848752D01*
X103001873Y-118320180D01*
X103268915Y-118719837D01*
X103668572Y-118986879D01*
X104140000Y-119080652D01*
X104611428Y-118986879D01*
X105011085Y-118719837D01*
X105278127Y-118320180D01*
X105371900Y-117848752D01*
X105371900Y-117101248D01*
X105448100Y-117101248D01*
X105448100Y-117848752D01*
X105541873Y-118320180D01*
X105808915Y-118719837D01*
X106208572Y-118986879D01*
X106680000Y-119080652D01*
X107151428Y-118986879D01*
X107551085Y-118719837D01*
X107818127Y-118320180D01*
X107911900Y-117848752D01*
X107911900Y-117101248D01*
X107988100Y-117101248D01*
X107988100Y-117848752D01*
X108081873Y-118320180D01*
X108348915Y-118719837D01*
X108748572Y-118986879D01*
X109220000Y-119080652D01*
X109691428Y-118986879D01*
X110091085Y-118719837D01*
X110358127Y-118320180D01*
X110451900Y-117848752D01*
X110451900Y-117101248D01*
X110358127Y-116629820D01*
X110091085Y-116230163D01*
X109691428Y-115963121D01*
X109220000Y-115869348D01*
X108748572Y-115963121D01*
X108348915Y-116230163D01*
X108081873Y-116629820D01*
X107988100Y-117101248D01*
X107911900Y-117101248D01*
X107818127Y-116629820D01*
X107551085Y-116230163D01*
X107151428Y-115963121D01*
X106680000Y-115869348D01*
X106208572Y-115963121D01*
X105808915Y-116230163D01*
X105541873Y-116629820D01*
X105448100Y-117101248D01*
X105371900Y-117101248D01*
X105278127Y-116629820D01*
X105011085Y-116230163D01*
X104611428Y-115963121D01*
X104140000Y-115869348D01*
X103668572Y-115963121D01*
X103268915Y-116230163D01*
X103001873Y-116629820D01*
X102908100Y-117101248D01*
X102831900Y-117101248D01*
X102738127Y-116629820D01*
X102471085Y-116230163D01*
X102071428Y-115963121D01*
X101600000Y-115869348D01*
X101128572Y-115963121D01*
X100728915Y-116230163D01*
X100461873Y-116629820D01*
X100368100Y-117101248D01*
X100291900Y-117101248D01*
X100198127Y-116629820D01*
X99931085Y-116230163D01*
X99531428Y-115963121D01*
X99060000Y-115869348D01*
X98588572Y-115963121D01*
X98188915Y-116230163D01*
X97921873Y-116629820D01*
X97828100Y-117101248D01*
X97751900Y-117101248D01*
X97658127Y-116629820D01*
X97391085Y-116230163D01*
X96991428Y-115963121D01*
X96520000Y-115869348D01*
X96048572Y-115963121D01*
X95648915Y-116230163D01*
X95381873Y-116629820D01*
X95288100Y-117101248D01*
X95211900Y-117101248D01*
X95118127Y-116629820D01*
X94851085Y-116230163D01*
X94451428Y-115963121D01*
X93980000Y-115869348D01*
X93508572Y-115963121D01*
X93108915Y-116230163D01*
X92841873Y-116629820D01*
X92748100Y-117101248D01*
X92671900Y-117101248D01*
X92578127Y-116629820D01*
X92311085Y-116230163D01*
X91911428Y-115963121D01*
X91440000Y-115869348D01*
X90968572Y-115963121D01*
X90568915Y-116230163D01*
X90301873Y-116629820D01*
X90208100Y-117101248D01*
X90131900Y-117101248D01*
X90038127Y-116629820D01*
X89771085Y-116230163D01*
X89371428Y-115963121D01*
X88900000Y-115869348D01*
X88428572Y-115963121D01*
X88028915Y-116230163D01*
X87761873Y-116629820D01*
X87668100Y-117101248D01*
X87591900Y-117101248D01*
X87498127Y-116629820D01*
X87231085Y-116230163D01*
X86831428Y-115963121D01*
X86360000Y-115869348D01*
X85888572Y-115963121D01*
X85488915Y-116230163D01*
X85221873Y-116629820D01*
X85128100Y-117101248D01*
X85051900Y-117101248D01*
X84958127Y-116629820D01*
X84691085Y-116230163D01*
X84291428Y-115963121D01*
X83820000Y-115869348D01*
X83348572Y-115963121D01*
X82948915Y-116230163D01*
X82681873Y-116629820D01*
X82588100Y-117101248D01*
X82511900Y-117101248D01*
X82418127Y-116629820D01*
X82151085Y-116230163D01*
X81751428Y-115963121D01*
X81280000Y-115869348D01*
X80808572Y-115963121D01*
X80408915Y-116230163D01*
X80141873Y-116629820D01*
X80048100Y-117101248D01*
X79971900Y-117101248D01*
X79878127Y-116629820D01*
X79611085Y-116230163D01*
X79211428Y-115963121D01*
X78740000Y-115869348D01*
X78268572Y-115963121D01*
X77868915Y-116230163D01*
X77601873Y-116629820D01*
X77508100Y-117101248D01*
X77431900Y-117101248D01*
X77338127Y-116629820D01*
X77071085Y-116230163D01*
X76671428Y-115963121D01*
X76200000Y-115869348D01*
X75728572Y-115963121D01*
X75328915Y-116230163D01*
X75061873Y-116629820D01*
X74968100Y-117101248D01*
X74079100Y-117101248D01*
X74079100Y-112807477D01*
X75386840Y-112807477D01*
X75703259Y-113573270D01*
X76288648Y-114159682D01*
X77053888Y-114477437D01*
X77882477Y-114478160D01*
X78648270Y-114161741D01*
X79234682Y-113576352D01*
X79552437Y-112811112D01*
X79553160Y-111982523D01*
X79236741Y-111216730D01*
X78651352Y-110630318D01*
X77886112Y-110312563D01*
X77057523Y-110311840D01*
X76291730Y-110628259D01*
X75705318Y-111213648D01*
X75387563Y-111978888D01*
X75386840Y-112807477D01*
X74079100Y-112807477D01*
X74079100Y-108304129D01*
X98577400Y-108304129D01*
X98577400Y-108865871D01*
X98662472Y-109293558D01*
X98904737Y-109656134D01*
X99267313Y-109898399D01*
X99695000Y-109983471D01*
X100122687Y-109898399D01*
X100485263Y-109656134D01*
X100727528Y-109293558D01*
X100747212Y-109194600D01*
X101182788Y-109194600D01*
X101202472Y-109293558D01*
X101444737Y-109656134D01*
X101807313Y-109898399D01*
X102235000Y-109983471D01*
X102662687Y-109898399D01*
X103025263Y-109656134D01*
X103267528Y-109293558D01*
X103287212Y-109194600D01*
X103722788Y-109194600D01*
X103742472Y-109293558D01*
X103984737Y-109656134D01*
X104347313Y-109898399D01*
X104775000Y-109983471D01*
X105202687Y-109898399D01*
X105565263Y-109656134D01*
X105807528Y-109293558D01*
X105827212Y-109194600D01*
X106262788Y-109194600D01*
X106282472Y-109293558D01*
X106524737Y-109656134D01*
X106887313Y-109898399D01*
X107315000Y-109983471D01*
X107742687Y-109898399D01*
X108105263Y-109656134D01*
X108347528Y-109293558D01*
X108367212Y-109194600D01*
X108802788Y-109194600D01*
X108822472Y-109293558D01*
X109064737Y-109656134D01*
X109427313Y-109898399D01*
X109855000Y-109983471D01*
X110282687Y-109898399D01*
X110645263Y-109656134D01*
X110887528Y-109293558D01*
X110907212Y-109194600D01*
X111342788Y-109194600D01*
X111362472Y-109293558D01*
X111604737Y-109656134D01*
X111967313Y-109898399D01*
X112395000Y-109983471D01*
X112822687Y-109898399D01*
X113185263Y-109656134D01*
X113427528Y-109293558D01*
X113447212Y-109194600D01*
X113882788Y-109194600D01*
X113902472Y-109293558D01*
X114144737Y-109656134D01*
X114507313Y-109898399D01*
X114935000Y-109983471D01*
X115362687Y-109898399D01*
X115725263Y-109656134D01*
X115967528Y-109293558D01*
X115987212Y-109194600D01*
X116422788Y-109194600D01*
X116442472Y-109293558D01*
X116684737Y-109656134D01*
X117047313Y-109898399D01*
X117475000Y-109983471D01*
X117902687Y-109898399D01*
X118265263Y-109656134D01*
X118507528Y-109293558D01*
X118592600Y-108865871D01*
X118592600Y-108304129D01*
X118507528Y-107876442D01*
X118265263Y-107513866D01*
X117902687Y-107271601D01*
X117475000Y-107186529D01*
X117047313Y-107271601D01*
X116684737Y-107513866D01*
X116442472Y-107876442D01*
X116422788Y-107975400D01*
X115987212Y-107975400D01*
X115967528Y-107876442D01*
X115725263Y-107513866D01*
X115362687Y-107271601D01*
X114935000Y-107186529D01*
X114507313Y-107271601D01*
X114144737Y-107513866D01*
X113902472Y-107876442D01*
X113882788Y-107975400D01*
X113447212Y-107975400D01*
X113427528Y-107876442D01*
X113185263Y-107513866D01*
X112822687Y-107271601D01*
X112395000Y-107186529D01*
X111967313Y-107271601D01*
X111604737Y-107513866D01*
X111362472Y-107876442D01*
X111342788Y-107975400D01*
X110907212Y-107975400D01*
X110887528Y-107876442D01*
X110645263Y-107513866D01*
X110282687Y-107271601D01*
X109855000Y-107186529D01*
X109427313Y-107271601D01*
X109064737Y-107513866D01*
X108822472Y-107876442D01*
X108802788Y-107975400D01*
X108367212Y-107975400D01*
X108347528Y-107876442D01*
X108105263Y-107513866D01*
X107742687Y-107271601D01*
X107315000Y-107186529D01*
X106887313Y-107271601D01*
X106524737Y-107513866D01*
X106282472Y-107876442D01*
X106262788Y-107975400D01*
X105827212Y-107975400D01*
X105807528Y-107876442D01*
X105565263Y-107513866D01*
X105202687Y-107271601D01*
X104775000Y-107186529D01*
X104347313Y-107271601D01*
X103984737Y-107513866D01*
X103742472Y-107876442D01*
X103722788Y-107975400D01*
X103287212Y-107975400D01*
X103267528Y-107876442D01*
X103025263Y-107513866D01*
X102662687Y-107271601D01*
X102235000Y-107186529D01*
X101807313Y-107271601D01*
X101444737Y-107513866D01*
X101202472Y-107876442D01*
X101182788Y-107975400D01*
X100747212Y-107975400D01*
X100727528Y-107876442D01*
X100485263Y-107513866D01*
X100122687Y-107271601D01*
X99695000Y-107186529D01*
X99267313Y-107271601D01*
X98904737Y-107513866D01*
X98662472Y-107876442D01*
X98577400Y-108304129D01*
X74079100Y-108304129D01*
X74079100Y-101954129D01*
X83337400Y-101954129D01*
X83337400Y-102515871D01*
X83422472Y-102943558D01*
X83664737Y-103306134D01*
X84027313Y-103548399D01*
X84455000Y-103633471D01*
X84882687Y-103548399D01*
X85245263Y-103306134D01*
X85487528Y-102943558D01*
X85507212Y-102844600D01*
X86006404Y-102844600D01*
X86157121Y-103070164D01*
X86540298Y-103326194D01*
X86992285Y-103416100D01*
X87556515Y-103416100D01*
X88008502Y-103326194D01*
X88391679Y-103070164D01*
X88647709Y-102686987D01*
X88737615Y-102235000D01*
X88647709Y-101783013D01*
X88391679Y-101399836D01*
X88008502Y-101143806D01*
X87556515Y-101053900D01*
X86992285Y-101053900D01*
X86540298Y-101143806D01*
X86157121Y-101399836D01*
X86006404Y-101625400D01*
X85507212Y-101625400D01*
X85487528Y-101526442D01*
X85245263Y-101163866D01*
X84882687Y-100921601D01*
X84455000Y-100836529D01*
X84027313Y-100921601D01*
X83664737Y-101163866D01*
X83422472Y-101526442D01*
X83337400Y-101954129D01*
X74079100Y-101954129D01*
X74079100Y-87407477D01*
X75386840Y-87407477D01*
X75703259Y-88173270D01*
X76288648Y-88759682D01*
X77053888Y-89077437D01*
X77882477Y-89078160D01*
X78648270Y-88761741D01*
X79234682Y-88176352D01*
X79489300Y-87563163D01*
X79489300Y-93789500D01*
X79527969Y-93983903D01*
X79638090Y-94148710D01*
X83003590Y-97514210D01*
X83168397Y-97624331D01*
X83362800Y-97663000D01*
X83433576Y-97663000D01*
X83469405Y-97843123D01*
X83700658Y-98189218D01*
X84046753Y-98420471D01*
X84455000Y-98501676D01*
X84863247Y-98420471D01*
X85209342Y-98189218D01*
X85440595Y-97843123D01*
X85503126Y-97528753D01*
X85634824Y-97528753D01*
X85643442Y-97590065D01*
X85914749Y-98083887D01*
X86354381Y-98436294D01*
X86895409Y-98593636D01*
X87122000Y-98443077D01*
X87122000Y-97307400D01*
X87426800Y-97307400D01*
X87426800Y-98443077D01*
X87653391Y-98593636D01*
X88194419Y-98436294D01*
X88634051Y-98083887D01*
X88905358Y-97590065D01*
X88913976Y-97528753D01*
X88802014Y-97307400D01*
X87426800Y-97307400D01*
X87122000Y-97307400D01*
X85746786Y-97307400D01*
X85634824Y-97528753D01*
X85503126Y-97528753D01*
X85521800Y-97434876D01*
X85521800Y-96875124D01*
X85503127Y-96781247D01*
X85634824Y-96781247D01*
X85746786Y-97002600D01*
X87122000Y-97002600D01*
X87122000Y-95866923D01*
X87426800Y-95866923D01*
X87426800Y-97002600D01*
X88802014Y-97002600D01*
X88913976Y-96781247D01*
X88905358Y-96719935D01*
X88634051Y-96226113D01*
X88194419Y-95873706D01*
X87653391Y-95716364D01*
X87426800Y-95866923D01*
X87122000Y-95866923D01*
X86895409Y-95716364D01*
X86354381Y-95873706D01*
X85914749Y-96226113D01*
X85643442Y-96719935D01*
X85634824Y-96781247D01*
X85503127Y-96781247D01*
X85440595Y-96466877D01*
X85209342Y-96120782D01*
X84863247Y-95889529D01*
X84455000Y-95808324D01*
X84046753Y-95889529D01*
X83700658Y-96120782D01*
X83469405Y-96466877D01*
X83456745Y-96530525D01*
X80505300Y-93579080D01*
X80505300Y-83224239D01*
X80808572Y-83426879D01*
X81280000Y-83520652D01*
X81751428Y-83426879D01*
X82151085Y-83159837D01*
X82418127Y-82760180D01*
X82511900Y-82288752D01*
X82511900Y-81541248D01*
X82588100Y-81541248D01*
X82588100Y-82288752D01*
X82681873Y-82760180D01*
X82948915Y-83159837D01*
X83348572Y-83426879D01*
X83820000Y-83520652D01*
X84291428Y-83426879D01*
X84691085Y-83159837D01*
X84958127Y-82760180D01*
X85051900Y-82288752D01*
X85051900Y-81541248D01*
X85128100Y-81541248D01*
X85128100Y-82288752D01*
X85221873Y-82760180D01*
X85488915Y-83159837D01*
X85888572Y-83426879D01*
X86360000Y-83520652D01*
X86831428Y-83426879D01*
X87231085Y-83159837D01*
X87498127Y-82760180D01*
X87565196Y-82423000D01*
X87617300Y-82423000D01*
X87691854Y-82408170D01*
X87761873Y-82760180D01*
X88028915Y-83159837D01*
X88428572Y-83426879D01*
X88900000Y-83520652D01*
X89371428Y-83426879D01*
X89771085Y-83159837D01*
X89791679Y-83129016D01*
X89798090Y-83138610D01*
X97670690Y-91011210D01*
X97835497Y-91121331D01*
X98029900Y-91160000D01*
X98577400Y-91160000D01*
X98577400Y-93218000D01*
X98729800Y-93370400D01*
X99542600Y-93370400D01*
X99542600Y-93350400D01*
X99847400Y-93350400D01*
X99847400Y-93370400D01*
X100660200Y-93370400D01*
X100812600Y-93218000D01*
X100812600Y-91160000D01*
X101117400Y-91160000D01*
X101117400Y-93218000D01*
X101269800Y-93370400D01*
X102082600Y-93370400D01*
X102082600Y-93350400D01*
X102387400Y-93350400D01*
X102387400Y-93370400D01*
X103200200Y-93370400D01*
X103352600Y-93218000D01*
X103352600Y-91160000D01*
X103657400Y-91160000D01*
X103657400Y-93218000D01*
X103809800Y-93370400D01*
X104622600Y-93370400D01*
X104622600Y-93350400D01*
X104927400Y-93350400D01*
X104927400Y-93370400D01*
X105740200Y-93370400D01*
X105892600Y-93218000D01*
X105892600Y-91160000D01*
X106197400Y-91160000D01*
X106197400Y-93218000D01*
X106349800Y-93370400D01*
X107162600Y-93370400D01*
X107162600Y-93350400D01*
X107467400Y-93350400D01*
X107467400Y-93370400D01*
X108280200Y-93370400D01*
X108432600Y-93218000D01*
X108432600Y-91160000D01*
X108737400Y-91160000D01*
X108737400Y-93218000D01*
X108889800Y-93370400D01*
X109702600Y-93370400D01*
X109702600Y-93350400D01*
X110007400Y-93350400D01*
X110007400Y-93370400D01*
X110820200Y-93370400D01*
X110972600Y-93218000D01*
X110972600Y-91160000D01*
X111277400Y-91160000D01*
X111277400Y-93218000D01*
X111429800Y-93370400D01*
X112242600Y-93370400D01*
X112242600Y-93350400D01*
X112547400Y-93350400D01*
X112547400Y-93370400D01*
X113360200Y-93370400D01*
X113512600Y-93218000D01*
X113512600Y-91160000D01*
X113817400Y-91160000D01*
X113817400Y-93218000D01*
X113969800Y-93370400D01*
X114782600Y-93370400D01*
X114782600Y-93350400D01*
X115087400Y-93350400D01*
X115087400Y-93370400D01*
X115900200Y-93370400D01*
X116052600Y-93218000D01*
X116052600Y-91160000D01*
X116357400Y-91160000D01*
X116357400Y-93218000D01*
X116509800Y-93370400D01*
X117322600Y-93370400D01*
X117322600Y-93350400D01*
X117627400Y-93350400D01*
X117627400Y-93370400D01*
X118440200Y-93370400D01*
X118592600Y-93218000D01*
X118592600Y-91160000D01*
X123641680Y-91160000D01*
X127253026Y-94771346D01*
X127252870Y-94950591D01*
X127366704Y-95226090D01*
X127577301Y-95437056D01*
X127852601Y-95551370D01*
X128150691Y-95551630D01*
X128426190Y-95437796D01*
X128637156Y-95227199D01*
X128751470Y-94951899D01*
X128751730Y-94653809D01*
X128637896Y-94378310D01*
X128427299Y-94167344D01*
X128151999Y-94053030D01*
X127971392Y-94052872D01*
X124211310Y-90292790D01*
X124046503Y-90182669D01*
X123852100Y-90144000D01*
X98240320Y-90144000D01*
X91587610Y-83491290D01*
X91911428Y-83426879D01*
X92311085Y-83159837D01*
X92578127Y-82760180D01*
X92671900Y-82288752D01*
X92671900Y-81541248D01*
X92578127Y-81069820D01*
X92409599Y-80817600D01*
X93010401Y-80817600D01*
X92841873Y-81069820D01*
X92748100Y-81541248D01*
X92748100Y-82288752D01*
X92841873Y-82760180D01*
X93108915Y-83159837D01*
X93508572Y-83426879D01*
X93980000Y-83520652D01*
X94451428Y-83426879D01*
X94851085Y-83159837D01*
X95118127Y-82760180D01*
X95211900Y-82288752D01*
X95211900Y-81541248D01*
X95118127Y-81069820D01*
X94949599Y-80817600D01*
X95550401Y-80817600D01*
X95381873Y-81069820D01*
X95288100Y-81541248D01*
X95288100Y-82288752D01*
X95381873Y-82760180D01*
X95648915Y-83159837D01*
X96048572Y-83426879D01*
X96520000Y-83520652D01*
X96991428Y-83426879D01*
X97391085Y-83159837D01*
X97658127Y-82760180D01*
X97751900Y-82288752D01*
X97751900Y-81541248D01*
X97658127Y-81069820D01*
X97489599Y-80817600D01*
X98090401Y-80817600D01*
X97921873Y-81069820D01*
X97828100Y-81541248D01*
X97828100Y-82288752D01*
X97921873Y-82760180D01*
X98188915Y-83159837D01*
X98588572Y-83426879D01*
X99060000Y-83520652D01*
X99531428Y-83426879D01*
X99931085Y-83159837D01*
X100198127Y-82760180D01*
X100291900Y-82288752D01*
X100291900Y-81541248D01*
X100198127Y-81069820D01*
X100029599Y-80817600D01*
X100630401Y-80817600D01*
X100461873Y-81069820D01*
X100368100Y-81541248D01*
X100368100Y-82288752D01*
X100461873Y-82760180D01*
X100728915Y-83159837D01*
X101128572Y-83426879D01*
X101600000Y-83520652D01*
X102071428Y-83426879D01*
X102471085Y-83159837D01*
X102738127Y-82760180D01*
X102831900Y-82288752D01*
X102831900Y-81541248D01*
X102738127Y-81069820D01*
X102569599Y-80817600D01*
X103170401Y-80817600D01*
X103001873Y-81069820D01*
X102908100Y-81541248D01*
X102908100Y-82288752D01*
X103001873Y-82760180D01*
X103268915Y-83159837D01*
X103668572Y-83426879D01*
X104140000Y-83520652D01*
X104611428Y-83426879D01*
X105011085Y-83159837D01*
X105278127Y-82760180D01*
X105371900Y-82288752D01*
X105371900Y-81541248D01*
X105278127Y-81069820D01*
X105109599Y-80817600D01*
X105710401Y-80817600D01*
X105541873Y-81069820D01*
X105448100Y-81541248D01*
X105448100Y-82288752D01*
X105541873Y-82760180D01*
X105808915Y-83159837D01*
X106208572Y-83426879D01*
X106680000Y-83520652D01*
X107151428Y-83426879D01*
X107551085Y-83159837D01*
X107571679Y-83129016D01*
X107578090Y-83138610D01*
X111038890Y-86599410D01*
X111203696Y-86709531D01*
X111235950Y-86715946D01*
X111398100Y-86748200D01*
X122419580Y-86748200D01*
X130735026Y-95063646D01*
X130734870Y-95242891D01*
X130848704Y-95518390D01*
X131059301Y-95729356D01*
X131187423Y-95782557D01*
X127678080Y-99291900D01*
X127075320Y-99291900D01*
X129955646Y-96411574D01*
X130134891Y-96411730D01*
X130410390Y-96297896D01*
X130621356Y-96087299D01*
X130735670Y-95811999D01*
X130735930Y-95513909D01*
X130622096Y-95238410D01*
X130411499Y-95027444D01*
X130136199Y-94913130D01*
X129838109Y-94912870D01*
X129562610Y-95026704D01*
X129351644Y-95237301D01*
X129237330Y-95512601D01*
X129237172Y-95693208D01*
X126146780Y-98783600D01*
X118345100Y-98783600D01*
X118293771Y-98793810D01*
X118293771Y-97447100D01*
X121315500Y-97447100D01*
X121509903Y-97408431D01*
X121674710Y-97298310D01*
X123607446Y-95365574D01*
X123786691Y-95365730D01*
X124062190Y-95251896D01*
X124273156Y-95041299D01*
X124387470Y-94765999D01*
X124387730Y-94467909D01*
X124273896Y-94192410D01*
X124063299Y-93981444D01*
X123787999Y-93867130D01*
X123489909Y-93866870D01*
X123214410Y-93980704D01*
X123003444Y-94191301D01*
X122889130Y-94466601D01*
X122888972Y-94647208D01*
X121105080Y-96431100D01*
X118703520Y-96431100D01*
X119774147Y-95360474D01*
X119953391Y-95360630D01*
X120228890Y-95246796D01*
X120439856Y-95036199D01*
X120554170Y-94760899D01*
X120554430Y-94462809D01*
X120440596Y-94187310D01*
X120229999Y-93976344D01*
X119954699Y-93862030D01*
X119656609Y-93861770D01*
X119381110Y-93975604D01*
X119170144Y-94186201D01*
X119055830Y-94461501D01*
X119055672Y-94642107D01*
X118592600Y-95105179D01*
X118592600Y-93827600D01*
X118440200Y-93675200D01*
X117627400Y-93675200D01*
X117627400Y-93695200D01*
X117322600Y-93695200D01*
X117322600Y-93675200D01*
X116509800Y-93675200D01*
X116357400Y-93827600D01*
X116357400Y-95891957D01*
X116370134Y-95922700D01*
X116039866Y-95922700D01*
X116052600Y-95891957D01*
X116052600Y-93827600D01*
X115900200Y-93675200D01*
X115087400Y-93675200D01*
X115087400Y-93695200D01*
X114782600Y-93695200D01*
X114782600Y-93675200D01*
X113969800Y-93675200D01*
X113817400Y-93827600D01*
X113817400Y-95891957D01*
X113830134Y-95922700D01*
X113499866Y-95922700D01*
X113512600Y-95891957D01*
X113512600Y-93827600D01*
X113360200Y-93675200D01*
X112547400Y-93675200D01*
X112547400Y-93695200D01*
X112242600Y-93695200D01*
X112242600Y-93675200D01*
X111429800Y-93675200D01*
X111277400Y-93827600D01*
X111277400Y-95891957D01*
X111290134Y-95922700D01*
X110959866Y-95922700D01*
X110972600Y-95891957D01*
X110972600Y-93827600D01*
X110820200Y-93675200D01*
X110007400Y-93675200D01*
X110007400Y-93695200D01*
X109702600Y-93695200D01*
X109702600Y-93675200D01*
X108889800Y-93675200D01*
X108737400Y-93827600D01*
X108737400Y-95891957D01*
X108750134Y-95922700D01*
X108419866Y-95922700D01*
X108432600Y-95891957D01*
X108432600Y-93827600D01*
X108280200Y-93675200D01*
X107467400Y-93675200D01*
X107467400Y-93695200D01*
X107162600Y-93695200D01*
X107162600Y-93675200D01*
X106349800Y-93675200D01*
X106197400Y-93827600D01*
X106197400Y-95891957D01*
X106210134Y-95922700D01*
X105879866Y-95922700D01*
X105892600Y-95891957D01*
X105892600Y-93827600D01*
X105740200Y-93675200D01*
X104927400Y-93675200D01*
X104927400Y-93695200D01*
X104622600Y-93695200D01*
X104622600Y-93675200D01*
X103809800Y-93675200D01*
X103657400Y-93827600D01*
X103657400Y-95891957D01*
X103670134Y-95922700D01*
X103339866Y-95922700D01*
X103352600Y-95891957D01*
X103352600Y-93827600D01*
X103200200Y-93675200D01*
X102387400Y-93675200D01*
X102387400Y-93695200D01*
X102082600Y-93695200D01*
X102082600Y-93675200D01*
X101269800Y-93675200D01*
X101117400Y-93827600D01*
X101117400Y-95891957D01*
X101130134Y-95922700D01*
X100799866Y-95922700D01*
X100812600Y-95891957D01*
X100812600Y-93827600D01*
X100660200Y-93675200D01*
X99847400Y-93675200D01*
X99847400Y-93695200D01*
X99542600Y-93695200D01*
X99542600Y-93675200D01*
X98729800Y-93675200D01*
X98577400Y-93827600D01*
X98577400Y-95891957D01*
X98670206Y-96116011D01*
X98841689Y-96287494D01*
X99065743Y-96380300D01*
X99390200Y-96380300D01*
X99542598Y-96227902D01*
X99542598Y-96373082D01*
X99335790Y-96579890D01*
X99225669Y-96744697D01*
X99187000Y-96939100D01*
X99187000Y-96958529D01*
X99068073Y-96982185D01*
X98967252Y-97049552D01*
X98899885Y-97150373D01*
X98876229Y-97269300D01*
X98876229Y-101765100D01*
X98899885Y-101884027D01*
X98967252Y-101984848D01*
X99068073Y-102052215D01*
X99187000Y-102075871D01*
X99187000Y-102306182D01*
X98940658Y-102470782D01*
X98709405Y-102816877D01*
X98628200Y-103225124D01*
X98628200Y-103784876D01*
X98709405Y-104193123D01*
X98940658Y-104539218D01*
X99286753Y-104770471D01*
X99695000Y-104851676D01*
X100103247Y-104770471D01*
X100449342Y-104539218D01*
X100680595Y-104193123D01*
X100761800Y-103784876D01*
X100761800Y-103225124D01*
X100680595Y-102816877D01*
X100449342Y-102470782D01*
X100203000Y-102306182D01*
X100203000Y-102075871D01*
X100321927Y-102052215D01*
X100422748Y-101984848D01*
X100490115Y-101884027D01*
X100513771Y-101765100D01*
X100513771Y-97269300D01*
X100490115Y-97150373D01*
X100422748Y-97049552D01*
X100350945Y-97001575D01*
X100413820Y-96938700D01*
X101727080Y-96938700D01*
X101727000Y-96939100D01*
X101727000Y-96958529D01*
X101608073Y-96982185D01*
X101507252Y-97049552D01*
X101439885Y-97150373D01*
X101416229Y-97269300D01*
X101416229Y-101765100D01*
X101439885Y-101884027D01*
X101507252Y-101984848D01*
X101608073Y-102052215D01*
X101727000Y-102075871D01*
X101727000Y-102306182D01*
X101480658Y-102470782D01*
X101249405Y-102816877D01*
X101168200Y-103225124D01*
X101168200Y-103784876D01*
X101249405Y-104193123D01*
X101480658Y-104539218D01*
X101826753Y-104770471D01*
X102235000Y-104851676D01*
X102643247Y-104770471D01*
X102989342Y-104539218D01*
X103220595Y-104193123D01*
X103301800Y-103784876D01*
X103301800Y-103225124D01*
X103220595Y-102816877D01*
X102989342Y-102470782D01*
X102743000Y-102306182D01*
X102743000Y-102075871D01*
X102861927Y-102052215D01*
X102962748Y-101984848D01*
X103030115Y-101884027D01*
X103053771Y-101765100D01*
X103053771Y-97447100D01*
X103956229Y-97447100D01*
X103956229Y-101765100D01*
X103979885Y-101884027D01*
X104047252Y-101984848D01*
X104148073Y-102052215D01*
X104267000Y-102075871D01*
X104267000Y-102306182D01*
X104020658Y-102470782D01*
X103789405Y-102816877D01*
X103708200Y-103225124D01*
X103708200Y-103784876D01*
X103789405Y-104193123D01*
X104020658Y-104539218D01*
X104366753Y-104770471D01*
X104775000Y-104851676D01*
X105183247Y-104770471D01*
X105529342Y-104539218D01*
X105760595Y-104193123D01*
X105841800Y-103784876D01*
X105841800Y-103225124D01*
X105760595Y-102816877D01*
X105529342Y-102470782D01*
X105283000Y-102306182D01*
X105283000Y-102075871D01*
X105401927Y-102052215D01*
X105502748Y-101984848D01*
X105570115Y-101884027D01*
X105593771Y-101765100D01*
X105593771Y-97447100D01*
X106496229Y-97447100D01*
X106496229Y-101765100D01*
X106519885Y-101884027D01*
X106587252Y-101984848D01*
X106688073Y-102052215D01*
X106807000Y-102075871D01*
X106807000Y-102306182D01*
X106560658Y-102470782D01*
X106329405Y-102816877D01*
X106248200Y-103225124D01*
X106248200Y-103784876D01*
X106329405Y-104193123D01*
X106560658Y-104539218D01*
X106906753Y-104770471D01*
X107315000Y-104851676D01*
X107723247Y-104770471D01*
X108069342Y-104539218D01*
X108300595Y-104193123D01*
X108381800Y-103784876D01*
X108381800Y-103225124D01*
X108300595Y-102816877D01*
X108069342Y-102470782D01*
X107823000Y-102306182D01*
X107823000Y-102075871D01*
X107941927Y-102052215D01*
X108042748Y-101984848D01*
X108110115Y-101884027D01*
X108133771Y-101765100D01*
X108133771Y-97447100D01*
X109036229Y-97447100D01*
X109036229Y-101765100D01*
X109059885Y-101884027D01*
X109127252Y-101984848D01*
X109228073Y-102052215D01*
X109347000Y-102075871D01*
X109347000Y-102306182D01*
X109100658Y-102470782D01*
X108869405Y-102816877D01*
X108788200Y-103225124D01*
X108788200Y-103784876D01*
X108869405Y-104193123D01*
X109100658Y-104539218D01*
X109446753Y-104770471D01*
X109855000Y-104851676D01*
X110263247Y-104770471D01*
X110609342Y-104539218D01*
X110840595Y-104193123D01*
X110921800Y-103784876D01*
X110921800Y-103225124D01*
X110840595Y-102816877D01*
X110609342Y-102470782D01*
X110363000Y-102306182D01*
X110363000Y-102075871D01*
X110481927Y-102052215D01*
X110582748Y-101984848D01*
X110650115Y-101884027D01*
X110673771Y-101765100D01*
X110673771Y-97447100D01*
X111576229Y-97447100D01*
X111576229Y-101765100D01*
X111599885Y-101884027D01*
X111667252Y-101984848D01*
X111768073Y-102052215D01*
X111887000Y-102075871D01*
X111887000Y-102306182D01*
X111640658Y-102470782D01*
X111409405Y-102816877D01*
X111328200Y-103225124D01*
X111328200Y-103784876D01*
X111409405Y-104193123D01*
X111640658Y-104539218D01*
X111986753Y-104770471D01*
X112395000Y-104851676D01*
X112803247Y-104770471D01*
X113149342Y-104539218D01*
X113380595Y-104193123D01*
X113461800Y-103784876D01*
X113461800Y-103225124D01*
X113380595Y-102816877D01*
X113149342Y-102470782D01*
X112903000Y-102306182D01*
X112903000Y-102075871D01*
X113021927Y-102052215D01*
X113122748Y-101984848D01*
X113190115Y-101884027D01*
X113213771Y-101765100D01*
X113213771Y-97447100D01*
X114116229Y-97447100D01*
X114116229Y-101765100D01*
X114139885Y-101884027D01*
X114207252Y-101984848D01*
X114308073Y-102052215D01*
X114427000Y-102075871D01*
X114427000Y-102306182D01*
X114180658Y-102470782D01*
X113949405Y-102816877D01*
X113868200Y-103225124D01*
X113868200Y-103784876D01*
X113949405Y-104193123D01*
X114180658Y-104539218D01*
X114526753Y-104770471D01*
X114935000Y-104851676D01*
X115343247Y-104770471D01*
X115689342Y-104539218D01*
X115787097Y-104392917D01*
X116595089Y-105200910D01*
X116759896Y-105311031D01*
X116792150Y-105317446D01*
X116954300Y-105349700D01*
X117920700Y-105349700D01*
X118115103Y-105311031D01*
X118279910Y-105200910D01*
X123172920Y-100307900D01*
X123183590Y-100307900D01*
X123145430Y-100399801D01*
X123145170Y-100697891D01*
X123259004Y-100973390D01*
X123386600Y-101101210D01*
X123386600Y-105129980D01*
X112658090Y-115858490D01*
X112547969Y-116023297D01*
X112521399Y-116156873D01*
X112231428Y-115963121D01*
X111760000Y-115869348D01*
X111288572Y-115963121D01*
X110888915Y-116230163D01*
X110621873Y-116629820D01*
X110528100Y-117101248D01*
X110528100Y-117848752D01*
X110621873Y-118320180D01*
X110888915Y-118719837D01*
X111288572Y-118986879D01*
X111760000Y-119080652D01*
X112231428Y-118986879D01*
X112631085Y-118719837D01*
X112898127Y-118320180D01*
X112965196Y-117983000D01*
X113017300Y-117983000D01*
X113091854Y-117968170D01*
X113161873Y-118320180D01*
X113428915Y-118719837D01*
X113828572Y-118986879D01*
X114300000Y-119080652D01*
X114771428Y-118986879D01*
X115171085Y-118719837D01*
X115438127Y-118320180D01*
X115524197Y-117887477D01*
X116026840Y-117887477D01*
X116343259Y-118653270D01*
X116928648Y-119239682D01*
X117693888Y-119557437D01*
X118522477Y-119558160D01*
X119288270Y-119241741D01*
X119874682Y-118656352D01*
X120192437Y-117891112D01*
X120193160Y-117062523D01*
X119876741Y-116296730D01*
X119291352Y-115710318D01*
X118526112Y-115392563D01*
X117697523Y-115391840D01*
X116931730Y-115708259D01*
X116345318Y-116293648D01*
X116027563Y-117058888D01*
X116026840Y-117887477D01*
X115524197Y-117887477D01*
X115531900Y-117848752D01*
X115531900Y-117101248D01*
X115438127Y-116629820D01*
X115171085Y-116230163D01*
X114771428Y-115963121D01*
X114300000Y-115869348D01*
X114030456Y-115922964D01*
X124253810Y-105699610D01*
X124363931Y-105534804D01*
X124402600Y-105340400D01*
X124402600Y-101101133D01*
X124529456Y-100974499D01*
X124643770Y-100699199D01*
X124644030Y-100401109D01*
X124605517Y-100307900D01*
X127888500Y-100307900D01*
X128082903Y-100269231D01*
X128247710Y-100159110D01*
X134041721Y-94365099D01*
X134077791Y-94365130D01*
X134353290Y-94251296D01*
X134564256Y-94040699D01*
X134678570Y-93765399D01*
X134678830Y-93467309D01*
X134564996Y-93191810D01*
X134354399Y-92980844D01*
X134079099Y-92866530D01*
X133781009Y-92866270D01*
X133505510Y-92980104D01*
X133294544Y-93190701D01*
X133180230Y-93466001D01*
X133179970Y-93764091D01*
X133187548Y-93782432D01*
X133176446Y-93793534D01*
X133130696Y-93682810D01*
X132920099Y-93471844D01*
X132644799Y-93357530D01*
X132464193Y-93357372D01*
X124048310Y-84941490D01*
X123883503Y-84831369D01*
X123689100Y-84792700D01*
X115732521Y-84792700D01*
X114433848Y-83494028D01*
X114771428Y-83426879D01*
X115171085Y-83159837D01*
X115438127Y-82760180D01*
X115524197Y-82327477D01*
X116026840Y-82327477D01*
X116343259Y-83093270D01*
X116928648Y-83679682D01*
X117693888Y-83997437D01*
X118522477Y-83998160D01*
X119288270Y-83681741D01*
X119874682Y-83096352D01*
X120192437Y-82331112D01*
X120193160Y-81502523D01*
X119876741Y-80736730D01*
X119291352Y-80150318D01*
X118526112Y-79832563D01*
X117697523Y-79831840D01*
X116931730Y-80148259D01*
X116345318Y-80733648D01*
X116027563Y-81498888D01*
X116026840Y-82327477D01*
X115524197Y-82327477D01*
X115531900Y-82288752D01*
X115531900Y-81541248D01*
X115438127Y-81069820D01*
X115171085Y-80670163D01*
X114771428Y-80403121D01*
X114300000Y-80309348D01*
X113828572Y-80403121D01*
X113428915Y-80670163D01*
X113389910Y-80728538D01*
X113389210Y-80727490D01*
X112612110Y-79950390D01*
X112447303Y-79840269D01*
X112252900Y-79801600D01*
X88358300Y-79801600D01*
X88206273Y-79831840D01*
X88163896Y-79840269D01*
X87999090Y-79950390D01*
X87258090Y-80691390D01*
X87251679Y-80700984D01*
X87231085Y-80670163D01*
X86831428Y-80403121D01*
X86360000Y-80309348D01*
X85888572Y-80403121D01*
X85488915Y-80670163D01*
X85221873Y-81069820D01*
X85128100Y-81541248D01*
X85051900Y-81541248D01*
X84958127Y-81069820D01*
X84691085Y-80670163D01*
X84291428Y-80403121D01*
X83820000Y-80309348D01*
X83348572Y-80403121D01*
X82948915Y-80670163D01*
X82681873Y-81069820D01*
X82588100Y-81541248D01*
X82511900Y-81541248D01*
X82418127Y-81069820D01*
X82151085Y-80670163D01*
X81751428Y-80403121D01*
X81280000Y-80309348D01*
X80808572Y-80403121D01*
X80408915Y-80670163D01*
X80141873Y-81069820D01*
X80071854Y-81421830D01*
X79997300Y-81407000D01*
X79945196Y-81407000D01*
X79878127Y-81069820D01*
X79611085Y-80670163D01*
X79211428Y-80403121D01*
X78740000Y-80309348D01*
X78268572Y-80403121D01*
X77868915Y-80670163D01*
X77736700Y-80868037D01*
X77736700Y-80523743D01*
X77643894Y-80299689D01*
X77472411Y-80128206D01*
X77248357Y-80035400D01*
X76504800Y-80035400D01*
X76352400Y-80187800D01*
X76352400Y-81762600D01*
X76372400Y-81762600D01*
X76372400Y-82067400D01*
X76352400Y-82067400D01*
X76352400Y-83642200D01*
X76504800Y-83794600D01*
X77248357Y-83794600D01*
X77472411Y-83701794D01*
X77643894Y-83530311D01*
X77736700Y-83306257D01*
X77736700Y-82961963D01*
X77868915Y-83159837D01*
X78268572Y-83426879D01*
X78740000Y-83520652D01*
X79211428Y-83426879D01*
X79489300Y-83241211D01*
X79489300Y-86427970D01*
X79236741Y-85816730D01*
X78651352Y-85230318D01*
X77886112Y-84912563D01*
X77057523Y-84911840D01*
X76291730Y-85228259D01*
X75705318Y-85813648D01*
X75387563Y-86578888D01*
X75386840Y-87407477D01*
X74079100Y-87407477D01*
X74079100Y-82219800D01*
X74663300Y-82219800D01*
X74663300Y-83306257D01*
X74756106Y-83530311D01*
X74927589Y-83701794D01*
X75151643Y-83794600D01*
X75895200Y-83794600D01*
X76047600Y-83642200D01*
X76047600Y-82067400D01*
X74815700Y-82067400D01*
X74663300Y-82219800D01*
X74079100Y-82219800D01*
X74079100Y-80523743D01*
X74663300Y-80523743D01*
X74663300Y-81610200D01*
X74815700Y-81762600D01*
X76047600Y-81762600D01*
X76047600Y-80187800D01*
X75895200Y-80035400D01*
X75151643Y-80035400D01*
X74927589Y-80128206D01*
X74756106Y-80299689D01*
X74663300Y-80523743D01*
X74079100Y-80523743D01*
X74079100Y-79794100D01*
X143090900Y-79794100D01*
X143090900Y-119595900D01*
M02*
