G04 #@! TF.FileFunction,Copper,L1,Top,Signal*
%FSLAX46Y46*%
G04 Gerber Fmt 4.6, Leading zero omitted, Abs format (unit mm)*
G04 Created by KiCad (PCBNEW 4.1.0-alpha+201607250105+6992~46~ubuntu16.04.1-product) date Mon Jul 25 10:02:05 2016*
%MOMM*%
%LPD*%
G01*
G04 APERTURE LIST*
%ADD10C,0.100000*%
%ADD11C,0.228600*%
%ADD12O,1.854200X2.540000*%
%ADD13R,1.854200X2.540000*%
%ADD14C,3.556000*%
%ADD15O,1.524000X2.032000*%
%ADD16R,1.016000X4.495800*%
%ADD17O,2.159000X1.651000*%
%ADD18C,0.889000*%
%ADD19C,0.406400*%
%ADD20C,1.016000*%
%ADD21C,0.508000*%
%ADD22C,0.203200*%
G04 APERTURE END LIST*
D10*
D11*
X137160000Y-79375000D02*
X73660000Y-79375000D01*
X137160000Y-120015000D02*
X137160000Y-79375000D01*
X73660000Y-120015000D02*
X137160000Y-120015000D01*
X73660000Y-79375000D02*
X73660000Y-120015000D01*
D12*
X78740000Y-81915000D03*
X81280000Y-81915000D03*
D13*
X76200000Y-81915000D03*
D12*
X83820000Y-81915000D03*
X86360000Y-81915000D03*
X88900000Y-81915000D03*
X91440000Y-81915000D03*
X93980000Y-81915000D03*
X96520000Y-81915000D03*
X99060000Y-81915000D03*
X101600000Y-81915000D03*
X104140000Y-81915000D03*
X106680000Y-81915000D03*
X109220000Y-81915000D03*
X111760000Y-81915000D03*
X114300000Y-81915000D03*
X114300000Y-117475000D03*
X111760000Y-117475000D03*
X109220000Y-117475000D03*
X106680000Y-117475000D03*
X104140000Y-117475000D03*
X101600000Y-117475000D03*
X99060000Y-117475000D03*
X96520000Y-117475000D03*
X93980000Y-117475000D03*
X91440000Y-117475000D03*
X88900000Y-117475000D03*
X86360000Y-117475000D03*
X83820000Y-117475000D03*
X81280000Y-117475000D03*
X78740000Y-117475000D03*
X76200000Y-117475000D03*
D14*
X77470000Y-86995000D03*
X77470000Y-112395000D03*
X118110000Y-116205000D03*
X118110000Y-83185000D03*
D15*
X82550000Y-102235000D03*
X82550000Y-97155000D03*
X114300000Y-111760000D03*
X114300000Y-106680000D03*
X111760000Y-111760000D03*
X111760000Y-106680000D03*
X109220000Y-111760000D03*
X109220000Y-106680000D03*
X106680000Y-111760000D03*
X106680000Y-106680000D03*
X104140000Y-111760000D03*
X104140000Y-106680000D03*
X101600000Y-111760000D03*
X101600000Y-106680000D03*
X99060000Y-111760000D03*
X99060000Y-106680000D03*
X96520000Y-111760000D03*
X96520000Y-106680000D03*
D16*
X114300000Y-96697800D03*
X114300000Y-102692200D03*
X111760000Y-96697800D03*
X111760000Y-102692200D03*
X109220000Y-96697800D03*
X109220000Y-102692200D03*
X106680000Y-96697800D03*
X106680000Y-102692200D03*
X104140000Y-96697800D03*
X104140000Y-102692200D03*
X101600000Y-96697800D03*
X101600000Y-102692200D03*
X99060000Y-96697800D03*
X99060000Y-102692200D03*
X96520000Y-96697800D03*
X96520000Y-102692200D03*
D17*
X85369400Y-97155000D03*
X85369400Y-102235000D03*
D18*
X119454200Y-99950700D03*
X127136600Y-106313800D03*
X131416900Y-99069100D03*
X113030000Y-100635300D03*
D19*
X82550000Y-97155000D02*
X83642200Y-97155000D01*
X119389200Y-99885700D02*
X119454200Y-99950700D01*
X85963300Y-99885700D02*
X119389200Y-99885700D01*
X83642200Y-97564600D02*
X85963300Y-99885700D01*
X83642200Y-97155000D02*
X83642200Y-97564600D01*
X120773500Y-99950700D02*
X127136600Y-106313800D01*
X119454200Y-99950700D02*
X120773500Y-99950700D01*
D20*
X99060000Y-96697800D02*
X101600000Y-96697800D01*
X101600000Y-96697800D02*
X104140000Y-96697800D01*
X104140000Y-96697800D02*
X106680000Y-96697800D01*
X106680000Y-96697800D02*
X109220000Y-96697800D01*
X109220000Y-96697800D02*
X111760000Y-96697800D01*
X111760000Y-96697800D02*
X114300000Y-96697800D01*
X96520000Y-96697800D02*
X99060000Y-96697800D01*
X87668400Y-96697800D02*
X87211200Y-97155000D01*
X96520000Y-96697800D02*
X87668400Y-96697800D01*
X85369400Y-97155000D02*
X86290300Y-97155000D01*
X86290300Y-97155000D02*
X87211200Y-97155000D01*
X78040100Y-83947300D02*
X76200000Y-83947300D01*
X86290300Y-92197500D02*
X78040100Y-83947300D01*
X86290300Y-97155000D02*
X86290300Y-92197500D01*
X76200000Y-81915000D02*
X76200000Y-83947300D01*
D21*
X96520000Y-111760000D02*
X99060000Y-111760000D01*
X99060000Y-111760000D02*
X101600000Y-111760000D01*
X101600000Y-111760000D02*
X104140000Y-111760000D01*
X104140000Y-111760000D02*
X106680000Y-111760000D01*
X106680000Y-111760000D02*
X109220000Y-111760000D01*
X109220000Y-111760000D02*
X111760000Y-111760000D01*
X111760000Y-111760000D02*
X114300000Y-111760000D01*
X85369400Y-102235000D02*
X82550000Y-102235000D01*
D19*
X114300000Y-102692000D02*
X114300000Y-102692200D01*
X114300000Y-102692200D02*
X114300000Y-106680000D01*
X111760000Y-102692000D02*
X111760000Y-102692200D01*
X111760000Y-102692200D02*
X111760000Y-106680000D01*
X109220000Y-102692000D02*
X109220000Y-102692200D01*
X109220000Y-102692200D02*
X109220000Y-106680000D01*
X106680000Y-102692000D02*
X106680000Y-102692200D01*
X106680000Y-102692200D02*
X106680000Y-106680000D01*
X104140000Y-102692000D02*
X104140000Y-102692200D01*
X104140000Y-102692200D02*
X104140000Y-106680000D01*
X101600000Y-102692000D02*
X101600000Y-102692200D01*
X101600000Y-102692200D02*
X101600000Y-106680000D01*
X99060000Y-102692000D02*
X99060000Y-102692200D01*
X99060000Y-102692200D02*
X99060000Y-106680000D01*
X96520000Y-102692000D02*
X96520000Y-102692200D01*
X96520000Y-102692200D02*
X96520000Y-106680000D01*
X124178400Y-91830600D02*
X131416900Y-99069100D01*
X96668500Y-91830600D02*
X124178400Y-91830600D01*
X87617300Y-82779400D02*
X96668500Y-91830600D01*
X87617300Y-81915000D02*
X87617300Y-82779400D01*
X86360000Y-81915000D02*
X87617300Y-81915000D01*
X113017300Y-116217700D02*
X113017300Y-117475000D01*
X115519600Y-113715400D02*
X113017300Y-116217700D01*
X115519600Y-109684000D02*
X115519600Y-113715400D01*
X113030000Y-107194400D02*
X115519600Y-109684000D01*
X113030000Y-100635300D02*
X113030000Y-107194400D01*
X111760000Y-117475000D02*
X113017300Y-117475000D01*
D22*
G36*
X136740900Y-119595900D02*
X74079100Y-119595900D01*
X74079100Y-117101248D01*
X74968100Y-117101248D01*
X74968100Y-117848752D01*
X75061873Y-118320180D01*
X75328915Y-118719837D01*
X75728572Y-118986879D01*
X76200000Y-119080652D01*
X76671428Y-118986879D01*
X77071085Y-118719837D01*
X77338127Y-118320180D01*
X77431900Y-117848752D01*
X77431900Y-117101248D01*
X77508100Y-117101248D01*
X77508100Y-117848752D01*
X77601873Y-118320180D01*
X77868915Y-118719837D01*
X78268572Y-118986879D01*
X78740000Y-119080652D01*
X79211428Y-118986879D01*
X79611085Y-118719837D01*
X79878127Y-118320180D01*
X79971900Y-117848752D01*
X79971900Y-117101248D01*
X80048100Y-117101248D01*
X80048100Y-117848752D01*
X80141873Y-118320180D01*
X80408915Y-118719837D01*
X80808572Y-118986879D01*
X81280000Y-119080652D01*
X81751428Y-118986879D01*
X82151085Y-118719837D01*
X82418127Y-118320180D01*
X82511900Y-117848752D01*
X82511900Y-117101248D01*
X82588100Y-117101248D01*
X82588100Y-117848752D01*
X82681873Y-118320180D01*
X82948915Y-118719837D01*
X83348572Y-118986879D01*
X83820000Y-119080652D01*
X84291428Y-118986879D01*
X84691085Y-118719837D01*
X84958127Y-118320180D01*
X85051900Y-117848752D01*
X85051900Y-117101248D01*
X85128100Y-117101248D01*
X85128100Y-117848752D01*
X85221873Y-118320180D01*
X85488915Y-118719837D01*
X85888572Y-118986879D01*
X86360000Y-119080652D01*
X86831428Y-118986879D01*
X87231085Y-118719837D01*
X87498127Y-118320180D01*
X87591900Y-117848752D01*
X87591900Y-117101248D01*
X87668100Y-117101248D01*
X87668100Y-117848752D01*
X87761873Y-118320180D01*
X88028915Y-118719837D01*
X88428572Y-118986879D01*
X88900000Y-119080652D01*
X89371428Y-118986879D01*
X89771085Y-118719837D01*
X90038127Y-118320180D01*
X90131900Y-117848752D01*
X90131900Y-117101248D01*
X90208100Y-117101248D01*
X90208100Y-117848752D01*
X90301873Y-118320180D01*
X90568915Y-118719837D01*
X90968572Y-118986879D01*
X91440000Y-119080652D01*
X91911428Y-118986879D01*
X92311085Y-118719837D01*
X92578127Y-118320180D01*
X92671900Y-117848752D01*
X92671900Y-117101248D01*
X92748100Y-117101248D01*
X92748100Y-117848752D01*
X92841873Y-118320180D01*
X93108915Y-118719837D01*
X93508572Y-118986879D01*
X93980000Y-119080652D01*
X94451428Y-118986879D01*
X94851085Y-118719837D01*
X95118127Y-118320180D01*
X95211900Y-117848752D01*
X95211900Y-117101248D01*
X95288100Y-117101248D01*
X95288100Y-117848752D01*
X95381873Y-118320180D01*
X95648915Y-118719837D01*
X96048572Y-118986879D01*
X96520000Y-119080652D01*
X96991428Y-118986879D01*
X97391085Y-118719837D01*
X97658127Y-118320180D01*
X97751900Y-117848752D01*
X97751900Y-117101248D01*
X97828100Y-117101248D01*
X97828100Y-117848752D01*
X97921873Y-118320180D01*
X98188915Y-118719837D01*
X98588572Y-118986879D01*
X99060000Y-119080652D01*
X99531428Y-118986879D01*
X99931085Y-118719837D01*
X100198127Y-118320180D01*
X100291900Y-117848752D01*
X100291900Y-117101248D01*
X100368100Y-117101248D01*
X100368100Y-117848752D01*
X100461873Y-118320180D01*
X100728915Y-118719837D01*
X101128572Y-118986879D01*
X101600000Y-119080652D01*
X102071428Y-118986879D01*
X102471085Y-118719837D01*
X102738127Y-118320180D01*
X102831900Y-117848752D01*
X102831900Y-117101248D01*
X102908100Y-117101248D01*
X102908100Y-117848752D01*
X103001873Y-118320180D01*
X103268915Y-118719837D01*
X103668572Y-118986879D01*
X104140000Y-119080652D01*
X104611428Y-118986879D01*
X105011085Y-118719837D01*
X105278127Y-118320180D01*
X105371900Y-117848752D01*
X105371900Y-117101248D01*
X105448100Y-117101248D01*
X105448100Y-117848752D01*
X105541873Y-118320180D01*
X105808915Y-118719837D01*
X106208572Y-118986879D01*
X106680000Y-119080652D01*
X107151428Y-118986879D01*
X107551085Y-118719837D01*
X107818127Y-118320180D01*
X107911900Y-117848752D01*
X107911900Y-117101248D01*
X107988100Y-117101248D01*
X107988100Y-117848752D01*
X108081873Y-118320180D01*
X108348915Y-118719837D01*
X108748572Y-118986879D01*
X109220000Y-119080652D01*
X109691428Y-118986879D01*
X110091085Y-118719837D01*
X110358127Y-118320180D01*
X110451900Y-117848752D01*
X110451900Y-117101248D01*
X110358127Y-116629820D01*
X110091085Y-116230163D01*
X109691428Y-115963121D01*
X109220000Y-115869348D01*
X108748572Y-115963121D01*
X108348915Y-116230163D01*
X108081873Y-116629820D01*
X107988100Y-117101248D01*
X107911900Y-117101248D01*
X107818127Y-116629820D01*
X107551085Y-116230163D01*
X107151428Y-115963121D01*
X106680000Y-115869348D01*
X106208572Y-115963121D01*
X105808915Y-116230163D01*
X105541873Y-116629820D01*
X105448100Y-117101248D01*
X105371900Y-117101248D01*
X105278127Y-116629820D01*
X105011085Y-116230163D01*
X104611428Y-115963121D01*
X104140000Y-115869348D01*
X103668572Y-115963121D01*
X103268915Y-116230163D01*
X103001873Y-116629820D01*
X102908100Y-117101248D01*
X102831900Y-117101248D01*
X102738127Y-116629820D01*
X102471085Y-116230163D01*
X102071428Y-115963121D01*
X101600000Y-115869348D01*
X101128572Y-115963121D01*
X100728915Y-116230163D01*
X100461873Y-116629820D01*
X100368100Y-117101248D01*
X100291900Y-117101248D01*
X100198127Y-116629820D01*
X99931085Y-116230163D01*
X99531428Y-115963121D01*
X99060000Y-115869348D01*
X98588572Y-115963121D01*
X98188915Y-116230163D01*
X97921873Y-116629820D01*
X97828100Y-117101248D01*
X97751900Y-117101248D01*
X97658127Y-116629820D01*
X97391085Y-116230163D01*
X96991428Y-115963121D01*
X96520000Y-115869348D01*
X96048572Y-115963121D01*
X95648915Y-116230163D01*
X95381873Y-116629820D01*
X95288100Y-117101248D01*
X95211900Y-117101248D01*
X95118127Y-116629820D01*
X94851085Y-116230163D01*
X94451428Y-115963121D01*
X93980000Y-115869348D01*
X93508572Y-115963121D01*
X93108915Y-116230163D01*
X92841873Y-116629820D01*
X92748100Y-117101248D01*
X92671900Y-117101248D01*
X92578127Y-116629820D01*
X92311085Y-116230163D01*
X91911428Y-115963121D01*
X91440000Y-115869348D01*
X90968572Y-115963121D01*
X90568915Y-116230163D01*
X90301873Y-116629820D01*
X90208100Y-117101248D01*
X90131900Y-117101248D01*
X90038127Y-116629820D01*
X89771085Y-116230163D01*
X89371428Y-115963121D01*
X88900000Y-115869348D01*
X88428572Y-115963121D01*
X88028915Y-116230163D01*
X87761873Y-116629820D01*
X87668100Y-117101248D01*
X87591900Y-117101248D01*
X87498127Y-116629820D01*
X87231085Y-116230163D01*
X86831428Y-115963121D01*
X86360000Y-115869348D01*
X85888572Y-115963121D01*
X85488915Y-116230163D01*
X85221873Y-116629820D01*
X85128100Y-117101248D01*
X85051900Y-117101248D01*
X84958127Y-116629820D01*
X84691085Y-116230163D01*
X84291428Y-115963121D01*
X83820000Y-115869348D01*
X83348572Y-115963121D01*
X82948915Y-116230163D01*
X82681873Y-116629820D01*
X82588100Y-117101248D01*
X82511900Y-117101248D01*
X82418127Y-116629820D01*
X82151085Y-116230163D01*
X81751428Y-115963121D01*
X81280000Y-115869348D01*
X80808572Y-115963121D01*
X80408915Y-116230163D01*
X80141873Y-116629820D01*
X80048100Y-117101248D01*
X79971900Y-117101248D01*
X79878127Y-116629820D01*
X79611085Y-116230163D01*
X79211428Y-115963121D01*
X78740000Y-115869348D01*
X78268572Y-115963121D01*
X77868915Y-116230163D01*
X77601873Y-116629820D01*
X77508100Y-117101248D01*
X77431900Y-117101248D01*
X77338127Y-116629820D01*
X77071085Y-116230163D01*
X76671428Y-115963121D01*
X76200000Y-115869348D01*
X75728572Y-115963121D01*
X75328915Y-116230163D01*
X75061873Y-116629820D01*
X74968100Y-117101248D01*
X74079100Y-117101248D01*
X74079100Y-112807477D01*
X75386840Y-112807477D01*
X75703259Y-113573270D01*
X76288648Y-114159682D01*
X77053888Y-114477437D01*
X77882477Y-114478160D01*
X78648270Y-114161741D01*
X79234682Y-113576352D01*
X79552437Y-112811112D01*
X79553160Y-111982523D01*
X79236741Y-111216730D01*
X78651352Y-110630318D01*
X77886112Y-110312563D01*
X77057523Y-110311840D01*
X76291730Y-110628259D01*
X75705318Y-111213648D01*
X75387563Y-111978888D01*
X75386840Y-112807477D01*
X74079100Y-112807477D01*
X74079100Y-101954129D01*
X81432400Y-101954129D01*
X81432400Y-102515871D01*
X81517472Y-102943558D01*
X81759737Y-103306134D01*
X82122313Y-103548399D01*
X82550000Y-103633471D01*
X82977687Y-103548399D01*
X83340263Y-103306134D01*
X83582528Y-102943558D01*
X83602212Y-102844600D01*
X84101404Y-102844600D01*
X84252121Y-103070164D01*
X84635298Y-103326194D01*
X85087285Y-103416100D01*
X85651515Y-103416100D01*
X86103502Y-103326194D01*
X86486679Y-103070164D01*
X86742709Y-102686987D01*
X86832615Y-102235000D01*
X86742709Y-101783013D01*
X86486679Y-101399836D01*
X86103502Y-101143806D01*
X85651515Y-101053900D01*
X85087285Y-101053900D01*
X84635298Y-101143806D01*
X84252121Y-101399836D01*
X84101404Y-101625400D01*
X83602212Y-101625400D01*
X83582528Y-101526442D01*
X83340263Y-101163866D01*
X82977687Y-100921601D01*
X82550000Y-100836529D01*
X82122313Y-100921601D01*
X81759737Y-101163866D01*
X81517472Y-101526442D01*
X81432400Y-101954129D01*
X74079100Y-101954129D01*
X74079100Y-96875124D01*
X81483200Y-96875124D01*
X81483200Y-97434876D01*
X81564405Y-97843123D01*
X81795658Y-98189218D01*
X82141753Y-98420471D01*
X82550000Y-98501676D01*
X82958247Y-98420471D01*
X83304342Y-98189218D01*
X83402097Y-98042917D01*
X85604090Y-100244910D01*
X85768896Y-100355031D01*
X85963300Y-100393700D01*
X95711294Y-100393700D01*
X95701229Y-100444300D01*
X95701229Y-104940100D01*
X95724885Y-105059027D01*
X95792252Y-105159848D01*
X95893073Y-105227215D01*
X96012000Y-105250871D01*
X96012000Y-105481182D01*
X95765658Y-105645782D01*
X95534405Y-105991877D01*
X95453200Y-106400124D01*
X95453200Y-106959876D01*
X95534405Y-107368123D01*
X95765658Y-107714218D01*
X96111753Y-107945471D01*
X96520000Y-108026676D01*
X96928247Y-107945471D01*
X97274342Y-107714218D01*
X97505595Y-107368123D01*
X97586800Y-106959876D01*
X97586800Y-106400124D01*
X97505595Y-105991877D01*
X97274342Y-105645782D01*
X97028000Y-105481182D01*
X97028000Y-105250871D01*
X97146927Y-105227215D01*
X97247748Y-105159848D01*
X97315115Y-105059027D01*
X97338771Y-104940100D01*
X97338771Y-100444300D01*
X97328706Y-100393700D01*
X98251294Y-100393700D01*
X98241229Y-100444300D01*
X98241229Y-104940100D01*
X98264885Y-105059027D01*
X98332252Y-105159848D01*
X98433073Y-105227215D01*
X98552000Y-105250871D01*
X98552000Y-105481182D01*
X98305658Y-105645782D01*
X98074405Y-105991877D01*
X97993200Y-106400124D01*
X97993200Y-106959876D01*
X98074405Y-107368123D01*
X98305658Y-107714218D01*
X98651753Y-107945471D01*
X99060000Y-108026676D01*
X99468247Y-107945471D01*
X99814342Y-107714218D01*
X100045595Y-107368123D01*
X100126800Y-106959876D01*
X100126800Y-106400124D01*
X100045595Y-105991877D01*
X99814342Y-105645782D01*
X99568000Y-105481182D01*
X99568000Y-105250871D01*
X99686927Y-105227215D01*
X99787748Y-105159848D01*
X99855115Y-105059027D01*
X99878771Y-104940100D01*
X99878771Y-100444300D01*
X99868706Y-100393700D01*
X100791294Y-100393700D01*
X100781229Y-100444300D01*
X100781229Y-104940100D01*
X100804885Y-105059027D01*
X100872252Y-105159848D01*
X100973073Y-105227215D01*
X101092000Y-105250871D01*
X101092000Y-105481182D01*
X100845658Y-105645782D01*
X100614405Y-105991877D01*
X100533200Y-106400124D01*
X100533200Y-106959876D01*
X100614405Y-107368123D01*
X100845658Y-107714218D01*
X101191753Y-107945471D01*
X101600000Y-108026676D01*
X102008247Y-107945471D01*
X102354342Y-107714218D01*
X102585595Y-107368123D01*
X102666800Y-106959876D01*
X102666800Y-106400124D01*
X102585595Y-105991877D01*
X102354342Y-105645782D01*
X102108000Y-105481182D01*
X102108000Y-105250871D01*
X102226927Y-105227215D01*
X102327748Y-105159848D01*
X102395115Y-105059027D01*
X102418771Y-104940100D01*
X102418771Y-100444300D01*
X102408706Y-100393700D01*
X103331294Y-100393700D01*
X103321229Y-100444300D01*
X103321229Y-104940100D01*
X103344885Y-105059027D01*
X103412252Y-105159848D01*
X103513073Y-105227215D01*
X103632000Y-105250871D01*
X103632000Y-105481182D01*
X103385658Y-105645782D01*
X103154405Y-105991877D01*
X103073200Y-106400124D01*
X103073200Y-106959876D01*
X103154405Y-107368123D01*
X103385658Y-107714218D01*
X103731753Y-107945471D01*
X104140000Y-108026676D01*
X104548247Y-107945471D01*
X104894342Y-107714218D01*
X105125595Y-107368123D01*
X105206800Y-106959876D01*
X105206800Y-106400124D01*
X105125595Y-105991877D01*
X104894342Y-105645782D01*
X104648000Y-105481182D01*
X104648000Y-105250871D01*
X104766927Y-105227215D01*
X104867748Y-105159848D01*
X104935115Y-105059027D01*
X104958771Y-104940100D01*
X104958771Y-100444300D01*
X104948706Y-100393700D01*
X105871294Y-100393700D01*
X105861229Y-100444300D01*
X105861229Y-104940100D01*
X105884885Y-105059027D01*
X105952252Y-105159848D01*
X106053073Y-105227215D01*
X106172000Y-105250871D01*
X106172000Y-105481182D01*
X105925658Y-105645782D01*
X105694405Y-105991877D01*
X105613200Y-106400124D01*
X105613200Y-106959876D01*
X105694405Y-107368123D01*
X105925658Y-107714218D01*
X106271753Y-107945471D01*
X106680000Y-108026676D01*
X107088247Y-107945471D01*
X107434342Y-107714218D01*
X107665595Y-107368123D01*
X107746800Y-106959876D01*
X107746800Y-106400124D01*
X107665595Y-105991877D01*
X107434342Y-105645782D01*
X107188000Y-105481182D01*
X107188000Y-105250871D01*
X107306927Y-105227215D01*
X107407748Y-105159848D01*
X107475115Y-105059027D01*
X107498771Y-104940100D01*
X107498771Y-100444300D01*
X107488706Y-100393700D01*
X108411294Y-100393700D01*
X108401229Y-100444300D01*
X108401229Y-104940100D01*
X108424885Y-105059027D01*
X108492252Y-105159848D01*
X108593073Y-105227215D01*
X108712000Y-105250871D01*
X108712000Y-105481182D01*
X108465658Y-105645782D01*
X108234405Y-105991877D01*
X108153200Y-106400124D01*
X108153200Y-106959876D01*
X108234405Y-107368123D01*
X108465658Y-107714218D01*
X108811753Y-107945471D01*
X109220000Y-108026676D01*
X109628247Y-107945471D01*
X109974342Y-107714218D01*
X110205595Y-107368123D01*
X110286800Y-106959876D01*
X110286800Y-106400124D01*
X110205595Y-105991877D01*
X109974342Y-105645782D01*
X109728000Y-105481182D01*
X109728000Y-105250871D01*
X109846927Y-105227215D01*
X109947748Y-105159848D01*
X110015115Y-105059027D01*
X110038771Y-104940100D01*
X110038771Y-100444300D01*
X110028706Y-100393700D01*
X110951294Y-100393700D01*
X110941229Y-100444300D01*
X110941229Y-104940100D01*
X110964885Y-105059027D01*
X111032252Y-105159848D01*
X111133073Y-105227215D01*
X111252000Y-105250871D01*
X111252000Y-105481182D01*
X111005658Y-105645782D01*
X110774405Y-105991877D01*
X110693200Y-106400124D01*
X110693200Y-106959876D01*
X110774405Y-107368123D01*
X111005658Y-107714218D01*
X111351753Y-107945471D01*
X111760000Y-108026676D01*
X112168247Y-107945471D01*
X112514342Y-107714218D01*
X112646223Y-107516843D01*
X112670790Y-107553610D01*
X115011600Y-109894420D01*
X115011600Y-110636305D01*
X114727687Y-110446601D01*
X114300000Y-110361529D01*
X113872313Y-110446601D01*
X113509737Y-110688866D01*
X113267472Y-111051442D01*
X113247788Y-111150400D01*
X112812212Y-111150400D01*
X112792528Y-111051442D01*
X112550263Y-110688866D01*
X112187687Y-110446601D01*
X111760000Y-110361529D01*
X111332313Y-110446601D01*
X110969737Y-110688866D01*
X110727472Y-111051442D01*
X110707788Y-111150400D01*
X110272212Y-111150400D01*
X110252528Y-111051442D01*
X110010263Y-110688866D01*
X109647687Y-110446601D01*
X109220000Y-110361529D01*
X108792313Y-110446601D01*
X108429737Y-110688866D01*
X108187472Y-111051442D01*
X108167788Y-111150400D01*
X107732212Y-111150400D01*
X107712528Y-111051442D01*
X107470263Y-110688866D01*
X107107687Y-110446601D01*
X106680000Y-110361529D01*
X106252313Y-110446601D01*
X105889737Y-110688866D01*
X105647472Y-111051442D01*
X105627788Y-111150400D01*
X105192212Y-111150400D01*
X105172528Y-111051442D01*
X104930263Y-110688866D01*
X104567687Y-110446601D01*
X104140000Y-110361529D01*
X103712313Y-110446601D01*
X103349737Y-110688866D01*
X103107472Y-111051442D01*
X103087788Y-111150400D01*
X102652212Y-111150400D01*
X102632528Y-111051442D01*
X102390263Y-110688866D01*
X102027687Y-110446601D01*
X101600000Y-110361529D01*
X101172313Y-110446601D01*
X100809737Y-110688866D01*
X100567472Y-111051442D01*
X100547788Y-111150400D01*
X100112212Y-111150400D01*
X100092528Y-111051442D01*
X99850263Y-110688866D01*
X99487687Y-110446601D01*
X99060000Y-110361529D01*
X98632313Y-110446601D01*
X98269737Y-110688866D01*
X98027472Y-111051442D01*
X98007788Y-111150400D01*
X97572212Y-111150400D01*
X97552528Y-111051442D01*
X97310263Y-110688866D01*
X96947687Y-110446601D01*
X96520000Y-110361529D01*
X96092313Y-110446601D01*
X95729737Y-110688866D01*
X95487472Y-111051442D01*
X95402400Y-111479129D01*
X95402400Y-112040871D01*
X95487472Y-112468558D01*
X95729737Y-112831134D01*
X96092313Y-113073399D01*
X96520000Y-113158471D01*
X96947687Y-113073399D01*
X97310263Y-112831134D01*
X97552528Y-112468558D01*
X97572212Y-112369600D01*
X98007788Y-112369600D01*
X98027472Y-112468558D01*
X98269737Y-112831134D01*
X98632313Y-113073399D01*
X99060000Y-113158471D01*
X99487687Y-113073399D01*
X99850263Y-112831134D01*
X100092528Y-112468558D01*
X100112212Y-112369600D01*
X100547788Y-112369600D01*
X100567472Y-112468558D01*
X100809737Y-112831134D01*
X101172313Y-113073399D01*
X101600000Y-113158471D01*
X102027687Y-113073399D01*
X102390263Y-112831134D01*
X102632528Y-112468558D01*
X102652212Y-112369600D01*
X103087788Y-112369600D01*
X103107472Y-112468558D01*
X103349737Y-112831134D01*
X103712313Y-113073399D01*
X104140000Y-113158471D01*
X104567687Y-113073399D01*
X104930263Y-112831134D01*
X105172528Y-112468558D01*
X105192212Y-112369600D01*
X105627788Y-112369600D01*
X105647472Y-112468558D01*
X105889737Y-112831134D01*
X106252313Y-113073399D01*
X106680000Y-113158471D01*
X107107687Y-113073399D01*
X107470263Y-112831134D01*
X107712528Y-112468558D01*
X107732212Y-112369600D01*
X108167788Y-112369600D01*
X108187472Y-112468558D01*
X108429737Y-112831134D01*
X108792313Y-113073399D01*
X109220000Y-113158471D01*
X109647687Y-113073399D01*
X110010263Y-112831134D01*
X110252528Y-112468558D01*
X110272212Y-112369600D01*
X110707788Y-112369600D01*
X110727472Y-112468558D01*
X110969737Y-112831134D01*
X111332313Y-113073399D01*
X111760000Y-113158471D01*
X112187687Y-113073399D01*
X112550263Y-112831134D01*
X112792528Y-112468558D01*
X112812212Y-112369600D01*
X113247788Y-112369600D01*
X113267472Y-112468558D01*
X113509737Y-112831134D01*
X113872313Y-113073399D01*
X114300000Y-113158471D01*
X114727687Y-113073399D01*
X115011600Y-112883695D01*
X115011600Y-113504979D01*
X112658090Y-115858490D01*
X112547969Y-116023297D01*
X112521399Y-116156873D01*
X112231428Y-115963121D01*
X111760000Y-115869348D01*
X111288572Y-115963121D01*
X110888915Y-116230163D01*
X110621873Y-116629820D01*
X110528100Y-117101248D01*
X110528100Y-117848752D01*
X110621873Y-118320180D01*
X110888915Y-118719837D01*
X111288572Y-118986879D01*
X111760000Y-119080652D01*
X112231428Y-118986879D01*
X112631085Y-118719837D01*
X112898127Y-118320180D01*
X112965196Y-117983000D01*
X113017300Y-117983000D01*
X113091854Y-117968170D01*
X113161873Y-118320180D01*
X113428915Y-118719837D01*
X113828572Y-118986879D01*
X114300000Y-119080652D01*
X114771428Y-118986879D01*
X115171085Y-118719837D01*
X115438127Y-118320180D01*
X115531900Y-117848752D01*
X115531900Y-117101248D01*
X115438127Y-116629820D01*
X115429880Y-116617477D01*
X116026840Y-116617477D01*
X116343259Y-117383270D01*
X116928648Y-117969682D01*
X117693888Y-118287437D01*
X118522477Y-118288160D01*
X119288270Y-117971741D01*
X119874682Y-117386352D01*
X120192437Y-116621112D01*
X120193160Y-115792523D01*
X119876741Y-115026730D01*
X119291352Y-114440318D01*
X118526112Y-114122563D01*
X117697523Y-114121840D01*
X116931730Y-114438259D01*
X116345318Y-115023648D01*
X116027563Y-115788888D01*
X116026840Y-116617477D01*
X115429880Y-116617477D01*
X115171085Y-116230163D01*
X114771428Y-115963121D01*
X114300000Y-115869348D01*
X114030457Y-115922964D01*
X115878811Y-114074610D01*
X115988931Y-113909803D01*
X116027600Y-113715400D01*
X116027600Y-109684000D01*
X115988931Y-109489597D01*
X115988931Y-109489596D01*
X115878810Y-109324790D01*
X114534126Y-107980106D01*
X114708247Y-107945471D01*
X115054342Y-107714218D01*
X115285595Y-107368123D01*
X115366800Y-106959876D01*
X115366800Y-106400124D01*
X115285595Y-105991877D01*
X115054342Y-105645782D01*
X114808000Y-105481182D01*
X114808000Y-105250871D01*
X114926927Y-105227215D01*
X115027748Y-105159848D01*
X115095115Y-105059027D01*
X115118771Y-104940100D01*
X115118771Y-100444300D01*
X115108706Y-100393700D01*
X118837681Y-100393700D01*
X119029201Y-100585556D01*
X119304501Y-100699870D01*
X119602591Y-100700130D01*
X119878090Y-100586296D01*
X120005910Y-100458700D01*
X120563080Y-100458700D01*
X126387326Y-106282946D01*
X126387170Y-106462191D01*
X126501004Y-106737690D01*
X126711601Y-106948656D01*
X126986901Y-107062970D01*
X127284991Y-107063230D01*
X127560490Y-106949396D01*
X127771456Y-106738799D01*
X127885770Y-106463499D01*
X127886030Y-106165409D01*
X127772196Y-105889910D01*
X127561599Y-105678944D01*
X127286299Y-105564630D01*
X127105692Y-105564472D01*
X121132710Y-99591490D01*
X120967903Y-99481369D01*
X120773500Y-99442700D01*
X120005833Y-99442700D01*
X119879199Y-99315844D01*
X119603899Y-99201530D01*
X119305809Y-99201270D01*
X119030310Y-99315104D01*
X118967604Y-99377700D01*
X115238105Y-99377700D01*
X115324794Y-99291011D01*
X115417600Y-99066957D01*
X115417600Y-97002600D01*
X115265200Y-96850200D01*
X114452400Y-96850200D01*
X114452400Y-96870200D01*
X114147600Y-96870200D01*
X114147600Y-96850200D01*
X113334800Y-96850200D01*
X113182400Y-97002600D01*
X113182400Y-99066957D01*
X113275206Y-99291011D01*
X113361895Y-99377700D01*
X112698105Y-99377700D01*
X112784794Y-99291011D01*
X112877600Y-99066957D01*
X112877600Y-97002600D01*
X112725200Y-96850200D01*
X111912400Y-96850200D01*
X111912400Y-96870200D01*
X111607600Y-96870200D01*
X111607600Y-96850200D01*
X110794800Y-96850200D01*
X110642400Y-97002600D01*
X110642400Y-99066957D01*
X110735206Y-99291011D01*
X110821895Y-99377700D01*
X110158105Y-99377700D01*
X110244794Y-99291011D01*
X110337600Y-99066957D01*
X110337600Y-97002600D01*
X110185200Y-96850200D01*
X109372400Y-96850200D01*
X109372400Y-96870200D01*
X109067600Y-96870200D01*
X109067600Y-96850200D01*
X108254800Y-96850200D01*
X108102400Y-97002600D01*
X108102400Y-99066957D01*
X108195206Y-99291011D01*
X108281895Y-99377700D01*
X107618105Y-99377700D01*
X107704794Y-99291011D01*
X107797600Y-99066957D01*
X107797600Y-97002600D01*
X107645200Y-96850200D01*
X106832400Y-96850200D01*
X106832400Y-96870200D01*
X106527600Y-96870200D01*
X106527600Y-96850200D01*
X105714800Y-96850200D01*
X105562400Y-97002600D01*
X105562400Y-99066957D01*
X105655206Y-99291011D01*
X105741895Y-99377700D01*
X105078105Y-99377700D01*
X105164794Y-99291011D01*
X105257600Y-99066957D01*
X105257600Y-97002600D01*
X105105200Y-96850200D01*
X104292400Y-96850200D01*
X104292400Y-96870200D01*
X103987600Y-96870200D01*
X103987600Y-96850200D01*
X103174800Y-96850200D01*
X103022400Y-97002600D01*
X103022400Y-99066957D01*
X103115206Y-99291011D01*
X103201895Y-99377700D01*
X102538105Y-99377700D01*
X102624794Y-99291011D01*
X102717600Y-99066957D01*
X102717600Y-97002600D01*
X102565200Y-96850200D01*
X101752400Y-96850200D01*
X101752400Y-96870200D01*
X101447600Y-96870200D01*
X101447600Y-96850200D01*
X100634800Y-96850200D01*
X100482400Y-97002600D01*
X100482400Y-99066957D01*
X100575206Y-99291011D01*
X100661895Y-99377700D01*
X99998105Y-99377700D01*
X100084794Y-99291011D01*
X100177600Y-99066957D01*
X100177600Y-97002600D01*
X100025200Y-96850200D01*
X99212400Y-96850200D01*
X99212400Y-96870200D01*
X98907600Y-96870200D01*
X98907600Y-96850200D01*
X98094800Y-96850200D01*
X97942400Y-97002600D01*
X97942400Y-99066957D01*
X98035206Y-99291011D01*
X98121895Y-99377700D01*
X97458105Y-99377700D01*
X97544794Y-99291011D01*
X97637600Y-99066957D01*
X97637600Y-97002600D01*
X97485200Y-96850200D01*
X96672400Y-96850200D01*
X96672400Y-96870200D01*
X96367600Y-96870200D01*
X96367600Y-96850200D01*
X95554800Y-96850200D01*
X95402400Y-97002600D01*
X95402400Y-99066957D01*
X95495206Y-99291011D01*
X95581895Y-99377700D01*
X86173720Y-99377700D01*
X85386120Y-98590100D01*
X85521802Y-98590100D01*
X85521802Y-98443078D01*
X85748391Y-98593636D01*
X86289419Y-98436294D01*
X86729051Y-98083887D01*
X87000358Y-97590065D01*
X87008976Y-97528753D01*
X86897014Y-97307400D01*
X85521800Y-97307400D01*
X85521800Y-97327400D01*
X85217000Y-97327400D01*
X85217000Y-97307400D01*
X85197000Y-97307400D01*
X85197000Y-97002600D01*
X85217000Y-97002600D01*
X85217000Y-95866923D01*
X85521800Y-95866923D01*
X85521800Y-97002600D01*
X86897014Y-97002600D01*
X87008976Y-96781247D01*
X87000358Y-96719935D01*
X86729051Y-96226113D01*
X86289419Y-95873706D01*
X85748391Y-95716364D01*
X85521800Y-95866923D01*
X85217000Y-95866923D01*
X84990409Y-95716364D01*
X84449381Y-95873706D01*
X84009749Y-96226113D01*
X83765084Y-96671443D01*
X83642200Y-96647000D01*
X83571424Y-96647000D01*
X83535595Y-96466877D01*
X83304342Y-96120782D01*
X82958247Y-95889529D01*
X82550000Y-95808324D01*
X82141753Y-95889529D01*
X81795658Y-96120782D01*
X81564405Y-96466877D01*
X81483200Y-96875124D01*
X74079100Y-96875124D01*
X74079100Y-94328643D01*
X95402400Y-94328643D01*
X95402400Y-96393000D01*
X95554800Y-96545400D01*
X96367600Y-96545400D01*
X96367600Y-93992700D01*
X96672400Y-93992700D01*
X96672400Y-96545400D01*
X97485200Y-96545400D01*
X97637600Y-96393000D01*
X97637600Y-94328643D01*
X97942400Y-94328643D01*
X97942400Y-96393000D01*
X98094800Y-96545400D01*
X98907600Y-96545400D01*
X98907600Y-93992700D01*
X99212400Y-93992700D01*
X99212400Y-96545400D01*
X100025200Y-96545400D01*
X100177600Y-96393000D01*
X100177600Y-94328643D01*
X100482400Y-94328643D01*
X100482400Y-96393000D01*
X100634800Y-96545400D01*
X101447600Y-96545400D01*
X101447600Y-93992700D01*
X101752400Y-93992700D01*
X101752400Y-96545400D01*
X102565200Y-96545400D01*
X102717600Y-96393000D01*
X102717600Y-94328643D01*
X103022400Y-94328643D01*
X103022400Y-96393000D01*
X103174800Y-96545400D01*
X103987600Y-96545400D01*
X103987600Y-93992700D01*
X104292400Y-93992700D01*
X104292400Y-96545400D01*
X105105200Y-96545400D01*
X105257600Y-96393000D01*
X105257600Y-94328643D01*
X105562400Y-94328643D01*
X105562400Y-96393000D01*
X105714800Y-96545400D01*
X106527600Y-96545400D01*
X106527600Y-93992700D01*
X106832400Y-93992700D01*
X106832400Y-96545400D01*
X107645200Y-96545400D01*
X107797600Y-96393000D01*
X107797600Y-94328643D01*
X108102400Y-94328643D01*
X108102400Y-96393000D01*
X108254800Y-96545400D01*
X109067600Y-96545400D01*
X109067600Y-93992700D01*
X109372400Y-93992700D01*
X109372400Y-96545400D01*
X110185200Y-96545400D01*
X110337600Y-96393000D01*
X110337600Y-94328643D01*
X110642400Y-94328643D01*
X110642400Y-96393000D01*
X110794800Y-96545400D01*
X111607600Y-96545400D01*
X111607600Y-93992700D01*
X111912400Y-93992700D01*
X111912400Y-96545400D01*
X112725200Y-96545400D01*
X112877600Y-96393000D01*
X112877600Y-94328643D01*
X113182400Y-94328643D01*
X113182400Y-96393000D01*
X113334800Y-96545400D01*
X114147600Y-96545400D01*
X114147600Y-93992700D01*
X114452400Y-93992700D01*
X114452400Y-96545400D01*
X115265200Y-96545400D01*
X115417600Y-96393000D01*
X115417600Y-94328643D01*
X115324794Y-94104589D01*
X115153311Y-93933106D01*
X114929257Y-93840300D01*
X114604800Y-93840300D01*
X114452400Y-93992700D01*
X114147600Y-93992700D01*
X113995200Y-93840300D01*
X113670743Y-93840300D01*
X113446689Y-93933106D01*
X113275206Y-94104589D01*
X113182400Y-94328643D01*
X112877600Y-94328643D01*
X112784794Y-94104589D01*
X112613311Y-93933106D01*
X112389257Y-93840300D01*
X112064800Y-93840300D01*
X111912400Y-93992700D01*
X111607600Y-93992700D01*
X111455200Y-93840300D01*
X111130743Y-93840300D01*
X110906689Y-93933106D01*
X110735206Y-94104589D01*
X110642400Y-94328643D01*
X110337600Y-94328643D01*
X110244794Y-94104589D01*
X110073311Y-93933106D01*
X109849257Y-93840300D01*
X109524800Y-93840300D01*
X109372400Y-93992700D01*
X109067600Y-93992700D01*
X108915200Y-93840300D01*
X108590743Y-93840300D01*
X108366689Y-93933106D01*
X108195206Y-94104589D01*
X108102400Y-94328643D01*
X107797600Y-94328643D01*
X107704794Y-94104589D01*
X107533311Y-93933106D01*
X107309257Y-93840300D01*
X106984800Y-93840300D01*
X106832400Y-93992700D01*
X106527600Y-93992700D01*
X106375200Y-93840300D01*
X106050743Y-93840300D01*
X105826689Y-93933106D01*
X105655206Y-94104589D01*
X105562400Y-94328643D01*
X105257600Y-94328643D01*
X105164794Y-94104589D01*
X104993311Y-93933106D01*
X104769257Y-93840300D01*
X104444800Y-93840300D01*
X104292400Y-93992700D01*
X103987600Y-93992700D01*
X103835200Y-93840300D01*
X103510743Y-93840300D01*
X103286689Y-93933106D01*
X103115206Y-94104589D01*
X103022400Y-94328643D01*
X102717600Y-94328643D01*
X102624794Y-94104589D01*
X102453311Y-93933106D01*
X102229257Y-93840300D01*
X101904800Y-93840300D01*
X101752400Y-93992700D01*
X101447600Y-93992700D01*
X101295200Y-93840300D01*
X100970743Y-93840300D01*
X100746689Y-93933106D01*
X100575206Y-94104589D01*
X100482400Y-94328643D01*
X100177600Y-94328643D01*
X100084794Y-94104589D01*
X99913311Y-93933106D01*
X99689257Y-93840300D01*
X99364800Y-93840300D01*
X99212400Y-93992700D01*
X98907600Y-93992700D01*
X98755200Y-93840300D01*
X98430743Y-93840300D01*
X98206689Y-93933106D01*
X98035206Y-94104589D01*
X97942400Y-94328643D01*
X97637600Y-94328643D01*
X97544794Y-94104589D01*
X97373311Y-93933106D01*
X97149257Y-93840300D01*
X96824800Y-93840300D01*
X96672400Y-93992700D01*
X96367600Y-93992700D01*
X96215200Y-93840300D01*
X95890743Y-93840300D01*
X95666689Y-93933106D01*
X95495206Y-94104589D01*
X95402400Y-94328643D01*
X74079100Y-94328643D01*
X74079100Y-87407477D01*
X75386840Y-87407477D01*
X75703259Y-88173270D01*
X76288648Y-88759682D01*
X77053888Y-89077437D01*
X77882477Y-89078160D01*
X78648270Y-88761741D01*
X79234682Y-88176352D01*
X79552437Y-87411112D01*
X79553160Y-86582523D01*
X79236741Y-85816730D01*
X78651352Y-85230318D01*
X77886112Y-84912563D01*
X77057523Y-84911840D01*
X76291730Y-85228259D01*
X75705318Y-85813648D01*
X75387563Y-86578888D01*
X75386840Y-87407477D01*
X74079100Y-87407477D01*
X74079100Y-82219800D01*
X74663300Y-82219800D01*
X74663300Y-83306257D01*
X74756106Y-83530311D01*
X74927589Y-83701794D01*
X75151643Y-83794600D01*
X75895200Y-83794600D01*
X76047600Y-83642200D01*
X76047600Y-82067400D01*
X74815700Y-82067400D01*
X74663300Y-82219800D01*
X74079100Y-82219800D01*
X74079100Y-80523743D01*
X74663300Y-80523743D01*
X74663300Y-81610200D01*
X74815700Y-81762600D01*
X76047600Y-81762600D01*
X76047600Y-80187800D01*
X76352400Y-80187800D01*
X76352400Y-81762600D01*
X76372400Y-81762600D01*
X76372400Y-82067400D01*
X76352400Y-82067400D01*
X76352400Y-83642200D01*
X76504800Y-83794600D01*
X77248357Y-83794600D01*
X77472411Y-83701794D01*
X77643894Y-83530311D01*
X77736700Y-83306257D01*
X77736700Y-82961963D01*
X77868915Y-83159837D01*
X78268572Y-83426879D01*
X78740000Y-83520652D01*
X79211428Y-83426879D01*
X79611085Y-83159837D01*
X79878127Y-82760180D01*
X79971900Y-82288752D01*
X79971900Y-81541248D01*
X80048100Y-81541248D01*
X80048100Y-82288752D01*
X80141873Y-82760180D01*
X80408915Y-83159837D01*
X80808572Y-83426879D01*
X81280000Y-83520652D01*
X81751428Y-83426879D01*
X82151085Y-83159837D01*
X82418127Y-82760180D01*
X82511900Y-82288752D01*
X82511900Y-81541248D01*
X82588100Y-81541248D01*
X82588100Y-82288752D01*
X82681873Y-82760180D01*
X82948915Y-83159837D01*
X83348572Y-83426879D01*
X83820000Y-83520652D01*
X84291428Y-83426879D01*
X84691085Y-83159837D01*
X84958127Y-82760180D01*
X85051900Y-82288752D01*
X85051900Y-81541248D01*
X85128100Y-81541248D01*
X85128100Y-82288752D01*
X85221873Y-82760180D01*
X85488915Y-83159837D01*
X85888572Y-83426879D01*
X86360000Y-83520652D01*
X86831428Y-83426879D01*
X87231085Y-83159837D01*
X87251679Y-83129016D01*
X87258090Y-83138610D01*
X96309290Y-92189810D01*
X96474097Y-92299931D01*
X96668500Y-92338600D01*
X123967980Y-92338600D01*
X130667626Y-99038246D01*
X130667470Y-99217491D01*
X130781304Y-99492990D01*
X130991901Y-99703956D01*
X131267201Y-99818270D01*
X131565291Y-99818530D01*
X131840790Y-99704696D01*
X132051756Y-99494099D01*
X132166070Y-99218799D01*
X132166330Y-98920709D01*
X132052496Y-98645210D01*
X131841899Y-98434244D01*
X131566599Y-98319930D01*
X131385992Y-98319772D01*
X124537610Y-91471390D01*
X124372803Y-91361269D01*
X124178400Y-91322600D01*
X96878920Y-91322600D01*
X89153797Y-83597477D01*
X116026840Y-83597477D01*
X116343259Y-84363270D01*
X116928648Y-84949682D01*
X117693888Y-85267437D01*
X118522477Y-85268160D01*
X119288270Y-84951741D01*
X119874682Y-84366352D01*
X120192437Y-83601112D01*
X120193160Y-82772523D01*
X119876741Y-82006730D01*
X119291352Y-81420318D01*
X118526112Y-81102563D01*
X117697523Y-81101840D01*
X116931730Y-81418259D01*
X116345318Y-82003648D01*
X116027563Y-82768888D01*
X116026840Y-83597477D01*
X89153797Y-83597477D01*
X89047610Y-83491290D01*
X89371428Y-83426879D01*
X89771085Y-83159837D01*
X90038127Y-82760180D01*
X90131900Y-82288752D01*
X90131900Y-81541248D01*
X90208100Y-81541248D01*
X90208100Y-82288752D01*
X90301873Y-82760180D01*
X90568915Y-83159837D01*
X90968572Y-83426879D01*
X91440000Y-83520652D01*
X91911428Y-83426879D01*
X92311085Y-83159837D01*
X92578127Y-82760180D01*
X92671900Y-82288752D01*
X92671900Y-81541248D01*
X92748100Y-81541248D01*
X92748100Y-82288752D01*
X92841873Y-82760180D01*
X93108915Y-83159837D01*
X93508572Y-83426879D01*
X93980000Y-83520652D01*
X94451428Y-83426879D01*
X94851085Y-83159837D01*
X95118127Y-82760180D01*
X95211900Y-82288752D01*
X95211900Y-81541248D01*
X95288100Y-81541248D01*
X95288100Y-82288752D01*
X95381873Y-82760180D01*
X95648915Y-83159837D01*
X96048572Y-83426879D01*
X96520000Y-83520652D01*
X96991428Y-83426879D01*
X97391085Y-83159837D01*
X97658127Y-82760180D01*
X97751900Y-82288752D01*
X97751900Y-81541248D01*
X97828100Y-81541248D01*
X97828100Y-82288752D01*
X97921873Y-82760180D01*
X98188915Y-83159837D01*
X98588572Y-83426879D01*
X99060000Y-83520652D01*
X99531428Y-83426879D01*
X99931085Y-83159837D01*
X100198127Y-82760180D01*
X100291900Y-82288752D01*
X100291900Y-81541248D01*
X100368100Y-81541248D01*
X100368100Y-82288752D01*
X100461873Y-82760180D01*
X100728915Y-83159837D01*
X101128572Y-83426879D01*
X101600000Y-83520652D01*
X102071428Y-83426879D01*
X102471085Y-83159837D01*
X102738127Y-82760180D01*
X102831900Y-82288752D01*
X102831900Y-81541248D01*
X102908100Y-81541248D01*
X102908100Y-82288752D01*
X103001873Y-82760180D01*
X103268915Y-83159837D01*
X103668572Y-83426879D01*
X104140000Y-83520652D01*
X104611428Y-83426879D01*
X105011085Y-83159837D01*
X105278127Y-82760180D01*
X105371900Y-82288752D01*
X105371900Y-81541248D01*
X105448100Y-81541248D01*
X105448100Y-82288752D01*
X105541873Y-82760180D01*
X105808915Y-83159837D01*
X106208572Y-83426879D01*
X106680000Y-83520652D01*
X107151428Y-83426879D01*
X107551085Y-83159837D01*
X107818127Y-82760180D01*
X107911900Y-82288752D01*
X107911900Y-81541248D01*
X107988100Y-81541248D01*
X107988100Y-82288752D01*
X108081873Y-82760180D01*
X108348915Y-83159837D01*
X108748572Y-83426879D01*
X109220000Y-83520652D01*
X109691428Y-83426879D01*
X110091085Y-83159837D01*
X110358127Y-82760180D01*
X110451900Y-82288752D01*
X110451900Y-81541248D01*
X110528100Y-81541248D01*
X110528100Y-82288752D01*
X110621873Y-82760180D01*
X110888915Y-83159837D01*
X111288572Y-83426879D01*
X111760000Y-83520652D01*
X112231428Y-83426879D01*
X112631085Y-83159837D01*
X112898127Y-82760180D01*
X112991900Y-82288752D01*
X112991900Y-81541248D01*
X113068100Y-81541248D01*
X113068100Y-82288752D01*
X113161873Y-82760180D01*
X113428915Y-83159837D01*
X113828572Y-83426879D01*
X114300000Y-83520652D01*
X114771428Y-83426879D01*
X115171085Y-83159837D01*
X115438127Y-82760180D01*
X115531900Y-82288752D01*
X115531900Y-81541248D01*
X115438127Y-81069820D01*
X115171085Y-80670163D01*
X114771428Y-80403121D01*
X114300000Y-80309348D01*
X113828572Y-80403121D01*
X113428915Y-80670163D01*
X113161873Y-81069820D01*
X113068100Y-81541248D01*
X112991900Y-81541248D01*
X112898127Y-81069820D01*
X112631085Y-80670163D01*
X112231428Y-80403121D01*
X111760000Y-80309348D01*
X111288572Y-80403121D01*
X110888915Y-80670163D01*
X110621873Y-81069820D01*
X110528100Y-81541248D01*
X110451900Y-81541248D01*
X110358127Y-81069820D01*
X110091085Y-80670163D01*
X109691428Y-80403121D01*
X109220000Y-80309348D01*
X108748572Y-80403121D01*
X108348915Y-80670163D01*
X108081873Y-81069820D01*
X107988100Y-81541248D01*
X107911900Y-81541248D01*
X107818127Y-81069820D01*
X107551085Y-80670163D01*
X107151428Y-80403121D01*
X106680000Y-80309348D01*
X106208572Y-80403121D01*
X105808915Y-80670163D01*
X105541873Y-81069820D01*
X105448100Y-81541248D01*
X105371900Y-81541248D01*
X105278127Y-81069820D01*
X105011085Y-80670163D01*
X104611428Y-80403121D01*
X104140000Y-80309348D01*
X103668572Y-80403121D01*
X103268915Y-80670163D01*
X103001873Y-81069820D01*
X102908100Y-81541248D01*
X102831900Y-81541248D01*
X102738127Y-81069820D01*
X102471085Y-80670163D01*
X102071428Y-80403121D01*
X101600000Y-80309348D01*
X101128572Y-80403121D01*
X100728915Y-80670163D01*
X100461873Y-81069820D01*
X100368100Y-81541248D01*
X100291900Y-81541248D01*
X100198127Y-81069820D01*
X99931085Y-80670163D01*
X99531428Y-80403121D01*
X99060000Y-80309348D01*
X98588572Y-80403121D01*
X98188915Y-80670163D01*
X97921873Y-81069820D01*
X97828100Y-81541248D01*
X97751900Y-81541248D01*
X97658127Y-81069820D01*
X97391085Y-80670163D01*
X96991428Y-80403121D01*
X96520000Y-80309348D01*
X96048572Y-80403121D01*
X95648915Y-80670163D01*
X95381873Y-81069820D01*
X95288100Y-81541248D01*
X95211900Y-81541248D01*
X95118127Y-81069820D01*
X94851085Y-80670163D01*
X94451428Y-80403121D01*
X93980000Y-80309348D01*
X93508572Y-80403121D01*
X93108915Y-80670163D01*
X92841873Y-81069820D01*
X92748100Y-81541248D01*
X92671900Y-81541248D01*
X92578127Y-81069820D01*
X92311085Y-80670163D01*
X91911428Y-80403121D01*
X91440000Y-80309348D01*
X90968572Y-80403121D01*
X90568915Y-80670163D01*
X90301873Y-81069820D01*
X90208100Y-81541248D01*
X90131900Y-81541248D01*
X90038127Y-81069820D01*
X89771085Y-80670163D01*
X89371428Y-80403121D01*
X88900000Y-80309348D01*
X88428572Y-80403121D01*
X88028915Y-80670163D01*
X87761873Y-81069820D01*
X87691854Y-81421830D01*
X87617300Y-81407000D01*
X87565196Y-81407000D01*
X87498127Y-81069820D01*
X87231085Y-80670163D01*
X86831428Y-80403121D01*
X86360000Y-80309348D01*
X85888572Y-80403121D01*
X85488915Y-80670163D01*
X85221873Y-81069820D01*
X85128100Y-81541248D01*
X85051900Y-81541248D01*
X84958127Y-81069820D01*
X84691085Y-80670163D01*
X84291428Y-80403121D01*
X83820000Y-80309348D01*
X83348572Y-80403121D01*
X82948915Y-80670163D01*
X82681873Y-81069820D01*
X82588100Y-81541248D01*
X82511900Y-81541248D01*
X82418127Y-81069820D01*
X82151085Y-80670163D01*
X81751428Y-80403121D01*
X81280000Y-80309348D01*
X80808572Y-80403121D01*
X80408915Y-80670163D01*
X80141873Y-81069820D01*
X80048100Y-81541248D01*
X79971900Y-81541248D01*
X79878127Y-81069820D01*
X79611085Y-80670163D01*
X79211428Y-80403121D01*
X78740000Y-80309348D01*
X78268572Y-80403121D01*
X77868915Y-80670163D01*
X77736700Y-80868037D01*
X77736700Y-80523743D01*
X77643894Y-80299689D01*
X77472411Y-80128206D01*
X77248357Y-80035400D01*
X76504800Y-80035400D01*
X76352400Y-80187800D01*
X76047600Y-80187800D01*
X75895200Y-80035400D01*
X75151643Y-80035400D01*
X74927589Y-80128206D01*
X74756106Y-80299689D01*
X74663300Y-80523743D01*
X74079100Y-80523743D01*
X74079100Y-79794100D01*
X136740900Y-79794100D01*
X136740900Y-119595900D01*
X136740900Y-119595900D01*
G37*
X136740900Y-119595900D02*
X74079100Y-119595900D01*
X74079100Y-117101248D01*
X74968100Y-117101248D01*
X74968100Y-117848752D01*
X75061873Y-118320180D01*
X75328915Y-118719837D01*
X75728572Y-118986879D01*
X76200000Y-119080652D01*
X76671428Y-118986879D01*
X77071085Y-118719837D01*
X77338127Y-118320180D01*
X77431900Y-117848752D01*
X77431900Y-117101248D01*
X77508100Y-117101248D01*
X77508100Y-117848752D01*
X77601873Y-118320180D01*
X77868915Y-118719837D01*
X78268572Y-118986879D01*
X78740000Y-119080652D01*
X79211428Y-118986879D01*
X79611085Y-118719837D01*
X79878127Y-118320180D01*
X79971900Y-117848752D01*
X79971900Y-117101248D01*
X80048100Y-117101248D01*
X80048100Y-117848752D01*
X80141873Y-118320180D01*
X80408915Y-118719837D01*
X80808572Y-118986879D01*
X81280000Y-119080652D01*
X81751428Y-118986879D01*
X82151085Y-118719837D01*
X82418127Y-118320180D01*
X82511900Y-117848752D01*
X82511900Y-117101248D01*
X82588100Y-117101248D01*
X82588100Y-117848752D01*
X82681873Y-118320180D01*
X82948915Y-118719837D01*
X83348572Y-118986879D01*
X83820000Y-119080652D01*
X84291428Y-118986879D01*
X84691085Y-118719837D01*
X84958127Y-118320180D01*
X85051900Y-117848752D01*
X85051900Y-117101248D01*
X85128100Y-117101248D01*
X85128100Y-117848752D01*
X85221873Y-118320180D01*
X85488915Y-118719837D01*
X85888572Y-118986879D01*
X86360000Y-119080652D01*
X86831428Y-118986879D01*
X87231085Y-118719837D01*
X87498127Y-118320180D01*
X87591900Y-117848752D01*
X87591900Y-117101248D01*
X87668100Y-117101248D01*
X87668100Y-117848752D01*
X87761873Y-118320180D01*
X88028915Y-118719837D01*
X88428572Y-118986879D01*
X88900000Y-119080652D01*
X89371428Y-118986879D01*
X89771085Y-118719837D01*
X90038127Y-118320180D01*
X90131900Y-117848752D01*
X90131900Y-117101248D01*
X90208100Y-117101248D01*
X90208100Y-117848752D01*
X90301873Y-118320180D01*
X90568915Y-118719837D01*
X90968572Y-118986879D01*
X91440000Y-119080652D01*
X91911428Y-118986879D01*
X92311085Y-118719837D01*
X92578127Y-118320180D01*
X92671900Y-117848752D01*
X92671900Y-117101248D01*
X92748100Y-117101248D01*
X92748100Y-117848752D01*
X92841873Y-118320180D01*
X93108915Y-118719837D01*
X93508572Y-118986879D01*
X93980000Y-119080652D01*
X94451428Y-118986879D01*
X94851085Y-118719837D01*
X95118127Y-118320180D01*
X95211900Y-117848752D01*
X95211900Y-117101248D01*
X95288100Y-117101248D01*
X95288100Y-117848752D01*
X95381873Y-118320180D01*
X95648915Y-118719837D01*
X96048572Y-118986879D01*
X96520000Y-119080652D01*
X96991428Y-118986879D01*
X97391085Y-118719837D01*
X97658127Y-118320180D01*
X97751900Y-117848752D01*
X97751900Y-117101248D01*
X97828100Y-117101248D01*
X97828100Y-117848752D01*
X97921873Y-118320180D01*
X98188915Y-118719837D01*
X98588572Y-118986879D01*
X99060000Y-119080652D01*
X99531428Y-118986879D01*
X99931085Y-118719837D01*
X100198127Y-118320180D01*
X100291900Y-117848752D01*
X100291900Y-117101248D01*
X100368100Y-117101248D01*
X100368100Y-117848752D01*
X100461873Y-118320180D01*
X100728915Y-118719837D01*
X101128572Y-118986879D01*
X101600000Y-119080652D01*
X102071428Y-118986879D01*
X102471085Y-118719837D01*
X102738127Y-118320180D01*
X102831900Y-117848752D01*
X102831900Y-117101248D01*
X102908100Y-117101248D01*
X102908100Y-117848752D01*
X103001873Y-118320180D01*
X103268915Y-118719837D01*
X103668572Y-118986879D01*
X104140000Y-119080652D01*
X104611428Y-118986879D01*
X105011085Y-118719837D01*
X105278127Y-118320180D01*
X105371900Y-117848752D01*
X105371900Y-117101248D01*
X105448100Y-117101248D01*
X105448100Y-117848752D01*
X105541873Y-118320180D01*
X105808915Y-118719837D01*
X106208572Y-118986879D01*
X106680000Y-119080652D01*
X107151428Y-118986879D01*
X107551085Y-118719837D01*
X107818127Y-118320180D01*
X107911900Y-117848752D01*
X107911900Y-117101248D01*
X107988100Y-117101248D01*
X107988100Y-117848752D01*
X108081873Y-118320180D01*
X108348915Y-118719837D01*
X108748572Y-118986879D01*
X109220000Y-119080652D01*
X109691428Y-118986879D01*
X110091085Y-118719837D01*
X110358127Y-118320180D01*
X110451900Y-117848752D01*
X110451900Y-117101248D01*
X110358127Y-116629820D01*
X110091085Y-116230163D01*
X109691428Y-115963121D01*
X109220000Y-115869348D01*
X108748572Y-115963121D01*
X108348915Y-116230163D01*
X108081873Y-116629820D01*
X107988100Y-117101248D01*
X107911900Y-117101248D01*
X107818127Y-116629820D01*
X107551085Y-116230163D01*
X107151428Y-115963121D01*
X106680000Y-115869348D01*
X106208572Y-115963121D01*
X105808915Y-116230163D01*
X105541873Y-116629820D01*
X105448100Y-117101248D01*
X105371900Y-117101248D01*
X105278127Y-116629820D01*
X105011085Y-116230163D01*
X104611428Y-115963121D01*
X104140000Y-115869348D01*
X103668572Y-115963121D01*
X103268915Y-116230163D01*
X103001873Y-116629820D01*
X102908100Y-117101248D01*
X102831900Y-117101248D01*
X102738127Y-116629820D01*
X102471085Y-116230163D01*
X102071428Y-115963121D01*
X101600000Y-115869348D01*
X101128572Y-115963121D01*
X100728915Y-116230163D01*
X100461873Y-116629820D01*
X100368100Y-117101248D01*
X100291900Y-117101248D01*
X100198127Y-116629820D01*
X99931085Y-116230163D01*
X99531428Y-115963121D01*
X99060000Y-115869348D01*
X98588572Y-115963121D01*
X98188915Y-116230163D01*
X97921873Y-116629820D01*
X97828100Y-117101248D01*
X97751900Y-117101248D01*
X97658127Y-116629820D01*
X97391085Y-116230163D01*
X96991428Y-115963121D01*
X96520000Y-115869348D01*
X96048572Y-115963121D01*
X95648915Y-116230163D01*
X95381873Y-116629820D01*
X95288100Y-117101248D01*
X95211900Y-117101248D01*
X95118127Y-116629820D01*
X94851085Y-116230163D01*
X94451428Y-115963121D01*
X93980000Y-115869348D01*
X93508572Y-115963121D01*
X93108915Y-116230163D01*
X92841873Y-116629820D01*
X92748100Y-117101248D01*
X92671900Y-117101248D01*
X92578127Y-116629820D01*
X92311085Y-116230163D01*
X91911428Y-115963121D01*
X91440000Y-115869348D01*
X90968572Y-115963121D01*
X90568915Y-116230163D01*
X90301873Y-116629820D01*
X90208100Y-117101248D01*
X90131900Y-117101248D01*
X90038127Y-116629820D01*
X89771085Y-116230163D01*
X89371428Y-115963121D01*
X88900000Y-115869348D01*
X88428572Y-115963121D01*
X88028915Y-116230163D01*
X87761873Y-116629820D01*
X87668100Y-117101248D01*
X87591900Y-117101248D01*
X87498127Y-116629820D01*
X87231085Y-116230163D01*
X86831428Y-115963121D01*
X86360000Y-115869348D01*
X85888572Y-115963121D01*
X85488915Y-116230163D01*
X85221873Y-116629820D01*
X85128100Y-117101248D01*
X85051900Y-117101248D01*
X84958127Y-116629820D01*
X84691085Y-116230163D01*
X84291428Y-115963121D01*
X83820000Y-115869348D01*
X83348572Y-115963121D01*
X82948915Y-116230163D01*
X82681873Y-116629820D01*
X82588100Y-117101248D01*
X82511900Y-117101248D01*
X82418127Y-116629820D01*
X82151085Y-116230163D01*
X81751428Y-115963121D01*
X81280000Y-115869348D01*
X80808572Y-115963121D01*
X80408915Y-116230163D01*
X80141873Y-116629820D01*
X80048100Y-117101248D01*
X79971900Y-117101248D01*
X79878127Y-116629820D01*
X79611085Y-116230163D01*
X79211428Y-115963121D01*
X78740000Y-115869348D01*
X78268572Y-115963121D01*
X77868915Y-116230163D01*
X77601873Y-116629820D01*
X77508100Y-117101248D01*
X77431900Y-117101248D01*
X77338127Y-116629820D01*
X77071085Y-116230163D01*
X76671428Y-115963121D01*
X76200000Y-115869348D01*
X75728572Y-115963121D01*
X75328915Y-116230163D01*
X75061873Y-116629820D01*
X74968100Y-117101248D01*
X74079100Y-117101248D01*
X74079100Y-112807477D01*
X75386840Y-112807477D01*
X75703259Y-113573270D01*
X76288648Y-114159682D01*
X77053888Y-114477437D01*
X77882477Y-114478160D01*
X78648270Y-114161741D01*
X79234682Y-113576352D01*
X79552437Y-112811112D01*
X79553160Y-111982523D01*
X79236741Y-111216730D01*
X78651352Y-110630318D01*
X77886112Y-110312563D01*
X77057523Y-110311840D01*
X76291730Y-110628259D01*
X75705318Y-111213648D01*
X75387563Y-111978888D01*
X75386840Y-112807477D01*
X74079100Y-112807477D01*
X74079100Y-101954129D01*
X81432400Y-101954129D01*
X81432400Y-102515871D01*
X81517472Y-102943558D01*
X81759737Y-103306134D01*
X82122313Y-103548399D01*
X82550000Y-103633471D01*
X82977687Y-103548399D01*
X83340263Y-103306134D01*
X83582528Y-102943558D01*
X83602212Y-102844600D01*
X84101404Y-102844600D01*
X84252121Y-103070164D01*
X84635298Y-103326194D01*
X85087285Y-103416100D01*
X85651515Y-103416100D01*
X86103502Y-103326194D01*
X86486679Y-103070164D01*
X86742709Y-102686987D01*
X86832615Y-102235000D01*
X86742709Y-101783013D01*
X86486679Y-101399836D01*
X86103502Y-101143806D01*
X85651515Y-101053900D01*
X85087285Y-101053900D01*
X84635298Y-101143806D01*
X84252121Y-101399836D01*
X84101404Y-101625400D01*
X83602212Y-101625400D01*
X83582528Y-101526442D01*
X83340263Y-101163866D01*
X82977687Y-100921601D01*
X82550000Y-100836529D01*
X82122313Y-100921601D01*
X81759737Y-101163866D01*
X81517472Y-101526442D01*
X81432400Y-101954129D01*
X74079100Y-101954129D01*
X74079100Y-96875124D01*
X81483200Y-96875124D01*
X81483200Y-97434876D01*
X81564405Y-97843123D01*
X81795658Y-98189218D01*
X82141753Y-98420471D01*
X82550000Y-98501676D01*
X82958247Y-98420471D01*
X83304342Y-98189218D01*
X83402097Y-98042917D01*
X85604090Y-100244910D01*
X85768896Y-100355031D01*
X85963300Y-100393700D01*
X95711294Y-100393700D01*
X95701229Y-100444300D01*
X95701229Y-104940100D01*
X95724885Y-105059027D01*
X95792252Y-105159848D01*
X95893073Y-105227215D01*
X96012000Y-105250871D01*
X96012000Y-105481182D01*
X95765658Y-105645782D01*
X95534405Y-105991877D01*
X95453200Y-106400124D01*
X95453200Y-106959876D01*
X95534405Y-107368123D01*
X95765658Y-107714218D01*
X96111753Y-107945471D01*
X96520000Y-108026676D01*
X96928247Y-107945471D01*
X97274342Y-107714218D01*
X97505595Y-107368123D01*
X97586800Y-106959876D01*
X97586800Y-106400124D01*
X97505595Y-105991877D01*
X97274342Y-105645782D01*
X97028000Y-105481182D01*
X97028000Y-105250871D01*
X97146927Y-105227215D01*
X97247748Y-105159848D01*
X97315115Y-105059027D01*
X97338771Y-104940100D01*
X97338771Y-100444300D01*
X97328706Y-100393700D01*
X98251294Y-100393700D01*
X98241229Y-100444300D01*
X98241229Y-104940100D01*
X98264885Y-105059027D01*
X98332252Y-105159848D01*
X98433073Y-105227215D01*
X98552000Y-105250871D01*
X98552000Y-105481182D01*
X98305658Y-105645782D01*
X98074405Y-105991877D01*
X97993200Y-106400124D01*
X97993200Y-106959876D01*
X98074405Y-107368123D01*
X98305658Y-107714218D01*
X98651753Y-107945471D01*
X99060000Y-108026676D01*
X99468247Y-107945471D01*
X99814342Y-107714218D01*
X100045595Y-107368123D01*
X100126800Y-106959876D01*
X100126800Y-106400124D01*
X100045595Y-105991877D01*
X99814342Y-105645782D01*
X99568000Y-105481182D01*
X99568000Y-105250871D01*
X99686927Y-105227215D01*
X99787748Y-105159848D01*
X99855115Y-105059027D01*
X99878771Y-104940100D01*
X99878771Y-100444300D01*
X99868706Y-100393700D01*
X100791294Y-100393700D01*
X100781229Y-100444300D01*
X100781229Y-104940100D01*
X100804885Y-105059027D01*
X100872252Y-105159848D01*
X100973073Y-105227215D01*
X101092000Y-105250871D01*
X101092000Y-105481182D01*
X100845658Y-105645782D01*
X100614405Y-105991877D01*
X100533200Y-106400124D01*
X100533200Y-106959876D01*
X100614405Y-107368123D01*
X100845658Y-107714218D01*
X101191753Y-107945471D01*
X101600000Y-108026676D01*
X102008247Y-107945471D01*
X102354342Y-107714218D01*
X102585595Y-107368123D01*
X102666800Y-106959876D01*
X102666800Y-106400124D01*
X102585595Y-105991877D01*
X102354342Y-105645782D01*
X102108000Y-105481182D01*
X102108000Y-105250871D01*
X102226927Y-105227215D01*
X102327748Y-105159848D01*
X102395115Y-105059027D01*
X102418771Y-104940100D01*
X102418771Y-100444300D01*
X102408706Y-100393700D01*
X103331294Y-100393700D01*
X103321229Y-100444300D01*
X103321229Y-104940100D01*
X103344885Y-105059027D01*
X103412252Y-105159848D01*
X103513073Y-105227215D01*
X103632000Y-105250871D01*
X103632000Y-105481182D01*
X103385658Y-105645782D01*
X103154405Y-105991877D01*
X103073200Y-106400124D01*
X103073200Y-106959876D01*
X103154405Y-107368123D01*
X103385658Y-107714218D01*
X103731753Y-107945471D01*
X104140000Y-108026676D01*
X104548247Y-107945471D01*
X104894342Y-107714218D01*
X105125595Y-107368123D01*
X105206800Y-106959876D01*
X105206800Y-106400124D01*
X105125595Y-105991877D01*
X104894342Y-105645782D01*
X104648000Y-105481182D01*
X104648000Y-105250871D01*
X104766927Y-105227215D01*
X104867748Y-105159848D01*
X104935115Y-105059027D01*
X104958771Y-104940100D01*
X104958771Y-100444300D01*
X104948706Y-100393700D01*
X105871294Y-100393700D01*
X105861229Y-100444300D01*
X105861229Y-104940100D01*
X105884885Y-105059027D01*
X105952252Y-105159848D01*
X106053073Y-105227215D01*
X106172000Y-105250871D01*
X106172000Y-105481182D01*
X105925658Y-105645782D01*
X105694405Y-105991877D01*
X105613200Y-106400124D01*
X105613200Y-106959876D01*
X105694405Y-107368123D01*
X105925658Y-107714218D01*
X106271753Y-107945471D01*
X106680000Y-108026676D01*
X107088247Y-107945471D01*
X107434342Y-107714218D01*
X107665595Y-107368123D01*
X107746800Y-106959876D01*
X107746800Y-106400124D01*
X107665595Y-105991877D01*
X107434342Y-105645782D01*
X107188000Y-105481182D01*
X107188000Y-105250871D01*
X107306927Y-105227215D01*
X107407748Y-105159848D01*
X107475115Y-105059027D01*
X107498771Y-104940100D01*
X107498771Y-100444300D01*
X107488706Y-100393700D01*
X108411294Y-100393700D01*
X108401229Y-100444300D01*
X108401229Y-104940100D01*
X108424885Y-105059027D01*
X108492252Y-105159848D01*
X108593073Y-105227215D01*
X108712000Y-105250871D01*
X108712000Y-105481182D01*
X108465658Y-105645782D01*
X108234405Y-105991877D01*
X108153200Y-106400124D01*
X108153200Y-106959876D01*
X108234405Y-107368123D01*
X108465658Y-107714218D01*
X108811753Y-107945471D01*
X109220000Y-108026676D01*
X109628247Y-107945471D01*
X109974342Y-107714218D01*
X110205595Y-107368123D01*
X110286800Y-106959876D01*
X110286800Y-106400124D01*
X110205595Y-105991877D01*
X109974342Y-105645782D01*
X109728000Y-105481182D01*
X109728000Y-105250871D01*
X109846927Y-105227215D01*
X109947748Y-105159848D01*
X110015115Y-105059027D01*
X110038771Y-104940100D01*
X110038771Y-100444300D01*
X110028706Y-100393700D01*
X110951294Y-100393700D01*
X110941229Y-100444300D01*
X110941229Y-104940100D01*
X110964885Y-105059027D01*
X111032252Y-105159848D01*
X111133073Y-105227215D01*
X111252000Y-105250871D01*
X111252000Y-105481182D01*
X111005658Y-105645782D01*
X110774405Y-105991877D01*
X110693200Y-106400124D01*
X110693200Y-106959876D01*
X110774405Y-107368123D01*
X111005658Y-107714218D01*
X111351753Y-107945471D01*
X111760000Y-108026676D01*
X112168247Y-107945471D01*
X112514342Y-107714218D01*
X112646223Y-107516843D01*
X112670790Y-107553610D01*
X115011600Y-109894420D01*
X115011600Y-110636305D01*
X114727687Y-110446601D01*
X114300000Y-110361529D01*
X113872313Y-110446601D01*
X113509737Y-110688866D01*
X113267472Y-111051442D01*
X113247788Y-111150400D01*
X112812212Y-111150400D01*
X112792528Y-111051442D01*
X112550263Y-110688866D01*
X112187687Y-110446601D01*
X111760000Y-110361529D01*
X111332313Y-110446601D01*
X110969737Y-110688866D01*
X110727472Y-111051442D01*
X110707788Y-111150400D01*
X110272212Y-111150400D01*
X110252528Y-111051442D01*
X110010263Y-110688866D01*
X109647687Y-110446601D01*
X109220000Y-110361529D01*
X108792313Y-110446601D01*
X108429737Y-110688866D01*
X108187472Y-111051442D01*
X108167788Y-111150400D01*
X107732212Y-111150400D01*
X107712528Y-111051442D01*
X107470263Y-110688866D01*
X107107687Y-110446601D01*
X106680000Y-110361529D01*
X106252313Y-110446601D01*
X105889737Y-110688866D01*
X105647472Y-111051442D01*
X105627788Y-111150400D01*
X105192212Y-111150400D01*
X105172528Y-111051442D01*
X104930263Y-110688866D01*
X104567687Y-110446601D01*
X104140000Y-110361529D01*
X103712313Y-110446601D01*
X103349737Y-110688866D01*
X103107472Y-111051442D01*
X103087788Y-111150400D01*
X102652212Y-111150400D01*
X102632528Y-111051442D01*
X102390263Y-110688866D01*
X102027687Y-110446601D01*
X101600000Y-110361529D01*
X101172313Y-110446601D01*
X100809737Y-110688866D01*
X100567472Y-111051442D01*
X100547788Y-111150400D01*
X100112212Y-111150400D01*
X100092528Y-111051442D01*
X99850263Y-110688866D01*
X99487687Y-110446601D01*
X99060000Y-110361529D01*
X98632313Y-110446601D01*
X98269737Y-110688866D01*
X98027472Y-111051442D01*
X98007788Y-111150400D01*
X97572212Y-111150400D01*
X97552528Y-111051442D01*
X97310263Y-110688866D01*
X96947687Y-110446601D01*
X96520000Y-110361529D01*
X96092313Y-110446601D01*
X95729737Y-110688866D01*
X95487472Y-111051442D01*
X95402400Y-111479129D01*
X95402400Y-112040871D01*
X95487472Y-112468558D01*
X95729737Y-112831134D01*
X96092313Y-113073399D01*
X96520000Y-113158471D01*
X96947687Y-113073399D01*
X97310263Y-112831134D01*
X97552528Y-112468558D01*
X97572212Y-112369600D01*
X98007788Y-112369600D01*
X98027472Y-112468558D01*
X98269737Y-112831134D01*
X98632313Y-113073399D01*
X99060000Y-113158471D01*
X99487687Y-113073399D01*
X99850263Y-112831134D01*
X100092528Y-112468558D01*
X100112212Y-112369600D01*
X100547788Y-112369600D01*
X100567472Y-112468558D01*
X100809737Y-112831134D01*
X101172313Y-113073399D01*
X101600000Y-113158471D01*
X102027687Y-113073399D01*
X102390263Y-112831134D01*
X102632528Y-112468558D01*
X102652212Y-112369600D01*
X103087788Y-112369600D01*
X103107472Y-112468558D01*
X103349737Y-112831134D01*
X103712313Y-113073399D01*
X104140000Y-113158471D01*
X104567687Y-113073399D01*
X104930263Y-112831134D01*
X105172528Y-112468558D01*
X105192212Y-112369600D01*
X105627788Y-112369600D01*
X105647472Y-112468558D01*
X105889737Y-112831134D01*
X106252313Y-113073399D01*
X106680000Y-113158471D01*
X107107687Y-113073399D01*
X107470263Y-112831134D01*
X107712528Y-112468558D01*
X107732212Y-112369600D01*
X108167788Y-112369600D01*
X108187472Y-112468558D01*
X108429737Y-112831134D01*
X108792313Y-113073399D01*
X109220000Y-113158471D01*
X109647687Y-113073399D01*
X110010263Y-112831134D01*
X110252528Y-112468558D01*
X110272212Y-112369600D01*
X110707788Y-112369600D01*
X110727472Y-112468558D01*
X110969737Y-112831134D01*
X111332313Y-113073399D01*
X111760000Y-113158471D01*
X112187687Y-113073399D01*
X112550263Y-112831134D01*
X112792528Y-112468558D01*
X112812212Y-112369600D01*
X113247788Y-112369600D01*
X113267472Y-112468558D01*
X113509737Y-112831134D01*
X113872313Y-113073399D01*
X114300000Y-113158471D01*
X114727687Y-113073399D01*
X115011600Y-112883695D01*
X115011600Y-113504979D01*
X112658090Y-115858490D01*
X112547969Y-116023297D01*
X112521399Y-116156873D01*
X112231428Y-115963121D01*
X111760000Y-115869348D01*
X111288572Y-115963121D01*
X110888915Y-116230163D01*
X110621873Y-116629820D01*
X110528100Y-117101248D01*
X110528100Y-117848752D01*
X110621873Y-118320180D01*
X110888915Y-118719837D01*
X111288572Y-118986879D01*
X111760000Y-119080652D01*
X112231428Y-118986879D01*
X112631085Y-118719837D01*
X112898127Y-118320180D01*
X112965196Y-117983000D01*
X113017300Y-117983000D01*
X113091854Y-117968170D01*
X113161873Y-118320180D01*
X113428915Y-118719837D01*
X113828572Y-118986879D01*
X114300000Y-119080652D01*
X114771428Y-118986879D01*
X115171085Y-118719837D01*
X115438127Y-118320180D01*
X115531900Y-117848752D01*
X115531900Y-117101248D01*
X115438127Y-116629820D01*
X115429880Y-116617477D01*
X116026840Y-116617477D01*
X116343259Y-117383270D01*
X116928648Y-117969682D01*
X117693888Y-118287437D01*
X118522477Y-118288160D01*
X119288270Y-117971741D01*
X119874682Y-117386352D01*
X120192437Y-116621112D01*
X120193160Y-115792523D01*
X119876741Y-115026730D01*
X119291352Y-114440318D01*
X118526112Y-114122563D01*
X117697523Y-114121840D01*
X116931730Y-114438259D01*
X116345318Y-115023648D01*
X116027563Y-115788888D01*
X116026840Y-116617477D01*
X115429880Y-116617477D01*
X115171085Y-116230163D01*
X114771428Y-115963121D01*
X114300000Y-115869348D01*
X114030457Y-115922964D01*
X115878811Y-114074610D01*
X115988931Y-113909803D01*
X116027600Y-113715400D01*
X116027600Y-109684000D01*
X115988931Y-109489597D01*
X115988931Y-109489596D01*
X115878810Y-109324790D01*
X114534126Y-107980106D01*
X114708247Y-107945471D01*
X115054342Y-107714218D01*
X115285595Y-107368123D01*
X115366800Y-106959876D01*
X115366800Y-106400124D01*
X115285595Y-105991877D01*
X115054342Y-105645782D01*
X114808000Y-105481182D01*
X114808000Y-105250871D01*
X114926927Y-105227215D01*
X115027748Y-105159848D01*
X115095115Y-105059027D01*
X115118771Y-104940100D01*
X115118771Y-100444300D01*
X115108706Y-100393700D01*
X118837681Y-100393700D01*
X119029201Y-100585556D01*
X119304501Y-100699870D01*
X119602591Y-100700130D01*
X119878090Y-100586296D01*
X120005910Y-100458700D01*
X120563080Y-100458700D01*
X126387326Y-106282946D01*
X126387170Y-106462191D01*
X126501004Y-106737690D01*
X126711601Y-106948656D01*
X126986901Y-107062970D01*
X127284991Y-107063230D01*
X127560490Y-106949396D01*
X127771456Y-106738799D01*
X127885770Y-106463499D01*
X127886030Y-106165409D01*
X127772196Y-105889910D01*
X127561599Y-105678944D01*
X127286299Y-105564630D01*
X127105692Y-105564472D01*
X121132710Y-99591490D01*
X120967903Y-99481369D01*
X120773500Y-99442700D01*
X120005833Y-99442700D01*
X119879199Y-99315844D01*
X119603899Y-99201530D01*
X119305809Y-99201270D01*
X119030310Y-99315104D01*
X118967604Y-99377700D01*
X115238105Y-99377700D01*
X115324794Y-99291011D01*
X115417600Y-99066957D01*
X115417600Y-97002600D01*
X115265200Y-96850200D01*
X114452400Y-96850200D01*
X114452400Y-96870200D01*
X114147600Y-96870200D01*
X114147600Y-96850200D01*
X113334800Y-96850200D01*
X113182400Y-97002600D01*
X113182400Y-99066957D01*
X113275206Y-99291011D01*
X113361895Y-99377700D01*
X112698105Y-99377700D01*
X112784794Y-99291011D01*
X112877600Y-99066957D01*
X112877600Y-97002600D01*
X112725200Y-96850200D01*
X111912400Y-96850200D01*
X111912400Y-96870200D01*
X111607600Y-96870200D01*
X111607600Y-96850200D01*
X110794800Y-96850200D01*
X110642400Y-97002600D01*
X110642400Y-99066957D01*
X110735206Y-99291011D01*
X110821895Y-99377700D01*
X110158105Y-99377700D01*
X110244794Y-99291011D01*
X110337600Y-99066957D01*
X110337600Y-97002600D01*
X110185200Y-96850200D01*
X109372400Y-96850200D01*
X109372400Y-96870200D01*
X109067600Y-96870200D01*
X109067600Y-96850200D01*
X108254800Y-96850200D01*
X108102400Y-97002600D01*
X108102400Y-99066957D01*
X108195206Y-99291011D01*
X108281895Y-99377700D01*
X107618105Y-99377700D01*
X107704794Y-99291011D01*
X107797600Y-99066957D01*
X107797600Y-97002600D01*
X107645200Y-96850200D01*
X106832400Y-96850200D01*
X106832400Y-96870200D01*
X106527600Y-96870200D01*
X106527600Y-96850200D01*
X105714800Y-96850200D01*
X105562400Y-97002600D01*
X105562400Y-99066957D01*
X105655206Y-99291011D01*
X105741895Y-99377700D01*
X105078105Y-99377700D01*
X105164794Y-99291011D01*
X105257600Y-99066957D01*
X105257600Y-97002600D01*
X105105200Y-96850200D01*
X104292400Y-96850200D01*
X104292400Y-96870200D01*
X103987600Y-96870200D01*
X103987600Y-96850200D01*
X103174800Y-96850200D01*
X103022400Y-97002600D01*
X103022400Y-99066957D01*
X103115206Y-99291011D01*
X103201895Y-99377700D01*
X102538105Y-99377700D01*
X102624794Y-99291011D01*
X102717600Y-99066957D01*
X102717600Y-97002600D01*
X102565200Y-96850200D01*
X101752400Y-96850200D01*
X101752400Y-96870200D01*
X101447600Y-96870200D01*
X101447600Y-96850200D01*
X100634800Y-96850200D01*
X100482400Y-97002600D01*
X100482400Y-99066957D01*
X100575206Y-99291011D01*
X100661895Y-99377700D01*
X99998105Y-99377700D01*
X100084794Y-99291011D01*
X100177600Y-99066957D01*
X100177600Y-97002600D01*
X100025200Y-96850200D01*
X99212400Y-96850200D01*
X99212400Y-96870200D01*
X98907600Y-96870200D01*
X98907600Y-96850200D01*
X98094800Y-96850200D01*
X97942400Y-97002600D01*
X97942400Y-99066957D01*
X98035206Y-99291011D01*
X98121895Y-99377700D01*
X97458105Y-99377700D01*
X97544794Y-99291011D01*
X97637600Y-99066957D01*
X97637600Y-97002600D01*
X97485200Y-96850200D01*
X96672400Y-96850200D01*
X96672400Y-96870200D01*
X96367600Y-96870200D01*
X96367600Y-96850200D01*
X95554800Y-96850200D01*
X95402400Y-97002600D01*
X95402400Y-99066957D01*
X95495206Y-99291011D01*
X95581895Y-99377700D01*
X86173720Y-99377700D01*
X85386120Y-98590100D01*
X85521802Y-98590100D01*
X85521802Y-98443078D01*
X85748391Y-98593636D01*
X86289419Y-98436294D01*
X86729051Y-98083887D01*
X87000358Y-97590065D01*
X87008976Y-97528753D01*
X86897014Y-97307400D01*
X85521800Y-97307400D01*
X85521800Y-97327400D01*
X85217000Y-97327400D01*
X85217000Y-97307400D01*
X85197000Y-97307400D01*
X85197000Y-97002600D01*
X85217000Y-97002600D01*
X85217000Y-95866923D01*
X85521800Y-95866923D01*
X85521800Y-97002600D01*
X86897014Y-97002600D01*
X87008976Y-96781247D01*
X87000358Y-96719935D01*
X86729051Y-96226113D01*
X86289419Y-95873706D01*
X85748391Y-95716364D01*
X85521800Y-95866923D01*
X85217000Y-95866923D01*
X84990409Y-95716364D01*
X84449381Y-95873706D01*
X84009749Y-96226113D01*
X83765084Y-96671443D01*
X83642200Y-96647000D01*
X83571424Y-96647000D01*
X83535595Y-96466877D01*
X83304342Y-96120782D01*
X82958247Y-95889529D01*
X82550000Y-95808324D01*
X82141753Y-95889529D01*
X81795658Y-96120782D01*
X81564405Y-96466877D01*
X81483200Y-96875124D01*
X74079100Y-96875124D01*
X74079100Y-94328643D01*
X95402400Y-94328643D01*
X95402400Y-96393000D01*
X95554800Y-96545400D01*
X96367600Y-96545400D01*
X96367600Y-93992700D01*
X96672400Y-93992700D01*
X96672400Y-96545400D01*
X97485200Y-96545400D01*
X97637600Y-96393000D01*
X97637600Y-94328643D01*
X97942400Y-94328643D01*
X97942400Y-96393000D01*
X98094800Y-96545400D01*
X98907600Y-96545400D01*
X98907600Y-93992700D01*
X99212400Y-93992700D01*
X99212400Y-96545400D01*
X100025200Y-96545400D01*
X100177600Y-96393000D01*
X100177600Y-94328643D01*
X100482400Y-94328643D01*
X100482400Y-96393000D01*
X100634800Y-96545400D01*
X101447600Y-96545400D01*
X101447600Y-93992700D01*
X101752400Y-93992700D01*
X101752400Y-96545400D01*
X102565200Y-96545400D01*
X102717600Y-96393000D01*
X102717600Y-94328643D01*
X103022400Y-94328643D01*
X103022400Y-96393000D01*
X103174800Y-96545400D01*
X103987600Y-96545400D01*
X103987600Y-93992700D01*
X104292400Y-93992700D01*
X104292400Y-96545400D01*
X105105200Y-96545400D01*
X105257600Y-96393000D01*
X105257600Y-94328643D01*
X105562400Y-94328643D01*
X105562400Y-96393000D01*
X105714800Y-96545400D01*
X106527600Y-96545400D01*
X106527600Y-93992700D01*
X106832400Y-93992700D01*
X106832400Y-96545400D01*
X107645200Y-96545400D01*
X107797600Y-96393000D01*
X107797600Y-94328643D01*
X108102400Y-94328643D01*
X108102400Y-96393000D01*
X108254800Y-96545400D01*
X109067600Y-96545400D01*
X109067600Y-93992700D01*
X109372400Y-93992700D01*
X109372400Y-96545400D01*
X110185200Y-96545400D01*
X110337600Y-96393000D01*
X110337600Y-94328643D01*
X110642400Y-94328643D01*
X110642400Y-96393000D01*
X110794800Y-96545400D01*
X111607600Y-96545400D01*
X111607600Y-93992700D01*
X111912400Y-93992700D01*
X111912400Y-96545400D01*
X112725200Y-96545400D01*
X112877600Y-96393000D01*
X112877600Y-94328643D01*
X113182400Y-94328643D01*
X113182400Y-96393000D01*
X113334800Y-96545400D01*
X114147600Y-96545400D01*
X114147600Y-93992700D01*
X114452400Y-93992700D01*
X114452400Y-96545400D01*
X115265200Y-96545400D01*
X115417600Y-96393000D01*
X115417600Y-94328643D01*
X115324794Y-94104589D01*
X115153311Y-93933106D01*
X114929257Y-93840300D01*
X114604800Y-93840300D01*
X114452400Y-93992700D01*
X114147600Y-93992700D01*
X113995200Y-93840300D01*
X113670743Y-93840300D01*
X113446689Y-93933106D01*
X113275206Y-94104589D01*
X113182400Y-94328643D01*
X112877600Y-94328643D01*
X112784794Y-94104589D01*
X112613311Y-93933106D01*
X112389257Y-93840300D01*
X112064800Y-93840300D01*
X111912400Y-93992700D01*
X111607600Y-93992700D01*
X111455200Y-93840300D01*
X111130743Y-93840300D01*
X110906689Y-93933106D01*
X110735206Y-94104589D01*
X110642400Y-94328643D01*
X110337600Y-94328643D01*
X110244794Y-94104589D01*
X110073311Y-93933106D01*
X109849257Y-93840300D01*
X109524800Y-93840300D01*
X109372400Y-93992700D01*
X109067600Y-93992700D01*
X108915200Y-93840300D01*
X108590743Y-93840300D01*
X108366689Y-93933106D01*
X108195206Y-94104589D01*
X108102400Y-94328643D01*
X107797600Y-94328643D01*
X107704794Y-94104589D01*
X107533311Y-93933106D01*
X107309257Y-93840300D01*
X106984800Y-93840300D01*
X106832400Y-93992700D01*
X106527600Y-93992700D01*
X106375200Y-93840300D01*
X106050743Y-93840300D01*
X105826689Y-93933106D01*
X105655206Y-94104589D01*
X105562400Y-94328643D01*
X105257600Y-94328643D01*
X105164794Y-94104589D01*
X104993311Y-93933106D01*
X104769257Y-93840300D01*
X104444800Y-93840300D01*
X104292400Y-93992700D01*
X103987600Y-93992700D01*
X103835200Y-93840300D01*
X103510743Y-93840300D01*
X103286689Y-93933106D01*
X103115206Y-94104589D01*
X103022400Y-94328643D01*
X102717600Y-94328643D01*
X102624794Y-94104589D01*
X102453311Y-93933106D01*
X102229257Y-93840300D01*
X101904800Y-93840300D01*
X101752400Y-93992700D01*
X101447600Y-93992700D01*
X101295200Y-93840300D01*
X100970743Y-93840300D01*
X100746689Y-93933106D01*
X100575206Y-94104589D01*
X100482400Y-94328643D01*
X100177600Y-94328643D01*
X100084794Y-94104589D01*
X99913311Y-93933106D01*
X99689257Y-93840300D01*
X99364800Y-93840300D01*
X99212400Y-93992700D01*
X98907600Y-93992700D01*
X98755200Y-93840300D01*
X98430743Y-93840300D01*
X98206689Y-93933106D01*
X98035206Y-94104589D01*
X97942400Y-94328643D01*
X97637600Y-94328643D01*
X97544794Y-94104589D01*
X97373311Y-93933106D01*
X97149257Y-93840300D01*
X96824800Y-93840300D01*
X96672400Y-93992700D01*
X96367600Y-93992700D01*
X96215200Y-93840300D01*
X95890743Y-93840300D01*
X95666689Y-93933106D01*
X95495206Y-94104589D01*
X95402400Y-94328643D01*
X74079100Y-94328643D01*
X74079100Y-87407477D01*
X75386840Y-87407477D01*
X75703259Y-88173270D01*
X76288648Y-88759682D01*
X77053888Y-89077437D01*
X77882477Y-89078160D01*
X78648270Y-88761741D01*
X79234682Y-88176352D01*
X79552437Y-87411112D01*
X79553160Y-86582523D01*
X79236741Y-85816730D01*
X78651352Y-85230318D01*
X77886112Y-84912563D01*
X77057523Y-84911840D01*
X76291730Y-85228259D01*
X75705318Y-85813648D01*
X75387563Y-86578888D01*
X75386840Y-87407477D01*
X74079100Y-87407477D01*
X74079100Y-82219800D01*
X74663300Y-82219800D01*
X74663300Y-83306257D01*
X74756106Y-83530311D01*
X74927589Y-83701794D01*
X75151643Y-83794600D01*
X75895200Y-83794600D01*
X76047600Y-83642200D01*
X76047600Y-82067400D01*
X74815700Y-82067400D01*
X74663300Y-82219800D01*
X74079100Y-82219800D01*
X74079100Y-80523743D01*
X74663300Y-80523743D01*
X74663300Y-81610200D01*
X74815700Y-81762600D01*
X76047600Y-81762600D01*
X76047600Y-80187800D01*
X76352400Y-80187800D01*
X76352400Y-81762600D01*
X76372400Y-81762600D01*
X76372400Y-82067400D01*
X76352400Y-82067400D01*
X76352400Y-83642200D01*
X76504800Y-83794600D01*
X77248357Y-83794600D01*
X77472411Y-83701794D01*
X77643894Y-83530311D01*
X77736700Y-83306257D01*
X77736700Y-82961963D01*
X77868915Y-83159837D01*
X78268572Y-83426879D01*
X78740000Y-83520652D01*
X79211428Y-83426879D01*
X79611085Y-83159837D01*
X79878127Y-82760180D01*
X79971900Y-82288752D01*
X79971900Y-81541248D01*
X80048100Y-81541248D01*
X80048100Y-82288752D01*
X80141873Y-82760180D01*
X80408915Y-83159837D01*
X80808572Y-83426879D01*
X81280000Y-83520652D01*
X81751428Y-83426879D01*
X82151085Y-83159837D01*
X82418127Y-82760180D01*
X82511900Y-82288752D01*
X82511900Y-81541248D01*
X82588100Y-81541248D01*
X82588100Y-82288752D01*
X82681873Y-82760180D01*
X82948915Y-83159837D01*
X83348572Y-83426879D01*
X83820000Y-83520652D01*
X84291428Y-83426879D01*
X84691085Y-83159837D01*
X84958127Y-82760180D01*
X85051900Y-82288752D01*
X85051900Y-81541248D01*
X85128100Y-81541248D01*
X85128100Y-82288752D01*
X85221873Y-82760180D01*
X85488915Y-83159837D01*
X85888572Y-83426879D01*
X86360000Y-83520652D01*
X86831428Y-83426879D01*
X87231085Y-83159837D01*
X87251679Y-83129016D01*
X87258090Y-83138610D01*
X96309290Y-92189810D01*
X96474097Y-92299931D01*
X96668500Y-92338600D01*
X123967980Y-92338600D01*
X130667626Y-99038246D01*
X130667470Y-99217491D01*
X130781304Y-99492990D01*
X130991901Y-99703956D01*
X131267201Y-99818270D01*
X131565291Y-99818530D01*
X131840790Y-99704696D01*
X132051756Y-99494099D01*
X132166070Y-99218799D01*
X132166330Y-98920709D01*
X132052496Y-98645210D01*
X131841899Y-98434244D01*
X131566599Y-98319930D01*
X131385992Y-98319772D01*
X124537610Y-91471390D01*
X124372803Y-91361269D01*
X124178400Y-91322600D01*
X96878920Y-91322600D01*
X89153797Y-83597477D01*
X116026840Y-83597477D01*
X116343259Y-84363270D01*
X116928648Y-84949682D01*
X117693888Y-85267437D01*
X118522477Y-85268160D01*
X119288270Y-84951741D01*
X119874682Y-84366352D01*
X120192437Y-83601112D01*
X120193160Y-82772523D01*
X119876741Y-82006730D01*
X119291352Y-81420318D01*
X118526112Y-81102563D01*
X117697523Y-81101840D01*
X116931730Y-81418259D01*
X116345318Y-82003648D01*
X116027563Y-82768888D01*
X116026840Y-83597477D01*
X89153797Y-83597477D01*
X89047610Y-83491290D01*
X89371428Y-83426879D01*
X89771085Y-83159837D01*
X90038127Y-82760180D01*
X90131900Y-82288752D01*
X90131900Y-81541248D01*
X90208100Y-81541248D01*
X90208100Y-82288752D01*
X90301873Y-82760180D01*
X90568915Y-83159837D01*
X90968572Y-83426879D01*
X91440000Y-83520652D01*
X91911428Y-83426879D01*
X92311085Y-83159837D01*
X92578127Y-82760180D01*
X92671900Y-82288752D01*
X92671900Y-81541248D01*
X92748100Y-81541248D01*
X92748100Y-82288752D01*
X92841873Y-82760180D01*
X93108915Y-83159837D01*
X93508572Y-83426879D01*
X93980000Y-83520652D01*
X94451428Y-83426879D01*
X94851085Y-83159837D01*
X95118127Y-82760180D01*
X95211900Y-82288752D01*
X95211900Y-81541248D01*
X95288100Y-81541248D01*
X95288100Y-82288752D01*
X95381873Y-82760180D01*
X95648915Y-83159837D01*
X96048572Y-83426879D01*
X96520000Y-83520652D01*
X96991428Y-83426879D01*
X97391085Y-83159837D01*
X97658127Y-82760180D01*
X97751900Y-82288752D01*
X97751900Y-81541248D01*
X97828100Y-81541248D01*
X97828100Y-82288752D01*
X97921873Y-82760180D01*
X98188915Y-83159837D01*
X98588572Y-83426879D01*
X99060000Y-83520652D01*
X99531428Y-83426879D01*
X99931085Y-83159837D01*
X100198127Y-82760180D01*
X100291900Y-82288752D01*
X100291900Y-81541248D01*
X100368100Y-81541248D01*
X100368100Y-82288752D01*
X100461873Y-82760180D01*
X100728915Y-83159837D01*
X101128572Y-83426879D01*
X101600000Y-83520652D01*
X102071428Y-83426879D01*
X102471085Y-83159837D01*
X102738127Y-82760180D01*
X102831900Y-82288752D01*
X102831900Y-81541248D01*
X102908100Y-81541248D01*
X102908100Y-82288752D01*
X103001873Y-82760180D01*
X103268915Y-83159837D01*
X103668572Y-83426879D01*
X104140000Y-83520652D01*
X104611428Y-83426879D01*
X105011085Y-83159837D01*
X105278127Y-82760180D01*
X105371900Y-82288752D01*
X105371900Y-81541248D01*
X105448100Y-81541248D01*
X105448100Y-82288752D01*
X105541873Y-82760180D01*
X105808915Y-83159837D01*
X106208572Y-83426879D01*
X106680000Y-83520652D01*
X107151428Y-83426879D01*
X107551085Y-83159837D01*
X107818127Y-82760180D01*
X107911900Y-82288752D01*
X107911900Y-81541248D01*
X107988100Y-81541248D01*
X107988100Y-82288752D01*
X108081873Y-82760180D01*
X108348915Y-83159837D01*
X108748572Y-83426879D01*
X109220000Y-83520652D01*
X109691428Y-83426879D01*
X110091085Y-83159837D01*
X110358127Y-82760180D01*
X110451900Y-82288752D01*
X110451900Y-81541248D01*
X110528100Y-81541248D01*
X110528100Y-82288752D01*
X110621873Y-82760180D01*
X110888915Y-83159837D01*
X111288572Y-83426879D01*
X111760000Y-83520652D01*
X112231428Y-83426879D01*
X112631085Y-83159837D01*
X112898127Y-82760180D01*
X112991900Y-82288752D01*
X112991900Y-81541248D01*
X113068100Y-81541248D01*
X113068100Y-82288752D01*
X113161873Y-82760180D01*
X113428915Y-83159837D01*
X113828572Y-83426879D01*
X114300000Y-83520652D01*
X114771428Y-83426879D01*
X115171085Y-83159837D01*
X115438127Y-82760180D01*
X115531900Y-82288752D01*
X115531900Y-81541248D01*
X115438127Y-81069820D01*
X115171085Y-80670163D01*
X114771428Y-80403121D01*
X114300000Y-80309348D01*
X113828572Y-80403121D01*
X113428915Y-80670163D01*
X113161873Y-81069820D01*
X113068100Y-81541248D01*
X112991900Y-81541248D01*
X112898127Y-81069820D01*
X112631085Y-80670163D01*
X112231428Y-80403121D01*
X111760000Y-80309348D01*
X111288572Y-80403121D01*
X110888915Y-80670163D01*
X110621873Y-81069820D01*
X110528100Y-81541248D01*
X110451900Y-81541248D01*
X110358127Y-81069820D01*
X110091085Y-80670163D01*
X109691428Y-80403121D01*
X109220000Y-80309348D01*
X108748572Y-80403121D01*
X108348915Y-80670163D01*
X108081873Y-81069820D01*
X107988100Y-81541248D01*
X107911900Y-81541248D01*
X107818127Y-81069820D01*
X107551085Y-80670163D01*
X107151428Y-80403121D01*
X106680000Y-80309348D01*
X106208572Y-80403121D01*
X105808915Y-80670163D01*
X105541873Y-81069820D01*
X105448100Y-81541248D01*
X105371900Y-81541248D01*
X105278127Y-81069820D01*
X105011085Y-80670163D01*
X104611428Y-80403121D01*
X104140000Y-80309348D01*
X103668572Y-80403121D01*
X103268915Y-80670163D01*
X103001873Y-81069820D01*
X102908100Y-81541248D01*
X102831900Y-81541248D01*
X102738127Y-81069820D01*
X102471085Y-80670163D01*
X102071428Y-80403121D01*
X101600000Y-80309348D01*
X101128572Y-80403121D01*
X100728915Y-80670163D01*
X100461873Y-81069820D01*
X100368100Y-81541248D01*
X100291900Y-81541248D01*
X100198127Y-81069820D01*
X99931085Y-80670163D01*
X99531428Y-80403121D01*
X99060000Y-80309348D01*
X98588572Y-80403121D01*
X98188915Y-80670163D01*
X97921873Y-81069820D01*
X97828100Y-81541248D01*
X97751900Y-81541248D01*
X97658127Y-81069820D01*
X97391085Y-80670163D01*
X96991428Y-80403121D01*
X96520000Y-80309348D01*
X96048572Y-80403121D01*
X95648915Y-80670163D01*
X95381873Y-81069820D01*
X95288100Y-81541248D01*
X95211900Y-81541248D01*
X95118127Y-81069820D01*
X94851085Y-80670163D01*
X94451428Y-80403121D01*
X93980000Y-80309348D01*
X93508572Y-80403121D01*
X93108915Y-80670163D01*
X92841873Y-81069820D01*
X92748100Y-81541248D01*
X92671900Y-81541248D01*
X92578127Y-81069820D01*
X92311085Y-80670163D01*
X91911428Y-80403121D01*
X91440000Y-80309348D01*
X90968572Y-80403121D01*
X90568915Y-80670163D01*
X90301873Y-81069820D01*
X90208100Y-81541248D01*
X90131900Y-81541248D01*
X90038127Y-81069820D01*
X89771085Y-80670163D01*
X89371428Y-80403121D01*
X88900000Y-80309348D01*
X88428572Y-80403121D01*
X88028915Y-80670163D01*
X87761873Y-81069820D01*
X87691854Y-81421830D01*
X87617300Y-81407000D01*
X87565196Y-81407000D01*
X87498127Y-81069820D01*
X87231085Y-80670163D01*
X86831428Y-80403121D01*
X86360000Y-80309348D01*
X85888572Y-80403121D01*
X85488915Y-80670163D01*
X85221873Y-81069820D01*
X85128100Y-81541248D01*
X85051900Y-81541248D01*
X84958127Y-81069820D01*
X84691085Y-80670163D01*
X84291428Y-80403121D01*
X83820000Y-80309348D01*
X83348572Y-80403121D01*
X82948915Y-80670163D01*
X82681873Y-81069820D01*
X82588100Y-81541248D01*
X82511900Y-81541248D01*
X82418127Y-81069820D01*
X82151085Y-80670163D01*
X81751428Y-80403121D01*
X81280000Y-80309348D01*
X80808572Y-80403121D01*
X80408915Y-80670163D01*
X80141873Y-81069820D01*
X80048100Y-81541248D01*
X79971900Y-81541248D01*
X79878127Y-81069820D01*
X79611085Y-80670163D01*
X79211428Y-80403121D01*
X78740000Y-80309348D01*
X78268572Y-80403121D01*
X77868915Y-80670163D01*
X77736700Y-80868037D01*
X77736700Y-80523743D01*
X77643894Y-80299689D01*
X77472411Y-80128206D01*
X77248357Y-80035400D01*
X76504800Y-80035400D01*
X76352400Y-80187800D01*
X76047600Y-80187800D01*
X75895200Y-80035400D01*
X75151643Y-80035400D01*
X74927589Y-80128206D01*
X74756106Y-80299689D01*
X74663300Y-80523743D01*
X74079100Y-80523743D01*
X74079100Y-79794100D01*
X136740900Y-79794100D01*
X136740900Y-119595900D01*
M02*
