G04 #@! TF.FileFunction,Legend,Top*
%FSLAX46Y46*%
G04 Gerber Fmt 4.6, Leading zero omitted, Abs format (unit mm)*
G04 Created by KiCad (PCBNEW 4.1.0-alpha+201608010716+6997~46~ubuntu16.04.1-product) date Mon Aug  8 14:57:05 2016*
%MOMM*%
%LPD*%
G01*
G04 APERTURE LIST*
%ADD10C,0.100000*%
%ADD11C,0.381000*%
%ADD12C,0.228600*%
%ADD13C,0.635000*%
%ADD14C,0.254000*%
%ADD15O,1.924000X2.432000*%
%ADD16R,1.416000X4.895800*%
%ADD17O,2.559000X2.051000*%
%ADD18O,2.254200X2.940000*%
%ADD19R,2.254200X2.940000*%
%ADD20C,3.956000*%
G04 APERTURE END LIST*
D10*
D11*
X98860428Y-111294635D02*
X98860428Y-110278635D01*
X100384428Y-110931778D01*
X101400428Y-110496350D02*
X101400428Y-110786635D01*
X101473000Y-110931778D01*
X101545571Y-111004350D01*
X101763285Y-111149492D01*
X102053571Y-111222064D01*
X102634142Y-111222064D01*
X102779285Y-111149492D01*
X102851857Y-111076921D01*
X102924428Y-110931778D01*
X102924428Y-110641492D01*
X102851857Y-110496350D01*
X102779285Y-110423778D01*
X102634142Y-110351207D01*
X102271285Y-110351207D01*
X102126142Y-110423778D01*
X102053571Y-110496350D01*
X101981000Y-110641492D01*
X101981000Y-110931778D01*
X102053571Y-111076921D01*
X102126142Y-111149492D01*
X102271285Y-111222064D01*
X103940428Y-110423778D02*
X103940428Y-111149492D01*
X104666142Y-111222064D01*
X104593571Y-111149492D01*
X104521000Y-111004350D01*
X104521000Y-110641492D01*
X104593571Y-110496350D01*
X104666142Y-110423778D01*
X104811285Y-110351207D01*
X105174142Y-110351207D01*
X105319285Y-110423778D01*
X105391857Y-110496350D01*
X105464428Y-110641492D01*
X105464428Y-111004350D01*
X105391857Y-111149492D01*
X105319285Y-111222064D01*
X106988428Y-110496350D02*
X108004428Y-110496350D01*
X106407857Y-110859207D02*
X107496428Y-111222064D01*
X107496428Y-110278635D01*
X109020428Y-111294635D02*
X109020428Y-110351207D01*
X109601000Y-110859207D01*
X109601000Y-110641492D01*
X109673571Y-110496350D01*
X109746142Y-110423778D01*
X109891285Y-110351207D01*
X110254142Y-110351207D01*
X110399285Y-110423778D01*
X110471857Y-110496350D01*
X110544428Y-110641492D01*
X110544428Y-111076921D01*
X110471857Y-111222064D01*
X110399285Y-111294635D01*
X111705571Y-111222064D02*
X111633000Y-111149492D01*
X111560428Y-111004350D01*
X111560428Y-110641492D01*
X111633000Y-110496350D01*
X111705571Y-110423778D01*
X111850714Y-110351207D01*
X111995857Y-110351207D01*
X112213571Y-110423778D01*
X113084428Y-111294635D01*
X113084428Y-110351207D01*
X115624428Y-110351207D02*
X115624428Y-111222064D01*
X115624428Y-110786635D02*
X114100428Y-110786635D01*
X114318142Y-110931778D01*
X114463285Y-111076921D01*
X114535857Y-111222064D01*
X116640428Y-110859207D02*
X116640428Y-110714064D01*
X116713000Y-110568921D01*
X116785571Y-110496350D01*
X116930714Y-110423778D01*
X117221000Y-110351207D01*
X117583857Y-110351207D01*
X117874142Y-110423778D01*
X118019285Y-110496350D01*
X118091857Y-110568921D01*
X118164428Y-110714064D01*
X118164428Y-110859207D01*
X118091857Y-111004350D01*
X118019285Y-111076921D01*
X117874142Y-111149492D01*
X117583857Y-111222064D01*
X117221000Y-111222064D01*
X116930714Y-111149492D01*
X116785571Y-111076921D01*
X116713000Y-111004350D01*
X116640428Y-110859207D01*
D12*
X143510000Y-79375000D02*
X73660000Y-79375000D01*
X143510000Y-120015000D02*
X143510000Y-79375000D01*
X73660000Y-120015000D02*
X143510000Y-120015000D01*
X73660000Y-79375000D02*
X73660000Y-120015000D01*
D13*
X124339047Y-95129047D02*
X124580952Y-95129047D01*
X124822857Y-95250000D01*
X124943809Y-95370952D01*
X125064761Y-95612857D01*
X125185714Y-96096666D01*
X125185714Y-96701428D01*
X125064761Y-97185238D01*
X124943809Y-97427142D01*
X124822857Y-97548095D01*
X124580952Y-97669047D01*
X124339047Y-97669047D01*
X124097142Y-97548095D01*
X123976190Y-97427142D01*
X123855238Y-97185238D01*
X123734285Y-96701428D01*
X123734285Y-96096666D01*
X123855238Y-95612857D01*
X123976190Y-95370952D01*
X124097142Y-95250000D01*
X124339047Y-95129047D01*
D14*
X79737857Y-115394619D02*
X79737857Y-114378619D01*
X80173285Y-115394619D02*
X80173285Y-114862428D01*
X80124904Y-114765666D01*
X80028142Y-114717285D01*
X79883000Y-114717285D01*
X79786238Y-114765666D01*
X79737857Y-114814047D01*
X80511952Y-114717285D02*
X80899000Y-114717285D01*
X80657095Y-114378619D02*
X80657095Y-115249476D01*
X80705476Y-115346238D01*
X80802238Y-115394619D01*
X80899000Y-115394619D01*
X81092523Y-114717285D02*
X81479571Y-114717285D01*
X81237666Y-114378619D02*
X81237666Y-115249476D01*
X81286047Y-115346238D01*
X81382809Y-115394619D01*
X81479571Y-115394619D01*
X81818238Y-114717285D02*
X81818238Y-115733285D01*
X81818238Y-114765666D02*
X81915000Y-114717285D01*
X82108523Y-114717285D01*
X82205285Y-114765666D01*
X82253666Y-114814047D01*
X82302047Y-114910809D01*
X82302047Y-115201095D01*
X82253666Y-115297857D01*
X82205285Y-115346238D01*
X82108523Y-115394619D01*
X81915000Y-115394619D01*
X81818238Y-115346238D01*
X82689095Y-115346238D02*
X82785857Y-115394619D01*
X82979380Y-115394619D01*
X83076142Y-115346238D01*
X83124523Y-115249476D01*
X83124523Y-115201095D01*
X83076142Y-115104333D01*
X82979380Y-115055952D01*
X82834238Y-115055952D01*
X82737476Y-115007571D01*
X82689095Y-114910809D01*
X82689095Y-114862428D01*
X82737476Y-114765666D01*
X82834238Y-114717285D01*
X82979380Y-114717285D01*
X83076142Y-114765666D01*
X83559952Y-115297857D02*
X83608333Y-115346238D01*
X83559952Y-115394619D01*
X83511571Y-115346238D01*
X83559952Y-115297857D01*
X83559952Y-115394619D01*
X83559952Y-114765666D02*
X83608333Y-114814047D01*
X83559952Y-114862428D01*
X83511571Y-114814047D01*
X83559952Y-114765666D01*
X83559952Y-114862428D01*
X84769476Y-114330238D02*
X83898619Y-115636523D01*
X85833857Y-114330238D02*
X84963000Y-115636523D01*
X86607952Y-114717285D02*
X86607952Y-115539761D01*
X86559571Y-115636523D01*
X86511190Y-115684904D01*
X86414428Y-115733285D01*
X86269285Y-115733285D01*
X86172523Y-115684904D01*
X86607952Y-115346238D02*
X86511190Y-115394619D01*
X86317666Y-115394619D01*
X86220904Y-115346238D01*
X86172523Y-115297857D01*
X86124142Y-115201095D01*
X86124142Y-114910809D01*
X86172523Y-114814047D01*
X86220904Y-114765666D01*
X86317666Y-114717285D01*
X86511190Y-114717285D01*
X86607952Y-114765666D01*
X87091761Y-115394619D02*
X87091761Y-114717285D01*
X87091761Y-114378619D02*
X87043380Y-114427000D01*
X87091761Y-114475380D01*
X87140142Y-114427000D01*
X87091761Y-114378619D01*
X87091761Y-114475380D01*
X87430428Y-114717285D02*
X87817476Y-114717285D01*
X87575571Y-114378619D02*
X87575571Y-115249476D01*
X87623952Y-115346238D01*
X87720714Y-115394619D01*
X87817476Y-115394619D01*
X88156142Y-115394619D02*
X88156142Y-114378619D01*
X88591571Y-115394619D02*
X88591571Y-114862428D01*
X88543190Y-114765666D01*
X88446428Y-114717285D01*
X88301285Y-114717285D01*
X88204523Y-114765666D01*
X88156142Y-114814047D01*
X89510809Y-114717285D02*
X89510809Y-115394619D01*
X89075380Y-114717285D02*
X89075380Y-115249476D01*
X89123761Y-115346238D01*
X89220523Y-115394619D01*
X89365666Y-115394619D01*
X89462428Y-115346238D01*
X89510809Y-115297857D01*
X89994619Y-115394619D02*
X89994619Y-114378619D01*
X89994619Y-114765666D02*
X90091380Y-114717285D01*
X90284904Y-114717285D01*
X90381666Y-114765666D01*
X90430047Y-114814047D01*
X90478428Y-114910809D01*
X90478428Y-115201095D01*
X90430047Y-115297857D01*
X90381666Y-115346238D01*
X90284904Y-115394619D01*
X90091380Y-115394619D01*
X89994619Y-115346238D01*
X90913857Y-115297857D02*
X90962238Y-115346238D01*
X90913857Y-115394619D01*
X90865476Y-115346238D01*
X90913857Y-115297857D01*
X90913857Y-115394619D01*
X91833095Y-115346238D02*
X91736333Y-115394619D01*
X91542809Y-115394619D01*
X91446047Y-115346238D01*
X91397666Y-115297857D01*
X91349285Y-115201095D01*
X91349285Y-114910809D01*
X91397666Y-114814047D01*
X91446047Y-114765666D01*
X91542809Y-114717285D01*
X91736333Y-114717285D01*
X91833095Y-114765666D01*
X92413666Y-115394619D02*
X92316904Y-115346238D01*
X92268523Y-115297857D01*
X92220142Y-115201095D01*
X92220142Y-114910809D01*
X92268523Y-114814047D01*
X92316904Y-114765666D01*
X92413666Y-114717285D01*
X92558809Y-114717285D01*
X92655571Y-114765666D01*
X92703952Y-114814047D01*
X92752333Y-114910809D01*
X92752333Y-115201095D01*
X92703952Y-115297857D01*
X92655571Y-115346238D01*
X92558809Y-115394619D01*
X92413666Y-115394619D01*
X93187761Y-115394619D02*
X93187761Y-114717285D01*
X93187761Y-114814047D02*
X93236142Y-114765666D01*
X93332904Y-114717285D01*
X93478047Y-114717285D01*
X93574809Y-114765666D01*
X93623190Y-114862428D01*
X93623190Y-115394619D01*
X93623190Y-114862428D02*
X93671571Y-114765666D01*
X93768333Y-114717285D01*
X93913476Y-114717285D01*
X94010238Y-114765666D01*
X94058619Y-114862428D01*
X94058619Y-115394619D01*
X95268142Y-114330238D02*
X94397285Y-115636523D01*
X95606809Y-114717285D02*
X95606809Y-115588142D01*
X95558428Y-115684904D01*
X95461666Y-115733285D01*
X95413285Y-115733285D01*
X95606809Y-114378619D02*
X95558428Y-114427000D01*
X95606809Y-114475380D01*
X95655190Y-114427000D01*
X95606809Y-114378619D01*
X95606809Y-114475380D01*
X96526047Y-115394619D02*
X96526047Y-114862428D01*
X96477666Y-114765666D01*
X96380904Y-114717285D01*
X96187380Y-114717285D01*
X96090619Y-114765666D01*
X96526047Y-115346238D02*
X96429285Y-115394619D01*
X96187380Y-115394619D01*
X96090619Y-115346238D01*
X96042238Y-115249476D01*
X96042238Y-115152714D01*
X96090619Y-115055952D01*
X96187380Y-115007571D01*
X96429285Y-115007571D01*
X96526047Y-114959190D01*
X97009857Y-114717285D02*
X97009857Y-115394619D01*
X97009857Y-114814047D02*
X97058238Y-114765666D01*
X97155000Y-114717285D01*
X97300142Y-114717285D01*
X97396904Y-114765666D01*
X97445285Y-114862428D01*
X97445285Y-115394619D01*
X98316142Y-115346238D02*
X98219380Y-115394619D01*
X98025857Y-115394619D01*
X97929095Y-115346238D01*
X97880714Y-115249476D01*
X97880714Y-114862428D01*
X97929095Y-114765666D01*
X98025857Y-114717285D01*
X98219380Y-114717285D01*
X98316142Y-114765666D01*
X98364523Y-114862428D01*
X98364523Y-114959190D01*
X97880714Y-115055952D01*
X98945095Y-115394619D02*
X98848333Y-115346238D01*
X98799952Y-115249476D01*
X98799952Y-114378619D01*
X99332142Y-115394619D02*
X99332142Y-114717285D01*
X99332142Y-114378619D02*
X99283761Y-114427000D01*
X99332142Y-114475380D01*
X99380523Y-114427000D01*
X99332142Y-114378619D01*
X99332142Y-114475380D01*
X100251380Y-115394619D02*
X100251380Y-114862428D01*
X100203000Y-114765666D01*
X100106238Y-114717285D01*
X99912714Y-114717285D01*
X99815952Y-114765666D01*
X100251380Y-115346238D02*
X100154619Y-115394619D01*
X99912714Y-115394619D01*
X99815952Y-115346238D01*
X99767571Y-115249476D01*
X99767571Y-115152714D01*
X99815952Y-115055952D01*
X99912714Y-115007571D01*
X100154619Y-115007571D01*
X100251380Y-114959190D01*
X100735190Y-115007571D02*
X101509285Y-115007571D01*
X101993095Y-115394619D02*
X101993095Y-114717285D01*
X101993095Y-114814047D02*
X102041476Y-114765666D01*
X102138238Y-114717285D01*
X102283380Y-114717285D01*
X102380142Y-114765666D01*
X102428523Y-114862428D01*
X102428523Y-115394619D01*
X102428523Y-114862428D02*
X102476904Y-114765666D01*
X102573666Y-114717285D01*
X102718809Y-114717285D01*
X102815571Y-114765666D01*
X102863952Y-114862428D01*
X102863952Y-115394619D01*
X103492904Y-115394619D02*
X103396142Y-115346238D01*
X103347761Y-115297857D01*
X103299380Y-115201095D01*
X103299380Y-114910809D01*
X103347761Y-114814047D01*
X103396142Y-114765666D01*
X103492904Y-114717285D01*
X103638047Y-114717285D01*
X103734809Y-114765666D01*
X103783190Y-114814047D01*
X103831571Y-114910809D01*
X103831571Y-115201095D01*
X103783190Y-115297857D01*
X103734809Y-115346238D01*
X103638047Y-115394619D01*
X103492904Y-115394619D01*
X104702428Y-115394619D02*
X104702428Y-114378619D01*
X104702428Y-115346238D02*
X104605666Y-115394619D01*
X104412142Y-115394619D01*
X104315380Y-115346238D01*
X104267000Y-115297857D01*
X104218619Y-115201095D01*
X104218619Y-114910809D01*
X104267000Y-114814047D01*
X104315380Y-114765666D01*
X104412142Y-114717285D01*
X104605666Y-114717285D01*
X104702428Y-114765666D01*
X105621666Y-114717285D02*
X105621666Y-115394619D01*
X105186238Y-114717285D02*
X105186238Y-115249476D01*
X105234619Y-115346238D01*
X105331380Y-115394619D01*
X105476523Y-115394619D01*
X105573285Y-115346238D01*
X105621666Y-115297857D01*
X106250619Y-115394619D02*
X106153857Y-115346238D01*
X106105476Y-115249476D01*
X106105476Y-114378619D01*
X107073095Y-115394619D02*
X107073095Y-114862428D01*
X107024714Y-114765666D01*
X106927952Y-114717285D01*
X106734428Y-114717285D01*
X106637666Y-114765666D01*
X107073095Y-115346238D02*
X106976333Y-115394619D01*
X106734428Y-115394619D01*
X106637666Y-115346238D01*
X106589285Y-115249476D01*
X106589285Y-115152714D01*
X106637666Y-115055952D01*
X106734428Y-115007571D01*
X106976333Y-115007571D01*
X107073095Y-114959190D01*
X107556904Y-115394619D02*
X107556904Y-114717285D01*
X107556904Y-114910809D02*
X107605285Y-114814047D01*
X107653666Y-114765666D01*
X107750428Y-114717285D01*
X107847190Y-114717285D01*
X108185857Y-115007571D02*
X108959952Y-115007571D01*
X109879190Y-115394619D02*
X109879190Y-114378619D01*
X109879190Y-115346238D02*
X109782428Y-115394619D01*
X109588904Y-115394619D01*
X109492142Y-115346238D01*
X109443761Y-115297857D01*
X109395380Y-115201095D01*
X109395380Y-114910809D01*
X109443761Y-114814047D01*
X109492142Y-114765666D01*
X109588904Y-114717285D01*
X109782428Y-114717285D01*
X109879190Y-114765666D01*
X110750047Y-115346238D02*
X110653285Y-115394619D01*
X110459761Y-115394619D01*
X110363000Y-115346238D01*
X110314619Y-115249476D01*
X110314619Y-114862428D01*
X110363000Y-114765666D01*
X110459761Y-114717285D01*
X110653285Y-114717285D01*
X110750047Y-114765666D01*
X110798428Y-114862428D01*
X110798428Y-114959190D01*
X110314619Y-115055952D01*
X111137095Y-114717285D02*
X111379000Y-115394619D01*
X111620904Y-114717285D01*
X112007952Y-115394619D02*
X112007952Y-114717285D01*
X112007952Y-114378619D02*
X111959571Y-114427000D01*
X112007952Y-114475380D01*
X112056333Y-114427000D01*
X112007952Y-114378619D01*
X112007952Y-114475380D01*
X112927190Y-115346238D02*
X112830428Y-115394619D01*
X112636904Y-115394619D01*
X112540142Y-115346238D01*
X112491761Y-115297857D01*
X112443380Y-115201095D01*
X112443380Y-114910809D01*
X112491761Y-114814047D01*
X112540142Y-114765666D01*
X112636904Y-114717285D01*
X112830428Y-114717285D01*
X112927190Y-114765666D01*
X113749666Y-115346238D02*
X113652904Y-115394619D01*
X113459380Y-115394619D01*
X113362619Y-115346238D01*
X113314238Y-115249476D01*
X113314238Y-114862428D01*
X113362619Y-114765666D01*
X113459380Y-114717285D01*
X113652904Y-114717285D01*
X113749666Y-114765666D01*
X113798047Y-114862428D01*
X113798047Y-114959190D01*
X113314238Y-115055952D01*
X114185095Y-115346238D02*
X114281857Y-115394619D01*
X114475380Y-115394619D01*
X114572142Y-115346238D01*
X114620523Y-115249476D01*
X114620523Y-115201095D01*
X114572142Y-115104333D01*
X114475380Y-115055952D01*
X114330238Y-115055952D01*
X114233476Y-115007571D01*
X114185095Y-114910809D01*
X114185095Y-114862428D01*
X114233476Y-114765666D01*
X114330238Y-114717285D01*
X114475380Y-114717285D01*
X114572142Y-114765666D01*
D13*
X120317380Y-103051428D02*
X122252619Y-103051428D01*
X94917380Y-103051428D02*
X96852619Y-103051428D01*
X94917380Y-89716428D02*
X96852619Y-89716428D01*
X95885000Y-90684047D02*
X95885000Y-88748809D01*
X120317380Y-89716428D02*
X122252619Y-89716428D01*
X121285000Y-90684047D02*
X121285000Y-88748809D01*
D14*
X86716809Y-91899619D02*
X86233000Y-91899619D01*
X86233000Y-90883619D01*
X87055476Y-91899619D02*
X87055476Y-91222285D01*
X87055476Y-90883619D02*
X87007095Y-90932000D01*
X87055476Y-90980380D01*
X87103857Y-90932000D01*
X87055476Y-90883619D01*
X87055476Y-90980380D01*
X87974714Y-91222285D02*
X87974714Y-92044761D01*
X87926333Y-92141523D01*
X87877952Y-92189904D01*
X87781190Y-92238285D01*
X87636047Y-92238285D01*
X87539285Y-92189904D01*
X87974714Y-91851238D02*
X87877952Y-91899619D01*
X87684428Y-91899619D01*
X87587666Y-91851238D01*
X87539285Y-91802857D01*
X87490904Y-91706095D01*
X87490904Y-91415809D01*
X87539285Y-91319047D01*
X87587666Y-91270666D01*
X87684428Y-91222285D01*
X87877952Y-91222285D01*
X87974714Y-91270666D01*
X88458523Y-91899619D02*
X88458523Y-90883619D01*
X88893952Y-91899619D02*
X88893952Y-91367428D01*
X88845571Y-91270666D01*
X88748809Y-91222285D01*
X88603666Y-91222285D01*
X88506904Y-91270666D01*
X88458523Y-91319047D01*
X89232619Y-91222285D02*
X89619666Y-91222285D01*
X89377761Y-90883619D02*
X89377761Y-91754476D01*
X89426142Y-91851238D01*
X89522904Y-91899619D01*
X89619666Y-91899619D01*
X89909952Y-91851238D02*
X90006714Y-91899619D01*
X90200238Y-91899619D01*
X90297000Y-91851238D01*
X90345380Y-91754476D01*
X90345380Y-91706095D01*
X90297000Y-91609333D01*
X90200238Y-91560952D01*
X90055095Y-91560952D01*
X89958333Y-91512571D01*
X89909952Y-91415809D01*
X89909952Y-91367428D01*
X89958333Y-91270666D01*
X90055095Y-91222285D01*
X90200238Y-91222285D01*
X90297000Y-91270666D01*
D11*
X98860428Y-89704635D02*
X98860428Y-88688635D01*
X100384428Y-89341778D01*
X101400428Y-88906350D02*
X101400428Y-89196635D01*
X101473000Y-89341778D01*
X101545571Y-89414350D01*
X101763285Y-89559492D01*
X102053571Y-89632064D01*
X102634142Y-89632064D01*
X102779285Y-89559492D01*
X102851857Y-89486921D01*
X102924428Y-89341778D01*
X102924428Y-89051492D01*
X102851857Y-88906350D01*
X102779285Y-88833778D01*
X102634142Y-88761207D01*
X102271285Y-88761207D01*
X102126142Y-88833778D01*
X102053571Y-88906350D01*
X101981000Y-89051492D01*
X101981000Y-89341778D01*
X102053571Y-89486921D01*
X102126142Y-89559492D01*
X102271285Y-89632064D01*
X103940428Y-88833778D02*
X103940428Y-89559492D01*
X104666142Y-89632064D01*
X104593571Y-89559492D01*
X104521000Y-89414350D01*
X104521000Y-89051492D01*
X104593571Y-88906350D01*
X104666142Y-88833778D01*
X104811285Y-88761207D01*
X105174142Y-88761207D01*
X105319285Y-88833778D01*
X105391857Y-88906350D01*
X105464428Y-89051492D01*
X105464428Y-89414350D01*
X105391857Y-89559492D01*
X105319285Y-89632064D01*
X106988428Y-88906350D02*
X108004428Y-88906350D01*
X106407857Y-89269207D02*
X107496428Y-89632064D01*
X107496428Y-88688635D01*
X109020428Y-89704635D02*
X109020428Y-88761207D01*
X109601000Y-89269207D01*
X109601000Y-89051492D01*
X109673571Y-88906350D01*
X109746142Y-88833778D01*
X109891285Y-88761207D01*
X110254142Y-88761207D01*
X110399285Y-88833778D01*
X110471857Y-88906350D01*
X110544428Y-89051492D01*
X110544428Y-89486921D01*
X110471857Y-89632064D01*
X110399285Y-89704635D01*
X111705571Y-89632064D02*
X111633000Y-89559492D01*
X111560428Y-89414350D01*
X111560428Y-89051492D01*
X111633000Y-88906350D01*
X111705571Y-88833778D01*
X111850714Y-88761207D01*
X111995857Y-88761207D01*
X112213571Y-88833778D01*
X113084428Y-89704635D01*
X113084428Y-88761207D01*
X115624428Y-88761207D02*
X115624428Y-89632064D01*
X115624428Y-89196635D02*
X114100428Y-89196635D01*
X114318142Y-89341778D01*
X114463285Y-89486921D01*
X114535857Y-89632064D01*
X116640428Y-89269207D02*
X116640428Y-89124064D01*
X116713000Y-88978921D01*
X116785571Y-88906350D01*
X116930714Y-88833778D01*
X117221000Y-88761207D01*
X117583857Y-88761207D01*
X117874142Y-88833778D01*
X118019285Y-88906350D01*
X118091857Y-88978921D01*
X118164428Y-89124064D01*
X118164428Y-89269207D01*
X118091857Y-89414350D01*
X118019285Y-89486921D01*
X117874142Y-89559492D01*
X117583857Y-89632064D01*
X117221000Y-89632064D01*
X116930714Y-89559492D01*
X116785571Y-89486921D01*
X116713000Y-89414350D01*
X116640428Y-89269207D01*
D14*
X74246619Y-108089095D02*
X74972333Y-108089095D01*
X75117476Y-108137476D01*
X75214238Y-108234238D01*
X75262619Y-108379380D01*
X75262619Y-108476142D01*
X75262619Y-107169857D02*
X74730428Y-107169857D01*
X74633666Y-107218238D01*
X74585285Y-107315000D01*
X74585285Y-107508523D01*
X74633666Y-107605285D01*
X75214238Y-107169857D02*
X75262619Y-107266619D01*
X75262619Y-107508523D01*
X75214238Y-107605285D01*
X75117476Y-107653666D01*
X75020714Y-107653666D01*
X74923952Y-107605285D01*
X74875571Y-107508523D01*
X74875571Y-107266619D01*
X74827190Y-107169857D01*
X74585285Y-106686047D02*
X75262619Y-106686047D01*
X74682047Y-106686047D02*
X74633666Y-106637666D01*
X74585285Y-106540904D01*
X74585285Y-106395761D01*
X74633666Y-106299000D01*
X74730428Y-106250619D01*
X75262619Y-106250619D01*
X75214238Y-105379761D02*
X75262619Y-105476523D01*
X75262619Y-105670047D01*
X75214238Y-105766809D01*
X75117476Y-105815190D01*
X74730428Y-105815190D01*
X74633666Y-105766809D01*
X74585285Y-105670047D01*
X74585285Y-105476523D01*
X74633666Y-105379761D01*
X74730428Y-105331380D01*
X74827190Y-105331380D01*
X74923952Y-105815190D01*
X75262619Y-104750809D02*
X75214238Y-104847571D01*
X75117476Y-104895952D01*
X74246619Y-104895952D01*
X75262619Y-104363761D02*
X74585285Y-104363761D01*
X74246619Y-104363761D02*
X74295000Y-104412142D01*
X74343380Y-104363761D01*
X74295000Y-104315380D01*
X74246619Y-104363761D01*
X74343380Y-104363761D01*
X75262619Y-103444523D02*
X74730428Y-103444523D01*
X74633666Y-103492904D01*
X74585285Y-103589666D01*
X74585285Y-103783190D01*
X74633666Y-103879952D01*
X75214238Y-103444523D02*
X75262619Y-103541285D01*
X75262619Y-103783190D01*
X75214238Y-103879952D01*
X75117476Y-103928333D01*
X75020714Y-103928333D01*
X74923952Y-103879952D01*
X74875571Y-103783190D01*
X74875571Y-103541285D01*
X74827190Y-103444523D01*
X75262619Y-102186619D02*
X74246619Y-102186619D01*
X74972333Y-101847952D01*
X74246619Y-101509285D01*
X75262619Y-101509285D01*
X75262619Y-100880333D02*
X75214238Y-100977095D01*
X75165857Y-101025476D01*
X75069095Y-101073857D01*
X74778809Y-101073857D01*
X74682047Y-101025476D01*
X74633666Y-100977095D01*
X74585285Y-100880333D01*
X74585285Y-100735190D01*
X74633666Y-100638428D01*
X74682047Y-100590047D01*
X74778809Y-100541666D01*
X75069095Y-100541666D01*
X75165857Y-100590047D01*
X75214238Y-100638428D01*
X75262619Y-100735190D01*
X75262619Y-100880333D01*
X75262619Y-99670809D02*
X74246619Y-99670809D01*
X75214238Y-99670809D02*
X75262619Y-99767571D01*
X75262619Y-99961095D01*
X75214238Y-100057857D01*
X75165857Y-100106238D01*
X75069095Y-100154619D01*
X74778809Y-100154619D01*
X74682047Y-100106238D01*
X74633666Y-100057857D01*
X74585285Y-99961095D01*
X74585285Y-99767571D01*
X74633666Y-99670809D01*
X74585285Y-98751571D02*
X75262619Y-98751571D01*
X74585285Y-99187000D02*
X75117476Y-99187000D01*
X75214238Y-99138619D01*
X75262619Y-99041857D01*
X75262619Y-98896714D01*
X75214238Y-98799952D01*
X75165857Y-98751571D01*
X75262619Y-98122619D02*
X75214238Y-98219380D01*
X75117476Y-98267761D01*
X74246619Y-98267761D01*
X75262619Y-97300142D02*
X74730428Y-97300142D01*
X74633666Y-97348523D01*
X74585285Y-97445285D01*
X74585285Y-97638809D01*
X74633666Y-97735571D01*
X75214238Y-97300142D02*
X75262619Y-97396904D01*
X75262619Y-97638809D01*
X75214238Y-97735571D01*
X75117476Y-97783952D01*
X75020714Y-97783952D01*
X74923952Y-97735571D01*
X74875571Y-97638809D01*
X74875571Y-97396904D01*
X74827190Y-97300142D01*
X75262619Y-96816333D02*
X74585285Y-96816333D01*
X74778809Y-96816333D02*
X74682047Y-96767952D01*
X74633666Y-96719571D01*
X74585285Y-96622809D01*
X74585285Y-96526047D01*
X75262619Y-95413285D02*
X74246619Y-95413285D01*
X74246619Y-95171380D01*
X74295000Y-95026238D01*
X74391761Y-94929476D01*
X74488523Y-94881095D01*
X74682047Y-94832714D01*
X74827190Y-94832714D01*
X75020714Y-94881095D01*
X75117476Y-94929476D01*
X75214238Y-95026238D01*
X75262619Y-95171380D01*
X75262619Y-95413285D01*
X75214238Y-94010238D02*
X75262619Y-94107000D01*
X75262619Y-94300523D01*
X75214238Y-94397285D01*
X75117476Y-94445666D01*
X74730428Y-94445666D01*
X74633666Y-94397285D01*
X74585285Y-94300523D01*
X74585285Y-94107000D01*
X74633666Y-94010238D01*
X74730428Y-93961857D01*
X74827190Y-93961857D01*
X74923952Y-94445666D01*
X74585285Y-93623190D02*
X75262619Y-93381285D01*
X74585285Y-93139380D01*
X75262619Y-92752333D02*
X74585285Y-92752333D01*
X74246619Y-92752333D02*
X74295000Y-92800714D01*
X74343380Y-92752333D01*
X74295000Y-92703952D01*
X74246619Y-92752333D01*
X74343380Y-92752333D01*
X75214238Y-91833095D02*
X75262619Y-91929857D01*
X75262619Y-92123380D01*
X75214238Y-92220142D01*
X75165857Y-92268523D01*
X75069095Y-92316904D01*
X74778809Y-92316904D01*
X74682047Y-92268523D01*
X74633666Y-92220142D01*
X74585285Y-92123380D01*
X74585285Y-91929857D01*
X74633666Y-91833095D01*
X75214238Y-91010619D02*
X75262619Y-91107380D01*
X75262619Y-91300904D01*
X75214238Y-91397666D01*
X75117476Y-91446047D01*
X74730428Y-91446047D01*
X74633666Y-91397666D01*
X74585285Y-91300904D01*
X74585285Y-91107380D01*
X74633666Y-91010619D01*
X74730428Y-90962238D01*
X74827190Y-90962238D01*
X74923952Y-91446047D01*
X76363285Y-108500333D02*
X77379285Y-108500333D01*
X76411666Y-108500333D02*
X76363285Y-108403571D01*
X76363285Y-108210047D01*
X76411666Y-108113285D01*
X76460047Y-108064904D01*
X76556809Y-108016523D01*
X76847095Y-108016523D01*
X76943857Y-108064904D01*
X76992238Y-108113285D01*
X77040619Y-108210047D01*
X77040619Y-108403571D01*
X76992238Y-108500333D01*
X77040619Y-107435952D02*
X76992238Y-107532714D01*
X76943857Y-107581095D01*
X76847095Y-107629476D01*
X76556809Y-107629476D01*
X76460047Y-107581095D01*
X76411666Y-107532714D01*
X76363285Y-107435952D01*
X76363285Y-107290809D01*
X76411666Y-107194047D01*
X76460047Y-107145666D01*
X76556809Y-107097285D01*
X76847095Y-107097285D01*
X76943857Y-107145666D01*
X76992238Y-107194047D01*
X77040619Y-107290809D01*
X77040619Y-107435952D01*
X76363285Y-106758619D02*
X77040619Y-106565095D01*
X76556809Y-106371571D01*
X77040619Y-106178047D01*
X76363285Y-105984523D01*
X76992238Y-105210428D02*
X77040619Y-105307190D01*
X77040619Y-105500714D01*
X76992238Y-105597476D01*
X76895476Y-105645857D01*
X76508428Y-105645857D01*
X76411666Y-105597476D01*
X76363285Y-105500714D01*
X76363285Y-105307190D01*
X76411666Y-105210428D01*
X76508428Y-105162047D01*
X76605190Y-105162047D01*
X76701952Y-105645857D01*
X77040619Y-104726619D02*
X76363285Y-104726619D01*
X76556809Y-104726619D02*
X76460047Y-104678238D01*
X76411666Y-104629857D01*
X76363285Y-104533095D01*
X76363285Y-104436333D01*
X77137380Y-104339571D02*
X77137380Y-103565476D01*
X76992238Y-103371952D02*
X77040619Y-103275190D01*
X77040619Y-103081666D01*
X76992238Y-102984904D01*
X76895476Y-102936523D01*
X76847095Y-102936523D01*
X76750333Y-102984904D01*
X76701952Y-103081666D01*
X76701952Y-103226809D01*
X76653571Y-103323571D01*
X76556809Y-103371952D01*
X76508428Y-103371952D01*
X76411666Y-103323571D01*
X76363285Y-103226809D01*
X76363285Y-103081666D01*
X76411666Y-102984904D01*
X76363285Y-102597857D02*
X77040619Y-102404333D01*
X76556809Y-102210809D01*
X77040619Y-102017285D01*
X76363285Y-101823761D01*
X77040619Y-101436714D02*
X76363285Y-101436714D01*
X76024619Y-101436714D02*
X76073000Y-101485095D01*
X76121380Y-101436714D01*
X76073000Y-101388333D01*
X76024619Y-101436714D01*
X76121380Y-101436714D01*
X76363285Y-101098047D02*
X76363285Y-100711000D01*
X76024619Y-100952904D02*
X76895476Y-100952904D01*
X76992238Y-100904523D01*
X77040619Y-100807761D01*
X77040619Y-100711000D01*
X76992238Y-99936904D02*
X77040619Y-100033666D01*
X77040619Y-100227190D01*
X76992238Y-100323952D01*
X76943857Y-100372333D01*
X76847095Y-100420714D01*
X76556809Y-100420714D01*
X76460047Y-100372333D01*
X76411666Y-100323952D01*
X76363285Y-100227190D01*
X76363285Y-100033666D01*
X76411666Y-99936904D01*
X77040619Y-99501476D02*
X76024619Y-99501476D01*
X77040619Y-99066047D02*
X76508428Y-99066047D01*
X76411666Y-99114428D01*
X76363285Y-99211190D01*
X76363285Y-99356333D01*
X76411666Y-99453095D01*
X76460047Y-99501476D01*
X77137380Y-98824142D02*
X77137380Y-98050047D01*
X76992238Y-97372714D02*
X77040619Y-97469476D01*
X77040619Y-97663000D01*
X76992238Y-97759761D01*
X76943857Y-97808142D01*
X76847095Y-97856523D01*
X76556809Y-97856523D01*
X76460047Y-97808142D01*
X76411666Y-97759761D01*
X76363285Y-97663000D01*
X76363285Y-97469476D01*
X76411666Y-97372714D01*
X77040619Y-96792142D02*
X76992238Y-96888904D01*
X76943857Y-96937285D01*
X76847095Y-96985666D01*
X76556809Y-96985666D01*
X76460047Y-96937285D01*
X76411666Y-96888904D01*
X76363285Y-96792142D01*
X76363285Y-96647000D01*
X76411666Y-96550238D01*
X76460047Y-96501857D01*
X76556809Y-96453476D01*
X76847095Y-96453476D01*
X76943857Y-96501857D01*
X76992238Y-96550238D01*
X77040619Y-96647000D01*
X77040619Y-96792142D01*
X76363285Y-96018047D02*
X77040619Y-96018047D01*
X76460047Y-96018047D02*
X76411666Y-95969666D01*
X76363285Y-95872904D01*
X76363285Y-95727761D01*
X76411666Y-95631000D01*
X76508428Y-95582619D01*
X77040619Y-95582619D01*
X76363285Y-95243952D02*
X76363285Y-94856904D01*
X76024619Y-95098809D02*
X76895476Y-95098809D01*
X76992238Y-95050428D01*
X77040619Y-94953666D01*
X77040619Y-94856904D01*
X77040619Y-94518238D02*
X76363285Y-94518238D01*
X76556809Y-94518238D02*
X76460047Y-94469857D01*
X76411666Y-94421476D01*
X76363285Y-94324714D01*
X76363285Y-94227952D01*
X77040619Y-93744142D02*
X76992238Y-93840904D01*
X76943857Y-93889285D01*
X76847095Y-93937666D01*
X76556809Y-93937666D01*
X76460047Y-93889285D01*
X76411666Y-93840904D01*
X76363285Y-93744142D01*
X76363285Y-93599000D01*
X76411666Y-93502238D01*
X76460047Y-93453857D01*
X76556809Y-93405476D01*
X76847095Y-93405476D01*
X76943857Y-93453857D01*
X76992238Y-93502238D01*
X77040619Y-93599000D01*
X77040619Y-93744142D01*
X77040619Y-92824904D02*
X76992238Y-92921666D01*
X76895476Y-92970047D01*
X76024619Y-92970047D01*
X77040619Y-92292714D02*
X76992238Y-92389476D01*
X76895476Y-92437857D01*
X76024619Y-92437857D01*
X76992238Y-91518619D02*
X77040619Y-91615380D01*
X77040619Y-91808904D01*
X76992238Y-91905666D01*
X76895476Y-91954047D01*
X76508428Y-91954047D01*
X76411666Y-91905666D01*
X76363285Y-91808904D01*
X76363285Y-91615380D01*
X76411666Y-91518619D01*
X76508428Y-91470238D01*
X76605190Y-91470238D01*
X76701952Y-91954047D01*
X77040619Y-91034809D02*
X76363285Y-91034809D01*
X76556809Y-91034809D02*
X76460047Y-90986428D01*
X76411666Y-90938047D01*
X76363285Y-90841285D01*
X76363285Y-90744523D01*
X78818619Y-107508523D02*
X78141285Y-107508523D01*
X78238047Y-107508523D02*
X78189666Y-107460142D01*
X78141285Y-107363380D01*
X78141285Y-107218238D01*
X78189666Y-107121476D01*
X78286428Y-107073095D01*
X78818619Y-107073095D01*
X78286428Y-107073095D02*
X78189666Y-107024714D01*
X78141285Y-106927952D01*
X78141285Y-106782809D01*
X78189666Y-106686047D01*
X78286428Y-106637666D01*
X78818619Y-106637666D01*
X78818619Y-106008714D02*
X78770238Y-106105476D01*
X78721857Y-106153857D01*
X78625095Y-106202238D01*
X78334809Y-106202238D01*
X78238047Y-106153857D01*
X78189666Y-106105476D01*
X78141285Y-106008714D01*
X78141285Y-105863571D01*
X78189666Y-105766809D01*
X78238047Y-105718428D01*
X78334809Y-105670047D01*
X78625095Y-105670047D01*
X78721857Y-105718428D01*
X78770238Y-105766809D01*
X78818619Y-105863571D01*
X78818619Y-106008714D01*
X78818619Y-104799190D02*
X77802619Y-104799190D01*
X78770238Y-104799190D02*
X78818619Y-104895952D01*
X78818619Y-105089476D01*
X78770238Y-105186238D01*
X78721857Y-105234619D01*
X78625095Y-105283000D01*
X78334809Y-105283000D01*
X78238047Y-105234619D01*
X78189666Y-105186238D01*
X78141285Y-105089476D01*
X78141285Y-104895952D01*
X78189666Y-104799190D01*
X78770238Y-103928333D02*
X78818619Y-104025095D01*
X78818619Y-104218619D01*
X78770238Y-104315380D01*
X78673476Y-104363761D01*
X78286428Y-104363761D01*
X78189666Y-104315380D01*
X78141285Y-104218619D01*
X78141285Y-104025095D01*
X78189666Y-103928333D01*
X78286428Y-103879952D01*
X78383190Y-103879952D01*
X78479952Y-104363761D01*
X78818619Y-103299380D02*
X78770238Y-103396142D01*
X78673476Y-103444523D01*
X77802619Y-103444523D01*
X78915380Y-103154238D02*
X78915380Y-102380142D01*
X78141285Y-102138238D02*
X78818619Y-102138238D01*
X78238047Y-102138238D02*
X78189666Y-102089857D01*
X78141285Y-101993095D01*
X78141285Y-101847952D01*
X78189666Y-101751190D01*
X78286428Y-101702809D01*
X78818619Y-101702809D01*
X78141285Y-100783571D02*
X78818619Y-100783571D01*
X78141285Y-101219000D02*
X78673476Y-101219000D01*
X78770238Y-101170619D01*
X78818619Y-101073857D01*
X78818619Y-100928714D01*
X78770238Y-100831952D01*
X78721857Y-100783571D01*
X78818619Y-100299761D02*
X78141285Y-100299761D01*
X78238047Y-100299761D02*
X78189666Y-100251380D01*
X78141285Y-100154619D01*
X78141285Y-100009476D01*
X78189666Y-99912714D01*
X78286428Y-99864333D01*
X78818619Y-99864333D01*
X78286428Y-99864333D02*
X78189666Y-99815952D01*
X78141285Y-99719190D01*
X78141285Y-99574047D01*
X78189666Y-99477285D01*
X78286428Y-99428904D01*
X78818619Y-99428904D01*
X78818619Y-98945095D02*
X77802619Y-98945095D01*
X78189666Y-98945095D02*
X78141285Y-98848333D01*
X78141285Y-98654809D01*
X78189666Y-98558047D01*
X78238047Y-98509666D01*
X78334809Y-98461285D01*
X78625095Y-98461285D01*
X78721857Y-98509666D01*
X78770238Y-98558047D01*
X78818619Y-98654809D01*
X78818619Y-98848333D01*
X78770238Y-98945095D01*
X78770238Y-97638809D02*
X78818619Y-97735571D01*
X78818619Y-97929095D01*
X78770238Y-98025857D01*
X78673476Y-98074238D01*
X78286428Y-98074238D01*
X78189666Y-98025857D01*
X78141285Y-97929095D01*
X78141285Y-97735571D01*
X78189666Y-97638809D01*
X78286428Y-97590428D01*
X78383190Y-97590428D01*
X78479952Y-98074238D01*
X78818619Y-97155000D02*
X78141285Y-97155000D01*
X78334809Y-97155000D02*
X78238047Y-97106619D01*
X78189666Y-97058238D01*
X78141285Y-96961476D01*
X78141285Y-96864714D01*
X78721857Y-96526047D02*
X78770238Y-96477666D01*
X78818619Y-96526047D01*
X78770238Y-96574428D01*
X78721857Y-96526047D01*
X78818619Y-96526047D01*
X78189666Y-96526047D02*
X78238047Y-96477666D01*
X78286428Y-96526047D01*
X78238047Y-96574428D01*
X78189666Y-96526047D01*
X78286428Y-96526047D01*
X78818619Y-94735952D02*
X78818619Y-95316523D01*
X78818619Y-95026238D02*
X77802619Y-95026238D01*
X77947761Y-95123000D01*
X78044523Y-95219761D01*
X78092904Y-95316523D01*
X78818619Y-93768333D02*
X78818619Y-94348904D01*
X78818619Y-94058619D02*
X77802619Y-94058619D01*
X77947761Y-94155380D01*
X78044523Y-94252142D01*
X78092904Y-94348904D01*
X78818619Y-92800714D02*
X78818619Y-93381285D01*
X78818619Y-93091000D02*
X77802619Y-93091000D01*
X77947761Y-93187761D01*
X78044523Y-93284523D01*
X78092904Y-93381285D01*
X78818619Y-91833095D02*
X78818619Y-92413666D01*
X78818619Y-92123380D02*
X77802619Y-92123380D01*
X77947761Y-92220142D01*
X78044523Y-92316904D01*
X78092904Y-92413666D01*
X79580619Y-108621285D02*
X79580619Y-108524523D01*
X79629000Y-108427761D01*
X79677380Y-108379380D01*
X79774142Y-108331000D01*
X79967666Y-108282619D01*
X80209571Y-108282619D01*
X80403095Y-108331000D01*
X80499857Y-108379380D01*
X80548238Y-108427761D01*
X80596619Y-108524523D01*
X80596619Y-108621285D01*
X80548238Y-108718047D01*
X80499857Y-108766428D01*
X80403095Y-108814809D01*
X80209571Y-108863190D01*
X79967666Y-108863190D01*
X79774142Y-108814809D01*
X79677380Y-108766428D01*
X79629000Y-108718047D01*
X79580619Y-108621285D01*
X80016047Y-107702047D02*
X79967666Y-107798809D01*
X79919285Y-107847190D01*
X79822523Y-107895571D01*
X79774142Y-107895571D01*
X79677380Y-107847190D01*
X79629000Y-107798809D01*
X79580619Y-107702047D01*
X79580619Y-107508523D01*
X79629000Y-107411761D01*
X79677380Y-107363380D01*
X79774142Y-107315000D01*
X79822523Y-107315000D01*
X79919285Y-107363380D01*
X79967666Y-107411761D01*
X80016047Y-107508523D01*
X80016047Y-107702047D01*
X80064428Y-107798809D01*
X80112809Y-107847190D01*
X80209571Y-107895571D01*
X80403095Y-107895571D01*
X80499857Y-107847190D01*
X80548238Y-107798809D01*
X80596619Y-107702047D01*
X80596619Y-107508523D01*
X80548238Y-107411761D01*
X80499857Y-107363380D01*
X80403095Y-107315000D01*
X80209571Y-107315000D01*
X80112809Y-107363380D01*
X80064428Y-107411761D01*
X80016047Y-107508523D01*
X79532238Y-106153857D02*
X80838523Y-107024714D01*
X79677380Y-105863571D02*
X79629000Y-105815190D01*
X79580619Y-105718428D01*
X79580619Y-105476523D01*
X79629000Y-105379761D01*
X79677380Y-105331380D01*
X79774142Y-105283000D01*
X79870904Y-105283000D01*
X80016047Y-105331380D01*
X80596619Y-105911952D01*
X80596619Y-105283000D01*
X79580619Y-104654047D02*
X79580619Y-104557285D01*
X79629000Y-104460523D01*
X79677380Y-104412142D01*
X79774142Y-104363761D01*
X79967666Y-104315380D01*
X80209571Y-104315380D01*
X80403095Y-104363761D01*
X80499857Y-104412142D01*
X80548238Y-104460523D01*
X80596619Y-104557285D01*
X80596619Y-104654047D01*
X80548238Y-104750809D01*
X80499857Y-104799190D01*
X80403095Y-104847571D01*
X80209571Y-104895952D01*
X79967666Y-104895952D01*
X79774142Y-104847571D01*
X79677380Y-104799190D01*
X79629000Y-104750809D01*
X79580619Y-104654047D01*
X80596619Y-103347761D02*
X80596619Y-103928333D01*
X80596619Y-103638047D02*
X79580619Y-103638047D01*
X79725761Y-103734809D01*
X79822523Y-103831571D01*
X79870904Y-103928333D01*
X79580619Y-102476904D02*
X79580619Y-102670428D01*
X79629000Y-102767190D01*
X79677380Y-102815571D01*
X79822523Y-102912333D01*
X80016047Y-102960714D01*
X80403095Y-102960714D01*
X80499857Y-102912333D01*
X80548238Y-102863952D01*
X80596619Y-102767190D01*
X80596619Y-102573666D01*
X80548238Y-102476904D01*
X80499857Y-102428523D01*
X80403095Y-102380142D01*
X80161190Y-102380142D01*
X80064428Y-102428523D01*
X80016047Y-102476904D01*
X79967666Y-102573666D01*
X79967666Y-102767190D01*
X80016047Y-102863952D01*
X80064428Y-102912333D01*
X80161190Y-102960714D01*
X79919285Y-101267380D02*
X80596619Y-101025476D01*
X79919285Y-100783571D01*
X80548238Y-100009476D02*
X80596619Y-100106238D01*
X80596619Y-100299761D01*
X80548238Y-100396523D01*
X80451476Y-100444904D01*
X80064428Y-100444904D01*
X79967666Y-100396523D01*
X79919285Y-100299761D01*
X79919285Y-100106238D01*
X79967666Y-100009476D01*
X80064428Y-99961095D01*
X80161190Y-99961095D01*
X80257952Y-100444904D01*
X80596619Y-99525666D02*
X79919285Y-99525666D01*
X80112809Y-99525666D02*
X80016047Y-99477285D01*
X79967666Y-99428904D01*
X79919285Y-99332142D01*
X79919285Y-99235380D01*
X80596619Y-97590428D02*
X80596619Y-98171000D01*
X80596619Y-97880714D02*
X79580619Y-97880714D01*
X79725761Y-97977476D01*
X79822523Y-98074238D01*
X79870904Y-98171000D01*
X80499857Y-97155000D02*
X80548238Y-97106619D01*
X80596619Y-97155000D01*
X80548238Y-97203380D01*
X80499857Y-97155000D01*
X80596619Y-97155000D01*
X80596619Y-96139000D02*
X80596619Y-96719571D01*
X80596619Y-96429285D02*
X79580619Y-96429285D01*
X79725761Y-96526047D01*
X79822523Y-96622809D01*
X79870904Y-96719571D01*
X79919285Y-95074619D02*
X79919285Y-94687571D01*
X79580619Y-94929476D02*
X80451476Y-94929476D01*
X80548238Y-94881095D01*
X80596619Y-94784333D01*
X80596619Y-94687571D01*
X80548238Y-93961857D02*
X80596619Y-94058619D01*
X80596619Y-94252142D01*
X80548238Y-94348904D01*
X80451476Y-94397285D01*
X80064428Y-94397285D01*
X79967666Y-94348904D01*
X79919285Y-94252142D01*
X79919285Y-94058619D01*
X79967666Y-93961857D01*
X80064428Y-93913476D01*
X80161190Y-93913476D01*
X80257952Y-94397285D01*
X80548238Y-93091000D02*
X80596619Y-93187761D01*
X80596619Y-93381285D01*
X80548238Y-93478047D01*
X80451476Y-93526428D01*
X80064428Y-93526428D01*
X79967666Y-93478047D01*
X79919285Y-93381285D01*
X79919285Y-93187761D01*
X79967666Y-93091000D01*
X80064428Y-93042619D01*
X80161190Y-93042619D01*
X80257952Y-93526428D01*
X79919285Y-92607190D02*
X80596619Y-92607190D01*
X80016047Y-92607190D02*
X79967666Y-92558809D01*
X79919285Y-92462047D01*
X79919285Y-92316904D01*
X79967666Y-92220142D01*
X80064428Y-92171761D01*
X80596619Y-92171761D01*
X80548238Y-91736333D02*
X80596619Y-91639571D01*
X80596619Y-91446047D01*
X80548238Y-91349285D01*
X80451476Y-91300904D01*
X80403095Y-91300904D01*
X80306333Y-91349285D01*
X80257952Y-91446047D01*
X80257952Y-91591190D01*
X80209571Y-91687952D01*
X80112809Y-91736333D01*
X80064428Y-91736333D01*
X79967666Y-91687952D01*
X79919285Y-91591190D01*
X79919285Y-91446047D01*
X79967666Y-91349285D01*
X79919285Y-90962238D02*
X80596619Y-90720333D01*
X79919285Y-90478428D02*
X80596619Y-90720333D01*
X80838523Y-90817095D01*
X80886904Y-90865476D01*
X80935285Y-90962238D01*
D12*
X84963000Y-100203000D02*
X83947000Y-100203000D01*
X84455000Y-99695000D02*
X84455000Y-100711000D01*
X85725000Y-103505000D02*
X83185000Y-103505000D01*
X83185000Y-103505000D02*
X83185000Y-95885000D01*
X83185000Y-95885000D02*
X85725000Y-95885000D01*
X85725000Y-95885000D02*
X85725000Y-103505000D01*
X117983000Y-106553000D02*
X116967000Y-106553000D01*
X117475000Y-106045000D02*
X117475000Y-107061000D01*
X118745000Y-109855000D02*
X116205000Y-109855000D01*
X116205000Y-109855000D02*
X116205000Y-102235000D01*
X116205000Y-102235000D02*
X118745000Y-102235000D01*
X118745000Y-102235000D02*
X118745000Y-109855000D01*
X115443000Y-106553000D02*
X114427000Y-106553000D01*
X114935000Y-106045000D02*
X114935000Y-107061000D01*
X116205000Y-109855000D02*
X113665000Y-109855000D01*
X113665000Y-109855000D02*
X113665000Y-102235000D01*
X113665000Y-102235000D02*
X116205000Y-102235000D01*
X116205000Y-102235000D02*
X116205000Y-109855000D01*
X112903000Y-106553000D02*
X111887000Y-106553000D01*
X112395000Y-106045000D02*
X112395000Y-107061000D01*
X113665000Y-109855000D02*
X111125000Y-109855000D01*
X111125000Y-109855000D02*
X111125000Y-102235000D01*
X111125000Y-102235000D02*
X113665000Y-102235000D01*
X113665000Y-102235000D02*
X113665000Y-109855000D01*
X110363000Y-106553000D02*
X109347000Y-106553000D01*
X109855000Y-106045000D02*
X109855000Y-107061000D01*
X111125000Y-109855000D02*
X108585000Y-109855000D01*
X108585000Y-109855000D02*
X108585000Y-102235000D01*
X108585000Y-102235000D02*
X111125000Y-102235000D01*
X111125000Y-102235000D02*
X111125000Y-109855000D01*
X107823000Y-106553000D02*
X106807000Y-106553000D01*
X107315000Y-106045000D02*
X107315000Y-107061000D01*
X108585000Y-109855000D02*
X106045000Y-109855000D01*
X106045000Y-109855000D02*
X106045000Y-102235000D01*
X106045000Y-102235000D02*
X108585000Y-102235000D01*
X108585000Y-102235000D02*
X108585000Y-109855000D01*
X105283000Y-106553000D02*
X104267000Y-106553000D01*
X104775000Y-106045000D02*
X104775000Y-107061000D01*
X106045000Y-109855000D02*
X103505000Y-109855000D01*
X103505000Y-109855000D02*
X103505000Y-102235000D01*
X103505000Y-102235000D02*
X106045000Y-102235000D01*
X106045000Y-102235000D02*
X106045000Y-109855000D01*
X102743000Y-106553000D02*
X101727000Y-106553000D01*
X102235000Y-106045000D02*
X102235000Y-107061000D01*
X103505000Y-109855000D02*
X100965000Y-109855000D01*
X100965000Y-109855000D02*
X100965000Y-102235000D01*
X100965000Y-102235000D02*
X103505000Y-102235000D01*
X103505000Y-102235000D02*
X103505000Y-109855000D01*
X100203000Y-106553000D02*
X99187000Y-106553000D01*
X99695000Y-106045000D02*
X99695000Y-107061000D01*
X100965000Y-109855000D02*
X98425000Y-109855000D01*
X98425000Y-109855000D02*
X98425000Y-102235000D01*
X98425000Y-102235000D02*
X100965000Y-102235000D01*
X100965000Y-102235000D02*
X100965000Y-109855000D01*
D11*
X122555000Y-91948000D02*
X94615000Y-91948000D01*
X94615000Y-91948000D02*
X94615000Y-101092000D01*
X94615000Y-101092000D02*
X122555000Y-101092000D01*
X122555000Y-91948000D02*
X122555000Y-101092000D01*
X117475000Y-91948000D02*
X118745000Y-90678000D01*
X118745000Y-90678000D02*
X116205000Y-90678000D01*
X116205000Y-90678000D02*
X117475000Y-91948000D01*
X85725000Y-94615000D02*
X90805000Y-94615000D01*
X90805000Y-94615000D02*
X90805000Y-104775000D01*
X90805000Y-104775000D02*
X85725000Y-104775000D01*
X85725000Y-104775000D02*
X85725000Y-94615000D01*
D12*
X80010000Y-86995000D02*
G75*
G03X80010000Y-86995000I-2540000J0D01*
G01*
X80010000Y-112395000D02*
G75*
G03X80010000Y-112395000I-2540000J0D01*
G01*
X120650000Y-117475000D02*
G75*
G03X120650000Y-117475000I-2540000J0D01*
G01*
X120650000Y-81915000D02*
G75*
G03X120650000Y-81915000I-2540000J0D01*
G01*
D14*
X84914619Y-104944333D02*
X84914619Y-105428142D01*
X83898619Y-105428142D01*
X84914619Y-104073476D02*
X84914619Y-104654047D01*
X84914619Y-104363761D02*
X83898619Y-104363761D01*
X84043761Y-104460523D01*
X84140523Y-104557285D01*
X84188904Y-104654047D01*
X120474619Y-106214333D02*
X120474619Y-106698142D01*
X119458619Y-106698142D01*
X119555380Y-105924047D02*
X119507000Y-105875666D01*
X119458619Y-105778904D01*
X119458619Y-105537000D01*
X119507000Y-105440238D01*
X119555380Y-105391857D01*
X119652142Y-105343476D01*
X119748904Y-105343476D01*
X119894047Y-105391857D01*
X120474619Y-105972428D01*
X120474619Y-105343476D01*
X97614619Y-106214333D02*
X97614619Y-106698142D01*
X96598619Y-106698142D01*
X97614619Y-105827285D02*
X97614619Y-105633761D01*
X97566238Y-105537000D01*
X97517857Y-105488619D01*
X97372714Y-105391857D01*
X97179190Y-105343476D01*
X96792142Y-105343476D01*
X96695380Y-105391857D01*
X96647000Y-105440238D01*
X96598619Y-105537000D01*
X96598619Y-105730523D01*
X96647000Y-105827285D01*
X96695380Y-105875666D01*
X96792142Y-105924047D01*
X97034047Y-105924047D01*
X97130809Y-105875666D01*
X97179190Y-105827285D01*
X97227571Y-105730523D01*
X97227571Y-105537000D01*
X97179190Y-105440238D01*
X97130809Y-105391857D01*
X97034047Y-105343476D01*
X124284619Y-101079904D02*
X123268619Y-101079904D01*
X123268619Y-100692857D01*
X123317000Y-100596095D01*
X123365380Y-100547714D01*
X123462142Y-100499333D01*
X123607285Y-100499333D01*
X123704047Y-100547714D01*
X123752428Y-100596095D01*
X123800809Y-100692857D01*
X123800809Y-101079904D01*
X124284619Y-99531714D02*
X124284619Y-100112285D01*
X124284619Y-99822000D02*
X123268619Y-99822000D01*
X123413761Y-99918761D01*
X123510523Y-100015523D01*
X123558904Y-100112285D01*
X92486238Y-101049666D02*
X92534619Y-100904523D01*
X92534619Y-100662619D01*
X92486238Y-100565857D01*
X92437857Y-100517476D01*
X92341095Y-100469095D01*
X92244333Y-100469095D01*
X92147571Y-100517476D01*
X92099190Y-100565857D01*
X92050809Y-100662619D01*
X92002428Y-100856142D01*
X91954047Y-100952904D01*
X91905666Y-101001285D01*
X91808904Y-101049666D01*
X91712142Y-101049666D01*
X91615380Y-101001285D01*
X91567000Y-100952904D01*
X91518619Y-100856142D01*
X91518619Y-100614238D01*
X91567000Y-100469095D01*
X91518619Y-100130428D02*
X92534619Y-99888523D01*
X91808904Y-99695000D01*
X92534619Y-99501476D01*
X91518619Y-99259571D01*
X92534619Y-98340333D02*
X92534619Y-98920904D01*
X92534619Y-98630619D02*
X91518619Y-98630619D01*
X91663761Y-98727380D01*
X91760523Y-98824142D01*
X91808904Y-98920904D01*
X87297380Y-105234619D02*
X87490904Y-105234619D01*
X87587666Y-105283000D01*
X87684428Y-105379761D01*
X87732809Y-105573285D01*
X87732809Y-105911952D01*
X87684428Y-106105476D01*
X87587666Y-106202238D01*
X87490904Y-106250619D01*
X87297380Y-106250619D01*
X87200619Y-106202238D01*
X87103857Y-106105476D01*
X87055476Y-105911952D01*
X87055476Y-105573285D01*
X87103857Y-105379761D01*
X87200619Y-105283000D01*
X87297380Y-105234619D01*
X88506904Y-105718428D02*
X88168238Y-105718428D01*
X88168238Y-106250619D02*
X88168238Y-105234619D01*
X88652047Y-105234619D01*
X89377761Y-105718428D02*
X89039095Y-105718428D01*
X89039095Y-106250619D02*
X89039095Y-105234619D01*
X89522904Y-105234619D01*
X87636047Y-93169619D02*
X87829571Y-93169619D01*
X87926333Y-93218000D01*
X88023095Y-93314761D01*
X88071476Y-93508285D01*
X88071476Y-93846952D01*
X88023095Y-94040476D01*
X87926333Y-94137238D01*
X87829571Y-94185619D01*
X87636047Y-94185619D01*
X87539285Y-94137238D01*
X87442523Y-94040476D01*
X87394142Y-93846952D01*
X87394142Y-93508285D01*
X87442523Y-93314761D01*
X87539285Y-93218000D01*
X87636047Y-93169619D01*
X88506904Y-94185619D02*
X88506904Y-93169619D01*
X89087476Y-94185619D01*
X89087476Y-93169619D01*
%LPC*%
D15*
X84455000Y-102235000D03*
X84455000Y-97155000D03*
X117475000Y-108585000D03*
X117475000Y-103505000D03*
X114935000Y-108585000D03*
X114935000Y-103505000D03*
X112395000Y-108585000D03*
X112395000Y-103505000D03*
X109855000Y-108585000D03*
X109855000Y-103505000D03*
X107315000Y-108585000D03*
X107315000Y-103505000D03*
X104775000Y-108585000D03*
X104775000Y-103505000D03*
X102235000Y-108585000D03*
X102235000Y-103505000D03*
X99695000Y-108585000D03*
X99695000Y-103505000D03*
D16*
X117475000Y-93522800D03*
X117475000Y-99517200D03*
X114935000Y-93522800D03*
X114935000Y-99517200D03*
X112395000Y-93522800D03*
X112395000Y-99517200D03*
X109855000Y-93522800D03*
X109855000Y-99517200D03*
X107315000Y-93522800D03*
X107315000Y-99517200D03*
X104775000Y-93522800D03*
X104775000Y-99517200D03*
X102235000Y-93522800D03*
X102235000Y-99517200D03*
X99695000Y-93522800D03*
X99695000Y-99517200D03*
D17*
X87274400Y-97155000D03*
X87274400Y-102235000D03*
D18*
X78740000Y-81915000D03*
X81280000Y-81915000D03*
D19*
X76200000Y-81915000D03*
D18*
X83820000Y-81915000D03*
X86360000Y-81915000D03*
X88900000Y-81915000D03*
X91440000Y-81915000D03*
X93980000Y-81915000D03*
X96520000Y-81915000D03*
X99060000Y-81915000D03*
X101600000Y-81915000D03*
X104140000Y-81915000D03*
X106680000Y-81915000D03*
X109220000Y-81915000D03*
X111760000Y-81915000D03*
X114300000Y-81915000D03*
X114300000Y-117475000D03*
X111760000Y-117475000D03*
X109220000Y-117475000D03*
X106680000Y-117475000D03*
X104140000Y-117475000D03*
X101600000Y-117475000D03*
X99060000Y-117475000D03*
X96520000Y-117475000D03*
X93980000Y-117475000D03*
X91440000Y-117475000D03*
X88900000Y-117475000D03*
X86360000Y-117475000D03*
X83820000Y-117475000D03*
X81280000Y-117475000D03*
X78740000Y-117475000D03*
X76200000Y-117475000D03*
D20*
X77470000Y-86995000D03*
X77470000Y-112395000D03*
X118110000Y-117475000D03*
X118110000Y-81915000D03*
M02*
