M48
;DRILL file {kicad 0.201501192016+5381~20~ubuntu14.04.1-product} date Wed 21 Jan 2015 01:23:24 PM EST
;FORMAT={-:-/ absolute / inch / decimal}
FMAT,2
INCH,TZ
T1C0.025
T2C0.035
T3C0.038
T4C0.039
T5C0.040
T6C0.043
T7C0.063
T8C0.090
T9C0.106
T10C0.124
T11C0.130
%
G90
G05
M72
T1
X4.6892Y-4.7799
X4.7065Y-4.4115
X4.7791Y-3.1877
X4.8Y-4.3527
X4.8523Y-4.074
X4.8535Y-3.5019
X4.8985Y-4.1979
X4.9794Y-3.5
X5.1Y-3.2755
X5.2967Y-3.8974
X5.3007Y-4.4777
X5.301Y-4.7605
X5.4159Y-4.0345
X5.5096Y-4.2114
X5.5515Y-4.466
X5.566Y-3.43
X5.575Y-3.5725
X5.6023Y-3.1975
X5.6605Y-4.816
X5.6886Y-3.5072
X5.7563Y-4.0593
X5.7656Y-4.1325
X5.8154Y-4.9326
X5.8734Y-4.2139
X5.9968Y-4.0817
X6.0017Y-3.9176
X6.0017Y-3.4975
X6.0144Y-4.3951
X6.0991Y-3.4818
X6.1314Y-4.4
X6.2Y-3.4335
X6.3Y-3.298
X6.4Y-3.5777
X6.5023Y-4.3686
X6.561Y-3.5015
X6.612Y-3.2592
X6.6979Y-4.3477
X6.7257Y-4.543
X6.757Y-3.9222
X6.8155Y-4.6868
X6.9016Y-3.377
X6.9609Y-3.651
X6.9955Y-3.404
X6.996Y-4.5332
X7.0031Y-4.8461
X7.0462Y-4.5184
X7.0841Y-4.7269
X7.0945Y-3.9122
X7.1009Y-3.9585
X7.2447Y-4.725
X7.2762Y-3.35
X7.2873Y-4.6097
T2
X4.15Y-4.05
X4.25Y-3.95
X4.25Y-4.05
X4.25Y-4.15
T3
X4.75Y-3.775
X4.75Y-3.975
X4.75Y-4.675
X4.75Y-4.875
X4.85Y-3.775
X4.85Y-3.975
X4.85Y-4.675
X4.85Y-4.875
X4.95Y-3.775
X4.95Y-3.975
X4.95Y-4.675
X4.95Y-4.875
X5.05Y-3.775
X5.05Y-3.975
X5.05Y-4.675
X5.05Y-4.875
X5.15Y-3.775
X5.15Y-3.975
X5.15Y-4.675
X5.15Y-4.875
X5.25Y-3.775
X5.25Y-3.975
X5.25Y-4.675
X5.25Y-4.875
X5.35Y-3.775
X5.35Y-3.975
X5.35Y-4.675
X5.35Y-4.875
X5.45Y-3.775
X5.45Y-3.975
X5.45Y-4.675
X5.45Y-4.875
X5.95Y-3.775
X5.95Y-3.975
X5.95Y-4.675
X5.95Y-4.875
X6.05Y-3.775
X6.05Y-3.975
X6.05Y-4.675
X6.05Y-4.875
X6.15Y-3.775
X6.15Y-3.975
X6.15Y-4.675
X6.15Y-4.875
X6.25Y-3.775
X6.25Y-3.975
X6.25Y-4.675
X6.25Y-4.875
X6.35Y-3.775
X6.35Y-3.975
X6.35Y-4.675
X6.35Y-4.875
X6.45Y-3.775
X6.45Y-3.975
X6.45Y-4.675
X6.45Y-4.875
X6.55Y-3.775
X6.55Y-3.975
X6.55Y-4.675
X6.55Y-4.875
X6.65Y-3.775
X6.65Y-3.975
X6.65Y-4.675
X6.65Y-4.875
X7.375Y-3.95
X7.375Y-4.15
T4
X7.875Y-4.45
X7.875Y-4.55
X7.875Y-4.65
T5
X4.59Y-3.1
X4.69Y-3.1
X4.79Y-3.1
X4.89Y-3.1
X4.95Y-5.
X4.99Y-3.1
X5.05Y-5.
X5.09Y-3.1
X5.15Y-5.
X5.19Y-3.1
X5.25Y-5.
X5.29Y-3.1
X5.35Y-5.
X5.39Y-3.1
X5.45Y-5.
X5.49Y-3.1
X5.55Y-5.
X5.65Y-3.1
X5.65Y-5.
X5.75Y-3.1
X5.85Y-3.1
X5.85Y-5.
X5.95Y-3.1
X5.95Y-5.
X6.05Y-3.1
X6.05Y-5.
X6.15Y-3.1
X6.15Y-5.
X6.25Y-3.1
X6.25Y-5.
X6.35Y-3.1
X6.35Y-5.
X6.45Y-5.
X6.55Y-3.1
X6.55Y-5.
X6.65Y-3.1
X6.75Y-3.1
X6.75Y-5.
X6.85Y-3.1
X6.85Y-5.
X6.95Y-3.1
X6.95Y-5.
X7.05Y-3.1
X7.05Y-5.
X7.15Y-3.1
X7.15Y-5.
X7.25Y-3.1
X7.25Y-5.
X7.35Y-5.
X7.45Y-5.
X7.55Y-3.1
X7.55Y-3.2
X7.55Y-3.3
X7.55Y-3.4
X7.55Y-3.5
X7.55Y-3.6
X7.55Y-3.7
X7.55Y-3.8
X7.55Y-3.9
X7.55Y-4.
X7.55Y-4.1
X7.55Y-4.2
X7.55Y-4.3
X7.55Y-4.4
X7.55Y-4.5
X7.55Y-4.6
X7.55Y-4.7
X7.55Y-4.8
X7.65Y-3.1
X7.65Y-3.2
X7.65Y-3.3
X7.65Y-3.4
X7.65Y-3.5
X7.65Y-3.6
X7.65Y-3.7
X7.65Y-3.8
X7.65Y-3.9
X7.65Y-4.
X7.65Y-4.1
X7.65Y-4.2
X7.65Y-4.3
X7.65Y-4.4
X7.65Y-4.5
X7.65Y-4.6
X7.65Y-4.7
X7.65Y-4.8
T6
X4.Y-4.8
X4.1Y-4.8
X4.2Y-4.8
X7.25Y-3.425
X7.25Y-3.525
T7
X8.207Y-4.05
T8
X3.9Y-3.85
X3.9Y-4.25
X7.15Y-4.05
X7.15Y-4.235
T9
X8.089Y-4.05
X8.128Y-3.873
X8.128Y-4.227
T10
X7.853Y-4.05
T11
X4.4Y-5.
X4.45Y-3.1
X7.4Y-3.1
X7.65Y-5.
T0
M30
