G04 #@! TF.FileFunction,Soldermask,Bot*
%FSLAX46Y46*%
G04 Gerber Fmt 4.6, Leading zero omitted, Abs format (unit mm)*
G04 Created by KiCad (PCBNEW 0.201501052116+5352~20~ubuntu14.04.1-product) date Thu 08 Jan 2015 03:37:31 PM EST*
%MOMM*%
G01*
G04 APERTURE LIST*
%ADD10C,0.100000*%
%ADD11C,0.228600*%
%ADD12R,2.540000X1.270000*%
%ADD13R,1.270000X2.540000*%
%ADD14R,0.762000X1.534160*%
%ADD15O,1.854200X2.540000*%
%ADD16R,1.854200X2.540000*%
%ADD17C,1.930400*%
%ADD18O,4.572000X3.556000*%
%ADD19O,4.064000X5.080000*%
%ADD20O,5.080000X3.556000*%
%ADD21O,2.540000X1.524000*%
%ADD22R,0.381000X1.270000*%
%ADD23C,3.937000*%
%ADD24O,1.524000X2.540000*%
%ADD25O,5.080000X3.048000*%
%ADD26O,2.032000X1.524000*%
%ADD27O,1.524000X2.032000*%
%ADD28R,1.524000X2.032000*%
%ADD29O,3.810000X2.540000*%
G04 APERTURE END LIST*
D10*
D11*
X211455000Y-75565000D02*
X93345000Y-75565000D01*
X211455000Y-130175000D02*
X211455000Y-75565000D01*
X93345000Y-130175000D02*
X211455000Y-130175000D01*
X93345000Y-75565000D02*
X93345000Y-130175000D01*
D12*
X174625000Y-116586000D03*
X174625000Y-119634000D03*
X186690000Y-118364000D03*
X186690000Y-115316000D03*
X117475000Y-91059000D03*
X117475000Y-88011000D03*
X172085000Y-88011000D03*
X172085000Y-91059000D03*
D13*
X183769000Y-122555000D03*
X180721000Y-122555000D03*
X106934000Y-126365000D03*
X103886000Y-126365000D03*
D12*
X205105000Y-118364000D03*
X205105000Y-115316000D03*
D13*
X202946000Y-92710000D03*
X205994000Y-92710000D03*
D14*
X182559960Y-90733880D03*
X181610000Y-90733880D03*
X180660040Y-90733880D03*
X180660040Y-88336120D03*
X181610000Y-88336120D03*
X182559960Y-88336120D03*
D15*
X104140000Y-121920000D03*
X106680000Y-121920000D03*
D16*
X101600000Y-121920000D03*
D17*
X208457800Y-102870000D03*
D18*
X204952600Y-102870000D03*
D19*
X199466200Y-102870000D03*
D20*
X206451200Y-98374200D03*
X206451200Y-107365800D03*
D21*
X200025000Y-115570000D03*
X200025000Y-118110000D03*
X200025000Y-113030000D03*
D22*
X160655000Y-94615000D03*
X161925000Y-94615000D03*
X163195000Y-94615000D03*
X164465000Y-94615000D03*
X165735000Y-94615000D03*
X167005000Y-94615000D03*
X159385000Y-94615000D03*
X158115000Y-94615000D03*
X156845000Y-94615000D03*
X155575000Y-94615000D03*
X154305000Y-94615000D03*
X153035000Y-94615000D03*
X153035000Y-84455000D03*
X154305000Y-84455000D03*
X155575000Y-84455000D03*
X156845000Y-84455000D03*
X158115000Y-84455000D03*
X159385000Y-84455000D03*
X160655000Y-84455000D03*
X161925000Y-84455000D03*
X163195000Y-84455000D03*
X164465000Y-84455000D03*
X165735000Y-84455000D03*
X167005000Y-84455000D03*
X130175000Y-94615000D03*
X131445000Y-94615000D03*
X132715000Y-94615000D03*
X133985000Y-94615000D03*
X135255000Y-94615000D03*
X136525000Y-94615000D03*
X128905000Y-94615000D03*
X127635000Y-94615000D03*
X126365000Y-94615000D03*
X125095000Y-94615000D03*
X123825000Y-94615000D03*
X122555000Y-94615000D03*
X122555000Y-84455000D03*
X123825000Y-84455000D03*
X125095000Y-84455000D03*
X126365000Y-84455000D03*
X127635000Y-84455000D03*
X128905000Y-84455000D03*
X130175000Y-84455000D03*
X131445000Y-84455000D03*
X132715000Y-84455000D03*
X133985000Y-84455000D03*
X135255000Y-84455000D03*
X136525000Y-84455000D03*
D23*
X111760000Y-127000000D03*
X113030000Y-78740000D03*
X194310000Y-127000000D03*
X187960000Y-78740000D03*
D24*
X125730000Y-127000000D03*
X128270000Y-127000000D03*
X130810000Y-127000000D03*
X133350000Y-127000000D03*
X135890000Y-127000000D03*
X138430000Y-127000000D03*
X140970000Y-127000000D03*
X143510000Y-127000000D03*
X148590000Y-127000000D03*
X151130000Y-127000000D03*
X153670000Y-127000000D03*
X156210000Y-127000000D03*
X158750000Y-127000000D03*
X161290000Y-127000000D03*
X163830000Y-127000000D03*
X166370000Y-127000000D03*
X171450000Y-127000000D03*
X173990000Y-127000000D03*
X176530000Y-127000000D03*
X179070000Y-127000000D03*
X181610000Y-127000000D03*
X184150000Y-127000000D03*
X186690000Y-127000000D03*
X189230000Y-127000000D03*
X116586000Y-78740000D03*
X119126000Y-78740000D03*
X121666000Y-78740000D03*
X124206000Y-78740000D03*
X126746000Y-78740000D03*
X129286000Y-78740000D03*
X131826000Y-78740000D03*
X134366000Y-78740000D03*
X136906000Y-78740000D03*
X139446000Y-78740000D03*
X143510000Y-78740000D03*
X161290000Y-78740000D03*
X158750000Y-78740000D03*
X156210000Y-78740000D03*
X153670000Y-78740000D03*
X151130000Y-78740000D03*
X148590000Y-78740000D03*
X146050000Y-78740000D03*
X166370000Y-78740000D03*
X168910000Y-78740000D03*
X171450000Y-78740000D03*
X173990000Y-78740000D03*
X176530000Y-78740000D03*
X179070000Y-78740000D03*
X181610000Y-78740000D03*
X184150000Y-78740000D03*
X191770000Y-78232000D03*
X194310000Y-78232000D03*
D21*
X191262000Y-81280000D03*
X194818000Y-81280000D03*
X191262000Y-83820000D03*
X194818000Y-83820000D03*
X191262000Y-86360000D03*
X194818000Y-86360000D03*
X191262000Y-88900000D03*
X194818000Y-88900000D03*
X191262000Y-91440000D03*
X194818000Y-91440000D03*
X191262000Y-93980000D03*
X194818000Y-93980000D03*
X191262000Y-96520000D03*
X194818000Y-96520000D03*
X191262000Y-99060000D03*
X194818000Y-99060000D03*
X191262000Y-101600000D03*
X194818000Y-101600000D03*
X191262000Y-104140000D03*
X194818000Y-104140000D03*
X191262000Y-106680000D03*
X194818000Y-106680000D03*
X191262000Y-109220000D03*
X194818000Y-109220000D03*
X191262000Y-111760000D03*
X194818000Y-111760000D03*
X191262000Y-114300000D03*
X194818000Y-114300000D03*
X191262000Y-116840000D03*
X194818000Y-116840000D03*
X191262000Y-119380000D03*
X194818000Y-119380000D03*
X191262000Y-121920000D03*
X194818000Y-121920000D03*
D12*
X186690000Y-112014000D03*
X186690000Y-108966000D03*
D25*
X99060000Y-107950000D03*
X99060000Y-97790000D03*
D26*
X105156000Y-102870000D03*
D27*
X107950000Y-102870000D03*
X107950000Y-100076000D03*
X107950000Y-105664000D03*
X187325000Y-105410000D03*
X187325000Y-100330000D03*
X168910000Y-117475000D03*
X168910000Y-112395000D03*
X166370000Y-117475000D03*
X166370000Y-112395000D03*
X163830000Y-117475000D03*
X163830000Y-112395000D03*
X161290000Y-117475000D03*
X161290000Y-112395000D03*
X158750000Y-117475000D03*
X158750000Y-112395000D03*
X156210000Y-117475000D03*
X156210000Y-112395000D03*
X153670000Y-117475000D03*
X153670000Y-112395000D03*
X151130000Y-117475000D03*
X151130000Y-112395000D03*
X138430000Y-117475000D03*
X138430000Y-112395000D03*
X135890000Y-117475000D03*
X135890000Y-112395000D03*
X133350000Y-117475000D03*
X133350000Y-112395000D03*
X130810000Y-117475000D03*
X130810000Y-112395000D03*
X128270000Y-117475000D03*
X128270000Y-112395000D03*
X125730000Y-117475000D03*
X125730000Y-112395000D03*
X123190000Y-117475000D03*
X123190000Y-112395000D03*
X120650000Y-117475000D03*
X120650000Y-112395000D03*
D28*
X168910000Y-101346000D03*
D27*
X168910000Y-104394000D03*
X166370000Y-101346000D03*
X166370000Y-104394000D03*
X163830000Y-101346000D03*
X163830000Y-104394000D03*
X161290000Y-101346000D03*
X161290000Y-104394000D03*
X158750000Y-101346000D03*
X158750000Y-104394000D03*
X156210000Y-101346000D03*
X156210000Y-104394000D03*
X153670000Y-101346000D03*
X153670000Y-104394000D03*
X151130000Y-101346000D03*
X151130000Y-104394000D03*
D28*
X138430000Y-101346000D03*
D27*
X138430000Y-104394000D03*
X135890000Y-101346000D03*
X135890000Y-104394000D03*
X133350000Y-101346000D03*
X133350000Y-104394000D03*
X130810000Y-101346000D03*
X130810000Y-104394000D03*
X128270000Y-101346000D03*
X128270000Y-104394000D03*
X125730000Y-101346000D03*
X125730000Y-104394000D03*
X123190000Y-101346000D03*
X123190000Y-104394000D03*
X120650000Y-101346000D03*
X120650000Y-104394000D03*
D29*
X181610000Y-102870000D03*
X181610000Y-107569000D03*
M02*
