G04 #@! TF.FileFunction,Copper,L1,Top,Signal*
%FSLAX46Y46*%
G04 Gerber Fmt 4.6, Leading zero omitted, Abs format (unit mm)*
G04 Created by KiCad (PCBNEW 0.201501052116+5352~20~ubuntu14.04.1-product) date Thu 08 Jan 2015 03:37:31 PM EST*
%MOMM*%
G01*
G04 APERTURE LIST*
%ADD10C,0.100000*%
%ADD11C,0.228600*%
%ADD12O,1.854200X2.540000*%
%ADD13R,1.854200X2.540000*%
%ADD14C,1.930400*%
%ADD15O,4.572000X3.556000*%
%ADD16O,4.064000X5.080000*%
%ADD17O,5.080000X3.556000*%
%ADD18O,2.540000X1.524000*%
%ADD19C,3.937000*%
%ADD20O,1.524000X2.540000*%
%ADD21O,5.080000X3.048000*%
%ADD22O,2.032000X1.524000*%
%ADD23O,1.524000X2.032000*%
%ADD24R,1.498600X2.997200*%
%ADD25R,1.524000X2.032000*%
%ADD26O,3.810000X2.540000*%
%ADD27C,0.889000*%
%ADD28C,1.016000*%
%ADD29C,0.609600*%
%ADD30C,0.812800*%
%ADD31C,0.406400*%
%ADD32C,0.203200*%
G04 APERTURE END LIST*
D10*
D11*
X211455000Y-75565000D02*
X93345000Y-75565000D01*
X211455000Y-130175000D02*
X211455000Y-75565000D01*
X93345000Y-130175000D02*
X211455000Y-130175000D01*
X93345000Y-75565000D02*
X93345000Y-130175000D01*
D12*
X104140000Y-121920000D03*
X106680000Y-121920000D03*
D13*
X101600000Y-121920000D03*
D14*
X208457800Y-102870000D03*
D15*
X204952600Y-102870000D03*
D16*
X199466200Y-102870000D03*
D17*
X206451200Y-98374200D03*
X206451200Y-107365800D03*
D18*
X200025000Y-115570000D03*
X200025000Y-118110000D03*
X200025000Y-113030000D03*
D19*
X111760000Y-127000000D03*
X113030000Y-78740000D03*
X194310000Y-127000000D03*
X187960000Y-78740000D03*
D20*
X125730000Y-127000000D03*
X128270000Y-127000000D03*
X130810000Y-127000000D03*
X133350000Y-127000000D03*
X135890000Y-127000000D03*
X138430000Y-127000000D03*
X140970000Y-127000000D03*
X143510000Y-127000000D03*
X148590000Y-127000000D03*
X151130000Y-127000000D03*
X153670000Y-127000000D03*
X156210000Y-127000000D03*
X158750000Y-127000000D03*
X161290000Y-127000000D03*
X163830000Y-127000000D03*
X166370000Y-127000000D03*
X171450000Y-127000000D03*
X173990000Y-127000000D03*
X176530000Y-127000000D03*
X179070000Y-127000000D03*
X181610000Y-127000000D03*
X184150000Y-127000000D03*
X186690000Y-127000000D03*
X189230000Y-127000000D03*
X116586000Y-78740000D03*
X119126000Y-78740000D03*
X121666000Y-78740000D03*
X124206000Y-78740000D03*
X126746000Y-78740000D03*
X129286000Y-78740000D03*
X131826000Y-78740000D03*
X134366000Y-78740000D03*
X136906000Y-78740000D03*
X139446000Y-78740000D03*
X143510000Y-78740000D03*
X161290000Y-78740000D03*
X158750000Y-78740000D03*
X156210000Y-78740000D03*
X153670000Y-78740000D03*
X151130000Y-78740000D03*
X148590000Y-78740000D03*
X146050000Y-78740000D03*
X166370000Y-78740000D03*
X168910000Y-78740000D03*
X171450000Y-78740000D03*
X173990000Y-78740000D03*
X176530000Y-78740000D03*
X179070000Y-78740000D03*
X181610000Y-78740000D03*
X184150000Y-78740000D03*
X191770000Y-78232000D03*
X194310000Y-78232000D03*
D18*
X191262000Y-81280000D03*
X194818000Y-81280000D03*
X191262000Y-83820000D03*
X194818000Y-83820000D03*
X191262000Y-86360000D03*
X194818000Y-86360000D03*
X191262000Y-88900000D03*
X194818000Y-88900000D03*
X191262000Y-91440000D03*
X194818000Y-91440000D03*
X191262000Y-93980000D03*
X194818000Y-93980000D03*
X191262000Y-96520000D03*
X194818000Y-96520000D03*
X191262000Y-99060000D03*
X194818000Y-99060000D03*
X191262000Y-101600000D03*
X194818000Y-101600000D03*
X191262000Y-104140000D03*
X194818000Y-104140000D03*
X191262000Y-106680000D03*
X194818000Y-106680000D03*
X191262000Y-109220000D03*
X194818000Y-109220000D03*
X191262000Y-111760000D03*
X194818000Y-111760000D03*
X191262000Y-114300000D03*
X194818000Y-114300000D03*
X191262000Y-116840000D03*
X194818000Y-116840000D03*
X191262000Y-119380000D03*
X194818000Y-119380000D03*
X191262000Y-121920000D03*
X194818000Y-121920000D03*
D21*
X99060000Y-107950000D03*
X99060000Y-97790000D03*
D22*
X105156000Y-102870000D03*
D23*
X107950000Y-102870000D03*
X107950000Y-100076000D03*
X107950000Y-105664000D03*
X187325000Y-105410000D03*
X187325000Y-100330000D03*
X168910000Y-117475000D03*
X168910000Y-112395000D03*
X166370000Y-117475000D03*
X166370000Y-112395000D03*
X163830000Y-117475000D03*
X163830000Y-112395000D03*
X161290000Y-117475000D03*
X161290000Y-112395000D03*
X158750000Y-117475000D03*
X158750000Y-112395000D03*
X156210000Y-117475000D03*
X156210000Y-112395000D03*
X153670000Y-117475000D03*
X153670000Y-112395000D03*
X151130000Y-117475000D03*
X151130000Y-112395000D03*
X138430000Y-117475000D03*
X138430000Y-112395000D03*
X135890000Y-117475000D03*
X135890000Y-112395000D03*
X133350000Y-117475000D03*
X133350000Y-112395000D03*
X130810000Y-117475000D03*
X130810000Y-112395000D03*
X128270000Y-117475000D03*
X128270000Y-112395000D03*
X125730000Y-117475000D03*
X125730000Y-112395000D03*
X123190000Y-117475000D03*
X123190000Y-112395000D03*
X120650000Y-117475000D03*
X120650000Y-112395000D03*
D24*
X178435000Y-115849400D03*
X179705000Y-120370600D03*
X180975000Y-115849400D03*
X182245000Y-120370600D03*
X183515000Y-115849400D03*
X184785000Y-120370600D03*
D25*
X168910000Y-101346000D03*
D23*
X168910000Y-104394000D03*
X166370000Y-101346000D03*
X166370000Y-104394000D03*
X163830000Y-101346000D03*
X163830000Y-104394000D03*
X161290000Y-101346000D03*
X161290000Y-104394000D03*
X158750000Y-101346000D03*
X158750000Y-104394000D03*
X156210000Y-101346000D03*
X156210000Y-104394000D03*
X153670000Y-101346000D03*
X153670000Y-104394000D03*
X151130000Y-101346000D03*
X151130000Y-104394000D03*
D25*
X138430000Y-101346000D03*
D23*
X138430000Y-104394000D03*
X135890000Y-101346000D03*
X135890000Y-104394000D03*
X133350000Y-101346000D03*
X133350000Y-104394000D03*
X130810000Y-101346000D03*
X130810000Y-104394000D03*
X128270000Y-101346000D03*
X128270000Y-104394000D03*
X125730000Y-101346000D03*
X125730000Y-104394000D03*
X123190000Y-101346000D03*
X123190000Y-104394000D03*
X120650000Y-101346000D03*
X120650000Y-104394000D03*
D26*
X181610000Y-102870000D03*
X181610000Y-107569000D03*
D27*
X159341100Y-90475100D03*
X162892500Y-92322000D03*
X177728400Y-121983000D03*
X185177800Y-122582400D03*
X186677200Y-119699300D03*
X177987000Y-111534700D03*
X175816700Y-122425300D03*
X185903200Y-116991700D03*
X165735000Y-95999300D03*
X136267400Y-95999300D03*
X166452500Y-93346900D03*
X136058000Y-93273300D03*
X123537700Y-96326300D03*
X155227200Y-86656300D03*
X153067600Y-86678600D03*
X122838500Y-86450800D03*
X192705200Y-102870000D03*
X165497100Y-91319300D03*
X160596900Y-89300600D03*
X125274200Y-90221100D03*
X126233000Y-93229700D03*
X124494700Y-87383500D03*
X153313300Y-92195500D03*
X179681400Y-88186900D03*
D28*
X120650000Y-101600000D02*
X123190000Y-101600000D01*
X123190000Y-101600000D02*
X125730000Y-101600000D01*
X125730000Y-101600000D02*
X128270000Y-101600000D01*
X128270000Y-101600000D02*
X130810000Y-101600000D01*
X130810000Y-101600000D02*
X133350000Y-101600000D01*
X133350000Y-101600000D02*
X135890000Y-101600000D01*
X135890000Y-101600000D02*
X138430000Y-101600000D01*
X138430000Y-101600000D02*
X151130000Y-101600000D01*
X151130000Y-101600000D02*
X153670000Y-101600000D01*
X153670000Y-101600000D02*
X156210000Y-101600000D01*
X156210000Y-101600000D02*
X158750000Y-101600000D01*
X158750000Y-101600000D02*
X161290000Y-101600000D01*
X161290000Y-101600000D02*
X163830000Y-101600000D01*
X163830000Y-101600000D02*
X166370000Y-101600000D01*
X166370000Y-101600000D02*
X168910000Y-101600000D01*
X181610000Y-102870000D02*
X178942700Y-102870000D01*
X200025000Y-113030000D02*
X197992700Y-113030000D01*
X177672700Y-101600000D02*
X178942700Y-102870000D01*
X168910000Y-101600000D02*
X177672700Y-101600000D01*
X197992700Y-121435800D02*
X197992700Y-113030000D01*
X195948900Y-123479600D02*
X197992700Y-121435800D01*
X190132800Y-123479600D02*
X195948900Y-123479600D01*
X188384600Y-121731400D02*
X190132800Y-123479600D01*
X188384600Y-117354500D02*
X188384600Y-121731400D01*
X183162800Y-112132700D02*
X188384600Y-117354500D01*
X182664700Y-112132700D02*
X183162800Y-112132700D01*
X178942700Y-108410700D02*
X182664700Y-112132700D01*
X178942700Y-102870000D02*
X178942700Y-108410700D01*
D29*
X140970000Y-127000000D02*
X138430000Y-127000000D01*
X187325000Y-100330000D02*
X186003900Y-100330000D01*
X179299200Y-117907100D02*
X178435000Y-117907100D01*
X179705000Y-118312900D02*
X179299200Y-117907100D01*
X179705000Y-120370600D02*
X179705000Y-118312900D01*
X178435000Y-115849400D02*
X178435000Y-117907100D01*
X177985700Y-92311800D02*
X186003900Y-100330000D01*
X165924000Y-92311800D02*
X177985700Y-92311800D01*
X165826700Y-92409100D02*
X165924000Y-92311800D01*
X162979600Y-92409100D02*
X165826700Y-92409100D01*
X162892500Y-92322000D02*
X162979600Y-92409100D01*
X161188000Y-92322000D02*
X159341100Y-90475100D01*
X162892500Y-92322000D02*
X161188000Y-92322000D01*
X109272600Y-101652600D02*
X107950000Y-100330000D01*
X109272600Y-104087400D02*
X109272600Y-101652600D01*
X107950000Y-105410000D02*
X109272600Y-104087400D01*
X179340800Y-120370600D02*
X179705000Y-120370600D01*
X177728400Y-121983000D02*
X179340800Y-120370600D01*
D30*
X185177800Y-121843000D02*
X185177800Y-122582400D01*
X184785000Y-121450200D02*
X185177800Y-121843000D01*
X184785000Y-120370600D02*
X184785000Y-120910400D01*
X184785000Y-120910400D02*
X184785000Y-121450200D01*
X185996100Y-119699300D02*
X186677200Y-119699300D01*
X184785000Y-120910400D02*
X185996100Y-119699300D01*
X114805900Y-121920000D02*
X106680000Y-121920000D01*
X121816600Y-128930700D02*
X114805900Y-121920000D01*
X135890000Y-128930700D02*
X121816600Y-128930700D01*
X135890000Y-127000000D02*
X135890000Y-128930700D01*
D31*
X180975000Y-115849400D02*
X180975000Y-113893300D01*
X180345600Y-113893300D02*
X177987000Y-111534700D01*
X180975000Y-113893300D02*
X180345600Y-113893300D01*
X182245000Y-120370600D02*
X182245000Y-122326700D01*
X153670000Y-78740000D02*
X153670000Y-80467500D01*
X176282900Y-122891500D02*
X175816700Y-122425300D01*
X182245000Y-122891500D02*
X176282900Y-122891500D01*
X183798700Y-124445200D02*
X182245000Y-122891500D01*
X196407200Y-124445200D02*
X183798700Y-124445200D01*
X201963100Y-118889300D02*
X196407200Y-124445200D01*
X201963100Y-101296700D02*
X201963100Y-118889300D01*
X198456400Y-97790000D02*
X201963100Y-101296700D01*
X189153200Y-97790000D02*
X198456400Y-97790000D01*
X181144600Y-89781400D02*
X189153200Y-97790000D01*
X179725000Y-89781400D02*
X181144600Y-89781400D01*
X170411100Y-80467500D02*
X179725000Y-89781400D01*
X153670000Y-80467500D02*
X170411100Y-80467500D01*
X182245000Y-122891500D02*
X182245000Y-122326700D01*
X183515000Y-115849400D02*
X183515000Y-117805500D01*
X185089400Y-117805500D02*
X185903200Y-116991700D01*
X183515000Y-117805500D02*
X185089400Y-117805500D01*
X102755300Y-119037200D02*
X101600000Y-120192500D01*
X102755300Y-102307000D02*
X102755300Y-119037200D01*
X124594800Y-80467500D02*
X102755300Y-102307000D01*
X132411900Y-80467500D02*
X124594800Y-80467500D01*
X133096000Y-79783400D02*
X132411900Y-80467500D01*
X133096000Y-77731100D02*
X133096000Y-79783400D01*
X133814600Y-77012500D02*
X133096000Y-77731100D01*
X166370000Y-77012500D02*
X133814600Y-77012500D01*
X166370000Y-78740000D02*
X166370000Y-77012500D01*
X101600000Y-121920000D02*
X101600000Y-120192500D01*
X165735000Y-95999300D02*
X136267400Y-95999300D01*
X178789100Y-95999300D02*
X165735000Y-95999300D01*
X185189500Y-102399700D02*
X178789100Y-95999300D01*
X185189500Y-109955000D02*
X185189500Y-102399700D01*
X189534500Y-114300000D02*
X185189500Y-109955000D01*
X191770000Y-114300000D02*
X189534500Y-114300000D01*
X194310000Y-114300000D02*
X193090500Y-114300000D01*
X177071100Y-93346900D02*
X166452500Y-93346900D01*
X185890300Y-102166100D02*
X177071100Y-93346900D01*
X185890300Y-108660200D02*
X185890300Y-102166100D01*
X190310600Y-113080500D02*
X185890300Y-108660200D01*
X192328400Y-113080500D02*
X190310600Y-113080500D01*
X193090500Y-113842600D02*
X192328400Y-113080500D01*
X193090500Y-114300000D02*
X193090500Y-113842600D01*
X136131600Y-93346900D02*
X166452500Y-93346900D01*
X136058000Y-93273300D02*
X136131600Y-93346900D01*
X125430800Y-98219400D02*
X123537700Y-96326300D01*
X180050100Y-98219400D02*
X125430800Y-98219400D01*
X184427000Y-102596300D02*
X180050100Y-98219400D01*
X184427000Y-111732500D02*
X184427000Y-102596300D01*
X189534500Y-116840000D02*
X184427000Y-111732500D01*
X191770000Y-116840000D02*
X189534500Y-116840000D01*
X175198200Y-86656300D02*
X155227200Y-86656300D01*
X179314500Y-90772600D02*
X175198200Y-86656300D01*
X180716200Y-90772600D02*
X179314500Y-90772600D01*
X190273600Y-100330000D02*
X180716200Y-90772600D01*
X195799100Y-100330000D02*
X190273600Y-100330000D01*
X196545500Y-101076400D02*
X195799100Y-100330000D01*
X196545500Y-116840000D02*
X196545500Y-101076400D01*
X194310000Y-116840000D02*
X196545500Y-116840000D01*
X152839800Y-86450800D02*
X122838500Y-86450800D01*
X153067600Y-86678600D02*
X152839800Y-86450800D01*
X190297000Y-102870000D02*
X192705200Y-102870000D01*
X189273200Y-101846200D02*
X190297000Y-102870000D01*
X189273200Y-100264100D02*
X189273200Y-101846200D01*
X181006300Y-91997200D02*
X189273200Y-100264100D01*
X179137600Y-91997200D02*
X181006300Y-91997200D01*
X175477900Y-88337500D02*
X179137600Y-91997200D01*
X154726500Y-88337500D02*
X175477900Y-88337500D01*
X153067600Y-86678600D02*
X154726500Y-88337500D01*
D30*
X125730000Y-117475000D02*
X128270000Y-117475000D01*
X128270000Y-117475000D02*
X130810000Y-117475000D01*
X130810000Y-117475000D02*
X133350000Y-117475000D01*
X133350000Y-117475000D02*
X135890000Y-117475000D01*
X135890000Y-117475000D02*
X138430000Y-117475000D01*
X138430000Y-117475000D02*
X151130000Y-117475000D01*
X151130000Y-117475000D02*
X153670000Y-117475000D01*
X153670000Y-117475000D02*
X156210000Y-117475000D01*
X156210000Y-117475000D02*
X158750000Y-117475000D01*
X158750000Y-117475000D02*
X161290000Y-117475000D01*
X161290000Y-117475000D02*
X163830000Y-117475000D01*
X163830000Y-117475000D02*
X166370000Y-117475000D01*
X166370000Y-117475000D02*
X168910000Y-117475000D01*
X125730000Y-117475000D02*
X123190000Y-117475000D01*
X123190000Y-117475000D02*
X120650000Y-117475000D01*
D31*
X162615600Y-91319300D02*
X160596900Y-89300600D01*
X165497100Y-91319300D02*
X162615600Y-91319300D01*
X123190000Y-104140000D02*
X121970500Y-104140000D01*
X118725100Y-96770200D02*
X125274200Y-90221100D01*
X118725100Y-104552800D02*
X118725100Y-96770200D01*
X120053300Y-105881000D02*
X118725100Y-104552800D01*
X121144100Y-105881000D02*
X120053300Y-105881000D01*
X121970500Y-105054600D02*
X121144100Y-105881000D01*
X121970500Y-104140000D02*
X121970500Y-105054600D01*
X123190000Y-107926900D02*
X123190000Y-112395000D01*
X121144100Y-105881000D02*
X123190000Y-107926900D01*
X120650000Y-104140000D02*
X120650000Y-102920500D01*
X120192700Y-102920500D02*
X120650000Y-102920500D01*
X119385900Y-102113700D02*
X120192700Y-102920500D01*
X119385900Y-99202500D02*
X119385900Y-102113700D01*
X125358700Y-93229700D02*
X119385900Y-99202500D01*
X126233000Y-93229700D02*
X125358700Y-93229700D01*
X148501300Y-87383500D02*
X153313300Y-92195500D01*
X124494700Y-87383500D02*
X148501300Y-87383500D01*
X125523600Y-125272500D02*
X148590000Y-125272500D01*
X105410000Y-105158900D02*
X125523600Y-125272500D01*
X105410000Y-102870000D02*
X105410000Y-105158900D01*
X148590000Y-127000000D02*
X148590000Y-125272500D01*
X107950000Y-102870000D02*
X106730500Y-102870000D01*
X134366000Y-78740000D02*
X134366000Y-80467500D01*
X106730500Y-99316800D02*
X106730500Y-102870000D01*
X123880700Y-82166600D02*
X106730500Y-99316800D01*
X132666900Y-82166600D02*
X123880700Y-82166600D01*
X134366000Y-80467500D02*
X132666900Y-82166600D01*
X176530000Y-78740000D02*
X176530000Y-80467500D01*
X179681400Y-83618900D02*
X179681400Y-88186900D01*
X176530000Y-80467500D02*
X179681400Y-83618900D01*
D32*
G36*
X211035900Y-129755900D02*
X209778829Y-129755900D01*
X209778829Y-102608429D01*
X209578173Y-102122804D01*
X209403528Y-101947854D01*
X209403528Y-98374200D01*
X209241117Y-97557707D01*
X208778611Y-96865517D01*
X208086421Y-96403011D01*
X207269928Y-96240600D01*
X205632472Y-96240600D01*
X204815979Y-96403011D01*
X204123789Y-96865517D01*
X203661283Y-97557707D01*
X203498872Y-98374200D01*
X203661283Y-99190693D01*
X204123789Y-99882883D01*
X204815979Y-100345389D01*
X205632472Y-100507800D01*
X207269928Y-100507800D01*
X208086421Y-100345389D01*
X208778611Y-99882883D01*
X209241117Y-99190693D01*
X209403528Y-98374200D01*
X209403528Y-101947854D01*
X209206950Y-101750933D01*
X208721676Y-101549430D01*
X208196229Y-101548971D01*
X207710604Y-101749627D01*
X207452592Y-102007189D01*
X207021035Y-101361317D01*
X206328845Y-100898811D01*
X205512352Y-100736400D01*
X204392848Y-100736400D01*
X203576355Y-100898811D01*
X202884165Y-101361317D01*
X202521900Y-101903485D01*
X202521900Y-101296700D01*
X202479365Y-101082857D01*
X202479364Y-101082856D01*
X202358231Y-100901569D01*
X198851531Y-97394869D01*
X198670244Y-97273736D01*
X198456400Y-97231200D01*
X196200938Y-97231200D01*
X196390375Y-96947687D01*
X196475447Y-96520000D01*
X196475447Y-93980000D01*
X196475447Y-91440000D01*
X196475447Y-88900000D01*
X196475447Y-86360000D01*
X196475447Y-83820000D01*
X196475447Y-81280000D01*
X196390375Y-80852313D01*
X196148110Y-80489737D01*
X195785534Y-80247472D01*
X195427600Y-80176274D01*
X195427600Y-78771847D01*
X195427600Y-77692153D01*
X195342528Y-77264466D01*
X195100263Y-76901890D01*
X194737687Y-76659625D01*
X194310000Y-76574553D01*
X193882313Y-76659625D01*
X193519737Y-76901890D01*
X193277472Y-77264466D01*
X193192400Y-77692153D01*
X193192400Y-78771847D01*
X193277472Y-79199534D01*
X193519737Y-79562110D01*
X193882313Y-79804375D01*
X194310000Y-79889447D01*
X194737687Y-79804375D01*
X195100263Y-79562110D01*
X195342528Y-79199534D01*
X195427600Y-78771847D01*
X195427600Y-80176274D01*
X195357847Y-80162400D01*
X194278153Y-80162400D01*
X193850466Y-80247472D01*
X193487890Y-80489737D01*
X193245625Y-80852313D01*
X193160553Y-81280000D01*
X193245625Y-81707687D01*
X193487890Y-82070263D01*
X193850466Y-82312528D01*
X194278153Y-82397600D01*
X195357847Y-82397600D01*
X195785534Y-82312528D01*
X196148110Y-82070263D01*
X196390375Y-81707687D01*
X196475447Y-81280000D01*
X196475447Y-83820000D01*
X196390375Y-83392313D01*
X196148110Y-83029737D01*
X195785534Y-82787472D01*
X195357847Y-82702400D01*
X194278153Y-82702400D01*
X193850466Y-82787472D01*
X193487890Y-83029737D01*
X193245625Y-83392313D01*
X193160553Y-83820000D01*
X193245625Y-84247687D01*
X193487890Y-84610263D01*
X193850466Y-84852528D01*
X194278153Y-84937600D01*
X195357847Y-84937600D01*
X195785534Y-84852528D01*
X196148110Y-84610263D01*
X196390375Y-84247687D01*
X196475447Y-83820000D01*
X196475447Y-86360000D01*
X196390375Y-85932313D01*
X196148110Y-85569737D01*
X195785534Y-85327472D01*
X195357847Y-85242400D01*
X194278153Y-85242400D01*
X193850466Y-85327472D01*
X193487890Y-85569737D01*
X193245625Y-85932313D01*
X193160553Y-86360000D01*
X193245625Y-86787687D01*
X193487890Y-87150263D01*
X193850466Y-87392528D01*
X194278153Y-87477600D01*
X195357847Y-87477600D01*
X195785534Y-87392528D01*
X196148110Y-87150263D01*
X196390375Y-86787687D01*
X196475447Y-86360000D01*
X196475447Y-88900000D01*
X196390375Y-88472313D01*
X196148110Y-88109737D01*
X195785534Y-87867472D01*
X195357847Y-87782400D01*
X194278153Y-87782400D01*
X193850466Y-87867472D01*
X193487890Y-88109737D01*
X193245625Y-88472313D01*
X193160553Y-88900000D01*
X193245625Y-89327687D01*
X193487890Y-89690263D01*
X193850466Y-89932528D01*
X194278153Y-90017600D01*
X195357847Y-90017600D01*
X195785534Y-89932528D01*
X196148110Y-89690263D01*
X196390375Y-89327687D01*
X196475447Y-88900000D01*
X196475447Y-91440000D01*
X196390375Y-91012313D01*
X196148110Y-90649737D01*
X195785534Y-90407472D01*
X195357847Y-90322400D01*
X194278153Y-90322400D01*
X193850466Y-90407472D01*
X193487890Y-90649737D01*
X193245625Y-91012313D01*
X193160553Y-91440000D01*
X193245625Y-91867687D01*
X193487890Y-92230263D01*
X193850466Y-92472528D01*
X194278153Y-92557600D01*
X195357847Y-92557600D01*
X195785534Y-92472528D01*
X196148110Y-92230263D01*
X196390375Y-91867687D01*
X196475447Y-91440000D01*
X196475447Y-93980000D01*
X196390375Y-93552313D01*
X196148110Y-93189737D01*
X195785534Y-92947472D01*
X195357847Y-92862400D01*
X194278153Y-92862400D01*
X193850466Y-92947472D01*
X193487890Y-93189737D01*
X193245625Y-93552313D01*
X193160553Y-93980000D01*
X193245625Y-94407687D01*
X193487890Y-94770263D01*
X193850466Y-95012528D01*
X194278153Y-95097600D01*
X195357847Y-95097600D01*
X195785534Y-95012528D01*
X196148110Y-94770263D01*
X196390375Y-94407687D01*
X196475447Y-93980000D01*
X196475447Y-96520000D01*
X196390375Y-96092313D01*
X196148110Y-95729737D01*
X195785534Y-95487472D01*
X195357847Y-95402400D01*
X194278153Y-95402400D01*
X193850466Y-95487472D01*
X193487890Y-95729737D01*
X193245625Y-96092313D01*
X193160553Y-96520000D01*
X193245625Y-96947687D01*
X193435061Y-97231200D01*
X192644938Y-97231200D01*
X192834375Y-96947687D01*
X192919447Y-96520000D01*
X192919447Y-93980000D01*
X192919447Y-91440000D01*
X192919447Y-88900000D01*
X192919447Y-86360000D01*
X192919447Y-83820000D01*
X192919447Y-81280000D01*
X192887600Y-81119893D01*
X192887600Y-78771847D01*
X192887600Y-77692153D01*
X192802528Y-77264466D01*
X192560263Y-76901890D01*
X192197687Y-76659625D01*
X191770000Y-76574553D01*
X191342313Y-76659625D01*
X190979737Y-76901890D01*
X190737472Y-77264466D01*
X190652400Y-77692153D01*
X190652400Y-78771847D01*
X190737472Y-79199534D01*
X190979737Y-79562110D01*
X191342313Y-79804375D01*
X191770000Y-79889447D01*
X192197687Y-79804375D01*
X192560263Y-79562110D01*
X192802528Y-79199534D01*
X192887600Y-78771847D01*
X192887600Y-81119893D01*
X192834375Y-80852313D01*
X192592110Y-80489737D01*
X192229534Y-80247472D01*
X191801847Y-80162400D01*
X190722153Y-80162400D01*
X190294466Y-80247472D01*
X190284503Y-80254129D01*
X190284503Y-78279736D01*
X189931425Y-77425223D01*
X189278216Y-76770873D01*
X188424320Y-76416304D01*
X187499736Y-76415497D01*
X186645223Y-76768575D01*
X185990873Y-77421784D01*
X185636304Y-78275680D01*
X185635497Y-79200264D01*
X185988575Y-80054777D01*
X186641784Y-80709127D01*
X187495680Y-81063696D01*
X188420264Y-81064503D01*
X189274777Y-80711425D01*
X189929127Y-80058216D01*
X190283696Y-79204320D01*
X190284503Y-78279736D01*
X190284503Y-80254129D01*
X189931890Y-80489737D01*
X189689625Y-80852313D01*
X189604553Y-81280000D01*
X189689625Y-81707687D01*
X189931890Y-82070263D01*
X190294466Y-82312528D01*
X190722153Y-82397600D01*
X191801847Y-82397600D01*
X192229534Y-82312528D01*
X192592110Y-82070263D01*
X192834375Y-81707687D01*
X192919447Y-81280000D01*
X192919447Y-83820000D01*
X192834375Y-83392313D01*
X192592110Y-83029737D01*
X192229534Y-82787472D01*
X191801847Y-82702400D01*
X190722153Y-82702400D01*
X190294466Y-82787472D01*
X189931890Y-83029737D01*
X189689625Y-83392313D01*
X189604553Y-83820000D01*
X189689625Y-84247687D01*
X189931890Y-84610263D01*
X190294466Y-84852528D01*
X190722153Y-84937600D01*
X191801847Y-84937600D01*
X192229534Y-84852528D01*
X192592110Y-84610263D01*
X192834375Y-84247687D01*
X192919447Y-83820000D01*
X192919447Y-86360000D01*
X192834375Y-85932313D01*
X192592110Y-85569737D01*
X192229534Y-85327472D01*
X191801847Y-85242400D01*
X190722153Y-85242400D01*
X190294466Y-85327472D01*
X189931890Y-85569737D01*
X189689625Y-85932313D01*
X189604553Y-86360000D01*
X189689625Y-86787687D01*
X189931890Y-87150263D01*
X190294466Y-87392528D01*
X190722153Y-87477600D01*
X191801847Y-87477600D01*
X192229534Y-87392528D01*
X192592110Y-87150263D01*
X192834375Y-86787687D01*
X192919447Y-86360000D01*
X192919447Y-88900000D01*
X192834375Y-88472313D01*
X192592110Y-88109737D01*
X192229534Y-87867472D01*
X191801847Y-87782400D01*
X190722153Y-87782400D01*
X190294466Y-87867472D01*
X189931890Y-88109737D01*
X189689625Y-88472313D01*
X189604553Y-88900000D01*
X189689625Y-89327687D01*
X189931890Y-89690263D01*
X190294466Y-89932528D01*
X190722153Y-90017600D01*
X191801847Y-90017600D01*
X192229534Y-89932528D01*
X192592110Y-89690263D01*
X192834375Y-89327687D01*
X192919447Y-88900000D01*
X192919447Y-91440000D01*
X192834375Y-91012313D01*
X192592110Y-90649737D01*
X192229534Y-90407472D01*
X191801847Y-90322400D01*
X190722153Y-90322400D01*
X190294466Y-90407472D01*
X189931890Y-90649737D01*
X189689625Y-91012313D01*
X189604553Y-91440000D01*
X189689625Y-91867687D01*
X189931890Y-92230263D01*
X190294466Y-92472528D01*
X190722153Y-92557600D01*
X191801847Y-92557600D01*
X192229534Y-92472528D01*
X192592110Y-92230263D01*
X192834375Y-91867687D01*
X192919447Y-91440000D01*
X192919447Y-93980000D01*
X192834375Y-93552313D01*
X192592110Y-93189737D01*
X192229534Y-92947472D01*
X191801847Y-92862400D01*
X190722153Y-92862400D01*
X190294466Y-92947472D01*
X189931890Y-93189737D01*
X189689625Y-93552313D01*
X189604553Y-93980000D01*
X189689625Y-94407687D01*
X189931890Y-94770263D01*
X190294466Y-95012528D01*
X190722153Y-95097600D01*
X191801847Y-95097600D01*
X192229534Y-95012528D01*
X192592110Y-94770263D01*
X192834375Y-94407687D01*
X192919447Y-93980000D01*
X192919447Y-96520000D01*
X192834375Y-96092313D01*
X192592110Y-95729737D01*
X192229534Y-95487472D01*
X191801847Y-95402400D01*
X190722153Y-95402400D01*
X190294466Y-95487472D01*
X189931890Y-95729737D01*
X189689625Y-96092313D01*
X189604553Y-96520000D01*
X189689625Y-96947687D01*
X189879061Y-97231200D01*
X189384662Y-97231200D01*
X185267600Y-93114138D01*
X185267600Y-79279847D01*
X185267600Y-78200153D01*
X185182528Y-77772466D01*
X184940263Y-77409890D01*
X184577687Y-77167625D01*
X184150000Y-77082553D01*
X183722313Y-77167625D01*
X183359737Y-77409890D01*
X183117472Y-77772466D01*
X183032400Y-78200153D01*
X183032400Y-79279847D01*
X183117472Y-79707534D01*
X183359737Y-80070110D01*
X183722313Y-80312375D01*
X184150000Y-80397447D01*
X184577687Y-80312375D01*
X184940263Y-80070110D01*
X185182528Y-79707534D01*
X185267600Y-79279847D01*
X185267600Y-93114138D01*
X182727600Y-90574138D01*
X182727600Y-79279847D01*
X182727600Y-78200153D01*
X182642528Y-77772466D01*
X182400263Y-77409890D01*
X182037687Y-77167625D01*
X181610000Y-77082553D01*
X181182313Y-77167625D01*
X180819737Y-77409890D01*
X180577472Y-77772466D01*
X180492400Y-78200153D01*
X180492400Y-79279847D01*
X180577472Y-79707534D01*
X180819737Y-80070110D01*
X181182313Y-80312375D01*
X181610000Y-80397447D01*
X182037687Y-80312375D01*
X182400263Y-80070110D01*
X182642528Y-79707534D01*
X182727600Y-79279847D01*
X182727600Y-90574138D01*
X181539731Y-89386269D01*
X181358444Y-89265136D01*
X181144600Y-89222600D01*
X179956461Y-89222600D01*
X179720897Y-88987035D01*
X179839852Y-88987139D01*
X180134028Y-88865587D01*
X180359296Y-88640712D01*
X180481361Y-88346748D01*
X180481639Y-88028448D01*
X180360087Y-87734272D01*
X180240200Y-87614175D01*
X180240200Y-83618900D01*
X180197665Y-83405057D01*
X180197664Y-83405056D01*
X180187600Y-83389994D01*
X180187600Y-79279847D01*
X180187600Y-78200153D01*
X180102528Y-77772466D01*
X179860263Y-77409890D01*
X179497687Y-77167625D01*
X179070000Y-77082553D01*
X178642313Y-77167625D01*
X178279737Y-77409890D01*
X178037472Y-77772466D01*
X177952400Y-78200153D01*
X177952400Y-79279847D01*
X178037472Y-79707534D01*
X178279737Y-80070110D01*
X178642313Y-80312375D01*
X179070000Y-80397447D01*
X179497687Y-80312375D01*
X179860263Y-80070110D01*
X180102528Y-79707534D01*
X180187600Y-79279847D01*
X180187600Y-83389994D01*
X180076532Y-83223769D01*
X177088800Y-80236037D01*
X177088800Y-80224768D01*
X177320263Y-80070110D01*
X177562528Y-79707534D01*
X177647600Y-79279847D01*
X177647600Y-78200153D01*
X177562528Y-77772466D01*
X177320263Y-77409890D01*
X176957687Y-77167625D01*
X176530000Y-77082553D01*
X176102313Y-77167625D01*
X175739737Y-77409890D01*
X175497472Y-77772466D01*
X175412400Y-78200153D01*
X175412400Y-79279847D01*
X175497472Y-79707534D01*
X175739737Y-80070110D01*
X175971200Y-80224768D01*
X175971200Y-80467500D01*
X176013736Y-80681344D01*
X176134869Y-80862631D01*
X179122600Y-83850362D01*
X179122600Y-87614199D01*
X179003504Y-87733088D01*
X178881439Y-88027052D01*
X178881333Y-88147471D01*
X175107600Y-84373738D01*
X175107600Y-79279847D01*
X175107600Y-78200153D01*
X175022528Y-77772466D01*
X174780263Y-77409890D01*
X174417687Y-77167625D01*
X173990000Y-77082553D01*
X173562313Y-77167625D01*
X173199737Y-77409890D01*
X172957472Y-77772466D01*
X172872400Y-78200153D01*
X172872400Y-79279847D01*
X172957472Y-79707534D01*
X173199737Y-80070110D01*
X173562313Y-80312375D01*
X173990000Y-80397447D01*
X174417687Y-80312375D01*
X174780263Y-80070110D01*
X175022528Y-79707534D01*
X175107600Y-79279847D01*
X175107600Y-84373738D01*
X171052177Y-80318315D01*
X171450000Y-80397447D01*
X171877687Y-80312375D01*
X172240263Y-80070110D01*
X172482528Y-79707534D01*
X172567600Y-79279847D01*
X172567600Y-78200153D01*
X172482528Y-77772466D01*
X172240263Y-77409890D01*
X171877687Y-77167625D01*
X171450000Y-77082553D01*
X171022313Y-77167625D01*
X170659737Y-77409890D01*
X170417472Y-77772466D01*
X170332400Y-78200153D01*
X170332400Y-79279847D01*
X170417472Y-79707534D01*
X170573466Y-79940996D01*
X170411100Y-79908700D01*
X169808113Y-79908700D01*
X169942528Y-79707534D01*
X170027600Y-79279847D01*
X170027600Y-78200153D01*
X169942528Y-77772466D01*
X169700263Y-77409890D01*
X169337687Y-77167625D01*
X168910000Y-77082553D01*
X168482313Y-77167625D01*
X168119737Y-77409890D01*
X167877472Y-77772466D01*
X167792400Y-78200153D01*
X167792400Y-79279847D01*
X167877472Y-79707534D01*
X168011886Y-79908700D01*
X167268113Y-79908700D01*
X167402528Y-79707534D01*
X167487600Y-79279847D01*
X167487600Y-78200153D01*
X167402528Y-77772466D01*
X167160263Y-77409890D01*
X166928800Y-77255231D01*
X166928800Y-77012500D01*
X166886264Y-76798656D01*
X166765131Y-76617369D01*
X166583844Y-76496236D01*
X166370000Y-76453700D01*
X133814600Y-76453700D01*
X133600756Y-76496236D01*
X133419469Y-76617369D01*
X132700869Y-77335969D01*
X132633869Y-77436240D01*
X132616263Y-77409890D01*
X132253687Y-77167625D01*
X131826000Y-77082553D01*
X131398313Y-77167625D01*
X131035737Y-77409890D01*
X130793472Y-77772466D01*
X130708400Y-78200153D01*
X130708400Y-79279847D01*
X130793472Y-79707534D01*
X130927886Y-79908700D01*
X130184113Y-79908700D01*
X130318528Y-79707534D01*
X130403600Y-79279847D01*
X130403600Y-78200153D01*
X130318528Y-77772466D01*
X130076263Y-77409890D01*
X129713687Y-77167625D01*
X129286000Y-77082553D01*
X128858313Y-77167625D01*
X128495737Y-77409890D01*
X128253472Y-77772466D01*
X128168400Y-78200153D01*
X128168400Y-79279847D01*
X128253472Y-79707534D01*
X128387886Y-79908700D01*
X127644113Y-79908700D01*
X127778528Y-79707534D01*
X127863600Y-79279847D01*
X127863600Y-78200153D01*
X127778528Y-77772466D01*
X127536263Y-77409890D01*
X127173687Y-77167625D01*
X126746000Y-77082553D01*
X126318313Y-77167625D01*
X125955737Y-77409890D01*
X125713472Y-77772466D01*
X125628400Y-78200153D01*
X125628400Y-79279847D01*
X125713472Y-79707534D01*
X125847886Y-79908700D01*
X125104113Y-79908700D01*
X125238528Y-79707534D01*
X125323600Y-79279847D01*
X125323600Y-78200153D01*
X125238528Y-77772466D01*
X124996263Y-77409890D01*
X124633687Y-77167625D01*
X124206000Y-77082553D01*
X123778313Y-77167625D01*
X123415737Y-77409890D01*
X123173472Y-77772466D01*
X123088400Y-78200153D01*
X123088400Y-79279847D01*
X123173472Y-79707534D01*
X123415737Y-80070110D01*
X123778313Y-80312375D01*
X123929575Y-80342462D01*
X122783600Y-81488437D01*
X122783600Y-79279847D01*
X122783600Y-78200153D01*
X122698528Y-77772466D01*
X122456263Y-77409890D01*
X122093687Y-77167625D01*
X121666000Y-77082553D01*
X121238313Y-77167625D01*
X120875737Y-77409890D01*
X120633472Y-77772466D01*
X120548400Y-78200153D01*
X120548400Y-79279847D01*
X120633472Y-79707534D01*
X120875737Y-80070110D01*
X121238313Y-80312375D01*
X121666000Y-80397447D01*
X122093687Y-80312375D01*
X122456263Y-80070110D01*
X122698528Y-79707534D01*
X122783600Y-79279847D01*
X122783600Y-81488437D01*
X120243600Y-84028437D01*
X120243600Y-79279847D01*
X120243600Y-78200153D01*
X120158528Y-77772466D01*
X119916263Y-77409890D01*
X119553687Y-77167625D01*
X119126000Y-77082553D01*
X118698313Y-77167625D01*
X118335737Y-77409890D01*
X118093472Y-77772466D01*
X118008400Y-78200153D01*
X118008400Y-79279847D01*
X118093472Y-79707534D01*
X118335737Y-80070110D01*
X118698313Y-80312375D01*
X119126000Y-80397447D01*
X119553687Y-80312375D01*
X119916263Y-80070110D01*
X120158528Y-79707534D01*
X120243600Y-79279847D01*
X120243600Y-84028437D01*
X117703600Y-86568437D01*
X117703600Y-79279847D01*
X117703600Y-78200153D01*
X117618528Y-77772466D01*
X117376263Y-77409890D01*
X117013687Y-77167625D01*
X116586000Y-77082553D01*
X116158313Y-77167625D01*
X115795737Y-77409890D01*
X115553472Y-77772466D01*
X115468400Y-78200153D01*
X115468400Y-79279847D01*
X115553472Y-79707534D01*
X115795737Y-80070110D01*
X116158313Y-80312375D01*
X116586000Y-80397447D01*
X117013687Y-80312375D01*
X117376263Y-80070110D01*
X117618528Y-79707534D01*
X117703600Y-79279847D01*
X117703600Y-86568437D01*
X115354503Y-88917534D01*
X115354503Y-78279736D01*
X115001425Y-77425223D01*
X114348216Y-76770873D01*
X113494320Y-76416304D01*
X112569736Y-76415497D01*
X111715223Y-76768575D01*
X111060873Y-77421784D01*
X110706304Y-78275680D01*
X110705497Y-79200264D01*
X111058575Y-80054777D01*
X111711784Y-80709127D01*
X112565680Y-81063696D01*
X113490264Y-81064503D01*
X114344777Y-80711425D01*
X114999127Y-80058216D01*
X115353696Y-79204320D01*
X115354503Y-78279736D01*
X115354503Y-88917534D01*
X102360169Y-101911869D01*
X102239036Y-102093156D01*
X102196500Y-102307000D01*
X102196500Y-118805738D01*
X102012328Y-118989910D01*
X102012328Y-107950000D01*
X102012328Y-97790000D01*
X101869252Y-97070708D01*
X101461806Y-96460922D01*
X100852020Y-96053476D01*
X100132728Y-95910400D01*
X97987272Y-95910400D01*
X97267980Y-96053476D01*
X96658194Y-96460922D01*
X96250748Y-97070708D01*
X96107672Y-97790000D01*
X96250748Y-98509292D01*
X96658194Y-99119078D01*
X97267980Y-99526524D01*
X97987272Y-99669600D01*
X100132728Y-99669600D01*
X100852020Y-99526524D01*
X101461806Y-99119078D01*
X101869252Y-98509292D01*
X102012328Y-97790000D01*
X102012328Y-107950000D01*
X101869252Y-107230708D01*
X101461806Y-106620922D01*
X100852020Y-106213476D01*
X100132728Y-106070400D01*
X97987272Y-106070400D01*
X97267980Y-106213476D01*
X96658194Y-106620922D01*
X96250748Y-107230708D01*
X96107672Y-107950000D01*
X96250748Y-108669292D01*
X96658194Y-109279078D01*
X97267980Y-109686524D01*
X97987272Y-109829600D01*
X100132728Y-109829600D01*
X100852020Y-109686524D01*
X101461806Y-109279078D01*
X101869252Y-108669292D01*
X102012328Y-107950000D01*
X102012328Y-118989910D01*
X101204869Y-119797369D01*
X101083736Y-119978656D01*
X101041200Y-120192500D01*
X101041200Y-120287433D01*
X100672900Y-120287433D01*
X100537311Y-120313741D01*
X100418141Y-120392023D01*
X100338369Y-120510201D01*
X100310333Y-120650000D01*
X100310333Y-123190000D01*
X100336641Y-123325589D01*
X100414923Y-123444759D01*
X100533101Y-123524531D01*
X100672900Y-123552567D01*
X102527100Y-123552567D01*
X102662689Y-123526259D01*
X102781859Y-123447977D01*
X102861631Y-123329799D01*
X102889667Y-123190000D01*
X102889667Y-122457466D01*
X102954940Y-122785615D01*
X103232994Y-123201753D01*
X103649132Y-123479807D01*
X104140000Y-123577447D01*
X104630868Y-123479807D01*
X105047006Y-123201753D01*
X105325060Y-122785615D01*
X105410000Y-122358594D01*
X105494940Y-122785615D01*
X105772994Y-123201753D01*
X106189132Y-123479807D01*
X106680000Y-123577447D01*
X107170868Y-123479807D01*
X107587006Y-123201753D01*
X107865060Y-122785615D01*
X107885670Y-122682000D01*
X114490269Y-122682000D01*
X121277785Y-129469515D01*
X121524995Y-129634696D01*
X121524996Y-129634696D01*
X121816600Y-129692700D01*
X135890000Y-129692700D01*
X136181605Y-129634696D01*
X136428815Y-129469515D01*
X136593996Y-129222305D01*
X136652000Y-128930700D01*
X136652000Y-128348994D01*
X136680263Y-128330110D01*
X136922528Y-127967534D01*
X137007600Y-127539847D01*
X137007600Y-126460153D01*
X136922528Y-126032466D01*
X136788113Y-125831300D01*
X137531886Y-125831300D01*
X137397472Y-126032466D01*
X137312400Y-126460153D01*
X137312400Y-127539847D01*
X137397472Y-127967534D01*
X137639737Y-128330110D01*
X138002313Y-128572375D01*
X138430000Y-128657447D01*
X138857687Y-128572375D01*
X139220263Y-128330110D01*
X139462528Y-127967534D01*
X139523620Y-127660400D01*
X139876379Y-127660400D01*
X139937472Y-127967534D01*
X140179737Y-128330110D01*
X140542313Y-128572375D01*
X140970000Y-128657447D01*
X141397687Y-128572375D01*
X141760263Y-128330110D01*
X142002528Y-127967534D01*
X142087600Y-127539847D01*
X142087600Y-126460153D01*
X142002528Y-126032466D01*
X141868113Y-125831300D01*
X142611886Y-125831300D01*
X142477472Y-126032466D01*
X142392400Y-126460153D01*
X142392400Y-127539847D01*
X142477472Y-127967534D01*
X142719737Y-128330110D01*
X143082313Y-128572375D01*
X143510000Y-128657447D01*
X143937687Y-128572375D01*
X144300263Y-128330110D01*
X144542528Y-127967534D01*
X144627600Y-127539847D01*
X144627600Y-126460153D01*
X144542528Y-126032466D01*
X144408113Y-125831300D01*
X147691886Y-125831300D01*
X147557472Y-126032466D01*
X147472400Y-126460153D01*
X147472400Y-127539847D01*
X147557472Y-127967534D01*
X147799737Y-128330110D01*
X148162313Y-128572375D01*
X148590000Y-128657447D01*
X149017687Y-128572375D01*
X149380263Y-128330110D01*
X149622528Y-127967534D01*
X149707600Y-127539847D01*
X149707600Y-126460153D01*
X149622528Y-126032466D01*
X149380263Y-125669890D01*
X149148800Y-125515231D01*
X149148800Y-125272500D01*
X149106264Y-125058656D01*
X148985131Y-124877369D01*
X148803844Y-124756236D01*
X148590000Y-124713700D01*
X125755061Y-124713700D01*
X108078310Y-107036948D01*
X108377687Y-106977399D01*
X108740263Y-106735134D01*
X108982528Y-106372558D01*
X109067600Y-105944871D01*
X109067600Y-105383129D01*
X109041588Y-105252357D01*
X109739573Y-104554373D01*
X109882730Y-104340124D01*
X109933000Y-104087400D01*
X109933000Y-101652600D01*
X109882730Y-101399876D01*
X109739573Y-101185627D01*
X109041588Y-100487642D01*
X109067600Y-100356871D01*
X109067600Y-99795129D01*
X108982528Y-99367442D01*
X108740263Y-99004866D01*
X108377687Y-98762601D01*
X108125186Y-98712375D01*
X124112162Y-82725400D01*
X132666900Y-82725400D01*
X132880743Y-82682864D01*
X132880744Y-82682864D01*
X133062031Y-82561731D01*
X134761131Y-80862631D01*
X134882264Y-80681344D01*
X134882264Y-80681343D01*
X134924799Y-80467500D01*
X134924800Y-80467500D01*
X134924800Y-80224768D01*
X135156263Y-80070110D01*
X135398528Y-79707534D01*
X135483600Y-79279847D01*
X135483600Y-78200153D01*
X135398528Y-77772466D01*
X135264113Y-77571300D01*
X136007886Y-77571300D01*
X135873472Y-77772466D01*
X135788400Y-78200153D01*
X135788400Y-79279847D01*
X135873472Y-79707534D01*
X136115737Y-80070110D01*
X136478313Y-80312375D01*
X136906000Y-80397447D01*
X137333687Y-80312375D01*
X137696263Y-80070110D01*
X137938528Y-79707534D01*
X138023600Y-79279847D01*
X138023600Y-78200153D01*
X137938528Y-77772466D01*
X137804113Y-77571300D01*
X138547886Y-77571300D01*
X138413472Y-77772466D01*
X138328400Y-78200153D01*
X138328400Y-79279847D01*
X138413472Y-79707534D01*
X138655737Y-80070110D01*
X139018313Y-80312375D01*
X139446000Y-80397447D01*
X139873687Y-80312375D01*
X140236263Y-80070110D01*
X140478528Y-79707534D01*
X140563600Y-79279847D01*
X140563600Y-78200153D01*
X140478528Y-77772466D01*
X140344113Y-77571300D01*
X142611886Y-77571300D01*
X142477472Y-77772466D01*
X142392400Y-78200153D01*
X142392400Y-79279847D01*
X142477472Y-79707534D01*
X142719737Y-80070110D01*
X143082313Y-80312375D01*
X143510000Y-80397447D01*
X143937687Y-80312375D01*
X144300263Y-80070110D01*
X144542528Y-79707534D01*
X144627600Y-79279847D01*
X144627600Y-78200153D01*
X144542528Y-77772466D01*
X144408113Y-77571300D01*
X145151886Y-77571300D01*
X145017472Y-77772466D01*
X144932400Y-78200153D01*
X144932400Y-79279847D01*
X145017472Y-79707534D01*
X145259737Y-80070110D01*
X145622313Y-80312375D01*
X146050000Y-80397447D01*
X146477687Y-80312375D01*
X146840263Y-80070110D01*
X147082528Y-79707534D01*
X147167600Y-79279847D01*
X147167600Y-78200153D01*
X147082528Y-77772466D01*
X146948113Y-77571300D01*
X147691886Y-77571300D01*
X147557472Y-77772466D01*
X147472400Y-78200153D01*
X147472400Y-79279847D01*
X147557472Y-79707534D01*
X147799737Y-80070110D01*
X148162313Y-80312375D01*
X148590000Y-80397447D01*
X149017687Y-80312375D01*
X149380263Y-80070110D01*
X149622528Y-79707534D01*
X149707600Y-79279847D01*
X149707600Y-78200153D01*
X149622528Y-77772466D01*
X149488113Y-77571300D01*
X150231886Y-77571300D01*
X150097472Y-77772466D01*
X150012400Y-78200153D01*
X150012400Y-79279847D01*
X150097472Y-79707534D01*
X150339737Y-80070110D01*
X150702313Y-80312375D01*
X151130000Y-80397447D01*
X151557687Y-80312375D01*
X151920263Y-80070110D01*
X152162528Y-79707534D01*
X152247600Y-79279847D01*
X152247600Y-78200153D01*
X152162528Y-77772466D01*
X152028113Y-77571300D01*
X152771886Y-77571300D01*
X152637472Y-77772466D01*
X152552400Y-78200153D01*
X152552400Y-79279847D01*
X152637472Y-79707534D01*
X152879737Y-80070110D01*
X153111200Y-80224768D01*
X153111200Y-80467500D01*
X153153736Y-80681344D01*
X153274869Y-80862631D01*
X153456156Y-80983764D01*
X153670000Y-81026300D01*
X170179638Y-81026300D01*
X175263908Y-86110570D01*
X175198200Y-86097500D01*
X155799900Y-86097500D01*
X155681012Y-85978404D01*
X155387048Y-85856339D01*
X155068748Y-85856061D01*
X154774572Y-85977613D01*
X154549304Y-86202488D01*
X154427239Y-86496452D01*
X154426961Y-86814752D01*
X154548513Y-87108928D01*
X154773388Y-87334196D01*
X155067352Y-87456261D01*
X155385652Y-87456539D01*
X155679828Y-87334987D01*
X155799924Y-87215100D01*
X174966738Y-87215100D01*
X175543358Y-87791720D01*
X175477900Y-87778700D01*
X154957962Y-87778700D01*
X153867692Y-86688430D01*
X153867839Y-86520148D01*
X153746287Y-86225972D01*
X153521412Y-86000704D01*
X153227448Y-85878639D01*
X152909148Y-85878361D01*
X152864330Y-85896879D01*
X152839800Y-85892000D01*
X123411200Y-85892000D01*
X123292312Y-85772904D01*
X122998348Y-85650839D01*
X122680048Y-85650561D01*
X122385872Y-85772113D01*
X122160604Y-85996988D01*
X122038539Y-86290952D01*
X122038261Y-86609252D01*
X122159813Y-86903428D01*
X122384688Y-87128696D01*
X122678652Y-87250761D01*
X122996952Y-87251039D01*
X123291128Y-87129487D01*
X123411224Y-87009600D01*
X123783621Y-87009600D01*
X123694739Y-87223652D01*
X123694461Y-87541952D01*
X123816013Y-87836128D01*
X124040888Y-88061396D01*
X124334852Y-88183461D01*
X124653152Y-88183739D01*
X124947328Y-88062187D01*
X125067424Y-87942300D01*
X148269837Y-87942300D01*
X152513207Y-92185670D01*
X152513061Y-92353952D01*
X152634613Y-92648128D01*
X152774340Y-92788100D01*
X136704171Y-92788100D01*
X136511812Y-92595404D01*
X136217848Y-92473339D01*
X135899548Y-92473061D01*
X135605372Y-92594613D01*
X135380104Y-92819488D01*
X135258039Y-93113452D01*
X135257761Y-93431752D01*
X135379313Y-93725928D01*
X135604188Y-93951196D01*
X135898152Y-94073261D01*
X136216452Y-94073539D01*
X136510628Y-93951987D01*
X136556995Y-93905700D01*
X165879799Y-93905700D01*
X165998688Y-94024796D01*
X166292652Y-94146861D01*
X166610952Y-94147139D01*
X166905128Y-94025587D01*
X167025224Y-93905700D01*
X176839638Y-93905700D01*
X178374438Y-95440500D01*
X166307700Y-95440500D01*
X166188812Y-95321404D01*
X165894848Y-95199339D01*
X165576548Y-95199061D01*
X165282372Y-95320613D01*
X165162275Y-95440500D01*
X136840100Y-95440500D01*
X136721212Y-95321404D01*
X136427248Y-95199339D01*
X136108948Y-95199061D01*
X135814772Y-95320613D01*
X135589504Y-95545488D01*
X135467439Y-95839452D01*
X135467161Y-96157752D01*
X135588713Y-96451928D01*
X135813588Y-96677196D01*
X136107552Y-96799261D01*
X136425852Y-96799539D01*
X136720028Y-96677987D01*
X136840124Y-96558100D01*
X165162299Y-96558100D01*
X165281188Y-96677196D01*
X165575152Y-96799261D01*
X165893452Y-96799539D01*
X166187628Y-96677987D01*
X166307724Y-96558100D01*
X178557637Y-96558100D01*
X179660137Y-97660600D01*
X125662262Y-97660600D01*
X124337792Y-96336130D01*
X124337939Y-96167848D01*
X124216387Y-95873672D01*
X123991512Y-95648404D01*
X123806911Y-95571750D01*
X125590162Y-93788500D01*
X125660299Y-93788500D01*
X125779188Y-93907596D01*
X126073152Y-94029661D01*
X126391452Y-94029939D01*
X126685628Y-93908387D01*
X126910896Y-93683512D01*
X127032961Y-93389548D01*
X127033239Y-93071248D01*
X126911687Y-92777072D01*
X126686812Y-92551804D01*
X126392848Y-92429739D01*
X126074548Y-92429461D01*
X125780372Y-92551013D01*
X125660275Y-92670900D01*
X125358700Y-92670900D01*
X125144856Y-92713436D01*
X124963569Y-92834569D01*
X119283900Y-98514238D01*
X119283900Y-97001662D01*
X125264369Y-91021192D01*
X125432652Y-91021339D01*
X125726828Y-90899787D01*
X125952096Y-90674912D01*
X126074161Y-90380948D01*
X126074439Y-90062648D01*
X125952887Y-89768472D01*
X125728012Y-89543204D01*
X125434048Y-89421139D01*
X125115748Y-89420861D01*
X124821572Y-89542413D01*
X124596304Y-89767288D01*
X124474239Y-90061252D01*
X124474090Y-90230947D01*
X118329969Y-96375069D01*
X118208836Y-96556356D01*
X118166300Y-96770200D01*
X118166300Y-104552800D01*
X118208836Y-104766644D01*
X118329969Y-104947931D01*
X119658168Y-106276131D01*
X119658169Y-106276131D01*
X119839456Y-106397264D01*
X120053300Y-106439800D01*
X120912637Y-106439800D01*
X122631200Y-108158362D01*
X122631200Y-111169207D01*
X122399737Y-111323866D01*
X122157472Y-111686442D01*
X122072400Y-112114129D01*
X122072400Y-112675871D01*
X122157472Y-113103558D01*
X122399737Y-113466134D01*
X122762313Y-113708399D01*
X123190000Y-113793471D01*
X123617687Y-113708399D01*
X123980263Y-113466134D01*
X124222528Y-113103558D01*
X124307600Y-112675871D01*
X124307600Y-112114129D01*
X124222528Y-111686442D01*
X123980263Y-111323866D01*
X123748800Y-111169207D01*
X123748800Y-107926900D01*
X123706265Y-107713057D01*
X123706264Y-107713056D01*
X123585132Y-107531769D01*
X121934362Y-105880999D01*
X122365631Y-105449731D01*
X122377538Y-105431910D01*
X122399737Y-105465134D01*
X122762313Y-105707399D01*
X123190000Y-105792471D01*
X123617687Y-105707399D01*
X123980263Y-105465134D01*
X124222528Y-105102558D01*
X124307600Y-104674871D01*
X124307600Y-104113129D01*
X124222528Y-103685442D01*
X123980263Y-103322866D01*
X123617687Y-103080601D01*
X123190000Y-102995529D01*
X122762313Y-103080601D01*
X122399737Y-103322866D01*
X122227124Y-103581200D01*
X121970500Y-103581200D01*
X121756656Y-103623736D01*
X121676903Y-103677025D01*
X121440263Y-103322866D01*
X121208800Y-103168207D01*
X121208800Y-102920500D01*
X121194157Y-102846885D01*
X121541708Y-102654480D01*
X121877363Y-102232970D01*
X121920000Y-102084578D01*
X121962637Y-102232970D01*
X122298292Y-102654480D01*
X122769701Y-102915454D01*
X122826239Y-102922484D01*
X123037600Y-102809637D01*
X123037600Y-101498400D01*
X123037600Y-101193600D01*
X123037600Y-99882363D01*
X122826239Y-99769516D01*
X122769701Y-99776546D01*
X122298292Y-100037520D01*
X121962637Y-100459030D01*
X121920000Y-100607421D01*
X121877363Y-100459030D01*
X121541708Y-100037520D01*
X121070299Y-99776546D01*
X121013761Y-99769516D01*
X120802400Y-99882363D01*
X120802400Y-101193600D01*
X121874825Y-101193600D01*
X121920000Y-101128915D01*
X121965175Y-101193600D01*
X123037600Y-101193600D01*
X123037600Y-101498400D01*
X121965175Y-101498400D01*
X121920000Y-101563084D01*
X121874825Y-101498400D01*
X120802400Y-101498400D01*
X120802400Y-101518400D01*
X120497600Y-101518400D01*
X120497600Y-101498400D01*
X120477600Y-101498400D01*
X120477600Y-101193600D01*
X120497600Y-101193600D01*
X120497600Y-99882363D01*
X120286239Y-99769516D01*
X120229701Y-99776546D01*
X119944700Y-99934323D01*
X119944700Y-99433962D01*
X122783204Y-96595457D01*
X122859013Y-96778928D01*
X123083888Y-97004196D01*
X123377852Y-97126261D01*
X123547547Y-97126409D01*
X125035669Y-98614531D01*
X125216956Y-98735664D01*
X125216957Y-98735665D01*
X125430800Y-98778200D01*
X179818637Y-98778200D01*
X182030837Y-100990400D01*
X181762400Y-100990400D01*
X181762400Y-102717600D01*
X181782400Y-102717600D01*
X181782400Y-103022400D01*
X181762400Y-103022400D01*
X181762400Y-104749600D01*
X182397400Y-104749600D01*
X183105091Y-104548203D01*
X183681841Y-104091315D01*
X183868200Y-103756693D01*
X183868200Y-107334282D01*
X183791147Y-106946910D01*
X183438761Y-106419527D01*
X182911378Y-106067141D01*
X182289288Y-105943400D01*
X181457600Y-105943400D01*
X181457600Y-104749600D01*
X181457600Y-103022400D01*
X181457600Y-102717600D01*
X181457600Y-100990400D01*
X180822600Y-100990400D01*
X180114909Y-101191797D01*
X179538159Y-101648685D01*
X179180155Y-102291507D01*
X179148494Y-102426410D01*
X179254537Y-102717600D01*
X181457600Y-102717600D01*
X181457600Y-103022400D01*
X179254537Y-103022400D01*
X179148494Y-103313590D01*
X179180155Y-103448493D01*
X179538159Y-104091315D01*
X180114909Y-104548203D01*
X180822600Y-104749600D01*
X181457600Y-104749600D01*
X181457600Y-105943400D01*
X180930712Y-105943400D01*
X180308622Y-106067141D01*
X179781239Y-106419527D01*
X179428853Y-106946910D01*
X179305112Y-107569000D01*
X179428853Y-108191090D01*
X179781239Y-108718473D01*
X180308622Y-109070859D01*
X180930712Y-109194600D01*
X182289288Y-109194600D01*
X182911378Y-109070859D01*
X183438761Y-108718473D01*
X183791147Y-108191090D01*
X183868200Y-107803717D01*
X183868200Y-111732500D01*
X183910736Y-111946344D01*
X184031869Y-112127631D01*
X189139369Y-117235131D01*
X189320656Y-117356264D01*
X189320657Y-117356264D01*
X189534500Y-117398800D01*
X189777231Y-117398800D01*
X189931890Y-117630263D01*
X190294466Y-117872528D01*
X190722153Y-117957600D01*
X191801847Y-117957600D01*
X192229534Y-117872528D01*
X192592110Y-117630263D01*
X192834375Y-117267687D01*
X192919447Y-116840000D01*
X192834375Y-116412313D01*
X192592110Y-116049737D01*
X192229534Y-115807472D01*
X191801847Y-115722400D01*
X190722153Y-115722400D01*
X190294466Y-115807472D01*
X189931890Y-116049737D01*
X189777231Y-116281200D01*
X189765962Y-116281200D01*
X184985800Y-111501038D01*
X184985800Y-110541562D01*
X189139369Y-114695131D01*
X189320656Y-114816264D01*
X189320657Y-114816264D01*
X189534500Y-114858800D01*
X189777231Y-114858800D01*
X189931890Y-115090263D01*
X190294466Y-115332528D01*
X190722153Y-115417600D01*
X191801847Y-115417600D01*
X192229534Y-115332528D01*
X192592110Y-115090263D01*
X192806508Y-114769392D01*
X192876656Y-114816264D01*
X193090500Y-114858800D01*
X193333231Y-114858800D01*
X193487890Y-115090263D01*
X193850466Y-115332528D01*
X194278153Y-115417600D01*
X195357847Y-115417600D01*
X195785534Y-115332528D01*
X195986700Y-115198113D01*
X195986700Y-115941886D01*
X195785534Y-115807472D01*
X195357847Y-115722400D01*
X194278153Y-115722400D01*
X193850466Y-115807472D01*
X193487890Y-116049737D01*
X193245625Y-116412313D01*
X193160553Y-116840000D01*
X193245625Y-117267687D01*
X193487890Y-117630263D01*
X193850466Y-117872528D01*
X194278153Y-117957600D01*
X195357847Y-117957600D01*
X195785534Y-117872528D01*
X196148110Y-117630263D01*
X196302768Y-117398800D01*
X196545500Y-117398800D01*
X196759344Y-117356264D01*
X196940631Y-117235131D01*
X197061764Y-117053844D01*
X197104300Y-116840000D01*
X197104300Y-104556582D01*
X197706070Y-105353656D01*
X198596103Y-105876841D01*
X198903127Y-105958891D01*
X199313800Y-105862530D01*
X199313800Y-103022400D01*
X199293800Y-103022400D01*
X199293800Y-102717600D01*
X199313800Y-102717600D01*
X199313800Y-99877470D01*
X198903127Y-99781109D01*
X198596103Y-99863159D01*
X197706070Y-100386344D01*
X197104300Y-101183417D01*
X197104300Y-101076400D01*
X197061764Y-100862557D01*
X197061764Y-100862556D01*
X196940631Y-100681269D01*
X196194231Y-99934869D01*
X196107859Y-99877157D01*
X196148110Y-99850263D01*
X196390375Y-99487687D01*
X196475447Y-99060000D01*
X196390375Y-98632313D01*
X196200938Y-98348800D01*
X198224938Y-98348800D01*
X199727949Y-99851811D01*
X199618600Y-99877470D01*
X199618600Y-102717600D01*
X199638600Y-102717600D01*
X199638600Y-103022400D01*
X199618600Y-103022400D01*
X199618600Y-105862530D01*
X200029273Y-105958891D01*
X200336297Y-105876841D01*
X201226330Y-105353656D01*
X201404300Y-105117926D01*
X201404300Y-111994209D01*
X201198688Y-111821128D01*
X200685400Y-111658400D01*
X200177400Y-111658400D01*
X200177400Y-112877600D01*
X200197400Y-112877600D01*
X200197400Y-113182400D01*
X200177400Y-113182400D01*
X200177400Y-114401600D01*
X200685400Y-114401600D01*
X201198688Y-114238872D01*
X201404300Y-114065790D01*
X201404300Y-114853355D01*
X201355110Y-114779737D01*
X200992534Y-114537472D01*
X200564847Y-114452400D01*
X199872600Y-114452400D01*
X199872600Y-114401600D01*
X199872600Y-113182400D01*
X199872600Y-112877600D01*
X199872600Y-111658400D01*
X199364600Y-111658400D01*
X198851312Y-111821128D01*
X198439369Y-112167896D01*
X198194516Y-112666239D01*
X198307363Y-112877600D01*
X199872600Y-112877600D01*
X199872600Y-113182400D01*
X198307363Y-113182400D01*
X198194516Y-113393761D01*
X198439369Y-113892104D01*
X198851312Y-114238872D01*
X199364600Y-114401600D01*
X199872600Y-114401600D01*
X199872600Y-114452400D01*
X199485153Y-114452400D01*
X199057466Y-114537472D01*
X198694890Y-114779737D01*
X198452625Y-115142313D01*
X198367553Y-115570000D01*
X198452625Y-115997687D01*
X198694890Y-116360263D01*
X199057466Y-116602528D01*
X199485153Y-116687600D01*
X200564847Y-116687600D01*
X200992534Y-116602528D01*
X201355110Y-116360263D01*
X201404300Y-116286644D01*
X201404300Y-117393355D01*
X201355110Y-117319737D01*
X200992534Y-117077472D01*
X200564847Y-116992400D01*
X199485153Y-116992400D01*
X199057466Y-117077472D01*
X198694890Y-117319737D01*
X198452625Y-117682313D01*
X198367553Y-118110000D01*
X198452625Y-118537687D01*
X198694890Y-118900263D01*
X199057466Y-119142528D01*
X199485153Y-119227600D01*
X200564847Y-119227600D01*
X200901502Y-119160635D01*
X196475447Y-123586690D01*
X196475447Y-121920000D01*
X196475447Y-119380000D01*
X196390375Y-118952313D01*
X196148110Y-118589737D01*
X195785534Y-118347472D01*
X195357847Y-118262400D01*
X194278153Y-118262400D01*
X193850466Y-118347472D01*
X193487890Y-118589737D01*
X193245625Y-118952313D01*
X193160553Y-119380000D01*
X193245625Y-119807687D01*
X193487890Y-120170263D01*
X193850466Y-120412528D01*
X194278153Y-120497600D01*
X195357847Y-120497600D01*
X195785534Y-120412528D01*
X196148110Y-120170263D01*
X196390375Y-119807687D01*
X196475447Y-119380000D01*
X196475447Y-121920000D01*
X196390375Y-121492313D01*
X196148110Y-121129737D01*
X195785534Y-120887472D01*
X195357847Y-120802400D01*
X194278153Y-120802400D01*
X193850466Y-120887472D01*
X193487890Y-121129737D01*
X193245625Y-121492313D01*
X193160553Y-121920000D01*
X193245625Y-122347687D01*
X193487890Y-122710263D01*
X193850466Y-122952528D01*
X194278153Y-123037600D01*
X195357847Y-123037600D01*
X195785534Y-122952528D01*
X196148110Y-122710263D01*
X196390375Y-122347687D01*
X196475447Y-121920000D01*
X196475447Y-123586690D01*
X196175738Y-123886400D01*
X192919447Y-123886400D01*
X192919447Y-121920000D01*
X192919447Y-119380000D01*
X192834375Y-118952313D01*
X192592110Y-118589737D01*
X192229534Y-118347472D01*
X191801847Y-118262400D01*
X190722153Y-118262400D01*
X190294466Y-118347472D01*
X189931890Y-118589737D01*
X189689625Y-118952313D01*
X189604553Y-119380000D01*
X189689625Y-119807687D01*
X189931890Y-120170263D01*
X190294466Y-120412528D01*
X190722153Y-120497600D01*
X191801847Y-120497600D01*
X192229534Y-120412528D01*
X192592110Y-120170263D01*
X192834375Y-119807687D01*
X192919447Y-119380000D01*
X192919447Y-121920000D01*
X192834375Y-121492313D01*
X192592110Y-121129737D01*
X192229534Y-120887472D01*
X191801847Y-120802400D01*
X190722153Y-120802400D01*
X190294466Y-120887472D01*
X189931890Y-121129737D01*
X189689625Y-121492313D01*
X189604553Y-121920000D01*
X189689625Y-122347687D01*
X189931890Y-122710263D01*
X190294466Y-122952528D01*
X190722153Y-123037600D01*
X191801847Y-123037600D01*
X192229534Y-122952528D01*
X192592110Y-122710263D01*
X192834375Y-122347687D01*
X192919447Y-121920000D01*
X192919447Y-123886400D01*
X187477439Y-123886400D01*
X187477439Y-119540848D01*
X187355887Y-119246672D01*
X187131012Y-119021404D01*
X186837048Y-118899339D01*
X186703439Y-118899222D01*
X186703439Y-116833248D01*
X186581887Y-116539072D01*
X186357012Y-116313804D01*
X186063048Y-116191739D01*
X185744748Y-116191461D01*
X185450572Y-116313013D01*
X185225304Y-116537888D01*
X185103239Y-116831852D01*
X185103090Y-117001547D01*
X184857938Y-117246700D01*
X184626867Y-117246700D01*
X184626867Y-114350800D01*
X184600559Y-114215211D01*
X184522277Y-114096041D01*
X184404099Y-114016269D01*
X184264300Y-113988233D01*
X182765700Y-113988233D01*
X182630111Y-114014541D01*
X182510941Y-114092823D01*
X182431169Y-114211001D01*
X182403133Y-114350800D01*
X182403133Y-117348000D01*
X182429441Y-117483589D01*
X182507723Y-117602759D01*
X182625901Y-117682531D01*
X182765700Y-117710567D01*
X182956200Y-117710567D01*
X182956200Y-117805500D01*
X182998736Y-118019344D01*
X183119869Y-118200631D01*
X183301156Y-118321764D01*
X183515000Y-118364300D01*
X185089400Y-118364300D01*
X185303243Y-118321764D01*
X185303244Y-118321764D01*
X185484531Y-118200631D01*
X185893369Y-117791792D01*
X186061652Y-117791939D01*
X186355828Y-117670387D01*
X186581096Y-117445512D01*
X186703161Y-117151548D01*
X186703439Y-116833248D01*
X186703439Y-118899222D01*
X186518748Y-118899061D01*
X186426203Y-118937300D01*
X185996100Y-118937300D01*
X185896867Y-118957038D01*
X185896867Y-118872000D01*
X185870559Y-118736411D01*
X185792277Y-118617241D01*
X185674099Y-118537469D01*
X185534300Y-118509433D01*
X184035700Y-118509433D01*
X183900111Y-118535741D01*
X183780941Y-118614023D01*
X183701169Y-118732201D01*
X183673133Y-118872000D01*
X183673133Y-121869200D01*
X183699441Y-122004789D01*
X183777723Y-122123959D01*
X183895901Y-122203731D01*
X184035700Y-122231767D01*
X184415800Y-122231767D01*
X184415800Y-122331132D01*
X184377839Y-122422552D01*
X184377561Y-122740852D01*
X184499113Y-123035028D01*
X184723988Y-123260296D01*
X185017952Y-123382361D01*
X185336252Y-123382639D01*
X185630428Y-123261087D01*
X185855696Y-123036212D01*
X185977761Y-122742248D01*
X185978039Y-122423948D01*
X185939800Y-122331403D01*
X185939800Y-121843000D01*
X185896867Y-121627163D01*
X185896867Y-121627161D01*
X185896867Y-120876163D01*
X186311730Y-120461300D01*
X186425932Y-120461300D01*
X186517352Y-120499261D01*
X186835652Y-120499539D01*
X187129828Y-120377987D01*
X187355096Y-120153112D01*
X187477161Y-119859148D01*
X187477439Y-119540848D01*
X187477439Y-123886400D01*
X184030162Y-123886400D01*
X182803800Y-122660037D01*
X182803800Y-122326700D01*
X182803800Y-122231767D01*
X182994300Y-122231767D01*
X183129889Y-122205459D01*
X183249059Y-122127177D01*
X183328831Y-122008999D01*
X183356867Y-121869200D01*
X183356867Y-118872000D01*
X183330559Y-118736411D01*
X183252277Y-118617241D01*
X183134099Y-118537469D01*
X182994300Y-118509433D01*
X182086867Y-118509433D01*
X182086867Y-117348000D01*
X182086867Y-114350800D01*
X182060559Y-114215211D01*
X181982277Y-114096041D01*
X181864099Y-114016269D01*
X181724300Y-113988233D01*
X181533800Y-113988233D01*
X181533800Y-113893300D01*
X181491264Y-113679456D01*
X181370131Y-113498169D01*
X181188844Y-113377036D01*
X180975000Y-113334500D01*
X180577062Y-113334500D01*
X178787092Y-111544530D01*
X178787239Y-111376248D01*
X178665687Y-111082072D01*
X178440812Y-110856804D01*
X178146848Y-110734739D01*
X177828548Y-110734461D01*
X177534372Y-110856013D01*
X177309104Y-111080888D01*
X177187039Y-111374852D01*
X177186761Y-111693152D01*
X177308313Y-111987328D01*
X177533188Y-112212596D01*
X177827152Y-112334661D01*
X177996847Y-112334809D01*
X179888140Y-114226102D01*
X179863133Y-114350800D01*
X179863133Y-117348000D01*
X179889441Y-117483589D01*
X179967723Y-117602759D01*
X180085901Y-117682531D01*
X180225700Y-117710567D01*
X181724300Y-117710567D01*
X181859889Y-117684259D01*
X181979059Y-117605977D01*
X182058831Y-117487799D01*
X182086867Y-117348000D01*
X182086867Y-118509433D01*
X181495700Y-118509433D01*
X181360111Y-118535741D01*
X181240941Y-118614023D01*
X181161169Y-118732201D01*
X181133133Y-118872000D01*
X181133133Y-121869200D01*
X181159441Y-122004789D01*
X181237723Y-122123959D01*
X181355901Y-122203731D01*
X181495700Y-122231767D01*
X181686200Y-122231767D01*
X181686200Y-122326700D01*
X181686200Y-122332700D01*
X178449527Y-122332700D01*
X178528361Y-122142848D01*
X178528383Y-122116962D01*
X178627812Y-122017533D01*
X178697723Y-122123959D01*
X178815901Y-122203731D01*
X178955700Y-122231767D01*
X180454300Y-122231767D01*
X180589889Y-122205459D01*
X180709059Y-122127177D01*
X180788831Y-122008999D01*
X180816867Y-121869200D01*
X180816867Y-118872000D01*
X180790559Y-118736411D01*
X180712277Y-118617241D01*
X180594099Y-118537469D01*
X180454300Y-118509433D01*
X180365400Y-118509433D01*
X180365400Y-118312900D01*
X180315130Y-118060176D01*
X180171973Y-117845927D01*
X179766173Y-117440127D01*
X179551924Y-117296970D01*
X179546867Y-117295964D01*
X179546867Y-114350800D01*
X179520559Y-114215211D01*
X179442277Y-114096041D01*
X179324099Y-114016269D01*
X179184300Y-113988233D01*
X177685700Y-113988233D01*
X177550111Y-114014541D01*
X177430941Y-114092823D01*
X177351169Y-114211001D01*
X177323133Y-114350800D01*
X177323133Y-117348000D01*
X177349441Y-117483589D01*
X177427723Y-117602759D01*
X177545901Y-117682531D01*
X177685700Y-117710567D01*
X177774600Y-117710567D01*
X177774600Y-117907100D01*
X177824870Y-118159824D01*
X177968027Y-118374073D01*
X178182276Y-118517230D01*
X178435000Y-118567500D01*
X178771763Y-118567500D01*
X178700941Y-118614023D01*
X178621169Y-118732201D01*
X178593133Y-118872000D01*
X178593133Y-120184321D01*
X177594671Y-121182782D01*
X177569948Y-121182761D01*
X177275772Y-121304313D01*
X177050504Y-121529188D01*
X176928439Y-121823152D01*
X176928161Y-122141452D01*
X177007183Y-122332700D01*
X176616881Y-122332700D01*
X176616939Y-122266848D01*
X176495387Y-121972672D01*
X176270512Y-121747404D01*
X175976548Y-121625339D01*
X175658248Y-121625061D01*
X175364072Y-121746613D01*
X175138804Y-121971488D01*
X175016739Y-122265452D01*
X175016461Y-122583752D01*
X175138013Y-122877928D01*
X175362888Y-123103196D01*
X175656852Y-123225261D01*
X175826546Y-123225409D01*
X175887768Y-123286631D01*
X175887769Y-123286631D01*
X175978412Y-123347197D01*
X176069056Y-123407764D01*
X176069057Y-123407764D01*
X176282900Y-123450300D01*
X182013537Y-123450300D01*
X183403569Y-124840332D01*
X183584856Y-124961464D01*
X183584857Y-124961465D01*
X183798700Y-125004000D01*
X193054698Y-125004000D01*
X192995223Y-125028575D01*
X192340873Y-125681784D01*
X191986304Y-126535680D01*
X191985497Y-127460264D01*
X192338575Y-128314777D01*
X192991784Y-128969127D01*
X193845680Y-129323696D01*
X194770264Y-129324503D01*
X195624777Y-128971425D01*
X196279127Y-128318216D01*
X196633696Y-127464320D01*
X196634503Y-126539736D01*
X196281425Y-125685223D01*
X195628216Y-125030873D01*
X195563498Y-125004000D01*
X196407200Y-125004000D01*
X196621043Y-124961464D01*
X196621044Y-124961464D01*
X196802331Y-124840331D01*
X202358231Y-119284431D01*
X202479364Y-119103144D01*
X202479364Y-119103143D01*
X202521900Y-118889300D01*
X202521900Y-103836514D01*
X202884165Y-104378683D01*
X203576355Y-104841189D01*
X204392848Y-105003600D01*
X205512352Y-105003600D01*
X206328845Y-104841189D01*
X207021035Y-104378683D01*
X207452691Y-103732662D01*
X207708650Y-103989067D01*
X208193924Y-104190570D01*
X208719371Y-104191029D01*
X209204996Y-103990373D01*
X209576867Y-103619150D01*
X209778370Y-103133876D01*
X209778829Y-102608429D01*
X209778829Y-129755900D01*
X209403528Y-129755900D01*
X209403528Y-107365800D01*
X209241117Y-106549307D01*
X208778611Y-105857117D01*
X208086421Y-105394611D01*
X207269928Y-105232200D01*
X205632472Y-105232200D01*
X204815979Y-105394611D01*
X204123789Y-105857117D01*
X203661283Y-106549307D01*
X203498872Y-107365800D01*
X203661283Y-108182293D01*
X204123789Y-108874483D01*
X204815979Y-109336989D01*
X205632472Y-109499400D01*
X207269928Y-109499400D01*
X208086421Y-109336989D01*
X208778611Y-108874483D01*
X209241117Y-108182293D01*
X209403528Y-107365800D01*
X209403528Y-129755900D01*
X190347600Y-129755900D01*
X190347600Y-127539847D01*
X190347600Y-126460153D01*
X190262528Y-126032466D01*
X190020263Y-125669890D01*
X189657687Y-125427625D01*
X189230000Y-125342553D01*
X188802313Y-125427625D01*
X188439737Y-125669890D01*
X188197472Y-126032466D01*
X188112400Y-126460153D01*
X188112400Y-127539847D01*
X188197472Y-127967534D01*
X188439737Y-128330110D01*
X188802313Y-128572375D01*
X189230000Y-128657447D01*
X189657687Y-128572375D01*
X190020263Y-128330110D01*
X190262528Y-127967534D01*
X190347600Y-127539847D01*
X190347600Y-129755900D01*
X187807600Y-129755900D01*
X187807600Y-127539847D01*
X187807600Y-126460153D01*
X187722528Y-126032466D01*
X187480263Y-125669890D01*
X187117687Y-125427625D01*
X186690000Y-125342553D01*
X186262313Y-125427625D01*
X185899737Y-125669890D01*
X185657472Y-126032466D01*
X185572400Y-126460153D01*
X185572400Y-127539847D01*
X185657472Y-127967534D01*
X185899737Y-128330110D01*
X186262313Y-128572375D01*
X186690000Y-128657447D01*
X187117687Y-128572375D01*
X187480263Y-128330110D01*
X187722528Y-127967534D01*
X187807600Y-127539847D01*
X187807600Y-129755900D01*
X185267600Y-129755900D01*
X185267600Y-127539847D01*
X185267600Y-126460153D01*
X185182528Y-126032466D01*
X184940263Y-125669890D01*
X184577687Y-125427625D01*
X184150000Y-125342553D01*
X183722313Y-125427625D01*
X183359737Y-125669890D01*
X183117472Y-126032466D01*
X183032400Y-126460153D01*
X183032400Y-127539847D01*
X183117472Y-127967534D01*
X183359737Y-128330110D01*
X183722313Y-128572375D01*
X184150000Y-128657447D01*
X184577687Y-128572375D01*
X184940263Y-128330110D01*
X185182528Y-127967534D01*
X185267600Y-127539847D01*
X185267600Y-129755900D01*
X182727600Y-129755900D01*
X182727600Y-127539847D01*
X182727600Y-126460153D01*
X182642528Y-126032466D01*
X182400263Y-125669890D01*
X182037687Y-125427625D01*
X181610000Y-125342553D01*
X181182313Y-125427625D01*
X180819737Y-125669890D01*
X180577472Y-126032466D01*
X180492400Y-126460153D01*
X180492400Y-127539847D01*
X180577472Y-127967534D01*
X180819737Y-128330110D01*
X181182313Y-128572375D01*
X181610000Y-128657447D01*
X182037687Y-128572375D01*
X182400263Y-128330110D01*
X182642528Y-127967534D01*
X182727600Y-127539847D01*
X182727600Y-129755900D01*
X180187600Y-129755900D01*
X180187600Y-127539847D01*
X180187600Y-126460153D01*
X180102528Y-126032466D01*
X179860263Y-125669890D01*
X179497687Y-125427625D01*
X179070000Y-125342553D01*
X178642313Y-125427625D01*
X178279737Y-125669890D01*
X178037472Y-126032466D01*
X177952400Y-126460153D01*
X177952400Y-127539847D01*
X178037472Y-127967534D01*
X178279737Y-128330110D01*
X178642313Y-128572375D01*
X179070000Y-128657447D01*
X179497687Y-128572375D01*
X179860263Y-128330110D01*
X180102528Y-127967534D01*
X180187600Y-127539847D01*
X180187600Y-129755900D01*
X177647600Y-129755900D01*
X177647600Y-127539847D01*
X177647600Y-126460153D01*
X177562528Y-126032466D01*
X177320263Y-125669890D01*
X176957687Y-125427625D01*
X176530000Y-125342553D01*
X176102313Y-125427625D01*
X175739737Y-125669890D01*
X175497472Y-126032466D01*
X175412400Y-126460153D01*
X175412400Y-127539847D01*
X175497472Y-127967534D01*
X175739737Y-128330110D01*
X176102313Y-128572375D01*
X176530000Y-128657447D01*
X176957687Y-128572375D01*
X177320263Y-128330110D01*
X177562528Y-127967534D01*
X177647600Y-127539847D01*
X177647600Y-129755900D01*
X175107600Y-129755900D01*
X175107600Y-127539847D01*
X175107600Y-126460153D01*
X175022528Y-126032466D01*
X174780263Y-125669890D01*
X174417687Y-125427625D01*
X173990000Y-125342553D01*
X173562313Y-125427625D01*
X173199737Y-125669890D01*
X172957472Y-126032466D01*
X172872400Y-126460153D01*
X172872400Y-127539847D01*
X172957472Y-127967534D01*
X173199737Y-128330110D01*
X173562313Y-128572375D01*
X173990000Y-128657447D01*
X174417687Y-128572375D01*
X174780263Y-128330110D01*
X175022528Y-127967534D01*
X175107600Y-127539847D01*
X175107600Y-129755900D01*
X172567600Y-129755900D01*
X172567600Y-127539847D01*
X172567600Y-126460153D01*
X172482528Y-126032466D01*
X172240263Y-125669890D01*
X171877687Y-125427625D01*
X171450000Y-125342553D01*
X171022313Y-125427625D01*
X170659737Y-125669890D01*
X170417472Y-126032466D01*
X170332400Y-126460153D01*
X170332400Y-127539847D01*
X170417472Y-127967534D01*
X170659737Y-128330110D01*
X171022313Y-128572375D01*
X171450000Y-128657447D01*
X171877687Y-128572375D01*
X172240263Y-128330110D01*
X172482528Y-127967534D01*
X172567600Y-127539847D01*
X172567600Y-129755900D01*
X170281600Y-129755900D01*
X170281600Y-102483257D01*
X170281600Y-102240743D01*
X170281600Y-101650800D01*
X170281600Y-101041200D01*
X170281600Y-100451257D01*
X170281600Y-100208743D01*
X170188794Y-99984689D01*
X170017311Y-99813206D01*
X169793257Y-99720400D01*
X169214800Y-99720400D01*
X169062400Y-99872800D01*
X169062400Y-101193600D01*
X170129200Y-101193600D01*
X170281600Y-101041200D01*
X170281600Y-101650800D01*
X170129200Y-101498400D01*
X169062400Y-101498400D01*
X169062400Y-102819200D01*
X169214800Y-102971600D01*
X169793257Y-102971600D01*
X170017311Y-102878794D01*
X170188794Y-102707311D01*
X170281600Y-102483257D01*
X170281600Y-129755900D01*
X170027600Y-129755900D01*
X170027600Y-117755871D01*
X170027600Y-117194129D01*
X170027600Y-112675871D01*
X170027600Y-112114129D01*
X170027600Y-104674871D01*
X170027600Y-104113129D01*
X169942528Y-103685442D01*
X169700263Y-103322866D01*
X169337687Y-103080601D01*
X168910000Y-102995529D01*
X168757600Y-103025843D01*
X168757600Y-102819200D01*
X168757600Y-101498400D01*
X168757600Y-101193600D01*
X168757600Y-99872800D01*
X168605200Y-99720400D01*
X168026743Y-99720400D01*
X167802689Y-99813206D01*
X167631206Y-99984689D01*
X167538400Y-100208743D01*
X167538400Y-100384985D01*
X167261708Y-100037520D01*
X166790299Y-99776546D01*
X166733761Y-99769516D01*
X166522400Y-99882363D01*
X166522400Y-101193600D01*
X167594825Y-101193600D01*
X167634290Y-101137090D01*
X167690800Y-101193600D01*
X168757600Y-101193600D01*
X168757600Y-101498400D01*
X167690800Y-101498400D01*
X167634290Y-101554909D01*
X167594825Y-101498400D01*
X166522400Y-101498400D01*
X166522400Y-102809637D01*
X166733761Y-102922484D01*
X166790299Y-102915454D01*
X167261708Y-102654480D01*
X167538400Y-102307014D01*
X167538400Y-102483257D01*
X167631206Y-102707311D01*
X167802689Y-102878794D01*
X168026743Y-102971600D01*
X168605200Y-102971600D01*
X168757600Y-102819200D01*
X168757600Y-103025843D01*
X168482313Y-103080601D01*
X168119737Y-103322866D01*
X167877472Y-103685442D01*
X167792400Y-104113129D01*
X167792400Y-104674871D01*
X167877472Y-105102558D01*
X168119737Y-105465134D01*
X168482313Y-105707399D01*
X168910000Y-105792471D01*
X169337687Y-105707399D01*
X169700263Y-105465134D01*
X169942528Y-105102558D01*
X170027600Y-104674871D01*
X170027600Y-112114129D01*
X169942528Y-111686442D01*
X169700263Y-111323866D01*
X169337687Y-111081601D01*
X168910000Y-110996529D01*
X168482313Y-111081601D01*
X168119737Y-111323866D01*
X167877472Y-111686442D01*
X167792400Y-112114129D01*
X167792400Y-112675871D01*
X167877472Y-113103558D01*
X168119737Y-113466134D01*
X168482313Y-113708399D01*
X168910000Y-113793471D01*
X169337687Y-113708399D01*
X169700263Y-113466134D01*
X169942528Y-113103558D01*
X170027600Y-112675871D01*
X170027600Y-117194129D01*
X169942528Y-116766442D01*
X169700263Y-116403866D01*
X169337687Y-116161601D01*
X168910000Y-116076529D01*
X168482313Y-116161601D01*
X168119737Y-116403866D01*
X167913180Y-116713000D01*
X167487600Y-116713000D01*
X167487600Y-112675871D01*
X167487600Y-112114129D01*
X167487600Y-104674871D01*
X167487600Y-104113129D01*
X167402528Y-103685442D01*
X167160263Y-103322866D01*
X166797687Y-103080601D01*
X166370000Y-102995529D01*
X166217600Y-103025843D01*
X166217600Y-102809637D01*
X166217600Y-101498400D01*
X166217600Y-101193600D01*
X166217600Y-99882363D01*
X166006239Y-99769516D01*
X165949701Y-99776546D01*
X165478292Y-100037520D01*
X165142637Y-100459030D01*
X165100000Y-100607421D01*
X165057363Y-100459030D01*
X164721708Y-100037520D01*
X164250299Y-99776546D01*
X164193761Y-99769516D01*
X163982400Y-99882363D01*
X163982400Y-101193600D01*
X165054825Y-101193600D01*
X165100000Y-101128915D01*
X165145175Y-101193600D01*
X166217600Y-101193600D01*
X166217600Y-101498400D01*
X165145175Y-101498400D01*
X165100000Y-101563084D01*
X165054825Y-101498400D01*
X163982400Y-101498400D01*
X163982400Y-102809637D01*
X164193761Y-102922484D01*
X164250299Y-102915454D01*
X164721708Y-102654480D01*
X165057363Y-102232970D01*
X165100000Y-102084578D01*
X165142637Y-102232970D01*
X165478292Y-102654480D01*
X165949701Y-102915454D01*
X166006239Y-102922484D01*
X166217600Y-102809637D01*
X166217600Y-103025843D01*
X165942313Y-103080601D01*
X165579737Y-103322866D01*
X165337472Y-103685442D01*
X165252400Y-104113129D01*
X165252400Y-104674871D01*
X165337472Y-105102558D01*
X165579737Y-105465134D01*
X165942313Y-105707399D01*
X166370000Y-105792471D01*
X166797687Y-105707399D01*
X167160263Y-105465134D01*
X167402528Y-105102558D01*
X167487600Y-104674871D01*
X167487600Y-112114129D01*
X167402528Y-111686442D01*
X167160263Y-111323866D01*
X166797687Y-111081601D01*
X166370000Y-110996529D01*
X165942313Y-111081601D01*
X165579737Y-111323866D01*
X165337472Y-111686442D01*
X165252400Y-112114129D01*
X165252400Y-112675871D01*
X165337472Y-113103558D01*
X165579737Y-113466134D01*
X165942313Y-113708399D01*
X166370000Y-113793471D01*
X166797687Y-113708399D01*
X167160263Y-113466134D01*
X167402528Y-113103558D01*
X167487600Y-112675871D01*
X167487600Y-116713000D01*
X167366819Y-116713000D01*
X167160263Y-116403866D01*
X166797687Y-116161601D01*
X166370000Y-116076529D01*
X165942313Y-116161601D01*
X165579737Y-116403866D01*
X165373180Y-116713000D01*
X164947600Y-116713000D01*
X164947600Y-112675871D01*
X164947600Y-112114129D01*
X164947600Y-104674871D01*
X164947600Y-104113129D01*
X164862528Y-103685442D01*
X164620263Y-103322866D01*
X164257687Y-103080601D01*
X163830000Y-102995529D01*
X163677600Y-103025843D01*
X163677600Y-102809637D01*
X163677600Y-101498400D01*
X163677600Y-101193600D01*
X163677600Y-99882363D01*
X163466239Y-99769516D01*
X163409701Y-99776546D01*
X162938292Y-100037520D01*
X162602637Y-100459030D01*
X162560000Y-100607421D01*
X162517363Y-100459030D01*
X162181708Y-100037520D01*
X161710299Y-99776546D01*
X161653761Y-99769516D01*
X161442400Y-99882363D01*
X161442400Y-101193600D01*
X162514825Y-101193600D01*
X162560000Y-101128915D01*
X162605175Y-101193600D01*
X163677600Y-101193600D01*
X163677600Y-101498400D01*
X162605175Y-101498400D01*
X162560000Y-101563084D01*
X162514825Y-101498400D01*
X161442400Y-101498400D01*
X161442400Y-102809637D01*
X161653761Y-102922484D01*
X161710299Y-102915454D01*
X162181708Y-102654480D01*
X162517363Y-102232970D01*
X162560000Y-102084578D01*
X162602637Y-102232970D01*
X162938292Y-102654480D01*
X163409701Y-102915454D01*
X163466239Y-102922484D01*
X163677600Y-102809637D01*
X163677600Y-103025843D01*
X163402313Y-103080601D01*
X163039737Y-103322866D01*
X162797472Y-103685442D01*
X162712400Y-104113129D01*
X162712400Y-104674871D01*
X162797472Y-105102558D01*
X163039737Y-105465134D01*
X163402313Y-105707399D01*
X163830000Y-105792471D01*
X164257687Y-105707399D01*
X164620263Y-105465134D01*
X164862528Y-105102558D01*
X164947600Y-104674871D01*
X164947600Y-112114129D01*
X164862528Y-111686442D01*
X164620263Y-111323866D01*
X164257687Y-111081601D01*
X163830000Y-110996529D01*
X163402313Y-111081601D01*
X163039737Y-111323866D01*
X162797472Y-111686442D01*
X162712400Y-112114129D01*
X162712400Y-112675871D01*
X162797472Y-113103558D01*
X163039737Y-113466134D01*
X163402313Y-113708399D01*
X163830000Y-113793471D01*
X164257687Y-113708399D01*
X164620263Y-113466134D01*
X164862528Y-113103558D01*
X164947600Y-112675871D01*
X164947600Y-116713000D01*
X164826819Y-116713000D01*
X164620263Y-116403866D01*
X164257687Y-116161601D01*
X163830000Y-116076529D01*
X163402313Y-116161601D01*
X163039737Y-116403866D01*
X162833180Y-116713000D01*
X162407600Y-116713000D01*
X162407600Y-112675871D01*
X162407600Y-112114129D01*
X162407600Y-104674871D01*
X162407600Y-104113129D01*
X162322528Y-103685442D01*
X162080263Y-103322866D01*
X161717687Y-103080601D01*
X161290000Y-102995529D01*
X161137600Y-103025843D01*
X161137600Y-102809637D01*
X161137600Y-101498400D01*
X161137600Y-101193600D01*
X161137600Y-99882363D01*
X160926239Y-99769516D01*
X160869701Y-99776546D01*
X160398292Y-100037520D01*
X160062637Y-100459030D01*
X160020000Y-100607421D01*
X159977363Y-100459030D01*
X159641708Y-100037520D01*
X159170299Y-99776546D01*
X159113761Y-99769516D01*
X158902400Y-99882363D01*
X158902400Y-101193600D01*
X159974825Y-101193600D01*
X160020000Y-101128915D01*
X160065175Y-101193600D01*
X161137600Y-101193600D01*
X161137600Y-101498400D01*
X160065175Y-101498400D01*
X160020000Y-101563084D01*
X159974825Y-101498400D01*
X158902400Y-101498400D01*
X158902400Y-102809637D01*
X159113761Y-102922484D01*
X159170299Y-102915454D01*
X159641708Y-102654480D01*
X159977363Y-102232970D01*
X160020000Y-102084578D01*
X160062637Y-102232970D01*
X160398292Y-102654480D01*
X160869701Y-102915454D01*
X160926239Y-102922484D01*
X161137600Y-102809637D01*
X161137600Y-103025843D01*
X160862313Y-103080601D01*
X160499737Y-103322866D01*
X160257472Y-103685442D01*
X160172400Y-104113129D01*
X160172400Y-104674871D01*
X160257472Y-105102558D01*
X160499737Y-105465134D01*
X160862313Y-105707399D01*
X161290000Y-105792471D01*
X161717687Y-105707399D01*
X162080263Y-105465134D01*
X162322528Y-105102558D01*
X162407600Y-104674871D01*
X162407600Y-112114129D01*
X162322528Y-111686442D01*
X162080263Y-111323866D01*
X161717687Y-111081601D01*
X161290000Y-110996529D01*
X160862313Y-111081601D01*
X160499737Y-111323866D01*
X160257472Y-111686442D01*
X160172400Y-112114129D01*
X160172400Y-112675871D01*
X160257472Y-113103558D01*
X160499737Y-113466134D01*
X160862313Y-113708399D01*
X161290000Y-113793471D01*
X161717687Y-113708399D01*
X162080263Y-113466134D01*
X162322528Y-113103558D01*
X162407600Y-112675871D01*
X162407600Y-116713000D01*
X162286819Y-116713000D01*
X162080263Y-116403866D01*
X161717687Y-116161601D01*
X161290000Y-116076529D01*
X160862313Y-116161601D01*
X160499737Y-116403866D01*
X160293180Y-116713000D01*
X159867600Y-116713000D01*
X159867600Y-112675871D01*
X159867600Y-112114129D01*
X159867600Y-104674871D01*
X159867600Y-104113129D01*
X159782528Y-103685442D01*
X159540263Y-103322866D01*
X159177687Y-103080601D01*
X158750000Y-102995529D01*
X158597600Y-103025843D01*
X158597600Y-102809637D01*
X158597600Y-101498400D01*
X158597600Y-101193600D01*
X158597600Y-99882363D01*
X158386239Y-99769516D01*
X158329701Y-99776546D01*
X157858292Y-100037520D01*
X157522637Y-100459030D01*
X157480000Y-100607421D01*
X157437363Y-100459030D01*
X157101708Y-100037520D01*
X156630299Y-99776546D01*
X156573761Y-99769516D01*
X156362400Y-99882363D01*
X156362400Y-101193600D01*
X157434825Y-101193600D01*
X157480000Y-101128915D01*
X157525175Y-101193600D01*
X158597600Y-101193600D01*
X158597600Y-101498400D01*
X157525175Y-101498400D01*
X157480000Y-101563084D01*
X157434825Y-101498400D01*
X156362400Y-101498400D01*
X156362400Y-102809637D01*
X156573761Y-102922484D01*
X156630299Y-102915454D01*
X157101708Y-102654480D01*
X157437363Y-102232970D01*
X157480000Y-102084578D01*
X157522637Y-102232970D01*
X157858292Y-102654480D01*
X158329701Y-102915454D01*
X158386239Y-102922484D01*
X158597600Y-102809637D01*
X158597600Y-103025843D01*
X158322313Y-103080601D01*
X157959737Y-103322866D01*
X157717472Y-103685442D01*
X157632400Y-104113129D01*
X157632400Y-104674871D01*
X157717472Y-105102558D01*
X157959737Y-105465134D01*
X158322313Y-105707399D01*
X158750000Y-105792471D01*
X159177687Y-105707399D01*
X159540263Y-105465134D01*
X159782528Y-105102558D01*
X159867600Y-104674871D01*
X159867600Y-112114129D01*
X159782528Y-111686442D01*
X159540263Y-111323866D01*
X159177687Y-111081601D01*
X158750000Y-110996529D01*
X158322313Y-111081601D01*
X157959737Y-111323866D01*
X157717472Y-111686442D01*
X157632400Y-112114129D01*
X157632400Y-112675871D01*
X157717472Y-113103558D01*
X157959737Y-113466134D01*
X158322313Y-113708399D01*
X158750000Y-113793471D01*
X159177687Y-113708399D01*
X159540263Y-113466134D01*
X159782528Y-113103558D01*
X159867600Y-112675871D01*
X159867600Y-116713000D01*
X159746819Y-116713000D01*
X159540263Y-116403866D01*
X159177687Y-116161601D01*
X158750000Y-116076529D01*
X158322313Y-116161601D01*
X157959737Y-116403866D01*
X157753180Y-116713000D01*
X157327600Y-116713000D01*
X157327600Y-112675871D01*
X157327600Y-112114129D01*
X157327600Y-104674871D01*
X157327600Y-104113129D01*
X157242528Y-103685442D01*
X157000263Y-103322866D01*
X156637687Y-103080601D01*
X156210000Y-102995529D01*
X156057600Y-103025843D01*
X156057600Y-102809637D01*
X156057600Y-101498400D01*
X156057600Y-101193600D01*
X156057600Y-99882363D01*
X155846239Y-99769516D01*
X155789701Y-99776546D01*
X155318292Y-100037520D01*
X154982637Y-100459030D01*
X154940000Y-100607421D01*
X154897363Y-100459030D01*
X154561708Y-100037520D01*
X154090299Y-99776546D01*
X154033761Y-99769516D01*
X153822400Y-99882363D01*
X153822400Y-101193600D01*
X154894825Y-101193600D01*
X154940000Y-101128915D01*
X154985175Y-101193600D01*
X156057600Y-101193600D01*
X156057600Y-101498400D01*
X154985175Y-101498400D01*
X154940000Y-101563084D01*
X154894825Y-101498400D01*
X153822400Y-101498400D01*
X153822400Y-102809637D01*
X154033761Y-102922484D01*
X154090299Y-102915454D01*
X154561708Y-102654480D01*
X154897363Y-102232970D01*
X154940000Y-102084578D01*
X154982637Y-102232970D01*
X155318292Y-102654480D01*
X155789701Y-102915454D01*
X155846239Y-102922484D01*
X156057600Y-102809637D01*
X156057600Y-103025843D01*
X155782313Y-103080601D01*
X155419737Y-103322866D01*
X155177472Y-103685442D01*
X155092400Y-104113129D01*
X155092400Y-104674871D01*
X155177472Y-105102558D01*
X155419737Y-105465134D01*
X155782313Y-105707399D01*
X156210000Y-105792471D01*
X156637687Y-105707399D01*
X157000263Y-105465134D01*
X157242528Y-105102558D01*
X157327600Y-104674871D01*
X157327600Y-112114129D01*
X157242528Y-111686442D01*
X157000263Y-111323866D01*
X156637687Y-111081601D01*
X156210000Y-110996529D01*
X155782313Y-111081601D01*
X155419737Y-111323866D01*
X155177472Y-111686442D01*
X155092400Y-112114129D01*
X155092400Y-112675871D01*
X155177472Y-113103558D01*
X155419737Y-113466134D01*
X155782313Y-113708399D01*
X156210000Y-113793471D01*
X156637687Y-113708399D01*
X157000263Y-113466134D01*
X157242528Y-113103558D01*
X157327600Y-112675871D01*
X157327600Y-116713000D01*
X157206819Y-116713000D01*
X157000263Y-116403866D01*
X156637687Y-116161601D01*
X156210000Y-116076529D01*
X155782313Y-116161601D01*
X155419737Y-116403866D01*
X155213180Y-116713000D01*
X154787600Y-116713000D01*
X154787600Y-112675871D01*
X154787600Y-112114129D01*
X154787600Y-104674871D01*
X154787600Y-104113129D01*
X154702528Y-103685442D01*
X154460263Y-103322866D01*
X154097687Y-103080601D01*
X153670000Y-102995529D01*
X153517600Y-103025843D01*
X153517600Y-102809637D01*
X153517600Y-101498400D01*
X153517600Y-101193600D01*
X153517600Y-99882363D01*
X153306239Y-99769516D01*
X153249701Y-99776546D01*
X152778292Y-100037520D01*
X152442637Y-100459030D01*
X152400000Y-100607421D01*
X152357363Y-100459030D01*
X152021708Y-100037520D01*
X151550299Y-99776546D01*
X151493761Y-99769516D01*
X151282400Y-99882363D01*
X151282400Y-101193600D01*
X152354825Y-101193600D01*
X152400000Y-101128915D01*
X152445175Y-101193600D01*
X153517600Y-101193600D01*
X153517600Y-101498400D01*
X152445175Y-101498400D01*
X152400000Y-101563084D01*
X152354825Y-101498400D01*
X151282400Y-101498400D01*
X151282400Y-102809637D01*
X151493761Y-102922484D01*
X151550299Y-102915454D01*
X152021708Y-102654480D01*
X152357363Y-102232970D01*
X152400000Y-102084578D01*
X152442637Y-102232970D01*
X152778292Y-102654480D01*
X153249701Y-102915454D01*
X153306239Y-102922484D01*
X153517600Y-102809637D01*
X153517600Y-103025843D01*
X153242313Y-103080601D01*
X152879737Y-103322866D01*
X152637472Y-103685442D01*
X152552400Y-104113129D01*
X152552400Y-104674871D01*
X152637472Y-105102558D01*
X152879737Y-105465134D01*
X153242313Y-105707399D01*
X153670000Y-105792471D01*
X154097687Y-105707399D01*
X154460263Y-105465134D01*
X154702528Y-105102558D01*
X154787600Y-104674871D01*
X154787600Y-112114129D01*
X154702528Y-111686442D01*
X154460263Y-111323866D01*
X154097687Y-111081601D01*
X153670000Y-110996529D01*
X153242313Y-111081601D01*
X152879737Y-111323866D01*
X152637472Y-111686442D01*
X152552400Y-112114129D01*
X152552400Y-112675871D01*
X152637472Y-113103558D01*
X152879737Y-113466134D01*
X153242313Y-113708399D01*
X153670000Y-113793471D01*
X154097687Y-113708399D01*
X154460263Y-113466134D01*
X154702528Y-113103558D01*
X154787600Y-112675871D01*
X154787600Y-116713000D01*
X154666819Y-116713000D01*
X154460263Y-116403866D01*
X154097687Y-116161601D01*
X153670000Y-116076529D01*
X153242313Y-116161601D01*
X152879737Y-116403866D01*
X152673180Y-116713000D01*
X152247600Y-116713000D01*
X152247600Y-112675871D01*
X152247600Y-112114129D01*
X152247600Y-104674871D01*
X152247600Y-104113129D01*
X152162528Y-103685442D01*
X151920263Y-103322866D01*
X151557687Y-103080601D01*
X151130000Y-102995529D01*
X150977600Y-103025843D01*
X150977600Y-102809637D01*
X150977600Y-101498400D01*
X150977600Y-101193600D01*
X150977600Y-99882363D01*
X150766239Y-99769516D01*
X150709701Y-99776546D01*
X150238292Y-100037520D01*
X149902637Y-100459030D01*
X149753837Y-100976904D01*
X149905175Y-101193600D01*
X150977600Y-101193600D01*
X150977600Y-101498400D01*
X149905175Y-101498400D01*
X149753837Y-101715096D01*
X149902637Y-102232970D01*
X150238292Y-102654480D01*
X150709701Y-102915454D01*
X150766239Y-102922484D01*
X150977600Y-102809637D01*
X150977600Y-103025843D01*
X150702313Y-103080601D01*
X150339737Y-103322866D01*
X150097472Y-103685442D01*
X150012400Y-104113129D01*
X150012400Y-104674871D01*
X150097472Y-105102558D01*
X150339737Y-105465134D01*
X150702313Y-105707399D01*
X151130000Y-105792471D01*
X151557687Y-105707399D01*
X151920263Y-105465134D01*
X152162528Y-105102558D01*
X152247600Y-104674871D01*
X152247600Y-112114129D01*
X152162528Y-111686442D01*
X151920263Y-111323866D01*
X151557687Y-111081601D01*
X151130000Y-110996529D01*
X150702313Y-111081601D01*
X150339737Y-111323866D01*
X150097472Y-111686442D01*
X150012400Y-112114129D01*
X150012400Y-112675871D01*
X150097472Y-113103558D01*
X150339737Y-113466134D01*
X150702313Y-113708399D01*
X151130000Y-113793471D01*
X151557687Y-113708399D01*
X151920263Y-113466134D01*
X152162528Y-113103558D01*
X152247600Y-112675871D01*
X152247600Y-116713000D01*
X152126819Y-116713000D01*
X151920263Y-116403866D01*
X151557687Y-116161601D01*
X151130000Y-116076529D01*
X150702313Y-116161601D01*
X150339737Y-116403866D01*
X150133180Y-116713000D01*
X139801600Y-116713000D01*
X139801600Y-102483257D01*
X139801600Y-102240743D01*
X139801600Y-101650800D01*
X139801600Y-101041200D01*
X139801600Y-100451257D01*
X139801600Y-100208743D01*
X139708794Y-99984689D01*
X139537311Y-99813206D01*
X139313257Y-99720400D01*
X138734800Y-99720400D01*
X138582400Y-99872800D01*
X138582400Y-101193600D01*
X139649200Y-101193600D01*
X139801600Y-101041200D01*
X139801600Y-101650800D01*
X139649200Y-101498400D01*
X138582400Y-101498400D01*
X138582400Y-102819200D01*
X138734800Y-102971600D01*
X139313257Y-102971600D01*
X139537311Y-102878794D01*
X139708794Y-102707311D01*
X139801600Y-102483257D01*
X139801600Y-116713000D01*
X139547600Y-116713000D01*
X139547600Y-112675871D01*
X139547600Y-112114129D01*
X139547600Y-104674871D01*
X139547600Y-104113129D01*
X139462528Y-103685442D01*
X139220263Y-103322866D01*
X138857687Y-103080601D01*
X138430000Y-102995529D01*
X138277600Y-103025843D01*
X138277600Y-102819200D01*
X138277600Y-101498400D01*
X138277600Y-101193600D01*
X138277600Y-99872800D01*
X138125200Y-99720400D01*
X137546743Y-99720400D01*
X137322689Y-99813206D01*
X137151206Y-99984689D01*
X137058400Y-100208743D01*
X137058400Y-100384985D01*
X136781708Y-100037520D01*
X136310299Y-99776546D01*
X136253761Y-99769516D01*
X136042400Y-99882363D01*
X136042400Y-101193600D01*
X137114825Y-101193600D01*
X137154290Y-101137090D01*
X137210800Y-101193600D01*
X138277600Y-101193600D01*
X138277600Y-101498400D01*
X137210800Y-101498400D01*
X137154290Y-101554909D01*
X137114825Y-101498400D01*
X136042400Y-101498400D01*
X136042400Y-102809637D01*
X136253761Y-102922484D01*
X136310299Y-102915454D01*
X136781708Y-102654480D01*
X137058400Y-102307014D01*
X137058400Y-102483257D01*
X137151206Y-102707311D01*
X137322689Y-102878794D01*
X137546743Y-102971600D01*
X138125200Y-102971600D01*
X138277600Y-102819200D01*
X138277600Y-103025843D01*
X138002313Y-103080601D01*
X137639737Y-103322866D01*
X137397472Y-103685442D01*
X137312400Y-104113129D01*
X137312400Y-104674871D01*
X137397472Y-105102558D01*
X137639737Y-105465134D01*
X138002313Y-105707399D01*
X138430000Y-105792471D01*
X138857687Y-105707399D01*
X139220263Y-105465134D01*
X139462528Y-105102558D01*
X139547600Y-104674871D01*
X139547600Y-112114129D01*
X139462528Y-111686442D01*
X139220263Y-111323866D01*
X138857687Y-111081601D01*
X138430000Y-110996529D01*
X138002313Y-111081601D01*
X137639737Y-111323866D01*
X137397472Y-111686442D01*
X137312400Y-112114129D01*
X137312400Y-112675871D01*
X137397472Y-113103558D01*
X137639737Y-113466134D01*
X138002313Y-113708399D01*
X138430000Y-113793471D01*
X138857687Y-113708399D01*
X139220263Y-113466134D01*
X139462528Y-113103558D01*
X139547600Y-112675871D01*
X139547600Y-116713000D01*
X139426819Y-116713000D01*
X139220263Y-116403866D01*
X138857687Y-116161601D01*
X138430000Y-116076529D01*
X138002313Y-116161601D01*
X137639737Y-116403866D01*
X137433180Y-116713000D01*
X137007600Y-116713000D01*
X137007600Y-112675871D01*
X137007600Y-112114129D01*
X137007600Y-104674871D01*
X137007600Y-104113129D01*
X136922528Y-103685442D01*
X136680263Y-103322866D01*
X136317687Y-103080601D01*
X135890000Y-102995529D01*
X135737600Y-103025843D01*
X135737600Y-102809637D01*
X135737600Y-101498400D01*
X135737600Y-101193600D01*
X135737600Y-99882363D01*
X135526239Y-99769516D01*
X135469701Y-99776546D01*
X134998292Y-100037520D01*
X134662637Y-100459030D01*
X134620000Y-100607421D01*
X134577363Y-100459030D01*
X134241708Y-100037520D01*
X133770299Y-99776546D01*
X133713761Y-99769516D01*
X133502400Y-99882363D01*
X133502400Y-101193600D01*
X134574825Y-101193600D01*
X134620000Y-101128915D01*
X134665175Y-101193600D01*
X135737600Y-101193600D01*
X135737600Y-101498400D01*
X134665175Y-101498400D01*
X134620000Y-101563084D01*
X134574825Y-101498400D01*
X133502400Y-101498400D01*
X133502400Y-102809637D01*
X133713761Y-102922484D01*
X133770299Y-102915454D01*
X134241708Y-102654480D01*
X134577363Y-102232970D01*
X134620000Y-102084578D01*
X134662637Y-102232970D01*
X134998292Y-102654480D01*
X135469701Y-102915454D01*
X135526239Y-102922484D01*
X135737600Y-102809637D01*
X135737600Y-103025843D01*
X135462313Y-103080601D01*
X135099737Y-103322866D01*
X134857472Y-103685442D01*
X134772400Y-104113129D01*
X134772400Y-104674871D01*
X134857472Y-105102558D01*
X135099737Y-105465134D01*
X135462313Y-105707399D01*
X135890000Y-105792471D01*
X136317687Y-105707399D01*
X136680263Y-105465134D01*
X136922528Y-105102558D01*
X137007600Y-104674871D01*
X137007600Y-112114129D01*
X136922528Y-111686442D01*
X136680263Y-111323866D01*
X136317687Y-111081601D01*
X135890000Y-110996529D01*
X135462313Y-111081601D01*
X135099737Y-111323866D01*
X134857472Y-111686442D01*
X134772400Y-112114129D01*
X134772400Y-112675871D01*
X134857472Y-113103558D01*
X135099737Y-113466134D01*
X135462313Y-113708399D01*
X135890000Y-113793471D01*
X136317687Y-113708399D01*
X136680263Y-113466134D01*
X136922528Y-113103558D01*
X137007600Y-112675871D01*
X137007600Y-116713000D01*
X136886819Y-116713000D01*
X136680263Y-116403866D01*
X136317687Y-116161601D01*
X135890000Y-116076529D01*
X135462313Y-116161601D01*
X135099737Y-116403866D01*
X134893180Y-116713000D01*
X134467600Y-116713000D01*
X134467600Y-112675871D01*
X134467600Y-112114129D01*
X134467600Y-104674871D01*
X134467600Y-104113129D01*
X134382528Y-103685442D01*
X134140263Y-103322866D01*
X133777687Y-103080601D01*
X133350000Y-102995529D01*
X133197600Y-103025843D01*
X133197600Y-102809637D01*
X133197600Y-101498400D01*
X133197600Y-101193600D01*
X133197600Y-99882363D01*
X132986239Y-99769516D01*
X132929701Y-99776546D01*
X132458292Y-100037520D01*
X132122637Y-100459030D01*
X132080000Y-100607421D01*
X132037363Y-100459030D01*
X131701708Y-100037520D01*
X131230299Y-99776546D01*
X131173761Y-99769516D01*
X130962400Y-99882363D01*
X130962400Y-101193600D01*
X132034825Y-101193600D01*
X132080000Y-101128915D01*
X132125175Y-101193600D01*
X133197600Y-101193600D01*
X133197600Y-101498400D01*
X132125175Y-101498400D01*
X132080000Y-101563084D01*
X132034825Y-101498400D01*
X130962400Y-101498400D01*
X130962400Y-102809637D01*
X131173761Y-102922484D01*
X131230299Y-102915454D01*
X131701708Y-102654480D01*
X132037363Y-102232970D01*
X132080000Y-102084578D01*
X132122637Y-102232970D01*
X132458292Y-102654480D01*
X132929701Y-102915454D01*
X132986239Y-102922484D01*
X133197600Y-102809637D01*
X133197600Y-103025843D01*
X132922313Y-103080601D01*
X132559737Y-103322866D01*
X132317472Y-103685442D01*
X132232400Y-104113129D01*
X132232400Y-104674871D01*
X132317472Y-105102558D01*
X132559737Y-105465134D01*
X132922313Y-105707399D01*
X133350000Y-105792471D01*
X133777687Y-105707399D01*
X134140263Y-105465134D01*
X134382528Y-105102558D01*
X134467600Y-104674871D01*
X134467600Y-112114129D01*
X134382528Y-111686442D01*
X134140263Y-111323866D01*
X133777687Y-111081601D01*
X133350000Y-110996529D01*
X132922313Y-111081601D01*
X132559737Y-111323866D01*
X132317472Y-111686442D01*
X132232400Y-112114129D01*
X132232400Y-112675871D01*
X132317472Y-113103558D01*
X132559737Y-113466134D01*
X132922313Y-113708399D01*
X133350000Y-113793471D01*
X133777687Y-113708399D01*
X134140263Y-113466134D01*
X134382528Y-113103558D01*
X134467600Y-112675871D01*
X134467600Y-116713000D01*
X134346819Y-116713000D01*
X134140263Y-116403866D01*
X133777687Y-116161601D01*
X133350000Y-116076529D01*
X132922313Y-116161601D01*
X132559737Y-116403866D01*
X132353180Y-116713000D01*
X131927600Y-116713000D01*
X131927600Y-112675871D01*
X131927600Y-112114129D01*
X131927600Y-104674871D01*
X131927600Y-104113129D01*
X131842528Y-103685442D01*
X131600263Y-103322866D01*
X131237687Y-103080601D01*
X130810000Y-102995529D01*
X130657600Y-103025843D01*
X130657600Y-102809637D01*
X130657600Y-101498400D01*
X130657600Y-101193600D01*
X130657600Y-99882363D01*
X130446239Y-99769516D01*
X130389701Y-99776546D01*
X129918292Y-100037520D01*
X129582637Y-100459030D01*
X129540000Y-100607421D01*
X129497363Y-100459030D01*
X129161708Y-100037520D01*
X128690299Y-99776546D01*
X128633761Y-99769516D01*
X128422400Y-99882363D01*
X128422400Y-101193600D01*
X129494825Y-101193600D01*
X129540000Y-101128915D01*
X129585175Y-101193600D01*
X130657600Y-101193600D01*
X130657600Y-101498400D01*
X129585175Y-101498400D01*
X129540000Y-101563084D01*
X129494825Y-101498400D01*
X128422400Y-101498400D01*
X128422400Y-102809637D01*
X128633761Y-102922484D01*
X128690299Y-102915454D01*
X129161708Y-102654480D01*
X129497363Y-102232970D01*
X129540000Y-102084578D01*
X129582637Y-102232970D01*
X129918292Y-102654480D01*
X130389701Y-102915454D01*
X130446239Y-102922484D01*
X130657600Y-102809637D01*
X130657600Y-103025843D01*
X130382313Y-103080601D01*
X130019737Y-103322866D01*
X129777472Y-103685442D01*
X129692400Y-104113129D01*
X129692400Y-104674871D01*
X129777472Y-105102558D01*
X130019737Y-105465134D01*
X130382313Y-105707399D01*
X130810000Y-105792471D01*
X131237687Y-105707399D01*
X131600263Y-105465134D01*
X131842528Y-105102558D01*
X131927600Y-104674871D01*
X131927600Y-112114129D01*
X131842528Y-111686442D01*
X131600263Y-111323866D01*
X131237687Y-111081601D01*
X130810000Y-110996529D01*
X130382313Y-111081601D01*
X130019737Y-111323866D01*
X129777472Y-111686442D01*
X129692400Y-112114129D01*
X129692400Y-112675871D01*
X129777472Y-113103558D01*
X130019737Y-113466134D01*
X130382313Y-113708399D01*
X130810000Y-113793471D01*
X131237687Y-113708399D01*
X131600263Y-113466134D01*
X131842528Y-113103558D01*
X131927600Y-112675871D01*
X131927600Y-116713000D01*
X131806819Y-116713000D01*
X131600263Y-116403866D01*
X131237687Y-116161601D01*
X130810000Y-116076529D01*
X130382313Y-116161601D01*
X130019737Y-116403866D01*
X129813180Y-116713000D01*
X129387600Y-116713000D01*
X129387600Y-112675871D01*
X129387600Y-112114129D01*
X129387600Y-104674871D01*
X129387600Y-104113129D01*
X129302528Y-103685442D01*
X129060263Y-103322866D01*
X128697687Y-103080601D01*
X128270000Y-102995529D01*
X128117600Y-103025843D01*
X128117600Y-102809637D01*
X128117600Y-101498400D01*
X128117600Y-101193600D01*
X128117600Y-99882363D01*
X127906239Y-99769516D01*
X127849701Y-99776546D01*
X127378292Y-100037520D01*
X127042637Y-100459030D01*
X127000000Y-100607421D01*
X126957363Y-100459030D01*
X126621708Y-100037520D01*
X126150299Y-99776546D01*
X126093761Y-99769516D01*
X125882400Y-99882363D01*
X125882400Y-101193600D01*
X126954825Y-101193600D01*
X127000000Y-101128915D01*
X127045175Y-101193600D01*
X128117600Y-101193600D01*
X128117600Y-101498400D01*
X127045175Y-101498400D01*
X127000000Y-101563084D01*
X126954825Y-101498400D01*
X125882400Y-101498400D01*
X125882400Y-102809637D01*
X126093761Y-102922484D01*
X126150299Y-102915454D01*
X126621708Y-102654480D01*
X126957363Y-102232970D01*
X127000000Y-102084578D01*
X127042637Y-102232970D01*
X127378292Y-102654480D01*
X127849701Y-102915454D01*
X127906239Y-102922484D01*
X128117600Y-102809637D01*
X128117600Y-103025843D01*
X127842313Y-103080601D01*
X127479737Y-103322866D01*
X127237472Y-103685442D01*
X127152400Y-104113129D01*
X127152400Y-104674871D01*
X127237472Y-105102558D01*
X127479737Y-105465134D01*
X127842313Y-105707399D01*
X128270000Y-105792471D01*
X128697687Y-105707399D01*
X129060263Y-105465134D01*
X129302528Y-105102558D01*
X129387600Y-104674871D01*
X129387600Y-112114129D01*
X129302528Y-111686442D01*
X129060263Y-111323866D01*
X128697687Y-111081601D01*
X128270000Y-110996529D01*
X127842313Y-111081601D01*
X127479737Y-111323866D01*
X127237472Y-111686442D01*
X127152400Y-112114129D01*
X127152400Y-112675871D01*
X127237472Y-113103558D01*
X127479737Y-113466134D01*
X127842313Y-113708399D01*
X128270000Y-113793471D01*
X128697687Y-113708399D01*
X129060263Y-113466134D01*
X129302528Y-113103558D01*
X129387600Y-112675871D01*
X129387600Y-116713000D01*
X129266819Y-116713000D01*
X129060263Y-116403866D01*
X128697687Y-116161601D01*
X128270000Y-116076529D01*
X127842313Y-116161601D01*
X127479737Y-116403866D01*
X127273180Y-116713000D01*
X126847600Y-116713000D01*
X126847600Y-112675871D01*
X126847600Y-112114129D01*
X126847600Y-104674871D01*
X126847600Y-104113129D01*
X126762528Y-103685442D01*
X126520263Y-103322866D01*
X126157687Y-103080601D01*
X125730000Y-102995529D01*
X125577600Y-103025843D01*
X125577600Y-102809637D01*
X125577600Y-101498400D01*
X125577600Y-101193600D01*
X125577600Y-99882363D01*
X125366239Y-99769516D01*
X125309701Y-99776546D01*
X124838292Y-100037520D01*
X124502637Y-100459030D01*
X124460000Y-100607421D01*
X124417363Y-100459030D01*
X124081708Y-100037520D01*
X123610299Y-99776546D01*
X123553761Y-99769516D01*
X123342400Y-99882363D01*
X123342400Y-101193600D01*
X124414825Y-101193600D01*
X124460000Y-101128915D01*
X124505175Y-101193600D01*
X125577600Y-101193600D01*
X125577600Y-101498400D01*
X124505175Y-101498400D01*
X124460000Y-101563084D01*
X124414825Y-101498400D01*
X123342400Y-101498400D01*
X123342400Y-102809637D01*
X123553761Y-102922484D01*
X123610299Y-102915454D01*
X124081708Y-102654480D01*
X124417363Y-102232970D01*
X124460000Y-102084578D01*
X124502637Y-102232970D01*
X124838292Y-102654480D01*
X125309701Y-102915454D01*
X125366239Y-102922484D01*
X125577600Y-102809637D01*
X125577600Y-103025843D01*
X125302313Y-103080601D01*
X124939737Y-103322866D01*
X124697472Y-103685442D01*
X124612400Y-104113129D01*
X124612400Y-104674871D01*
X124697472Y-105102558D01*
X124939737Y-105465134D01*
X125302313Y-105707399D01*
X125730000Y-105792471D01*
X126157687Y-105707399D01*
X126520263Y-105465134D01*
X126762528Y-105102558D01*
X126847600Y-104674871D01*
X126847600Y-112114129D01*
X126762528Y-111686442D01*
X126520263Y-111323866D01*
X126157687Y-111081601D01*
X125730000Y-110996529D01*
X125302313Y-111081601D01*
X124939737Y-111323866D01*
X124697472Y-111686442D01*
X124612400Y-112114129D01*
X124612400Y-112675871D01*
X124697472Y-113103558D01*
X124939737Y-113466134D01*
X125302313Y-113708399D01*
X125730000Y-113793471D01*
X126157687Y-113708399D01*
X126520263Y-113466134D01*
X126762528Y-113103558D01*
X126847600Y-112675871D01*
X126847600Y-116713000D01*
X126726819Y-116713000D01*
X126520263Y-116403866D01*
X126157687Y-116161601D01*
X125730000Y-116076529D01*
X125302313Y-116161601D01*
X124939737Y-116403866D01*
X124733180Y-116713000D01*
X124186819Y-116713000D01*
X123980263Y-116403866D01*
X123617687Y-116161601D01*
X123190000Y-116076529D01*
X122762313Y-116161601D01*
X122399737Y-116403866D01*
X122193180Y-116713000D01*
X121767600Y-116713000D01*
X121767600Y-112675871D01*
X121767600Y-112114129D01*
X121682528Y-111686442D01*
X121440263Y-111323866D01*
X121077687Y-111081601D01*
X120650000Y-110996529D01*
X120222313Y-111081601D01*
X119859737Y-111323866D01*
X119617472Y-111686442D01*
X119532400Y-112114129D01*
X119532400Y-112675871D01*
X119617472Y-113103558D01*
X119859737Y-113466134D01*
X120222313Y-113708399D01*
X120650000Y-113793471D01*
X121077687Y-113708399D01*
X121440263Y-113466134D01*
X121682528Y-113103558D01*
X121767600Y-112675871D01*
X121767600Y-116713000D01*
X121646819Y-116713000D01*
X121440263Y-116403866D01*
X121077687Y-116161601D01*
X120650000Y-116076529D01*
X120222313Y-116161601D01*
X119859737Y-116403866D01*
X119617472Y-116766442D01*
X119532400Y-117194129D01*
X119532400Y-117755871D01*
X119617472Y-118183558D01*
X119859737Y-118546134D01*
X120222313Y-118788399D01*
X120650000Y-118873471D01*
X121077687Y-118788399D01*
X121440263Y-118546134D01*
X121646819Y-118237000D01*
X122193180Y-118237000D01*
X122399737Y-118546134D01*
X122762313Y-118788399D01*
X123190000Y-118873471D01*
X123617687Y-118788399D01*
X123980263Y-118546134D01*
X124186819Y-118237000D01*
X124733180Y-118237000D01*
X124939737Y-118546134D01*
X125302313Y-118788399D01*
X125730000Y-118873471D01*
X126157687Y-118788399D01*
X126520263Y-118546134D01*
X126726819Y-118237000D01*
X127273180Y-118237000D01*
X127479737Y-118546134D01*
X127842313Y-118788399D01*
X128270000Y-118873471D01*
X128697687Y-118788399D01*
X129060263Y-118546134D01*
X129266819Y-118237000D01*
X129813180Y-118237000D01*
X130019737Y-118546134D01*
X130382313Y-118788399D01*
X130810000Y-118873471D01*
X131237687Y-118788399D01*
X131600263Y-118546134D01*
X131806819Y-118237000D01*
X132353180Y-118237000D01*
X132559737Y-118546134D01*
X132922313Y-118788399D01*
X133350000Y-118873471D01*
X133777687Y-118788399D01*
X134140263Y-118546134D01*
X134346819Y-118237000D01*
X134893180Y-118237000D01*
X135099737Y-118546134D01*
X135462313Y-118788399D01*
X135890000Y-118873471D01*
X136317687Y-118788399D01*
X136680263Y-118546134D01*
X136886819Y-118237000D01*
X137433180Y-118237000D01*
X137639737Y-118546134D01*
X138002313Y-118788399D01*
X138430000Y-118873471D01*
X138857687Y-118788399D01*
X139220263Y-118546134D01*
X139426819Y-118237000D01*
X150133180Y-118237000D01*
X150339737Y-118546134D01*
X150702313Y-118788399D01*
X151130000Y-118873471D01*
X151557687Y-118788399D01*
X151920263Y-118546134D01*
X152126819Y-118237000D01*
X152673180Y-118237000D01*
X152879737Y-118546134D01*
X153242313Y-118788399D01*
X153670000Y-118873471D01*
X154097687Y-118788399D01*
X154460263Y-118546134D01*
X154666819Y-118237000D01*
X155213180Y-118237000D01*
X155419737Y-118546134D01*
X155782313Y-118788399D01*
X156210000Y-118873471D01*
X156637687Y-118788399D01*
X157000263Y-118546134D01*
X157206819Y-118237000D01*
X157753180Y-118237000D01*
X157959737Y-118546134D01*
X158322313Y-118788399D01*
X158750000Y-118873471D01*
X159177687Y-118788399D01*
X159540263Y-118546134D01*
X159746819Y-118237000D01*
X160293180Y-118237000D01*
X160499737Y-118546134D01*
X160862313Y-118788399D01*
X161290000Y-118873471D01*
X161717687Y-118788399D01*
X162080263Y-118546134D01*
X162286819Y-118237000D01*
X162833180Y-118237000D01*
X163039737Y-118546134D01*
X163402313Y-118788399D01*
X163830000Y-118873471D01*
X164257687Y-118788399D01*
X164620263Y-118546134D01*
X164826819Y-118237000D01*
X165373180Y-118237000D01*
X165579737Y-118546134D01*
X165942313Y-118788399D01*
X166370000Y-118873471D01*
X166797687Y-118788399D01*
X167160263Y-118546134D01*
X167366819Y-118237000D01*
X167913180Y-118237000D01*
X168119737Y-118546134D01*
X168482313Y-118788399D01*
X168910000Y-118873471D01*
X169337687Y-118788399D01*
X169700263Y-118546134D01*
X169942528Y-118183558D01*
X170027600Y-117755871D01*
X170027600Y-129755900D01*
X167487600Y-129755900D01*
X167487600Y-127539847D01*
X167487600Y-126460153D01*
X167402528Y-126032466D01*
X167160263Y-125669890D01*
X166797687Y-125427625D01*
X166370000Y-125342553D01*
X165942313Y-125427625D01*
X165579737Y-125669890D01*
X165337472Y-126032466D01*
X165252400Y-126460153D01*
X165252400Y-127539847D01*
X165337472Y-127967534D01*
X165579737Y-128330110D01*
X165942313Y-128572375D01*
X166370000Y-128657447D01*
X166797687Y-128572375D01*
X167160263Y-128330110D01*
X167402528Y-127967534D01*
X167487600Y-127539847D01*
X167487600Y-129755900D01*
X164947600Y-129755900D01*
X164947600Y-127539847D01*
X164947600Y-126460153D01*
X164862528Y-126032466D01*
X164620263Y-125669890D01*
X164257687Y-125427625D01*
X163830000Y-125342553D01*
X163402313Y-125427625D01*
X163039737Y-125669890D01*
X162797472Y-126032466D01*
X162712400Y-126460153D01*
X162712400Y-127539847D01*
X162797472Y-127967534D01*
X163039737Y-128330110D01*
X163402313Y-128572375D01*
X163830000Y-128657447D01*
X164257687Y-128572375D01*
X164620263Y-128330110D01*
X164862528Y-127967534D01*
X164947600Y-127539847D01*
X164947600Y-129755900D01*
X162407600Y-129755900D01*
X162407600Y-127539847D01*
X162407600Y-126460153D01*
X162322528Y-126032466D01*
X162080263Y-125669890D01*
X161717687Y-125427625D01*
X161290000Y-125342553D01*
X160862313Y-125427625D01*
X160499737Y-125669890D01*
X160257472Y-126032466D01*
X160172400Y-126460153D01*
X160172400Y-127539847D01*
X160257472Y-127967534D01*
X160499737Y-128330110D01*
X160862313Y-128572375D01*
X161290000Y-128657447D01*
X161717687Y-128572375D01*
X162080263Y-128330110D01*
X162322528Y-127967534D01*
X162407600Y-127539847D01*
X162407600Y-129755900D01*
X159867600Y-129755900D01*
X159867600Y-127539847D01*
X159867600Y-126460153D01*
X159782528Y-126032466D01*
X159540263Y-125669890D01*
X159177687Y-125427625D01*
X158750000Y-125342553D01*
X158322313Y-125427625D01*
X157959737Y-125669890D01*
X157717472Y-126032466D01*
X157632400Y-126460153D01*
X157632400Y-127539847D01*
X157717472Y-127967534D01*
X157959737Y-128330110D01*
X158322313Y-128572375D01*
X158750000Y-128657447D01*
X159177687Y-128572375D01*
X159540263Y-128330110D01*
X159782528Y-127967534D01*
X159867600Y-127539847D01*
X159867600Y-129755900D01*
X157327600Y-129755900D01*
X157327600Y-127539847D01*
X157327600Y-126460153D01*
X157242528Y-126032466D01*
X157000263Y-125669890D01*
X156637687Y-125427625D01*
X156210000Y-125342553D01*
X155782313Y-125427625D01*
X155419737Y-125669890D01*
X155177472Y-126032466D01*
X155092400Y-126460153D01*
X155092400Y-127539847D01*
X155177472Y-127967534D01*
X155419737Y-128330110D01*
X155782313Y-128572375D01*
X156210000Y-128657447D01*
X156637687Y-128572375D01*
X157000263Y-128330110D01*
X157242528Y-127967534D01*
X157327600Y-127539847D01*
X157327600Y-129755900D01*
X154787600Y-129755900D01*
X154787600Y-127539847D01*
X154787600Y-126460153D01*
X154702528Y-126032466D01*
X154460263Y-125669890D01*
X154097687Y-125427625D01*
X153670000Y-125342553D01*
X153242313Y-125427625D01*
X152879737Y-125669890D01*
X152637472Y-126032466D01*
X152552400Y-126460153D01*
X152552400Y-127539847D01*
X152637472Y-127967534D01*
X152879737Y-128330110D01*
X153242313Y-128572375D01*
X153670000Y-128657447D01*
X154097687Y-128572375D01*
X154460263Y-128330110D01*
X154702528Y-127967534D01*
X154787600Y-127539847D01*
X154787600Y-129755900D01*
X152247600Y-129755900D01*
X152247600Y-127539847D01*
X152247600Y-126460153D01*
X152162528Y-126032466D01*
X151920263Y-125669890D01*
X151557687Y-125427625D01*
X151130000Y-125342553D01*
X150702313Y-125427625D01*
X150339737Y-125669890D01*
X150097472Y-126032466D01*
X150012400Y-126460153D01*
X150012400Y-127539847D01*
X150097472Y-127967534D01*
X150339737Y-128330110D01*
X150702313Y-128572375D01*
X151130000Y-128657447D01*
X151557687Y-128572375D01*
X151920263Y-128330110D01*
X152162528Y-127967534D01*
X152247600Y-127539847D01*
X152247600Y-129755900D01*
X114084503Y-129755900D01*
X114084503Y-126539736D01*
X113731425Y-125685223D01*
X113078216Y-125030873D01*
X112224320Y-124676304D01*
X111299736Y-124675497D01*
X110445223Y-125028575D01*
X109790873Y-125681784D01*
X109436304Y-126535680D01*
X109435497Y-127460264D01*
X109788575Y-128314777D01*
X110441784Y-128969127D01*
X111295680Y-129323696D01*
X112220264Y-129324503D01*
X113074777Y-128971425D01*
X113729127Y-128318216D01*
X114083696Y-127464320D01*
X114084503Y-126539736D01*
X114084503Y-129755900D01*
X93764100Y-129755900D01*
X93764100Y-75984100D01*
X211035900Y-75984100D01*
X211035900Y-129755900D01*
X211035900Y-129755900D01*
G37*
X211035900Y-129755900D02*
X209778829Y-129755900D01*
X209778829Y-102608429D01*
X209578173Y-102122804D01*
X209403528Y-101947854D01*
X209403528Y-98374200D01*
X209241117Y-97557707D01*
X208778611Y-96865517D01*
X208086421Y-96403011D01*
X207269928Y-96240600D01*
X205632472Y-96240600D01*
X204815979Y-96403011D01*
X204123789Y-96865517D01*
X203661283Y-97557707D01*
X203498872Y-98374200D01*
X203661283Y-99190693D01*
X204123789Y-99882883D01*
X204815979Y-100345389D01*
X205632472Y-100507800D01*
X207269928Y-100507800D01*
X208086421Y-100345389D01*
X208778611Y-99882883D01*
X209241117Y-99190693D01*
X209403528Y-98374200D01*
X209403528Y-101947854D01*
X209206950Y-101750933D01*
X208721676Y-101549430D01*
X208196229Y-101548971D01*
X207710604Y-101749627D01*
X207452592Y-102007189D01*
X207021035Y-101361317D01*
X206328845Y-100898811D01*
X205512352Y-100736400D01*
X204392848Y-100736400D01*
X203576355Y-100898811D01*
X202884165Y-101361317D01*
X202521900Y-101903485D01*
X202521900Y-101296700D01*
X202479365Y-101082857D01*
X202479364Y-101082856D01*
X202358231Y-100901569D01*
X198851531Y-97394869D01*
X198670244Y-97273736D01*
X198456400Y-97231200D01*
X196200938Y-97231200D01*
X196390375Y-96947687D01*
X196475447Y-96520000D01*
X196475447Y-93980000D01*
X196475447Y-91440000D01*
X196475447Y-88900000D01*
X196475447Y-86360000D01*
X196475447Y-83820000D01*
X196475447Y-81280000D01*
X196390375Y-80852313D01*
X196148110Y-80489737D01*
X195785534Y-80247472D01*
X195427600Y-80176274D01*
X195427600Y-78771847D01*
X195427600Y-77692153D01*
X195342528Y-77264466D01*
X195100263Y-76901890D01*
X194737687Y-76659625D01*
X194310000Y-76574553D01*
X193882313Y-76659625D01*
X193519737Y-76901890D01*
X193277472Y-77264466D01*
X193192400Y-77692153D01*
X193192400Y-78771847D01*
X193277472Y-79199534D01*
X193519737Y-79562110D01*
X193882313Y-79804375D01*
X194310000Y-79889447D01*
X194737687Y-79804375D01*
X195100263Y-79562110D01*
X195342528Y-79199534D01*
X195427600Y-78771847D01*
X195427600Y-80176274D01*
X195357847Y-80162400D01*
X194278153Y-80162400D01*
X193850466Y-80247472D01*
X193487890Y-80489737D01*
X193245625Y-80852313D01*
X193160553Y-81280000D01*
X193245625Y-81707687D01*
X193487890Y-82070263D01*
X193850466Y-82312528D01*
X194278153Y-82397600D01*
X195357847Y-82397600D01*
X195785534Y-82312528D01*
X196148110Y-82070263D01*
X196390375Y-81707687D01*
X196475447Y-81280000D01*
X196475447Y-83820000D01*
X196390375Y-83392313D01*
X196148110Y-83029737D01*
X195785534Y-82787472D01*
X195357847Y-82702400D01*
X194278153Y-82702400D01*
X193850466Y-82787472D01*
X193487890Y-83029737D01*
X193245625Y-83392313D01*
X193160553Y-83820000D01*
X193245625Y-84247687D01*
X193487890Y-84610263D01*
X193850466Y-84852528D01*
X194278153Y-84937600D01*
X195357847Y-84937600D01*
X195785534Y-84852528D01*
X196148110Y-84610263D01*
X196390375Y-84247687D01*
X196475447Y-83820000D01*
X196475447Y-86360000D01*
X196390375Y-85932313D01*
X196148110Y-85569737D01*
X195785534Y-85327472D01*
X195357847Y-85242400D01*
X194278153Y-85242400D01*
X193850466Y-85327472D01*
X193487890Y-85569737D01*
X193245625Y-85932313D01*
X193160553Y-86360000D01*
X193245625Y-86787687D01*
X193487890Y-87150263D01*
X193850466Y-87392528D01*
X194278153Y-87477600D01*
X195357847Y-87477600D01*
X195785534Y-87392528D01*
X196148110Y-87150263D01*
X196390375Y-86787687D01*
X196475447Y-86360000D01*
X196475447Y-88900000D01*
X196390375Y-88472313D01*
X196148110Y-88109737D01*
X195785534Y-87867472D01*
X195357847Y-87782400D01*
X194278153Y-87782400D01*
X193850466Y-87867472D01*
X193487890Y-88109737D01*
X193245625Y-88472313D01*
X193160553Y-88900000D01*
X193245625Y-89327687D01*
X193487890Y-89690263D01*
X193850466Y-89932528D01*
X194278153Y-90017600D01*
X195357847Y-90017600D01*
X195785534Y-89932528D01*
X196148110Y-89690263D01*
X196390375Y-89327687D01*
X196475447Y-88900000D01*
X196475447Y-91440000D01*
X196390375Y-91012313D01*
X196148110Y-90649737D01*
X195785534Y-90407472D01*
X195357847Y-90322400D01*
X194278153Y-90322400D01*
X193850466Y-90407472D01*
X193487890Y-90649737D01*
X193245625Y-91012313D01*
X193160553Y-91440000D01*
X193245625Y-91867687D01*
X193487890Y-92230263D01*
X193850466Y-92472528D01*
X194278153Y-92557600D01*
X195357847Y-92557600D01*
X195785534Y-92472528D01*
X196148110Y-92230263D01*
X196390375Y-91867687D01*
X196475447Y-91440000D01*
X196475447Y-93980000D01*
X196390375Y-93552313D01*
X196148110Y-93189737D01*
X195785534Y-92947472D01*
X195357847Y-92862400D01*
X194278153Y-92862400D01*
X193850466Y-92947472D01*
X193487890Y-93189737D01*
X193245625Y-93552313D01*
X193160553Y-93980000D01*
X193245625Y-94407687D01*
X193487890Y-94770263D01*
X193850466Y-95012528D01*
X194278153Y-95097600D01*
X195357847Y-95097600D01*
X195785534Y-95012528D01*
X196148110Y-94770263D01*
X196390375Y-94407687D01*
X196475447Y-93980000D01*
X196475447Y-96520000D01*
X196390375Y-96092313D01*
X196148110Y-95729737D01*
X195785534Y-95487472D01*
X195357847Y-95402400D01*
X194278153Y-95402400D01*
X193850466Y-95487472D01*
X193487890Y-95729737D01*
X193245625Y-96092313D01*
X193160553Y-96520000D01*
X193245625Y-96947687D01*
X193435061Y-97231200D01*
X192644938Y-97231200D01*
X192834375Y-96947687D01*
X192919447Y-96520000D01*
X192919447Y-93980000D01*
X192919447Y-91440000D01*
X192919447Y-88900000D01*
X192919447Y-86360000D01*
X192919447Y-83820000D01*
X192919447Y-81280000D01*
X192887600Y-81119893D01*
X192887600Y-78771847D01*
X192887600Y-77692153D01*
X192802528Y-77264466D01*
X192560263Y-76901890D01*
X192197687Y-76659625D01*
X191770000Y-76574553D01*
X191342313Y-76659625D01*
X190979737Y-76901890D01*
X190737472Y-77264466D01*
X190652400Y-77692153D01*
X190652400Y-78771847D01*
X190737472Y-79199534D01*
X190979737Y-79562110D01*
X191342313Y-79804375D01*
X191770000Y-79889447D01*
X192197687Y-79804375D01*
X192560263Y-79562110D01*
X192802528Y-79199534D01*
X192887600Y-78771847D01*
X192887600Y-81119893D01*
X192834375Y-80852313D01*
X192592110Y-80489737D01*
X192229534Y-80247472D01*
X191801847Y-80162400D01*
X190722153Y-80162400D01*
X190294466Y-80247472D01*
X190284503Y-80254129D01*
X190284503Y-78279736D01*
X189931425Y-77425223D01*
X189278216Y-76770873D01*
X188424320Y-76416304D01*
X187499736Y-76415497D01*
X186645223Y-76768575D01*
X185990873Y-77421784D01*
X185636304Y-78275680D01*
X185635497Y-79200264D01*
X185988575Y-80054777D01*
X186641784Y-80709127D01*
X187495680Y-81063696D01*
X188420264Y-81064503D01*
X189274777Y-80711425D01*
X189929127Y-80058216D01*
X190283696Y-79204320D01*
X190284503Y-78279736D01*
X190284503Y-80254129D01*
X189931890Y-80489737D01*
X189689625Y-80852313D01*
X189604553Y-81280000D01*
X189689625Y-81707687D01*
X189931890Y-82070263D01*
X190294466Y-82312528D01*
X190722153Y-82397600D01*
X191801847Y-82397600D01*
X192229534Y-82312528D01*
X192592110Y-82070263D01*
X192834375Y-81707687D01*
X192919447Y-81280000D01*
X192919447Y-83820000D01*
X192834375Y-83392313D01*
X192592110Y-83029737D01*
X192229534Y-82787472D01*
X191801847Y-82702400D01*
X190722153Y-82702400D01*
X190294466Y-82787472D01*
X189931890Y-83029737D01*
X189689625Y-83392313D01*
X189604553Y-83820000D01*
X189689625Y-84247687D01*
X189931890Y-84610263D01*
X190294466Y-84852528D01*
X190722153Y-84937600D01*
X191801847Y-84937600D01*
X192229534Y-84852528D01*
X192592110Y-84610263D01*
X192834375Y-84247687D01*
X192919447Y-83820000D01*
X192919447Y-86360000D01*
X192834375Y-85932313D01*
X192592110Y-85569737D01*
X192229534Y-85327472D01*
X191801847Y-85242400D01*
X190722153Y-85242400D01*
X190294466Y-85327472D01*
X189931890Y-85569737D01*
X189689625Y-85932313D01*
X189604553Y-86360000D01*
X189689625Y-86787687D01*
X189931890Y-87150263D01*
X190294466Y-87392528D01*
X190722153Y-87477600D01*
X191801847Y-87477600D01*
X192229534Y-87392528D01*
X192592110Y-87150263D01*
X192834375Y-86787687D01*
X192919447Y-86360000D01*
X192919447Y-88900000D01*
X192834375Y-88472313D01*
X192592110Y-88109737D01*
X192229534Y-87867472D01*
X191801847Y-87782400D01*
X190722153Y-87782400D01*
X190294466Y-87867472D01*
X189931890Y-88109737D01*
X189689625Y-88472313D01*
X189604553Y-88900000D01*
X189689625Y-89327687D01*
X189931890Y-89690263D01*
X190294466Y-89932528D01*
X190722153Y-90017600D01*
X191801847Y-90017600D01*
X192229534Y-89932528D01*
X192592110Y-89690263D01*
X192834375Y-89327687D01*
X192919447Y-88900000D01*
X192919447Y-91440000D01*
X192834375Y-91012313D01*
X192592110Y-90649737D01*
X192229534Y-90407472D01*
X191801847Y-90322400D01*
X190722153Y-90322400D01*
X190294466Y-90407472D01*
X189931890Y-90649737D01*
X189689625Y-91012313D01*
X189604553Y-91440000D01*
X189689625Y-91867687D01*
X189931890Y-92230263D01*
X190294466Y-92472528D01*
X190722153Y-92557600D01*
X191801847Y-92557600D01*
X192229534Y-92472528D01*
X192592110Y-92230263D01*
X192834375Y-91867687D01*
X192919447Y-91440000D01*
X192919447Y-93980000D01*
X192834375Y-93552313D01*
X192592110Y-93189737D01*
X192229534Y-92947472D01*
X191801847Y-92862400D01*
X190722153Y-92862400D01*
X190294466Y-92947472D01*
X189931890Y-93189737D01*
X189689625Y-93552313D01*
X189604553Y-93980000D01*
X189689625Y-94407687D01*
X189931890Y-94770263D01*
X190294466Y-95012528D01*
X190722153Y-95097600D01*
X191801847Y-95097600D01*
X192229534Y-95012528D01*
X192592110Y-94770263D01*
X192834375Y-94407687D01*
X192919447Y-93980000D01*
X192919447Y-96520000D01*
X192834375Y-96092313D01*
X192592110Y-95729737D01*
X192229534Y-95487472D01*
X191801847Y-95402400D01*
X190722153Y-95402400D01*
X190294466Y-95487472D01*
X189931890Y-95729737D01*
X189689625Y-96092313D01*
X189604553Y-96520000D01*
X189689625Y-96947687D01*
X189879061Y-97231200D01*
X189384662Y-97231200D01*
X185267600Y-93114138D01*
X185267600Y-79279847D01*
X185267600Y-78200153D01*
X185182528Y-77772466D01*
X184940263Y-77409890D01*
X184577687Y-77167625D01*
X184150000Y-77082553D01*
X183722313Y-77167625D01*
X183359737Y-77409890D01*
X183117472Y-77772466D01*
X183032400Y-78200153D01*
X183032400Y-79279847D01*
X183117472Y-79707534D01*
X183359737Y-80070110D01*
X183722313Y-80312375D01*
X184150000Y-80397447D01*
X184577687Y-80312375D01*
X184940263Y-80070110D01*
X185182528Y-79707534D01*
X185267600Y-79279847D01*
X185267600Y-93114138D01*
X182727600Y-90574138D01*
X182727600Y-79279847D01*
X182727600Y-78200153D01*
X182642528Y-77772466D01*
X182400263Y-77409890D01*
X182037687Y-77167625D01*
X181610000Y-77082553D01*
X181182313Y-77167625D01*
X180819737Y-77409890D01*
X180577472Y-77772466D01*
X180492400Y-78200153D01*
X180492400Y-79279847D01*
X180577472Y-79707534D01*
X180819737Y-80070110D01*
X181182313Y-80312375D01*
X181610000Y-80397447D01*
X182037687Y-80312375D01*
X182400263Y-80070110D01*
X182642528Y-79707534D01*
X182727600Y-79279847D01*
X182727600Y-90574138D01*
X181539731Y-89386269D01*
X181358444Y-89265136D01*
X181144600Y-89222600D01*
X179956461Y-89222600D01*
X179720897Y-88987035D01*
X179839852Y-88987139D01*
X180134028Y-88865587D01*
X180359296Y-88640712D01*
X180481361Y-88346748D01*
X180481639Y-88028448D01*
X180360087Y-87734272D01*
X180240200Y-87614175D01*
X180240200Y-83618900D01*
X180197665Y-83405057D01*
X180197664Y-83405056D01*
X180187600Y-83389994D01*
X180187600Y-79279847D01*
X180187600Y-78200153D01*
X180102528Y-77772466D01*
X179860263Y-77409890D01*
X179497687Y-77167625D01*
X179070000Y-77082553D01*
X178642313Y-77167625D01*
X178279737Y-77409890D01*
X178037472Y-77772466D01*
X177952400Y-78200153D01*
X177952400Y-79279847D01*
X178037472Y-79707534D01*
X178279737Y-80070110D01*
X178642313Y-80312375D01*
X179070000Y-80397447D01*
X179497687Y-80312375D01*
X179860263Y-80070110D01*
X180102528Y-79707534D01*
X180187600Y-79279847D01*
X180187600Y-83389994D01*
X180076532Y-83223769D01*
X177088800Y-80236037D01*
X177088800Y-80224768D01*
X177320263Y-80070110D01*
X177562528Y-79707534D01*
X177647600Y-79279847D01*
X177647600Y-78200153D01*
X177562528Y-77772466D01*
X177320263Y-77409890D01*
X176957687Y-77167625D01*
X176530000Y-77082553D01*
X176102313Y-77167625D01*
X175739737Y-77409890D01*
X175497472Y-77772466D01*
X175412400Y-78200153D01*
X175412400Y-79279847D01*
X175497472Y-79707534D01*
X175739737Y-80070110D01*
X175971200Y-80224768D01*
X175971200Y-80467500D01*
X176013736Y-80681344D01*
X176134869Y-80862631D01*
X179122600Y-83850362D01*
X179122600Y-87614199D01*
X179003504Y-87733088D01*
X178881439Y-88027052D01*
X178881333Y-88147471D01*
X175107600Y-84373738D01*
X175107600Y-79279847D01*
X175107600Y-78200153D01*
X175022528Y-77772466D01*
X174780263Y-77409890D01*
X174417687Y-77167625D01*
X173990000Y-77082553D01*
X173562313Y-77167625D01*
X173199737Y-77409890D01*
X172957472Y-77772466D01*
X172872400Y-78200153D01*
X172872400Y-79279847D01*
X172957472Y-79707534D01*
X173199737Y-80070110D01*
X173562313Y-80312375D01*
X173990000Y-80397447D01*
X174417687Y-80312375D01*
X174780263Y-80070110D01*
X175022528Y-79707534D01*
X175107600Y-79279847D01*
X175107600Y-84373738D01*
X171052177Y-80318315D01*
X171450000Y-80397447D01*
X171877687Y-80312375D01*
X172240263Y-80070110D01*
X172482528Y-79707534D01*
X172567600Y-79279847D01*
X172567600Y-78200153D01*
X172482528Y-77772466D01*
X172240263Y-77409890D01*
X171877687Y-77167625D01*
X171450000Y-77082553D01*
X171022313Y-77167625D01*
X170659737Y-77409890D01*
X170417472Y-77772466D01*
X170332400Y-78200153D01*
X170332400Y-79279847D01*
X170417472Y-79707534D01*
X170573466Y-79940996D01*
X170411100Y-79908700D01*
X169808113Y-79908700D01*
X169942528Y-79707534D01*
X170027600Y-79279847D01*
X170027600Y-78200153D01*
X169942528Y-77772466D01*
X169700263Y-77409890D01*
X169337687Y-77167625D01*
X168910000Y-77082553D01*
X168482313Y-77167625D01*
X168119737Y-77409890D01*
X167877472Y-77772466D01*
X167792400Y-78200153D01*
X167792400Y-79279847D01*
X167877472Y-79707534D01*
X168011886Y-79908700D01*
X167268113Y-79908700D01*
X167402528Y-79707534D01*
X167487600Y-79279847D01*
X167487600Y-78200153D01*
X167402528Y-77772466D01*
X167160263Y-77409890D01*
X166928800Y-77255231D01*
X166928800Y-77012500D01*
X166886264Y-76798656D01*
X166765131Y-76617369D01*
X166583844Y-76496236D01*
X166370000Y-76453700D01*
X133814600Y-76453700D01*
X133600756Y-76496236D01*
X133419469Y-76617369D01*
X132700869Y-77335969D01*
X132633869Y-77436240D01*
X132616263Y-77409890D01*
X132253687Y-77167625D01*
X131826000Y-77082553D01*
X131398313Y-77167625D01*
X131035737Y-77409890D01*
X130793472Y-77772466D01*
X130708400Y-78200153D01*
X130708400Y-79279847D01*
X130793472Y-79707534D01*
X130927886Y-79908700D01*
X130184113Y-79908700D01*
X130318528Y-79707534D01*
X130403600Y-79279847D01*
X130403600Y-78200153D01*
X130318528Y-77772466D01*
X130076263Y-77409890D01*
X129713687Y-77167625D01*
X129286000Y-77082553D01*
X128858313Y-77167625D01*
X128495737Y-77409890D01*
X128253472Y-77772466D01*
X128168400Y-78200153D01*
X128168400Y-79279847D01*
X128253472Y-79707534D01*
X128387886Y-79908700D01*
X127644113Y-79908700D01*
X127778528Y-79707534D01*
X127863600Y-79279847D01*
X127863600Y-78200153D01*
X127778528Y-77772466D01*
X127536263Y-77409890D01*
X127173687Y-77167625D01*
X126746000Y-77082553D01*
X126318313Y-77167625D01*
X125955737Y-77409890D01*
X125713472Y-77772466D01*
X125628400Y-78200153D01*
X125628400Y-79279847D01*
X125713472Y-79707534D01*
X125847886Y-79908700D01*
X125104113Y-79908700D01*
X125238528Y-79707534D01*
X125323600Y-79279847D01*
X125323600Y-78200153D01*
X125238528Y-77772466D01*
X124996263Y-77409890D01*
X124633687Y-77167625D01*
X124206000Y-77082553D01*
X123778313Y-77167625D01*
X123415737Y-77409890D01*
X123173472Y-77772466D01*
X123088400Y-78200153D01*
X123088400Y-79279847D01*
X123173472Y-79707534D01*
X123415737Y-80070110D01*
X123778313Y-80312375D01*
X123929575Y-80342462D01*
X122783600Y-81488437D01*
X122783600Y-79279847D01*
X122783600Y-78200153D01*
X122698528Y-77772466D01*
X122456263Y-77409890D01*
X122093687Y-77167625D01*
X121666000Y-77082553D01*
X121238313Y-77167625D01*
X120875737Y-77409890D01*
X120633472Y-77772466D01*
X120548400Y-78200153D01*
X120548400Y-79279847D01*
X120633472Y-79707534D01*
X120875737Y-80070110D01*
X121238313Y-80312375D01*
X121666000Y-80397447D01*
X122093687Y-80312375D01*
X122456263Y-80070110D01*
X122698528Y-79707534D01*
X122783600Y-79279847D01*
X122783600Y-81488437D01*
X120243600Y-84028437D01*
X120243600Y-79279847D01*
X120243600Y-78200153D01*
X120158528Y-77772466D01*
X119916263Y-77409890D01*
X119553687Y-77167625D01*
X119126000Y-77082553D01*
X118698313Y-77167625D01*
X118335737Y-77409890D01*
X118093472Y-77772466D01*
X118008400Y-78200153D01*
X118008400Y-79279847D01*
X118093472Y-79707534D01*
X118335737Y-80070110D01*
X118698313Y-80312375D01*
X119126000Y-80397447D01*
X119553687Y-80312375D01*
X119916263Y-80070110D01*
X120158528Y-79707534D01*
X120243600Y-79279847D01*
X120243600Y-84028437D01*
X117703600Y-86568437D01*
X117703600Y-79279847D01*
X117703600Y-78200153D01*
X117618528Y-77772466D01*
X117376263Y-77409890D01*
X117013687Y-77167625D01*
X116586000Y-77082553D01*
X116158313Y-77167625D01*
X115795737Y-77409890D01*
X115553472Y-77772466D01*
X115468400Y-78200153D01*
X115468400Y-79279847D01*
X115553472Y-79707534D01*
X115795737Y-80070110D01*
X116158313Y-80312375D01*
X116586000Y-80397447D01*
X117013687Y-80312375D01*
X117376263Y-80070110D01*
X117618528Y-79707534D01*
X117703600Y-79279847D01*
X117703600Y-86568437D01*
X115354503Y-88917534D01*
X115354503Y-78279736D01*
X115001425Y-77425223D01*
X114348216Y-76770873D01*
X113494320Y-76416304D01*
X112569736Y-76415497D01*
X111715223Y-76768575D01*
X111060873Y-77421784D01*
X110706304Y-78275680D01*
X110705497Y-79200264D01*
X111058575Y-80054777D01*
X111711784Y-80709127D01*
X112565680Y-81063696D01*
X113490264Y-81064503D01*
X114344777Y-80711425D01*
X114999127Y-80058216D01*
X115353696Y-79204320D01*
X115354503Y-78279736D01*
X115354503Y-88917534D01*
X102360169Y-101911869D01*
X102239036Y-102093156D01*
X102196500Y-102307000D01*
X102196500Y-118805738D01*
X102012328Y-118989910D01*
X102012328Y-107950000D01*
X102012328Y-97790000D01*
X101869252Y-97070708D01*
X101461806Y-96460922D01*
X100852020Y-96053476D01*
X100132728Y-95910400D01*
X97987272Y-95910400D01*
X97267980Y-96053476D01*
X96658194Y-96460922D01*
X96250748Y-97070708D01*
X96107672Y-97790000D01*
X96250748Y-98509292D01*
X96658194Y-99119078D01*
X97267980Y-99526524D01*
X97987272Y-99669600D01*
X100132728Y-99669600D01*
X100852020Y-99526524D01*
X101461806Y-99119078D01*
X101869252Y-98509292D01*
X102012328Y-97790000D01*
X102012328Y-107950000D01*
X101869252Y-107230708D01*
X101461806Y-106620922D01*
X100852020Y-106213476D01*
X100132728Y-106070400D01*
X97987272Y-106070400D01*
X97267980Y-106213476D01*
X96658194Y-106620922D01*
X96250748Y-107230708D01*
X96107672Y-107950000D01*
X96250748Y-108669292D01*
X96658194Y-109279078D01*
X97267980Y-109686524D01*
X97987272Y-109829600D01*
X100132728Y-109829600D01*
X100852020Y-109686524D01*
X101461806Y-109279078D01*
X101869252Y-108669292D01*
X102012328Y-107950000D01*
X102012328Y-118989910D01*
X101204869Y-119797369D01*
X101083736Y-119978656D01*
X101041200Y-120192500D01*
X101041200Y-120287433D01*
X100672900Y-120287433D01*
X100537311Y-120313741D01*
X100418141Y-120392023D01*
X100338369Y-120510201D01*
X100310333Y-120650000D01*
X100310333Y-123190000D01*
X100336641Y-123325589D01*
X100414923Y-123444759D01*
X100533101Y-123524531D01*
X100672900Y-123552567D01*
X102527100Y-123552567D01*
X102662689Y-123526259D01*
X102781859Y-123447977D01*
X102861631Y-123329799D01*
X102889667Y-123190000D01*
X102889667Y-122457466D01*
X102954940Y-122785615D01*
X103232994Y-123201753D01*
X103649132Y-123479807D01*
X104140000Y-123577447D01*
X104630868Y-123479807D01*
X105047006Y-123201753D01*
X105325060Y-122785615D01*
X105410000Y-122358594D01*
X105494940Y-122785615D01*
X105772994Y-123201753D01*
X106189132Y-123479807D01*
X106680000Y-123577447D01*
X107170868Y-123479807D01*
X107587006Y-123201753D01*
X107865060Y-122785615D01*
X107885670Y-122682000D01*
X114490269Y-122682000D01*
X121277785Y-129469515D01*
X121524995Y-129634696D01*
X121524996Y-129634696D01*
X121816600Y-129692700D01*
X135890000Y-129692700D01*
X136181605Y-129634696D01*
X136428815Y-129469515D01*
X136593996Y-129222305D01*
X136652000Y-128930700D01*
X136652000Y-128348994D01*
X136680263Y-128330110D01*
X136922528Y-127967534D01*
X137007600Y-127539847D01*
X137007600Y-126460153D01*
X136922528Y-126032466D01*
X136788113Y-125831300D01*
X137531886Y-125831300D01*
X137397472Y-126032466D01*
X137312400Y-126460153D01*
X137312400Y-127539847D01*
X137397472Y-127967534D01*
X137639737Y-128330110D01*
X138002313Y-128572375D01*
X138430000Y-128657447D01*
X138857687Y-128572375D01*
X139220263Y-128330110D01*
X139462528Y-127967534D01*
X139523620Y-127660400D01*
X139876379Y-127660400D01*
X139937472Y-127967534D01*
X140179737Y-128330110D01*
X140542313Y-128572375D01*
X140970000Y-128657447D01*
X141397687Y-128572375D01*
X141760263Y-128330110D01*
X142002528Y-127967534D01*
X142087600Y-127539847D01*
X142087600Y-126460153D01*
X142002528Y-126032466D01*
X141868113Y-125831300D01*
X142611886Y-125831300D01*
X142477472Y-126032466D01*
X142392400Y-126460153D01*
X142392400Y-127539847D01*
X142477472Y-127967534D01*
X142719737Y-128330110D01*
X143082313Y-128572375D01*
X143510000Y-128657447D01*
X143937687Y-128572375D01*
X144300263Y-128330110D01*
X144542528Y-127967534D01*
X144627600Y-127539847D01*
X144627600Y-126460153D01*
X144542528Y-126032466D01*
X144408113Y-125831300D01*
X147691886Y-125831300D01*
X147557472Y-126032466D01*
X147472400Y-126460153D01*
X147472400Y-127539847D01*
X147557472Y-127967534D01*
X147799737Y-128330110D01*
X148162313Y-128572375D01*
X148590000Y-128657447D01*
X149017687Y-128572375D01*
X149380263Y-128330110D01*
X149622528Y-127967534D01*
X149707600Y-127539847D01*
X149707600Y-126460153D01*
X149622528Y-126032466D01*
X149380263Y-125669890D01*
X149148800Y-125515231D01*
X149148800Y-125272500D01*
X149106264Y-125058656D01*
X148985131Y-124877369D01*
X148803844Y-124756236D01*
X148590000Y-124713700D01*
X125755061Y-124713700D01*
X108078310Y-107036948D01*
X108377687Y-106977399D01*
X108740263Y-106735134D01*
X108982528Y-106372558D01*
X109067600Y-105944871D01*
X109067600Y-105383129D01*
X109041588Y-105252357D01*
X109739573Y-104554373D01*
X109882730Y-104340124D01*
X109933000Y-104087400D01*
X109933000Y-101652600D01*
X109882730Y-101399876D01*
X109739573Y-101185627D01*
X109041588Y-100487642D01*
X109067600Y-100356871D01*
X109067600Y-99795129D01*
X108982528Y-99367442D01*
X108740263Y-99004866D01*
X108377687Y-98762601D01*
X108125186Y-98712375D01*
X124112162Y-82725400D01*
X132666900Y-82725400D01*
X132880743Y-82682864D01*
X132880744Y-82682864D01*
X133062031Y-82561731D01*
X134761131Y-80862631D01*
X134882264Y-80681344D01*
X134882264Y-80681343D01*
X134924799Y-80467500D01*
X134924800Y-80467500D01*
X134924800Y-80224768D01*
X135156263Y-80070110D01*
X135398528Y-79707534D01*
X135483600Y-79279847D01*
X135483600Y-78200153D01*
X135398528Y-77772466D01*
X135264113Y-77571300D01*
X136007886Y-77571300D01*
X135873472Y-77772466D01*
X135788400Y-78200153D01*
X135788400Y-79279847D01*
X135873472Y-79707534D01*
X136115737Y-80070110D01*
X136478313Y-80312375D01*
X136906000Y-80397447D01*
X137333687Y-80312375D01*
X137696263Y-80070110D01*
X137938528Y-79707534D01*
X138023600Y-79279847D01*
X138023600Y-78200153D01*
X137938528Y-77772466D01*
X137804113Y-77571300D01*
X138547886Y-77571300D01*
X138413472Y-77772466D01*
X138328400Y-78200153D01*
X138328400Y-79279847D01*
X138413472Y-79707534D01*
X138655737Y-80070110D01*
X139018313Y-80312375D01*
X139446000Y-80397447D01*
X139873687Y-80312375D01*
X140236263Y-80070110D01*
X140478528Y-79707534D01*
X140563600Y-79279847D01*
X140563600Y-78200153D01*
X140478528Y-77772466D01*
X140344113Y-77571300D01*
X142611886Y-77571300D01*
X142477472Y-77772466D01*
X142392400Y-78200153D01*
X142392400Y-79279847D01*
X142477472Y-79707534D01*
X142719737Y-80070110D01*
X143082313Y-80312375D01*
X143510000Y-80397447D01*
X143937687Y-80312375D01*
X144300263Y-80070110D01*
X144542528Y-79707534D01*
X144627600Y-79279847D01*
X144627600Y-78200153D01*
X144542528Y-77772466D01*
X144408113Y-77571300D01*
X145151886Y-77571300D01*
X145017472Y-77772466D01*
X144932400Y-78200153D01*
X144932400Y-79279847D01*
X145017472Y-79707534D01*
X145259737Y-80070110D01*
X145622313Y-80312375D01*
X146050000Y-80397447D01*
X146477687Y-80312375D01*
X146840263Y-80070110D01*
X147082528Y-79707534D01*
X147167600Y-79279847D01*
X147167600Y-78200153D01*
X147082528Y-77772466D01*
X146948113Y-77571300D01*
X147691886Y-77571300D01*
X147557472Y-77772466D01*
X147472400Y-78200153D01*
X147472400Y-79279847D01*
X147557472Y-79707534D01*
X147799737Y-80070110D01*
X148162313Y-80312375D01*
X148590000Y-80397447D01*
X149017687Y-80312375D01*
X149380263Y-80070110D01*
X149622528Y-79707534D01*
X149707600Y-79279847D01*
X149707600Y-78200153D01*
X149622528Y-77772466D01*
X149488113Y-77571300D01*
X150231886Y-77571300D01*
X150097472Y-77772466D01*
X150012400Y-78200153D01*
X150012400Y-79279847D01*
X150097472Y-79707534D01*
X150339737Y-80070110D01*
X150702313Y-80312375D01*
X151130000Y-80397447D01*
X151557687Y-80312375D01*
X151920263Y-80070110D01*
X152162528Y-79707534D01*
X152247600Y-79279847D01*
X152247600Y-78200153D01*
X152162528Y-77772466D01*
X152028113Y-77571300D01*
X152771886Y-77571300D01*
X152637472Y-77772466D01*
X152552400Y-78200153D01*
X152552400Y-79279847D01*
X152637472Y-79707534D01*
X152879737Y-80070110D01*
X153111200Y-80224768D01*
X153111200Y-80467500D01*
X153153736Y-80681344D01*
X153274869Y-80862631D01*
X153456156Y-80983764D01*
X153670000Y-81026300D01*
X170179638Y-81026300D01*
X175263908Y-86110570D01*
X175198200Y-86097500D01*
X155799900Y-86097500D01*
X155681012Y-85978404D01*
X155387048Y-85856339D01*
X155068748Y-85856061D01*
X154774572Y-85977613D01*
X154549304Y-86202488D01*
X154427239Y-86496452D01*
X154426961Y-86814752D01*
X154548513Y-87108928D01*
X154773388Y-87334196D01*
X155067352Y-87456261D01*
X155385652Y-87456539D01*
X155679828Y-87334987D01*
X155799924Y-87215100D01*
X174966738Y-87215100D01*
X175543358Y-87791720D01*
X175477900Y-87778700D01*
X154957962Y-87778700D01*
X153867692Y-86688430D01*
X153867839Y-86520148D01*
X153746287Y-86225972D01*
X153521412Y-86000704D01*
X153227448Y-85878639D01*
X152909148Y-85878361D01*
X152864330Y-85896879D01*
X152839800Y-85892000D01*
X123411200Y-85892000D01*
X123292312Y-85772904D01*
X122998348Y-85650839D01*
X122680048Y-85650561D01*
X122385872Y-85772113D01*
X122160604Y-85996988D01*
X122038539Y-86290952D01*
X122038261Y-86609252D01*
X122159813Y-86903428D01*
X122384688Y-87128696D01*
X122678652Y-87250761D01*
X122996952Y-87251039D01*
X123291128Y-87129487D01*
X123411224Y-87009600D01*
X123783621Y-87009600D01*
X123694739Y-87223652D01*
X123694461Y-87541952D01*
X123816013Y-87836128D01*
X124040888Y-88061396D01*
X124334852Y-88183461D01*
X124653152Y-88183739D01*
X124947328Y-88062187D01*
X125067424Y-87942300D01*
X148269837Y-87942300D01*
X152513207Y-92185670D01*
X152513061Y-92353952D01*
X152634613Y-92648128D01*
X152774340Y-92788100D01*
X136704171Y-92788100D01*
X136511812Y-92595404D01*
X136217848Y-92473339D01*
X135899548Y-92473061D01*
X135605372Y-92594613D01*
X135380104Y-92819488D01*
X135258039Y-93113452D01*
X135257761Y-93431752D01*
X135379313Y-93725928D01*
X135604188Y-93951196D01*
X135898152Y-94073261D01*
X136216452Y-94073539D01*
X136510628Y-93951987D01*
X136556995Y-93905700D01*
X165879799Y-93905700D01*
X165998688Y-94024796D01*
X166292652Y-94146861D01*
X166610952Y-94147139D01*
X166905128Y-94025587D01*
X167025224Y-93905700D01*
X176839638Y-93905700D01*
X178374438Y-95440500D01*
X166307700Y-95440500D01*
X166188812Y-95321404D01*
X165894848Y-95199339D01*
X165576548Y-95199061D01*
X165282372Y-95320613D01*
X165162275Y-95440500D01*
X136840100Y-95440500D01*
X136721212Y-95321404D01*
X136427248Y-95199339D01*
X136108948Y-95199061D01*
X135814772Y-95320613D01*
X135589504Y-95545488D01*
X135467439Y-95839452D01*
X135467161Y-96157752D01*
X135588713Y-96451928D01*
X135813588Y-96677196D01*
X136107552Y-96799261D01*
X136425852Y-96799539D01*
X136720028Y-96677987D01*
X136840124Y-96558100D01*
X165162299Y-96558100D01*
X165281188Y-96677196D01*
X165575152Y-96799261D01*
X165893452Y-96799539D01*
X166187628Y-96677987D01*
X166307724Y-96558100D01*
X178557637Y-96558100D01*
X179660137Y-97660600D01*
X125662262Y-97660600D01*
X124337792Y-96336130D01*
X124337939Y-96167848D01*
X124216387Y-95873672D01*
X123991512Y-95648404D01*
X123806911Y-95571750D01*
X125590162Y-93788500D01*
X125660299Y-93788500D01*
X125779188Y-93907596D01*
X126073152Y-94029661D01*
X126391452Y-94029939D01*
X126685628Y-93908387D01*
X126910896Y-93683512D01*
X127032961Y-93389548D01*
X127033239Y-93071248D01*
X126911687Y-92777072D01*
X126686812Y-92551804D01*
X126392848Y-92429739D01*
X126074548Y-92429461D01*
X125780372Y-92551013D01*
X125660275Y-92670900D01*
X125358700Y-92670900D01*
X125144856Y-92713436D01*
X124963569Y-92834569D01*
X119283900Y-98514238D01*
X119283900Y-97001662D01*
X125264369Y-91021192D01*
X125432652Y-91021339D01*
X125726828Y-90899787D01*
X125952096Y-90674912D01*
X126074161Y-90380948D01*
X126074439Y-90062648D01*
X125952887Y-89768472D01*
X125728012Y-89543204D01*
X125434048Y-89421139D01*
X125115748Y-89420861D01*
X124821572Y-89542413D01*
X124596304Y-89767288D01*
X124474239Y-90061252D01*
X124474090Y-90230947D01*
X118329969Y-96375069D01*
X118208836Y-96556356D01*
X118166300Y-96770200D01*
X118166300Y-104552800D01*
X118208836Y-104766644D01*
X118329969Y-104947931D01*
X119658168Y-106276131D01*
X119658169Y-106276131D01*
X119839456Y-106397264D01*
X120053300Y-106439800D01*
X120912637Y-106439800D01*
X122631200Y-108158362D01*
X122631200Y-111169207D01*
X122399737Y-111323866D01*
X122157472Y-111686442D01*
X122072400Y-112114129D01*
X122072400Y-112675871D01*
X122157472Y-113103558D01*
X122399737Y-113466134D01*
X122762313Y-113708399D01*
X123190000Y-113793471D01*
X123617687Y-113708399D01*
X123980263Y-113466134D01*
X124222528Y-113103558D01*
X124307600Y-112675871D01*
X124307600Y-112114129D01*
X124222528Y-111686442D01*
X123980263Y-111323866D01*
X123748800Y-111169207D01*
X123748800Y-107926900D01*
X123706265Y-107713057D01*
X123706264Y-107713056D01*
X123585132Y-107531769D01*
X121934362Y-105880999D01*
X122365631Y-105449731D01*
X122377538Y-105431910D01*
X122399737Y-105465134D01*
X122762313Y-105707399D01*
X123190000Y-105792471D01*
X123617687Y-105707399D01*
X123980263Y-105465134D01*
X124222528Y-105102558D01*
X124307600Y-104674871D01*
X124307600Y-104113129D01*
X124222528Y-103685442D01*
X123980263Y-103322866D01*
X123617687Y-103080601D01*
X123190000Y-102995529D01*
X122762313Y-103080601D01*
X122399737Y-103322866D01*
X122227124Y-103581200D01*
X121970500Y-103581200D01*
X121756656Y-103623736D01*
X121676903Y-103677025D01*
X121440263Y-103322866D01*
X121208800Y-103168207D01*
X121208800Y-102920500D01*
X121194157Y-102846885D01*
X121541708Y-102654480D01*
X121877363Y-102232970D01*
X121920000Y-102084578D01*
X121962637Y-102232970D01*
X122298292Y-102654480D01*
X122769701Y-102915454D01*
X122826239Y-102922484D01*
X123037600Y-102809637D01*
X123037600Y-101498400D01*
X123037600Y-101193600D01*
X123037600Y-99882363D01*
X122826239Y-99769516D01*
X122769701Y-99776546D01*
X122298292Y-100037520D01*
X121962637Y-100459030D01*
X121920000Y-100607421D01*
X121877363Y-100459030D01*
X121541708Y-100037520D01*
X121070299Y-99776546D01*
X121013761Y-99769516D01*
X120802400Y-99882363D01*
X120802400Y-101193600D01*
X121874825Y-101193600D01*
X121920000Y-101128915D01*
X121965175Y-101193600D01*
X123037600Y-101193600D01*
X123037600Y-101498400D01*
X121965175Y-101498400D01*
X121920000Y-101563084D01*
X121874825Y-101498400D01*
X120802400Y-101498400D01*
X120802400Y-101518400D01*
X120497600Y-101518400D01*
X120497600Y-101498400D01*
X120477600Y-101498400D01*
X120477600Y-101193600D01*
X120497600Y-101193600D01*
X120497600Y-99882363D01*
X120286239Y-99769516D01*
X120229701Y-99776546D01*
X119944700Y-99934323D01*
X119944700Y-99433962D01*
X122783204Y-96595457D01*
X122859013Y-96778928D01*
X123083888Y-97004196D01*
X123377852Y-97126261D01*
X123547547Y-97126409D01*
X125035669Y-98614531D01*
X125216956Y-98735664D01*
X125216957Y-98735665D01*
X125430800Y-98778200D01*
X179818637Y-98778200D01*
X182030837Y-100990400D01*
X181762400Y-100990400D01*
X181762400Y-102717600D01*
X181782400Y-102717600D01*
X181782400Y-103022400D01*
X181762400Y-103022400D01*
X181762400Y-104749600D01*
X182397400Y-104749600D01*
X183105091Y-104548203D01*
X183681841Y-104091315D01*
X183868200Y-103756693D01*
X183868200Y-107334282D01*
X183791147Y-106946910D01*
X183438761Y-106419527D01*
X182911378Y-106067141D01*
X182289288Y-105943400D01*
X181457600Y-105943400D01*
X181457600Y-104749600D01*
X181457600Y-103022400D01*
X181457600Y-102717600D01*
X181457600Y-100990400D01*
X180822600Y-100990400D01*
X180114909Y-101191797D01*
X179538159Y-101648685D01*
X179180155Y-102291507D01*
X179148494Y-102426410D01*
X179254537Y-102717600D01*
X181457600Y-102717600D01*
X181457600Y-103022400D01*
X179254537Y-103022400D01*
X179148494Y-103313590D01*
X179180155Y-103448493D01*
X179538159Y-104091315D01*
X180114909Y-104548203D01*
X180822600Y-104749600D01*
X181457600Y-104749600D01*
X181457600Y-105943400D01*
X180930712Y-105943400D01*
X180308622Y-106067141D01*
X179781239Y-106419527D01*
X179428853Y-106946910D01*
X179305112Y-107569000D01*
X179428853Y-108191090D01*
X179781239Y-108718473D01*
X180308622Y-109070859D01*
X180930712Y-109194600D01*
X182289288Y-109194600D01*
X182911378Y-109070859D01*
X183438761Y-108718473D01*
X183791147Y-108191090D01*
X183868200Y-107803717D01*
X183868200Y-111732500D01*
X183910736Y-111946344D01*
X184031869Y-112127631D01*
X189139369Y-117235131D01*
X189320656Y-117356264D01*
X189320657Y-117356264D01*
X189534500Y-117398800D01*
X189777231Y-117398800D01*
X189931890Y-117630263D01*
X190294466Y-117872528D01*
X190722153Y-117957600D01*
X191801847Y-117957600D01*
X192229534Y-117872528D01*
X192592110Y-117630263D01*
X192834375Y-117267687D01*
X192919447Y-116840000D01*
X192834375Y-116412313D01*
X192592110Y-116049737D01*
X192229534Y-115807472D01*
X191801847Y-115722400D01*
X190722153Y-115722400D01*
X190294466Y-115807472D01*
X189931890Y-116049737D01*
X189777231Y-116281200D01*
X189765962Y-116281200D01*
X184985800Y-111501038D01*
X184985800Y-110541562D01*
X189139369Y-114695131D01*
X189320656Y-114816264D01*
X189320657Y-114816264D01*
X189534500Y-114858800D01*
X189777231Y-114858800D01*
X189931890Y-115090263D01*
X190294466Y-115332528D01*
X190722153Y-115417600D01*
X191801847Y-115417600D01*
X192229534Y-115332528D01*
X192592110Y-115090263D01*
X192806508Y-114769392D01*
X192876656Y-114816264D01*
X193090500Y-114858800D01*
X193333231Y-114858800D01*
X193487890Y-115090263D01*
X193850466Y-115332528D01*
X194278153Y-115417600D01*
X195357847Y-115417600D01*
X195785534Y-115332528D01*
X195986700Y-115198113D01*
X195986700Y-115941886D01*
X195785534Y-115807472D01*
X195357847Y-115722400D01*
X194278153Y-115722400D01*
X193850466Y-115807472D01*
X193487890Y-116049737D01*
X193245625Y-116412313D01*
X193160553Y-116840000D01*
X193245625Y-117267687D01*
X193487890Y-117630263D01*
X193850466Y-117872528D01*
X194278153Y-117957600D01*
X195357847Y-117957600D01*
X195785534Y-117872528D01*
X196148110Y-117630263D01*
X196302768Y-117398800D01*
X196545500Y-117398800D01*
X196759344Y-117356264D01*
X196940631Y-117235131D01*
X197061764Y-117053844D01*
X197104300Y-116840000D01*
X197104300Y-104556582D01*
X197706070Y-105353656D01*
X198596103Y-105876841D01*
X198903127Y-105958891D01*
X199313800Y-105862530D01*
X199313800Y-103022400D01*
X199293800Y-103022400D01*
X199293800Y-102717600D01*
X199313800Y-102717600D01*
X199313800Y-99877470D01*
X198903127Y-99781109D01*
X198596103Y-99863159D01*
X197706070Y-100386344D01*
X197104300Y-101183417D01*
X197104300Y-101076400D01*
X197061764Y-100862557D01*
X197061764Y-100862556D01*
X196940631Y-100681269D01*
X196194231Y-99934869D01*
X196107859Y-99877157D01*
X196148110Y-99850263D01*
X196390375Y-99487687D01*
X196475447Y-99060000D01*
X196390375Y-98632313D01*
X196200938Y-98348800D01*
X198224938Y-98348800D01*
X199727949Y-99851811D01*
X199618600Y-99877470D01*
X199618600Y-102717600D01*
X199638600Y-102717600D01*
X199638600Y-103022400D01*
X199618600Y-103022400D01*
X199618600Y-105862530D01*
X200029273Y-105958891D01*
X200336297Y-105876841D01*
X201226330Y-105353656D01*
X201404300Y-105117926D01*
X201404300Y-111994209D01*
X201198688Y-111821128D01*
X200685400Y-111658400D01*
X200177400Y-111658400D01*
X200177400Y-112877600D01*
X200197400Y-112877600D01*
X200197400Y-113182400D01*
X200177400Y-113182400D01*
X200177400Y-114401600D01*
X200685400Y-114401600D01*
X201198688Y-114238872D01*
X201404300Y-114065790D01*
X201404300Y-114853355D01*
X201355110Y-114779737D01*
X200992534Y-114537472D01*
X200564847Y-114452400D01*
X199872600Y-114452400D01*
X199872600Y-114401600D01*
X199872600Y-113182400D01*
X199872600Y-112877600D01*
X199872600Y-111658400D01*
X199364600Y-111658400D01*
X198851312Y-111821128D01*
X198439369Y-112167896D01*
X198194516Y-112666239D01*
X198307363Y-112877600D01*
X199872600Y-112877600D01*
X199872600Y-113182400D01*
X198307363Y-113182400D01*
X198194516Y-113393761D01*
X198439369Y-113892104D01*
X198851312Y-114238872D01*
X199364600Y-114401600D01*
X199872600Y-114401600D01*
X199872600Y-114452400D01*
X199485153Y-114452400D01*
X199057466Y-114537472D01*
X198694890Y-114779737D01*
X198452625Y-115142313D01*
X198367553Y-115570000D01*
X198452625Y-115997687D01*
X198694890Y-116360263D01*
X199057466Y-116602528D01*
X199485153Y-116687600D01*
X200564847Y-116687600D01*
X200992534Y-116602528D01*
X201355110Y-116360263D01*
X201404300Y-116286644D01*
X201404300Y-117393355D01*
X201355110Y-117319737D01*
X200992534Y-117077472D01*
X200564847Y-116992400D01*
X199485153Y-116992400D01*
X199057466Y-117077472D01*
X198694890Y-117319737D01*
X198452625Y-117682313D01*
X198367553Y-118110000D01*
X198452625Y-118537687D01*
X198694890Y-118900263D01*
X199057466Y-119142528D01*
X199485153Y-119227600D01*
X200564847Y-119227600D01*
X200901502Y-119160635D01*
X196475447Y-123586690D01*
X196475447Y-121920000D01*
X196475447Y-119380000D01*
X196390375Y-118952313D01*
X196148110Y-118589737D01*
X195785534Y-118347472D01*
X195357847Y-118262400D01*
X194278153Y-118262400D01*
X193850466Y-118347472D01*
X193487890Y-118589737D01*
X193245625Y-118952313D01*
X193160553Y-119380000D01*
X193245625Y-119807687D01*
X193487890Y-120170263D01*
X193850466Y-120412528D01*
X194278153Y-120497600D01*
X195357847Y-120497600D01*
X195785534Y-120412528D01*
X196148110Y-120170263D01*
X196390375Y-119807687D01*
X196475447Y-119380000D01*
X196475447Y-121920000D01*
X196390375Y-121492313D01*
X196148110Y-121129737D01*
X195785534Y-120887472D01*
X195357847Y-120802400D01*
X194278153Y-120802400D01*
X193850466Y-120887472D01*
X193487890Y-121129737D01*
X193245625Y-121492313D01*
X193160553Y-121920000D01*
X193245625Y-122347687D01*
X193487890Y-122710263D01*
X193850466Y-122952528D01*
X194278153Y-123037600D01*
X195357847Y-123037600D01*
X195785534Y-122952528D01*
X196148110Y-122710263D01*
X196390375Y-122347687D01*
X196475447Y-121920000D01*
X196475447Y-123586690D01*
X196175738Y-123886400D01*
X192919447Y-123886400D01*
X192919447Y-121920000D01*
X192919447Y-119380000D01*
X192834375Y-118952313D01*
X192592110Y-118589737D01*
X192229534Y-118347472D01*
X191801847Y-118262400D01*
X190722153Y-118262400D01*
X190294466Y-118347472D01*
X189931890Y-118589737D01*
X189689625Y-118952313D01*
X189604553Y-119380000D01*
X189689625Y-119807687D01*
X189931890Y-120170263D01*
X190294466Y-120412528D01*
X190722153Y-120497600D01*
X191801847Y-120497600D01*
X192229534Y-120412528D01*
X192592110Y-120170263D01*
X192834375Y-119807687D01*
X192919447Y-119380000D01*
X192919447Y-121920000D01*
X192834375Y-121492313D01*
X192592110Y-121129737D01*
X192229534Y-120887472D01*
X191801847Y-120802400D01*
X190722153Y-120802400D01*
X190294466Y-120887472D01*
X189931890Y-121129737D01*
X189689625Y-121492313D01*
X189604553Y-121920000D01*
X189689625Y-122347687D01*
X189931890Y-122710263D01*
X190294466Y-122952528D01*
X190722153Y-123037600D01*
X191801847Y-123037600D01*
X192229534Y-122952528D01*
X192592110Y-122710263D01*
X192834375Y-122347687D01*
X192919447Y-121920000D01*
X192919447Y-123886400D01*
X187477439Y-123886400D01*
X187477439Y-119540848D01*
X187355887Y-119246672D01*
X187131012Y-119021404D01*
X186837048Y-118899339D01*
X186703439Y-118899222D01*
X186703439Y-116833248D01*
X186581887Y-116539072D01*
X186357012Y-116313804D01*
X186063048Y-116191739D01*
X185744748Y-116191461D01*
X185450572Y-116313013D01*
X185225304Y-116537888D01*
X185103239Y-116831852D01*
X185103090Y-117001547D01*
X184857938Y-117246700D01*
X184626867Y-117246700D01*
X184626867Y-114350800D01*
X184600559Y-114215211D01*
X184522277Y-114096041D01*
X184404099Y-114016269D01*
X184264300Y-113988233D01*
X182765700Y-113988233D01*
X182630111Y-114014541D01*
X182510941Y-114092823D01*
X182431169Y-114211001D01*
X182403133Y-114350800D01*
X182403133Y-117348000D01*
X182429441Y-117483589D01*
X182507723Y-117602759D01*
X182625901Y-117682531D01*
X182765700Y-117710567D01*
X182956200Y-117710567D01*
X182956200Y-117805500D01*
X182998736Y-118019344D01*
X183119869Y-118200631D01*
X183301156Y-118321764D01*
X183515000Y-118364300D01*
X185089400Y-118364300D01*
X185303243Y-118321764D01*
X185303244Y-118321764D01*
X185484531Y-118200631D01*
X185893369Y-117791792D01*
X186061652Y-117791939D01*
X186355828Y-117670387D01*
X186581096Y-117445512D01*
X186703161Y-117151548D01*
X186703439Y-116833248D01*
X186703439Y-118899222D01*
X186518748Y-118899061D01*
X186426203Y-118937300D01*
X185996100Y-118937300D01*
X185896867Y-118957038D01*
X185896867Y-118872000D01*
X185870559Y-118736411D01*
X185792277Y-118617241D01*
X185674099Y-118537469D01*
X185534300Y-118509433D01*
X184035700Y-118509433D01*
X183900111Y-118535741D01*
X183780941Y-118614023D01*
X183701169Y-118732201D01*
X183673133Y-118872000D01*
X183673133Y-121869200D01*
X183699441Y-122004789D01*
X183777723Y-122123959D01*
X183895901Y-122203731D01*
X184035700Y-122231767D01*
X184415800Y-122231767D01*
X184415800Y-122331132D01*
X184377839Y-122422552D01*
X184377561Y-122740852D01*
X184499113Y-123035028D01*
X184723988Y-123260296D01*
X185017952Y-123382361D01*
X185336252Y-123382639D01*
X185630428Y-123261087D01*
X185855696Y-123036212D01*
X185977761Y-122742248D01*
X185978039Y-122423948D01*
X185939800Y-122331403D01*
X185939800Y-121843000D01*
X185896867Y-121627163D01*
X185896867Y-121627161D01*
X185896867Y-120876163D01*
X186311730Y-120461300D01*
X186425932Y-120461300D01*
X186517352Y-120499261D01*
X186835652Y-120499539D01*
X187129828Y-120377987D01*
X187355096Y-120153112D01*
X187477161Y-119859148D01*
X187477439Y-119540848D01*
X187477439Y-123886400D01*
X184030162Y-123886400D01*
X182803800Y-122660037D01*
X182803800Y-122326700D01*
X182803800Y-122231767D01*
X182994300Y-122231767D01*
X183129889Y-122205459D01*
X183249059Y-122127177D01*
X183328831Y-122008999D01*
X183356867Y-121869200D01*
X183356867Y-118872000D01*
X183330559Y-118736411D01*
X183252277Y-118617241D01*
X183134099Y-118537469D01*
X182994300Y-118509433D01*
X182086867Y-118509433D01*
X182086867Y-117348000D01*
X182086867Y-114350800D01*
X182060559Y-114215211D01*
X181982277Y-114096041D01*
X181864099Y-114016269D01*
X181724300Y-113988233D01*
X181533800Y-113988233D01*
X181533800Y-113893300D01*
X181491264Y-113679456D01*
X181370131Y-113498169D01*
X181188844Y-113377036D01*
X180975000Y-113334500D01*
X180577062Y-113334500D01*
X178787092Y-111544530D01*
X178787239Y-111376248D01*
X178665687Y-111082072D01*
X178440812Y-110856804D01*
X178146848Y-110734739D01*
X177828548Y-110734461D01*
X177534372Y-110856013D01*
X177309104Y-111080888D01*
X177187039Y-111374852D01*
X177186761Y-111693152D01*
X177308313Y-111987328D01*
X177533188Y-112212596D01*
X177827152Y-112334661D01*
X177996847Y-112334809D01*
X179888140Y-114226102D01*
X179863133Y-114350800D01*
X179863133Y-117348000D01*
X179889441Y-117483589D01*
X179967723Y-117602759D01*
X180085901Y-117682531D01*
X180225700Y-117710567D01*
X181724300Y-117710567D01*
X181859889Y-117684259D01*
X181979059Y-117605977D01*
X182058831Y-117487799D01*
X182086867Y-117348000D01*
X182086867Y-118509433D01*
X181495700Y-118509433D01*
X181360111Y-118535741D01*
X181240941Y-118614023D01*
X181161169Y-118732201D01*
X181133133Y-118872000D01*
X181133133Y-121869200D01*
X181159441Y-122004789D01*
X181237723Y-122123959D01*
X181355901Y-122203731D01*
X181495700Y-122231767D01*
X181686200Y-122231767D01*
X181686200Y-122326700D01*
X181686200Y-122332700D01*
X178449527Y-122332700D01*
X178528361Y-122142848D01*
X178528383Y-122116962D01*
X178627812Y-122017533D01*
X178697723Y-122123959D01*
X178815901Y-122203731D01*
X178955700Y-122231767D01*
X180454300Y-122231767D01*
X180589889Y-122205459D01*
X180709059Y-122127177D01*
X180788831Y-122008999D01*
X180816867Y-121869200D01*
X180816867Y-118872000D01*
X180790559Y-118736411D01*
X180712277Y-118617241D01*
X180594099Y-118537469D01*
X180454300Y-118509433D01*
X180365400Y-118509433D01*
X180365400Y-118312900D01*
X180315130Y-118060176D01*
X180171973Y-117845927D01*
X179766173Y-117440127D01*
X179551924Y-117296970D01*
X179546867Y-117295964D01*
X179546867Y-114350800D01*
X179520559Y-114215211D01*
X179442277Y-114096041D01*
X179324099Y-114016269D01*
X179184300Y-113988233D01*
X177685700Y-113988233D01*
X177550111Y-114014541D01*
X177430941Y-114092823D01*
X177351169Y-114211001D01*
X177323133Y-114350800D01*
X177323133Y-117348000D01*
X177349441Y-117483589D01*
X177427723Y-117602759D01*
X177545901Y-117682531D01*
X177685700Y-117710567D01*
X177774600Y-117710567D01*
X177774600Y-117907100D01*
X177824870Y-118159824D01*
X177968027Y-118374073D01*
X178182276Y-118517230D01*
X178435000Y-118567500D01*
X178771763Y-118567500D01*
X178700941Y-118614023D01*
X178621169Y-118732201D01*
X178593133Y-118872000D01*
X178593133Y-120184321D01*
X177594671Y-121182782D01*
X177569948Y-121182761D01*
X177275772Y-121304313D01*
X177050504Y-121529188D01*
X176928439Y-121823152D01*
X176928161Y-122141452D01*
X177007183Y-122332700D01*
X176616881Y-122332700D01*
X176616939Y-122266848D01*
X176495387Y-121972672D01*
X176270512Y-121747404D01*
X175976548Y-121625339D01*
X175658248Y-121625061D01*
X175364072Y-121746613D01*
X175138804Y-121971488D01*
X175016739Y-122265452D01*
X175016461Y-122583752D01*
X175138013Y-122877928D01*
X175362888Y-123103196D01*
X175656852Y-123225261D01*
X175826546Y-123225409D01*
X175887768Y-123286631D01*
X175887769Y-123286631D01*
X175978412Y-123347197D01*
X176069056Y-123407764D01*
X176069057Y-123407764D01*
X176282900Y-123450300D01*
X182013537Y-123450300D01*
X183403569Y-124840332D01*
X183584856Y-124961464D01*
X183584857Y-124961465D01*
X183798700Y-125004000D01*
X193054698Y-125004000D01*
X192995223Y-125028575D01*
X192340873Y-125681784D01*
X191986304Y-126535680D01*
X191985497Y-127460264D01*
X192338575Y-128314777D01*
X192991784Y-128969127D01*
X193845680Y-129323696D01*
X194770264Y-129324503D01*
X195624777Y-128971425D01*
X196279127Y-128318216D01*
X196633696Y-127464320D01*
X196634503Y-126539736D01*
X196281425Y-125685223D01*
X195628216Y-125030873D01*
X195563498Y-125004000D01*
X196407200Y-125004000D01*
X196621043Y-124961464D01*
X196621044Y-124961464D01*
X196802331Y-124840331D01*
X202358231Y-119284431D01*
X202479364Y-119103144D01*
X202479364Y-119103143D01*
X202521900Y-118889300D01*
X202521900Y-103836514D01*
X202884165Y-104378683D01*
X203576355Y-104841189D01*
X204392848Y-105003600D01*
X205512352Y-105003600D01*
X206328845Y-104841189D01*
X207021035Y-104378683D01*
X207452691Y-103732662D01*
X207708650Y-103989067D01*
X208193924Y-104190570D01*
X208719371Y-104191029D01*
X209204996Y-103990373D01*
X209576867Y-103619150D01*
X209778370Y-103133876D01*
X209778829Y-102608429D01*
X209778829Y-129755900D01*
X209403528Y-129755900D01*
X209403528Y-107365800D01*
X209241117Y-106549307D01*
X208778611Y-105857117D01*
X208086421Y-105394611D01*
X207269928Y-105232200D01*
X205632472Y-105232200D01*
X204815979Y-105394611D01*
X204123789Y-105857117D01*
X203661283Y-106549307D01*
X203498872Y-107365800D01*
X203661283Y-108182293D01*
X204123789Y-108874483D01*
X204815979Y-109336989D01*
X205632472Y-109499400D01*
X207269928Y-109499400D01*
X208086421Y-109336989D01*
X208778611Y-108874483D01*
X209241117Y-108182293D01*
X209403528Y-107365800D01*
X209403528Y-129755900D01*
X190347600Y-129755900D01*
X190347600Y-127539847D01*
X190347600Y-126460153D01*
X190262528Y-126032466D01*
X190020263Y-125669890D01*
X189657687Y-125427625D01*
X189230000Y-125342553D01*
X188802313Y-125427625D01*
X188439737Y-125669890D01*
X188197472Y-126032466D01*
X188112400Y-126460153D01*
X188112400Y-127539847D01*
X188197472Y-127967534D01*
X188439737Y-128330110D01*
X188802313Y-128572375D01*
X189230000Y-128657447D01*
X189657687Y-128572375D01*
X190020263Y-128330110D01*
X190262528Y-127967534D01*
X190347600Y-127539847D01*
X190347600Y-129755900D01*
X187807600Y-129755900D01*
X187807600Y-127539847D01*
X187807600Y-126460153D01*
X187722528Y-126032466D01*
X187480263Y-125669890D01*
X187117687Y-125427625D01*
X186690000Y-125342553D01*
X186262313Y-125427625D01*
X185899737Y-125669890D01*
X185657472Y-126032466D01*
X185572400Y-126460153D01*
X185572400Y-127539847D01*
X185657472Y-127967534D01*
X185899737Y-128330110D01*
X186262313Y-128572375D01*
X186690000Y-128657447D01*
X187117687Y-128572375D01*
X187480263Y-128330110D01*
X187722528Y-127967534D01*
X187807600Y-127539847D01*
X187807600Y-129755900D01*
X185267600Y-129755900D01*
X185267600Y-127539847D01*
X185267600Y-126460153D01*
X185182528Y-126032466D01*
X184940263Y-125669890D01*
X184577687Y-125427625D01*
X184150000Y-125342553D01*
X183722313Y-125427625D01*
X183359737Y-125669890D01*
X183117472Y-126032466D01*
X183032400Y-126460153D01*
X183032400Y-127539847D01*
X183117472Y-127967534D01*
X183359737Y-128330110D01*
X183722313Y-128572375D01*
X184150000Y-128657447D01*
X184577687Y-128572375D01*
X184940263Y-128330110D01*
X185182528Y-127967534D01*
X185267600Y-127539847D01*
X185267600Y-129755900D01*
X182727600Y-129755900D01*
X182727600Y-127539847D01*
X182727600Y-126460153D01*
X182642528Y-126032466D01*
X182400263Y-125669890D01*
X182037687Y-125427625D01*
X181610000Y-125342553D01*
X181182313Y-125427625D01*
X180819737Y-125669890D01*
X180577472Y-126032466D01*
X180492400Y-126460153D01*
X180492400Y-127539847D01*
X180577472Y-127967534D01*
X180819737Y-128330110D01*
X181182313Y-128572375D01*
X181610000Y-128657447D01*
X182037687Y-128572375D01*
X182400263Y-128330110D01*
X182642528Y-127967534D01*
X182727600Y-127539847D01*
X182727600Y-129755900D01*
X180187600Y-129755900D01*
X180187600Y-127539847D01*
X180187600Y-126460153D01*
X180102528Y-126032466D01*
X179860263Y-125669890D01*
X179497687Y-125427625D01*
X179070000Y-125342553D01*
X178642313Y-125427625D01*
X178279737Y-125669890D01*
X178037472Y-126032466D01*
X177952400Y-126460153D01*
X177952400Y-127539847D01*
X178037472Y-127967534D01*
X178279737Y-128330110D01*
X178642313Y-128572375D01*
X179070000Y-128657447D01*
X179497687Y-128572375D01*
X179860263Y-128330110D01*
X180102528Y-127967534D01*
X180187600Y-127539847D01*
X180187600Y-129755900D01*
X177647600Y-129755900D01*
X177647600Y-127539847D01*
X177647600Y-126460153D01*
X177562528Y-126032466D01*
X177320263Y-125669890D01*
X176957687Y-125427625D01*
X176530000Y-125342553D01*
X176102313Y-125427625D01*
X175739737Y-125669890D01*
X175497472Y-126032466D01*
X175412400Y-126460153D01*
X175412400Y-127539847D01*
X175497472Y-127967534D01*
X175739737Y-128330110D01*
X176102313Y-128572375D01*
X176530000Y-128657447D01*
X176957687Y-128572375D01*
X177320263Y-128330110D01*
X177562528Y-127967534D01*
X177647600Y-127539847D01*
X177647600Y-129755900D01*
X175107600Y-129755900D01*
X175107600Y-127539847D01*
X175107600Y-126460153D01*
X175022528Y-126032466D01*
X174780263Y-125669890D01*
X174417687Y-125427625D01*
X173990000Y-125342553D01*
X173562313Y-125427625D01*
X173199737Y-125669890D01*
X172957472Y-126032466D01*
X172872400Y-126460153D01*
X172872400Y-127539847D01*
X172957472Y-127967534D01*
X173199737Y-128330110D01*
X173562313Y-128572375D01*
X173990000Y-128657447D01*
X174417687Y-128572375D01*
X174780263Y-128330110D01*
X175022528Y-127967534D01*
X175107600Y-127539847D01*
X175107600Y-129755900D01*
X172567600Y-129755900D01*
X172567600Y-127539847D01*
X172567600Y-126460153D01*
X172482528Y-126032466D01*
X172240263Y-125669890D01*
X171877687Y-125427625D01*
X171450000Y-125342553D01*
X171022313Y-125427625D01*
X170659737Y-125669890D01*
X170417472Y-126032466D01*
X170332400Y-126460153D01*
X170332400Y-127539847D01*
X170417472Y-127967534D01*
X170659737Y-128330110D01*
X171022313Y-128572375D01*
X171450000Y-128657447D01*
X171877687Y-128572375D01*
X172240263Y-128330110D01*
X172482528Y-127967534D01*
X172567600Y-127539847D01*
X172567600Y-129755900D01*
X170281600Y-129755900D01*
X170281600Y-102483257D01*
X170281600Y-102240743D01*
X170281600Y-101650800D01*
X170281600Y-101041200D01*
X170281600Y-100451257D01*
X170281600Y-100208743D01*
X170188794Y-99984689D01*
X170017311Y-99813206D01*
X169793257Y-99720400D01*
X169214800Y-99720400D01*
X169062400Y-99872800D01*
X169062400Y-101193600D01*
X170129200Y-101193600D01*
X170281600Y-101041200D01*
X170281600Y-101650800D01*
X170129200Y-101498400D01*
X169062400Y-101498400D01*
X169062400Y-102819200D01*
X169214800Y-102971600D01*
X169793257Y-102971600D01*
X170017311Y-102878794D01*
X170188794Y-102707311D01*
X170281600Y-102483257D01*
X170281600Y-129755900D01*
X170027600Y-129755900D01*
X170027600Y-117755871D01*
X170027600Y-117194129D01*
X170027600Y-112675871D01*
X170027600Y-112114129D01*
X170027600Y-104674871D01*
X170027600Y-104113129D01*
X169942528Y-103685442D01*
X169700263Y-103322866D01*
X169337687Y-103080601D01*
X168910000Y-102995529D01*
X168757600Y-103025843D01*
X168757600Y-102819200D01*
X168757600Y-101498400D01*
X168757600Y-101193600D01*
X168757600Y-99872800D01*
X168605200Y-99720400D01*
X168026743Y-99720400D01*
X167802689Y-99813206D01*
X167631206Y-99984689D01*
X167538400Y-100208743D01*
X167538400Y-100384985D01*
X167261708Y-100037520D01*
X166790299Y-99776546D01*
X166733761Y-99769516D01*
X166522400Y-99882363D01*
X166522400Y-101193600D01*
X167594825Y-101193600D01*
X167634290Y-101137090D01*
X167690800Y-101193600D01*
X168757600Y-101193600D01*
X168757600Y-101498400D01*
X167690800Y-101498400D01*
X167634290Y-101554909D01*
X167594825Y-101498400D01*
X166522400Y-101498400D01*
X166522400Y-102809637D01*
X166733761Y-102922484D01*
X166790299Y-102915454D01*
X167261708Y-102654480D01*
X167538400Y-102307014D01*
X167538400Y-102483257D01*
X167631206Y-102707311D01*
X167802689Y-102878794D01*
X168026743Y-102971600D01*
X168605200Y-102971600D01*
X168757600Y-102819200D01*
X168757600Y-103025843D01*
X168482313Y-103080601D01*
X168119737Y-103322866D01*
X167877472Y-103685442D01*
X167792400Y-104113129D01*
X167792400Y-104674871D01*
X167877472Y-105102558D01*
X168119737Y-105465134D01*
X168482313Y-105707399D01*
X168910000Y-105792471D01*
X169337687Y-105707399D01*
X169700263Y-105465134D01*
X169942528Y-105102558D01*
X170027600Y-104674871D01*
X170027600Y-112114129D01*
X169942528Y-111686442D01*
X169700263Y-111323866D01*
X169337687Y-111081601D01*
X168910000Y-110996529D01*
X168482313Y-111081601D01*
X168119737Y-111323866D01*
X167877472Y-111686442D01*
X167792400Y-112114129D01*
X167792400Y-112675871D01*
X167877472Y-113103558D01*
X168119737Y-113466134D01*
X168482313Y-113708399D01*
X168910000Y-113793471D01*
X169337687Y-113708399D01*
X169700263Y-113466134D01*
X169942528Y-113103558D01*
X170027600Y-112675871D01*
X170027600Y-117194129D01*
X169942528Y-116766442D01*
X169700263Y-116403866D01*
X169337687Y-116161601D01*
X168910000Y-116076529D01*
X168482313Y-116161601D01*
X168119737Y-116403866D01*
X167913180Y-116713000D01*
X167487600Y-116713000D01*
X167487600Y-112675871D01*
X167487600Y-112114129D01*
X167487600Y-104674871D01*
X167487600Y-104113129D01*
X167402528Y-103685442D01*
X167160263Y-103322866D01*
X166797687Y-103080601D01*
X166370000Y-102995529D01*
X166217600Y-103025843D01*
X166217600Y-102809637D01*
X166217600Y-101498400D01*
X166217600Y-101193600D01*
X166217600Y-99882363D01*
X166006239Y-99769516D01*
X165949701Y-99776546D01*
X165478292Y-100037520D01*
X165142637Y-100459030D01*
X165100000Y-100607421D01*
X165057363Y-100459030D01*
X164721708Y-100037520D01*
X164250299Y-99776546D01*
X164193761Y-99769516D01*
X163982400Y-99882363D01*
X163982400Y-101193600D01*
X165054825Y-101193600D01*
X165100000Y-101128915D01*
X165145175Y-101193600D01*
X166217600Y-101193600D01*
X166217600Y-101498400D01*
X165145175Y-101498400D01*
X165100000Y-101563084D01*
X165054825Y-101498400D01*
X163982400Y-101498400D01*
X163982400Y-102809637D01*
X164193761Y-102922484D01*
X164250299Y-102915454D01*
X164721708Y-102654480D01*
X165057363Y-102232970D01*
X165100000Y-102084578D01*
X165142637Y-102232970D01*
X165478292Y-102654480D01*
X165949701Y-102915454D01*
X166006239Y-102922484D01*
X166217600Y-102809637D01*
X166217600Y-103025843D01*
X165942313Y-103080601D01*
X165579737Y-103322866D01*
X165337472Y-103685442D01*
X165252400Y-104113129D01*
X165252400Y-104674871D01*
X165337472Y-105102558D01*
X165579737Y-105465134D01*
X165942313Y-105707399D01*
X166370000Y-105792471D01*
X166797687Y-105707399D01*
X167160263Y-105465134D01*
X167402528Y-105102558D01*
X167487600Y-104674871D01*
X167487600Y-112114129D01*
X167402528Y-111686442D01*
X167160263Y-111323866D01*
X166797687Y-111081601D01*
X166370000Y-110996529D01*
X165942313Y-111081601D01*
X165579737Y-111323866D01*
X165337472Y-111686442D01*
X165252400Y-112114129D01*
X165252400Y-112675871D01*
X165337472Y-113103558D01*
X165579737Y-113466134D01*
X165942313Y-113708399D01*
X166370000Y-113793471D01*
X166797687Y-113708399D01*
X167160263Y-113466134D01*
X167402528Y-113103558D01*
X167487600Y-112675871D01*
X167487600Y-116713000D01*
X167366819Y-116713000D01*
X167160263Y-116403866D01*
X166797687Y-116161601D01*
X166370000Y-116076529D01*
X165942313Y-116161601D01*
X165579737Y-116403866D01*
X165373180Y-116713000D01*
X164947600Y-116713000D01*
X164947600Y-112675871D01*
X164947600Y-112114129D01*
X164947600Y-104674871D01*
X164947600Y-104113129D01*
X164862528Y-103685442D01*
X164620263Y-103322866D01*
X164257687Y-103080601D01*
X163830000Y-102995529D01*
X163677600Y-103025843D01*
X163677600Y-102809637D01*
X163677600Y-101498400D01*
X163677600Y-101193600D01*
X163677600Y-99882363D01*
X163466239Y-99769516D01*
X163409701Y-99776546D01*
X162938292Y-100037520D01*
X162602637Y-100459030D01*
X162560000Y-100607421D01*
X162517363Y-100459030D01*
X162181708Y-100037520D01*
X161710299Y-99776546D01*
X161653761Y-99769516D01*
X161442400Y-99882363D01*
X161442400Y-101193600D01*
X162514825Y-101193600D01*
X162560000Y-101128915D01*
X162605175Y-101193600D01*
X163677600Y-101193600D01*
X163677600Y-101498400D01*
X162605175Y-101498400D01*
X162560000Y-101563084D01*
X162514825Y-101498400D01*
X161442400Y-101498400D01*
X161442400Y-102809637D01*
X161653761Y-102922484D01*
X161710299Y-102915454D01*
X162181708Y-102654480D01*
X162517363Y-102232970D01*
X162560000Y-102084578D01*
X162602637Y-102232970D01*
X162938292Y-102654480D01*
X163409701Y-102915454D01*
X163466239Y-102922484D01*
X163677600Y-102809637D01*
X163677600Y-103025843D01*
X163402313Y-103080601D01*
X163039737Y-103322866D01*
X162797472Y-103685442D01*
X162712400Y-104113129D01*
X162712400Y-104674871D01*
X162797472Y-105102558D01*
X163039737Y-105465134D01*
X163402313Y-105707399D01*
X163830000Y-105792471D01*
X164257687Y-105707399D01*
X164620263Y-105465134D01*
X164862528Y-105102558D01*
X164947600Y-104674871D01*
X164947600Y-112114129D01*
X164862528Y-111686442D01*
X164620263Y-111323866D01*
X164257687Y-111081601D01*
X163830000Y-110996529D01*
X163402313Y-111081601D01*
X163039737Y-111323866D01*
X162797472Y-111686442D01*
X162712400Y-112114129D01*
X162712400Y-112675871D01*
X162797472Y-113103558D01*
X163039737Y-113466134D01*
X163402313Y-113708399D01*
X163830000Y-113793471D01*
X164257687Y-113708399D01*
X164620263Y-113466134D01*
X164862528Y-113103558D01*
X164947600Y-112675871D01*
X164947600Y-116713000D01*
X164826819Y-116713000D01*
X164620263Y-116403866D01*
X164257687Y-116161601D01*
X163830000Y-116076529D01*
X163402313Y-116161601D01*
X163039737Y-116403866D01*
X162833180Y-116713000D01*
X162407600Y-116713000D01*
X162407600Y-112675871D01*
X162407600Y-112114129D01*
X162407600Y-104674871D01*
X162407600Y-104113129D01*
X162322528Y-103685442D01*
X162080263Y-103322866D01*
X161717687Y-103080601D01*
X161290000Y-102995529D01*
X161137600Y-103025843D01*
X161137600Y-102809637D01*
X161137600Y-101498400D01*
X161137600Y-101193600D01*
X161137600Y-99882363D01*
X160926239Y-99769516D01*
X160869701Y-99776546D01*
X160398292Y-100037520D01*
X160062637Y-100459030D01*
X160020000Y-100607421D01*
X159977363Y-100459030D01*
X159641708Y-100037520D01*
X159170299Y-99776546D01*
X159113761Y-99769516D01*
X158902400Y-99882363D01*
X158902400Y-101193600D01*
X159974825Y-101193600D01*
X160020000Y-101128915D01*
X160065175Y-101193600D01*
X161137600Y-101193600D01*
X161137600Y-101498400D01*
X160065175Y-101498400D01*
X160020000Y-101563084D01*
X159974825Y-101498400D01*
X158902400Y-101498400D01*
X158902400Y-102809637D01*
X159113761Y-102922484D01*
X159170299Y-102915454D01*
X159641708Y-102654480D01*
X159977363Y-102232970D01*
X160020000Y-102084578D01*
X160062637Y-102232970D01*
X160398292Y-102654480D01*
X160869701Y-102915454D01*
X160926239Y-102922484D01*
X161137600Y-102809637D01*
X161137600Y-103025843D01*
X160862313Y-103080601D01*
X160499737Y-103322866D01*
X160257472Y-103685442D01*
X160172400Y-104113129D01*
X160172400Y-104674871D01*
X160257472Y-105102558D01*
X160499737Y-105465134D01*
X160862313Y-105707399D01*
X161290000Y-105792471D01*
X161717687Y-105707399D01*
X162080263Y-105465134D01*
X162322528Y-105102558D01*
X162407600Y-104674871D01*
X162407600Y-112114129D01*
X162322528Y-111686442D01*
X162080263Y-111323866D01*
X161717687Y-111081601D01*
X161290000Y-110996529D01*
X160862313Y-111081601D01*
X160499737Y-111323866D01*
X160257472Y-111686442D01*
X160172400Y-112114129D01*
X160172400Y-112675871D01*
X160257472Y-113103558D01*
X160499737Y-113466134D01*
X160862313Y-113708399D01*
X161290000Y-113793471D01*
X161717687Y-113708399D01*
X162080263Y-113466134D01*
X162322528Y-113103558D01*
X162407600Y-112675871D01*
X162407600Y-116713000D01*
X162286819Y-116713000D01*
X162080263Y-116403866D01*
X161717687Y-116161601D01*
X161290000Y-116076529D01*
X160862313Y-116161601D01*
X160499737Y-116403866D01*
X160293180Y-116713000D01*
X159867600Y-116713000D01*
X159867600Y-112675871D01*
X159867600Y-112114129D01*
X159867600Y-104674871D01*
X159867600Y-104113129D01*
X159782528Y-103685442D01*
X159540263Y-103322866D01*
X159177687Y-103080601D01*
X158750000Y-102995529D01*
X158597600Y-103025843D01*
X158597600Y-102809637D01*
X158597600Y-101498400D01*
X158597600Y-101193600D01*
X158597600Y-99882363D01*
X158386239Y-99769516D01*
X158329701Y-99776546D01*
X157858292Y-100037520D01*
X157522637Y-100459030D01*
X157480000Y-100607421D01*
X157437363Y-100459030D01*
X157101708Y-100037520D01*
X156630299Y-99776546D01*
X156573761Y-99769516D01*
X156362400Y-99882363D01*
X156362400Y-101193600D01*
X157434825Y-101193600D01*
X157480000Y-101128915D01*
X157525175Y-101193600D01*
X158597600Y-101193600D01*
X158597600Y-101498400D01*
X157525175Y-101498400D01*
X157480000Y-101563084D01*
X157434825Y-101498400D01*
X156362400Y-101498400D01*
X156362400Y-102809637D01*
X156573761Y-102922484D01*
X156630299Y-102915454D01*
X157101708Y-102654480D01*
X157437363Y-102232970D01*
X157480000Y-102084578D01*
X157522637Y-102232970D01*
X157858292Y-102654480D01*
X158329701Y-102915454D01*
X158386239Y-102922484D01*
X158597600Y-102809637D01*
X158597600Y-103025843D01*
X158322313Y-103080601D01*
X157959737Y-103322866D01*
X157717472Y-103685442D01*
X157632400Y-104113129D01*
X157632400Y-104674871D01*
X157717472Y-105102558D01*
X157959737Y-105465134D01*
X158322313Y-105707399D01*
X158750000Y-105792471D01*
X159177687Y-105707399D01*
X159540263Y-105465134D01*
X159782528Y-105102558D01*
X159867600Y-104674871D01*
X159867600Y-112114129D01*
X159782528Y-111686442D01*
X159540263Y-111323866D01*
X159177687Y-111081601D01*
X158750000Y-110996529D01*
X158322313Y-111081601D01*
X157959737Y-111323866D01*
X157717472Y-111686442D01*
X157632400Y-112114129D01*
X157632400Y-112675871D01*
X157717472Y-113103558D01*
X157959737Y-113466134D01*
X158322313Y-113708399D01*
X158750000Y-113793471D01*
X159177687Y-113708399D01*
X159540263Y-113466134D01*
X159782528Y-113103558D01*
X159867600Y-112675871D01*
X159867600Y-116713000D01*
X159746819Y-116713000D01*
X159540263Y-116403866D01*
X159177687Y-116161601D01*
X158750000Y-116076529D01*
X158322313Y-116161601D01*
X157959737Y-116403866D01*
X157753180Y-116713000D01*
X157327600Y-116713000D01*
X157327600Y-112675871D01*
X157327600Y-112114129D01*
X157327600Y-104674871D01*
X157327600Y-104113129D01*
X157242528Y-103685442D01*
X157000263Y-103322866D01*
X156637687Y-103080601D01*
X156210000Y-102995529D01*
X156057600Y-103025843D01*
X156057600Y-102809637D01*
X156057600Y-101498400D01*
X156057600Y-101193600D01*
X156057600Y-99882363D01*
X155846239Y-99769516D01*
X155789701Y-99776546D01*
X155318292Y-100037520D01*
X154982637Y-100459030D01*
X154940000Y-100607421D01*
X154897363Y-100459030D01*
X154561708Y-100037520D01*
X154090299Y-99776546D01*
X154033761Y-99769516D01*
X153822400Y-99882363D01*
X153822400Y-101193600D01*
X154894825Y-101193600D01*
X154940000Y-101128915D01*
X154985175Y-101193600D01*
X156057600Y-101193600D01*
X156057600Y-101498400D01*
X154985175Y-101498400D01*
X154940000Y-101563084D01*
X154894825Y-101498400D01*
X153822400Y-101498400D01*
X153822400Y-102809637D01*
X154033761Y-102922484D01*
X154090299Y-102915454D01*
X154561708Y-102654480D01*
X154897363Y-102232970D01*
X154940000Y-102084578D01*
X154982637Y-102232970D01*
X155318292Y-102654480D01*
X155789701Y-102915454D01*
X155846239Y-102922484D01*
X156057600Y-102809637D01*
X156057600Y-103025843D01*
X155782313Y-103080601D01*
X155419737Y-103322866D01*
X155177472Y-103685442D01*
X155092400Y-104113129D01*
X155092400Y-104674871D01*
X155177472Y-105102558D01*
X155419737Y-105465134D01*
X155782313Y-105707399D01*
X156210000Y-105792471D01*
X156637687Y-105707399D01*
X157000263Y-105465134D01*
X157242528Y-105102558D01*
X157327600Y-104674871D01*
X157327600Y-112114129D01*
X157242528Y-111686442D01*
X157000263Y-111323866D01*
X156637687Y-111081601D01*
X156210000Y-110996529D01*
X155782313Y-111081601D01*
X155419737Y-111323866D01*
X155177472Y-111686442D01*
X155092400Y-112114129D01*
X155092400Y-112675871D01*
X155177472Y-113103558D01*
X155419737Y-113466134D01*
X155782313Y-113708399D01*
X156210000Y-113793471D01*
X156637687Y-113708399D01*
X157000263Y-113466134D01*
X157242528Y-113103558D01*
X157327600Y-112675871D01*
X157327600Y-116713000D01*
X157206819Y-116713000D01*
X157000263Y-116403866D01*
X156637687Y-116161601D01*
X156210000Y-116076529D01*
X155782313Y-116161601D01*
X155419737Y-116403866D01*
X155213180Y-116713000D01*
X154787600Y-116713000D01*
X154787600Y-112675871D01*
X154787600Y-112114129D01*
X154787600Y-104674871D01*
X154787600Y-104113129D01*
X154702528Y-103685442D01*
X154460263Y-103322866D01*
X154097687Y-103080601D01*
X153670000Y-102995529D01*
X153517600Y-103025843D01*
X153517600Y-102809637D01*
X153517600Y-101498400D01*
X153517600Y-101193600D01*
X153517600Y-99882363D01*
X153306239Y-99769516D01*
X153249701Y-99776546D01*
X152778292Y-100037520D01*
X152442637Y-100459030D01*
X152400000Y-100607421D01*
X152357363Y-100459030D01*
X152021708Y-100037520D01*
X151550299Y-99776546D01*
X151493761Y-99769516D01*
X151282400Y-99882363D01*
X151282400Y-101193600D01*
X152354825Y-101193600D01*
X152400000Y-101128915D01*
X152445175Y-101193600D01*
X153517600Y-101193600D01*
X153517600Y-101498400D01*
X152445175Y-101498400D01*
X152400000Y-101563084D01*
X152354825Y-101498400D01*
X151282400Y-101498400D01*
X151282400Y-102809637D01*
X151493761Y-102922484D01*
X151550299Y-102915454D01*
X152021708Y-102654480D01*
X152357363Y-102232970D01*
X152400000Y-102084578D01*
X152442637Y-102232970D01*
X152778292Y-102654480D01*
X153249701Y-102915454D01*
X153306239Y-102922484D01*
X153517600Y-102809637D01*
X153517600Y-103025843D01*
X153242313Y-103080601D01*
X152879737Y-103322866D01*
X152637472Y-103685442D01*
X152552400Y-104113129D01*
X152552400Y-104674871D01*
X152637472Y-105102558D01*
X152879737Y-105465134D01*
X153242313Y-105707399D01*
X153670000Y-105792471D01*
X154097687Y-105707399D01*
X154460263Y-105465134D01*
X154702528Y-105102558D01*
X154787600Y-104674871D01*
X154787600Y-112114129D01*
X154702528Y-111686442D01*
X154460263Y-111323866D01*
X154097687Y-111081601D01*
X153670000Y-110996529D01*
X153242313Y-111081601D01*
X152879737Y-111323866D01*
X152637472Y-111686442D01*
X152552400Y-112114129D01*
X152552400Y-112675871D01*
X152637472Y-113103558D01*
X152879737Y-113466134D01*
X153242313Y-113708399D01*
X153670000Y-113793471D01*
X154097687Y-113708399D01*
X154460263Y-113466134D01*
X154702528Y-113103558D01*
X154787600Y-112675871D01*
X154787600Y-116713000D01*
X154666819Y-116713000D01*
X154460263Y-116403866D01*
X154097687Y-116161601D01*
X153670000Y-116076529D01*
X153242313Y-116161601D01*
X152879737Y-116403866D01*
X152673180Y-116713000D01*
X152247600Y-116713000D01*
X152247600Y-112675871D01*
X152247600Y-112114129D01*
X152247600Y-104674871D01*
X152247600Y-104113129D01*
X152162528Y-103685442D01*
X151920263Y-103322866D01*
X151557687Y-103080601D01*
X151130000Y-102995529D01*
X150977600Y-103025843D01*
X150977600Y-102809637D01*
X150977600Y-101498400D01*
X150977600Y-101193600D01*
X150977600Y-99882363D01*
X150766239Y-99769516D01*
X150709701Y-99776546D01*
X150238292Y-100037520D01*
X149902637Y-100459030D01*
X149753837Y-100976904D01*
X149905175Y-101193600D01*
X150977600Y-101193600D01*
X150977600Y-101498400D01*
X149905175Y-101498400D01*
X149753837Y-101715096D01*
X149902637Y-102232970D01*
X150238292Y-102654480D01*
X150709701Y-102915454D01*
X150766239Y-102922484D01*
X150977600Y-102809637D01*
X150977600Y-103025843D01*
X150702313Y-103080601D01*
X150339737Y-103322866D01*
X150097472Y-103685442D01*
X150012400Y-104113129D01*
X150012400Y-104674871D01*
X150097472Y-105102558D01*
X150339737Y-105465134D01*
X150702313Y-105707399D01*
X151130000Y-105792471D01*
X151557687Y-105707399D01*
X151920263Y-105465134D01*
X152162528Y-105102558D01*
X152247600Y-104674871D01*
X152247600Y-112114129D01*
X152162528Y-111686442D01*
X151920263Y-111323866D01*
X151557687Y-111081601D01*
X151130000Y-110996529D01*
X150702313Y-111081601D01*
X150339737Y-111323866D01*
X150097472Y-111686442D01*
X150012400Y-112114129D01*
X150012400Y-112675871D01*
X150097472Y-113103558D01*
X150339737Y-113466134D01*
X150702313Y-113708399D01*
X151130000Y-113793471D01*
X151557687Y-113708399D01*
X151920263Y-113466134D01*
X152162528Y-113103558D01*
X152247600Y-112675871D01*
X152247600Y-116713000D01*
X152126819Y-116713000D01*
X151920263Y-116403866D01*
X151557687Y-116161601D01*
X151130000Y-116076529D01*
X150702313Y-116161601D01*
X150339737Y-116403866D01*
X150133180Y-116713000D01*
X139801600Y-116713000D01*
X139801600Y-102483257D01*
X139801600Y-102240743D01*
X139801600Y-101650800D01*
X139801600Y-101041200D01*
X139801600Y-100451257D01*
X139801600Y-100208743D01*
X139708794Y-99984689D01*
X139537311Y-99813206D01*
X139313257Y-99720400D01*
X138734800Y-99720400D01*
X138582400Y-99872800D01*
X138582400Y-101193600D01*
X139649200Y-101193600D01*
X139801600Y-101041200D01*
X139801600Y-101650800D01*
X139649200Y-101498400D01*
X138582400Y-101498400D01*
X138582400Y-102819200D01*
X138734800Y-102971600D01*
X139313257Y-102971600D01*
X139537311Y-102878794D01*
X139708794Y-102707311D01*
X139801600Y-102483257D01*
X139801600Y-116713000D01*
X139547600Y-116713000D01*
X139547600Y-112675871D01*
X139547600Y-112114129D01*
X139547600Y-104674871D01*
X139547600Y-104113129D01*
X139462528Y-103685442D01*
X139220263Y-103322866D01*
X138857687Y-103080601D01*
X138430000Y-102995529D01*
X138277600Y-103025843D01*
X138277600Y-102819200D01*
X138277600Y-101498400D01*
X138277600Y-101193600D01*
X138277600Y-99872800D01*
X138125200Y-99720400D01*
X137546743Y-99720400D01*
X137322689Y-99813206D01*
X137151206Y-99984689D01*
X137058400Y-100208743D01*
X137058400Y-100384985D01*
X136781708Y-100037520D01*
X136310299Y-99776546D01*
X136253761Y-99769516D01*
X136042400Y-99882363D01*
X136042400Y-101193600D01*
X137114825Y-101193600D01*
X137154290Y-101137090D01*
X137210800Y-101193600D01*
X138277600Y-101193600D01*
X138277600Y-101498400D01*
X137210800Y-101498400D01*
X137154290Y-101554909D01*
X137114825Y-101498400D01*
X136042400Y-101498400D01*
X136042400Y-102809637D01*
X136253761Y-102922484D01*
X136310299Y-102915454D01*
X136781708Y-102654480D01*
X137058400Y-102307014D01*
X137058400Y-102483257D01*
X137151206Y-102707311D01*
X137322689Y-102878794D01*
X137546743Y-102971600D01*
X138125200Y-102971600D01*
X138277600Y-102819200D01*
X138277600Y-103025843D01*
X138002313Y-103080601D01*
X137639737Y-103322866D01*
X137397472Y-103685442D01*
X137312400Y-104113129D01*
X137312400Y-104674871D01*
X137397472Y-105102558D01*
X137639737Y-105465134D01*
X138002313Y-105707399D01*
X138430000Y-105792471D01*
X138857687Y-105707399D01*
X139220263Y-105465134D01*
X139462528Y-105102558D01*
X139547600Y-104674871D01*
X139547600Y-112114129D01*
X139462528Y-111686442D01*
X139220263Y-111323866D01*
X138857687Y-111081601D01*
X138430000Y-110996529D01*
X138002313Y-111081601D01*
X137639737Y-111323866D01*
X137397472Y-111686442D01*
X137312400Y-112114129D01*
X137312400Y-112675871D01*
X137397472Y-113103558D01*
X137639737Y-113466134D01*
X138002313Y-113708399D01*
X138430000Y-113793471D01*
X138857687Y-113708399D01*
X139220263Y-113466134D01*
X139462528Y-113103558D01*
X139547600Y-112675871D01*
X139547600Y-116713000D01*
X139426819Y-116713000D01*
X139220263Y-116403866D01*
X138857687Y-116161601D01*
X138430000Y-116076529D01*
X138002313Y-116161601D01*
X137639737Y-116403866D01*
X137433180Y-116713000D01*
X137007600Y-116713000D01*
X137007600Y-112675871D01*
X137007600Y-112114129D01*
X137007600Y-104674871D01*
X137007600Y-104113129D01*
X136922528Y-103685442D01*
X136680263Y-103322866D01*
X136317687Y-103080601D01*
X135890000Y-102995529D01*
X135737600Y-103025843D01*
X135737600Y-102809637D01*
X135737600Y-101498400D01*
X135737600Y-101193600D01*
X135737600Y-99882363D01*
X135526239Y-99769516D01*
X135469701Y-99776546D01*
X134998292Y-100037520D01*
X134662637Y-100459030D01*
X134620000Y-100607421D01*
X134577363Y-100459030D01*
X134241708Y-100037520D01*
X133770299Y-99776546D01*
X133713761Y-99769516D01*
X133502400Y-99882363D01*
X133502400Y-101193600D01*
X134574825Y-101193600D01*
X134620000Y-101128915D01*
X134665175Y-101193600D01*
X135737600Y-101193600D01*
X135737600Y-101498400D01*
X134665175Y-101498400D01*
X134620000Y-101563084D01*
X134574825Y-101498400D01*
X133502400Y-101498400D01*
X133502400Y-102809637D01*
X133713761Y-102922484D01*
X133770299Y-102915454D01*
X134241708Y-102654480D01*
X134577363Y-102232970D01*
X134620000Y-102084578D01*
X134662637Y-102232970D01*
X134998292Y-102654480D01*
X135469701Y-102915454D01*
X135526239Y-102922484D01*
X135737600Y-102809637D01*
X135737600Y-103025843D01*
X135462313Y-103080601D01*
X135099737Y-103322866D01*
X134857472Y-103685442D01*
X134772400Y-104113129D01*
X134772400Y-104674871D01*
X134857472Y-105102558D01*
X135099737Y-105465134D01*
X135462313Y-105707399D01*
X135890000Y-105792471D01*
X136317687Y-105707399D01*
X136680263Y-105465134D01*
X136922528Y-105102558D01*
X137007600Y-104674871D01*
X137007600Y-112114129D01*
X136922528Y-111686442D01*
X136680263Y-111323866D01*
X136317687Y-111081601D01*
X135890000Y-110996529D01*
X135462313Y-111081601D01*
X135099737Y-111323866D01*
X134857472Y-111686442D01*
X134772400Y-112114129D01*
X134772400Y-112675871D01*
X134857472Y-113103558D01*
X135099737Y-113466134D01*
X135462313Y-113708399D01*
X135890000Y-113793471D01*
X136317687Y-113708399D01*
X136680263Y-113466134D01*
X136922528Y-113103558D01*
X137007600Y-112675871D01*
X137007600Y-116713000D01*
X136886819Y-116713000D01*
X136680263Y-116403866D01*
X136317687Y-116161601D01*
X135890000Y-116076529D01*
X135462313Y-116161601D01*
X135099737Y-116403866D01*
X134893180Y-116713000D01*
X134467600Y-116713000D01*
X134467600Y-112675871D01*
X134467600Y-112114129D01*
X134467600Y-104674871D01*
X134467600Y-104113129D01*
X134382528Y-103685442D01*
X134140263Y-103322866D01*
X133777687Y-103080601D01*
X133350000Y-102995529D01*
X133197600Y-103025843D01*
X133197600Y-102809637D01*
X133197600Y-101498400D01*
X133197600Y-101193600D01*
X133197600Y-99882363D01*
X132986239Y-99769516D01*
X132929701Y-99776546D01*
X132458292Y-100037520D01*
X132122637Y-100459030D01*
X132080000Y-100607421D01*
X132037363Y-100459030D01*
X131701708Y-100037520D01*
X131230299Y-99776546D01*
X131173761Y-99769516D01*
X130962400Y-99882363D01*
X130962400Y-101193600D01*
X132034825Y-101193600D01*
X132080000Y-101128915D01*
X132125175Y-101193600D01*
X133197600Y-101193600D01*
X133197600Y-101498400D01*
X132125175Y-101498400D01*
X132080000Y-101563084D01*
X132034825Y-101498400D01*
X130962400Y-101498400D01*
X130962400Y-102809637D01*
X131173761Y-102922484D01*
X131230299Y-102915454D01*
X131701708Y-102654480D01*
X132037363Y-102232970D01*
X132080000Y-102084578D01*
X132122637Y-102232970D01*
X132458292Y-102654480D01*
X132929701Y-102915454D01*
X132986239Y-102922484D01*
X133197600Y-102809637D01*
X133197600Y-103025843D01*
X132922313Y-103080601D01*
X132559737Y-103322866D01*
X132317472Y-103685442D01*
X132232400Y-104113129D01*
X132232400Y-104674871D01*
X132317472Y-105102558D01*
X132559737Y-105465134D01*
X132922313Y-105707399D01*
X133350000Y-105792471D01*
X133777687Y-105707399D01*
X134140263Y-105465134D01*
X134382528Y-105102558D01*
X134467600Y-104674871D01*
X134467600Y-112114129D01*
X134382528Y-111686442D01*
X134140263Y-111323866D01*
X133777687Y-111081601D01*
X133350000Y-110996529D01*
X132922313Y-111081601D01*
X132559737Y-111323866D01*
X132317472Y-111686442D01*
X132232400Y-112114129D01*
X132232400Y-112675871D01*
X132317472Y-113103558D01*
X132559737Y-113466134D01*
X132922313Y-113708399D01*
X133350000Y-113793471D01*
X133777687Y-113708399D01*
X134140263Y-113466134D01*
X134382528Y-113103558D01*
X134467600Y-112675871D01*
X134467600Y-116713000D01*
X134346819Y-116713000D01*
X134140263Y-116403866D01*
X133777687Y-116161601D01*
X133350000Y-116076529D01*
X132922313Y-116161601D01*
X132559737Y-116403866D01*
X132353180Y-116713000D01*
X131927600Y-116713000D01*
X131927600Y-112675871D01*
X131927600Y-112114129D01*
X131927600Y-104674871D01*
X131927600Y-104113129D01*
X131842528Y-103685442D01*
X131600263Y-103322866D01*
X131237687Y-103080601D01*
X130810000Y-102995529D01*
X130657600Y-103025843D01*
X130657600Y-102809637D01*
X130657600Y-101498400D01*
X130657600Y-101193600D01*
X130657600Y-99882363D01*
X130446239Y-99769516D01*
X130389701Y-99776546D01*
X129918292Y-100037520D01*
X129582637Y-100459030D01*
X129540000Y-100607421D01*
X129497363Y-100459030D01*
X129161708Y-100037520D01*
X128690299Y-99776546D01*
X128633761Y-99769516D01*
X128422400Y-99882363D01*
X128422400Y-101193600D01*
X129494825Y-101193600D01*
X129540000Y-101128915D01*
X129585175Y-101193600D01*
X130657600Y-101193600D01*
X130657600Y-101498400D01*
X129585175Y-101498400D01*
X129540000Y-101563084D01*
X129494825Y-101498400D01*
X128422400Y-101498400D01*
X128422400Y-102809637D01*
X128633761Y-102922484D01*
X128690299Y-102915454D01*
X129161708Y-102654480D01*
X129497363Y-102232970D01*
X129540000Y-102084578D01*
X129582637Y-102232970D01*
X129918292Y-102654480D01*
X130389701Y-102915454D01*
X130446239Y-102922484D01*
X130657600Y-102809637D01*
X130657600Y-103025843D01*
X130382313Y-103080601D01*
X130019737Y-103322866D01*
X129777472Y-103685442D01*
X129692400Y-104113129D01*
X129692400Y-104674871D01*
X129777472Y-105102558D01*
X130019737Y-105465134D01*
X130382313Y-105707399D01*
X130810000Y-105792471D01*
X131237687Y-105707399D01*
X131600263Y-105465134D01*
X131842528Y-105102558D01*
X131927600Y-104674871D01*
X131927600Y-112114129D01*
X131842528Y-111686442D01*
X131600263Y-111323866D01*
X131237687Y-111081601D01*
X130810000Y-110996529D01*
X130382313Y-111081601D01*
X130019737Y-111323866D01*
X129777472Y-111686442D01*
X129692400Y-112114129D01*
X129692400Y-112675871D01*
X129777472Y-113103558D01*
X130019737Y-113466134D01*
X130382313Y-113708399D01*
X130810000Y-113793471D01*
X131237687Y-113708399D01*
X131600263Y-113466134D01*
X131842528Y-113103558D01*
X131927600Y-112675871D01*
X131927600Y-116713000D01*
X131806819Y-116713000D01*
X131600263Y-116403866D01*
X131237687Y-116161601D01*
X130810000Y-116076529D01*
X130382313Y-116161601D01*
X130019737Y-116403866D01*
X129813180Y-116713000D01*
X129387600Y-116713000D01*
X129387600Y-112675871D01*
X129387600Y-112114129D01*
X129387600Y-104674871D01*
X129387600Y-104113129D01*
X129302528Y-103685442D01*
X129060263Y-103322866D01*
X128697687Y-103080601D01*
X128270000Y-102995529D01*
X128117600Y-103025843D01*
X128117600Y-102809637D01*
X128117600Y-101498400D01*
X128117600Y-101193600D01*
X128117600Y-99882363D01*
X127906239Y-99769516D01*
X127849701Y-99776546D01*
X127378292Y-100037520D01*
X127042637Y-100459030D01*
X127000000Y-100607421D01*
X126957363Y-100459030D01*
X126621708Y-100037520D01*
X126150299Y-99776546D01*
X126093761Y-99769516D01*
X125882400Y-99882363D01*
X125882400Y-101193600D01*
X126954825Y-101193600D01*
X127000000Y-101128915D01*
X127045175Y-101193600D01*
X128117600Y-101193600D01*
X128117600Y-101498400D01*
X127045175Y-101498400D01*
X127000000Y-101563084D01*
X126954825Y-101498400D01*
X125882400Y-101498400D01*
X125882400Y-102809637D01*
X126093761Y-102922484D01*
X126150299Y-102915454D01*
X126621708Y-102654480D01*
X126957363Y-102232970D01*
X127000000Y-102084578D01*
X127042637Y-102232970D01*
X127378292Y-102654480D01*
X127849701Y-102915454D01*
X127906239Y-102922484D01*
X128117600Y-102809637D01*
X128117600Y-103025843D01*
X127842313Y-103080601D01*
X127479737Y-103322866D01*
X127237472Y-103685442D01*
X127152400Y-104113129D01*
X127152400Y-104674871D01*
X127237472Y-105102558D01*
X127479737Y-105465134D01*
X127842313Y-105707399D01*
X128270000Y-105792471D01*
X128697687Y-105707399D01*
X129060263Y-105465134D01*
X129302528Y-105102558D01*
X129387600Y-104674871D01*
X129387600Y-112114129D01*
X129302528Y-111686442D01*
X129060263Y-111323866D01*
X128697687Y-111081601D01*
X128270000Y-110996529D01*
X127842313Y-111081601D01*
X127479737Y-111323866D01*
X127237472Y-111686442D01*
X127152400Y-112114129D01*
X127152400Y-112675871D01*
X127237472Y-113103558D01*
X127479737Y-113466134D01*
X127842313Y-113708399D01*
X128270000Y-113793471D01*
X128697687Y-113708399D01*
X129060263Y-113466134D01*
X129302528Y-113103558D01*
X129387600Y-112675871D01*
X129387600Y-116713000D01*
X129266819Y-116713000D01*
X129060263Y-116403866D01*
X128697687Y-116161601D01*
X128270000Y-116076529D01*
X127842313Y-116161601D01*
X127479737Y-116403866D01*
X127273180Y-116713000D01*
X126847600Y-116713000D01*
X126847600Y-112675871D01*
X126847600Y-112114129D01*
X126847600Y-104674871D01*
X126847600Y-104113129D01*
X126762528Y-103685442D01*
X126520263Y-103322866D01*
X126157687Y-103080601D01*
X125730000Y-102995529D01*
X125577600Y-103025843D01*
X125577600Y-102809637D01*
X125577600Y-101498400D01*
X125577600Y-101193600D01*
X125577600Y-99882363D01*
X125366239Y-99769516D01*
X125309701Y-99776546D01*
X124838292Y-100037520D01*
X124502637Y-100459030D01*
X124460000Y-100607421D01*
X124417363Y-100459030D01*
X124081708Y-100037520D01*
X123610299Y-99776546D01*
X123553761Y-99769516D01*
X123342400Y-99882363D01*
X123342400Y-101193600D01*
X124414825Y-101193600D01*
X124460000Y-101128915D01*
X124505175Y-101193600D01*
X125577600Y-101193600D01*
X125577600Y-101498400D01*
X124505175Y-101498400D01*
X124460000Y-101563084D01*
X124414825Y-101498400D01*
X123342400Y-101498400D01*
X123342400Y-102809637D01*
X123553761Y-102922484D01*
X123610299Y-102915454D01*
X124081708Y-102654480D01*
X124417363Y-102232970D01*
X124460000Y-102084578D01*
X124502637Y-102232970D01*
X124838292Y-102654480D01*
X125309701Y-102915454D01*
X125366239Y-102922484D01*
X125577600Y-102809637D01*
X125577600Y-103025843D01*
X125302313Y-103080601D01*
X124939737Y-103322866D01*
X124697472Y-103685442D01*
X124612400Y-104113129D01*
X124612400Y-104674871D01*
X124697472Y-105102558D01*
X124939737Y-105465134D01*
X125302313Y-105707399D01*
X125730000Y-105792471D01*
X126157687Y-105707399D01*
X126520263Y-105465134D01*
X126762528Y-105102558D01*
X126847600Y-104674871D01*
X126847600Y-112114129D01*
X126762528Y-111686442D01*
X126520263Y-111323866D01*
X126157687Y-111081601D01*
X125730000Y-110996529D01*
X125302313Y-111081601D01*
X124939737Y-111323866D01*
X124697472Y-111686442D01*
X124612400Y-112114129D01*
X124612400Y-112675871D01*
X124697472Y-113103558D01*
X124939737Y-113466134D01*
X125302313Y-113708399D01*
X125730000Y-113793471D01*
X126157687Y-113708399D01*
X126520263Y-113466134D01*
X126762528Y-113103558D01*
X126847600Y-112675871D01*
X126847600Y-116713000D01*
X126726819Y-116713000D01*
X126520263Y-116403866D01*
X126157687Y-116161601D01*
X125730000Y-116076529D01*
X125302313Y-116161601D01*
X124939737Y-116403866D01*
X124733180Y-116713000D01*
X124186819Y-116713000D01*
X123980263Y-116403866D01*
X123617687Y-116161601D01*
X123190000Y-116076529D01*
X122762313Y-116161601D01*
X122399737Y-116403866D01*
X122193180Y-116713000D01*
X121767600Y-116713000D01*
X121767600Y-112675871D01*
X121767600Y-112114129D01*
X121682528Y-111686442D01*
X121440263Y-111323866D01*
X121077687Y-111081601D01*
X120650000Y-110996529D01*
X120222313Y-111081601D01*
X119859737Y-111323866D01*
X119617472Y-111686442D01*
X119532400Y-112114129D01*
X119532400Y-112675871D01*
X119617472Y-113103558D01*
X119859737Y-113466134D01*
X120222313Y-113708399D01*
X120650000Y-113793471D01*
X121077687Y-113708399D01*
X121440263Y-113466134D01*
X121682528Y-113103558D01*
X121767600Y-112675871D01*
X121767600Y-116713000D01*
X121646819Y-116713000D01*
X121440263Y-116403866D01*
X121077687Y-116161601D01*
X120650000Y-116076529D01*
X120222313Y-116161601D01*
X119859737Y-116403866D01*
X119617472Y-116766442D01*
X119532400Y-117194129D01*
X119532400Y-117755871D01*
X119617472Y-118183558D01*
X119859737Y-118546134D01*
X120222313Y-118788399D01*
X120650000Y-118873471D01*
X121077687Y-118788399D01*
X121440263Y-118546134D01*
X121646819Y-118237000D01*
X122193180Y-118237000D01*
X122399737Y-118546134D01*
X122762313Y-118788399D01*
X123190000Y-118873471D01*
X123617687Y-118788399D01*
X123980263Y-118546134D01*
X124186819Y-118237000D01*
X124733180Y-118237000D01*
X124939737Y-118546134D01*
X125302313Y-118788399D01*
X125730000Y-118873471D01*
X126157687Y-118788399D01*
X126520263Y-118546134D01*
X126726819Y-118237000D01*
X127273180Y-118237000D01*
X127479737Y-118546134D01*
X127842313Y-118788399D01*
X128270000Y-118873471D01*
X128697687Y-118788399D01*
X129060263Y-118546134D01*
X129266819Y-118237000D01*
X129813180Y-118237000D01*
X130019737Y-118546134D01*
X130382313Y-118788399D01*
X130810000Y-118873471D01*
X131237687Y-118788399D01*
X131600263Y-118546134D01*
X131806819Y-118237000D01*
X132353180Y-118237000D01*
X132559737Y-118546134D01*
X132922313Y-118788399D01*
X133350000Y-118873471D01*
X133777687Y-118788399D01*
X134140263Y-118546134D01*
X134346819Y-118237000D01*
X134893180Y-118237000D01*
X135099737Y-118546134D01*
X135462313Y-118788399D01*
X135890000Y-118873471D01*
X136317687Y-118788399D01*
X136680263Y-118546134D01*
X136886819Y-118237000D01*
X137433180Y-118237000D01*
X137639737Y-118546134D01*
X138002313Y-118788399D01*
X138430000Y-118873471D01*
X138857687Y-118788399D01*
X139220263Y-118546134D01*
X139426819Y-118237000D01*
X150133180Y-118237000D01*
X150339737Y-118546134D01*
X150702313Y-118788399D01*
X151130000Y-118873471D01*
X151557687Y-118788399D01*
X151920263Y-118546134D01*
X152126819Y-118237000D01*
X152673180Y-118237000D01*
X152879737Y-118546134D01*
X153242313Y-118788399D01*
X153670000Y-118873471D01*
X154097687Y-118788399D01*
X154460263Y-118546134D01*
X154666819Y-118237000D01*
X155213180Y-118237000D01*
X155419737Y-118546134D01*
X155782313Y-118788399D01*
X156210000Y-118873471D01*
X156637687Y-118788399D01*
X157000263Y-118546134D01*
X157206819Y-118237000D01*
X157753180Y-118237000D01*
X157959737Y-118546134D01*
X158322313Y-118788399D01*
X158750000Y-118873471D01*
X159177687Y-118788399D01*
X159540263Y-118546134D01*
X159746819Y-118237000D01*
X160293180Y-118237000D01*
X160499737Y-118546134D01*
X160862313Y-118788399D01*
X161290000Y-118873471D01*
X161717687Y-118788399D01*
X162080263Y-118546134D01*
X162286819Y-118237000D01*
X162833180Y-118237000D01*
X163039737Y-118546134D01*
X163402313Y-118788399D01*
X163830000Y-118873471D01*
X164257687Y-118788399D01*
X164620263Y-118546134D01*
X164826819Y-118237000D01*
X165373180Y-118237000D01*
X165579737Y-118546134D01*
X165942313Y-118788399D01*
X166370000Y-118873471D01*
X166797687Y-118788399D01*
X167160263Y-118546134D01*
X167366819Y-118237000D01*
X167913180Y-118237000D01*
X168119737Y-118546134D01*
X168482313Y-118788399D01*
X168910000Y-118873471D01*
X169337687Y-118788399D01*
X169700263Y-118546134D01*
X169942528Y-118183558D01*
X170027600Y-117755871D01*
X170027600Y-129755900D01*
X167487600Y-129755900D01*
X167487600Y-127539847D01*
X167487600Y-126460153D01*
X167402528Y-126032466D01*
X167160263Y-125669890D01*
X166797687Y-125427625D01*
X166370000Y-125342553D01*
X165942313Y-125427625D01*
X165579737Y-125669890D01*
X165337472Y-126032466D01*
X165252400Y-126460153D01*
X165252400Y-127539847D01*
X165337472Y-127967534D01*
X165579737Y-128330110D01*
X165942313Y-128572375D01*
X166370000Y-128657447D01*
X166797687Y-128572375D01*
X167160263Y-128330110D01*
X167402528Y-127967534D01*
X167487600Y-127539847D01*
X167487600Y-129755900D01*
X164947600Y-129755900D01*
X164947600Y-127539847D01*
X164947600Y-126460153D01*
X164862528Y-126032466D01*
X164620263Y-125669890D01*
X164257687Y-125427625D01*
X163830000Y-125342553D01*
X163402313Y-125427625D01*
X163039737Y-125669890D01*
X162797472Y-126032466D01*
X162712400Y-126460153D01*
X162712400Y-127539847D01*
X162797472Y-127967534D01*
X163039737Y-128330110D01*
X163402313Y-128572375D01*
X163830000Y-128657447D01*
X164257687Y-128572375D01*
X164620263Y-128330110D01*
X164862528Y-127967534D01*
X164947600Y-127539847D01*
X164947600Y-129755900D01*
X162407600Y-129755900D01*
X162407600Y-127539847D01*
X162407600Y-126460153D01*
X162322528Y-126032466D01*
X162080263Y-125669890D01*
X161717687Y-125427625D01*
X161290000Y-125342553D01*
X160862313Y-125427625D01*
X160499737Y-125669890D01*
X160257472Y-126032466D01*
X160172400Y-126460153D01*
X160172400Y-127539847D01*
X160257472Y-127967534D01*
X160499737Y-128330110D01*
X160862313Y-128572375D01*
X161290000Y-128657447D01*
X161717687Y-128572375D01*
X162080263Y-128330110D01*
X162322528Y-127967534D01*
X162407600Y-127539847D01*
X162407600Y-129755900D01*
X159867600Y-129755900D01*
X159867600Y-127539847D01*
X159867600Y-126460153D01*
X159782528Y-126032466D01*
X159540263Y-125669890D01*
X159177687Y-125427625D01*
X158750000Y-125342553D01*
X158322313Y-125427625D01*
X157959737Y-125669890D01*
X157717472Y-126032466D01*
X157632400Y-126460153D01*
X157632400Y-127539847D01*
X157717472Y-127967534D01*
X157959737Y-128330110D01*
X158322313Y-128572375D01*
X158750000Y-128657447D01*
X159177687Y-128572375D01*
X159540263Y-128330110D01*
X159782528Y-127967534D01*
X159867600Y-127539847D01*
X159867600Y-129755900D01*
X157327600Y-129755900D01*
X157327600Y-127539847D01*
X157327600Y-126460153D01*
X157242528Y-126032466D01*
X157000263Y-125669890D01*
X156637687Y-125427625D01*
X156210000Y-125342553D01*
X155782313Y-125427625D01*
X155419737Y-125669890D01*
X155177472Y-126032466D01*
X155092400Y-126460153D01*
X155092400Y-127539847D01*
X155177472Y-127967534D01*
X155419737Y-128330110D01*
X155782313Y-128572375D01*
X156210000Y-128657447D01*
X156637687Y-128572375D01*
X157000263Y-128330110D01*
X157242528Y-127967534D01*
X157327600Y-127539847D01*
X157327600Y-129755900D01*
X154787600Y-129755900D01*
X154787600Y-127539847D01*
X154787600Y-126460153D01*
X154702528Y-126032466D01*
X154460263Y-125669890D01*
X154097687Y-125427625D01*
X153670000Y-125342553D01*
X153242313Y-125427625D01*
X152879737Y-125669890D01*
X152637472Y-126032466D01*
X152552400Y-126460153D01*
X152552400Y-127539847D01*
X152637472Y-127967534D01*
X152879737Y-128330110D01*
X153242313Y-128572375D01*
X153670000Y-128657447D01*
X154097687Y-128572375D01*
X154460263Y-128330110D01*
X154702528Y-127967534D01*
X154787600Y-127539847D01*
X154787600Y-129755900D01*
X152247600Y-129755900D01*
X152247600Y-127539847D01*
X152247600Y-126460153D01*
X152162528Y-126032466D01*
X151920263Y-125669890D01*
X151557687Y-125427625D01*
X151130000Y-125342553D01*
X150702313Y-125427625D01*
X150339737Y-125669890D01*
X150097472Y-126032466D01*
X150012400Y-126460153D01*
X150012400Y-127539847D01*
X150097472Y-127967534D01*
X150339737Y-128330110D01*
X150702313Y-128572375D01*
X151130000Y-128657447D01*
X151557687Y-128572375D01*
X151920263Y-128330110D01*
X152162528Y-127967534D01*
X152247600Y-127539847D01*
X152247600Y-129755900D01*
X114084503Y-129755900D01*
X114084503Y-126539736D01*
X113731425Y-125685223D01*
X113078216Y-125030873D01*
X112224320Y-124676304D01*
X111299736Y-124675497D01*
X110445223Y-125028575D01*
X109790873Y-125681784D01*
X109436304Y-126535680D01*
X109435497Y-127460264D01*
X109788575Y-128314777D01*
X110441784Y-128969127D01*
X111295680Y-129323696D01*
X112220264Y-129324503D01*
X113074777Y-128971425D01*
X113729127Y-128318216D01*
X114083696Y-127464320D01*
X114084503Y-126539736D01*
X114084503Y-129755900D01*
X93764100Y-129755900D01*
X93764100Y-75984100D01*
X211035900Y-75984100D01*
X211035900Y-129755900D01*
M02*
