M48
;DRILL file {KiCad 0.201602231446+6579~42~ubuntu14.04.1-product} date Fri 26 Feb 2016 12:54:51 PM EST
;FORMAT={-:-/ absolute / inch / decimal}
FMAT,2
INCH,TZ
T1C0.025
T2C0.031
T3C0.035
T4C0.038
T5C0.039
T6C0.040
T7C0.047
T8C0.063
T9C0.090
T10C0.106
T11C0.124
T12C0.130
%
G90
G05
M72
T1
X4.8018Y-4.1949
X4.8688Y-3.5
X4.8979Y-3.294
X4.9649Y-4.7728
X5.Y-4.3641
X5.Y-4.4569
X5.1969Y-3.4892
X5.3Y-3.4869
X5.4107Y-4.1216
X5.51Y-4.2199
X5.5543Y-3.973
X5.5877Y-4.2117
X5.6419Y-3.9482
X5.6749Y-3.2097
X5.7106Y-5.0019
X5.8381Y-3.9329
X5.8419Y-3.7005
X5.9529Y-3.5
X5.964Y-4.4
X6.Y-4.3423
X6.0158Y-4.0359
X6.0812Y-3.5001
X6.1Y-3.5784
X6.1003Y-3.4546
X6.3007Y-4.3682
X6.4548Y-4.072
X6.5015Y-3.4693
X6.5025Y-3.5318
X6.6453Y-3.8748
X6.7362Y-4.4394
X6.7398Y-3.9683
X7.8445Y-3.3669
X7.9617Y-4.4389
X8.0575Y-3.0459
X8.1465Y-3.2257
X8.1927Y-3.4281
T2
X7.9Y-4.464
X8.1Y-4.464
T3
X4.15Y-4.05
X4.25Y-3.95
X4.25Y-4.05
X4.25Y-4.15
T4
X4.75Y-3.775
X4.75Y-3.975
X4.75Y-4.675
X4.75Y-4.875
X4.85Y-3.775
X4.85Y-3.975
X4.85Y-4.675
X4.85Y-4.875
X4.95Y-3.775
X4.95Y-3.975
X4.95Y-4.675
X4.95Y-4.875
X5.05Y-3.775
X5.05Y-3.975
X5.05Y-4.675
X5.05Y-4.875
X5.15Y-3.775
X5.15Y-3.975
X5.15Y-4.675
X5.15Y-4.875
X5.25Y-3.775
X5.25Y-3.975
X5.25Y-4.675
X5.25Y-4.875
X5.35Y-3.775
X5.35Y-3.975
X5.35Y-4.675
X5.35Y-4.875
X5.45Y-3.775
X5.45Y-3.975
X5.45Y-4.675
X5.45Y-4.875
X5.95Y-3.775
X5.95Y-3.975
X5.95Y-4.675
X5.95Y-4.875
X6.05Y-3.775
X6.05Y-3.975
X6.05Y-4.675
X6.05Y-4.875
X6.15Y-3.775
X6.15Y-3.975
X6.15Y-4.675
X6.15Y-4.875
X6.25Y-3.775
X6.25Y-3.975
X6.25Y-4.675
X6.25Y-4.875
X6.35Y-3.775
X6.35Y-3.975
X6.35Y-4.675
X6.35Y-4.875
X6.45Y-3.775
X6.45Y-3.975
X6.45Y-4.675
X6.45Y-4.875
X6.55Y-3.775
X6.55Y-3.975
X6.55Y-4.675
X6.55Y-4.875
X6.65Y-3.775
X6.65Y-3.975
X6.65Y-4.675
X6.65Y-4.875
X7.85Y-3.7
X8.05Y-3.7
T5
X3.975Y-4.45
X4.075Y-4.45
X4.175Y-4.45
T6
X4.59Y-3.1
X4.69Y-3.1
X4.79Y-3.1
X4.89Y-3.1
X4.95Y-5.
X4.99Y-3.1
X5.05Y-5.
X5.09Y-3.1
X5.15Y-5.
X5.19Y-3.1
X5.25Y-5.
X5.29Y-3.1
X5.35Y-5.
X5.39Y-3.1
X5.45Y-5.
X5.49Y-3.1
X5.55Y-5.
X5.65Y-3.1
X5.65Y-5.
X5.75Y-3.1
X5.85Y-3.1
X5.85Y-5.
X5.95Y-3.1
X5.95Y-5.
X6.05Y-3.1
X6.05Y-5.
X6.15Y-3.1
X6.15Y-5.
X6.25Y-3.1
X6.25Y-5.
X6.35Y-3.1
X6.35Y-5.
X6.45Y-5.
X6.55Y-3.1
X6.55Y-5.
X6.65Y-3.1
X6.75Y-3.1
X6.75Y-5.
X6.85Y-3.1
X6.85Y-5.
X6.95Y-3.1
X6.95Y-5.
X7.05Y-3.1
X7.05Y-5.
X7.15Y-3.1
X7.15Y-5.
X7.25Y-3.1
X7.25Y-5.
X7.35Y-5.
X7.45Y-5.
X7.55Y-3.1
X7.55Y-3.2
X7.55Y-3.3
X7.55Y-3.4
X7.55Y-3.5
X7.55Y-3.6
X7.55Y-3.7
X7.55Y-3.8
X7.55Y-3.9
X7.55Y-4.
X7.55Y-4.1
X7.55Y-4.2
X7.55Y-4.3
X7.55Y-4.4
X7.55Y-4.5
X7.55Y-4.6
X7.55Y-4.7
X7.55Y-4.8
X7.65Y-3.1
X7.65Y-3.2
X7.65Y-3.3
X7.65Y-3.4
X7.65Y-3.5
X7.65Y-3.6
X7.65Y-3.7
X7.65Y-3.8
X7.65Y-3.9
X7.65Y-4.
X7.65Y-4.1
X7.65Y-4.2
X7.65Y-4.3
X7.65Y-4.4
X7.65Y-4.5
X7.65Y-4.6
X7.65Y-4.7
X7.65Y-4.8
T7
X3.925Y-3.16
X3.925Y-3.55
X7.83Y-3.265
X7.83Y-4.835
X7.88Y-4.885
X8.085Y-3.155
X8.085Y-3.545
X8.17Y-4.885
X8.22Y-3.265
X8.22Y-4.835
T8
X8.207Y-4.05
T9
X3.9Y-3.85
X3.9Y-4.25
T10
X8.089Y-4.05
X8.128Y-3.873
X8.128Y-4.227
T11
X7.853Y-4.05
T12
X4.4Y-5.
X4.45Y-3.1
X7.4Y-3.1
X7.65Y-5.
T0
M30
