G04 #@! TF.FileFunction,Soldermask,Bot*
%FSLAX46Y46*%
G04 Gerber Fmt 4.6, Leading zero omitted, Abs format (unit mm)*
G04 Created by KiCad (PCBNEW 0.201602231446+6579~42~ubuntu14.04.1-product) date Fri 26 Feb 2016 12:54:47 PM EST*
%MOMM*%
G01*
G04 APERTURE LIST*
%ADD10C,0.100000*%
%ADD11C,0.228600*%
%ADD12O,1.524000X2.032000*%
%ADD13R,2.540000X1.270000*%
%ADD14O,2.032000X1.524000*%
%ADD15O,1.524000X2.540000*%
%ADD16C,1.930400*%
%ADD17O,4.572000X3.556000*%
%ADD18O,4.064000X5.080000*%
%ADD19O,5.080000X3.556000*%
%ADD20R,1.270000X2.540000*%
%ADD21R,0.381000X1.270000*%
%ADD22O,5.080000X3.048000*%
%ADD23C,3.759200*%
%ADD24O,2.540000X1.524000*%
%ADD25O,1.651000X2.159000*%
%ADD26C,1.600200*%
%ADD27R,1.778000X4.191000*%
%ADD28R,2.997200X5.029200*%
G04 APERTURE END LIST*
D10*
D11*
X211455000Y-75311000D02*
X93345000Y-75311000D01*
X211455000Y-130429000D02*
X211455000Y-75311000D01*
X93345000Y-130429000D02*
X211455000Y-130429000D01*
X93345000Y-75311000D02*
X93345000Y-130429000D01*
D12*
X120650000Y-123825000D03*
X120650000Y-118745000D03*
X123190000Y-123825000D03*
X123190000Y-118745000D03*
X125730000Y-123825000D03*
X125730000Y-118745000D03*
X128270000Y-123825000D03*
X128270000Y-118745000D03*
X130810000Y-123825000D03*
X130810000Y-118745000D03*
X133350000Y-123825000D03*
X133350000Y-118745000D03*
X135890000Y-123825000D03*
X135890000Y-118745000D03*
X138430000Y-123825000D03*
X138430000Y-118745000D03*
X151130000Y-123825000D03*
X151130000Y-118745000D03*
X153670000Y-123825000D03*
X153670000Y-118745000D03*
X156210000Y-123825000D03*
X156210000Y-118745000D03*
X158750000Y-123825000D03*
X158750000Y-118745000D03*
X161290000Y-123825000D03*
X161290000Y-118745000D03*
X163830000Y-123825000D03*
X163830000Y-118745000D03*
X166370000Y-123825000D03*
X166370000Y-118745000D03*
X168910000Y-123825000D03*
X168910000Y-118745000D03*
D13*
X142240000Y-108331000D03*
X142240000Y-111379000D03*
D12*
X120650000Y-100965000D03*
X120650000Y-95885000D03*
X123190000Y-100965000D03*
X123190000Y-95885000D03*
X125730000Y-100965000D03*
X125730000Y-95885000D03*
X128270000Y-100965000D03*
X128270000Y-95885000D03*
X130810000Y-100965000D03*
X130810000Y-95885000D03*
X133350000Y-100965000D03*
X133350000Y-95885000D03*
X135890000Y-100965000D03*
X135890000Y-95885000D03*
X138430000Y-100965000D03*
X138430000Y-95885000D03*
X151130000Y-100965000D03*
X151130000Y-95885000D03*
X153670000Y-100965000D03*
X153670000Y-95885000D03*
X156210000Y-100965000D03*
X156210000Y-95885000D03*
X158750000Y-100965000D03*
X158750000Y-95885000D03*
X161290000Y-100965000D03*
X161290000Y-95885000D03*
X163830000Y-100965000D03*
X163830000Y-95885000D03*
X166370000Y-100965000D03*
X166370000Y-95885000D03*
X168910000Y-100965000D03*
X168910000Y-95885000D03*
D14*
X204470000Y-93980000D03*
X199390000Y-93980000D03*
D15*
X103505000Y-113030000D03*
X100965000Y-113030000D03*
X106045000Y-113030000D03*
D16*
X208457800Y-102870000D03*
D17*
X204952600Y-102870000D03*
D18*
X199466200Y-102870000D03*
D19*
X206451200Y-98374200D03*
X206451200Y-107365800D03*
D20*
X199136000Y-108585000D03*
X202184000Y-108585000D03*
X106299000Y-108585000D03*
X103251000Y-108585000D03*
D13*
X172720000Y-108331000D03*
X172720000Y-111379000D03*
D21*
X160655000Y-114935000D03*
X161925000Y-114935000D03*
X163195000Y-114935000D03*
X164465000Y-114935000D03*
X165735000Y-114935000D03*
X167005000Y-114935000D03*
X159385000Y-114935000D03*
X158115000Y-114935000D03*
X156845000Y-114935000D03*
X155575000Y-114935000D03*
X154305000Y-114935000D03*
X153035000Y-114935000D03*
X153035000Y-104775000D03*
X154305000Y-104775000D03*
X155575000Y-104775000D03*
X156845000Y-104775000D03*
X158115000Y-104775000D03*
X159385000Y-104775000D03*
X160655000Y-104775000D03*
X161925000Y-104775000D03*
X163195000Y-104775000D03*
X164465000Y-104775000D03*
X165735000Y-104775000D03*
X167005000Y-104775000D03*
X130175000Y-114935000D03*
X131445000Y-114935000D03*
X132715000Y-114935000D03*
X133985000Y-114935000D03*
X135255000Y-114935000D03*
X136525000Y-114935000D03*
X128905000Y-114935000D03*
X127635000Y-114935000D03*
X126365000Y-114935000D03*
X125095000Y-114935000D03*
X123825000Y-114935000D03*
X122555000Y-114935000D03*
X122555000Y-104775000D03*
X123825000Y-104775000D03*
X125095000Y-104775000D03*
X126365000Y-104775000D03*
X127635000Y-104775000D03*
X128905000Y-104775000D03*
X130175000Y-104775000D03*
X131445000Y-104775000D03*
X132715000Y-104775000D03*
X133985000Y-104775000D03*
X135255000Y-104775000D03*
X136525000Y-104775000D03*
D22*
X99060000Y-107950000D03*
X99060000Y-97790000D03*
D14*
X105156000Y-102870000D03*
D12*
X107950000Y-102870000D03*
X107950000Y-100076000D03*
X107950000Y-105664000D03*
D21*
X160655000Y-92075000D03*
X161925000Y-92075000D03*
X163195000Y-92075000D03*
X164465000Y-92075000D03*
X165735000Y-92075000D03*
X167005000Y-92075000D03*
X159385000Y-92075000D03*
X158115000Y-92075000D03*
X156845000Y-92075000D03*
X155575000Y-92075000D03*
X154305000Y-92075000D03*
X153035000Y-92075000D03*
X153035000Y-81915000D03*
X154305000Y-81915000D03*
X155575000Y-81915000D03*
X156845000Y-81915000D03*
X158115000Y-81915000D03*
X159385000Y-81915000D03*
X160655000Y-81915000D03*
X161925000Y-81915000D03*
X163195000Y-81915000D03*
X164465000Y-81915000D03*
X165735000Y-81915000D03*
X167005000Y-81915000D03*
X130175000Y-92075000D03*
X131445000Y-92075000D03*
X132715000Y-92075000D03*
X133985000Y-92075000D03*
X135255000Y-92075000D03*
X136525000Y-92075000D03*
X128905000Y-92075000D03*
X127635000Y-92075000D03*
X126365000Y-92075000D03*
X125095000Y-92075000D03*
X123825000Y-92075000D03*
X122555000Y-92075000D03*
X122555000Y-81915000D03*
X123825000Y-81915000D03*
X125095000Y-81915000D03*
X126365000Y-81915000D03*
X127635000Y-81915000D03*
X128905000Y-81915000D03*
X130175000Y-81915000D03*
X131445000Y-81915000D03*
X132715000Y-81915000D03*
X133985000Y-81915000D03*
X135255000Y-81915000D03*
X136525000Y-81915000D03*
D23*
X111760000Y-127000000D03*
X113030000Y-78740000D03*
X194310000Y-127000000D03*
X187960000Y-78740000D03*
D15*
X125730000Y-127000000D03*
X128270000Y-127000000D03*
X130810000Y-127000000D03*
X133350000Y-127000000D03*
X135890000Y-127000000D03*
X138430000Y-127000000D03*
X140970000Y-127000000D03*
X143510000Y-127000000D03*
X148590000Y-127000000D03*
X151130000Y-127000000D03*
X153670000Y-127000000D03*
X156210000Y-127000000D03*
X158750000Y-127000000D03*
X161290000Y-127000000D03*
X163830000Y-127000000D03*
X166370000Y-127000000D03*
X171450000Y-127000000D03*
X173990000Y-127000000D03*
X176530000Y-127000000D03*
X179070000Y-127000000D03*
X181610000Y-127000000D03*
X184150000Y-127000000D03*
X186690000Y-127000000D03*
X189230000Y-127000000D03*
X116586000Y-78740000D03*
X119126000Y-78740000D03*
X121666000Y-78740000D03*
X124206000Y-78740000D03*
X126746000Y-78740000D03*
X129286000Y-78740000D03*
X131826000Y-78740000D03*
X134366000Y-78740000D03*
X136906000Y-78740000D03*
X139446000Y-78740000D03*
X143510000Y-78740000D03*
X161290000Y-78740000D03*
X158750000Y-78740000D03*
X156210000Y-78740000D03*
X153670000Y-78740000D03*
X151130000Y-78740000D03*
X148590000Y-78740000D03*
X146050000Y-78740000D03*
X166370000Y-78740000D03*
X168910000Y-78740000D03*
X171450000Y-78740000D03*
X173990000Y-78740000D03*
X176530000Y-78740000D03*
X179070000Y-78740000D03*
X181610000Y-78740000D03*
X184150000Y-78740000D03*
X191770000Y-78232000D03*
X194310000Y-78232000D03*
D24*
X191262000Y-81280000D03*
X194818000Y-81280000D03*
X191262000Y-83820000D03*
X194818000Y-83820000D03*
X191262000Y-86360000D03*
X194818000Y-86360000D03*
X191262000Y-88900000D03*
X194818000Y-88900000D03*
X191262000Y-91440000D03*
X194818000Y-91440000D03*
X191262000Y-93980000D03*
X194818000Y-93980000D03*
X191262000Y-96520000D03*
X194818000Y-96520000D03*
X191262000Y-99060000D03*
X194818000Y-99060000D03*
X191262000Y-101600000D03*
X194818000Y-101600000D03*
X191262000Y-104140000D03*
X194818000Y-104140000D03*
X191262000Y-106680000D03*
X194818000Y-106680000D03*
X191262000Y-109220000D03*
X194818000Y-109220000D03*
X191262000Y-111760000D03*
X194818000Y-111760000D03*
X191262000Y-114300000D03*
X194818000Y-114300000D03*
X191262000Y-116840000D03*
X194818000Y-116840000D03*
X191262000Y-119380000D03*
X194818000Y-119380000D03*
X191262000Y-121920000D03*
X194818000Y-121920000D03*
D25*
X200660000Y-113385600D03*
X205740000Y-113385600D03*
D26*
X99695000Y-90170000D03*
X99695000Y-80264000D03*
D27*
X206375000Y-86106000D03*
X203835000Y-86106000D03*
X201295000Y-86106000D03*
D26*
X208788000Y-82931000D03*
X198882000Y-82931000D03*
D28*
X209829400Y-79375000D03*
X197840600Y-79375000D03*
D26*
X205359000Y-80137000D03*
X205359000Y-90043000D03*
D27*
X201295000Y-119634000D03*
X203835000Y-119634000D03*
X206375000Y-119634000D03*
D26*
X198882000Y-122809000D03*
X208788000Y-122809000D03*
D28*
X197840600Y-126365000D03*
X209829400Y-126365000D03*
D26*
X207518000Y-124079000D03*
X200152000Y-124079000D03*
D20*
X100711000Y-117475000D03*
X103759000Y-117475000D03*
D13*
X172720000Y-85471000D03*
X172720000Y-88519000D03*
X142240000Y-85471000D03*
X142240000Y-88519000D03*
M02*
