G04 #@! TF.FileFunction,Legend,Top*
%FSLAX46Y46*%
G04 Gerber Fmt 4.6, Leading zero omitted, Abs format (unit mm)*
G04 Created by KiCad (PCBNEW 0.201502181246+5430~21~ubuntu14.04.1-product) date Wed 18 Feb 2015 01:58:47 PM EST*
%MOMM*%
G01*
G04 APERTURE LIST*
%ADD10C,0.100000*%
%ADD11C,0.381000*%
%ADD12C,0.635000*%
%ADD13C,0.228600*%
%ADD14C,0.254000*%
%ADD15C,0.190500*%
%ADD16C,0.508000*%
%ADD17R,1.590040X2.667000*%
%ADD18O,2.540000X1.854200*%
%ADD19R,2.540000X1.854200*%
%ADD20O,1.854200X2.540000*%
%ADD21R,1.854200X2.540000*%
%ADD22O,1.524000X2.032000*%
%ADD23O,4.445000X3.175000*%
%ADD24O,5.080000X3.048000*%
%ADD25O,2.032000X1.524000*%
%ADD26C,3.937000*%
%ADD27O,1.524000X2.540000*%
%ADD28O,2.540000X1.524000*%
%ADD29C,1.930400*%
%ADD30O,4.572000X3.556000*%
%ADD31O,4.064000X5.080000*%
%ADD32O,5.080000X3.556000*%
%ADD33R,1.498600X2.997200*%
%ADD34R,1.016000X4.495800*%
G04 APERTURE END LIST*
D10*
D11*
X181591857Y-92074999D02*
X181664429Y-91857285D01*
X181664429Y-91494428D01*
X181591857Y-91349285D01*
X181519286Y-91276714D01*
X181374143Y-91204142D01*
X181229000Y-91204142D01*
X181083857Y-91276714D01*
X181011286Y-91349285D01*
X180938714Y-91494428D01*
X180866143Y-91784714D01*
X180793571Y-91929856D01*
X180721000Y-92002428D01*
X180575857Y-92074999D01*
X180430714Y-92074999D01*
X180285571Y-92002428D01*
X180213000Y-91929856D01*
X180140429Y-91784714D01*
X180140429Y-91421856D01*
X180213000Y-91204142D01*
X180140429Y-90696142D02*
X181664429Y-90333285D01*
X180575857Y-90042999D01*
X181664429Y-89752713D01*
X180140429Y-89389856D01*
X181664429Y-88809285D02*
X180140429Y-88809285D01*
X180140429Y-88301285D02*
X180140429Y-87430428D01*
X181664429Y-87865857D02*
X180140429Y-87865857D01*
X181519286Y-86051571D02*
X181591857Y-86124142D01*
X181664429Y-86341856D01*
X181664429Y-86486999D01*
X181591857Y-86704714D01*
X181446714Y-86849856D01*
X181301571Y-86922428D01*
X181011286Y-86994999D01*
X180793571Y-86994999D01*
X180503286Y-86922428D01*
X180358143Y-86849856D01*
X180213000Y-86704714D01*
X180140429Y-86486999D01*
X180140429Y-86341856D01*
X180213000Y-86124142D01*
X180285571Y-86051571D01*
X181664429Y-85398428D02*
X180140429Y-85398428D01*
X180866143Y-85398428D02*
X180866143Y-84527571D01*
X181664429Y-84527571D02*
X180140429Y-84527571D01*
D12*
X115872381Y-94796429D02*
X117807619Y-94796429D01*
X141272381Y-94796429D02*
X143207619Y-94796429D01*
X115872381Y-82096429D02*
X117807619Y-82096429D01*
X116840000Y-83064048D02*
X116840000Y-81128810D01*
X141272381Y-82096429D02*
X143207619Y-82096429D01*
X142240000Y-83064048D02*
X142240000Y-81128810D01*
X171752381Y-94796429D02*
X173687619Y-94796429D01*
X146352381Y-94796429D02*
X148287619Y-94796429D01*
X146352381Y-82096429D02*
X148287619Y-82096429D01*
X147320000Y-83064048D02*
X147320000Y-81128810D01*
X171752381Y-82096429D02*
X173687619Y-82096429D01*
X172720000Y-83064048D02*
X172720000Y-81128810D01*
X115872381Y-117656429D02*
X117807619Y-117656429D01*
X171752381Y-117656429D02*
X173687619Y-117656429D01*
X146352381Y-117656429D02*
X148287619Y-117656429D01*
X146352381Y-104956429D02*
X148287619Y-104956429D01*
X147320000Y-105924048D02*
X147320000Y-103988810D01*
X171752381Y-104956429D02*
X173687619Y-104956429D01*
X172720000Y-105924048D02*
X172720000Y-103988810D01*
X115872381Y-104956429D02*
X117807619Y-104956429D01*
X116840000Y-105924048D02*
X116840000Y-103988810D01*
D11*
X167059429Y-82023857D02*
X167059429Y-82894714D01*
X167059429Y-82459286D02*
X165535429Y-82459286D01*
X165753143Y-82604429D01*
X165898286Y-82749571D01*
X165970857Y-82894714D01*
X163140571Y-82894714D02*
X163068000Y-82822143D01*
X162995429Y-82677000D01*
X162995429Y-82314143D01*
X163068000Y-82169000D01*
X163140571Y-82096429D01*
X163285714Y-82023857D01*
X163430857Y-82023857D01*
X163648571Y-82096429D01*
X164519429Y-82967286D01*
X164519429Y-82023857D01*
X160455429Y-82967286D02*
X160455429Y-82023857D01*
X161036000Y-82531857D01*
X161036000Y-82314143D01*
X161108571Y-82169000D01*
X161181143Y-82096429D01*
X161326286Y-82023857D01*
X161689143Y-82023857D01*
X161834286Y-82096429D01*
X161906857Y-82169000D01*
X161979429Y-82314143D01*
X161979429Y-82749571D01*
X161906857Y-82894714D01*
X161834286Y-82967286D01*
X158423429Y-82169000D02*
X159439429Y-82169000D01*
X157842857Y-82531857D02*
X158931429Y-82894714D01*
X158931429Y-81951286D01*
X155375429Y-82096429D02*
X155375429Y-82822143D01*
X156101143Y-82894714D01*
X156028571Y-82822143D01*
X155956000Y-82677000D01*
X155956000Y-82314143D01*
X156028571Y-82169000D01*
X156101143Y-82096429D01*
X156246286Y-82023857D01*
X156609143Y-82023857D01*
X156754286Y-82096429D01*
X156826857Y-82169000D01*
X156899429Y-82314143D01*
X156899429Y-82677000D01*
X156826857Y-82822143D01*
X156754286Y-82894714D01*
X152835429Y-82169000D02*
X152835429Y-82459286D01*
X152908000Y-82604429D01*
X152980571Y-82677000D01*
X153198286Y-82822143D01*
X153488571Y-82894714D01*
X154069143Y-82894714D01*
X154214286Y-82822143D01*
X154286857Y-82749571D01*
X154359429Y-82604429D01*
X154359429Y-82314143D01*
X154286857Y-82169000D01*
X154214286Y-82096429D01*
X154069143Y-82023857D01*
X153706286Y-82023857D01*
X153561143Y-82096429D01*
X153488571Y-82169000D01*
X153416000Y-82314143D01*
X153416000Y-82604429D01*
X153488571Y-82749571D01*
X153561143Y-82822143D01*
X153706286Y-82894714D01*
X150295429Y-82967286D02*
X150295429Y-81951286D01*
X151819429Y-82604429D01*
X138248571Y-81969429D02*
X138176000Y-82114571D01*
X138103429Y-82187143D01*
X137958286Y-82259714D01*
X137885714Y-82259714D01*
X137740571Y-82187143D01*
X137668000Y-82114571D01*
X137595429Y-81969429D01*
X137595429Y-81679143D01*
X137668000Y-81534000D01*
X137740571Y-81461429D01*
X137885714Y-81388857D01*
X137958286Y-81388857D01*
X138103429Y-81461429D01*
X138176000Y-81534000D01*
X138248571Y-81679143D01*
X138248571Y-81969429D01*
X138321143Y-82114571D01*
X138393714Y-82187143D01*
X138538857Y-82259714D01*
X138829143Y-82259714D01*
X138974286Y-82187143D01*
X139046857Y-82114571D01*
X139119429Y-81969429D01*
X139119429Y-81679143D01*
X139046857Y-81534000D01*
X138974286Y-81461429D01*
X138829143Y-81388857D01*
X138538857Y-81388857D01*
X138393714Y-81461429D01*
X138321143Y-81534000D01*
X138248571Y-81679143D01*
X136579429Y-82749571D02*
X136579429Y-82459286D01*
X136506857Y-82314143D01*
X136434286Y-82241571D01*
X136216571Y-82096429D01*
X135926286Y-82023857D01*
X135345714Y-82023857D01*
X135200571Y-82096429D01*
X135128000Y-82169000D01*
X135055429Y-82314143D01*
X135055429Y-82604429D01*
X135128000Y-82749571D01*
X135200571Y-82822143D01*
X135345714Y-82894714D01*
X135708571Y-82894714D01*
X135853714Y-82822143D01*
X135926286Y-82749571D01*
X135998857Y-82604429D01*
X135998857Y-82314143D01*
X135926286Y-82169000D01*
X135853714Y-82096429D01*
X135708571Y-82023857D01*
X134039429Y-82023857D02*
X134039429Y-82894714D01*
X134039429Y-82459286D02*
X132515429Y-82459286D01*
X132733143Y-82604429D01*
X132878286Y-82749571D01*
X132950857Y-82894714D01*
X132515429Y-81080428D02*
X132515429Y-80935285D01*
X132588000Y-80790142D01*
X132660571Y-80717571D01*
X132805714Y-80645000D01*
X133096000Y-80572428D01*
X133458857Y-80572428D01*
X133749143Y-80645000D01*
X133894286Y-80717571D01*
X133966857Y-80790142D01*
X134039429Y-80935285D01*
X134039429Y-81080428D01*
X133966857Y-81225571D01*
X133894286Y-81298142D01*
X133749143Y-81370714D01*
X133458857Y-81443285D01*
X133096000Y-81443285D01*
X132805714Y-81370714D01*
X132660571Y-81298142D01*
X132588000Y-81225571D01*
X132515429Y-81080428D01*
X131499429Y-82023857D02*
X131499429Y-82894714D01*
X131499429Y-82459286D02*
X129975429Y-82459286D01*
X130193143Y-82604429D01*
X130338286Y-82749571D01*
X130410857Y-82894714D01*
X131499429Y-80572428D02*
X131499429Y-81443285D01*
X131499429Y-81007857D02*
X129975429Y-81007857D01*
X130193143Y-81153000D01*
X130338286Y-81298142D01*
X130410857Y-81443285D01*
X128959429Y-82023857D02*
X128959429Y-82894714D01*
X128959429Y-82459286D02*
X127435429Y-82459286D01*
X127653143Y-82604429D01*
X127798286Y-82749571D01*
X127870857Y-82894714D01*
X127580571Y-81443285D02*
X127508000Y-81370714D01*
X127435429Y-81225571D01*
X127435429Y-80862714D01*
X127508000Y-80717571D01*
X127580571Y-80645000D01*
X127725714Y-80572428D01*
X127870857Y-80572428D01*
X128088571Y-80645000D01*
X128959429Y-81515857D01*
X128959429Y-80572428D01*
X126419429Y-82023857D02*
X126419429Y-82894714D01*
X126419429Y-82459286D02*
X124895429Y-82459286D01*
X125113143Y-82604429D01*
X125258286Y-82749571D01*
X125330857Y-82894714D01*
X124895429Y-81515857D02*
X124895429Y-80572428D01*
X125476000Y-81080428D01*
X125476000Y-80862714D01*
X125548571Y-80717571D01*
X125621143Y-80645000D01*
X125766286Y-80572428D01*
X126129143Y-80572428D01*
X126274286Y-80645000D01*
X126346857Y-80717571D01*
X126419429Y-80862714D01*
X126419429Y-81298142D01*
X126346857Y-81443285D01*
X126274286Y-81515857D01*
X123879429Y-82023857D02*
X123879429Y-82894714D01*
X123879429Y-82459286D02*
X122355429Y-82459286D01*
X122573143Y-82604429D01*
X122718286Y-82749571D01*
X122790857Y-82894714D01*
X122863429Y-80717571D02*
X123879429Y-80717571D01*
X122282857Y-81080428D02*
X123371429Y-81443285D01*
X123371429Y-80499857D01*
X121339429Y-82023857D02*
X121339429Y-82894714D01*
X121339429Y-82459286D02*
X119815429Y-82459286D01*
X120033143Y-82604429D01*
X120178286Y-82749571D01*
X120250857Y-82894714D01*
X119815429Y-80645000D02*
X119815429Y-81370714D01*
X120541143Y-81443285D01*
X120468571Y-81370714D01*
X120396000Y-81225571D01*
X120396000Y-80862714D01*
X120468571Y-80717571D01*
X120541143Y-80645000D01*
X120686286Y-80572428D01*
X121049143Y-80572428D01*
X121194286Y-80645000D01*
X121266857Y-80717571D01*
X121339429Y-80862714D01*
X121339429Y-81225571D01*
X121266857Y-81370714D01*
X121194286Y-81443285D01*
X168075429Y-81896857D02*
X168075429Y-81751714D01*
X168148000Y-81606571D01*
X168220571Y-81534000D01*
X168365714Y-81461429D01*
X168656000Y-81388857D01*
X169018857Y-81388857D01*
X169309143Y-81461429D01*
X169454286Y-81534000D01*
X169526857Y-81606571D01*
X169599429Y-81751714D01*
X169599429Y-81896857D01*
X169526857Y-82042000D01*
X169454286Y-82114571D01*
X169309143Y-82187143D01*
X169018857Y-82259714D01*
X168656000Y-82259714D01*
X168365714Y-82187143D01*
X168220571Y-82114571D01*
X168148000Y-82042000D01*
X168075429Y-81896857D01*
X164519429Y-104883857D02*
X164519429Y-105754714D01*
X164519429Y-105319286D02*
X162995429Y-105319286D01*
X163213143Y-105464429D01*
X163358286Y-105609571D01*
X163430857Y-105754714D01*
X163648571Y-104013000D02*
X163576000Y-104158142D01*
X163503429Y-104230714D01*
X163358286Y-104303285D01*
X163285714Y-104303285D01*
X163140571Y-104230714D01*
X163068000Y-104158142D01*
X162995429Y-104013000D01*
X162995429Y-103722714D01*
X163068000Y-103577571D01*
X163140571Y-103505000D01*
X163285714Y-103432428D01*
X163358286Y-103432428D01*
X163503429Y-103505000D01*
X163576000Y-103577571D01*
X163648571Y-103722714D01*
X163648571Y-104013000D01*
X163721143Y-104158142D01*
X163793714Y-104230714D01*
X163938857Y-104303285D01*
X164229143Y-104303285D01*
X164374286Y-104230714D01*
X164446857Y-104158142D01*
X164519429Y-104013000D01*
X164519429Y-103722714D01*
X164446857Y-103577571D01*
X164374286Y-103505000D01*
X164229143Y-103432428D01*
X163938857Y-103432428D01*
X163793714Y-103505000D01*
X163721143Y-103577571D01*
X163648571Y-103722714D01*
X161979429Y-104883857D02*
X161979429Y-105754714D01*
X161979429Y-105319286D02*
X160455429Y-105319286D01*
X160673143Y-105464429D01*
X160818286Y-105609571D01*
X160890857Y-105754714D01*
X161979429Y-104158142D02*
X161979429Y-103867857D01*
X161906857Y-103722714D01*
X161834286Y-103650142D01*
X161616571Y-103505000D01*
X161326286Y-103432428D01*
X160745714Y-103432428D01*
X160600571Y-103505000D01*
X160528000Y-103577571D01*
X160455429Y-103722714D01*
X160455429Y-104013000D01*
X160528000Y-104158142D01*
X160600571Y-104230714D01*
X160745714Y-104303285D01*
X161108571Y-104303285D01*
X161253714Y-104230714D01*
X161326286Y-104158142D01*
X161398857Y-104013000D01*
X161398857Y-103722714D01*
X161326286Y-103577571D01*
X161253714Y-103505000D01*
X161108571Y-103432428D01*
X158060571Y-105754714D02*
X157988000Y-105682143D01*
X157915429Y-105537000D01*
X157915429Y-105174143D01*
X157988000Y-105029000D01*
X158060571Y-104956429D01*
X158205714Y-104883857D01*
X158350857Y-104883857D01*
X158568571Y-104956429D01*
X159439429Y-105827286D01*
X159439429Y-104883857D01*
X157915429Y-103940428D02*
X157915429Y-103795285D01*
X157988000Y-103650142D01*
X158060571Y-103577571D01*
X158205714Y-103505000D01*
X158496000Y-103432428D01*
X158858857Y-103432428D01*
X159149143Y-103505000D01*
X159294286Y-103577571D01*
X159366857Y-103650142D01*
X159439429Y-103795285D01*
X159439429Y-103940428D01*
X159366857Y-104085571D01*
X159294286Y-104158142D01*
X159149143Y-104230714D01*
X158858857Y-104303285D01*
X158496000Y-104303285D01*
X158205714Y-104230714D01*
X158060571Y-104158142D01*
X157988000Y-104085571D01*
X157915429Y-103940428D01*
X155520571Y-105754714D02*
X155448000Y-105682143D01*
X155375429Y-105537000D01*
X155375429Y-105174143D01*
X155448000Y-105029000D01*
X155520571Y-104956429D01*
X155665714Y-104883857D01*
X155810857Y-104883857D01*
X156028571Y-104956429D01*
X156899429Y-105827286D01*
X156899429Y-104883857D01*
X156899429Y-103432428D02*
X156899429Y-104303285D01*
X156899429Y-103867857D02*
X155375429Y-103867857D01*
X155593143Y-104013000D01*
X155738286Y-104158142D01*
X155810857Y-104303285D01*
X152980571Y-105754714D02*
X152908000Y-105682143D01*
X152835429Y-105537000D01*
X152835429Y-105174143D01*
X152908000Y-105029000D01*
X152980571Y-104956429D01*
X153125714Y-104883857D01*
X153270857Y-104883857D01*
X153488571Y-104956429D01*
X154359429Y-105827286D01*
X154359429Y-104883857D01*
X152980571Y-104303285D02*
X152908000Y-104230714D01*
X152835429Y-104085571D01*
X152835429Y-103722714D01*
X152908000Y-103577571D01*
X152980571Y-103505000D01*
X153125714Y-103432428D01*
X153270857Y-103432428D01*
X153488571Y-103505000D01*
X154359429Y-104375857D01*
X154359429Y-103432428D01*
X150440571Y-105754714D02*
X150368000Y-105682143D01*
X150295429Y-105537000D01*
X150295429Y-105174143D01*
X150368000Y-105029000D01*
X150440571Y-104956429D01*
X150585714Y-104883857D01*
X150730857Y-104883857D01*
X150948571Y-104956429D01*
X151819429Y-105827286D01*
X151819429Y-104883857D01*
X150295429Y-104375857D02*
X150295429Y-103432428D01*
X150876000Y-103940428D01*
X150876000Y-103722714D01*
X150948571Y-103577571D01*
X151021143Y-103505000D01*
X151166286Y-103432428D01*
X151529143Y-103432428D01*
X151674286Y-103505000D01*
X151746857Y-103577571D01*
X151819429Y-103722714D01*
X151819429Y-104158142D01*
X151746857Y-104303285D01*
X151674286Y-104375857D01*
X137740571Y-105119714D02*
X137668000Y-105047143D01*
X137595429Y-104902000D01*
X137595429Y-104539143D01*
X137668000Y-104394000D01*
X137740571Y-104321429D01*
X137885714Y-104248857D01*
X138030857Y-104248857D01*
X138248571Y-104321429D01*
X139119429Y-105192286D01*
X139119429Y-104248857D01*
X138103429Y-102942571D02*
X139119429Y-102942571D01*
X137522857Y-103305428D02*
X138611429Y-103668285D01*
X138611429Y-102724857D01*
X135200571Y-105754714D02*
X135128000Y-105682143D01*
X135055429Y-105537000D01*
X135055429Y-105174143D01*
X135128000Y-105029000D01*
X135200571Y-104956429D01*
X135345714Y-104883857D01*
X135490857Y-104883857D01*
X135708571Y-104956429D01*
X136579429Y-105827286D01*
X136579429Y-104883857D01*
X135055429Y-103505000D02*
X135055429Y-104230714D01*
X135781143Y-104303285D01*
X135708571Y-104230714D01*
X135636000Y-104085571D01*
X135636000Y-103722714D01*
X135708571Y-103577571D01*
X135781143Y-103505000D01*
X135926286Y-103432428D01*
X136289143Y-103432428D01*
X136434286Y-103505000D01*
X136506857Y-103577571D01*
X136579429Y-103722714D01*
X136579429Y-104085571D01*
X136506857Y-104230714D01*
X136434286Y-104303285D01*
X132660571Y-105754714D02*
X132588000Y-105682143D01*
X132515429Y-105537000D01*
X132515429Y-105174143D01*
X132588000Y-105029000D01*
X132660571Y-104956429D01*
X132805714Y-104883857D01*
X132950857Y-104883857D01*
X133168571Y-104956429D01*
X134039429Y-105827286D01*
X134039429Y-104883857D01*
X132515429Y-103577571D02*
X132515429Y-103867857D01*
X132588000Y-104013000D01*
X132660571Y-104085571D01*
X132878286Y-104230714D01*
X133168571Y-104303285D01*
X133749143Y-104303285D01*
X133894286Y-104230714D01*
X133966857Y-104158142D01*
X134039429Y-104013000D01*
X134039429Y-103722714D01*
X133966857Y-103577571D01*
X133894286Y-103505000D01*
X133749143Y-103432428D01*
X133386286Y-103432428D01*
X133241143Y-103505000D01*
X133168571Y-103577571D01*
X133096000Y-103722714D01*
X133096000Y-104013000D01*
X133168571Y-104158142D01*
X133241143Y-104230714D01*
X133386286Y-104303285D01*
X130120571Y-105754714D02*
X130048000Y-105682143D01*
X129975429Y-105537000D01*
X129975429Y-105174143D01*
X130048000Y-105029000D01*
X130120571Y-104956429D01*
X130265714Y-104883857D01*
X130410857Y-104883857D01*
X130628571Y-104956429D01*
X131499429Y-105827286D01*
X131499429Y-104883857D01*
X129975429Y-104375857D02*
X129975429Y-103359857D01*
X131499429Y-104013000D01*
X127580571Y-105754714D02*
X127508000Y-105682143D01*
X127435429Y-105537000D01*
X127435429Y-105174143D01*
X127508000Y-105029000D01*
X127580571Y-104956429D01*
X127725714Y-104883857D01*
X127870857Y-104883857D01*
X128088571Y-104956429D01*
X128959429Y-105827286D01*
X128959429Y-104883857D01*
X128088571Y-104013000D02*
X128016000Y-104158142D01*
X127943429Y-104230714D01*
X127798286Y-104303285D01*
X127725714Y-104303285D01*
X127580571Y-104230714D01*
X127508000Y-104158142D01*
X127435429Y-104013000D01*
X127435429Y-103722714D01*
X127508000Y-103577571D01*
X127580571Y-103505000D01*
X127725714Y-103432428D01*
X127798286Y-103432428D01*
X127943429Y-103505000D01*
X128016000Y-103577571D01*
X128088571Y-103722714D01*
X128088571Y-104013000D01*
X128161143Y-104158142D01*
X128233714Y-104230714D01*
X128378857Y-104303285D01*
X128669143Y-104303285D01*
X128814286Y-104230714D01*
X128886857Y-104158142D01*
X128959429Y-104013000D01*
X128959429Y-103722714D01*
X128886857Y-103577571D01*
X128814286Y-103505000D01*
X128669143Y-103432428D01*
X128378857Y-103432428D01*
X128233714Y-103505000D01*
X128161143Y-103577571D01*
X128088571Y-103722714D01*
X125040571Y-105754714D02*
X124968000Y-105682143D01*
X124895429Y-105537000D01*
X124895429Y-105174143D01*
X124968000Y-105029000D01*
X125040571Y-104956429D01*
X125185714Y-104883857D01*
X125330857Y-104883857D01*
X125548571Y-104956429D01*
X126419429Y-105827286D01*
X126419429Y-104883857D01*
X126419429Y-104158142D02*
X126419429Y-103867857D01*
X126346857Y-103722714D01*
X126274286Y-103650142D01*
X126056571Y-103505000D01*
X125766286Y-103432428D01*
X125185714Y-103432428D01*
X125040571Y-103505000D01*
X124968000Y-103577571D01*
X124895429Y-103722714D01*
X124895429Y-104013000D01*
X124968000Y-104158142D01*
X125040571Y-104230714D01*
X125185714Y-104303285D01*
X125548571Y-104303285D01*
X125693714Y-104230714D01*
X125766286Y-104158142D01*
X125838857Y-104013000D01*
X125838857Y-103722714D01*
X125766286Y-103577571D01*
X125693714Y-103505000D01*
X125548571Y-103432428D01*
X122355429Y-105827286D02*
X122355429Y-104883857D01*
X122936000Y-105391857D01*
X122936000Y-105174143D01*
X123008571Y-105029000D01*
X123081143Y-104956429D01*
X123226286Y-104883857D01*
X123589143Y-104883857D01*
X123734286Y-104956429D01*
X123806857Y-105029000D01*
X123879429Y-105174143D01*
X123879429Y-105609571D01*
X123806857Y-105754714D01*
X123734286Y-105827286D01*
X122355429Y-103940428D02*
X122355429Y-103795285D01*
X122428000Y-103650142D01*
X122500571Y-103577571D01*
X122645714Y-103505000D01*
X122936000Y-103432428D01*
X123298857Y-103432428D01*
X123589143Y-103505000D01*
X123734286Y-103577571D01*
X123806857Y-103650142D01*
X123879429Y-103795285D01*
X123879429Y-103940428D01*
X123806857Y-104085571D01*
X123734286Y-104158142D01*
X123589143Y-104230714D01*
X123298857Y-104303285D01*
X122936000Y-104303285D01*
X122645714Y-104230714D01*
X122500571Y-104158142D01*
X122428000Y-104085571D01*
X122355429Y-103940428D01*
X119815429Y-105827286D02*
X119815429Y-104883857D01*
X120396000Y-105391857D01*
X120396000Y-105174143D01*
X120468571Y-105029000D01*
X120541143Y-104956429D01*
X120686286Y-104883857D01*
X121049143Y-104883857D01*
X121194286Y-104956429D01*
X121266857Y-105029000D01*
X121339429Y-105174143D01*
X121339429Y-105609571D01*
X121266857Y-105754714D01*
X121194286Y-105827286D01*
X121339429Y-103432428D02*
X121339429Y-104303285D01*
X121339429Y-103867857D02*
X119815429Y-103867857D01*
X120033143Y-104013000D01*
X120178286Y-104158142D01*
X120250857Y-104303285D01*
X167059429Y-104883857D02*
X167059429Y-105754714D01*
X167059429Y-105319286D02*
X165535429Y-105319286D01*
X165753143Y-105464429D01*
X165898286Y-105609571D01*
X165970857Y-105754714D01*
X165535429Y-104375857D02*
X165535429Y-103359857D01*
X167059429Y-104013000D01*
X169599429Y-104248857D02*
X169599429Y-105119714D01*
X169599429Y-104684286D02*
X168075429Y-104684286D01*
X168293143Y-104829429D01*
X168438286Y-104974571D01*
X168510857Y-105119714D01*
X168075429Y-102942571D02*
X168075429Y-103232857D01*
X168148000Y-103378000D01*
X168220571Y-103450571D01*
X168438286Y-103595714D01*
X168728571Y-103668285D01*
X169309143Y-103668285D01*
X169454286Y-103595714D01*
X169526857Y-103523142D01*
X169599429Y-103378000D01*
X169599429Y-103087714D01*
X169526857Y-102942571D01*
X169454286Y-102870000D01*
X169309143Y-102797428D01*
X168946286Y-102797428D01*
X168801143Y-102870000D01*
X168728571Y-102942571D01*
X168656000Y-103087714D01*
X168656000Y-103378000D01*
X168728571Y-103523142D01*
X168801143Y-103595714D01*
X168946286Y-103668285D01*
D12*
X141272381Y-117656429D02*
X143207619Y-117656429D01*
X141272381Y-104956429D02*
X143207619Y-104956429D01*
X142240000Y-105924048D02*
X142240000Y-103988810D01*
D13*
X211455000Y-75565000D02*
X93345000Y-75565000D01*
X211455000Y-130175000D02*
X211455000Y-75565000D01*
X93345000Y-130175000D02*
X211455000Y-130175000D01*
X93345000Y-75565000D02*
X93345000Y-130175000D01*
D14*
X198894095Y-123014619D02*
X198313524Y-123014619D01*
X198603810Y-123014619D02*
X198603810Y-121998619D01*
X198507048Y-122143762D01*
X198410286Y-122240524D01*
X198313524Y-122288905D01*
X199281143Y-122095381D02*
X199329524Y-122047000D01*
X199426286Y-121998619D01*
X199668190Y-121998619D01*
X199764952Y-122047000D01*
X199813333Y-122095381D01*
X199861714Y-122192143D01*
X199861714Y-122288905D01*
X199813333Y-122434048D01*
X199232762Y-123014619D01*
X199861714Y-123014619D01*
X200152000Y-121998619D02*
X200490667Y-123014619D01*
X200829333Y-121998619D01*
X200926095Y-123111381D02*
X201700190Y-123111381D01*
X201942095Y-123014619D02*
X201942095Y-121998619D01*
X202184000Y-121998619D01*
X202329142Y-122047000D01*
X202425904Y-122143762D01*
X202474285Y-122240524D01*
X202522666Y-122434048D01*
X202522666Y-122579190D01*
X202474285Y-122772714D01*
X202425904Y-122869476D01*
X202329142Y-122966238D01*
X202184000Y-123014619D01*
X201942095Y-123014619D01*
X203538666Y-122917857D02*
X203490285Y-122966238D01*
X203345142Y-123014619D01*
X203248380Y-123014619D01*
X203103238Y-122966238D01*
X203006476Y-122869476D01*
X202958095Y-122772714D01*
X202909714Y-122579190D01*
X202909714Y-122434048D01*
X202958095Y-122240524D01*
X203006476Y-122143762D01*
X203103238Y-122047000D01*
X203248380Y-121998619D01*
X203345142Y-121998619D01*
X203490285Y-122047000D01*
X203538666Y-122095381D01*
X203732190Y-123111381D02*
X204506285Y-123111381D01*
X204748190Y-123014619D02*
X204748190Y-121998619D01*
X204990095Y-121998619D01*
X205135237Y-122047000D01*
X205231999Y-122143762D01*
X205280380Y-122240524D01*
X205328761Y-122434048D01*
X205328761Y-122579190D01*
X205280380Y-122772714D01*
X205231999Y-122869476D01*
X205135237Y-122966238D01*
X204990095Y-123014619D01*
X204748190Y-123014619D01*
X206344761Y-122917857D02*
X206296380Y-122966238D01*
X206151237Y-123014619D01*
X206054475Y-123014619D01*
X205909333Y-122966238D01*
X205812571Y-122869476D01*
X205764190Y-122772714D01*
X205715809Y-122579190D01*
X205715809Y-122434048D01*
X205764190Y-122240524D01*
X205812571Y-122143762D01*
X205909333Y-122047000D01*
X206054475Y-121998619D01*
X206151237Y-121998619D01*
X206296380Y-122047000D01*
X206344761Y-122095381D01*
X197853905Y-96592571D02*
X198628000Y-96592571D01*
X198240952Y-96979619D02*
X198240952Y-96205524D01*
X199063429Y-96060381D02*
X199111810Y-96012000D01*
X199208572Y-95963619D01*
X199450476Y-95963619D01*
X199547238Y-96012000D01*
X199595619Y-96060381D01*
X199644000Y-96157143D01*
X199644000Y-96253905D01*
X199595619Y-96399048D01*
X199015048Y-96979619D01*
X199644000Y-96979619D01*
X200514857Y-96302286D02*
X200514857Y-96979619D01*
X200272953Y-95915238D02*
X200031048Y-96640952D01*
X200660000Y-96640952D01*
X200901905Y-95963619D02*
X201240572Y-96979619D01*
X201579238Y-95963619D01*
X201917905Y-96979619D02*
X201917905Y-95963619D01*
X202159810Y-95963619D01*
X202304952Y-96012000D01*
X202401714Y-96108762D01*
X202450095Y-96205524D01*
X202498476Y-96399048D01*
X202498476Y-96544190D01*
X202450095Y-96737714D01*
X202401714Y-96834476D01*
X202304952Y-96931238D01*
X202159810Y-96979619D01*
X201917905Y-96979619D01*
X203514476Y-96882857D02*
X203466095Y-96931238D01*
X203320952Y-96979619D01*
X203224190Y-96979619D01*
X203079048Y-96931238D01*
X202982286Y-96834476D01*
X202933905Y-96737714D01*
X202885524Y-96544190D01*
X202885524Y-96399048D01*
X202933905Y-96205524D01*
X202982286Y-96108762D01*
X203079048Y-96012000D01*
X203224190Y-95963619D01*
X203320952Y-95963619D01*
X203466095Y-96012000D01*
X203514476Y-96060381D01*
X101358096Y-119204619D02*
X101358096Y-118188619D01*
X101600001Y-118188619D01*
X101745143Y-118237000D01*
X101841905Y-118333762D01*
X101890286Y-118430524D01*
X101938667Y-118624048D01*
X101938667Y-118769190D01*
X101890286Y-118962714D01*
X101841905Y-119059476D01*
X101745143Y-119156238D01*
X101600001Y-119204619D01*
X101358096Y-119204619D01*
X102374096Y-119204619D02*
X102374096Y-118188619D01*
X102809525Y-119156238D02*
X102954668Y-119204619D01*
X103196572Y-119204619D01*
X103293334Y-119156238D01*
X103341715Y-119107857D01*
X103390096Y-119011095D01*
X103390096Y-118914333D01*
X103341715Y-118817571D01*
X103293334Y-118769190D01*
X103196572Y-118720810D01*
X103003049Y-118672429D01*
X102906287Y-118624048D01*
X102857906Y-118575667D01*
X102809525Y-118478905D01*
X102809525Y-118382143D01*
X102857906Y-118285381D01*
X102906287Y-118237000D01*
X103003049Y-118188619D01*
X103244953Y-118188619D01*
X103390096Y-118237000D01*
X103825525Y-119204619D02*
X103825525Y-118188619D01*
X104212572Y-118188619D01*
X104309334Y-118237000D01*
X104357715Y-118285381D01*
X104406096Y-118382143D01*
X104406096Y-118527286D01*
X104357715Y-118624048D01*
X104309334Y-118672429D01*
X104212572Y-118720810D01*
X103825525Y-118720810D01*
X105325334Y-119204619D02*
X104841525Y-119204619D01*
X104841525Y-118188619D01*
X105615620Y-118914333D02*
X106099429Y-118914333D01*
X105518858Y-119204619D02*
X105857525Y-118188619D01*
X106196191Y-119204619D01*
X106728382Y-118720810D02*
X106728382Y-119204619D01*
X106389715Y-118188619D02*
X106728382Y-118720810D01*
X107067048Y-118188619D01*
D15*
X189574714Y-118418432D02*
X188812714Y-118418432D01*
X189574714Y-118091861D02*
X189175571Y-118091861D01*
X189103000Y-118128147D01*
X189066714Y-118200718D01*
X189066714Y-118309575D01*
X189103000Y-118382147D01*
X189139286Y-118418432D01*
X189066714Y-117837861D02*
X189066714Y-117547575D01*
X188812714Y-117729003D02*
X189465857Y-117729003D01*
X189538429Y-117692718D01*
X189574714Y-117620146D01*
X189574714Y-117547575D01*
X189066714Y-117402432D02*
X189066714Y-117112146D01*
X188812714Y-117293574D02*
X189465857Y-117293574D01*
X189538429Y-117257289D01*
X189574714Y-117184717D01*
X189574714Y-117112146D01*
X189066714Y-116858145D02*
X189828714Y-116858145D01*
X189103000Y-116858145D02*
X189066714Y-116785574D01*
X189066714Y-116640431D01*
X189103000Y-116567860D01*
X189139286Y-116531574D01*
X189211857Y-116495288D01*
X189429571Y-116495288D01*
X189502143Y-116531574D01*
X189538429Y-116567860D01*
X189574714Y-116640431D01*
X189574714Y-116785574D01*
X189538429Y-116858145D01*
X189538429Y-116205002D02*
X189574714Y-116132431D01*
X189574714Y-115987288D01*
X189538429Y-115914716D01*
X189465857Y-115878431D01*
X189429571Y-115878431D01*
X189357000Y-115914716D01*
X189320714Y-115987288D01*
X189320714Y-116096145D01*
X189284429Y-116168716D01*
X189211857Y-116205002D01*
X189175571Y-116205002D01*
X189103000Y-116168716D01*
X189066714Y-116096145D01*
X189066714Y-115987288D01*
X189103000Y-115914716D01*
X189502143Y-115551859D02*
X189538429Y-115515574D01*
X189574714Y-115551859D01*
X189538429Y-115588145D01*
X189502143Y-115551859D01*
X189574714Y-115551859D01*
X189103000Y-115551859D02*
X189139286Y-115515574D01*
X189175571Y-115551859D01*
X189139286Y-115588145D01*
X189103000Y-115551859D01*
X189175571Y-115551859D01*
X188776429Y-114644717D02*
X189756143Y-115297860D01*
X188776429Y-113846431D02*
X189756143Y-114499574D01*
X189066714Y-113265859D02*
X189683571Y-113265859D01*
X189756143Y-113302145D01*
X189792429Y-113338430D01*
X189828714Y-113411002D01*
X189828714Y-113519859D01*
X189792429Y-113592430D01*
X189538429Y-113265859D02*
X189574714Y-113338430D01*
X189574714Y-113483573D01*
X189538429Y-113556145D01*
X189502143Y-113592430D01*
X189429571Y-113628716D01*
X189211857Y-113628716D01*
X189139286Y-113592430D01*
X189103000Y-113556145D01*
X189066714Y-113483573D01*
X189066714Y-113338430D01*
X189103000Y-113265859D01*
X189574714Y-112903001D02*
X189066714Y-112903001D01*
X188812714Y-112903001D02*
X188849000Y-112939287D01*
X188885286Y-112903001D01*
X188849000Y-112866716D01*
X188812714Y-112903001D01*
X188885286Y-112903001D01*
X189066714Y-112649002D02*
X189066714Y-112358716D01*
X188812714Y-112540144D02*
X189465857Y-112540144D01*
X189538429Y-112503859D01*
X189574714Y-112431287D01*
X189574714Y-112358716D01*
X189574714Y-112104715D02*
X188812714Y-112104715D01*
X189574714Y-111778144D02*
X189175571Y-111778144D01*
X189103000Y-111814430D01*
X189066714Y-111887001D01*
X189066714Y-111995858D01*
X189103000Y-112068430D01*
X189139286Y-112104715D01*
X189066714Y-111088715D02*
X189574714Y-111088715D01*
X189066714Y-111415286D02*
X189465857Y-111415286D01*
X189538429Y-111379001D01*
X189574714Y-111306429D01*
X189574714Y-111197572D01*
X189538429Y-111125001D01*
X189502143Y-111088715D01*
X189574714Y-110725857D02*
X188812714Y-110725857D01*
X189103000Y-110725857D02*
X189066714Y-110653286D01*
X189066714Y-110508143D01*
X189103000Y-110435572D01*
X189139286Y-110399286D01*
X189211857Y-110363000D01*
X189429571Y-110363000D01*
X189502143Y-110399286D01*
X189538429Y-110435572D01*
X189574714Y-110508143D01*
X189574714Y-110653286D01*
X189538429Y-110725857D01*
X189502143Y-110036428D02*
X189538429Y-110000143D01*
X189574714Y-110036428D01*
X189538429Y-110072714D01*
X189502143Y-110036428D01*
X189574714Y-110036428D01*
X189538429Y-109347000D02*
X189574714Y-109419571D01*
X189574714Y-109564714D01*
X189538429Y-109637286D01*
X189502143Y-109673571D01*
X189429571Y-109709857D01*
X189211857Y-109709857D01*
X189139286Y-109673571D01*
X189103000Y-109637286D01*
X189066714Y-109564714D01*
X189066714Y-109419571D01*
X189103000Y-109347000D01*
X189574714Y-108911571D02*
X189538429Y-108984143D01*
X189502143Y-109020428D01*
X189429571Y-109056714D01*
X189211857Y-109056714D01*
X189139286Y-109020428D01*
X189103000Y-108984143D01*
X189066714Y-108911571D01*
X189066714Y-108802714D01*
X189103000Y-108730143D01*
X189139286Y-108693857D01*
X189211857Y-108657571D01*
X189429571Y-108657571D01*
X189502143Y-108693857D01*
X189538429Y-108730143D01*
X189574714Y-108802714D01*
X189574714Y-108911571D01*
X189574714Y-108330999D02*
X189066714Y-108330999D01*
X189139286Y-108330999D02*
X189103000Y-108294714D01*
X189066714Y-108222142D01*
X189066714Y-108113285D01*
X189103000Y-108040714D01*
X189175571Y-108004428D01*
X189574714Y-108004428D01*
X189175571Y-108004428D02*
X189103000Y-107968142D01*
X189066714Y-107895571D01*
X189066714Y-107786714D01*
X189103000Y-107714142D01*
X189175571Y-107677857D01*
X189574714Y-107677857D01*
X188776429Y-106770714D02*
X189756143Y-107423857D01*
X188812714Y-106298999D02*
X189357000Y-106298999D01*
X189465857Y-106335285D01*
X189538429Y-106407856D01*
X189574714Y-106516713D01*
X189574714Y-106589285D01*
X189574714Y-105609571D02*
X189175571Y-105609571D01*
X189103000Y-105645857D01*
X189066714Y-105718428D01*
X189066714Y-105863571D01*
X189103000Y-105936142D01*
X189538429Y-105609571D02*
X189574714Y-105682142D01*
X189574714Y-105863571D01*
X189538429Y-105936142D01*
X189465857Y-105972428D01*
X189393286Y-105972428D01*
X189320714Y-105936142D01*
X189284429Y-105863571D01*
X189284429Y-105682142D01*
X189248143Y-105609571D01*
X189066714Y-105246713D02*
X189574714Y-105246713D01*
X189139286Y-105246713D02*
X189103000Y-105210428D01*
X189066714Y-105137856D01*
X189066714Y-105028999D01*
X189103000Y-104956428D01*
X189175571Y-104920142D01*
X189574714Y-104920142D01*
X189538429Y-104266999D02*
X189574714Y-104339570D01*
X189574714Y-104484713D01*
X189538429Y-104557284D01*
X189465857Y-104593570D01*
X189175571Y-104593570D01*
X189103000Y-104557284D01*
X189066714Y-104484713D01*
X189066714Y-104339570D01*
X189103000Y-104266999D01*
X189175571Y-104230713D01*
X189248143Y-104230713D01*
X189320714Y-104593570D01*
X189574714Y-103795284D02*
X189538429Y-103867856D01*
X189465857Y-103904141D01*
X188812714Y-103904141D01*
X189574714Y-103504998D02*
X189066714Y-103504998D01*
X188812714Y-103504998D02*
X188849000Y-103541284D01*
X188885286Y-103504998D01*
X188849000Y-103468713D01*
X188812714Y-103504998D01*
X188885286Y-103504998D01*
X189574714Y-102815570D02*
X189175571Y-102815570D01*
X189103000Y-102851856D01*
X189066714Y-102924427D01*
X189066714Y-103069570D01*
X189103000Y-103142141D01*
X189538429Y-102815570D02*
X189574714Y-102888141D01*
X189574714Y-103069570D01*
X189538429Y-103142141D01*
X189465857Y-103178427D01*
X189393286Y-103178427D01*
X189320714Y-103142141D01*
X189284429Y-103069570D01*
X189284429Y-102888141D01*
X189248143Y-102815570D01*
X189538429Y-102488998D02*
X189574714Y-102380141D01*
X189574714Y-102198712D01*
X189538429Y-102126141D01*
X189502143Y-102089855D01*
X189429571Y-102053570D01*
X189357000Y-102053570D01*
X189284429Y-102089855D01*
X189248143Y-102126141D01*
X189211857Y-102198712D01*
X189175571Y-102343855D01*
X189139286Y-102416427D01*
X189103000Y-102452712D01*
X189030429Y-102488998D01*
X188957857Y-102488998D01*
X188885286Y-102452712D01*
X188849000Y-102416427D01*
X188812714Y-102343855D01*
X188812714Y-102162427D01*
X188849000Y-102053570D01*
X189538429Y-101400427D02*
X189574714Y-101472998D01*
X189574714Y-101618141D01*
X189538429Y-101690713D01*
X189502143Y-101726998D01*
X189429571Y-101763284D01*
X189211857Y-101763284D01*
X189139286Y-101726998D01*
X189103000Y-101690713D01*
X189066714Y-101618141D01*
X189066714Y-101472998D01*
X189103000Y-101400427D01*
X189574714Y-101073855D02*
X189066714Y-101073855D01*
X188812714Y-101073855D02*
X188849000Y-101110141D01*
X188885286Y-101073855D01*
X188849000Y-101037570D01*
X188812714Y-101073855D01*
X188885286Y-101073855D01*
X189502143Y-100275570D02*
X189538429Y-100311856D01*
X189574714Y-100420713D01*
X189574714Y-100493284D01*
X189538429Y-100602141D01*
X189465857Y-100674713D01*
X189393286Y-100710998D01*
X189248143Y-100747284D01*
X189139286Y-100747284D01*
X188994143Y-100710998D01*
X188921571Y-100674713D01*
X188849000Y-100602141D01*
X188812714Y-100493284D01*
X188812714Y-100420713D01*
X188849000Y-100311856D01*
X188885286Y-100275570D01*
X189574714Y-99840141D02*
X189538429Y-99912713D01*
X189502143Y-99948998D01*
X189429571Y-99985284D01*
X189211857Y-99985284D01*
X189139286Y-99948998D01*
X189103000Y-99912713D01*
X189066714Y-99840141D01*
X189066714Y-99731284D01*
X189103000Y-99658713D01*
X189139286Y-99622427D01*
X189211857Y-99586141D01*
X189429571Y-99586141D01*
X189502143Y-99622427D01*
X189538429Y-99658713D01*
X189574714Y-99731284D01*
X189574714Y-99840141D01*
X189574714Y-99259569D02*
X189066714Y-99259569D01*
X189139286Y-99259569D02*
X189103000Y-99223284D01*
X189066714Y-99150712D01*
X189066714Y-99041855D01*
X189103000Y-98969284D01*
X189175571Y-98932998D01*
X189574714Y-98932998D01*
X189175571Y-98932998D02*
X189103000Y-98896712D01*
X189066714Y-98824141D01*
X189066714Y-98715284D01*
X189103000Y-98642712D01*
X189175571Y-98606427D01*
X189574714Y-98606427D01*
X189066714Y-98243569D02*
X189828714Y-98243569D01*
X189103000Y-98243569D02*
X189066714Y-98170998D01*
X189066714Y-98025855D01*
X189103000Y-97953284D01*
X189139286Y-97916998D01*
X189211857Y-97880712D01*
X189429571Y-97880712D01*
X189502143Y-97916998D01*
X189538429Y-97953284D01*
X189574714Y-98025855D01*
X189574714Y-98170998D01*
X189538429Y-98243569D01*
X188776429Y-97009855D02*
X189756143Y-97662998D01*
X189574714Y-96755854D02*
X189066714Y-96755854D01*
X189139286Y-96755854D02*
X189103000Y-96719569D01*
X189066714Y-96646997D01*
X189066714Y-96538140D01*
X189103000Y-96465569D01*
X189175571Y-96429283D01*
X189574714Y-96429283D01*
X189175571Y-96429283D02*
X189103000Y-96392997D01*
X189066714Y-96320426D01*
X189066714Y-96211569D01*
X189103000Y-96138997D01*
X189175571Y-96102712D01*
X189574714Y-96102712D01*
X189574714Y-95630997D02*
X189538429Y-95703569D01*
X189502143Y-95739854D01*
X189429571Y-95776140D01*
X189211857Y-95776140D01*
X189139286Y-95739854D01*
X189103000Y-95703569D01*
X189066714Y-95630997D01*
X189066714Y-95522140D01*
X189103000Y-95449569D01*
X189139286Y-95413283D01*
X189211857Y-95376997D01*
X189429571Y-95376997D01*
X189502143Y-95413283D01*
X189538429Y-95449569D01*
X189574714Y-95522140D01*
X189574714Y-95630997D01*
X189574714Y-94723854D02*
X188812714Y-94723854D01*
X189538429Y-94723854D02*
X189574714Y-94796425D01*
X189574714Y-94941568D01*
X189538429Y-95014140D01*
X189502143Y-95050425D01*
X189429571Y-95086711D01*
X189211857Y-95086711D01*
X189139286Y-95050425D01*
X189103000Y-95014140D01*
X189066714Y-94941568D01*
X189066714Y-94796425D01*
X189103000Y-94723854D01*
X189066714Y-94034425D02*
X189574714Y-94034425D01*
X189066714Y-94360996D02*
X189465857Y-94360996D01*
X189538429Y-94324711D01*
X189574714Y-94252139D01*
X189574714Y-94143282D01*
X189538429Y-94070711D01*
X189502143Y-94034425D01*
X189574714Y-93562710D02*
X189538429Y-93635282D01*
X189465857Y-93671567D01*
X188812714Y-93671567D01*
X189574714Y-92945853D02*
X189175571Y-92945853D01*
X189103000Y-92982139D01*
X189066714Y-93054710D01*
X189066714Y-93199853D01*
X189103000Y-93272424D01*
X189538429Y-92945853D02*
X189574714Y-93018424D01*
X189574714Y-93199853D01*
X189538429Y-93272424D01*
X189465857Y-93308710D01*
X189393286Y-93308710D01*
X189320714Y-93272424D01*
X189284429Y-93199853D01*
X189284429Y-93018424D01*
X189248143Y-92945853D01*
X189574714Y-92582995D02*
X189066714Y-92582995D01*
X189211857Y-92582995D02*
X189139286Y-92546710D01*
X189103000Y-92510424D01*
X189066714Y-92437853D01*
X189066714Y-92365281D01*
X189284429Y-92111281D02*
X189284429Y-91530710D01*
X189574714Y-90841281D02*
X188812714Y-90841281D01*
X189538429Y-90841281D02*
X189574714Y-90913852D01*
X189574714Y-91058995D01*
X189538429Y-91131567D01*
X189502143Y-91167852D01*
X189429571Y-91204138D01*
X189211857Y-91204138D01*
X189139286Y-91167852D01*
X189103000Y-91131567D01*
X189066714Y-91058995D01*
X189066714Y-90913852D01*
X189103000Y-90841281D01*
X189538429Y-90188138D02*
X189574714Y-90260709D01*
X189574714Y-90405852D01*
X189538429Y-90478423D01*
X189465857Y-90514709D01*
X189175571Y-90514709D01*
X189103000Y-90478423D01*
X189066714Y-90405852D01*
X189066714Y-90260709D01*
X189103000Y-90188138D01*
X189175571Y-90151852D01*
X189248143Y-90151852D01*
X189320714Y-90514709D01*
X189066714Y-89897852D02*
X189574714Y-89716423D01*
X189066714Y-89534995D01*
X189574714Y-89244709D02*
X189066714Y-89244709D01*
X188812714Y-89244709D02*
X188849000Y-89280995D01*
X188885286Y-89244709D01*
X188849000Y-89208424D01*
X188812714Y-89244709D01*
X188885286Y-89244709D01*
X189538429Y-88555281D02*
X189574714Y-88627852D01*
X189574714Y-88772995D01*
X189538429Y-88845567D01*
X189502143Y-88881852D01*
X189429571Y-88918138D01*
X189211857Y-88918138D01*
X189139286Y-88881852D01*
X189103000Y-88845567D01*
X189066714Y-88772995D01*
X189066714Y-88627852D01*
X189103000Y-88555281D01*
X189538429Y-87938424D02*
X189574714Y-88010995D01*
X189574714Y-88156138D01*
X189538429Y-88228709D01*
X189465857Y-88264995D01*
X189175571Y-88264995D01*
X189103000Y-88228709D01*
X189066714Y-88156138D01*
X189066714Y-88010995D01*
X189103000Y-87938424D01*
X189175571Y-87902138D01*
X189248143Y-87902138D01*
X189320714Y-88264995D01*
X189538429Y-87611852D02*
X189574714Y-87539281D01*
X189574714Y-87394138D01*
X189538429Y-87321566D01*
X189465857Y-87285281D01*
X189429571Y-87285281D01*
X189357000Y-87321566D01*
X189320714Y-87394138D01*
X189320714Y-87502995D01*
X189284429Y-87575566D01*
X189211857Y-87611852D01*
X189175571Y-87611852D01*
X189103000Y-87575566D01*
X189066714Y-87502995D01*
X189066714Y-87394138D01*
X189103000Y-87321566D01*
D14*
X203939019Y-94119094D02*
X204664733Y-94119094D01*
X204809876Y-94167474D01*
X204906638Y-94264236D01*
X204955019Y-94409379D01*
X204955019Y-94506141D01*
X204955019Y-93199856D02*
X204422829Y-93199856D01*
X204326067Y-93248237D01*
X204277686Y-93344999D01*
X204277686Y-93538522D01*
X204326067Y-93635284D01*
X204906638Y-93199856D02*
X204955019Y-93296618D01*
X204955019Y-93538522D01*
X204906638Y-93635284D01*
X204809876Y-93683665D01*
X204713114Y-93683665D01*
X204616352Y-93635284D01*
X204567971Y-93538522D01*
X204567971Y-93296618D01*
X204519590Y-93199856D01*
X204277686Y-92716046D02*
X204955019Y-92716046D01*
X204374448Y-92716046D02*
X204326067Y-92667665D01*
X204277686Y-92570903D01*
X204277686Y-92425761D01*
X204326067Y-92328999D01*
X204422829Y-92280618D01*
X204955019Y-92280618D01*
X204906638Y-91409761D02*
X204955019Y-91506523D01*
X204955019Y-91700046D01*
X204906638Y-91796808D01*
X204809876Y-91845189D01*
X204422829Y-91845189D01*
X204326067Y-91796808D01*
X204277686Y-91700046D01*
X204277686Y-91506523D01*
X204326067Y-91409761D01*
X204422829Y-91361380D01*
X204519590Y-91361380D01*
X204616352Y-91845189D01*
X204955019Y-90780808D02*
X204906638Y-90877570D01*
X204809876Y-90925951D01*
X203939019Y-90925951D01*
X204955019Y-90393761D02*
X204277686Y-90393761D01*
X203939019Y-90393761D02*
X203987400Y-90442142D01*
X204035781Y-90393761D01*
X203987400Y-90345380D01*
X203939019Y-90393761D01*
X204035781Y-90393761D01*
X204955019Y-89474523D02*
X204422829Y-89474523D01*
X204326067Y-89522904D01*
X204277686Y-89619666D01*
X204277686Y-89813189D01*
X204326067Y-89909951D01*
X204906638Y-89474523D02*
X204955019Y-89571285D01*
X204955019Y-89813189D01*
X204906638Y-89909951D01*
X204809876Y-89958332D01*
X204713114Y-89958332D01*
X204616352Y-89909951D01*
X204567971Y-89813189D01*
X204567971Y-89571285D01*
X204519590Y-89474523D01*
X204955019Y-88216618D02*
X203939019Y-88216618D01*
X204664733Y-87877952D01*
X203939019Y-87539285D01*
X204955019Y-87539285D01*
X204955019Y-86910332D02*
X204906638Y-87007094D01*
X204858257Y-87055475D01*
X204761495Y-87103856D01*
X204471210Y-87103856D01*
X204374448Y-87055475D01*
X204326067Y-87007094D01*
X204277686Y-86910332D01*
X204277686Y-86765190D01*
X204326067Y-86668428D01*
X204374448Y-86620047D01*
X204471210Y-86571666D01*
X204761495Y-86571666D01*
X204858257Y-86620047D01*
X204906638Y-86668428D01*
X204955019Y-86765190D01*
X204955019Y-86910332D01*
X204955019Y-85700809D02*
X203939019Y-85700809D01*
X204906638Y-85700809D02*
X204955019Y-85797571D01*
X204955019Y-85991094D01*
X204906638Y-86087856D01*
X204858257Y-86136237D01*
X204761495Y-86184618D01*
X204471210Y-86184618D01*
X204374448Y-86136237D01*
X204326067Y-86087856D01*
X204277686Y-85991094D01*
X204277686Y-85797571D01*
X204326067Y-85700809D01*
X204277686Y-84781571D02*
X204955019Y-84781571D01*
X204277686Y-85216999D02*
X204809876Y-85216999D01*
X204906638Y-85168618D01*
X204955019Y-85071856D01*
X204955019Y-84926714D01*
X204906638Y-84829952D01*
X204858257Y-84781571D01*
X204955019Y-84152618D02*
X204906638Y-84249380D01*
X204809876Y-84297761D01*
X203939019Y-84297761D01*
X204955019Y-83330143D02*
X204422829Y-83330143D01*
X204326067Y-83378524D01*
X204277686Y-83475286D01*
X204277686Y-83668809D01*
X204326067Y-83765571D01*
X204906638Y-83330143D02*
X204955019Y-83426905D01*
X204955019Y-83668809D01*
X204906638Y-83765571D01*
X204809876Y-83813952D01*
X204713114Y-83813952D01*
X204616352Y-83765571D01*
X204567971Y-83668809D01*
X204567971Y-83426905D01*
X204519590Y-83330143D01*
X204955019Y-82846333D02*
X204277686Y-82846333D01*
X204471210Y-82846333D02*
X204374448Y-82797952D01*
X204326067Y-82749571D01*
X204277686Y-82652809D01*
X204277686Y-82556048D01*
X204955019Y-81443286D02*
X203939019Y-81443286D01*
X203939019Y-81201381D01*
X203987400Y-81056239D01*
X204084162Y-80959477D01*
X204180924Y-80911096D01*
X204374448Y-80862715D01*
X204519590Y-80862715D01*
X204713114Y-80911096D01*
X204809876Y-80959477D01*
X204906638Y-81056239D01*
X204955019Y-81201381D01*
X204955019Y-81443286D01*
X204906638Y-80040239D02*
X204955019Y-80137001D01*
X204955019Y-80330524D01*
X204906638Y-80427286D01*
X204809876Y-80475667D01*
X204422829Y-80475667D01*
X204326067Y-80427286D01*
X204277686Y-80330524D01*
X204277686Y-80137001D01*
X204326067Y-80040239D01*
X204422829Y-79991858D01*
X204519590Y-79991858D01*
X204616352Y-80475667D01*
X204277686Y-79653191D02*
X204955019Y-79411286D01*
X204277686Y-79169382D01*
X204955019Y-78782334D02*
X204277686Y-78782334D01*
X203939019Y-78782334D02*
X203987400Y-78830715D01*
X204035781Y-78782334D01*
X203987400Y-78733953D01*
X203939019Y-78782334D01*
X204035781Y-78782334D01*
X204906638Y-77863096D02*
X204955019Y-77959858D01*
X204955019Y-78153381D01*
X204906638Y-78250143D01*
X204858257Y-78298524D01*
X204761495Y-78346905D01*
X204471210Y-78346905D01*
X204374448Y-78298524D01*
X204326067Y-78250143D01*
X204277686Y-78153381D01*
X204277686Y-77959858D01*
X204326067Y-77863096D01*
X204906638Y-77040620D02*
X204955019Y-77137382D01*
X204955019Y-77330905D01*
X204906638Y-77427667D01*
X204809876Y-77476048D01*
X204422829Y-77476048D01*
X204326067Y-77427667D01*
X204277686Y-77330905D01*
X204277686Y-77137382D01*
X204326067Y-77040620D01*
X204422829Y-76992239D01*
X204519590Y-76992239D01*
X204616352Y-77476048D01*
X205954086Y-94530331D02*
X206970086Y-94530331D01*
X206002467Y-94530331D02*
X205954086Y-94433569D01*
X205954086Y-94240046D01*
X206002467Y-94143284D01*
X206050848Y-94094903D01*
X206147610Y-94046522D01*
X206437895Y-94046522D01*
X206534657Y-94094903D01*
X206583038Y-94143284D01*
X206631419Y-94240046D01*
X206631419Y-94433569D01*
X206583038Y-94530331D01*
X206631419Y-93465950D02*
X206583038Y-93562712D01*
X206534657Y-93611093D01*
X206437895Y-93659474D01*
X206147610Y-93659474D01*
X206050848Y-93611093D01*
X206002467Y-93562712D01*
X205954086Y-93465950D01*
X205954086Y-93320808D01*
X206002467Y-93224046D01*
X206050848Y-93175665D01*
X206147610Y-93127284D01*
X206437895Y-93127284D01*
X206534657Y-93175665D01*
X206583038Y-93224046D01*
X206631419Y-93320808D01*
X206631419Y-93465950D01*
X205954086Y-92788617D02*
X206631419Y-92595093D01*
X206147610Y-92401570D01*
X206631419Y-92208046D01*
X205954086Y-92014522D01*
X206583038Y-91240427D02*
X206631419Y-91337189D01*
X206631419Y-91530712D01*
X206583038Y-91627474D01*
X206486276Y-91675855D01*
X206099229Y-91675855D01*
X206002467Y-91627474D01*
X205954086Y-91530712D01*
X205954086Y-91337189D01*
X206002467Y-91240427D01*
X206099229Y-91192046D01*
X206195990Y-91192046D01*
X206292752Y-91675855D01*
X206631419Y-90756617D02*
X205954086Y-90756617D01*
X206147610Y-90756617D02*
X206050848Y-90708236D01*
X206002467Y-90659855D01*
X205954086Y-90563093D01*
X205954086Y-90466332D01*
X206728181Y-90369570D02*
X206728181Y-89595475D01*
X206583038Y-89401951D02*
X206631419Y-89305189D01*
X206631419Y-89111665D01*
X206583038Y-89014904D01*
X206486276Y-88966523D01*
X206437895Y-88966523D01*
X206341133Y-89014904D01*
X206292752Y-89111665D01*
X206292752Y-89256808D01*
X206244371Y-89353570D01*
X206147610Y-89401951D01*
X206099229Y-89401951D01*
X206002467Y-89353570D01*
X205954086Y-89256808D01*
X205954086Y-89111665D01*
X206002467Y-89014904D01*
X205954086Y-88627856D02*
X206631419Y-88434332D01*
X206147610Y-88240809D01*
X206631419Y-88047285D01*
X205954086Y-87853761D01*
X206631419Y-87466713D02*
X205954086Y-87466713D01*
X205615419Y-87466713D02*
X205663800Y-87515094D01*
X205712181Y-87466713D01*
X205663800Y-87418332D01*
X205615419Y-87466713D01*
X205712181Y-87466713D01*
X205954086Y-87128046D02*
X205954086Y-86740998D01*
X205615419Y-86982903D02*
X206486276Y-86982903D01*
X206583038Y-86934522D01*
X206631419Y-86837760D01*
X206631419Y-86740998D01*
X206583038Y-85966904D02*
X206631419Y-86063666D01*
X206631419Y-86257189D01*
X206583038Y-86353951D01*
X206534657Y-86402332D01*
X206437895Y-86450713D01*
X206147610Y-86450713D01*
X206050848Y-86402332D01*
X206002467Y-86353951D01*
X205954086Y-86257189D01*
X205954086Y-86063666D01*
X206002467Y-85966904D01*
X206631419Y-85531475D02*
X205615419Y-85531475D01*
X206631419Y-85096047D02*
X206099229Y-85096047D01*
X206002467Y-85144428D01*
X205954086Y-85241190D01*
X205954086Y-85386332D01*
X206002467Y-85483094D01*
X206050848Y-85531475D01*
X206728181Y-84854142D02*
X206728181Y-84080047D01*
X206583038Y-83402714D02*
X206631419Y-83499476D01*
X206631419Y-83692999D01*
X206583038Y-83789761D01*
X206534657Y-83838142D01*
X206437895Y-83886523D01*
X206147610Y-83886523D01*
X206050848Y-83838142D01*
X206002467Y-83789761D01*
X205954086Y-83692999D01*
X205954086Y-83499476D01*
X206002467Y-83402714D01*
X206631419Y-82822142D02*
X206583038Y-82918904D01*
X206534657Y-82967285D01*
X206437895Y-83015666D01*
X206147610Y-83015666D01*
X206050848Y-82967285D01*
X206002467Y-82918904D01*
X205954086Y-82822142D01*
X205954086Y-82677000D01*
X206002467Y-82580238D01*
X206050848Y-82531857D01*
X206147610Y-82483476D01*
X206437895Y-82483476D01*
X206534657Y-82531857D01*
X206583038Y-82580238D01*
X206631419Y-82677000D01*
X206631419Y-82822142D01*
X205954086Y-82048047D02*
X206631419Y-82048047D01*
X206050848Y-82048047D02*
X206002467Y-81999666D01*
X205954086Y-81902904D01*
X205954086Y-81757762D01*
X206002467Y-81661000D01*
X206099229Y-81612619D01*
X206631419Y-81612619D01*
X205954086Y-81273952D02*
X205954086Y-80886904D01*
X205615419Y-81128809D02*
X206486276Y-81128809D01*
X206583038Y-81080428D01*
X206631419Y-80983666D01*
X206631419Y-80886904D01*
X206631419Y-80548238D02*
X205954086Y-80548238D01*
X206147610Y-80548238D02*
X206050848Y-80499857D01*
X206002467Y-80451476D01*
X205954086Y-80354714D01*
X205954086Y-80257953D01*
X206631419Y-79774143D02*
X206583038Y-79870905D01*
X206534657Y-79919286D01*
X206437895Y-79967667D01*
X206147610Y-79967667D01*
X206050848Y-79919286D01*
X206002467Y-79870905D01*
X205954086Y-79774143D01*
X205954086Y-79629001D01*
X206002467Y-79532239D01*
X206050848Y-79483858D01*
X206147610Y-79435477D01*
X206437895Y-79435477D01*
X206534657Y-79483858D01*
X206583038Y-79532239D01*
X206631419Y-79629001D01*
X206631419Y-79774143D01*
X206631419Y-78854905D02*
X206583038Y-78951667D01*
X206486276Y-79000048D01*
X205615419Y-79000048D01*
X206631419Y-78322715D02*
X206583038Y-78419477D01*
X206486276Y-78467858D01*
X205615419Y-78467858D01*
X206583038Y-77548621D02*
X206631419Y-77645383D01*
X206631419Y-77838906D01*
X206583038Y-77935668D01*
X206486276Y-77984049D01*
X206099229Y-77984049D01*
X206002467Y-77935668D01*
X205954086Y-77838906D01*
X205954086Y-77645383D01*
X206002467Y-77548621D01*
X206099229Y-77500240D01*
X206195990Y-77500240D01*
X206292752Y-77984049D01*
X206631419Y-77064811D02*
X205954086Y-77064811D01*
X206147610Y-77064811D02*
X206050848Y-77016430D01*
X206002467Y-76968049D01*
X205954086Y-76871287D01*
X205954086Y-76774526D01*
X208307819Y-93538523D02*
X207630486Y-93538523D01*
X207727248Y-93538523D02*
X207678867Y-93490142D01*
X207630486Y-93393380D01*
X207630486Y-93248238D01*
X207678867Y-93151476D01*
X207775629Y-93103095D01*
X208307819Y-93103095D01*
X207775629Y-93103095D02*
X207678867Y-93054714D01*
X207630486Y-92957952D01*
X207630486Y-92812809D01*
X207678867Y-92716047D01*
X207775629Y-92667666D01*
X208307819Y-92667666D01*
X208307819Y-92038713D02*
X208259438Y-92135475D01*
X208211057Y-92183856D01*
X208114295Y-92232237D01*
X207824010Y-92232237D01*
X207727248Y-92183856D01*
X207678867Y-92135475D01*
X207630486Y-92038713D01*
X207630486Y-91893571D01*
X207678867Y-91796809D01*
X207727248Y-91748428D01*
X207824010Y-91700047D01*
X208114295Y-91700047D01*
X208211057Y-91748428D01*
X208259438Y-91796809D01*
X208307819Y-91893571D01*
X208307819Y-92038713D01*
X208307819Y-90829190D02*
X207291819Y-90829190D01*
X208259438Y-90829190D02*
X208307819Y-90925952D01*
X208307819Y-91119475D01*
X208259438Y-91216237D01*
X208211057Y-91264618D01*
X208114295Y-91312999D01*
X207824010Y-91312999D01*
X207727248Y-91264618D01*
X207678867Y-91216237D01*
X207630486Y-91119475D01*
X207630486Y-90925952D01*
X207678867Y-90829190D01*
X208259438Y-89958333D02*
X208307819Y-90055095D01*
X208307819Y-90248618D01*
X208259438Y-90345380D01*
X208162676Y-90393761D01*
X207775629Y-90393761D01*
X207678867Y-90345380D01*
X207630486Y-90248618D01*
X207630486Y-90055095D01*
X207678867Y-89958333D01*
X207775629Y-89909952D01*
X207872390Y-89909952D01*
X207969152Y-90393761D01*
X208307819Y-89329380D02*
X208259438Y-89426142D01*
X208162676Y-89474523D01*
X207291819Y-89474523D01*
X208404581Y-89184238D02*
X208404581Y-88410143D01*
X207630486Y-88168238D02*
X208307819Y-88168238D01*
X207727248Y-88168238D02*
X207678867Y-88119857D01*
X207630486Y-88023095D01*
X207630486Y-87877953D01*
X207678867Y-87781191D01*
X207775629Y-87732810D01*
X208307819Y-87732810D01*
X207630486Y-86813572D02*
X208307819Y-86813572D01*
X207630486Y-87249000D02*
X208162676Y-87249000D01*
X208259438Y-87200619D01*
X208307819Y-87103857D01*
X208307819Y-86958715D01*
X208259438Y-86861953D01*
X208211057Y-86813572D01*
X208307819Y-86329762D02*
X207630486Y-86329762D01*
X207727248Y-86329762D02*
X207678867Y-86281381D01*
X207630486Y-86184619D01*
X207630486Y-86039477D01*
X207678867Y-85942715D01*
X207775629Y-85894334D01*
X208307819Y-85894334D01*
X207775629Y-85894334D02*
X207678867Y-85845953D01*
X207630486Y-85749191D01*
X207630486Y-85604048D01*
X207678867Y-85507286D01*
X207775629Y-85458905D01*
X208307819Y-85458905D01*
X208307819Y-84975095D02*
X207291819Y-84975095D01*
X207678867Y-84975095D02*
X207630486Y-84878333D01*
X207630486Y-84684810D01*
X207678867Y-84588048D01*
X207727248Y-84539667D01*
X207824010Y-84491286D01*
X208114295Y-84491286D01*
X208211057Y-84539667D01*
X208259438Y-84588048D01*
X208307819Y-84684810D01*
X208307819Y-84878333D01*
X208259438Y-84975095D01*
X208259438Y-83668810D02*
X208307819Y-83765572D01*
X208307819Y-83959095D01*
X208259438Y-84055857D01*
X208162676Y-84104238D01*
X207775629Y-84104238D01*
X207678867Y-84055857D01*
X207630486Y-83959095D01*
X207630486Y-83765572D01*
X207678867Y-83668810D01*
X207775629Y-83620429D01*
X207872390Y-83620429D01*
X207969152Y-84104238D01*
X208307819Y-83185000D02*
X207630486Y-83185000D01*
X207824010Y-83185000D02*
X207727248Y-83136619D01*
X207678867Y-83088238D01*
X207630486Y-82991476D01*
X207630486Y-82894715D01*
X208211057Y-82556048D02*
X208259438Y-82507667D01*
X208307819Y-82556048D01*
X208259438Y-82604429D01*
X208211057Y-82556048D01*
X208307819Y-82556048D01*
X207678867Y-82556048D02*
X207727248Y-82507667D01*
X207775629Y-82556048D01*
X207727248Y-82604429D01*
X207678867Y-82556048D01*
X207775629Y-82556048D01*
X208307819Y-80765953D02*
X208307819Y-81346524D01*
X208307819Y-81056238D02*
X207291819Y-81056238D01*
X207436962Y-81153000D01*
X207533724Y-81249762D01*
X207582105Y-81346524D01*
X208307819Y-79798334D02*
X208307819Y-80378905D01*
X208307819Y-80088619D02*
X207291819Y-80088619D01*
X207436962Y-80185381D01*
X207533724Y-80282143D01*
X207582105Y-80378905D01*
X208307819Y-78830715D02*
X208307819Y-79411286D01*
X208307819Y-79121000D02*
X207291819Y-79121000D01*
X207436962Y-79217762D01*
X207533724Y-79314524D01*
X207582105Y-79411286D01*
X207291819Y-78201762D02*
X207291819Y-78105001D01*
X207340200Y-78008239D01*
X207388581Y-77959858D01*
X207485343Y-77911477D01*
X207678867Y-77863096D01*
X207920771Y-77863096D01*
X208114295Y-77911477D01*
X208211057Y-77959858D01*
X208259438Y-78008239D01*
X208307819Y-78105001D01*
X208307819Y-78201762D01*
X208259438Y-78298524D01*
X208211057Y-78346905D01*
X208114295Y-78395286D01*
X207920771Y-78443667D01*
X207678867Y-78443667D01*
X207485343Y-78395286D01*
X207388581Y-78346905D01*
X207340200Y-78298524D01*
X207291819Y-78201762D01*
X208968219Y-93417570D02*
X208968219Y-93320809D01*
X209016600Y-93224047D01*
X209064981Y-93175666D01*
X209161743Y-93127285D01*
X209355267Y-93078904D01*
X209597171Y-93078904D01*
X209790695Y-93127285D01*
X209887457Y-93175666D01*
X209935838Y-93224047D01*
X209984219Y-93320809D01*
X209984219Y-93417570D01*
X209935838Y-93514332D01*
X209887457Y-93562713D01*
X209790695Y-93611094D01*
X209597171Y-93659475D01*
X209355267Y-93659475D01*
X209161743Y-93611094D01*
X209064981Y-93562713D01*
X209016600Y-93514332D01*
X208968219Y-93417570D01*
X209064981Y-92691856D02*
X209016600Y-92643475D01*
X208968219Y-92546713D01*
X208968219Y-92304809D01*
X209016600Y-92208047D01*
X209064981Y-92159666D01*
X209161743Y-92111285D01*
X209258505Y-92111285D01*
X209403648Y-92159666D01*
X209984219Y-92740237D01*
X209984219Y-92111285D01*
X208919838Y-90950142D02*
X210226124Y-91820999D01*
X209064981Y-90659856D02*
X209016600Y-90611475D01*
X208968219Y-90514713D01*
X208968219Y-90272809D01*
X209016600Y-90176047D01*
X209064981Y-90127666D01*
X209161743Y-90079285D01*
X209258505Y-90079285D01*
X209403648Y-90127666D01*
X209984219Y-90708237D01*
X209984219Y-90079285D01*
X208968219Y-89450332D02*
X208968219Y-89353571D01*
X209016600Y-89256809D01*
X209064981Y-89208428D01*
X209161743Y-89160047D01*
X209355267Y-89111666D01*
X209597171Y-89111666D01*
X209790695Y-89160047D01*
X209887457Y-89208428D01*
X209935838Y-89256809D01*
X209984219Y-89353571D01*
X209984219Y-89450332D01*
X209935838Y-89547094D01*
X209887457Y-89595475D01*
X209790695Y-89643856D01*
X209597171Y-89692237D01*
X209355267Y-89692237D01*
X209161743Y-89643856D01*
X209064981Y-89595475D01*
X209016600Y-89547094D01*
X208968219Y-89450332D01*
X209984219Y-88144047D02*
X209984219Y-88724618D01*
X209984219Y-88434332D02*
X208968219Y-88434332D01*
X209113362Y-88531094D01*
X209210124Y-88627856D01*
X209258505Y-88724618D01*
X208968219Y-87224809D02*
X208968219Y-87708618D01*
X209452029Y-87756999D01*
X209403648Y-87708618D01*
X209355267Y-87611856D01*
X209355267Y-87369952D01*
X209403648Y-87273190D01*
X209452029Y-87224809D01*
X209548790Y-87176428D01*
X209790695Y-87176428D01*
X209887457Y-87224809D01*
X209935838Y-87273190D01*
X209984219Y-87369952D01*
X209984219Y-87611856D01*
X209935838Y-87708618D01*
X209887457Y-87756999D01*
X209306886Y-86063666D02*
X209984219Y-85821761D01*
X209306886Y-85579857D01*
X209935838Y-84805762D02*
X209984219Y-84902524D01*
X209984219Y-85096047D01*
X209935838Y-85192809D01*
X209839076Y-85241190D01*
X209452029Y-85241190D01*
X209355267Y-85192809D01*
X209306886Y-85096047D01*
X209306886Y-84902524D01*
X209355267Y-84805762D01*
X209452029Y-84757381D01*
X209548790Y-84757381D01*
X209645552Y-85241190D01*
X209984219Y-84321952D02*
X209306886Y-84321952D01*
X209500410Y-84321952D02*
X209403648Y-84273571D01*
X209355267Y-84225190D01*
X209306886Y-84128428D01*
X209306886Y-84031667D01*
X209935838Y-83741381D02*
X209984219Y-83644619D01*
X209984219Y-83451095D01*
X209935838Y-83354334D01*
X209839076Y-83305953D01*
X209790695Y-83305953D01*
X209693933Y-83354334D01*
X209645552Y-83451095D01*
X209645552Y-83596238D01*
X209597171Y-83693000D01*
X209500410Y-83741381D01*
X209452029Y-83741381D01*
X209355267Y-83693000D01*
X209306886Y-83596238D01*
X209306886Y-83451095D01*
X209355267Y-83354334D01*
X209984219Y-82870524D02*
X209306886Y-82870524D01*
X208968219Y-82870524D02*
X209016600Y-82918905D01*
X209064981Y-82870524D01*
X209016600Y-82822143D01*
X208968219Y-82870524D01*
X209064981Y-82870524D01*
X209984219Y-82241571D02*
X209935838Y-82338333D01*
X209887457Y-82386714D01*
X209790695Y-82435095D01*
X209500410Y-82435095D01*
X209403648Y-82386714D01*
X209355267Y-82338333D01*
X209306886Y-82241571D01*
X209306886Y-82096429D01*
X209355267Y-81999667D01*
X209403648Y-81951286D01*
X209500410Y-81902905D01*
X209790695Y-81902905D01*
X209887457Y-81951286D01*
X209935838Y-81999667D01*
X209984219Y-82096429D01*
X209984219Y-82241571D01*
X209306886Y-81467476D02*
X209984219Y-81467476D01*
X209403648Y-81467476D02*
X209355267Y-81419095D01*
X209306886Y-81322333D01*
X209306886Y-81177191D01*
X209355267Y-81080429D01*
X209452029Y-81032048D01*
X209984219Y-81032048D01*
X209984219Y-79241953D02*
X209984219Y-79822524D01*
X209984219Y-79532238D02*
X208968219Y-79532238D01*
X209113362Y-79629000D01*
X209210124Y-79725762D01*
X209258505Y-79822524D01*
X209887457Y-78806524D02*
X209935838Y-78758143D01*
X209984219Y-78806524D01*
X209935838Y-78854905D01*
X209887457Y-78806524D01*
X209984219Y-78806524D01*
X209064981Y-78371095D02*
X209016600Y-78322714D01*
X208968219Y-78225952D01*
X208968219Y-77984048D01*
X209016600Y-77887286D01*
X209064981Y-77838905D01*
X209161743Y-77790524D01*
X209258505Y-77790524D01*
X209403648Y-77838905D01*
X209984219Y-78419476D01*
X209984219Y-77790524D01*
D11*
X200787000Y-88265000D02*
X199771000Y-89027000D01*
X202057000Y-88265000D02*
X200787000Y-88265000D01*
X197993000Y-88265000D02*
X199263000Y-88265000D01*
X202057000Y-90805000D02*
X202057000Y-85725000D01*
X197993000Y-90805000D02*
X197993000Y-85725000D01*
X196723000Y-91821000D02*
X203327000Y-91821000D01*
X203327000Y-91821000D02*
X203327000Y-84709000D01*
X203327000Y-84709000D02*
X196723000Y-84709000D01*
X196723000Y-84709000D02*
X196723000Y-91821000D01*
X182245000Y-85090000D02*
X182245000Y-91440000D01*
X186055000Y-85090000D02*
X186055000Y-91440000D01*
X187960000Y-85090000D02*
X187960000Y-91440000D01*
X187325000Y-88900000D02*
X186055000Y-89535000D01*
X186055000Y-89535000D02*
X187325000Y-90170000D01*
X187325000Y-90170000D02*
X187325000Y-88900000D01*
X187960000Y-91440000D02*
X186055000Y-91440000D01*
X187960000Y-85090000D02*
X186055000Y-85090000D01*
X186055000Y-85090000D02*
X182245000Y-85090000D01*
X182245000Y-91440000D02*
X186055000Y-91440000D01*
X108585000Y-120015000D02*
X99695000Y-120015000D01*
X108585000Y-123825000D02*
X99695000Y-123825000D01*
X102235000Y-125095000D02*
X101600000Y-123825000D01*
X101600000Y-123825000D02*
X100965000Y-125095000D01*
X100965000Y-125095000D02*
X102235000Y-125095000D01*
X108585000Y-123825000D02*
X108585000Y-120015000D01*
X99695000Y-120015000D02*
X99695000Y-123825000D01*
D13*
X121158000Y-121793000D02*
X120142000Y-121793000D01*
X120650000Y-121285000D02*
X120650000Y-122301000D01*
X121920000Y-125095000D02*
X119380000Y-125095000D01*
X119380000Y-125095000D02*
X119380000Y-117475000D01*
X119380000Y-117475000D02*
X121920000Y-117475000D01*
X121920000Y-117475000D02*
X121920000Y-125095000D01*
X123698000Y-121793000D02*
X122682000Y-121793000D01*
X123190000Y-121285000D02*
X123190000Y-122301000D01*
X124460000Y-125095000D02*
X121920000Y-125095000D01*
X121920000Y-125095000D02*
X121920000Y-117475000D01*
X121920000Y-117475000D02*
X124460000Y-117475000D01*
X124460000Y-117475000D02*
X124460000Y-125095000D01*
X126238000Y-121793000D02*
X125222000Y-121793000D01*
X125730000Y-121285000D02*
X125730000Y-122301000D01*
X127000000Y-125095000D02*
X124460000Y-125095000D01*
X124460000Y-125095000D02*
X124460000Y-117475000D01*
X124460000Y-117475000D02*
X127000000Y-117475000D01*
X127000000Y-117475000D02*
X127000000Y-125095000D01*
X128778000Y-121793000D02*
X127762000Y-121793000D01*
X128270000Y-121285000D02*
X128270000Y-122301000D01*
X129540000Y-125095000D02*
X127000000Y-125095000D01*
X127000000Y-125095000D02*
X127000000Y-117475000D01*
X127000000Y-117475000D02*
X129540000Y-117475000D01*
X129540000Y-117475000D02*
X129540000Y-125095000D01*
X131318000Y-121793000D02*
X130302000Y-121793000D01*
X130810000Y-121285000D02*
X130810000Y-122301000D01*
X132080000Y-125095000D02*
X129540000Y-125095000D01*
X129540000Y-125095000D02*
X129540000Y-117475000D01*
X129540000Y-117475000D02*
X132080000Y-117475000D01*
X132080000Y-117475000D02*
X132080000Y-125095000D01*
X133858000Y-121793000D02*
X132842000Y-121793000D01*
X133350000Y-121285000D02*
X133350000Y-122301000D01*
X134620000Y-125095000D02*
X132080000Y-125095000D01*
X132080000Y-125095000D02*
X132080000Y-117475000D01*
X132080000Y-117475000D02*
X134620000Y-117475000D01*
X134620000Y-117475000D02*
X134620000Y-125095000D01*
X136398000Y-121793000D02*
X135382000Y-121793000D01*
X135890000Y-121285000D02*
X135890000Y-122301000D01*
X137160000Y-125095000D02*
X134620000Y-125095000D01*
X134620000Y-125095000D02*
X134620000Y-117475000D01*
X134620000Y-117475000D02*
X137160000Y-117475000D01*
X137160000Y-117475000D02*
X137160000Y-125095000D01*
X138938000Y-121793000D02*
X137922000Y-121793000D01*
X138430000Y-121285000D02*
X138430000Y-122301000D01*
X139700000Y-125095000D02*
X137160000Y-125095000D01*
X137160000Y-125095000D02*
X137160000Y-117475000D01*
X137160000Y-117475000D02*
X139700000Y-117475000D01*
X139700000Y-117475000D02*
X139700000Y-125095000D01*
X151638000Y-121793000D02*
X150622000Y-121793000D01*
X151130000Y-121285000D02*
X151130000Y-122301000D01*
X152400000Y-125095000D02*
X149860000Y-125095000D01*
X149860000Y-125095000D02*
X149860000Y-117475000D01*
X149860000Y-117475000D02*
X152400000Y-117475000D01*
X152400000Y-117475000D02*
X152400000Y-125095000D01*
X154178000Y-121793000D02*
X153162000Y-121793000D01*
X153670000Y-121285000D02*
X153670000Y-122301000D01*
X154940000Y-125095000D02*
X152400000Y-125095000D01*
X152400000Y-125095000D02*
X152400000Y-117475000D01*
X152400000Y-117475000D02*
X154940000Y-117475000D01*
X154940000Y-117475000D02*
X154940000Y-125095000D01*
X156718000Y-121793000D02*
X155702000Y-121793000D01*
X156210000Y-121285000D02*
X156210000Y-122301000D01*
X157480000Y-125095000D02*
X154940000Y-125095000D01*
X154940000Y-125095000D02*
X154940000Y-117475000D01*
X154940000Y-117475000D02*
X157480000Y-117475000D01*
X157480000Y-117475000D02*
X157480000Y-125095000D01*
X159258000Y-121793000D02*
X158242000Y-121793000D01*
X158750000Y-121285000D02*
X158750000Y-122301000D01*
X160020000Y-125095000D02*
X157480000Y-125095000D01*
X157480000Y-125095000D02*
X157480000Y-117475000D01*
X157480000Y-117475000D02*
X160020000Y-117475000D01*
X160020000Y-117475000D02*
X160020000Y-125095000D01*
X161798000Y-121793000D02*
X160782000Y-121793000D01*
X161290000Y-121285000D02*
X161290000Y-122301000D01*
X162560000Y-125095000D02*
X160020000Y-125095000D01*
X160020000Y-125095000D02*
X160020000Y-117475000D01*
X160020000Y-117475000D02*
X162560000Y-117475000D01*
X162560000Y-117475000D02*
X162560000Y-125095000D01*
X164338000Y-121793000D02*
X163322000Y-121793000D01*
X163830000Y-121285000D02*
X163830000Y-122301000D01*
X165100000Y-125095000D02*
X162560000Y-125095000D01*
X162560000Y-125095000D02*
X162560000Y-117475000D01*
X162560000Y-117475000D02*
X165100000Y-117475000D01*
X165100000Y-117475000D02*
X165100000Y-125095000D01*
X166878000Y-121793000D02*
X165862000Y-121793000D01*
X166370000Y-121285000D02*
X166370000Y-122301000D01*
X167640000Y-125095000D02*
X165100000Y-125095000D01*
X165100000Y-125095000D02*
X165100000Y-117475000D01*
X165100000Y-117475000D02*
X167640000Y-117475000D01*
X167640000Y-117475000D02*
X167640000Y-125095000D01*
X169418000Y-121793000D02*
X168402000Y-121793000D01*
X168910000Y-121285000D02*
X168910000Y-122301000D01*
X170180000Y-125095000D02*
X167640000Y-125095000D01*
X167640000Y-125095000D02*
X167640000Y-117475000D01*
X167640000Y-117475000D02*
X170180000Y-117475000D01*
X170180000Y-117475000D02*
X170180000Y-125095000D01*
D11*
X185420000Y-109220000D02*
X185420000Y-96520000D01*
X185420000Y-96520000D02*
X177800000Y-96520000D01*
X177800000Y-96520000D02*
X177800000Y-109220000D01*
X177800000Y-109220000D02*
X185420000Y-109220000D01*
D13*
X121158000Y-98933000D02*
X120142000Y-98933000D01*
X120650000Y-98425000D02*
X120650000Y-99441000D01*
X121920000Y-102235000D02*
X119380000Y-102235000D01*
X119380000Y-102235000D02*
X119380000Y-94615000D01*
X119380000Y-94615000D02*
X121920000Y-94615000D01*
X121920000Y-94615000D02*
X121920000Y-102235000D01*
X123698000Y-98933000D02*
X122682000Y-98933000D01*
X123190000Y-98425000D02*
X123190000Y-99441000D01*
X124460000Y-102235000D02*
X121920000Y-102235000D01*
X121920000Y-102235000D02*
X121920000Y-94615000D01*
X121920000Y-94615000D02*
X124460000Y-94615000D01*
X124460000Y-94615000D02*
X124460000Y-102235000D01*
X126238000Y-98933000D02*
X125222000Y-98933000D01*
X125730000Y-98425000D02*
X125730000Y-99441000D01*
X127000000Y-102235000D02*
X124460000Y-102235000D01*
X124460000Y-102235000D02*
X124460000Y-94615000D01*
X124460000Y-94615000D02*
X127000000Y-94615000D01*
X127000000Y-94615000D02*
X127000000Y-102235000D01*
X128778000Y-98933000D02*
X127762000Y-98933000D01*
X128270000Y-98425000D02*
X128270000Y-99441000D01*
X129540000Y-102235000D02*
X127000000Y-102235000D01*
X127000000Y-102235000D02*
X127000000Y-94615000D01*
X127000000Y-94615000D02*
X129540000Y-94615000D01*
X129540000Y-94615000D02*
X129540000Y-102235000D01*
X131318000Y-98933000D02*
X130302000Y-98933000D01*
X130810000Y-98425000D02*
X130810000Y-99441000D01*
X132080000Y-102235000D02*
X129540000Y-102235000D01*
X129540000Y-102235000D02*
X129540000Y-94615000D01*
X129540000Y-94615000D02*
X132080000Y-94615000D01*
X132080000Y-94615000D02*
X132080000Y-102235000D01*
X133858000Y-98933000D02*
X132842000Y-98933000D01*
X133350000Y-98425000D02*
X133350000Y-99441000D01*
X134620000Y-102235000D02*
X132080000Y-102235000D01*
X132080000Y-102235000D02*
X132080000Y-94615000D01*
X132080000Y-94615000D02*
X134620000Y-94615000D01*
X134620000Y-94615000D02*
X134620000Y-102235000D01*
X136398000Y-98933000D02*
X135382000Y-98933000D01*
X135890000Y-98425000D02*
X135890000Y-99441000D01*
X137160000Y-102235000D02*
X134620000Y-102235000D01*
X134620000Y-102235000D02*
X134620000Y-94615000D01*
X134620000Y-94615000D02*
X137160000Y-94615000D01*
X137160000Y-94615000D02*
X137160000Y-102235000D01*
X138938000Y-98933000D02*
X137922000Y-98933000D01*
X138430000Y-98425000D02*
X138430000Y-99441000D01*
X139700000Y-102235000D02*
X137160000Y-102235000D01*
X137160000Y-102235000D02*
X137160000Y-94615000D01*
X137160000Y-94615000D02*
X139700000Y-94615000D01*
X139700000Y-94615000D02*
X139700000Y-102235000D01*
X151638000Y-98933000D02*
X150622000Y-98933000D01*
X151130000Y-98425000D02*
X151130000Y-99441000D01*
X152400000Y-102235000D02*
X149860000Y-102235000D01*
X149860000Y-102235000D02*
X149860000Y-94615000D01*
X149860000Y-94615000D02*
X152400000Y-94615000D01*
X152400000Y-94615000D02*
X152400000Y-102235000D01*
X154178000Y-98933000D02*
X153162000Y-98933000D01*
X153670000Y-98425000D02*
X153670000Y-99441000D01*
X154940000Y-102235000D02*
X152400000Y-102235000D01*
X152400000Y-102235000D02*
X152400000Y-94615000D01*
X152400000Y-94615000D02*
X154940000Y-94615000D01*
X154940000Y-94615000D02*
X154940000Y-102235000D01*
X156718000Y-98933000D02*
X155702000Y-98933000D01*
X156210000Y-98425000D02*
X156210000Y-99441000D01*
X157480000Y-102235000D02*
X154940000Y-102235000D01*
X154940000Y-102235000D02*
X154940000Y-94615000D01*
X154940000Y-94615000D02*
X157480000Y-94615000D01*
X157480000Y-94615000D02*
X157480000Y-102235000D01*
X159258000Y-98933000D02*
X158242000Y-98933000D01*
X158750000Y-98425000D02*
X158750000Y-99441000D01*
X160020000Y-102235000D02*
X157480000Y-102235000D01*
X157480000Y-102235000D02*
X157480000Y-94615000D01*
X157480000Y-94615000D02*
X160020000Y-94615000D01*
X160020000Y-94615000D02*
X160020000Y-102235000D01*
X161798000Y-98933000D02*
X160782000Y-98933000D01*
X161290000Y-98425000D02*
X161290000Y-99441000D01*
X162560000Y-102235000D02*
X160020000Y-102235000D01*
X160020000Y-102235000D02*
X160020000Y-94615000D01*
X160020000Y-94615000D02*
X162560000Y-94615000D01*
X162560000Y-94615000D02*
X162560000Y-102235000D01*
X164338000Y-98933000D02*
X163322000Y-98933000D01*
X163830000Y-98425000D02*
X163830000Y-99441000D01*
X165100000Y-102235000D02*
X162560000Y-102235000D01*
X162560000Y-102235000D02*
X162560000Y-94615000D01*
X162560000Y-94615000D02*
X165100000Y-94615000D01*
X165100000Y-94615000D02*
X165100000Y-102235000D01*
X166878000Y-98933000D02*
X165862000Y-98933000D01*
X166370000Y-98425000D02*
X166370000Y-99441000D01*
X167640000Y-102235000D02*
X165100000Y-102235000D01*
X165100000Y-102235000D02*
X165100000Y-94615000D01*
X165100000Y-94615000D02*
X167640000Y-94615000D01*
X167640000Y-94615000D02*
X167640000Y-102235000D01*
X169418000Y-98933000D02*
X168402000Y-98933000D01*
X168910000Y-98425000D02*
X168910000Y-99441000D01*
X170180000Y-102235000D02*
X167640000Y-102235000D01*
X167640000Y-102235000D02*
X167640000Y-94615000D01*
X167640000Y-94615000D02*
X170180000Y-94615000D01*
X170180000Y-94615000D02*
X170180000Y-102235000D01*
X187833000Y-103378000D02*
X186817000Y-103378000D01*
X187325000Y-102870000D02*
X187325000Y-103886000D01*
X188595000Y-106680000D02*
X186055000Y-106680000D01*
X186055000Y-106680000D02*
X186055000Y-99060000D01*
X186055000Y-99060000D02*
X188595000Y-99060000D01*
X188595000Y-99060000D02*
X188595000Y-106680000D01*
D11*
X105410000Y-100330000D02*
X104648000Y-99568000D01*
X106680000Y-104140000D02*
X105156000Y-105156000D01*
X93345000Y-109220000D02*
X92710000Y-109220000D01*
X92710000Y-109220000D02*
X92710000Y-96520000D01*
X92710000Y-96520000D02*
X93345000Y-96520000D01*
X93345000Y-110490000D02*
X109220000Y-110490000D01*
X109220000Y-110490000D02*
X109220000Y-95250000D01*
X109220000Y-95250000D02*
X93345000Y-95250000D01*
X93345000Y-95250000D02*
X93345000Y-110490000D01*
X107315000Y-98552000D02*
X103505000Y-102362000D01*
X106680000Y-102870000D02*
X106680000Y-105410000D01*
X198120000Y-121285000D02*
X206375000Y-121285000D01*
X206375000Y-121285000D02*
X206375000Y-109855000D01*
X206375000Y-109855000D02*
X198120000Y-109855000D01*
X198120000Y-109855000D02*
X198120000Y-121285000D01*
X198120000Y-97790000D02*
X198120000Y-107950000D01*
X198120000Y-107950000D02*
X211455000Y-107950000D01*
X198120000Y-97790000D02*
X211455000Y-97790000D01*
X211455000Y-97790000D02*
X211455000Y-107950000D01*
D13*
X176530000Y-118745000D02*
X177165000Y-118745000D01*
X177165000Y-118745000D02*
X177165000Y-121285000D01*
X177165000Y-121285000D02*
X176530000Y-121285000D01*
X176530000Y-117475000D02*
X177165000Y-117475000D01*
X186055000Y-122555000D02*
X186690000Y-122555000D01*
X186690000Y-117475000D02*
X184785000Y-117475000D01*
X176530000Y-122555000D02*
X178435000Y-122555000D01*
X186690000Y-117475000D02*
X186690000Y-122555000D01*
X176530000Y-117475000D02*
X176530000Y-122555000D01*
D11*
X143510000Y-107188000D02*
X115570000Y-107188000D01*
X115570000Y-107188000D02*
X115570000Y-116332000D01*
X115570000Y-116332000D02*
X143510000Y-116332000D01*
X143510000Y-107188000D02*
X143510000Y-116332000D01*
X138430000Y-107188000D02*
X139700000Y-105918000D01*
X139700000Y-105918000D02*
X137160000Y-105918000D01*
X137160000Y-105918000D02*
X138430000Y-107188000D01*
X173990000Y-107188000D02*
X146050000Y-107188000D01*
X146050000Y-107188000D02*
X146050000Y-116332000D01*
X146050000Y-116332000D02*
X173990000Y-116332000D01*
X173990000Y-107188000D02*
X173990000Y-116332000D01*
X168910000Y-107188000D02*
X170180000Y-105918000D01*
X170180000Y-105918000D02*
X167640000Y-105918000D01*
X167640000Y-105918000D02*
X168910000Y-107188000D01*
X143510000Y-84328000D02*
X115570000Y-84328000D01*
X115570000Y-84328000D02*
X115570000Y-93472000D01*
X115570000Y-93472000D02*
X143510000Y-93472000D01*
X143510000Y-84328000D02*
X143510000Y-93472000D01*
X138430000Y-84328000D02*
X139700000Y-83058000D01*
X139700000Y-83058000D02*
X137160000Y-83058000D01*
X137160000Y-83058000D02*
X138430000Y-84328000D01*
X173990000Y-84328000D02*
X146050000Y-84328000D01*
X146050000Y-84328000D02*
X146050000Y-93472000D01*
X146050000Y-93472000D02*
X173990000Y-93472000D01*
X173990000Y-84328000D02*
X173990000Y-93472000D01*
X168910000Y-84328000D02*
X170180000Y-83058000D01*
X170180000Y-83058000D02*
X167640000Y-83058000D01*
X167640000Y-83058000D02*
X168910000Y-84328000D01*
D14*
X200436238Y-83777666D02*
X200484619Y-83632523D01*
X200484619Y-83390619D01*
X200436238Y-83293857D01*
X200387857Y-83245476D01*
X200291095Y-83197095D01*
X200194333Y-83197095D01*
X200097571Y-83245476D01*
X200049190Y-83293857D01*
X200000810Y-83390619D01*
X199952429Y-83584142D01*
X199904048Y-83680904D01*
X199855667Y-83729285D01*
X199758905Y-83777666D01*
X199662143Y-83777666D01*
X199565381Y-83729285D01*
X199517000Y-83680904D01*
X199468619Y-83584142D01*
X199468619Y-83342238D01*
X199517000Y-83197095D01*
X199468619Y-82858428D02*
X200484619Y-82616523D01*
X199758905Y-82423000D01*
X200484619Y-82229476D01*
X199468619Y-81987571D01*
X199565381Y-81648904D02*
X199517000Y-81600523D01*
X199468619Y-81503761D01*
X199468619Y-81261857D01*
X199517000Y-81165095D01*
X199565381Y-81116714D01*
X199662143Y-81068333D01*
X199758905Y-81068333D01*
X199904048Y-81116714D01*
X200484619Y-81697285D01*
X200484619Y-81068333D01*
X199952429Y-94445667D02*
X200000810Y-94300524D01*
X200049190Y-94252143D01*
X200145952Y-94203762D01*
X200291095Y-94203762D01*
X200387857Y-94252143D01*
X200436238Y-94300524D01*
X200484619Y-94397286D01*
X200484619Y-94784333D01*
X199468619Y-94784333D01*
X199468619Y-94445667D01*
X199517000Y-94348905D01*
X199565381Y-94300524D01*
X199662143Y-94252143D01*
X199758905Y-94252143D01*
X199855667Y-94300524D01*
X199904048Y-94348905D01*
X199952429Y-94445667D01*
X199952429Y-94784333D01*
X199468619Y-93913476D02*
X199468619Y-93332905D01*
X200484619Y-93623190D02*
X199468619Y-93623190D01*
X200484619Y-92994238D02*
X199468619Y-92994238D01*
X200484619Y-92413667D01*
X199468619Y-92413667D01*
X183375905Y-84231238D02*
X183521048Y-84279619D01*
X183762952Y-84279619D01*
X183859714Y-84231238D01*
X183908095Y-84182857D01*
X183956476Y-84086095D01*
X183956476Y-83989333D01*
X183908095Y-83892571D01*
X183859714Y-83844190D01*
X183762952Y-83795810D01*
X183569429Y-83747429D01*
X183472667Y-83699048D01*
X183424286Y-83650667D01*
X183375905Y-83553905D01*
X183375905Y-83457143D01*
X183424286Y-83360381D01*
X183472667Y-83312000D01*
X183569429Y-83263619D01*
X183811333Y-83263619D01*
X183956476Y-83312000D01*
X184924095Y-84279619D02*
X184343524Y-84279619D01*
X184633810Y-84279619D02*
X184633810Y-83263619D01*
X184537048Y-83408762D01*
X184440286Y-83505524D01*
X184343524Y-83553905D01*
X110314619Y-122669904D02*
X109298619Y-122669904D01*
X109298619Y-122282857D01*
X109347000Y-122186095D01*
X109395381Y-122137714D01*
X109492143Y-122089333D01*
X109637286Y-122089333D01*
X109734048Y-122137714D01*
X109782429Y-122186095D01*
X109830810Y-122282857D01*
X109830810Y-122669904D01*
X109395381Y-121702285D02*
X109347000Y-121653904D01*
X109298619Y-121557142D01*
X109298619Y-121315238D01*
X109347000Y-121218476D01*
X109395381Y-121170095D01*
X109492143Y-121121714D01*
X109588905Y-121121714D01*
X109734048Y-121170095D01*
X110314619Y-121750666D01*
X110314619Y-121121714D01*
X118569619Y-122518714D02*
X117553619Y-122518714D01*
X117553619Y-122276809D01*
X117602000Y-122131667D01*
X117698762Y-122034905D01*
X117795524Y-121986524D01*
X117989048Y-121938143D01*
X118134190Y-121938143D01*
X118327714Y-121986524D01*
X118424476Y-122034905D01*
X118521238Y-122131667D01*
X118569619Y-122276809D01*
X118569619Y-122518714D01*
X117553619Y-121599476D02*
X117553619Y-120970524D01*
X117940667Y-121309190D01*
X117940667Y-121164048D01*
X117989048Y-121067286D01*
X118037429Y-121018905D01*
X118134190Y-120970524D01*
X118376095Y-120970524D01*
X118472857Y-121018905D01*
X118521238Y-121067286D01*
X118569619Y-121164048D01*
X118569619Y-121454333D01*
X118521238Y-121551095D01*
X118472857Y-121599476D01*
X117553619Y-120631857D02*
X117553619Y-120002905D01*
X117940667Y-120341571D01*
X117940667Y-120196429D01*
X117989048Y-120099667D01*
X118037429Y-120051286D01*
X118134190Y-120002905D01*
X118376095Y-120002905D01*
X118472857Y-120051286D01*
X118521238Y-120099667D01*
X118569619Y-120196429D01*
X118569619Y-120486714D01*
X118521238Y-120583476D01*
X118472857Y-120631857D01*
X141429619Y-122518714D02*
X140413619Y-122518714D01*
X140413619Y-122276809D01*
X140462000Y-122131667D01*
X140558762Y-122034905D01*
X140655524Y-121986524D01*
X140849048Y-121938143D01*
X140994190Y-121938143D01*
X141187714Y-121986524D01*
X141284476Y-122034905D01*
X141381238Y-122131667D01*
X141429619Y-122276809D01*
X141429619Y-122518714D01*
X140510381Y-121551095D02*
X140462000Y-121502714D01*
X140413619Y-121405952D01*
X140413619Y-121164048D01*
X140462000Y-121067286D01*
X140510381Y-121018905D01*
X140607143Y-120970524D01*
X140703905Y-120970524D01*
X140849048Y-121018905D01*
X141429619Y-121599476D01*
X141429619Y-120970524D01*
X140413619Y-120099667D02*
X140413619Y-120293190D01*
X140462000Y-120389952D01*
X140510381Y-120438333D01*
X140655524Y-120535095D01*
X140849048Y-120583476D01*
X141236095Y-120583476D01*
X141332857Y-120535095D01*
X141381238Y-120486714D01*
X141429619Y-120389952D01*
X141429619Y-120196429D01*
X141381238Y-120099667D01*
X141332857Y-120051286D01*
X141236095Y-120002905D01*
X140994190Y-120002905D01*
X140897429Y-120051286D01*
X140849048Y-120099667D01*
X140800667Y-120196429D01*
X140800667Y-120389952D01*
X140849048Y-120486714D01*
X140897429Y-120535095D01*
X140994190Y-120583476D01*
X149049619Y-122518714D02*
X148033619Y-122518714D01*
X148033619Y-122276809D01*
X148082000Y-122131667D01*
X148178762Y-122034905D01*
X148275524Y-121986524D01*
X148469048Y-121938143D01*
X148614190Y-121938143D01*
X148807714Y-121986524D01*
X148904476Y-122034905D01*
X149001238Y-122131667D01*
X149049619Y-122276809D01*
X149049619Y-122518714D01*
X148130381Y-121551095D02*
X148082000Y-121502714D01*
X148033619Y-121405952D01*
X148033619Y-121164048D01*
X148082000Y-121067286D01*
X148130381Y-121018905D01*
X148227143Y-120970524D01*
X148323905Y-120970524D01*
X148469048Y-121018905D01*
X149049619Y-121599476D01*
X149049619Y-120970524D01*
X148033619Y-120051286D02*
X148033619Y-120535095D01*
X148517429Y-120583476D01*
X148469048Y-120535095D01*
X148420667Y-120438333D01*
X148420667Y-120196429D01*
X148469048Y-120099667D01*
X148517429Y-120051286D01*
X148614190Y-120002905D01*
X148856095Y-120002905D01*
X148952857Y-120051286D01*
X149001238Y-120099667D01*
X149049619Y-120196429D01*
X149049619Y-120438333D01*
X149001238Y-120535095D01*
X148952857Y-120583476D01*
X171909619Y-122518714D02*
X170893619Y-122518714D01*
X170893619Y-122276809D01*
X170942000Y-122131667D01*
X171038762Y-122034905D01*
X171135524Y-121986524D01*
X171329048Y-121938143D01*
X171474190Y-121938143D01*
X171667714Y-121986524D01*
X171764476Y-122034905D01*
X171861238Y-122131667D01*
X171909619Y-122276809D01*
X171909619Y-122518714D01*
X171909619Y-120970524D02*
X171909619Y-121551095D01*
X171909619Y-121260809D02*
X170893619Y-121260809D01*
X171038762Y-121357571D01*
X171135524Y-121454333D01*
X171183905Y-121551095D01*
X171329048Y-120389952D02*
X171280667Y-120486714D01*
X171232286Y-120535095D01*
X171135524Y-120583476D01*
X171087143Y-120583476D01*
X170990381Y-120535095D01*
X170942000Y-120486714D01*
X170893619Y-120389952D01*
X170893619Y-120196429D01*
X170942000Y-120099667D01*
X170990381Y-120051286D01*
X171087143Y-120002905D01*
X171135524Y-120002905D01*
X171232286Y-120051286D01*
X171280667Y-120099667D01*
X171329048Y-120196429D01*
X171329048Y-120389952D01*
X171377429Y-120486714D01*
X171425810Y-120535095D01*
X171522571Y-120583476D01*
X171716095Y-120583476D01*
X171812857Y-120535095D01*
X171861238Y-120486714D01*
X171909619Y-120389952D01*
X171909619Y-120196429D01*
X171861238Y-120099667D01*
X171812857Y-120051286D01*
X171716095Y-120002905D01*
X171522571Y-120002905D01*
X171425810Y-120051286D01*
X171377429Y-120099667D01*
X171329048Y-120196429D01*
X186847238Y-98636666D02*
X186895619Y-98491523D01*
X186895619Y-98249619D01*
X186847238Y-98152857D01*
X186798857Y-98104476D01*
X186702095Y-98056095D01*
X186605333Y-98056095D01*
X186508571Y-98104476D01*
X186460190Y-98152857D01*
X186411810Y-98249619D01*
X186363429Y-98443142D01*
X186315048Y-98539904D01*
X186266667Y-98588285D01*
X186169905Y-98636666D01*
X186073143Y-98636666D01*
X185976381Y-98588285D01*
X185928000Y-98539904D01*
X185879619Y-98443142D01*
X185879619Y-98201238D01*
X185928000Y-98056095D01*
X185879619Y-97717428D02*
X186895619Y-97475523D01*
X186169905Y-97282000D01*
X186895619Y-97088476D01*
X185879619Y-96846571D01*
X186895619Y-95927333D02*
X186895619Y-96507904D01*
X186895619Y-96217618D02*
X185879619Y-96217618D01*
X186024762Y-96314380D01*
X186121524Y-96411142D01*
X186169905Y-96507904D01*
D16*
X178513620Y-113949238D02*
X177546001Y-113949238D01*
X177546001Y-111917238D01*
X179190953Y-113949238D02*
X179190953Y-112594571D01*
X179190953Y-111917238D02*
X179094191Y-112014000D01*
X179190953Y-112110762D01*
X179287714Y-112014000D01*
X179190953Y-111917238D01*
X179190953Y-112110762D01*
X181029429Y-112594571D02*
X181029429Y-114239524D01*
X180932667Y-114433048D01*
X180835905Y-114529810D01*
X180642381Y-114626571D01*
X180352095Y-114626571D01*
X180158572Y-114529810D01*
X181029429Y-113852476D02*
X180835905Y-113949238D01*
X180448857Y-113949238D01*
X180255333Y-113852476D01*
X180158572Y-113755714D01*
X180061810Y-113562190D01*
X180061810Y-112981619D01*
X180158572Y-112788095D01*
X180255333Y-112691333D01*
X180448857Y-112594571D01*
X180835905Y-112594571D01*
X181029429Y-112691333D01*
X181997048Y-113949238D02*
X181997048Y-111917238D01*
X182867905Y-113949238D02*
X182867905Y-112884857D01*
X182771143Y-112691333D01*
X182577619Y-112594571D01*
X182287333Y-112594571D01*
X182093809Y-112691333D01*
X181997048Y-112788095D01*
X183545238Y-112594571D02*
X184319333Y-112594571D01*
X183835524Y-111917238D02*
X183835524Y-113658952D01*
X183932285Y-113852476D01*
X184125809Y-113949238D01*
X184319333Y-113949238D01*
X184899905Y-113852476D02*
X185093428Y-113949238D01*
X185480476Y-113949238D01*
X185674000Y-113852476D01*
X185770762Y-113658952D01*
X185770762Y-113562190D01*
X185674000Y-113368667D01*
X185480476Y-113271905D01*
X185190190Y-113271905D01*
X184996667Y-113175143D01*
X184899905Y-112981619D01*
X184899905Y-112884857D01*
X184996667Y-112691333D01*
X185190190Y-112594571D01*
X185480476Y-112594571D01*
X185674000Y-112691333D01*
D11*
X180158572Y-109655429D02*
X180448858Y-109655429D01*
X180594000Y-109728000D01*
X180739143Y-109873143D01*
X180811715Y-110163429D01*
X180811715Y-110671429D01*
X180739143Y-110961714D01*
X180594000Y-111106857D01*
X180448858Y-111179429D01*
X180158572Y-111179429D01*
X180013429Y-111106857D01*
X179868286Y-110961714D01*
X179795715Y-110671429D01*
X179795715Y-110163429D01*
X179868286Y-109873143D01*
X180013429Y-109728000D01*
X180158572Y-109655429D01*
X181972857Y-110381143D02*
X181464857Y-110381143D01*
X181464857Y-111179429D02*
X181464857Y-109655429D01*
X182190571Y-109655429D01*
X183279143Y-110381143D02*
X182771143Y-110381143D01*
X182771143Y-111179429D02*
X182771143Y-109655429D01*
X183496857Y-109655429D01*
X180666572Y-94415429D02*
X180956858Y-94415429D01*
X181102000Y-94488000D01*
X181247143Y-94633143D01*
X181319715Y-94923429D01*
X181319715Y-95431429D01*
X181247143Y-95721714D01*
X181102000Y-95866857D01*
X180956858Y-95939429D01*
X180666572Y-95939429D01*
X180521429Y-95866857D01*
X180376286Y-95721714D01*
X180303715Y-95431429D01*
X180303715Y-94923429D01*
X180376286Y-94633143D01*
X180521429Y-94488000D01*
X180666572Y-94415429D01*
X181972857Y-95939429D02*
X181972857Y-94415429D01*
X182843714Y-95939429D01*
X182843714Y-94415429D01*
D14*
X118569619Y-99658714D02*
X117553619Y-99658714D01*
X117553619Y-99416809D01*
X117602000Y-99271667D01*
X117698762Y-99174905D01*
X117795524Y-99126524D01*
X117989048Y-99078143D01*
X118134190Y-99078143D01*
X118327714Y-99126524D01*
X118424476Y-99174905D01*
X118521238Y-99271667D01*
X118569619Y-99416809D01*
X118569619Y-99658714D01*
X118569619Y-98110524D02*
X118569619Y-98691095D01*
X118569619Y-98400809D02*
X117553619Y-98400809D01*
X117698762Y-98497571D01*
X117795524Y-98594333D01*
X117843905Y-98691095D01*
X117553619Y-97771857D02*
X117553619Y-97094524D01*
X118569619Y-97529952D01*
X141429619Y-99658714D02*
X140413619Y-99658714D01*
X140413619Y-99416809D01*
X140462000Y-99271667D01*
X140558762Y-99174905D01*
X140655524Y-99126524D01*
X140849048Y-99078143D01*
X140994190Y-99078143D01*
X141187714Y-99126524D01*
X141284476Y-99174905D01*
X141381238Y-99271667D01*
X141429619Y-99416809D01*
X141429619Y-99658714D01*
X141429619Y-98110524D02*
X141429619Y-98691095D01*
X141429619Y-98400809D02*
X140413619Y-98400809D01*
X140558762Y-98497571D01*
X140655524Y-98594333D01*
X140703905Y-98691095D01*
X140413619Y-97481571D02*
X140413619Y-97384810D01*
X140462000Y-97288048D01*
X140510381Y-97239667D01*
X140607143Y-97191286D01*
X140800667Y-97142905D01*
X141042571Y-97142905D01*
X141236095Y-97191286D01*
X141332857Y-97239667D01*
X141381238Y-97288048D01*
X141429619Y-97384810D01*
X141429619Y-97481571D01*
X141381238Y-97578333D01*
X141332857Y-97626714D01*
X141236095Y-97675095D01*
X141042571Y-97723476D01*
X140800667Y-97723476D01*
X140607143Y-97675095D01*
X140510381Y-97626714D01*
X140462000Y-97578333D01*
X140413619Y-97481571D01*
X149049619Y-99174904D02*
X148033619Y-99174904D01*
X148033619Y-98932999D01*
X148082000Y-98787857D01*
X148178762Y-98691095D01*
X148275524Y-98642714D01*
X148469048Y-98594333D01*
X148614190Y-98594333D01*
X148807714Y-98642714D01*
X148904476Y-98691095D01*
X149001238Y-98787857D01*
X149049619Y-98932999D01*
X149049619Y-99174904D01*
X149049619Y-98110523D02*
X149049619Y-97916999D01*
X149001238Y-97820238D01*
X148952857Y-97771857D01*
X148807714Y-97675095D01*
X148614190Y-97626714D01*
X148227143Y-97626714D01*
X148130381Y-97675095D01*
X148082000Y-97723476D01*
X148033619Y-97820238D01*
X148033619Y-98013761D01*
X148082000Y-98110523D01*
X148130381Y-98158904D01*
X148227143Y-98207285D01*
X148469048Y-98207285D01*
X148565810Y-98158904D01*
X148614190Y-98110523D01*
X148662571Y-98013761D01*
X148662571Y-97820238D01*
X148614190Y-97723476D01*
X148565810Y-97675095D01*
X148469048Y-97626714D01*
X171909619Y-99174904D02*
X170893619Y-99174904D01*
X170893619Y-98932999D01*
X170942000Y-98787857D01*
X171038762Y-98691095D01*
X171135524Y-98642714D01*
X171329048Y-98594333D01*
X171474190Y-98594333D01*
X171667714Y-98642714D01*
X171764476Y-98691095D01*
X171861238Y-98787857D01*
X171909619Y-98932999D01*
X171909619Y-99174904D01*
X170990381Y-98207285D02*
X170942000Y-98158904D01*
X170893619Y-98062142D01*
X170893619Y-97820238D01*
X170942000Y-97723476D01*
X170990381Y-97675095D01*
X171087143Y-97626714D01*
X171183905Y-97626714D01*
X171329048Y-97675095D01*
X171909619Y-98255666D01*
X171909619Y-97626714D01*
X187784619Y-109461904D02*
X186768619Y-109461904D01*
X186768619Y-109219999D01*
X186817000Y-109074857D01*
X186913762Y-108978095D01*
X187010524Y-108929714D01*
X187204048Y-108881333D01*
X187349190Y-108881333D01*
X187542714Y-108929714D01*
X187639476Y-108978095D01*
X187736238Y-109074857D01*
X187784619Y-109219999D01*
X187784619Y-109461904D01*
X187784619Y-107913714D02*
X187784619Y-108494285D01*
X187784619Y-108203999D02*
X186768619Y-108203999D01*
X186913762Y-108300761D01*
X187010524Y-108397523D01*
X187058905Y-108494285D01*
X93738096Y-111965619D02*
X93738096Y-110949619D01*
X94125143Y-110949619D01*
X94221905Y-110998000D01*
X94270286Y-111046381D01*
X94318667Y-111143143D01*
X94318667Y-111288286D01*
X94270286Y-111385048D01*
X94221905Y-111433429D01*
X94125143Y-111481810D01*
X93738096Y-111481810D01*
X94657334Y-110949619D02*
X95286286Y-110949619D01*
X94947620Y-111336667D01*
X95092762Y-111336667D01*
X95189524Y-111385048D01*
X95237905Y-111433429D01*
X95286286Y-111530190D01*
X95286286Y-111772095D01*
X95237905Y-111868857D01*
X95189524Y-111917238D01*
X95092762Y-111965619D01*
X94802477Y-111965619D01*
X94705715Y-111917238D01*
X94657334Y-111868857D01*
X111457619Y-111385047D02*
X111457619Y-110804476D01*
X112473619Y-111094761D02*
X111457619Y-111094761D01*
X112473619Y-110320666D02*
X112425238Y-110417428D01*
X112376857Y-110465809D01*
X112280095Y-110514190D01*
X111989810Y-110514190D01*
X111893048Y-110465809D01*
X111844667Y-110417428D01*
X111796286Y-110320666D01*
X111796286Y-110175524D01*
X111844667Y-110078762D01*
X111893048Y-110030381D01*
X111989810Y-109982000D01*
X112280095Y-109982000D01*
X112376857Y-110030381D01*
X112425238Y-110078762D01*
X112473619Y-110175524D01*
X112473619Y-110320666D01*
X111796286Y-109546571D02*
X112812286Y-109546571D01*
X111844667Y-109546571D02*
X111796286Y-109449809D01*
X111796286Y-109256286D01*
X111844667Y-109159524D01*
X111893048Y-109111143D01*
X111989810Y-109062762D01*
X112280095Y-109062762D01*
X112376857Y-109111143D01*
X112425238Y-109159524D01*
X112473619Y-109256286D01*
X112473619Y-109449809D01*
X112425238Y-109546571D01*
X112376857Y-108627333D02*
X112425238Y-108578952D01*
X112473619Y-108627333D01*
X112425238Y-108675714D01*
X112376857Y-108627333D01*
X112473619Y-108627333D01*
X111844667Y-108627333D02*
X111893048Y-108578952D01*
X111941429Y-108627333D01*
X111893048Y-108675714D01*
X111844667Y-108627333D01*
X111941429Y-108627333D01*
X111941429Y-107030762D02*
X111989810Y-106885619D01*
X112038190Y-106837238D01*
X112134952Y-106788857D01*
X112280095Y-106788857D01*
X112376857Y-106837238D01*
X112425238Y-106885619D01*
X112473619Y-106982381D01*
X112473619Y-107369428D01*
X111457619Y-107369428D01*
X111457619Y-107030762D01*
X111506000Y-106934000D01*
X111554381Y-106885619D01*
X111651143Y-106837238D01*
X111747905Y-106837238D01*
X111844667Y-106885619D01*
X111893048Y-106934000D01*
X111941429Y-107030762D01*
X111941429Y-107369428D01*
X112473619Y-106353428D02*
X111457619Y-106353428D01*
X112473619Y-105772857D01*
X111457619Y-105772857D01*
X112376857Y-104708476D02*
X112425238Y-104756857D01*
X112473619Y-104902000D01*
X112473619Y-104998762D01*
X112425238Y-105143904D01*
X112328476Y-105240666D01*
X112231714Y-105289047D01*
X112038190Y-105337428D01*
X111893048Y-105337428D01*
X111699524Y-105289047D01*
X111602762Y-105240666D01*
X111506000Y-105143904D01*
X111457619Y-104998762D01*
X111457619Y-104902000D01*
X111506000Y-104756857D01*
X111554381Y-104708476D01*
X111941429Y-103160286D02*
X111989810Y-103015143D01*
X112038190Y-102966762D01*
X112134952Y-102918381D01*
X112280095Y-102918381D01*
X112376857Y-102966762D01*
X112425238Y-103015143D01*
X112473619Y-103111905D01*
X112473619Y-103498952D01*
X111457619Y-103498952D01*
X111457619Y-103160286D01*
X111506000Y-103063524D01*
X111554381Y-103015143D01*
X111651143Y-102966762D01*
X111747905Y-102966762D01*
X111844667Y-103015143D01*
X111893048Y-103063524D01*
X111941429Y-103160286D01*
X111941429Y-103498952D01*
X112860667Y-101418572D02*
X112812286Y-101466952D01*
X112667143Y-101563714D01*
X112570381Y-101612095D01*
X112425238Y-101660476D01*
X112183333Y-101708857D01*
X111989810Y-101708857D01*
X111747905Y-101660476D01*
X111602762Y-101612095D01*
X111506000Y-101563714D01*
X111360857Y-101466952D01*
X111312476Y-101418572D01*
X111457619Y-101176667D02*
X111457619Y-100596096D01*
X112473619Y-100886381D02*
X111457619Y-100886381D01*
X112473619Y-99676858D02*
X111989810Y-100015524D01*
X112473619Y-100257429D02*
X111457619Y-100257429D01*
X111457619Y-99870382D01*
X111506000Y-99773620D01*
X111554381Y-99725239D01*
X111651143Y-99676858D01*
X111796286Y-99676858D01*
X111893048Y-99725239D01*
X111941429Y-99773620D01*
X111989810Y-99870382D01*
X111989810Y-100257429D01*
X112473619Y-99241429D02*
X111457619Y-99241429D01*
X111506000Y-98225429D02*
X111457619Y-98322191D01*
X111457619Y-98467334D01*
X111506000Y-98612476D01*
X111602762Y-98709238D01*
X111699524Y-98757619D01*
X111893048Y-98806000D01*
X112038190Y-98806000D01*
X112231714Y-98757619D01*
X112328476Y-98709238D01*
X112425238Y-98612476D01*
X112473619Y-98467334D01*
X112473619Y-98370572D01*
X112425238Y-98225429D01*
X112376857Y-98177048D01*
X112038190Y-98177048D01*
X112038190Y-98370572D01*
X111409238Y-97015905D02*
X112715524Y-97886762D01*
X112473619Y-96677238D02*
X111457619Y-96677238D01*
X111457619Y-96435333D01*
X111506000Y-96290191D01*
X111602762Y-96193429D01*
X111699524Y-96145048D01*
X111893048Y-96096667D01*
X112038190Y-96096667D01*
X112231714Y-96145048D01*
X112328476Y-96193429D01*
X112425238Y-96290191D01*
X112473619Y-96435333D01*
X112473619Y-96677238D01*
X111457619Y-95758000D02*
X111457619Y-95129048D01*
X111844667Y-95467714D01*
X111844667Y-95322572D01*
X111893048Y-95225810D01*
X111941429Y-95177429D01*
X112038190Y-95129048D01*
X112280095Y-95129048D01*
X112376857Y-95177429D01*
X112425238Y-95225810D01*
X112473619Y-95322572D01*
X112473619Y-95612857D01*
X112425238Y-95709619D01*
X112376857Y-95758000D01*
X112860667Y-94790381D02*
X112812286Y-94742000D01*
X112667143Y-94645238D01*
X112570381Y-94596857D01*
X112425238Y-94548476D01*
X112183333Y-94500095D01*
X111989810Y-94500095D01*
X111747905Y-94548476D01*
X111602762Y-94596857D01*
X111506000Y-94645238D01*
X111360857Y-94742000D01*
X111312476Y-94790381D01*
X110163429Y-109957809D02*
X110211810Y-109812666D01*
X110260190Y-109764285D01*
X110356952Y-109715904D01*
X110502095Y-109715904D01*
X110598857Y-109764285D01*
X110647238Y-109812666D01*
X110695619Y-109909428D01*
X110695619Y-110296475D01*
X109679619Y-110296475D01*
X109679619Y-109957809D01*
X109728000Y-109861047D01*
X109776381Y-109812666D01*
X109873143Y-109764285D01*
X109969905Y-109764285D01*
X110066667Y-109812666D01*
X110115048Y-109861047D01*
X110163429Y-109957809D01*
X110163429Y-110296475D01*
X110695619Y-109135332D02*
X110647238Y-109232094D01*
X110598857Y-109280475D01*
X110502095Y-109328856D01*
X110211810Y-109328856D01*
X110115048Y-109280475D01*
X110066667Y-109232094D01*
X110018286Y-109135332D01*
X110018286Y-108990190D01*
X110066667Y-108893428D01*
X110115048Y-108845047D01*
X110211810Y-108796666D01*
X110502095Y-108796666D01*
X110598857Y-108845047D01*
X110647238Y-108893428D01*
X110695619Y-108990190D01*
X110695619Y-109135332D01*
X110018286Y-108506380D02*
X110018286Y-108119332D01*
X109679619Y-108361237D02*
X110550476Y-108361237D01*
X110647238Y-108312856D01*
X110695619Y-108216094D01*
X110695619Y-108119332D01*
X110018286Y-107925809D02*
X110018286Y-107538761D01*
X109679619Y-107780666D02*
X110550476Y-107780666D01*
X110647238Y-107732285D01*
X110695619Y-107635523D01*
X110695619Y-107538761D01*
X110695619Y-107054952D02*
X110647238Y-107151714D01*
X110598857Y-107200095D01*
X110502095Y-107248476D01*
X110211810Y-107248476D01*
X110115048Y-107200095D01*
X110066667Y-107151714D01*
X110018286Y-107054952D01*
X110018286Y-106909810D01*
X110066667Y-106813048D01*
X110115048Y-106764667D01*
X110211810Y-106716286D01*
X110502095Y-106716286D01*
X110598857Y-106764667D01*
X110647238Y-106813048D01*
X110695619Y-106909810D01*
X110695619Y-107054952D01*
X110695619Y-106280857D02*
X110018286Y-106280857D01*
X110115048Y-106280857D02*
X110066667Y-106232476D01*
X110018286Y-106135714D01*
X110018286Y-105990572D01*
X110066667Y-105893810D01*
X110163429Y-105845429D01*
X110695619Y-105845429D01*
X110163429Y-105845429D02*
X110066667Y-105797048D01*
X110018286Y-105700286D01*
X110018286Y-105555143D01*
X110066667Y-105458381D01*
X110163429Y-105410000D01*
X110695619Y-105410000D01*
X110598857Y-104926190D02*
X110647238Y-104877809D01*
X110695619Y-104926190D01*
X110647238Y-104974571D01*
X110598857Y-104926190D01*
X110695619Y-104926190D01*
X110066667Y-104926190D02*
X110115048Y-104877809D01*
X110163429Y-104926190D01*
X110115048Y-104974571D01*
X110066667Y-104926190D01*
X110163429Y-104926190D01*
X110163429Y-103329619D02*
X110211810Y-103184476D01*
X110260190Y-103136095D01*
X110356952Y-103087714D01*
X110502095Y-103087714D01*
X110598857Y-103136095D01*
X110647238Y-103184476D01*
X110695619Y-103281238D01*
X110695619Y-103668285D01*
X109679619Y-103668285D01*
X109679619Y-103329619D01*
X109728000Y-103232857D01*
X109776381Y-103184476D01*
X109873143Y-103136095D01*
X109969905Y-103136095D01*
X110066667Y-103184476D01*
X110115048Y-103232857D01*
X110163429Y-103329619D01*
X110163429Y-103668285D01*
X110695619Y-102652285D02*
X109679619Y-102652285D01*
X110695619Y-102071714D01*
X109679619Y-102071714D01*
X110598857Y-101007333D02*
X110647238Y-101055714D01*
X110695619Y-101200857D01*
X110695619Y-101297619D01*
X110647238Y-101442761D01*
X110550476Y-101539523D01*
X110453714Y-101587904D01*
X110260190Y-101636285D01*
X110115048Y-101636285D01*
X109921524Y-101587904D01*
X109824762Y-101539523D01*
X109728000Y-101442761D01*
X109679619Y-101297619D01*
X109679619Y-101200857D01*
X109728000Y-101055714D01*
X109776381Y-101007333D01*
X110405333Y-99846190D02*
X110405333Y-99362381D01*
X110695619Y-99942952D02*
X109679619Y-99604285D01*
X110695619Y-99265619D01*
X111082667Y-97862572D02*
X111034286Y-97910952D01*
X110889143Y-98007714D01*
X110792381Y-98056095D01*
X110647238Y-98104476D01*
X110405333Y-98152857D01*
X110211810Y-98152857D01*
X109969905Y-98104476D01*
X109824762Y-98056095D01*
X109728000Y-98007714D01*
X109582857Y-97910952D01*
X109534476Y-97862572D01*
X110405333Y-97523905D02*
X110405333Y-97040096D01*
X110695619Y-97620667D02*
X109679619Y-97282000D01*
X110695619Y-96943334D01*
X109679619Y-96411143D02*
X109679619Y-96314382D01*
X109728000Y-96217620D01*
X109776381Y-96169239D01*
X109873143Y-96120858D01*
X110066667Y-96072477D01*
X110308571Y-96072477D01*
X110502095Y-96120858D01*
X110598857Y-96169239D01*
X110647238Y-96217620D01*
X110695619Y-96314382D01*
X110695619Y-96411143D01*
X110647238Y-96507905D01*
X110598857Y-96556286D01*
X110502095Y-96604667D01*
X110308571Y-96653048D01*
X110066667Y-96653048D01*
X109873143Y-96604667D01*
X109776381Y-96556286D01*
X109728000Y-96507905D01*
X109679619Y-96411143D01*
X111082667Y-95733810D02*
X111034286Y-95685429D01*
X110889143Y-95588667D01*
X110792381Y-95540286D01*
X110647238Y-95491905D01*
X110405333Y-95443524D01*
X110211810Y-95443524D01*
X109969905Y-95491905D01*
X109824762Y-95540286D01*
X109728000Y-95588667D01*
X109582857Y-95685429D01*
X109534476Y-95733810D01*
X104321429Y-98733429D02*
X104369810Y-98588286D01*
X104418190Y-98539905D01*
X104514952Y-98491524D01*
X104660095Y-98491524D01*
X104756857Y-98539905D01*
X104805238Y-98588286D01*
X104853619Y-98685048D01*
X104853619Y-99072095D01*
X103837619Y-99072095D01*
X103837619Y-98733429D01*
X103886000Y-98636667D01*
X103934381Y-98588286D01*
X104031143Y-98539905D01*
X104127905Y-98539905D01*
X104224667Y-98588286D01*
X104273048Y-98636667D01*
X104321429Y-98733429D01*
X104321429Y-99072095D01*
X103583619Y-105700285D02*
X103583619Y-105119714D01*
X104599619Y-105409999D02*
X103583619Y-105409999D01*
X208104619Y-116706952D02*
X207620810Y-117045618D01*
X208104619Y-117287523D02*
X207088619Y-117287523D01*
X207088619Y-116900476D01*
X207137000Y-116803714D01*
X207185381Y-116755333D01*
X207282143Y-116706952D01*
X207427286Y-116706952D01*
X207524048Y-116755333D01*
X207572429Y-116803714D01*
X207620810Y-116900476D01*
X207620810Y-117287523D01*
X207572429Y-116271523D02*
X207572429Y-115932857D01*
X208104619Y-115787714D02*
X208104619Y-116271523D01*
X207088619Y-116271523D01*
X207088619Y-115787714D01*
X207137000Y-114820095D02*
X207088619Y-114916857D01*
X207088619Y-115062000D01*
X207137000Y-115207142D01*
X207233762Y-115303904D01*
X207330524Y-115352285D01*
X207524048Y-115400666D01*
X207669190Y-115400666D01*
X207862714Y-115352285D01*
X207959476Y-115303904D01*
X208056238Y-115207142D01*
X208104619Y-115062000D01*
X208104619Y-114965238D01*
X208056238Y-114820095D01*
X208007857Y-114771714D01*
X207669190Y-114771714D01*
X207669190Y-114965238D01*
X208104619Y-113804095D02*
X208104619Y-114384666D01*
X208104619Y-114094380D02*
X207088619Y-114094380D01*
X207233762Y-114191142D01*
X207330524Y-114287904D01*
X207378905Y-114384666D01*
X209435096Y-109679619D02*
X209435096Y-108663619D01*
X209822143Y-108663619D01*
X209918905Y-108712000D01*
X209967286Y-108760381D01*
X210015667Y-108857143D01*
X210015667Y-109002286D01*
X209967286Y-109099048D01*
X209918905Y-109147429D01*
X209822143Y-109195810D01*
X209435096Y-109195810D01*
X210983286Y-109679619D02*
X210402715Y-109679619D01*
X210693001Y-109679619D02*
X210693001Y-108663619D01*
X210596239Y-108808762D01*
X210499477Y-108905524D01*
X210402715Y-108953905D01*
X186623477Y-123752429D02*
X186962143Y-123752429D01*
X187107286Y-124284619D02*
X186623477Y-124284619D01*
X186623477Y-123268619D01*
X187107286Y-123268619D01*
X188074905Y-124284619D02*
X187494334Y-124284619D01*
X187784620Y-124284619D02*
X187784620Y-123268619D01*
X187687858Y-123413762D01*
X187591096Y-123510524D01*
X187494334Y-123558905D01*
X145239619Y-112509904D02*
X144223619Y-112509904D01*
X144223619Y-112122857D01*
X144272000Y-112026095D01*
X144320381Y-111977714D01*
X144417143Y-111929333D01*
X144562286Y-111929333D01*
X144659048Y-111977714D01*
X144707429Y-112026095D01*
X144755810Y-112122857D01*
X144755810Y-112509904D01*
X144223619Y-111590666D02*
X144223619Y-110913333D01*
X145239619Y-111348761D01*
X175719619Y-112509904D02*
X174703619Y-112509904D01*
X174703619Y-112122857D01*
X174752000Y-112026095D01*
X174800381Y-111977714D01*
X174897143Y-111929333D01*
X175042286Y-111929333D01*
X175139048Y-111977714D01*
X175187429Y-112026095D01*
X175235810Y-112122857D01*
X175235810Y-112509904D01*
X174703619Y-111058476D02*
X174703619Y-111251999D01*
X174752000Y-111348761D01*
X174800381Y-111397142D01*
X174945524Y-111493904D01*
X175139048Y-111542285D01*
X175526095Y-111542285D01*
X175622857Y-111493904D01*
X175671238Y-111445523D01*
X175719619Y-111348761D01*
X175719619Y-111155238D01*
X175671238Y-111058476D01*
X175622857Y-111010095D01*
X175526095Y-110961714D01*
X175284190Y-110961714D01*
X175187429Y-111010095D01*
X175139048Y-111058476D01*
X175090667Y-111155238D01*
X175090667Y-111348761D01*
X175139048Y-111445523D01*
X175187429Y-111493904D01*
X175284190Y-111542285D01*
X145239619Y-89649904D02*
X144223619Y-89649904D01*
X144223619Y-89262857D01*
X144272000Y-89166095D01*
X144320381Y-89117714D01*
X144417143Y-89069333D01*
X144562286Y-89069333D01*
X144659048Y-89117714D01*
X144707429Y-89166095D01*
X144755810Y-89262857D01*
X144755810Y-89649904D01*
X144223619Y-88150095D02*
X144223619Y-88633904D01*
X144707429Y-88682285D01*
X144659048Y-88633904D01*
X144610667Y-88537142D01*
X144610667Y-88295238D01*
X144659048Y-88198476D01*
X144707429Y-88150095D01*
X144804190Y-88101714D01*
X145046095Y-88101714D01*
X145142857Y-88150095D01*
X145191238Y-88198476D01*
X145239619Y-88295238D01*
X145239619Y-88537142D01*
X145191238Y-88633904D01*
X145142857Y-88682285D01*
X175719619Y-89649904D02*
X174703619Y-89649904D01*
X174703619Y-89262857D01*
X174752000Y-89166095D01*
X174800381Y-89117714D01*
X174897143Y-89069333D01*
X175042286Y-89069333D01*
X175139048Y-89117714D01*
X175187429Y-89166095D01*
X175235810Y-89262857D01*
X175235810Y-89649904D01*
X175042286Y-88198476D02*
X175719619Y-88198476D01*
X174655238Y-88440380D02*
X175380952Y-88682285D01*
X175380952Y-88053333D01*
%LPC*%
D17*
X198026020Y-84137500D03*
X198026020Y-92392500D03*
X202023980Y-84137500D03*
X202023980Y-92392500D03*
D18*
X184150000Y-86995000D03*
D19*
X184150000Y-89535000D03*
D20*
X104140000Y-121920000D03*
X106680000Y-121920000D03*
D21*
X101600000Y-121920000D03*
D22*
X120650000Y-123825000D03*
X120650000Y-118745000D03*
X123190000Y-123825000D03*
X123190000Y-118745000D03*
X125730000Y-123825000D03*
X125730000Y-118745000D03*
X128270000Y-123825000D03*
X128270000Y-118745000D03*
X130810000Y-123825000D03*
X130810000Y-118745000D03*
X133350000Y-123825000D03*
X133350000Y-118745000D03*
X135890000Y-123825000D03*
X135890000Y-118745000D03*
X138430000Y-123825000D03*
X138430000Y-118745000D03*
X151130000Y-123825000D03*
X151130000Y-118745000D03*
X153670000Y-123825000D03*
X153670000Y-118745000D03*
X156210000Y-123825000D03*
X156210000Y-118745000D03*
X158750000Y-123825000D03*
X158750000Y-118745000D03*
X161290000Y-123825000D03*
X161290000Y-118745000D03*
X163830000Y-123825000D03*
X163830000Y-118745000D03*
X166370000Y-123825000D03*
X166370000Y-118745000D03*
X168910000Y-123825000D03*
X168910000Y-118745000D03*
D23*
X181610000Y-102870000D03*
X181610000Y-107569000D03*
D22*
X120650000Y-100965000D03*
X120650000Y-95885000D03*
X123190000Y-100965000D03*
X123190000Y-95885000D03*
X125730000Y-100965000D03*
X125730000Y-95885000D03*
X128270000Y-100965000D03*
X128270000Y-95885000D03*
X130810000Y-100965000D03*
X130810000Y-95885000D03*
X133350000Y-100965000D03*
X133350000Y-95885000D03*
X135890000Y-100965000D03*
X135890000Y-95885000D03*
X138430000Y-100965000D03*
X138430000Y-95885000D03*
X151130000Y-100965000D03*
X151130000Y-95885000D03*
X153670000Y-100965000D03*
X153670000Y-95885000D03*
X156210000Y-100965000D03*
X156210000Y-95885000D03*
X158750000Y-100965000D03*
X158750000Y-95885000D03*
X161290000Y-100965000D03*
X161290000Y-95885000D03*
X163830000Y-100965000D03*
X163830000Y-95885000D03*
X166370000Y-100965000D03*
X166370000Y-95885000D03*
X168910000Y-100965000D03*
X168910000Y-95885000D03*
X187325000Y-105410000D03*
X187325000Y-100330000D03*
D24*
X99060000Y-107950000D03*
X99060000Y-97790000D03*
D25*
X105156000Y-102870000D03*
D22*
X107950000Y-102870000D03*
X107950000Y-100076000D03*
X107950000Y-105664000D03*
D26*
X111760000Y-127000000D03*
X113030000Y-78740000D03*
X194310000Y-127000000D03*
X187960000Y-78740000D03*
D27*
X125730000Y-127000000D03*
X128270000Y-127000000D03*
X130810000Y-127000000D03*
X133350000Y-127000000D03*
X135890000Y-127000000D03*
X138430000Y-127000000D03*
X140970000Y-127000000D03*
X143510000Y-127000000D03*
X148590000Y-127000000D03*
X151130000Y-127000000D03*
X153670000Y-127000000D03*
X156210000Y-127000000D03*
X158750000Y-127000000D03*
X161290000Y-127000000D03*
X163830000Y-127000000D03*
X166370000Y-127000000D03*
X171450000Y-127000000D03*
X173990000Y-127000000D03*
X176530000Y-127000000D03*
X179070000Y-127000000D03*
X181610000Y-127000000D03*
X184150000Y-127000000D03*
X186690000Y-127000000D03*
X189230000Y-127000000D03*
X116586000Y-78740000D03*
X119126000Y-78740000D03*
X121666000Y-78740000D03*
X124206000Y-78740000D03*
X126746000Y-78740000D03*
X129286000Y-78740000D03*
X131826000Y-78740000D03*
X134366000Y-78740000D03*
X136906000Y-78740000D03*
X139446000Y-78740000D03*
X143510000Y-78740000D03*
X161290000Y-78740000D03*
X158750000Y-78740000D03*
X156210000Y-78740000D03*
X153670000Y-78740000D03*
X151130000Y-78740000D03*
X148590000Y-78740000D03*
X146050000Y-78740000D03*
X166370000Y-78740000D03*
X168910000Y-78740000D03*
X171450000Y-78740000D03*
X173990000Y-78740000D03*
X176530000Y-78740000D03*
X179070000Y-78740000D03*
X181610000Y-78740000D03*
X184150000Y-78740000D03*
X191770000Y-78232000D03*
X194310000Y-78232000D03*
D28*
X191262000Y-81280000D03*
X194818000Y-81280000D03*
X191262000Y-83820000D03*
X194818000Y-83820000D03*
X191262000Y-86360000D03*
X194818000Y-86360000D03*
X191262000Y-88900000D03*
X194818000Y-88900000D03*
X191262000Y-91440000D03*
X194818000Y-91440000D03*
X191262000Y-93980000D03*
X194818000Y-93980000D03*
X191262000Y-96520000D03*
X194818000Y-96520000D03*
X191262000Y-99060000D03*
X194818000Y-99060000D03*
X191262000Y-101600000D03*
X194818000Y-101600000D03*
X191262000Y-104140000D03*
X194818000Y-104140000D03*
X191262000Y-106680000D03*
X194818000Y-106680000D03*
X191262000Y-109220000D03*
X194818000Y-109220000D03*
X191262000Y-111760000D03*
X194818000Y-111760000D03*
X191262000Y-114300000D03*
X194818000Y-114300000D03*
X191262000Y-116840000D03*
X194818000Y-116840000D03*
X191262000Y-119380000D03*
X194818000Y-119380000D03*
X191262000Y-121920000D03*
X194818000Y-121920000D03*
X200025000Y-115570000D03*
X200025000Y-118110000D03*
X200025000Y-113030000D03*
D29*
X208457800Y-102870000D03*
D30*
X204952600Y-102870000D03*
D31*
X199466200Y-102870000D03*
D32*
X206451200Y-98374200D03*
X206451200Y-107365800D03*
D33*
X178435000Y-117754400D03*
X179705000Y-122275600D03*
X180975000Y-117754400D03*
X182245000Y-122275600D03*
X183515000Y-117754400D03*
X184785000Y-122275600D03*
D34*
X138430000Y-108762800D03*
X138430000Y-114757200D03*
X135890000Y-108762800D03*
X135890000Y-114757200D03*
X133350000Y-108762800D03*
X133350000Y-114757200D03*
X130810000Y-108762800D03*
X130810000Y-114757200D03*
X128270000Y-108762800D03*
X128270000Y-114757200D03*
X125730000Y-108762800D03*
X125730000Y-114757200D03*
X123190000Y-108762800D03*
X123190000Y-114757200D03*
X120650000Y-108762800D03*
X120650000Y-114757200D03*
X168910000Y-108762800D03*
X168910000Y-114757200D03*
X166370000Y-108762800D03*
X166370000Y-114757200D03*
X163830000Y-108762800D03*
X163830000Y-114757200D03*
X161290000Y-108762800D03*
X161290000Y-114757200D03*
X158750000Y-108762800D03*
X158750000Y-114757200D03*
X156210000Y-108762800D03*
X156210000Y-114757200D03*
X153670000Y-108762800D03*
X153670000Y-114757200D03*
X151130000Y-108762800D03*
X151130000Y-114757200D03*
X138430000Y-85902800D03*
X138430000Y-91897200D03*
X135890000Y-85902800D03*
X135890000Y-91897200D03*
X133350000Y-85902800D03*
X133350000Y-91897200D03*
X130810000Y-85902800D03*
X130810000Y-91897200D03*
X128270000Y-85902800D03*
X128270000Y-91897200D03*
X125730000Y-85902800D03*
X125730000Y-91897200D03*
X123190000Y-85902800D03*
X123190000Y-91897200D03*
X120650000Y-85902800D03*
X120650000Y-91897200D03*
X168910000Y-85902800D03*
X168910000Y-91897200D03*
X166370000Y-85902800D03*
X166370000Y-91897200D03*
X163830000Y-85902800D03*
X163830000Y-91897200D03*
X161290000Y-85902800D03*
X161290000Y-91897200D03*
X158750000Y-85902800D03*
X158750000Y-91897200D03*
X156210000Y-85902800D03*
X156210000Y-91897200D03*
X153670000Y-85902800D03*
X153670000Y-91897200D03*
X151130000Y-85902800D03*
X151130000Y-91897200D03*
M02*
