M48
;DRILL file {kicad 0.201502181246+5430~21~ubuntu14.04.1-product} date Wed 18 Feb 2015 01:58:55 PM EST
;FORMAT={-:-/ absolute / inch / decimal}
FMAT,2
INCH,TZ
T1C0.025
T2C0.035
T3C0.038
T4C0.039
T5C0.040
T6C0.043
T7C0.063
T8C0.090
T9C0.106
T10C0.124
T11C0.130
%
G90
G05
M72
T1
X4.743Y-3.5
X4.7891Y-4.1085
X4.7996Y-4.4115
X4.8987Y-4.3468
X4.9168Y-4.4
X4.9248Y-3.4991
X4.9923Y-3.5045
X5.0381Y-4.7609
X5.104Y-4.1798
X5.3Y-3.4355
X5.4Y-4.632
X5.4139Y-4.1345
X5.5048Y-3.2787
X5.6035Y-4.0339
X5.6048Y-3.7834
X5.6959Y-3.4317
X5.7143Y-4.1937
X5.7708Y-3.8468
X5.8273Y-4.8169
X5.8364Y-3.9507
X5.8751Y-3.8335
X5.9845Y-4.1182
X5.9977Y-3.5115
X6.0015Y-4.4371
X6.0619Y-4.0445
X6.1061Y-3.4911
X6.1103Y-3.1701
X6.201Y-4.1962
X6.4Y-3.5777
X6.4996Y-4.3655
X6.5Y-4.6329
X6.6034Y-3.268
X6.889Y-3.4308
X6.8932Y-4.0682
X6.9212Y-4.1635
X6.9458Y-4.7912
X6.9467Y-4.6501
X6.9587Y-4.1937
X7.Y-3.3967
X7.1228Y-4.5493
X7.2027Y-4.379
X7.2464Y-4.4756
X7.266Y-4.725
X7.3536Y-4.6876
X7.3641Y-4.4994
X7.5263Y-4.9975
X7.5934Y-3.3434
T2
X4.15Y-4.05
X4.25Y-3.95
X4.25Y-4.05
X4.25Y-4.15
T3
X4.75Y-3.775
X4.75Y-3.975
X4.75Y-4.675
X4.75Y-4.875
X4.85Y-3.775
X4.85Y-3.975
X4.85Y-4.675
X4.85Y-4.875
X4.95Y-3.775
X4.95Y-3.975
X4.95Y-4.675
X4.95Y-4.875
X5.05Y-3.775
X5.05Y-3.975
X5.05Y-4.675
X5.05Y-4.875
X5.15Y-3.775
X5.15Y-3.975
X5.15Y-4.675
X5.15Y-4.875
X5.25Y-3.775
X5.25Y-3.975
X5.25Y-4.675
X5.25Y-4.875
X5.35Y-3.775
X5.35Y-3.975
X5.35Y-4.675
X5.35Y-4.875
X5.45Y-3.775
X5.45Y-3.975
X5.45Y-4.675
X5.45Y-4.875
X5.95Y-3.775
X5.95Y-3.975
X5.95Y-4.675
X5.95Y-4.875
X6.05Y-3.775
X6.05Y-3.975
X6.05Y-4.675
X6.05Y-4.875
X6.15Y-3.775
X6.15Y-3.975
X6.15Y-4.675
X6.15Y-4.875
X6.25Y-3.775
X6.25Y-3.975
X6.25Y-4.675
X6.25Y-4.875
X6.35Y-3.775
X6.35Y-3.975
X6.35Y-4.675
X6.35Y-4.875
X6.45Y-3.775
X6.45Y-3.975
X6.45Y-4.675
X6.45Y-4.875
X6.55Y-3.775
X6.55Y-3.975
X6.55Y-4.675
X6.55Y-4.875
X6.65Y-3.775
X6.65Y-3.975
X6.65Y-4.675
X6.65Y-4.875
X7.375Y-3.95
X7.375Y-4.15
T4
X7.875Y-4.45
X7.875Y-4.55
X7.875Y-4.65
T5
X4.59Y-3.1
X4.69Y-3.1
X4.79Y-3.1
X4.89Y-3.1
X4.95Y-5.
X4.99Y-3.1
X5.05Y-5.
X5.09Y-3.1
X5.15Y-5.
X5.19Y-3.1
X5.25Y-5.
X5.29Y-3.1
X5.35Y-5.
X5.39Y-3.1
X5.45Y-5.
X5.49Y-3.1
X5.55Y-5.
X5.65Y-3.1
X5.65Y-5.
X5.75Y-3.1
X5.85Y-3.1
X5.85Y-5.
X5.95Y-3.1
X5.95Y-5.
X6.05Y-3.1
X6.05Y-5.
X6.15Y-3.1
X6.15Y-5.
X6.25Y-3.1
X6.25Y-5.
X6.35Y-3.1
X6.35Y-5.
X6.45Y-5.
X6.55Y-3.1
X6.55Y-5.
X6.65Y-3.1
X6.75Y-3.1
X6.75Y-5.
X6.85Y-3.1
X6.85Y-5.
X6.95Y-3.1
X6.95Y-5.
X7.05Y-3.1
X7.05Y-5.
X7.15Y-3.1
X7.15Y-5.
X7.25Y-3.1
X7.25Y-5.
X7.35Y-5.
X7.45Y-5.
X7.55Y-3.1
X7.55Y-3.2
X7.55Y-3.3
X7.55Y-3.4
X7.55Y-3.5
X7.55Y-3.6
X7.55Y-3.7
X7.55Y-3.8
X7.55Y-3.9
X7.55Y-4.
X7.55Y-4.1
X7.55Y-4.2
X7.55Y-4.3
X7.55Y-4.4
X7.55Y-4.5
X7.55Y-4.6
X7.55Y-4.7
X7.55Y-4.8
X7.65Y-3.1
X7.65Y-3.2
X7.65Y-3.3
X7.65Y-3.4
X7.65Y-3.5
X7.65Y-3.6
X7.65Y-3.7
X7.65Y-3.8
X7.65Y-3.9
X7.65Y-4.
X7.65Y-4.1
X7.65Y-4.2
X7.65Y-4.3
X7.65Y-4.4
X7.65Y-4.5
X7.65Y-4.6
X7.65Y-4.7
X7.65Y-4.8
T6
X4.Y-4.8
X4.1Y-4.8
X4.2Y-4.8
X7.25Y-3.425
X7.25Y-3.525
T7
X8.207Y-4.05
T8
X3.9Y-3.85
X3.9Y-4.25
X7.15Y-4.05
X7.15Y-4.235
T9
X8.089Y-4.05
X8.128Y-3.873
X8.128Y-4.227
T10
X7.853Y-4.05
T11
X4.4Y-5.
X4.45Y-3.1
X7.4Y-3.1
X7.65Y-5.
T0
M30
