M48
;DRILL file {kicad 0.201501052116+5352~20~ubuntu14.04.1-product} date Thu 08 Jan 2015 03:37:36 PM EST
;FORMAT={-:-/ absolute / inch / decimal}
FMAT,2
INCH,TZ
T1C0.025
T2C0.035
T3C0.038
T4C0.039
T5C0.040
T6C0.043
T7C0.063
T8C0.073
T9C0.090
T10C0.106
T11C0.124
T12C0.130
%
G90
G05
M72
T1
X4.8362Y-3.4036
X4.8637Y-3.7924
X4.9014Y-3.4403
X4.9321Y-3.552
X4.9698Y-3.6705
X5.3566Y-3.6722
X5.3649Y-3.7795
X6.0263Y-3.4125
X6.036Y-3.6297
X6.1113Y-3.4117
X6.2733Y-3.562
X6.3227Y-3.5158
X6.4131Y-3.6347
X6.5156Y-3.5952
X6.525Y-3.7795
X6.5532Y-3.6751
X6.9219Y-4.8199
X6.9972Y-4.8025
X7.0074Y-4.3911
X7.0741Y-3.4719
X7.2905Y-4.8261
X7.319Y-4.606
X7.3495Y-4.7126
X7.5868Y-4.05
T2
X4.15Y-4.05
X4.25Y-3.95
X4.25Y-4.05
X4.25Y-4.15
T3
X4.75Y-4.425
X4.75Y-4.625
X4.85Y-4.425
X4.85Y-4.625
X4.95Y-4.425
X4.95Y-4.625
X5.05Y-4.425
X5.05Y-4.625
X5.15Y-4.425
X5.15Y-4.625
X5.25Y-4.425
X5.25Y-4.625
X5.35Y-4.425
X5.35Y-4.625
X5.45Y-4.425
X5.45Y-4.625
X5.95Y-4.425
X5.95Y-4.625
X6.05Y-4.425
X6.05Y-4.625
X6.15Y-4.425
X6.15Y-4.625
X6.25Y-4.425
X6.25Y-4.625
X6.35Y-4.425
X6.35Y-4.625
X6.45Y-4.425
X6.45Y-4.625
X6.55Y-4.425
X6.55Y-4.625
X6.65Y-4.425
X6.65Y-4.625
X7.375Y-3.95
X7.375Y-4.15
T4
X7.875Y-4.45
X7.875Y-4.55
X7.875Y-4.65
T5
X4.59Y-3.1
X4.69Y-3.1
X4.75Y-4.
X4.75Y-4.1
X4.79Y-3.1
X4.85Y-4.
X4.85Y-4.1
X4.89Y-3.1
X4.95Y-4.
X4.95Y-4.1
X4.95Y-5.
X4.99Y-3.1
X5.05Y-4.
X5.05Y-4.1
X5.05Y-5.
X5.09Y-3.1
X5.15Y-4.
X5.15Y-4.1
X5.15Y-5.
X5.19Y-3.1
X5.25Y-4.
X5.25Y-4.1
X5.25Y-5.
X5.29Y-3.1
X5.35Y-4.
X5.35Y-4.1
X5.35Y-5.
X5.39Y-3.1
X5.45Y-4.
X5.45Y-4.1
X5.45Y-5.
X5.49Y-3.1
X5.55Y-5.
X5.65Y-3.1
X5.65Y-5.
X5.75Y-3.1
X5.85Y-3.1
X5.85Y-5.
X5.95Y-3.1
X5.95Y-4.
X5.95Y-4.1
X5.95Y-5.
X6.05Y-3.1
X6.05Y-4.
X6.05Y-4.1
X6.05Y-5.
X6.15Y-3.1
X6.15Y-4.
X6.15Y-4.1
X6.15Y-5.
X6.25Y-3.1
X6.25Y-4.
X6.25Y-4.1
X6.25Y-5.
X6.35Y-3.1
X6.35Y-4.
X6.35Y-4.1
X6.35Y-5.
X6.45Y-4.
X6.45Y-4.1
X6.45Y-5.
X6.55Y-3.1
X6.55Y-4.
X6.55Y-4.1
X6.55Y-5.
X6.65Y-3.1
X6.65Y-4.
X6.65Y-4.1
X6.75Y-3.1
X6.75Y-5.
X6.85Y-3.1
X6.85Y-5.
X6.95Y-3.1
X6.95Y-5.
X7.05Y-3.1
X7.05Y-5.
X7.15Y-3.1
X7.15Y-5.
X7.25Y-3.1
X7.25Y-5.
X7.35Y-5.
X7.45Y-5.
X7.55Y-3.1
X7.55Y-3.2
X7.55Y-3.3
X7.55Y-3.4
X7.55Y-3.5
X7.55Y-3.6
X7.55Y-3.7
X7.55Y-3.8
X7.55Y-3.9
X7.55Y-4.
X7.55Y-4.1
X7.55Y-4.2
X7.55Y-4.3
X7.55Y-4.4
X7.55Y-4.5
X7.55Y-4.6
X7.55Y-4.7
X7.55Y-4.8
X7.65Y-3.1
X7.65Y-3.2
X7.65Y-3.3
X7.65Y-3.4
X7.65Y-3.5
X7.65Y-3.6
X7.65Y-3.7
X7.65Y-3.8
X7.65Y-3.9
X7.65Y-4.
X7.65Y-4.1
X7.65Y-4.2
X7.65Y-4.3
X7.65Y-4.4
X7.65Y-4.5
X7.65Y-4.6
X7.65Y-4.7
X7.65Y-4.8
T6
X4.Y-4.8
X4.1Y-4.8
X4.2Y-4.8
T7
X8.207Y-4.05
T8
X7.15Y-4.05
X7.15Y-4.235
T9
X3.9Y-3.85
X3.9Y-4.25
T10
X8.089Y-4.05
X8.128Y-3.873
X8.128Y-4.227
T11
X7.853Y-4.05
T12
X4.4Y-5.
X4.45Y-3.1
X7.4Y-3.1
X7.65Y-5.
T0
M30
