M48
;DRILL file {KiCad 0.201508100901+6080~28~ubuntu14.04.1-product} date Mon 10 Aug 2015 04:19:53 PM EDT
;FORMAT={-:-/ absolute / inch / decimal}
FMAT,2
INCH,TZ
T1C0.025
T2C0.035
T3C0.038
T4C0.039
T5C0.040
T6C0.043
T7C0.063
T8C0.090
T9C0.106
T10C0.124
T11C0.130
%
G90
G05
M72
T1
X4.45Y-3.35
X4.6Y-3.5
X4.6631Y-4.3417
X4.7006Y-4.5199
X4.802Y-4.3403
X5.0929Y-3.5095
X5.1Y-3.6723
X5.1769Y-4.3988
X5.2657Y-4.3989
X5.3Y-3.4462
X5.4102Y-4.117
X5.5056Y-4.5867
X5.5113Y-4.525
X5.5224Y-3.2835
X5.5825Y-4.1541
X5.616Y-4.766
X5.7339Y-3.5712
X5.7696Y-4.4309
X5.7748Y-4.0922
X5.7843Y-3.9768
X5.8248Y-4.0978
X5.9012Y-3.2573
X6.Y-4.468
X6.0431Y-4.4014
X6.0729Y-3.5018
X6.1681Y-3.4994
X6.3Y-3.6782
X6.3525Y-3.5
X6.5Y-4.3417
X6.5033Y-4.6223
X6.5227Y-4.0575
X6.5358Y-4.3995
X6.6126Y-3.2573
X6.698Y-3.0453
X6.7507Y-3.6824
X6.7533Y-4.0361
X6.7898Y-3.0105
X6.87Y-4.0418
X6.8735Y-4.45
X6.995Y-3.3851
X7.0057Y-4.8442
X7.0772Y-4.4644
X7.2384Y-4.5483
X7.2693Y-4.7266
X7.372Y-3.35
X7.8Y-3.75
X8.Y-3.4
T2
X4.15Y-4.05
X4.25Y-3.95
X4.25Y-4.05
X4.25Y-4.15
T3
X4.75Y-3.775
X4.75Y-3.975
X4.75Y-4.675
X4.75Y-4.875
X4.85Y-3.775
X4.85Y-3.975
X4.85Y-4.675
X4.85Y-4.875
X4.95Y-3.775
X4.95Y-3.975
X4.95Y-4.675
X4.95Y-4.875
X5.05Y-3.775
X5.05Y-3.975
X5.05Y-4.675
X5.05Y-4.875
X5.15Y-3.775
X5.15Y-3.975
X5.15Y-4.675
X5.15Y-4.875
X5.25Y-3.775
X5.25Y-3.975
X5.25Y-4.675
X5.25Y-4.875
X5.35Y-3.775
X5.35Y-3.975
X5.35Y-4.675
X5.35Y-4.875
X5.45Y-3.775
X5.45Y-3.975
X5.45Y-4.675
X5.45Y-4.875
X5.95Y-3.775
X5.95Y-3.975
X5.95Y-4.675
X5.95Y-4.875
X6.05Y-3.775
X6.05Y-3.975
X6.05Y-4.675
X6.05Y-4.875
X6.15Y-3.775
X6.15Y-3.975
X6.15Y-4.675
X6.15Y-4.875
X6.25Y-3.775
X6.25Y-3.975
X6.25Y-4.675
X6.25Y-4.875
X6.35Y-3.775
X6.35Y-3.975
X6.35Y-4.675
X6.35Y-4.875
X6.45Y-3.775
X6.45Y-3.975
X6.45Y-4.675
X6.45Y-4.875
X6.55Y-3.775
X6.55Y-3.975
X6.55Y-4.675
X6.55Y-4.875
X6.65Y-3.775
X6.65Y-3.975
X6.65Y-4.675
X6.65Y-4.875
X7.075Y-4.375
X7.275Y-4.375
T4
X7.875Y-4.45
X7.875Y-4.55
X7.875Y-4.65
T5
X4.59Y-3.1
X4.69Y-3.1
X4.79Y-3.1
X4.89Y-3.1
X4.95Y-5.
X4.99Y-3.1
X5.05Y-5.
X5.09Y-3.1
X5.15Y-5.
X5.19Y-3.1
X5.25Y-5.
X5.29Y-3.1
X5.35Y-5.
X5.39Y-3.1
X5.45Y-5.
X5.49Y-3.1
X5.55Y-5.
X5.65Y-3.1
X5.65Y-5.
X5.75Y-3.1
X5.85Y-3.1
X5.85Y-5.
X5.95Y-3.1
X5.95Y-5.
X6.05Y-3.1
X6.05Y-5.
X6.15Y-3.1
X6.15Y-5.
X6.25Y-3.1
X6.25Y-5.
X6.35Y-3.1
X6.35Y-5.
X6.45Y-5.
X6.55Y-3.1
X6.55Y-5.
X6.65Y-3.1
X6.75Y-3.1
X6.75Y-5.
X6.85Y-3.1
X6.85Y-5.
X6.95Y-3.1
X6.95Y-5.
X7.05Y-3.1
X7.05Y-5.
X7.15Y-3.1
X7.15Y-5.
X7.25Y-3.1
X7.25Y-5.
X7.35Y-5.
X7.45Y-5.
X7.55Y-3.1
X7.55Y-3.2
X7.55Y-3.3
X7.55Y-3.4
X7.55Y-3.5
X7.55Y-3.6
X7.55Y-3.7
X7.55Y-3.8
X7.55Y-3.9
X7.55Y-4.
X7.55Y-4.1
X7.55Y-4.2
X7.55Y-4.3
X7.55Y-4.4
X7.55Y-4.5
X7.55Y-4.6
X7.55Y-4.7
X7.55Y-4.8
X7.65Y-3.1
X7.65Y-3.2
X7.65Y-3.3
X7.65Y-3.4
X7.65Y-3.5
X7.65Y-3.6
X7.65Y-3.7
X7.65Y-3.8
X7.65Y-3.9
X7.65Y-4.
X7.65Y-4.1
X7.65Y-4.2
X7.65Y-4.3
X7.65Y-4.4
X7.65Y-4.5
X7.65Y-4.6
X7.65Y-4.7
X7.65Y-4.8
T6
X4.Y-4.8
X4.1Y-4.8
X4.2Y-4.8
X7.25Y-3.425
X7.25Y-3.525
T7
X8.207Y-4.05
T8
X3.9Y-3.85
X3.9Y-4.25
X7.0805Y-4.05
X7.0805Y-4.235
X7.2695Y-4.05
X7.2695Y-4.235
T9
X8.089Y-4.05
X8.128Y-3.873
X8.128Y-4.227
T10
X7.853Y-4.05
T11
X4.4Y-5.
X4.45Y-3.1
X7.4Y-3.1
X7.65Y-5.
T0
M30
