G04 #@! TF.FileFunction,Legend,Bot*
%FSLAX46Y46*%
G04 Gerber Fmt 4.6, Leading zero omitted, Abs format (unit mm)*
G04 Created by KiCad (PCBNEW 4.1.0-alpha+201606220817+6945~45~ubuntu16.04.1-product) date Wed Jun 22 14:42:33 2016*
%MOMM*%
%LPD*%
G01*
G04 APERTURE LIST*
%ADD10C,0.100000*%
%ADD11C,0.228600*%
%ADD12C,0.127000*%
%ADD13C,0.381000*%
%ADD14C,0.254000*%
%ADD15R,1.270000X2.540000*%
%ADD16O,1.524000X2.540000*%
%ADD17C,1.930400*%
%ADD18O,4.572000X3.556000*%
%ADD19O,4.064000X5.080000*%
%ADD20O,5.080000X3.556000*%
%ADD21O,5.080000X3.048000*%
%ADD22O,2.032000X1.524000*%
%ADD23O,1.524000X2.032000*%
%ADD24C,3.759200*%
%ADD25O,2.540000X1.524000*%
%ADD26C,1.600200*%
%ADD27R,1.778000X4.191000*%
%ADD28R,2.997200X5.029200*%
%ADD29R,1.930000X0.550000*%
%ADD30O,1.651000X2.159000*%
G04 APERTURE END LIST*
D10*
D11*
X211455000Y-75311000D02*
X93345000Y-75311000D01*
X211455000Y-130429000D02*
X211455000Y-75311000D01*
X93345000Y-130429000D02*
X211455000Y-130429000D01*
X93345000Y-75311000D02*
X93345000Y-130429000D01*
D12*
X144018000Y-124587000D02*
X142494000Y-124587000D01*
X142494000Y-124587000D02*
X142494000Y-121793000D01*
X142494000Y-121793000D02*
X144018000Y-121793000D01*
X145542000Y-121793000D02*
X147066000Y-121793000D01*
X147066000Y-121793000D02*
X147066000Y-124587000D01*
X147066000Y-124587000D02*
X145542000Y-124587000D01*
X200533000Y-99822000D02*
X199009000Y-99822000D01*
X199009000Y-99822000D02*
X199009000Y-97028000D01*
X199009000Y-97028000D02*
X200533000Y-97028000D01*
X202057000Y-97028000D02*
X203581000Y-97028000D01*
X203581000Y-97028000D02*
X203581000Y-99822000D01*
X203581000Y-99822000D02*
X202057000Y-99822000D01*
X105537000Y-107188000D02*
X107061000Y-107188000D01*
X107061000Y-107188000D02*
X107061000Y-109982000D01*
X107061000Y-109982000D02*
X105537000Y-109982000D01*
X104013000Y-109982000D02*
X102489000Y-109982000D01*
X102489000Y-109982000D02*
X102489000Y-107188000D01*
X102489000Y-107188000D02*
X104013000Y-107188000D01*
X179578000Y-124587000D02*
X178054000Y-124587000D01*
X178054000Y-124587000D02*
X178054000Y-121793000D01*
X178054000Y-121793000D02*
X179578000Y-121793000D01*
X181102000Y-121793000D02*
X182626000Y-121793000D01*
X182626000Y-121793000D02*
X182626000Y-124587000D01*
X182626000Y-124587000D02*
X181102000Y-124587000D01*
D13*
X210185000Y-71120000D02*
X197485000Y-71120000D01*
X197485000Y-71120000D02*
X197485000Y-85090000D01*
X210185000Y-71120000D02*
X210185000Y-85090000D01*
X210185000Y-85090000D02*
X197485000Y-85090000D01*
X197485000Y-134620000D02*
X210185000Y-134620000D01*
X210185000Y-134620000D02*
X210185000Y-120650000D01*
X197485000Y-134620000D02*
X197485000Y-120650000D01*
X197485000Y-120650000D02*
X210185000Y-120650000D01*
D12*
X101473000Y-118872000D02*
X99949000Y-118872000D01*
X99949000Y-118872000D02*
X99949000Y-116078000D01*
X99949000Y-116078000D02*
X101473000Y-116078000D01*
X102997000Y-116078000D02*
X104521000Y-116078000D01*
X104521000Y-116078000D02*
X104521000Y-118872000D01*
X104521000Y-118872000D02*
X102997000Y-118872000D01*
X179578000Y-101727000D02*
X178054000Y-101727000D01*
X178054000Y-101727000D02*
X178054000Y-98933000D01*
X178054000Y-98933000D02*
X179578000Y-98933000D01*
X181102000Y-98933000D02*
X182626000Y-98933000D01*
X182626000Y-98933000D02*
X182626000Y-101727000D01*
X182626000Y-101727000D02*
X181102000Y-101727000D01*
X144018000Y-101727000D02*
X142494000Y-101727000D01*
X142494000Y-101727000D02*
X142494000Y-98933000D01*
X142494000Y-98933000D02*
X144018000Y-98933000D01*
X145542000Y-98933000D02*
X147066000Y-98933000D01*
X147066000Y-98933000D02*
X147066000Y-101727000D01*
X147066000Y-101727000D02*
X145542000Y-101727000D01*
D13*
X149530000Y-105260000D02*
G75*
G03X149530000Y-105260000I-750000J0D01*
G01*
X150280000Y-104760000D02*
X150280000Y-119760000D01*
X150280000Y-119760000D02*
X139280000Y-119760000D01*
X139280000Y-119760000D02*
X139280000Y-103760000D01*
X139280000Y-103760000D02*
X149280000Y-103760000D01*
X149280000Y-103760000D02*
X150280000Y-104760000D01*
X185090000Y-105260000D02*
G75*
G03X185090000Y-105260000I-750000J0D01*
G01*
X185840000Y-104760000D02*
X185840000Y-119760000D01*
X185840000Y-119760000D02*
X174840000Y-119760000D01*
X174840000Y-119760000D02*
X174840000Y-103760000D01*
X174840000Y-103760000D02*
X184840000Y-103760000D01*
X184840000Y-103760000D02*
X185840000Y-104760000D01*
X149530000Y-82400000D02*
G75*
G03X149530000Y-82400000I-750000J0D01*
G01*
X150280000Y-81900000D02*
X150280000Y-96900000D01*
X150280000Y-96900000D02*
X139280000Y-96900000D01*
X139280000Y-96900000D02*
X139280000Y-80900000D01*
X139280000Y-80900000D02*
X149280000Y-80900000D01*
X149280000Y-80900000D02*
X150280000Y-81900000D01*
X185090000Y-82400000D02*
G75*
G03X185090000Y-82400000I-750000J0D01*
G01*
X185840000Y-81900000D02*
X185840000Y-96900000D01*
X185840000Y-96900000D02*
X174840000Y-96900000D01*
X174840000Y-96900000D02*
X174840000Y-80900000D01*
X174840000Y-80900000D02*
X184840000Y-80900000D01*
X184840000Y-80900000D02*
X185840000Y-81900000D01*
D14*
X148317857Y-123020666D02*
X148366238Y-122972285D01*
X148414619Y-122827142D01*
X148414619Y-122730380D01*
X148366238Y-122585238D01*
X148269476Y-122488476D01*
X148172714Y-122440095D01*
X147979190Y-122391714D01*
X147834047Y-122391714D01*
X147640523Y-122440095D01*
X147543761Y-122488476D01*
X147447000Y-122585238D01*
X147398619Y-122730380D01*
X147398619Y-122827142D01*
X147447000Y-122972285D01*
X147495380Y-123020666D01*
X147398619Y-123359333D02*
X147398619Y-124036666D01*
X148414619Y-123601238D01*
X141048619Y-121520857D02*
X141048619Y-121617619D01*
X141097000Y-121714380D01*
X141145380Y-121762761D01*
X141242142Y-121811142D01*
X141435666Y-121859523D01*
X141677571Y-121859523D01*
X141871095Y-121811142D01*
X141967857Y-121762761D01*
X142016238Y-121714380D01*
X142064619Y-121617619D01*
X142064619Y-121520857D01*
X142016238Y-121424095D01*
X141967857Y-121375714D01*
X141871095Y-121327333D01*
X141677571Y-121278952D01*
X141435666Y-121278952D01*
X141242142Y-121327333D01*
X141145380Y-121375714D01*
X141097000Y-121424095D01*
X141048619Y-121520857D01*
X141967857Y-122294952D02*
X142016238Y-122343333D01*
X142064619Y-122294952D01*
X142016238Y-122246571D01*
X141967857Y-122294952D01*
X142064619Y-122294952D01*
X142064619Y-123310952D02*
X142064619Y-122730380D01*
X142064619Y-123020666D02*
X141048619Y-123020666D01*
X141193761Y-122923904D01*
X141290523Y-122827142D01*
X141338904Y-122730380D01*
X141387285Y-124181809D02*
X142064619Y-124181809D01*
X141387285Y-123746380D02*
X141919476Y-123746380D01*
X142016238Y-123794761D01*
X142064619Y-123891523D01*
X142064619Y-124036666D01*
X142016238Y-124133428D01*
X141967857Y-124181809D01*
X141532428Y-125004285D02*
X141532428Y-124665619D01*
X142064619Y-124665619D02*
X141048619Y-124665619D01*
X141048619Y-125149428D01*
X201464333Y-96247857D02*
X201512714Y-96296238D01*
X201657857Y-96344619D01*
X201754619Y-96344619D01*
X201899761Y-96296238D01*
X201996523Y-96199476D01*
X202044904Y-96102714D01*
X202093285Y-95909190D01*
X202093285Y-95764047D01*
X202044904Y-95570523D01*
X201996523Y-95473761D01*
X201899761Y-95377000D01*
X201754619Y-95328619D01*
X201657857Y-95328619D01*
X201512714Y-95377000D01*
X201464333Y-95425380D01*
X200496714Y-96344619D02*
X201077285Y-96344619D01*
X200787000Y-96344619D02*
X200787000Y-95328619D01*
X200883761Y-95473761D01*
X200980523Y-95570523D01*
X201077285Y-95618904D01*
X198579619Y-97336428D02*
X198579619Y-96755857D01*
X198579619Y-97046142D02*
X197563619Y-97046142D01*
X197708761Y-96949380D01*
X197805523Y-96852619D01*
X197853904Y-96755857D01*
X197563619Y-97965380D02*
X197563619Y-98062142D01*
X197612000Y-98158904D01*
X197660380Y-98207285D01*
X197757142Y-98255666D01*
X197950666Y-98304047D01*
X198192571Y-98304047D01*
X198386095Y-98255666D01*
X198482857Y-98207285D01*
X198531238Y-98158904D01*
X198579619Y-98062142D01*
X198579619Y-97965380D01*
X198531238Y-97868619D01*
X198482857Y-97820238D01*
X198386095Y-97771857D01*
X198192571Y-97723476D01*
X197950666Y-97723476D01*
X197757142Y-97771857D01*
X197660380Y-97820238D01*
X197612000Y-97868619D01*
X197563619Y-97965380D01*
X197902285Y-99174904D02*
X198579619Y-99174904D01*
X197902285Y-98739476D02*
X198434476Y-98739476D01*
X198531238Y-98787857D01*
X198579619Y-98884619D01*
X198579619Y-99029761D01*
X198531238Y-99126523D01*
X198482857Y-99174904D01*
X198047428Y-99997380D02*
X198047428Y-99658714D01*
X198579619Y-99658714D02*
X197563619Y-99658714D01*
X197563619Y-100142523D01*
X104944333Y-106661857D02*
X104992714Y-106710238D01*
X105137857Y-106758619D01*
X105234619Y-106758619D01*
X105379761Y-106710238D01*
X105476523Y-106613476D01*
X105524904Y-106516714D01*
X105573285Y-106323190D01*
X105573285Y-106178047D01*
X105524904Y-105984523D01*
X105476523Y-105887761D01*
X105379761Y-105791000D01*
X105234619Y-105742619D01*
X105137857Y-105742619D01*
X104992714Y-105791000D01*
X104944333Y-105839380D01*
X104557285Y-105839380D02*
X104508904Y-105791000D01*
X104412142Y-105742619D01*
X104170238Y-105742619D01*
X104073476Y-105791000D01*
X104025095Y-105839380D01*
X103976714Y-105936142D01*
X103976714Y-106032904D01*
X104025095Y-106178047D01*
X104605666Y-106758619D01*
X103976714Y-106758619D01*
X105863571Y-111330619D02*
X106444142Y-111330619D01*
X106153857Y-111330619D02*
X106153857Y-110314619D01*
X106250619Y-110459761D01*
X106347380Y-110556523D01*
X106444142Y-110604904D01*
X105234619Y-110314619D02*
X105137857Y-110314619D01*
X105041095Y-110363000D01*
X104992714Y-110411380D01*
X104944333Y-110508142D01*
X104895952Y-110701666D01*
X104895952Y-110943571D01*
X104944333Y-111137095D01*
X104992714Y-111233857D01*
X105041095Y-111282238D01*
X105137857Y-111330619D01*
X105234619Y-111330619D01*
X105331380Y-111282238D01*
X105379761Y-111233857D01*
X105428142Y-111137095D01*
X105476523Y-110943571D01*
X105476523Y-110701666D01*
X105428142Y-110508142D01*
X105379761Y-110411380D01*
X105331380Y-110363000D01*
X105234619Y-110314619D01*
X104025095Y-110653285D02*
X104025095Y-111330619D01*
X104460523Y-110653285D02*
X104460523Y-111185476D01*
X104412142Y-111282238D01*
X104315380Y-111330619D01*
X104170238Y-111330619D01*
X104073476Y-111282238D01*
X104025095Y-111233857D01*
X103202619Y-110798428D02*
X103541285Y-110798428D01*
X103541285Y-111330619D02*
X103541285Y-110314619D01*
X103057476Y-110314619D01*
X183877857Y-123020666D02*
X183926238Y-122972285D01*
X183974619Y-122827142D01*
X183974619Y-122730380D01*
X183926238Y-122585238D01*
X183829476Y-122488476D01*
X183732714Y-122440095D01*
X183539190Y-122391714D01*
X183394047Y-122391714D01*
X183200523Y-122440095D01*
X183103761Y-122488476D01*
X183007000Y-122585238D01*
X182958619Y-122730380D01*
X182958619Y-122827142D01*
X183007000Y-122972285D01*
X183055380Y-123020666D01*
X182958619Y-123891523D02*
X182958619Y-123698000D01*
X183007000Y-123601238D01*
X183055380Y-123552857D01*
X183200523Y-123456095D01*
X183394047Y-123407714D01*
X183781095Y-123407714D01*
X183877857Y-123456095D01*
X183926238Y-123504476D01*
X183974619Y-123601238D01*
X183974619Y-123794761D01*
X183926238Y-123891523D01*
X183877857Y-123939904D01*
X183781095Y-123988285D01*
X183539190Y-123988285D01*
X183442428Y-123939904D01*
X183394047Y-123891523D01*
X183345666Y-123794761D01*
X183345666Y-123601238D01*
X183394047Y-123504476D01*
X183442428Y-123456095D01*
X183539190Y-123407714D01*
X176608619Y-121520857D02*
X176608619Y-121617619D01*
X176657000Y-121714380D01*
X176705380Y-121762761D01*
X176802142Y-121811142D01*
X176995666Y-121859523D01*
X177237571Y-121859523D01*
X177431095Y-121811142D01*
X177527857Y-121762761D01*
X177576238Y-121714380D01*
X177624619Y-121617619D01*
X177624619Y-121520857D01*
X177576238Y-121424095D01*
X177527857Y-121375714D01*
X177431095Y-121327333D01*
X177237571Y-121278952D01*
X176995666Y-121278952D01*
X176802142Y-121327333D01*
X176705380Y-121375714D01*
X176657000Y-121424095D01*
X176608619Y-121520857D01*
X177527857Y-122294952D02*
X177576238Y-122343333D01*
X177624619Y-122294952D01*
X177576238Y-122246571D01*
X177527857Y-122294952D01*
X177624619Y-122294952D01*
X177624619Y-123310952D02*
X177624619Y-122730380D01*
X177624619Y-123020666D02*
X176608619Y-123020666D01*
X176753761Y-122923904D01*
X176850523Y-122827142D01*
X176898904Y-122730380D01*
X176947285Y-124181809D02*
X177624619Y-124181809D01*
X176947285Y-123746380D02*
X177479476Y-123746380D01*
X177576238Y-123794761D01*
X177624619Y-123891523D01*
X177624619Y-124036666D01*
X177576238Y-124133428D01*
X177527857Y-124181809D01*
X177092428Y-125004285D02*
X177092428Y-124665619D01*
X177624619Y-124665619D02*
X176608619Y-124665619D01*
X176608619Y-125149428D01*
X210299904Y-86819619D02*
X210299904Y-85803619D01*
X209912857Y-85803619D01*
X209816095Y-85852000D01*
X209767714Y-85900380D01*
X209719333Y-85997142D01*
X209719333Y-86142285D01*
X209767714Y-86239047D01*
X209816095Y-86287428D01*
X209912857Y-86335809D01*
X210299904Y-86335809D01*
X209380666Y-85803619D02*
X208751714Y-85803619D01*
X209090380Y-86190666D01*
X208945238Y-86190666D01*
X208848476Y-86239047D01*
X208800095Y-86287428D01*
X208751714Y-86384190D01*
X208751714Y-86626095D01*
X208800095Y-86722857D01*
X208848476Y-86771238D01*
X208945238Y-86819619D01*
X209235523Y-86819619D01*
X209332285Y-86771238D01*
X209380666Y-86722857D01*
X198869904Y-119839619D02*
X198869904Y-118823619D01*
X198482857Y-118823619D01*
X198386095Y-118872000D01*
X198337714Y-118920380D01*
X198289333Y-119017142D01*
X198289333Y-119162285D01*
X198337714Y-119259047D01*
X198386095Y-119307428D01*
X198482857Y-119355809D01*
X198869904Y-119355809D01*
X197370095Y-118823619D02*
X197853904Y-118823619D01*
X197902285Y-119307428D01*
X197853904Y-119259047D01*
X197757142Y-119210666D01*
X197515238Y-119210666D01*
X197418476Y-119259047D01*
X197370095Y-119307428D01*
X197321714Y-119404190D01*
X197321714Y-119646095D01*
X197370095Y-119742857D01*
X197418476Y-119791238D01*
X197515238Y-119839619D01*
X197757142Y-119839619D01*
X197853904Y-119791238D01*
X197902285Y-119742857D01*
X102404333Y-120123857D02*
X102452714Y-120172238D01*
X102597857Y-120220619D01*
X102694619Y-120220619D01*
X102839761Y-120172238D01*
X102936523Y-120075476D01*
X102984904Y-119978714D01*
X103033285Y-119785190D01*
X103033285Y-119640047D01*
X102984904Y-119446523D01*
X102936523Y-119349761D01*
X102839761Y-119253000D01*
X102694619Y-119204619D01*
X102597857Y-119204619D01*
X102452714Y-119253000D01*
X102404333Y-119301380D01*
X102065666Y-119204619D02*
X101436714Y-119204619D01*
X101775380Y-119591666D01*
X101630238Y-119591666D01*
X101533476Y-119640047D01*
X101485095Y-119688428D01*
X101436714Y-119785190D01*
X101436714Y-120027095D01*
X101485095Y-120123857D01*
X101533476Y-120172238D01*
X101630238Y-120220619D01*
X101920523Y-120220619D01*
X102017285Y-120172238D01*
X102065666Y-120123857D01*
X103323571Y-115648619D02*
X103904142Y-115648619D01*
X103613857Y-115648619D02*
X103613857Y-114632619D01*
X103710619Y-114777761D01*
X103807380Y-114874523D01*
X103904142Y-114922904D01*
X102694619Y-114632619D02*
X102597857Y-114632619D01*
X102501095Y-114681000D01*
X102452714Y-114729380D01*
X102404333Y-114826142D01*
X102355952Y-115019666D01*
X102355952Y-115261571D01*
X102404333Y-115455095D01*
X102452714Y-115551857D01*
X102501095Y-115600238D01*
X102597857Y-115648619D01*
X102694619Y-115648619D01*
X102791380Y-115600238D01*
X102839761Y-115551857D01*
X102888142Y-115455095D01*
X102936523Y-115261571D01*
X102936523Y-115019666D01*
X102888142Y-114826142D01*
X102839761Y-114729380D01*
X102791380Y-114681000D01*
X102694619Y-114632619D01*
X101485095Y-114971285D02*
X101485095Y-115648619D01*
X101920523Y-114971285D02*
X101920523Y-115503476D01*
X101872142Y-115600238D01*
X101775380Y-115648619D01*
X101630238Y-115648619D01*
X101533476Y-115600238D01*
X101485095Y-115551857D01*
X100662619Y-115116428D02*
X101001285Y-115116428D01*
X101001285Y-115648619D02*
X101001285Y-114632619D01*
X100517476Y-114632619D01*
X183877857Y-100160666D02*
X183926238Y-100112285D01*
X183974619Y-99967142D01*
X183974619Y-99870380D01*
X183926238Y-99725238D01*
X183829476Y-99628476D01*
X183732714Y-99580095D01*
X183539190Y-99531714D01*
X183394047Y-99531714D01*
X183200523Y-99580095D01*
X183103761Y-99628476D01*
X183007000Y-99725238D01*
X182958619Y-99870380D01*
X182958619Y-99967142D01*
X183007000Y-100112285D01*
X183055380Y-100160666D01*
X183297285Y-101031523D02*
X183974619Y-101031523D01*
X182910238Y-100789619D02*
X183635952Y-100547714D01*
X183635952Y-101176666D01*
X176608619Y-98660857D02*
X176608619Y-98757619D01*
X176657000Y-98854380D01*
X176705380Y-98902761D01*
X176802142Y-98951142D01*
X176995666Y-98999523D01*
X177237571Y-98999523D01*
X177431095Y-98951142D01*
X177527857Y-98902761D01*
X177576238Y-98854380D01*
X177624619Y-98757619D01*
X177624619Y-98660857D01*
X177576238Y-98564095D01*
X177527857Y-98515714D01*
X177431095Y-98467333D01*
X177237571Y-98418952D01*
X176995666Y-98418952D01*
X176802142Y-98467333D01*
X176705380Y-98515714D01*
X176657000Y-98564095D01*
X176608619Y-98660857D01*
X177527857Y-99434952D02*
X177576238Y-99483333D01*
X177624619Y-99434952D01*
X177576238Y-99386571D01*
X177527857Y-99434952D01*
X177624619Y-99434952D01*
X177624619Y-100450952D02*
X177624619Y-99870380D01*
X177624619Y-100160666D02*
X176608619Y-100160666D01*
X176753761Y-100063904D01*
X176850523Y-99967142D01*
X176898904Y-99870380D01*
X176947285Y-101321809D02*
X177624619Y-101321809D01*
X176947285Y-100886380D02*
X177479476Y-100886380D01*
X177576238Y-100934761D01*
X177624619Y-101031523D01*
X177624619Y-101176666D01*
X177576238Y-101273428D01*
X177527857Y-101321809D01*
X177092428Y-102144285D02*
X177092428Y-101805619D01*
X177624619Y-101805619D02*
X176608619Y-101805619D01*
X176608619Y-102289428D01*
X148317857Y-100160666D02*
X148366238Y-100112285D01*
X148414619Y-99967142D01*
X148414619Y-99870380D01*
X148366238Y-99725238D01*
X148269476Y-99628476D01*
X148172714Y-99580095D01*
X147979190Y-99531714D01*
X147834047Y-99531714D01*
X147640523Y-99580095D01*
X147543761Y-99628476D01*
X147447000Y-99725238D01*
X147398619Y-99870380D01*
X147398619Y-99967142D01*
X147447000Y-100112285D01*
X147495380Y-100160666D01*
X147398619Y-101079904D02*
X147398619Y-100596095D01*
X147882428Y-100547714D01*
X147834047Y-100596095D01*
X147785666Y-100692857D01*
X147785666Y-100934761D01*
X147834047Y-101031523D01*
X147882428Y-101079904D01*
X147979190Y-101128285D01*
X148221095Y-101128285D01*
X148317857Y-101079904D01*
X148366238Y-101031523D01*
X148414619Y-100934761D01*
X148414619Y-100692857D01*
X148366238Y-100596095D01*
X148317857Y-100547714D01*
X141048619Y-98660857D02*
X141048619Y-98757619D01*
X141097000Y-98854380D01*
X141145380Y-98902761D01*
X141242142Y-98951142D01*
X141435666Y-98999523D01*
X141677571Y-98999523D01*
X141871095Y-98951142D01*
X141967857Y-98902761D01*
X142016238Y-98854380D01*
X142064619Y-98757619D01*
X142064619Y-98660857D01*
X142016238Y-98564095D01*
X141967857Y-98515714D01*
X141871095Y-98467333D01*
X141677571Y-98418952D01*
X141435666Y-98418952D01*
X141242142Y-98467333D01*
X141145380Y-98515714D01*
X141097000Y-98564095D01*
X141048619Y-98660857D01*
X141967857Y-99434952D02*
X142016238Y-99483333D01*
X142064619Y-99434952D01*
X142016238Y-99386571D01*
X141967857Y-99434952D01*
X142064619Y-99434952D01*
X142064619Y-100450952D02*
X142064619Y-99870380D01*
X142064619Y-100160666D02*
X141048619Y-100160666D01*
X141193761Y-100063904D01*
X141290523Y-99967142D01*
X141338904Y-99870380D01*
X141387285Y-101321809D02*
X142064619Y-101321809D01*
X141387285Y-100886380D02*
X141919476Y-100886380D01*
X142016238Y-100934761D01*
X142064619Y-101031523D01*
X142064619Y-101176666D01*
X142016238Y-101273428D01*
X141967857Y-101321809D01*
X141532428Y-102144285D02*
X141532428Y-101805619D01*
X142064619Y-101805619D02*
X141048619Y-101805619D01*
X141048619Y-102289428D01*
X152304095Y-104453619D02*
X152304095Y-105276095D01*
X152255714Y-105372857D01*
X152207333Y-105421238D01*
X152110571Y-105469619D01*
X151917047Y-105469619D01*
X151820285Y-105421238D01*
X151771904Y-105372857D01*
X151723523Y-105276095D01*
X151723523Y-104453619D01*
X150804285Y-104792285D02*
X150804285Y-105469619D01*
X151046190Y-104405238D02*
X151288095Y-105130952D01*
X150659142Y-105130952D01*
X144223619Y-108155619D02*
X144223619Y-108736190D01*
X145239619Y-108445904D02*
X144223619Y-108445904D01*
X145239619Y-109558666D02*
X145239619Y-109074857D01*
X144223619Y-109074857D01*
X144707428Y-109897333D02*
X144707428Y-110236000D01*
X145239619Y-110381142D02*
X145239619Y-109897333D01*
X144223619Y-109897333D01*
X144223619Y-110381142D01*
X144223619Y-110719809D02*
X144223619Y-111397142D01*
X145239619Y-110961714D01*
X144320380Y-111735809D02*
X144272000Y-111784190D01*
X144223619Y-111880952D01*
X144223619Y-112122857D01*
X144272000Y-112219619D01*
X144320380Y-112268000D01*
X144417142Y-112316380D01*
X144513904Y-112316380D01*
X144659047Y-112268000D01*
X145239619Y-111687428D01*
X145239619Y-112316380D01*
X144223619Y-112655047D02*
X144223619Y-113284000D01*
X144610666Y-112945333D01*
X144610666Y-113090476D01*
X144659047Y-113187238D01*
X144707428Y-113235619D01*
X144804190Y-113284000D01*
X145046095Y-113284000D01*
X145142857Y-113235619D01*
X145191238Y-113187238D01*
X145239619Y-113090476D01*
X145239619Y-112800190D01*
X145191238Y-112703428D01*
X145142857Y-112655047D01*
X144223619Y-113912952D02*
X144223619Y-114009714D01*
X144272000Y-114106476D01*
X144320380Y-114154857D01*
X144417142Y-114203238D01*
X144610666Y-114251619D01*
X144852571Y-114251619D01*
X145046095Y-114203238D01*
X145142857Y-114154857D01*
X145191238Y-114106476D01*
X145239619Y-114009714D01*
X145239619Y-113912952D01*
X145191238Y-113816190D01*
X145142857Y-113767809D01*
X145046095Y-113719428D01*
X144852571Y-113671047D01*
X144610666Y-113671047D01*
X144417142Y-113719428D01*
X144320380Y-113767809D01*
X144272000Y-113816190D01*
X144223619Y-113912952D01*
X145239619Y-115267619D02*
X144755809Y-114928952D01*
X145239619Y-114687047D02*
X144223619Y-114687047D01*
X144223619Y-115074095D01*
X144272000Y-115170857D01*
X144320380Y-115219238D01*
X144417142Y-115267619D01*
X144562285Y-115267619D01*
X144659047Y-115219238D01*
X144707428Y-115170857D01*
X144755809Y-115074095D01*
X144755809Y-114687047D01*
X187864095Y-104453619D02*
X187864095Y-105276095D01*
X187815714Y-105372857D01*
X187767333Y-105421238D01*
X187670571Y-105469619D01*
X187477047Y-105469619D01*
X187380285Y-105421238D01*
X187331904Y-105372857D01*
X187283523Y-105276095D01*
X187283523Y-104453619D01*
X186896476Y-104453619D02*
X186267523Y-104453619D01*
X186606190Y-104840666D01*
X186461047Y-104840666D01*
X186364285Y-104889047D01*
X186315904Y-104937428D01*
X186267523Y-105034190D01*
X186267523Y-105276095D01*
X186315904Y-105372857D01*
X186364285Y-105421238D01*
X186461047Y-105469619D01*
X186751333Y-105469619D01*
X186848095Y-105421238D01*
X186896476Y-105372857D01*
X179783619Y-108155619D02*
X179783619Y-108736190D01*
X180799619Y-108445904D02*
X179783619Y-108445904D01*
X180799619Y-109558666D02*
X180799619Y-109074857D01*
X179783619Y-109074857D01*
X180267428Y-109897333D02*
X180267428Y-110236000D01*
X180799619Y-110381142D02*
X180799619Y-109897333D01*
X179783619Y-109897333D01*
X179783619Y-110381142D01*
X179783619Y-110719809D02*
X179783619Y-111397142D01*
X180799619Y-110961714D01*
X179880380Y-111735809D02*
X179832000Y-111784190D01*
X179783619Y-111880952D01*
X179783619Y-112122857D01*
X179832000Y-112219619D01*
X179880380Y-112268000D01*
X179977142Y-112316380D01*
X180073904Y-112316380D01*
X180219047Y-112268000D01*
X180799619Y-111687428D01*
X180799619Y-112316380D01*
X179783619Y-112655047D02*
X179783619Y-113284000D01*
X180170666Y-112945333D01*
X180170666Y-113090476D01*
X180219047Y-113187238D01*
X180267428Y-113235619D01*
X180364190Y-113284000D01*
X180606095Y-113284000D01*
X180702857Y-113235619D01*
X180751238Y-113187238D01*
X180799619Y-113090476D01*
X180799619Y-112800190D01*
X180751238Y-112703428D01*
X180702857Y-112655047D01*
X179783619Y-113912952D02*
X179783619Y-114009714D01*
X179832000Y-114106476D01*
X179880380Y-114154857D01*
X179977142Y-114203238D01*
X180170666Y-114251619D01*
X180412571Y-114251619D01*
X180606095Y-114203238D01*
X180702857Y-114154857D01*
X180751238Y-114106476D01*
X180799619Y-114009714D01*
X180799619Y-113912952D01*
X180751238Y-113816190D01*
X180702857Y-113767809D01*
X180606095Y-113719428D01*
X180412571Y-113671047D01*
X180170666Y-113671047D01*
X179977142Y-113719428D01*
X179880380Y-113767809D01*
X179832000Y-113816190D01*
X179783619Y-113912952D01*
X180799619Y-115267619D02*
X180315809Y-114928952D01*
X180799619Y-114687047D02*
X179783619Y-114687047D01*
X179783619Y-115074095D01*
X179832000Y-115170857D01*
X179880380Y-115219238D01*
X179977142Y-115267619D01*
X180122285Y-115267619D01*
X180219047Y-115219238D01*
X180267428Y-115170857D01*
X180315809Y-115074095D01*
X180315809Y-114687047D01*
X152304095Y-81593619D02*
X152304095Y-82416095D01*
X152255714Y-82512857D01*
X152207333Y-82561238D01*
X152110571Y-82609619D01*
X151917047Y-82609619D01*
X151820285Y-82561238D01*
X151771904Y-82512857D01*
X151723523Y-82416095D01*
X151723523Y-81593619D01*
X151288095Y-81690380D02*
X151239714Y-81642000D01*
X151142952Y-81593619D01*
X150901047Y-81593619D01*
X150804285Y-81642000D01*
X150755904Y-81690380D01*
X150707523Y-81787142D01*
X150707523Y-81883904D01*
X150755904Y-82029047D01*
X151336476Y-82609619D01*
X150707523Y-82609619D01*
X144223619Y-85295619D02*
X144223619Y-85876190D01*
X145239619Y-85585904D02*
X144223619Y-85585904D01*
X145239619Y-86698666D02*
X145239619Y-86214857D01*
X144223619Y-86214857D01*
X144707428Y-87037333D02*
X144707428Y-87376000D01*
X145239619Y-87521142D02*
X145239619Y-87037333D01*
X144223619Y-87037333D01*
X144223619Y-87521142D01*
X144223619Y-87859809D02*
X144223619Y-88537142D01*
X145239619Y-88101714D01*
X144320380Y-88875809D02*
X144272000Y-88924190D01*
X144223619Y-89020952D01*
X144223619Y-89262857D01*
X144272000Y-89359619D01*
X144320380Y-89408000D01*
X144417142Y-89456380D01*
X144513904Y-89456380D01*
X144659047Y-89408000D01*
X145239619Y-88827428D01*
X145239619Y-89456380D01*
X144223619Y-89795047D02*
X144223619Y-90424000D01*
X144610666Y-90085333D01*
X144610666Y-90230476D01*
X144659047Y-90327238D01*
X144707428Y-90375619D01*
X144804190Y-90424000D01*
X145046095Y-90424000D01*
X145142857Y-90375619D01*
X145191238Y-90327238D01*
X145239619Y-90230476D01*
X145239619Y-89940190D01*
X145191238Y-89843428D01*
X145142857Y-89795047D01*
X144223619Y-91052952D02*
X144223619Y-91149714D01*
X144272000Y-91246476D01*
X144320380Y-91294857D01*
X144417142Y-91343238D01*
X144610666Y-91391619D01*
X144852571Y-91391619D01*
X145046095Y-91343238D01*
X145142857Y-91294857D01*
X145191238Y-91246476D01*
X145239619Y-91149714D01*
X145239619Y-91052952D01*
X145191238Y-90956190D01*
X145142857Y-90907809D01*
X145046095Y-90859428D01*
X144852571Y-90811047D01*
X144610666Y-90811047D01*
X144417142Y-90859428D01*
X144320380Y-90907809D01*
X144272000Y-90956190D01*
X144223619Y-91052952D01*
X145239619Y-92407619D02*
X144755809Y-92068952D01*
X145239619Y-91827047D02*
X144223619Y-91827047D01*
X144223619Y-92214095D01*
X144272000Y-92310857D01*
X144320380Y-92359238D01*
X144417142Y-92407619D01*
X144562285Y-92407619D01*
X144659047Y-92359238D01*
X144707428Y-92310857D01*
X144755809Y-92214095D01*
X144755809Y-91827047D01*
X187864095Y-81593619D02*
X187864095Y-82416095D01*
X187815714Y-82512857D01*
X187767333Y-82561238D01*
X187670571Y-82609619D01*
X187477047Y-82609619D01*
X187380285Y-82561238D01*
X187331904Y-82512857D01*
X187283523Y-82416095D01*
X187283523Y-81593619D01*
X186267523Y-82609619D02*
X186848095Y-82609619D01*
X186557809Y-82609619D02*
X186557809Y-81593619D01*
X186654571Y-81738761D01*
X186751333Y-81835523D01*
X186848095Y-81883904D01*
X179783619Y-85295619D02*
X179783619Y-85876190D01*
X180799619Y-85585904D02*
X179783619Y-85585904D01*
X180799619Y-86698666D02*
X180799619Y-86214857D01*
X179783619Y-86214857D01*
X180267428Y-87037333D02*
X180267428Y-87376000D01*
X180799619Y-87521142D02*
X180799619Y-87037333D01*
X179783619Y-87037333D01*
X179783619Y-87521142D01*
X179783619Y-87859809D02*
X179783619Y-88537142D01*
X180799619Y-88101714D01*
X179880380Y-88875809D02*
X179832000Y-88924190D01*
X179783619Y-89020952D01*
X179783619Y-89262857D01*
X179832000Y-89359619D01*
X179880380Y-89408000D01*
X179977142Y-89456380D01*
X180073904Y-89456380D01*
X180219047Y-89408000D01*
X180799619Y-88827428D01*
X180799619Y-89456380D01*
X179783619Y-89795047D02*
X179783619Y-90424000D01*
X180170666Y-90085333D01*
X180170666Y-90230476D01*
X180219047Y-90327238D01*
X180267428Y-90375619D01*
X180364190Y-90424000D01*
X180606095Y-90424000D01*
X180702857Y-90375619D01*
X180751238Y-90327238D01*
X180799619Y-90230476D01*
X180799619Y-89940190D01*
X180751238Y-89843428D01*
X180702857Y-89795047D01*
X179783619Y-91052952D02*
X179783619Y-91149714D01*
X179832000Y-91246476D01*
X179880380Y-91294857D01*
X179977142Y-91343238D01*
X180170666Y-91391619D01*
X180412571Y-91391619D01*
X180606095Y-91343238D01*
X180702857Y-91294857D01*
X180751238Y-91246476D01*
X180799619Y-91149714D01*
X180799619Y-91052952D01*
X180751238Y-90956190D01*
X180702857Y-90907809D01*
X180606095Y-90859428D01*
X180412571Y-90811047D01*
X180170666Y-90811047D01*
X179977142Y-90859428D01*
X179880380Y-90907809D01*
X179832000Y-90956190D01*
X179783619Y-91052952D01*
X180799619Y-92407619D02*
X180315809Y-92068952D01*
X180799619Y-91827047D02*
X179783619Y-91827047D01*
X179783619Y-92214095D01*
X179832000Y-92310857D01*
X179880380Y-92359238D01*
X179977142Y-92407619D01*
X180122285Y-92407619D01*
X180219047Y-92359238D01*
X180267428Y-92310857D01*
X180315809Y-92214095D01*
X180315809Y-91827047D01*
%LPC*%
D15*
X143256000Y-123190000D03*
X146304000Y-123190000D03*
D16*
X103505000Y-113030000D03*
X100965000Y-113030000D03*
X106045000Y-113030000D03*
D17*
X208457800Y-102870000D03*
D18*
X204952600Y-102870000D03*
D19*
X199466200Y-102870000D03*
D20*
X206451200Y-98374200D03*
X206451200Y-107365800D03*
D15*
X199771000Y-98425000D03*
X202819000Y-98425000D03*
X106299000Y-108585000D03*
X103251000Y-108585000D03*
X178816000Y-123190000D03*
X181864000Y-123190000D03*
D21*
X99060000Y-107950000D03*
X99060000Y-97790000D03*
D22*
X105156000Y-102870000D03*
D23*
X107950000Y-102870000D03*
X107950000Y-100076000D03*
X107950000Y-105664000D03*
D24*
X111760000Y-127000000D03*
X113030000Y-78740000D03*
X194310000Y-127000000D03*
X187960000Y-78740000D03*
D16*
X125730000Y-127000000D03*
X128270000Y-127000000D03*
X130810000Y-127000000D03*
X133350000Y-127000000D03*
X135890000Y-127000000D03*
X138430000Y-127000000D03*
X140970000Y-127000000D03*
X143510000Y-127000000D03*
X148590000Y-127000000D03*
X151130000Y-127000000D03*
X153670000Y-127000000D03*
X156210000Y-127000000D03*
X158750000Y-127000000D03*
X161290000Y-127000000D03*
X163830000Y-127000000D03*
X166370000Y-127000000D03*
X171450000Y-127000000D03*
X173990000Y-127000000D03*
X176530000Y-127000000D03*
X179070000Y-127000000D03*
X181610000Y-127000000D03*
X184150000Y-127000000D03*
X186690000Y-127000000D03*
X189230000Y-127000000D03*
X116586000Y-78740000D03*
X119126000Y-78740000D03*
X121666000Y-78740000D03*
X124206000Y-78740000D03*
X126746000Y-78740000D03*
X129286000Y-78740000D03*
X131826000Y-78740000D03*
X134366000Y-78740000D03*
X136906000Y-78740000D03*
X139446000Y-78740000D03*
X143510000Y-78740000D03*
X161290000Y-78740000D03*
X158750000Y-78740000D03*
X156210000Y-78740000D03*
X153670000Y-78740000D03*
X151130000Y-78740000D03*
X148590000Y-78740000D03*
X146050000Y-78740000D03*
X166370000Y-78740000D03*
X168910000Y-78740000D03*
X171450000Y-78740000D03*
X173990000Y-78740000D03*
X176530000Y-78740000D03*
X179070000Y-78740000D03*
X181610000Y-78740000D03*
X184150000Y-78740000D03*
X191770000Y-78232000D03*
X194310000Y-78232000D03*
D25*
X191262000Y-81280000D03*
X194818000Y-81280000D03*
X191262000Y-83820000D03*
X194818000Y-83820000D03*
X191262000Y-86360000D03*
X194818000Y-86360000D03*
X191262000Y-88900000D03*
X194818000Y-88900000D03*
X191262000Y-91440000D03*
X194818000Y-91440000D03*
X191262000Y-93980000D03*
X194818000Y-93980000D03*
X191262000Y-96520000D03*
X194818000Y-96520000D03*
X191262000Y-99060000D03*
X194818000Y-99060000D03*
X191262000Y-101600000D03*
X194818000Y-101600000D03*
X191262000Y-104140000D03*
X194818000Y-104140000D03*
X191262000Y-106680000D03*
X194818000Y-106680000D03*
X191262000Y-109220000D03*
X194818000Y-109220000D03*
X191262000Y-111760000D03*
X194818000Y-111760000D03*
X191262000Y-114300000D03*
X194818000Y-114300000D03*
X191262000Y-116840000D03*
X194818000Y-116840000D03*
X191262000Y-119380000D03*
X194818000Y-119380000D03*
X191262000Y-121920000D03*
X194818000Y-121920000D03*
D26*
X99695000Y-90170000D03*
X99695000Y-80264000D03*
D27*
X206375000Y-86106000D03*
X203835000Y-86106000D03*
X201295000Y-86106000D03*
D26*
X208788000Y-82931000D03*
X198882000Y-82931000D03*
D28*
X209829400Y-79375000D03*
X197840600Y-79375000D03*
D26*
X205359000Y-80137000D03*
X205359000Y-90043000D03*
D27*
X201295000Y-119634000D03*
X203835000Y-119634000D03*
X206375000Y-119634000D03*
D26*
X198882000Y-122809000D03*
X208788000Y-122809000D03*
D28*
X197840600Y-126365000D03*
X209829400Y-126365000D03*
D26*
X207518000Y-124079000D03*
X200152000Y-124079000D03*
D15*
X100711000Y-117475000D03*
X103759000Y-117475000D03*
X178816000Y-100330000D03*
X181864000Y-100330000D03*
X143256000Y-100330000D03*
X146304000Y-100330000D03*
D29*
X151520000Y-106235000D03*
X151520000Y-106885000D03*
X151520000Y-107535000D03*
X151520000Y-108185000D03*
X151520000Y-108835000D03*
X151520000Y-109485000D03*
X151520000Y-110135000D03*
X151520000Y-110785000D03*
X151520000Y-111435000D03*
X151520000Y-112085000D03*
X151520000Y-112735000D03*
X151520000Y-113385000D03*
X151520000Y-114035000D03*
X151520000Y-114685000D03*
X151520000Y-115335000D03*
X151520000Y-115985000D03*
X151520000Y-116635000D03*
X151520000Y-117285000D03*
X138040000Y-117285000D03*
X138040000Y-116635000D03*
X138040000Y-115985000D03*
X138040000Y-115335000D03*
X138040000Y-114685000D03*
X138040000Y-114035000D03*
X138040000Y-113385000D03*
X138040000Y-112735000D03*
X138040000Y-112085000D03*
X138040000Y-111435000D03*
X138040000Y-110785000D03*
X138040000Y-110135000D03*
X138040000Y-109485000D03*
X138040000Y-108835000D03*
X138040000Y-108185000D03*
X138040000Y-107535000D03*
X138040000Y-106885000D03*
X138040000Y-106235000D03*
X187080000Y-106235000D03*
X187080000Y-106885000D03*
X187080000Y-107535000D03*
X187080000Y-108185000D03*
X187080000Y-108835000D03*
X187080000Y-109485000D03*
X187080000Y-110135000D03*
X187080000Y-110785000D03*
X187080000Y-111435000D03*
X187080000Y-112085000D03*
X187080000Y-112735000D03*
X187080000Y-113385000D03*
X187080000Y-114035000D03*
X187080000Y-114685000D03*
X187080000Y-115335000D03*
X187080000Y-115985000D03*
X187080000Y-116635000D03*
X187080000Y-117285000D03*
X173600000Y-117285000D03*
X173600000Y-116635000D03*
X173600000Y-115985000D03*
X173600000Y-115335000D03*
X173600000Y-114685000D03*
X173600000Y-114035000D03*
X173600000Y-113385000D03*
X173600000Y-112735000D03*
X173600000Y-112085000D03*
X173600000Y-111435000D03*
X173600000Y-110785000D03*
X173600000Y-110135000D03*
X173600000Y-109485000D03*
X173600000Y-108835000D03*
X173600000Y-108185000D03*
X173600000Y-107535000D03*
X173600000Y-106885000D03*
X173600000Y-106235000D03*
X151520000Y-83375000D03*
X151520000Y-84025000D03*
X151520000Y-84675000D03*
X151520000Y-85325000D03*
X151520000Y-85975000D03*
X151520000Y-86625000D03*
X151520000Y-87275000D03*
X151520000Y-87925000D03*
X151520000Y-88575000D03*
X151520000Y-89225000D03*
X151520000Y-89875000D03*
X151520000Y-90525000D03*
X151520000Y-91175000D03*
X151520000Y-91825000D03*
X151520000Y-92475000D03*
X151520000Y-93125000D03*
X151520000Y-93775000D03*
X151520000Y-94425000D03*
X138040000Y-94425000D03*
X138040000Y-93775000D03*
X138040000Y-93125000D03*
X138040000Y-92475000D03*
X138040000Y-91825000D03*
X138040000Y-91175000D03*
X138040000Y-90525000D03*
X138040000Y-89875000D03*
X138040000Y-89225000D03*
X138040000Y-88575000D03*
X138040000Y-87925000D03*
X138040000Y-87275000D03*
X138040000Y-86625000D03*
X138040000Y-85975000D03*
X138040000Y-85325000D03*
X138040000Y-84675000D03*
X138040000Y-84025000D03*
X138040000Y-83375000D03*
X187080000Y-83375000D03*
X187080000Y-84025000D03*
X187080000Y-84675000D03*
X187080000Y-85325000D03*
X187080000Y-85975000D03*
X187080000Y-86625000D03*
X187080000Y-87275000D03*
X187080000Y-87925000D03*
X187080000Y-88575000D03*
X187080000Y-89225000D03*
X187080000Y-89875000D03*
X187080000Y-90525000D03*
X187080000Y-91175000D03*
X187080000Y-91825000D03*
X187080000Y-92475000D03*
X187080000Y-93125000D03*
X187080000Y-93775000D03*
X187080000Y-94425000D03*
X173600000Y-94425000D03*
X173600000Y-93775000D03*
X173600000Y-93125000D03*
X173600000Y-92475000D03*
X173600000Y-91825000D03*
X173600000Y-91175000D03*
X173600000Y-90525000D03*
X173600000Y-89875000D03*
X173600000Y-89225000D03*
X173600000Y-88575000D03*
X173600000Y-87925000D03*
X173600000Y-87275000D03*
X173600000Y-86625000D03*
X173600000Y-85975000D03*
X173600000Y-85325000D03*
X173600000Y-84675000D03*
X173600000Y-84025000D03*
X173600000Y-83375000D03*
D22*
X202565000Y-109220000D03*
X197485000Y-109220000D03*
D23*
X171450000Y-100965000D03*
X171450000Y-95885000D03*
X168910000Y-100965000D03*
X168910000Y-95885000D03*
X166370000Y-100965000D03*
X166370000Y-95885000D03*
X163830000Y-100965000D03*
X163830000Y-95885000D03*
X161290000Y-100965000D03*
X161290000Y-95885000D03*
X158750000Y-100965000D03*
X158750000Y-95885000D03*
X156210000Y-100965000D03*
X156210000Y-95885000D03*
X153670000Y-100965000D03*
X153670000Y-95885000D03*
X135890000Y-100965000D03*
X135890000Y-95885000D03*
X133350000Y-100965000D03*
X133350000Y-95885000D03*
X130810000Y-100965000D03*
X130810000Y-95885000D03*
X128270000Y-100965000D03*
X128270000Y-95885000D03*
X125730000Y-100965000D03*
X125730000Y-95885000D03*
X123190000Y-100965000D03*
X123190000Y-95885000D03*
X120650000Y-100965000D03*
X120650000Y-95885000D03*
X171450000Y-123825000D03*
X171450000Y-118745000D03*
X168910000Y-123825000D03*
X168910000Y-118745000D03*
X166370000Y-123825000D03*
X166370000Y-118745000D03*
X163830000Y-123825000D03*
X163830000Y-118745000D03*
X161290000Y-123825000D03*
X161290000Y-118745000D03*
X158750000Y-123825000D03*
X158750000Y-118745000D03*
X156210000Y-123825000D03*
X156210000Y-118745000D03*
X153670000Y-123825000D03*
X153670000Y-118745000D03*
X135890000Y-123825000D03*
X135890000Y-118745000D03*
X133350000Y-123825000D03*
X133350000Y-118745000D03*
X130810000Y-123825000D03*
X130810000Y-118745000D03*
X128270000Y-123825000D03*
X128270000Y-118745000D03*
X125730000Y-123825000D03*
X125730000Y-118745000D03*
X123190000Y-123825000D03*
X123190000Y-118745000D03*
X120650000Y-123825000D03*
X120650000Y-118745000D03*
X118110000Y-123825000D03*
X118110000Y-118745000D03*
X118110000Y-100965000D03*
X118110000Y-95885000D03*
D30*
X198755000Y-94970600D03*
X203835000Y-94970600D03*
M02*
